<svg width="24" height="24" viewBox="0 0 24 24" fill="none" xmlns="http://www.w3.org/2000/svg">
<g clip-path="url(#clip0_2852_214)">
<path d="M0.923096 10.4176C0.923096 8.61938 0.923096 6.89311 0.923096 5.09491C0.923096 3.8002 1.85816 2.72128 3.15287 2.43357C3.65636 2.36164 4.15986 2.36164 4.59143 2.36164C4.73528 2.36164 4.80721 2.28971 4.80721 2.14585C4.80721 1.93007 4.80721 1.71429 4.80721 1.4985C4.80721 1.13886 5.023 0.923077 5.31071 0.923077C5.67035 0.923077 5.88613 1.13886 5.88613 1.57043C5.88613 1.78621 5.88613 2.002 5.88613 2.21778C5.88613 2.36164 5.88613 2.36164 6.02999 2.36164C7.03698 2.36164 7.97205 2.36164 8.97904 2.36164C9.1229 2.36164 9.1229 2.28971 9.1229 2.21778C9.1229 1.93007 9.1229 1.71429 9.1229 1.42657C9.1229 1.06693 9.33868 0.851149 9.62639 0.851149C10.058 0.923077 10.2737 1.13886 10.2737 1.4985C10.2737 1.78621 10.2737 2.002 10.2737 2.28971C10.2737 2.43357 10.2737 2.50549 10.4176 2.50549C11.3527 2.50549 12.2877 2.50549 13.2947 2.50549C13.4386 2.50549 13.4386 2.43357 13.4386 2.36164C13.4386 2.14585 13.4386 1.85814 13.4386 1.64236C13.4386 1.28272 13.6544 1.06693 13.9421 1.06693C14.2298 1.06693 14.4456 1.28272 14.5175 1.64236C14.5175 1.85814 14.5175 2.14585 14.5175 2.36164C14.5175 2.50549 14.5894 2.57742 14.7333 2.57742C15.021 2.57742 15.3087 2.57742 15.6684 2.57742C17.3227 2.57742 18.4735 3.72827 18.4735 5.38262C18.4735 7.82817 18.4735 10.2737 18.4735 12.7193C18.4735 12.9351 18.5455 13.007 18.7613 13.007C21.1349 13.3666 22.7892 15.1648 23.1489 17.4665C23.5085 20.1279 21.4945 22.7892 18.7613 23.0769C16.028 23.4366 13.5824 21.7103 13.007 18.977C12.4316 16.1718 14.4456 13.3666 17.1788 13.007C17.3227 13.007 17.3946 12.9351 17.3946 12.7193C17.3946 10.2737 17.3946 7.75624 17.3946 5.31069C17.3946 4.3037 16.6753 3.58442 15.6684 3.58442C15.3806 3.58442 15.021 3.58442 14.7333 3.58442C14.5894 3.58442 14.5894 3.65634 14.5894 3.72827C14.5894 3.94406 14.5894 4.23177 14.5894 4.44755C14.5894 4.73527 14.3736 4.95105 14.0859 4.95105C13.7982 4.95105 13.5824 4.73527 13.5105 4.44755C13.5105 4.23177 13.5105 3.94406 13.5105 3.72827C13.5105 3.58442 13.5105 3.51249 13.2947 3.51249C10.9211 3.51249 8.47554 3.51249 6.10192 3.51249C5.95806 3.51249 5.88613 3.51249 5.88613 3.65634C5.88613 3.87213 5.88613 4.08791 5.88613 4.3037C5.88613 4.66334 5.67035 4.87912 5.38264 4.87912C5.09492 4.87912 4.87914 4.66334 4.80721 4.3037C4.80721 4.08791 4.80721 3.87213 4.80721 3.65634C4.80721 3.51249 4.73528 3.51249 4.66336 3.51249C4.30371 3.51249 4.016 3.51249 3.65636 3.51249C2.7213 3.51249 2.00202 4.23177 2.00202 5.16683C2.00202 5.5984 2.00202 6.02997 2.00202 6.53347C2.00202 9.62638 2.00202 12.6474 2.00202 15.7403C2.00202 16.6034 2.50551 17.3227 3.36865 17.4665C3.51251 17.4665 3.65636 17.4665 3.80022 17.4665C6.10192 17.4665 8.33169 17.4665 10.6334 17.4665C11.065 17.4665 11.3527 17.7542 11.2807 18.1139C11.2088 18.3297 11.065 18.4735 10.8492 18.5455C10.7772 18.5455 10.7053 18.5455 10.5615 18.5455C8.25976 18.5455 6.02999 18.5455 3.72829 18.5455C2.43359 18.5455 1.42659 17.8262 0.995024 16.6753C0.995024 16.3157 0.923096 16.028 0.923096 15.6683C0.923096 13.9421 0.923096 12.2158 0.923096 10.4176ZM17.97 13.9421C15.7403 13.9421 13.9421 15.7403 13.9421 17.97C13.9421 20.1998 15.7403 22.0699 17.97 22.0699C20.1998 22.0699 21.998 20.2717 22.0699 18.042C21.998 15.7403 20.1998 13.9421 17.97 13.9421Z" fill="#39629C" stroke="#39629C" stroke-width="0.3"/>
<path d="M9.77017 9.55444C8.40353 9.55444 7.0369 9.55444 5.59834 9.55444C5.52641 9.55444 5.38255 9.55444 5.31063 9.55444C5.02291 9.55444 4.80713 9.26673 4.80713 9.05095C4.80713 8.76324 5.02291 8.54745 5.2387 8.54745C5.31063 8.54745 5.31063 8.54745 5.38255 8.54745C8.25968 8.54745 11.1368 8.54745 14.0139 8.54745C14.3736 8.54745 14.6613 8.83516 14.5893 9.1948C14.5893 9.41059 14.3736 9.55444 14.0859 9.55444C13.5104 9.55444 12.8631 9.55444 12.2876 9.55444C11.4245 9.55444 10.5614 9.55444 9.77017 9.55444Z" fill="#39629C"/>
<path d="M8.54755 12.1439C9.55455 12.1439 10.5615 12.1439 11.4966 12.1439C11.6405 12.1439 11.7124 12.1439 11.8562 12.1439C12.072 12.2158 12.2159 12.3596 12.2159 12.6474C12.2159 12.8631 12.072 13.0789 11.8562 13.1508C11.7843 13.2228 11.6405 13.2228 11.5685 13.2228C9.55455 13.2228 7.54056 13.2228 5.52657 13.2228C5.02308 13.2228 4.73537 12.8631 4.95115 12.5035C5.09501 12.2158 5.31079 12.1439 5.5985 12.1439C6.53357 12.1439 7.54056 12.1439 8.54755 12.1439Z" fill="#39629C"/>
<path d="M16.7473 16.1718C16.8912 16.1718 17.0351 16.2438 17.107 16.3876C17.3228 16.6034 17.6105 16.8911 17.8263 17.1069C17.8982 17.2507 17.9701 17.1788 18.114 17.1069C18.3298 16.8911 18.6175 16.6034 18.8333 16.3876C19.121 16.0999 19.4087 16.0999 19.6245 16.3157C19.8403 16.5315 19.8403 16.8192 19.5525 17.1069C19.3368 17.3227 19.049 17.6104 18.8333 17.8262C18.7613 17.8981 18.6894 17.97 18.8333 18.1139C19.049 18.3297 19.3368 18.6174 19.5525 18.8332C19.8403 19.1209 19.8403 19.4086 19.6245 19.6244C19.4087 19.8402 19.049 19.8402 18.8333 19.5524C18.6175 19.3367 18.3298 19.1209 18.114 18.8332C17.9701 18.6893 17.9701 18.7612 17.8263 18.8332C17.6105 19.0489 17.3228 19.3367 17.107 19.5524C16.8912 19.7682 16.5316 19.8402 16.3158 19.6244C16.1 19.4086 16.1 19.0489 16.3158 18.8332C16.5316 18.6174 16.8193 18.3297 17.0351 18.1139C17.107 18.042 17.107 17.97 17.0351 17.8981C16.7473 17.6823 16.5316 17.3946 16.2439 17.1069C16.1 16.963 16.0281 16.7473 16.1 16.5315C16.3158 16.2438 16.4596 16.1718 16.7473 16.1718Z" fill="#39629C"/>
</g>
<defs>
<clipPath id="clip0_2852_214">
<rect width="24" height="24" fill="white"/>
</clipPath>
</defs>
</svg>
