<svg width="16" height="16" viewBox="0 0 16 16" fill="none" xmlns="http://www.w3.org/2000/svg">
<path d="M2.72855 16C2.57587 15.9256 2.40362 15.9217 2.24311 15.8747C1.87512 15.7612 1.80856 15.5185 2.07869 15.2483C2.45451 14.8764 2.83034 14.5006 3.21008 14.1326C3.28838 14.0582 3.30404 13.9799 3.3197 13.8781C3.36667 13.5376 3.26489 13.2713 2.98302 13.0756C2.97519 13.0717 2.96736 13.0639 2.95953 13.0521C2.74813 12.7468 2.45843 12.6371 2.09043 12.688C2.00431 12.6998 1.93775 12.7233 1.87512 12.7859C1.49929 13.1696 1.12346 13.5493 0.743723 13.929C0.481428 14.1952 0.234793 14.1287 0.125177 13.7685C-0.403328 11.9873 0.739808 10.1238 2.5563 9.80279C2.9791 9.7284 3.40582 9.73623 3.82471 9.83802C3.89126 9.85368 3.93433 9.85368 3.98914 9.80279C4.72904 9.05896 5.47286 8.31514 6.23626 7.55175C6.1932 7.51651 6.14622 7.49302 6.11099 7.45387C4.90521 6.2481 3.70335 5.04233 2.50149 3.83264C2.42319 3.75434 2.3449 3.71519 2.23137 3.71911C2.04345 3.73085 1.85554 3.71911 1.67154 3.72302C1.52669 3.72694 1.42491 3.6643 1.35053 3.54294C0.923806 2.82652 0.489258 2.1101 0.062539 1.39368C-0.0353323 1.22926 -0.0196729 1.09224 0.117347 0.95522C0.391387 0.677265 0.665426 0.403226 0.943381 0.129186C1.09214 -0.0156634 1.21351 -0.0313228 1.39359 0.0743782C2.10609 0.501097 2.81468 0.927816 3.52718 1.35453C3.66029 1.43283 3.72293 1.55028 3.71901 1.70296C3.7151 1.89478 3.72293 2.08661 3.7151 2.27844C3.71118 2.36848 3.7425 2.43112 3.80514 2.49376C5.02266 3.71128 6.23626 4.92879 7.44986 6.14631C7.52033 6.2207 7.55557 6.23244 7.63778 6.15414C8.34245 5.44164 9.05495 4.73305 9.76746 4.02446C9.83009 3.96183 9.84967 3.9031 9.82618 3.81698C9.4895 2.43503 10.1942 1.00611 11.4039 0.367992C12.1868 -0.0430674 13.005 -0.105705 13.8467 0.160505C14.1012 0.242717 14.156 0.505012 13.9642 0.704669C13.5844 1.09615 13.2008 1.48372 12.8132 1.8713C12.7388 1.94568 12.7193 2.02397 12.7036 2.12968C12.6566 2.47418 12.7584 2.74822 13.0403 2.95179C13.0559 2.96354 13.0716 2.9792 13.0833 2.99486C13.2673 3.26498 13.5179 3.35894 13.8428 3.31979C13.9681 3.30413 14.062 3.27673 14.1521 3.18669C14.5123 2.81086 14.8803 2.44678 15.2482 2.07878C15.5066 1.8204 15.7533 1.88304 15.859 2.23146C15.8864 2.3215 15.8903 2.42329 15.9451 2.50159C15.9451 2.92831 15.9451 3.35502 15.9451 3.78174C15.8942 3.82481 15.8981 3.89136 15.8825 3.95008C15.7572 4.40812 15.5458 4.82309 15.2287 5.17152C14.4066 6.07976 13.3926 6.41252 12.1907 6.17763C12.0929 6.15806 12.0302 6.17372 11.9598 6.24418C11.5605 6.65133 11.1533 7.05456 10.7501 7.45779C10.57 7.63787 10.3899 7.81404 10.202 7.99804C10.2881 8.07634 10.3664 8.1468 10.4408 8.21727C10.5113 8.27991 10.5739 8.38169 10.6522 8.39344C10.7383 8.4091 10.7853 8.28774 10.8558 8.22902C10.9576 8.1468 11.0672 8.11548 11.1885 8.16246C11.3021 8.20944 11.3725 8.29948 11.3843 8.42476C11.3999 8.55786 11.3295 8.65573 11.2316 8.73403C11.1298 8.81624 11.1377 8.86714 11.2355 8.95326C12.5313 10.1355 13.8193 11.3296 15.123 12.5079C15.4871 12.8368 15.8002 13.1852 15.9412 13.6667C15.9412 13.9878 15.9412 14.3127 15.9412 14.6337C15.8942 14.6572 15.8942 14.712 15.8785 14.7512C15.6593 15.3345 15.2561 15.726 14.6649 15.9178C14.5592 15.953 14.4535 15.9765 14.3478 16.0039C14.1599 16.0039 13.972 16.0039 13.788 16.0039C13.7724 15.9491 13.7175 15.9608 13.6862 15.953C13.2947 15.863 12.9737 15.6555 12.6997 15.3619C11.4743 14.0308 10.2529 12.7037 9.02755 11.3726C8.96491 11.3022 8.9101 11.2004 8.83181 11.1769C8.73785 11.1456 8.70262 11.2865 8.62432 11.3296C8.61649 11.3335 8.60866 11.3413 8.60083 11.3492C8.47164 11.4353 8.31113 11.4235 8.20152 11.3178C8.09581 11.2121 8.08016 11.0634 8.16628 10.9342C8.20543 10.8755 8.25632 10.8206 8.31113 10.7698C8.37768 10.711 8.39726 10.6719 8.31896 10.6014C8.22501 10.5153 8.13496 10.4174 8.05667 10.3156C7.99011 10.2334 7.95097 10.2452 7.88441 10.3156C7.33633 10.8676 6.78434 11.4196 6.23235 11.9677C6.15796 12.0421 6.13447 12.1086 6.16188 12.2143C6.25975 12.6136 6.27932 13.0169 6.1932 13.4201C5.92699 14.665 5.19882 15.5028 3.96956 15.8826C3.79339 15.9374 3.61331 15.9648 3.43323 16.0078C3.20616 16 2.96736 16 2.72855 16ZM0.641937 13.1226C0.955125 12.8133 1.2644 12.5158 1.56584 12.2104C1.66371 12.1125 1.76941 12.0617 1.91035 12.0656C2.1609 12.0734 2.40754 12.0695 2.65809 12.0656C2.79119 12.0617 2.89689 12.1047 2.99085 12.1987C3.25706 12.4688 3.52718 12.735 3.79731 13.0012C3.89126 13.0952 3.93824 13.2048 3.93824 13.334C3.93824 13.5845 3.93824 13.8312 3.93824 14.0817C3.93824 14.2187 3.88735 14.3284 3.78948 14.4262C3.51935 14.6924 3.24923 14.9586 2.98302 15.2288C2.94778 15.264 2.89689 15.2875 2.88906 15.3462C3.25314 15.4284 3.89909 15.3071 4.31407 15.0722C5.36325 14.481 5.84478 13.3379 5.51984 12.1791C5.46503 11.9834 5.48461 11.8346 5.63337 11.6858C7.65344 9.66968 9.66959 7.65353 11.6857 5.63347C11.8267 5.49253 11.9715 5.46121 12.1633 5.51602C13.4787 5.89576 14.8098 5.195 15.2482 3.89527C15.3618 3.56643 15.3931 3.22583 15.35 2.87741C15.0368 3.18277 14.7315 3.4803 14.434 3.78174C14.3322 3.88353 14.2226 3.93834 14.0738 3.93442C13.8311 3.92659 13.5844 3.92659 13.3417 3.93442C13.1969 3.93834 13.0833 3.88744 12.9816 3.78174C12.731 3.51945 12.4804 3.25715 12.226 2.99486C12.132 2.9009 12.085 2.79129 12.089 2.6621C12.089 2.41155 12.089 2.16491 12.089 1.91436C12.089 1.78125 12.132 1.67164 12.226 1.5816C12.3787 1.43283 12.5274 1.28015 12.6762 1.12747C12.8289 0.974794 12.9776 0.8182 13.1499 0.645947C12.821 0.606798 12.5274 0.634202 12.2416 0.712499C10.8597 1.10007 10.0963 2.44678 10.4839 3.83264C10.5426 4.04012 10.4995 4.18497 10.3508 4.33374C8.33854 6.33423 6.33022 8.34255 4.32973 10.3509C4.18096 10.5035 4.0322 10.5388 3.82863 10.484C2.75596 10.1904 1.74201 10.5427 1.08823 11.4314C0.720234 11.9325 0.583214 12.5001 0.641937 13.1226ZM15.3696 14.1404C15.3618 14.0113 15.3539 13.8938 15.3187 13.7764C15.2522 13.5532 15.1308 13.3614 14.9625 13.2009C13.5727 11.9246 12.1829 10.6484 10.7931 9.37607C10.7344 9.32126 10.6992 9.26645 10.6091 9.35649C10.1942 9.78321 9.76746 10.206 9.34465 10.6249C9.2781 10.6915 9.29376 10.7267 9.34857 10.7854C10.6366 12.1791 11.9167 13.5767 13.2047 14.9704C13.5609 15.358 14.109 15.4754 14.5906 15.2836C15.0525 15.0996 15.3657 14.6298 15.3696 14.1404ZM3.09263 2.21972C3.09263 2.11402 3.08872 2.01223 3.09263 1.90653C3.09655 1.83998 3.06915 1.80474 3.01434 1.77342C2.4506 1.43675 1.88295 1.09615 1.32312 0.755562C1.25265 0.712499 1.21742 0.732073 1.16653 0.782966C1.04125 0.916071 0.915977 1.04526 0.778957 1.16662C0.70849 1.22926 0.716319 1.27624 0.759383 1.35062C1.00993 1.76168 1.25657 2.17665 1.5032 2.59163C1.60108 2.75605 1.66371 2.97528 1.80856 3.06924C1.96124 3.16711 2.19222 3.09664 2.38796 3.09664C2.56804 3.09273 2.70115 3.15537 2.83034 3.28064C3.98914 4.45118 5.15576 5.61389 6.31847 6.78052C6.432 6.89405 6.53379 7.09371 6.66689 7.08979C6.78043 7.08979 6.88221 6.88622 7.00357 6.78835C7.10144 6.70614 7.08187 6.65524 6.99966 6.57303C5.7978 5.37117 4.59985 4.1654 3.39408 2.97137C3.17876 2.75214 3.02217 2.54074 3.09263 2.21972ZM10.2177 8.85931C10.202 8.83973 10.1942 8.82799 10.1824 8.81624C10.0611 8.70271 9.9358 8.5931 9.81835 8.47957C9.76354 8.42867 9.73614 8.47174 9.70482 8.50305C9.29767 8.9102 8.89053 9.31734 8.48339 9.72057C8.43641 9.76755 8.43641 9.79496 8.48339 9.84193C8.58909 9.94763 8.69087 10.0612 8.78874 10.1747C8.83181 10.2217 8.85921 10.2334 8.9101 10.1786C9.32899 9.75581 9.7518 9.333 10.1746 8.91411C10.1863 8.89845 10.202 8.87888 10.2177 8.85931Z" fill="#39629C" stroke="#39629C" stroke-width="0.3"/>
<path d="M6.04434 10.2647C5.81337 10.2647 5.66069 10.0142 5.77422 9.81063C5.80554 9.7519 5.85643 9.70101 5.90341 9.65403C7.15225 8.40519 8.40108 7.15244 9.64992 5.9036C9.68907 5.86446 9.73213 5.82139 9.77911 5.79007C9.90439 5.70395 10.061 5.71569 10.1667 5.81748C10.2763 5.91926 10.2959 6.08369 10.2058 6.21288C10.1745 6.25985 10.1354 6.30292 10.0923 6.34207C8.84346 7.59482 7.59462 8.84757 6.34579 10.0964C6.25966 10.1825 6.17745 10.2687 6.04434 10.2647Z" fill="#39629C" stroke="#39629C" stroke-width="0.3"/>
<path d="M10.8322 4.8544C11.0006 4.8544 11.1415 4.99142 11.1454 5.15584C11.1493 5.32027 11.0123 5.46512 10.844 5.46903C10.6717 5.47295 10.5229 5.33201 10.5229 5.15976C10.5269 4.99925 10.6678 4.85832 10.8322 4.8544Z" fill="#39629C" stroke="#39629C" stroke-width="0.3"/>
<path d="M5.46896 10.8363C5.47287 11.0007 5.33194 11.1456 5.16751 11.1495C4.99917 11.1534 4.85824 11.0242 4.85041 10.8559C4.84258 10.6836 4.98351 10.5388 5.15968 10.5349C5.32411 10.5349 5.46504 10.668 5.46896 10.8363Z" fill="#39629C" stroke="#39629C" stroke-width="0.3"/>
<path d="M14.2068 13.9134C14.1951 14.1522 13.9484 14.2853 13.7527 14.1718C13.6979 14.1404 13.6509 14.0974 13.6078 14.0543C12.7192 13.1696 11.8344 12.2887 10.9457 11.404C10.9144 11.3766 10.887 11.3452 10.8596 11.3139C10.7422 11.1691 10.7461 10.9968 10.8674 10.8794C10.981 10.7658 11.1532 10.7658 11.2942 10.8715C11.3216 10.895 11.349 10.9185 11.3725 10.9459C12.265 11.8385 13.1616 12.7272 14.0541 13.6198C14.1403 13.702 14.2225 13.792 14.2068 13.9134Z" fill="#39629C" stroke="#39629C" stroke-width="0.3"/>
</svg>
