<svg width="15" height="18" viewBox="0 0 15 18" fill="none" xmlns="http://www.w3.org/2000/svg">
<path d="M2.05835 0C5.48111 0 8.89919 0 12.322 0C12.3782 0.0515759 12.4345 0.0984631 12.4861 0.150039C13.0909 0.754884 13.6958 1.35973 14.3006 1.95989C14.4038 2.06304 14.4459 2.17557 14.4459 2.32092C14.4459 6.79865 14.4459 11.2717 14.4459 15.7494C14.4459 16.0307 14.3569 16.1198 14.0802 16.1198C13.6254 16.1198 13.1659 16.1245 12.7111 16.1151C12.5939 16.1151 12.5658 16.148 12.5658 16.2605C12.5705 16.7059 12.5611 17.1513 12.5705 17.5968C12.5751 17.7703 12.5283 17.9015 12.3923 18C8.32717 18 4.26205 18 0.192238 18C0.0468872 17.9156 0 17.789 0 17.6202C0.00468872 12.4954 0 7.37536 0.00468872 2.25059C0.00468872 1.97395 0.0937744 1.88487 0.375098 1.88487C0.829904 1.88487 1.2894 1.88018 1.7442 1.88955C1.86142 1.88955 1.88955 1.85673 1.88487 1.7442C1.88018 1.29878 1.88955 0.853347 1.88018 0.407919C1.87549 0.234436 1.91769 0.0984631 2.05835 0ZM0.567335 9.93071C0.567335 12.3782 0.567335 14.8257 0.567335 17.2732C0.567335 17.3811 0.572024 17.4374 0.712686 17.4374C4.43084 17.4327 8.149 17.4327 11.8718 17.4374C11.9891 17.4374 12.0125 17.4045 12.0125 17.292C12.0078 13.0393 12.0078 8.78666 12.0125 4.53399C12.0125 4.40271 11.9656 4.38395 11.8531 4.38864C11.3795 4.39333 10.906 4.39333 10.4277 4.38864C10.1605 4.38864 10.0667 4.29487 10.0667 4.0323C10.0667 3.56812 10.062 3.10862 10.0714 2.64444C10.0761 2.48971 10.0386 2.43813 9.87445 2.43813C6.84084 2.44282 3.80724 2.44282 0.773639 2.43813C0.618911 2.43813 0.572024 2.47096 0.572024 2.63506C0.567335 5.0732 0.567335 7.50195 0.567335 9.93071ZM12.5658 9.77129C12.5658 11.6468 12.5658 13.5223 12.5611 15.3931C12.5611 15.5244 12.5939 15.5619 12.7252 15.5572C13.0393 15.5478 13.3582 15.5431 13.6723 15.5572C13.8364 15.5666 13.888 15.5244 13.8833 15.3509C13.8786 13.0253 13.8786 10.6997 13.8786 8.37406C13.8786 6.48919 13.8739 4.59964 13.8833 2.71477C13.8833 2.52722 13.8317 2.4944 13.6582 2.49909C13.2128 2.51315 12.7674 2.50378 12.322 2.50378C12.0125 2.50378 11.9328 2.41938 11.9328 2.10524C11.9328 1.65043 11.9234 1.19094 11.9375 0.736129C11.9422 0.581401 11.8906 0.557958 11.7546 0.562647C10.6387 0.567335 9.5181 0.562647 8.40219 0.562647C6.47512 0.562647 4.54806 0.562647 2.621 0.557958C2.47564 0.557958 2.43813 0.595468 2.44282 0.740818C2.45689 1.05496 2.45689 1.3738 2.44282 1.68794C2.43345 1.85204 2.48502 1.88487 2.64444 1.88487C5.16697 1.88018 7.69419 1.88018 10.2167 1.88018C10.3855 1.88018 10.5121 1.93175 10.634 2.05366C11.2154 2.64444 11.8062 3.23522 12.397 3.81662C12.5189 3.93853 12.5705 4.06512 12.5705 4.23392C12.5658 6.08127 12.5658 7.92394 12.5658 9.77129ZM13.391 1.94113C13.0956 1.64574 12.7861 1.33629 12.5001 1.05496C12.5001 1.28471 12.5001 1.55666 12.5001 1.83329C12.5001 1.89424 12.4954 1.94582 12.5845 1.94582C12.8705 1.94113 13.1519 1.94113 13.391 1.94113ZM10.6246 2.88825C10.6246 3.17426 10.6246 3.45559 10.6246 3.7416C10.6246 3.79786 10.634 3.83069 10.6997 3.83069C10.9904 3.83069 11.2764 3.83069 11.5577 3.83069C11.2482 3.51654 10.9435 3.21177 10.6246 2.88825Z" fill="#39629C" stroke="#39629C" stroke-width="0.3"/>
<path d="M6.2969 12.9737C7.44095 12.9737 8.58031 12.9737 9.72435 12.9737C10.0244 12.9737 10.1135 13.0581 10.1135 13.3582C10.1135 13.9958 10.1135 14.6335 10.1135 15.2759C10.1135 15.5431 10.0197 15.6369 9.75718 15.6369C7.44564 15.6369 5.12941 15.6369 2.81787 15.6369C2.54592 15.6369 2.45215 15.5384 2.45215 15.2618C2.45215 14.6241 2.45215 13.9865 2.45215 13.3441C2.45215 13.0722 2.55061 12.9737 2.82256 12.9737C3.98067 12.9737 5.13879 12.9737 6.2969 12.9737ZM6.2547 15.0742C7.30497 15.0742 8.35056 15.0742 9.40083 15.0742C9.50867 15.0742 9.55556 15.0555 9.55087 14.9336C9.54149 14.5116 9.54149 14.0896 9.55087 13.6676C9.55087 13.5551 9.51805 13.5317 9.4149 13.5363C7.32373 13.541 5.23256 13.541 3.14139 13.5363C3.02886 13.5363 3.00542 13.5692 3.01011 13.677C3.01479 14.0849 3.01948 14.4975 3.01011 14.9054C3.00542 15.0461 3.04762 15.0789 3.18359 15.0789C4.20573 15.0696 5.23256 15.0742 6.2547 15.0742Z" fill="#39629C" stroke="#39629C" stroke-width="0.3"/>
<path d="M6.29232 6.6955C7.42699 6.6955 8.56166 6.6955 9.70102 6.6955C9.77135 6.6955 9.84168 6.6955 9.91201 6.70956C10.048 6.74238 10.1183 6.84085 10.1136 6.98151C10.1136 7.12217 10.0386 7.21594 9.90264 7.24408C9.83699 7.25814 9.76197 7.25814 9.69164 7.25814C7.4223 7.25814 5.14827 7.25814 2.87893 7.25814C2.59292 7.25814 2.45695 7.16906 2.45226 6.98151C2.44757 6.78927 2.59292 6.6955 2.88831 6.6955C4.01829 6.6955 5.15765 6.6955 6.29232 6.6955Z" fill="#39629C" stroke="#39629C" stroke-width="0.3"/>
<path d="M6.27814 11.4452C5.14347 11.4452 4.0088 11.4452 2.86944 11.4452C2.81318 11.4452 2.75223 11.4452 2.69596 11.4358C2.54123 11.4123 2.45215 11.3092 2.45215 11.1591C2.45215 11.0091 2.53655 10.906 2.69596 10.8872C2.74754 10.8825 2.79911 10.8825 2.85538 10.8825C5.13879 10.8825 7.42219 10.8825 9.7056 10.8825C9.77124 10.8825 9.83688 10.8825 9.89784 10.8966C10.0338 10.9247 10.1088 11.0185 10.1135 11.1591C10.1182 11.2998 10.0479 11.3936 9.9119 11.4311C9.84626 11.4498 9.77124 11.4498 9.70091 11.4498C8.56155 11.4452 7.4175 11.4452 6.27814 11.4452Z" fill="#39629C" stroke="#39629C" stroke-width="0.3"/>
<path d="M6.27351 9.34931C5.14352 9.34931 4.01354 9.34931 2.88356 9.34931C2.83667 9.34931 2.78979 9.34931 2.7429 9.34931C2.56942 9.33993 2.44751 9.21802 2.44751 9.0633C2.4522 8.91326 2.56942 8.79604 2.73352 8.78666C2.77572 8.78197 2.81323 8.78666 2.85543 8.78666C5.13884 8.78666 7.42224 8.78666 9.70565 8.78666C9.73847 8.78666 9.77598 8.78666 9.8088 8.78666C9.99166 8.79604 10.1042 8.89919 10.1042 9.0633C10.1042 9.23678 9.99166 9.34462 9.79942 9.34931C9.75723 9.34931 9.71972 9.34931 9.67752 9.34931C8.54754 9.34931 7.40818 9.34931 6.27351 9.34931Z" fill="#39629C" stroke="#39629C" stroke-width="0.3"/>
<path d="M5.27005 5.16696C4.44483 5.16696 3.61962 5.16696 2.7944 5.16696C2.55997 5.16696 2.40993 5.01223 2.45682 4.82937C2.49901 4.66995 2.60685 4.60431 2.77096 4.60431C3.3758 4.609 3.97596 4.60431 4.58081 4.60431C5.64515 4.60431 6.70949 4.60431 7.77851 4.60431C7.93793 4.60431 8.05515 4.6512 8.10204 4.81061C8.1583 5.00754 8.01764 5.16696 7.78789 5.16696C7.25338 5.17164 6.72355 5.16696 6.18904 5.16696C5.87958 5.16696 5.57481 5.16696 5.27005 5.16696Z" fill="#39629C" stroke="#39629C" stroke-width="0.3"/>
</svg>
