<svg width="15" height="18" viewBox="0 0 15 18" fill="none" xmlns="http://www.w3.org/2000/svg">
<g clip-path="url(#clip0_2739_6278)">
<path d="M0 9C0 6.65217 0 4.30435 0 1.95652C0 0.978261 0.626087 0.195652 1.56522 0.0391304C1.72174 0 1.87826 0 2.03478 0C5.43913 0 8.84348 0 12.2087 0C13.3043 0 14.2435 0.821739 14.2435 2.03478C14.2435 5.59565 14.2435 9.11739 14.2435 12.6783C14.2435 13.6174 14.1261 14.5174 13.6565 15.3391C12.7174 17.0217 11.3087 17.9609 9.35217 18C6.88696 18.0391 4.38261 18.0391 1.91739 18C0.821739 18 0 17.1391 0 16.0435C0 13.6957 0 11.3478 0 9ZM10.4087 14.0087C10.487 14.5565 10.6043 15.1043 10.5261 15.613C10.487 16.2391 10.2522 16.8261 9.82174 17.3348C11.7783 17.0609 13.3043 15.3783 13.5391 13.6565C12.9522 14.087 12.287 14.2435 11.6217 14.2043C11.1913 14.2435 10.8 14.1261 10.4087 14.0087ZM13.6174 7.27826C13.6174 5.51739 13.6174 3.71739 13.6174 1.95652C13.6174 1.17391 13.0696 0.586957 12.287 0.586957C8.84348 0.586957 5.36087 0.586957 1.91739 0.586957C1.17391 0.586957 0.586957 1.17391 0.586957 1.91739C0.586957 6.65217 0.586957 11.3478 0.586957 16.0826C0.586957 16.8261 1.13478 17.413 1.87826 17.413C4.18696 17.413 6.49565 17.413 8.80435 17.413C8.88261 17.413 8.96087 17.413 9 17.3348C9.58696 16.8261 9.9 16.2 9.93913 15.4174C9.97826 14.7913 9.82174 14.1652 9.58696 13.5783C9.54783 13.4217 9.5087 13.3043 9.62609 13.187C9.74348 13.0696 9.9 13.1087 10.0174 13.187C10.3696 13.3826 10.7609 13.5 11.1522 13.5783C12.013 13.7348 12.8348 13.5783 13.4609 12.913C13.5391 12.7957 13.5783 12.7174 13.5783 12.5609C13.6174 10.8391 13.6174 9.03913 13.6174 7.27826Z" fill="#39629C" stroke="#39629C" stroke-width="0.3"/>
<path d="M5.24345 11.1913C5.55649 11.1913 5.94779 11.1522 6.3391 11.2304C6.80866 11.3087 7.12171 11.6217 7.27823 12.0913C7.35649 12.3261 7.39562 12.5609 7.47388 12.7956C7.51301 12.913 7.55214 12.9522 7.66953 12.9522C7.78693 12.9522 7.86519 12.9522 7.98258 12.9522C8.33475 12.9913 8.68692 13.2652 8.72606 13.6174C8.76519 14.087 8.76519 14.5956 8.72606 15.0652C8.68692 15.3783 8.45214 15.5739 8.09997 15.613C7.98258 15.613 7.94345 15.6522 7.86519 15.7304C7.47388 16.3956 6.57388 16.3956 6.18258 15.7304C6.10432 15.613 6.06519 15.5739 5.94779 15.5739C5.4391 15.5739 4.96953 15.5739 4.46084 15.5739C4.38258 15.5739 4.30432 15.613 4.26519 15.6913C3.87388 16.3565 2.97388 16.3565 2.58258 15.6913C2.54345 15.613 2.46519 15.5739 2.34779 15.5739C2.30866 15.5739 2.2304 15.5739 2.19127 15.5739C1.79997 15.5348 1.56519 15.3 1.56519 14.9087C1.56519 14.5174 1.56519 14.1261 1.56519 13.7348C1.56519 13.2652 1.91736 12.913 2.42606 12.913C2.58258 12.913 2.77823 12.9913 2.89562 12.8739C2.97388 12.7956 2.97388 12.6 3.01301 12.4435C3.05214 12.287 3.05214 12.1696 3.09127 12.0522C3.24779 11.5826 3.67823 11.2304 4.18692 11.2304C4.49997 11.1913 4.85214 11.1913 5.24345 11.1913ZM5.16519 13.5C4.26519 13.5 3.36519 13.5 2.46519 13.5C2.2304 13.5 2.15214 13.5783 2.15214 13.7739C2.15214 14.1261 2.15214 14.4783 2.15214 14.8304C2.15214 14.8696 2.15214 14.987 2.2304 14.9478C2.30866 14.9478 2.42606 15.0261 2.50432 14.8696C2.66084 14.4391 2.97388 14.2043 3.44345 14.2043C3.91301 14.2043 4.18692 14.4391 4.34345 14.8696C4.38258 14.9478 4.38258 14.9478 4.46084 14.9478C4.96953 14.9478 5.4391 14.9478 5.94779 14.9478C6.02606 14.9478 6.06519 14.9087 6.10432 14.8304C6.26084 14.4 6.61301 14.1652 7.04345 14.1652C7.47388 14.1652 7.78692 14.4 7.98258 14.8304C8.02171 14.9087 8.02171 14.9478 8.09997 14.9478C8.17823 14.9478 8.17823 14.8696 8.17823 14.8304C8.17823 14.4783 8.17823 14.1652 8.17823 13.813C8.17823 13.5391 8.09997 13.4609 7.82606 13.4609C6.92606 13.5 6.02606 13.5 5.16519 13.5ZM5.20432 12.913C5.75214 12.913 6.26084 12.913 6.80866 12.913C6.92606 12.913 6.96519 12.8739 6.92606 12.7956C6.88693 12.6391 6.84779 12.4435 6.76953 12.287C6.69127 11.9739 6.49562 11.8174 6.18258 11.8174C5.55649 11.8174 4.89127 11.8174 4.26519 11.8174C3.95214 11.8174 3.71736 12.013 3.6391 12.3261C3.59997 12.4826 3.59997 12.6391 3.56084 12.7956C3.48258 12.913 3.52171 12.913 3.6391 12.913C4.14779 12.913 4.65649 12.913 5.20432 12.913ZM3.40432 15.613C3.6391 15.613 3.79562 15.4565 3.79562 15.2217C3.79562 15.0261 3.59997 14.8696 3.40432 14.8696C3.20866 14.8696 3.01301 15.0652 3.01301 15.2609C3.01301 15.4174 3.16953 15.613 3.40432 15.613ZM7.39562 15.2217C7.39562 15.0261 7.2391 14.8304 7.04345 14.8304C6.80866 14.8304 6.65214 14.987 6.65214 15.2217C6.65214 15.4174 6.80866 15.613 7.00432 15.613C7.2391 15.613 7.39562 15.4565 7.39562 15.2217Z" fill="#39629C" stroke="#39629C" stroke-width="0.3"/>
<path d="M6.96521 2.15216C8.41303 2.15216 9.86086 2.15216 11.3478 2.15216C11.4261 2.15216 11.5043 2.15216 11.5826 2.15216C11.7391 2.19129 11.7783 2.26955 11.7783 2.42607C11.7783 2.5826 11.7 2.66086 11.5435 2.69999C11.4652 2.69999 11.4261 2.69999 11.3478 2.69999C8.45217 2.73912 5.51738 2.73912 2.62173 2.73912C2.5826 2.73912 2.54347 2.73912 2.54347 2.73912C2.30869 2.73912 2.15216 2.62173 2.1913 2.4652C2.1913 2.26955 2.34782 2.19129 2.5826 2.19129C4.03043 2.15216 5.51738 2.15216 6.96521 2.15216Z" fill="#39629C" stroke="#39629C" stroke-width="0.3"/>
<path d="M7.00438 8.84348C8.45221 8.84348 9.90003 8.84348 11.387 8.84348C11.4653 8.84348 11.5044 8.84348 11.5826 8.84348C11.7 8.88261 11.7783 8.96087 11.8174 9.07826C11.8174 9.23478 11.7783 9.31304 11.6218 9.3913C11.5435 9.43043 11.4653 9.43043 11.387 9.43043C8.49134 9.43043 5.55656 9.43043 2.6609 9.43043H2.62177C2.34786 9.43043 2.23047 9.31304 2.23047 9.11739C2.23047 8.92174 2.38699 8.84348 2.62177 8.84348C4.03047 8.84348 5.51743 8.84348 7.00438 8.84348Z" fill="#39629C" stroke="#39629C" stroke-width="0.3"/>
<path d="M8.96095 4.85218C8.17834 4.85218 7.3566 4.85218 6.57399 4.85218C6.53486 4.85218 6.4566 4.85218 6.41747 4.85218C6.26095 4.81305 6.18269 4.73479 6.14355 4.57826C6.14355 4.42174 6.22182 4.30435 6.37834 4.30435C6.41747 4.30435 6.4566 4.30435 6.4566 4.30435C8.10008 4.30435 9.74356 4.30435 11.387 4.30435C11.5827 4.30435 11.7001 4.38261 11.7392 4.53913C11.7783 4.73479 11.6218 4.85218 11.387 4.89131C10.6044 4.85218 9.78269 4.85218 8.96095 4.85218Z" fill="#39629C" stroke="#39629C" stroke-width="0.3"/>
<path d="M4.4608 7.04347C3.83471 7.04347 3.16949 7.04347 2.5434 7.04347C2.30862 7.04347 2.1521 6.92608 2.1521 6.73043C2.1521 6.53477 2.30862 6.45651 2.5434 6.45651C3.83471 6.45651 5.08688 6.45651 6.37819 6.45651C6.61297 6.45651 6.73036 6.5739 6.73036 6.73043C6.73036 6.92608 6.61297 7.04347 6.37819 7.04347C5.7521 7.04347 5.12601 7.04347 4.4608 7.04347Z" fill="#39629C" stroke="#39629C" stroke-width="0.3"/>
<path d="M9.82169 7.04347C9.31299 7.04347 8.76517 7.04347 8.25647 7.04347C8.02169 7.04347 7.9043 6.92608 7.9043 6.73043C7.9043 6.53477 8.02169 6.45651 8.25647 6.45651C9.31299 6.45651 10.3695 6.45651 11.3869 6.45651C11.6217 6.45651 11.7391 6.5739 11.7391 6.76956C11.7391 6.96521 11.6217 7.04347 11.3869 7.04347C10.8782 7.04347 10.3695 7.04347 9.82169 7.04347Z" fill="#39629C" stroke="#39629C" stroke-width="0.3"/>
<path d="M3.5608 4.85218C3.20862 4.85218 2.85645 4.85218 2.50427 4.85218C2.26949 4.85218 2.1521 4.73479 2.1521 4.53914C2.1521 4.38262 2.30862 4.26523 2.50427 4.26523C3.20862 4.26523 3.91297 4.26523 4.61732 4.26523C4.8521 4.26523 4.96949 4.38262 4.96949 4.53914C4.96949 4.73479 4.8521 4.81305 4.61732 4.85218C4.30427 4.85218 3.9521 4.85218 3.5608 4.85218Z" fill="#39629C" stroke="#39629C" stroke-width="0.3"/>
</g>
<defs>
<clipPath id="clip0_2739_6278">
<rect width="14.2435" height="18" fill="white"/>
</clipPath>
</defs>
</svg>
