<svg width="24" height="24" viewBox="0 0 24 24" fill="none" xmlns="http://www.w3.org/2000/svg">
<g clip-path="url(#clip0_2686_8528)">
<path d="M1 2.5C1 1.67 1.67 1 2.5 1H11V7H17V11.64L18 10.64V6.29L11.71 0H2.5C1.12 0 0 1.12 0 2.5V22H9V21H1V2.5ZM12 1.71L16.29 6H12V1.71ZM23.27 11.74C22.33 10.8 20.68 10.8 19.73 11.74L11 20.47V24.01H14.54L23.27 15.28C23.74 14.81 24 14.18 24 13.51C24 12.84 23.74 12.21 23.27 11.74ZM22.56 14.57L14.12 23.01H12V20.89L20.44 12.45C21.01 11.88 21.99 11.88 22.56 12.45C22.84 12.73 23 13.11 23 13.51C23 13.91 22.84 14.29 22.56 14.57ZM14 13.01C14 11.91 13.1 11.01 12 11.01C10.9 11.01 10 11.91 10 13.01C10 13.82 10.58 15.04 11.42 16.04C10.8 16.6 10 17.01 9 17.01C8.2 17.01 7.42 16.62 6.72 16.02C8.13 14.42 9 12.23 9 11.01C9 9.36 7.65 8.01 6 8.01C4.35 8.01 3 9.36 3 11.01C3 12.23 3.87 14.41 5.28 16.02C4.58 16.62 3.8 17.01 3 17.01V18.01C4.11 18.01 5.13 17.5 6 16.74C6.87 17.5 7.89 18.01 9 18.01C12.3 18.01 14 14.51 14 13.01ZM4 11.01C4 9.91 4.9 9.01 6 9.01C7.1 9.01 8 9.91 8 11.01C8 12.11 7.19 13.94 6 15.3C4.81 13.94 4 12.1 4 11.01ZM11 13.01C11 12.46 11.45 12.01 12 12.01C12.55 12.01 13 12.46 13 13.01C13 13.46 12.71 14.42 12.09 15.28C11.41 14.43 11 13.48 11 13.01Z" fill="#FF9626" stroke="#FF9626" stroke-width="0.7"/>
</g>
<defs>
<clipPath id="clip0_2686_8528">
<rect width="24" height="24" fill="white"/>
</clipPath>
</defs>
</svg>
