<svg width="27" height="24" viewBox="0 0 27 24" fill="none" xmlns="http://www.w3.org/2000/svg">
<g clip-path="url(#clip0_2686_8523)">
<path d="M26.1218 19.6317C26.0758 19.8482 26.0299 20.0648 25.9709 20.2748C25.5181 21.9022 24.0219 23.0702 22.3354 23.0768C16.4557 23.0834 10.576 23.0899 4.69634 23.0768C2.84581 23.0702 1.25777 21.6725 0.969031 19.8482C0.962469 19.7957 0.93622 19.7432 0.923096 19.6907C0.923096 18.6736 0.923096 17.6565 0.923096 16.6393C1.12652 16.2456 1.36932 16.0947 1.68431 16.1537C1.99929 16.2128 2.20272 16.4753 2.20272 16.8362C2.20928 17.5908 2.20272 18.3455 2.20272 19.1001C2.20272 20.7013 3.30516 21.8037 4.90633 21.8037C10.6482 21.8037 16.3901 21.8037 22.132 21.8037C23.7397 21.8037 24.8356 20.7013 24.8356 19.1001C24.8356 18.3849 24.8356 17.6761 24.8356 16.9609C24.8356 16.5015 24.9931 16.2456 25.3343 16.1603C25.6559 16.0815 25.9118 16.239 26.1218 16.6393C26.1218 17.6302 26.1218 18.6277 26.1218 19.6317Z" fill="#FF9626" stroke="#FF9626" stroke-width="0.5"/>
<path d="M14.1656 2.67511C14.1656 2.82604 14.1656 2.91135 14.1656 3.00322C14.1656 6.96676 14.1656 10.9237 14.1656 14.8873C14.1656 14.9857 14.1722 15.0842 14.1591 15.1826C14.1197 15.5107 13.8506 15.7469 13.5225 15.7469C13.1944 15.7469 12.9254 15.5041 12.8926 15.176C12.8794 15.0776 12.886 14.9792 12.886 14.8807C12.886 10.9303 12.886 6.97332 12.886 3.02291C12.886 2.92447 12.886 2.8326 12.886 2.67511C12.407 3.10165 11.9673 3.49538 11.5342 3.88255C10.3858 4.90624 9.23744 5.9365 8.08906 6.9602C8.03 7.0127 7.96438 7.07176 7.89876 7.11769C7.61659 7.32112 7.24911 7.27518 7.03255 7.02582C6.82257 6.77646 6.82257 6.4221 7.05224 6.17274C7.15724 6.06118 7.28192 5.96275 7.39347 5.85776C9.06682 4.36159 10.7402 2.86541 12.4201 1.36924C13.0829 0.778647 13.9556 0.765523 14.6053 1.34299C16.3771 2.91791 18.1423 4.49939 19.9075 6.08087C20.1897 6.33023 20.2553 6.63866 20.1044 6.91427C19.9666 7.17675 19.6581 7.31456 19.3694 7.22269C19.2447 7.18331 19.1201 7.09801 19.0216 7.00614C17.5451 5.6937 16.0752 4.37471 14.5987 3.06228C14.4675 2.94416 14.3362 2.8326 14.1656 2.67511Z" fill="#FF9626" stroke="#FF9626" stroke-width="0.5"/>
<path d="M13.5225 19.9402C10.8911 19.9402 8.25966 19.9402 5.62167 19.9402C5.29357 19.9402 5.01139 19.8746 4.86703 19.5465C4.70953 19.1856 4.91296 18.7722 5.30013 18.6803C5.41168 18.6541 5.5298 18.6541 5.64136 18.6541C10.8911 18.6541 16.1408 18.6541 21.3905 18.6541C21.4233 18.6541 21.4562 18.6541 21.489 18.6541C21.9221 18.6606 22.2108 18.91 22.2239 19.284C22.2305 19.6646 21.9418 19.9337 21.489 19.9337C19.4285 19.9337 17.3745 19.9337 15.314 19.9337C14.7234 19.9402 14.1197 19.9402 13.5225 19.9402Z" fill="#FF9626" stroke="#FF9626" stroke-width="0.5"/>
</g>
<defs>
<clipPath id="clip0_2686_8523">
<rect width="26.7692" height="24" fill="white"/>
</clipPath>
</defs>
</svg>
