<svg width="34" height="28" viewBox="0 0 34 28" fill="none" xmlns="http://www.w3.org/2000/svg">
<g clip-path="url(#clip0_476_1654)">
<path d="M25.3333 24C19.75 24 14.1667 24 8.58333 24C8.58333 24 8.5 24 8.5 23.9167C7.83333 23.75 7.33333 23.3333 7.08333 22.6667C7.08333 22.5833 7 22.5 7 22.3333C7 16.8333 7 11.1667 7 5.58333C7 5.58333 7 5.5 7.08333 5.5C7.25 4.91667 7.5 4.5 8.08333 4.25C8.16667 4.08333 8.41667 4.08333 8.58333 4C12.9167 4 17.25 4 21.6667 4C22.75 4.25 23.25 4.91667 23.25 6C23.25 8.33333 23.25 10.75 23.25 13.0833C23.25 13.1667 23.25 13.25 23.25 13.3333C23.9167 13.3333 24.5 13.3333 25.1667 13.3333C26 13.3333 26.6667 13.8333 26.9167 14.5833C26.9167 14.6667 27 14.75 27 14.9167C27 15.3333 27 15.6667 27 16.0833V16.1667C26.8333 16.8333 26.4167 17.3333 25.75 17.5833C25.75 17.5833 25.6667 17.5833 25.6667 17.6667C25.8333 18.3333 25.8333 19 25.6667 19.6667C25.75 19.6667 25.75 19.6667 25.8333 19.75C26.4167 20 26.75 20.3333 26.9167 20.9167C26.9167 21 27 21.0833 27 21.25C27 21.6667 27 22 27 22.4167C27 22.4167 27 22.5 26.9167 22.5C26.8333 23 26.5833 23.3333 26.1667 23.5833C25.9167 23.8333 25.6667 23.9167 25.3333 24ZM19.5833 22.75C19.5 22.0833 19.4167 21.4167 19.5833 20.75C19.5 20.75 19.4167 20.75 19.25 20.75C19.1667 20.75 19.0833 20.8333 19 20.8333C18.6667 20.8333 18.4167 20.8333 18.0833 20.8333C17.8333 20.8333 17.5833 20.5833 17.5 20.25C17.5 19.9167 17.6667 19.6667 17.9167 19.5833C18 19.5833 18.0833 19.5833 18.1667 19.5C18.1667 19.0833 18.0833 18.6667 18.0833 18.25H18C17.6667 18.1667 17.5 17.9167 17.5 17.5833C17.5 17.25 17.8333 17 18.1667 17C18.25 17 18.4167 17 18.5 17C18.5833 17 18.5833 17 18.6667 17C18.9167 16.8333 19.25 16.5833 19.5 16.4167C19.5 16.25 19.4167 16 19.4167 15.75C19 15.75 18.6667 15.75 18.25 15.75C17.8333 15.75 17.5833 15.5 17.5833 15.1667C17.5833 14.8333 17.8333 14.5833 18.25 14.5C18.6667 14.5 19 14.5 19.4167 14.5C19.5 14.5 19.5833 14.5 19.6667 14.3333C19.9167 13.75 20.4167 13.3333 21.0833 13.25C21.3333 13.25 21.6667 13.25 22 13.25C22 13.1667 22 13.0833 22 13C22 10.5833 22 8.25 22 5.83333C22 5.25 21.75 5.08333 21.25 5.08333C17.1667 5.08333 13.0833 5.08333 9.08333 5.08333C8.5 5.08333 8.33333 5.33333 8.33333 5.83333C8.33333 11.1667 8.33333 16.5 8.33333 21.8333C8.33333 22.3333 8.58333 22.5833 9.08333 22.5833C12.5 22.5833 16 22.5833 19.4167 22.5833C19.4167 22.75 19.5 22.75 19.5833 22.75ZM23.25 14.6667C22.6667 14.6667 22 14.6667 21.4167 14.6667C21.0833 14.6667 20.75 14.9167 20.75 15.3333C20.75 15.5 20.75 15.75 20.75 15.9167C20.75 16.25 21 16.5833 21.4167 16.5833C22.6667 16.5833 23.9167 16.5833 25.1667 16.5833C25.5 16.5833 25.8333 16.3333 25.8333 15.9167C25.8333 15.75 25.8333 15.5 25.8333 15.3333C25.8333 14.9167 25.5833 14.6667 25.1667 14.6667C24.5 14.5833 23.8333 14.6667 23.25 14.6667ZM23.25 20.9167C22.6667 20.9167 22 20.9167 21.4167 20.9167C21.0833 20.9167 20.75 21.1667 20.75 21.5833C20.75 21.75 20.75 22 20.75 22.1667C20.75 22.5 21 22.75 21.3333 22.8333C22.5833 22.8333 23.8333 22.8333 25.0833 22.8333C25.4167 22.8333 25.6667 22.5833 25.6667 22.25C25.6667 22.0833 25.6667 21.8333 25.6667 21.6667C25.6667 21.25 25.4167 21 25 21C24.5 20.8333 23.8333 20.9167 23.25 20.9167ZM22 19.5833C22.5833 19.5833 23.25 19.5833 23.8333 19.5833C24.25 19.5833 24.5 19.3333 24.5 18.9167C24.5 18.75 24.5 18.5 24.5 18.3333C24.5 18 24.25 17.6667 23.8333 17.6667C22.5833 17.6667 21.3333 17.6667 20.0833 17.6667C19.75 17.6667 19.4167 17.9167 19.4167 18.3333C19.4167 18.5 19.4167 18.75 19.4167 18.9167C19.4167 19.3333 19.6667 19.5833 20.0833 19.5833C20.75 19.6667 21.4167 19.5833 22 19.5833Z" fill="#39629C"/>
<path d="M15.1668 13.3333C13.7502 13.3333 12.3335 13.3333 10.9168 13.3333C10.0835 13.3333 9.5835 12.8333 9.5835 12C9.5835 10.8333 9.5835 9.58333 9.5835 8.41666C9.5835 7.58333 10.0835 7.08333 10.9168 7.08333C13.7502 7.08333 16.6668 7.08333 19.5002 7.08333C20.3335 7.08333 20.8335 7.58333 20.8335 8.41666C20.8335 9.58333 20.8335 10.8333 20.8335 12C20.8335 12.75 20.3335 13.3333 19.5002 13.3333C18.0002 13.4167 16.5835 13.3333 15.1668 13.3333ZM19.5002 12.0833C19.5002 10.8333 19.5002 9.58333 19.5002 8.33333C16.5835 8.33333 13.6668 8.33333 10.7502 8.33333C10.7502 9.58333 10.7502 10.8333 10.7502 12.0833C13.6668 12.0833 16.5835 12.0833 19.5002 12.0833Z" fill="#39629C"/>
<path d="M11.3332 15.8333C11.1665 15.8333 10.9165 15.8333 10.7498 15.8333C10.4165 15.8333 10.1665 15.5833 10.1665 15.25C10.1665 14.9167 10.4165 14.6667 10.7498 14.6667C11.1665 14.6667 11.5832 14.6667 11.9998 14.6667C12.3332 14.6667 12.5832 14.9167 12.5832 15.25C12.5832 15.5833 12.3332 15.8333 11.9998 15.9167C11.8332 15.9167 11.5832 15.8333 11.3332 15.8333Z" fill="#39629C"/>
<path d="M15.1665 14.6667C15.3332 14.6667 15.5832 14.6667 15.7498 14.6667C16.0832 14.6667 16.3332 14.9167 16.3332 15.3333C16.3332 15.6667 16.0832 15.9167 15.7498 15.9167C15.3332 15.9167 14.9165 15.9167 14.4998 15.9167C14.1665 15.9167 13.9165 15.6667 13.9165 15.3333C13.9165 15 14.1665 14.75 14.4998 14.6667C14.6665 14.5833 14.9165 14.6667 15.1665 14.6667Z" fill="#39629C"/>
<path d="M11.4165 18.3333C11.2498 18.3333 10.9998 18.3333 10.8332 18.3333C10.4998 18.3333 10.1665 18.0833 10.1665 17.6667C10.1665 17.3333 10.4165 17.0833 10.8332 17.0833C11.2498 17.0833 11.6665 17.0833 12.0832 17.0833C12.4165 17.0833 12.6665 17.3333 12.6665 17.6667C12.6665 18 12.4165 18.25 12.0832 18.3333C11.8332 18.4167 11.5832 18.3333 11.4165 18.3333Z" fill="#39629C"/>
<path d="M15.1665 17.1667C15.3332 17.1667 15.5832 17.1667 15.7498 17.1667C16.0832 17.1667 16.3332 17.4167 16.3332 17.8333C16.3332 18.1667 16.0832 18.4167 15.7498 18.4167C15.3332 18.4167 14.9165 18.4167 14.4998 18.4167C14.1665 18.4167 13.9165 18.1667 13.9165 17.8333C13.9165 17.5 14.1665 17.25 14.4998 17.1667C14.6665 17.0833 14.9165 17.1667 15.1665 17.1667Z" fill="#39629C"/>
<path d="M11.3335 20.8333C11.1668 20.8333 10.9168 20.8333 10.7502 20.8333C10.4168 20.8333 10.0835 20.5833 10.0835 20.1667C10.0835 19.8333 10.3335 19.5833 10.7502 19.5833C11.1668 19.5833 11.5835 19.5833 12.0002 19.5833C12.3335 19.5833 12.6668 19.8333 12.6668 20.1667C12.6668 20.5 12.4168 20.75 12.0002 20.8333C11.7502 20.9167 11.5835 20.8333 11.3335 20.8333Z" fill="#39629C"/>
<path d="M15.1665 20.8333C14.9998 20.8333 14.7498 20.8333 14.5832 20.8333C14.2498 20.8333 13.9998 20.5833 13.9165 20.25C13.9165 19.9167 14.1665 19.5833 14.5832 19.5833C14.9998 19.5833 15.4165 19.5833 15.8332 19.5833C16.1665 19.5833 16.4998 19.8333 16.4998 20.25C16.4998 20.5833 16.2498 20.8333 15.8332 20.8333C15.4998 20.9167 15.3332 20.8333 15.1665 20.8333Z" fill="#39629C"/>
</g>
<defs>
<clipPath id="clip0_476_1654">
<rect width="20" height="20" fill="white" transform="translate(7 4)"/>
</clipPath>
</defs>
</svg>
