<svg width="13" height="12" viewBox="0 0 13 12" fill="none" xmlns="http://www.w3.org/2000/svg">
<path d="M1.78909 9.69689C1.78909 8.58906 1.78909 7.48124 1.78909 6.36612C1.78909 6.16934 1.79638 5.96526 1.78909 5.76848C1.77451 5.42593 1.51942 5.16355 1.18416 5.14168C0.856181 5.11982 0.571937 5.34575 0.51363 5.69559C0.499053 5.77577 0.499053 5.85594 0.499053 5.9434C0.499053 7.6926 0.499053 9.4418 0.499053 11.191C0.499053 11.7522 0.739568 12 1.29348 12C3.04997 12 4.80646 12 6.57023 12C6.89821 12 7.16787 11.9125 7.30635 11.5919C7.49585 11.1473 7.17516 10.7027 6.67227 10.7027C5.47698 10.6954 4.28898 10.7027 3.0937 10.7027C2.99895 10.7027 2.89691 10.7027 2.74386 10.7027C2.84589 10.5934 2.91149 10.5205 2.97709 10.4549C6.0309 7.37191 9.09928 4.30352 12.175 1.22785C12.379 1.02377 12.5394 0.819701 12.4665 0.506303C12.3572 0.0471381 11.8397 -0.149647 11.4607 0.12731C11.366 0.200193 11.2858 0.287653 11.1983 0.367825C8.1518 3.42164 5.09799 6.46816 2.05876 9.51468C1.98587 9.58756 1.94214 9.67502 1.88384 9.75519C1.84739 9.73333 1.81824 9.71875 1.78909 9.69689Z" fill="#70CC33"/>
</svg>
