<svg width="48" height="48" viewBox="0 0 48 48" fill="none" xmlns="http://www.w3.org/2000/svg">
<g filter="url(#filter0_d_948_10511)">
<circle cx="24" cy="22" r="20" fill="#FF9626"/>
<path d="M27.9017 14.9575C28.1864 14.4124 28.6354 14.2534 29.1934 14.2708C29.8264 14.2905 30.4609 14.2723 31.0946 14.2761C31.9108 14.2814 32.356 14.7296 32.3575 15.5428C32.3583 16.6028 32.3621 17.662 32.3538 18.722C32.3522 18.9068 32.4022 19.0355 32.5438 19.1604C33.1329 19.6798 33.7212 20.2 34.289 20.7421C34.7441 21.1759 34.8834 21.7241 34.7115 22.3291C34.5396 22.9325 34.1383 23.3482 33.5205 23.4534C33.1541 23.5155 32.7641 23.4375 32.3575 23.4216C32.3575 23.4496 32.3575 23.5488 32.3575 23.6488C32.3575 25.9005 32.3575 28.1523 32.3575 30.404C32.3575 31.6003 31.6678 32.2961 30.4806 32.2961C26.0528 32.2969 21.625 32.2969 17.1972 32.2961C16.0229 32.2961 15.3226 31.5988 15.3226 30.4305C15.3218 28.1788 15.3226 25.927 15.3226 23.6753C15.3226 23.5715 15.3226 23.4678 15.3226 23.3459C15.1212 23.3974 14.9372 23.4678 14.7479 23.4898C14.0225 23.5761 13.3737 23.2119 13.0776 22.5714C12.7748 21.9157 12.9216 21.1835 13.4721 20.6815C14.6116 19.6427 15.7572 18.61 16.9004 17.575C18.8221 15.835 20.7422 14.0936 22.6653 12.356C23.4119 11.6813 24.2561 11.6753 25.0049 12.3438C25.9627 13.2002 26.9137 14.0656 27.9017 14.9575ZM23.848 15.8593C23.7791 15.9138 23.7269 15.9524 23.6784 15.9948C21.1314 18.2405 18.5828 20.4847 16.0418 22.7372C15.9533 22.8152 15.8957 22.9764 15.8957 23.0991C15.8874 25.5681 15.8881 28.0372 15.8904 30.5062C15.8912 31.2566 16.3621 31.726 17.1147 31.7267C21.5985 31.7283 26.0823 31.7283 30.5669 31.7267C31.318 31.7267 31.7889 31.2558 31.7897 30.504C31.792 28.0349 31.7927 25.5659 31.7829 23.0968C31.7821 22.9681 31.7102 22.8023 31.6148 22.7167C29.5712 20.9011 27.5201 19.0938 25.4706 17.2857C24.9322 16.8118 24.3931 16.3393 23.848 15.8593ZM23.8306 15.1029C23.9048 15.1597 23.9593 15.1968 24.0078 15.2399C26.1225 17.1048 28.2364 18.9696 30.3503 20.8345C31.053 21.4538 31.748 22.0822 32.4613 22.6895C32.911 23.0726 33.572 23.012 33.9438 22.5872C34.3216 22.1542 34.2973 21.5462 33.8771 21.129C33.709 20.9624 33.5288 20.8095 33.3532 20.6505C30.4397 18.0186 27.5277 15.3853 24.6127 12.755C24.1236 12.3136 23.5747 12.2999 23.1105 12.7194C20.0365 15.4989 16.9656 18.2806 13.8976 21.0669C13.7621 21.1903 13.6409 21.3516 13.5682 21.5189C13.3805 21.949 13.5546 22.4813 13.9408 22.7523C14.3489 23.0385 14.8789 22.9954 15.2961 22.6281C17.0859 21.0533 18.8728 19.4746 20.6604 17.8983C21.7106 16.9715 22.7607 16.0463 23.8306 15.1029ZM31.7851 18.4661C31.7851 17.3826 31.7942 16.365 31.7791 15.3482C31.7745 15.0544 31.5398 14.8553 31.2256 14.8508C30.47 14.8402 29.7136 14.8326 28.9587 14.8583C28.7959 14.8636 28.6157 14.9908 28.4863 15.1082C28.3818 15.2036 28.3295 15.352 28.4923 15.4974C29.5765 16.4673 30.654 17.4447 31.7851 18.4661Z" fill="#FEFDFB" stroke="#FEFDFB" stroke-width="0.5"/>
<path d="M23.8724 19.2611C27.0546 19.3027 29.557 21.8657 29.5169 25.0426C29.4783 28.125 26.8926 30.6478 23.8065 30.6145C20.6174 30.5804 18.1166 28.0069 18.1627 24.8064C18.2074 21.7491 20.8097 19.221 23.8724 19.2611ZM23.83 30.0474C26.6382 30.0565 28.9339 27.7827 28.9498 24.9768C28.9657 22.1398 26.6859 19.8388 23.8489 19.8282C21.0459 19.8176 18.7435 22.0996 18.7298 24.9011C18.7155 27.7426 20.9914 30.0383 23.83 30.0474Z" fill="#FEFDFB" stroke="#FEFDFB" stroke-width="0.5"/>
<path d="M21.2723 24.6542C21.3851 24.6542 21.4971 24.6542 21.6099 24.6542C23.3794 24.6542 25.1481 24.6542 26.9175 24.6542C27.0122 24.6542 27.1257 24.6255 27.1969 24.6679C27.3044 24.7315 27.4498 24.8443 27.4513 24.9382C27.4536 25.029 27.3059 25.1441 27.1999 25.2077C27.1295 25.2501 27.0152 25.2213 26.9206 25.2213C25.1322 25.2213 23.3446 25.2213 21.5562 25.2213C21.4562 25.2213 21.3555 25.2213 21.2556 25.2213C21.2465 25.2433 21.2374 25.2653 21.2283 25.2865C21.5819 25.637 21.9355 25.9868 22.2891 26.3374C22.3497 26.3972 22.4118 26.4563 22.4678 26.5199C22.5851 26.6508 22.6026 26.7955 22.4784 26.9257C22.3519 27.0567 22.2058 27.0423 22.0756 26.9227C21.9575 26.8136 21.8462 26.697 21.7326 26.5835C21.2776 26.1284 20.8218 25.6749 20.369 25.2176C20.1471 24.9934 20.1449 24.8867 20.3607 24.6694C20.9134 24.1114 21.4706 23.5587 22.0249 23.0022C22.1611 22.8659 22.3141 22.7932 22.4701 22.9454C22.6359 23.1066 22.567 23.2679 22.4201 23.4118C22.0241 23.8002 21.6304 24.1909 21.2359 24.58C21.2473 24.605 21.2594 24.6293 21.2723 24.6542Z" fill="#FEFDFB" stroke="#FEFDFB" stroke-width="0.5"/>
</g>
<defs>
<filter id="filter0_d_948_10511" x="0" y="0" width="48" height="48" filterUnits="userSpaceOnUse" color-interpolation-filters="sRGB">
<feFlood flood-opacity="0" result="BackgroundImageFix"/>
<feColorMatrix in="SourceAlpha" type="matrix" values="0 0 0 0 0 0 0 0 0 0 0 0 0 0 0 0 0 0 127 0" result="hardAlpha"/>
<feOffset dy="2"/>
<feGaussianBlur stdDeviation="2"/>
<feComposite in2="hardAlpha" operator="out"/>
<feColorMatrix type="matrix" values="0 0 0 0 0 0 0 0 0 0 0 0 0 0 0 0 0 0 0.1 0"/>
<feBlend mode="normal" in2="BackgroundImageFix" result="effect1_dropShadow_948_10511"/>
<feBlend mode="normal" in="SourceGraphic" in2="effect1_dropShadow_948_10511" result="shape"/>
</filter>
</defs>
</svg>
