<svg width="48" height="48" viewBox="0 0 48 48" fill="none" xmlns="http://www.w3.org/2000/svg">
<g filter="url(#filter0_d_2851_25681)">
<circle cx="24" cy="22" r="20" fill="#FF9626"/>
<g clip-path="url(#clip0_2851_25681)">
<path d="M16.3987 20.9985C15.7161 20.9985 15.1003 20.9991 14.4845 20.9978C14.1543 20.9971 13.9654 20.8437 13.9728 20.5881C13.9795 20.3406 14.1603 20.2005 14.4805 20.1998C15.0463 20.1985 15.6121 20.1992 16.1785 20.1992C16.5615 20.1992 16.5888 20.2139 16.7963 20.5294C17.0565 20.2232 17.3194 19.9236 17.5709 19.6147C17.7044 19.4506 17.8651 19.3966 18.072 19.3972C19.8527 19.4019 21.6341 19.3972 23.4148 19.4072C23.5369 19.4079 23.685 19.478 23.7751 19.564C24.6331 20.388 25.4777 21.2273 26.3377 22.0493C26.4625 22.1687 26.6413 22.2534 26.8101 22.3008C28.1138 22.6671 29.4201 23.024 30.7278 23.3743C30.9653 23.4377 31.1241 23.5531 31.2149 23.786C31.3176 24.0488 31.4484 24.3004 31.5638 24.5579C31.6986 24.8568 31.822 25.1223 32.1836 25.2691C32.6393 25.4546 32.8348 26.017 32.72 26.4967C32.5966 27.0125 32.1776 27.3741 31.6579 27.3948C31.351 27.4068 31.0434 27.3968 30.7251 27.3968C30.6991 27.4788 30.6751 27.5476 30.6558 27.6169C30.3702 28.6531 29.4442 29.3743 28.3807 29.389C27.2992 29.4037 26.3484 28.7098 26.0522 27.6643C25.9935 27.4575 25.9141 27.3954 25.7019 27.3961C23.3301 27.4041 20.9582 27.4008 18.5864 27.4008C18.5036 27.4008 18.4209 27.4008 18.3302 27.4008C18.2968 27.5062 18.2681 27.6009 18.2368 27.6943C17.8858 28.7578 16.8871 29.4177 15.7488 29.3383C14.714 29.2662 13.8233 28.4536 13.6058 27.4055C13.5771 27.2673 13.4824 27.1186 13.375 27.0252C12.998 26.6982 12.5924 26.404 12.2194 26.0731C12.11 25.9757 12.0166 25.7969 12.0133 25.6528C11.9932 24.8962 12.0006 24.1382 12.0053 23.381C12.0073 23.0788 12.1127 22.972 12.4363 22.9006C13.337 22.7011 14.2377 22.505 15.1357 22.2955C15.2538 22.2681 15.3785 22.1894 15.4606 22.0987C15.7702 21.7551 16.0624 21.3961 16.3987 20.9985ZM30.9193 25.073C30.7932 24.7941 30.7011 24.5532 30.5757 24.3317C30.5183 24.231 30.4049 24.1276 30.2968 24.0962C29.226 23.7906 28.1525 23.4964 27.077 23.2082C26.7574 23.1228 26.4318 23.01 26.1069 23.0054C24.5423 22.984 22.9771 22.9954 21.4126 22.996C21.3325 22.996 21.2531 23.0034 21.1784 23.0067C21.1784 24.217 21.1784 25.4032 21.1784 26.5875C21.2218 26.5935 21.2458 26.6002 21.2705 26.6002C22.777 26.6008 24.2835 26.5988 25.79 26.6062C25.9601 26.6068 25.9868 26.5274 26.0228 26.3907C26.4118 24.9275 28.0217 24.1576 29.3594 24.8435C29.8705 25.1063 30.3709 24.9982 30.9193 25.073ZM13.6625 26.2212C14.1149 25.1377 14.8888 24.5212 16.0364 24.5672C17.3107 24.6186 18.0533 25.3772 18.3509 26.5828C19.024 26.5828 19.6846 26.5828 20.3457 26.5828C20.3457 25.3785 20.3457 24.195 20.3457 23.0074C20.2957 23.0027 20.2637 22.9974 20.231 22.9974C18.7505 22.9967 17.2707 22.9967 15.7902 22.9974C15.7322 22.9974 15.6734 23.0007 15.6167 23.0134C14.7414 23.2075 13.8667 23.4057 12.99 23.5952C12.8506 23.6252 12.7979 23.6819 12.7999 23.8273C12.8072 24.3431 12.7985 24.8588 12.8072 25.3739C12.8085 25.4533 12.8506 25.5547 12.9093 25.6054C13.1455 25.8135 13.3957 26.0057 13.6625 26.2212ZM25.3303 22.1887C25.3543 22.16 25.3777 22.132 25.4017 22.1033C24.7625 21.4868 24.1233 20.8697 23.4822 20.2559C23.4502 20.2252 23.3954 20.2018 23.3507 20.2018C22.6295 20.1985 21.9076 20.1992 21.1784 20.1992C21.1784 20.8764 21.1784 21.5282 21.1784 22.1881C22.5728 22.1887 23.9519 22.1887 25.3303 22.1887ZM16.4854 22.1794C17.8018 22.1794 19.0761 22.1794 20.3437 22.1794C20.3437 21.5095 20.3437 20.8584 20.3437 20.1992C19.6419 20.1992 18.96 20.1965 18.2788 20.2039C18.2081 20.2045 18.118 20.2486 18.072 20.3026C17.5476 20.9137 17.0305 21.5315 16.4854 22.1794ZM15.9403 28.5463C16.8317 28.5517 17.5582 27.8425 17.5622 26.9631C17.5662 26.0838 16.843 25.3545 15.963 25.3512C15.087 25.3479 14.3718 26.0531 14.3631 26.9284C14.3531 27.8244 15.0523 28.5417 15.9403 28.5463ZM26.7501 27.0018C26.7541 27.8898 27.4693 28.597 28.3573 28.591C29.2253 28.585 29.9399 27.8665 29.9425 26.9971C29.9452 26.1205 29.216 25.3912 28.3393 25.3952C27.4519 25.3986 26.7461 26.1118 26.7501 27.0018ZM30.7278 26.5968C31.0287 26.5968 31.3343 26.6082 31.6385 26.5928C31.828 26.5828 31.9361 26.4487 31.9474 26.2632C31.9588 26.0744 31.8554 25.9176 31.6739 25.9063C31.2829 25.8816 30.8893 25.8989 30.4956 25.8989C30.5684 26.1164 30.6451 26.3493 30.7278 26.5968Z" fill="#F9FAFA"/>
<path d="M30.3488 10.8079C33.4346 10.8052 35.9425 13.3058 35.9485 16.3902C35.9545 19.4853 33.4406 22.0026 30.3488 21.9979C27.2671 21.9932 24.7605 19.4826 24.7605 16.4009C24.7605 13.3158 27.2644 10.8099 30.3488 10.8079ZM30.3615 11.6072C27.7175 11.6045 25.5618 13.7542 25.5591 16.3962C25.5565 19.0423 27.7035 21.1953 30.3475 21.1979C32.9936 21.2006 35.1459 19.0536 35.1492 16.4089C35.1519 13.7615 33.0069 11.6098 30.3615 11.6072Z" fill="#F9FAFA"/>
<path d="M24.2087 33.9999C20.78 33.9325 18.0472 32.8236 15.7761 30.5999C15.5399 30.3684 15.5079 30.1529 15.6707 29.9674C15.8348 29.7806 16.0743 29.8053 16.3072 29.9954C16.9437 30.5152 17.5508 31.0843 18.2394 31.5246C20.2276 32.7949 22.4253 33.3794 24.7758 33.1385C29.4634 32.6568 32.6092 30.1435 34.2151 25.7241C34.6948 24.4044 34.8269 23.02 34.7168 21.6176C34.7128 21.5675 34.7082 21.5182 34.7075 21.4681C34.7028 21.1986 34.8536 21.0131 35.0865 21.0011C35.32 20.9891 35.4801 21.1546 35.5055 21.4288C35.6182 22.6664 35.5508 23.8987 35.2219 25.0936C33.9002 29.8933 30.7898 32.811 25.9113 33.8144C25.2708 33.9458 24.607 33.9585 24.2087 33.9999Z" fill="#F9FAFA"/>
<path d="M23.7383 10.7659C23.7023 10.7205 23.6623 10.6778 23.6323 10.6291C23.5155 10.4396 23.5368 10.2581 23.7003 10.112C23.8564 9.97257 24.0466 9.9579 24.2 10.0987C24.4996 10.3742 24.7878 10.6638 25.0654 10.962C25.2075 11.1148 25.1895 11.3016 25.0614 11.4651C24.8052 11.7927 24.5476 12.1196 24.2814 12.4392C24.1173 12.6366 23.8851 12.6573 23.7076 12.5119C23.5302 12.3658 23.5135 12.1456 23.6676 11.9334C23.7357 11.8394 23.8111 11.7506 23.9318 11.5978C23.5182 11.6232 23.1599 11.6272 22.8063 11.6686C20.1622 11.9781 17.9078 13.0877 16.0844 15.0305C14.4184 16.8052 13.4784 18.9222 13.2235 21.3428C13.1848 21.709 12.9099 21.8972 12.631 21.7471C12.4416 21.645 12.4049 21.4749 12.4255 21.2787C12.537 20.1892 12.7671 19.125 13.1948 18.1162C14.8134 14.2966 17.6543 11.9281 21.7054 11.0374C22.3666 10.892 23.0511 10.8546 23.7383 10.7659Z" fill="#F9FAFA"/>
<path d="M23.1647 28.9914C22.6569 28.9914 22.1492 28.9934 21.6415 28.9907C21.3459 28.9894 21.1678 28.8372 21.1658 28.5951C21.1638 28.3515 21.3413 28.1941 21.6348 28.1934C22.6503 28.1907 23.6657 28.1914 24.6812 28.1934C24.9761 28.1941 25.1549 28.3469 25.1576 28.5884C25.1596 28.8306 24.9801 28.9887 24.6879 28.9907C24.1801 28.9934 23.6724 28.9914 23.1647 28.9914Z" fill="#F9FAFA"/>
<path d="M15.3979 18.6012C15.5893 18.6012 15.7808 18.5932 15.9723 18.6032C16.2092 18.6152 16.3686 18.7847 16.3666 19.0028C16.3646 19.2203 16.2038 19.3905 15.9656 19.3958C15.5667 19.4051 15.1663 19.4051 14.7674 19.3951C14.5305 19.3891 14.3711 19.2137 14.3731 18.9962C14.3751 18.778 14.5352 18.6139 14.774 18.6032C14.9815 18.5938 15.1897 18.6012 15.3979 18.6012Z" fill="#F9FAFA"/>
<path d="M19.5459 28.99C19.4211 28.99 19.2957 28.996 19.1716 28.9886C18.9321 28.9746 18.7719 28.8145 18.7686 28.5963C18.7653 28.3781 18.9247 28.2047 19.1609 28.1953C19.4265 28.1847 19.6933 28.1853 19.9595 28.1947C20.1977 28.2027 20.3598 28.3688 20.3625 28.5856C20.3658 28.8031 20.2057 28.9726 19.9702 28.988C19.8288 28.9973 19.6873 28.99 19.5459 28.99Z" fill="#F9FAFA"/>
<path d="M22.9572 24.6093C22.7657 24.6093 22.5742 24.6173 22.3834 24.6073C22.1405 24.5946 21.9831 24.4331 21.9824 24.2156C21.9818 24.0008 22.1405 23.824 22.3807 23.8193C22.7877 23.8113 23.196 23.8207 23.603 23.8367C23.8245 23.8453 23.9533 23.9774 23.9713 24.2003C23.9893 24.4178 23.8565 24.5926 23.629 24.6146C23.4069 24.636 23.1807 24.6193 22.9565 24.6193C22.9572 24.6153 22.9572 24.6119 22.9572 24.6093Z" fill="#F9FAFA"/>
<path d="M18.5817 24.5953C18.3903 24.5953 18.1988 24.602 18.0073 24.5939C17.7538 24.5833 17.5923 24.4165 17.5983 24.1856C17.6036 23.9668 17.7644 23.8033 18.0046 23.8C18.3956 23.7947 18.7872 23.7953 19.1782 23.8087C19.4337 23.8173 19.5965 23.9928 19.5905 24.2183C19.5845 24.4445 19.4157 24.5966 19.1562 24.6026C18.9647 24.6066 18.7732 24.6033 18.5817 24.6033C18.5817 24.6006 18.5817 24.5979 18.5817 24.5953Z" fill="#F9FAFA"/>
<path d="M15.9596 27.7471C15.5206 27.7457 15.1696 27.3974 15.1663 26.9604C15.1629 26.5148 15.5259 26.1478 15.9676 26.1511C16.4059 26.1545 16.7742 26.5308 16.7649 26.9684C16.7569 27.3994 16.3959 27.7484 15.9596 27.7471Z" fill="#F9FAFA"/>
<path d="M28.3821 27.7938C27.9444 27.7932 27.5901 27.4389 27.5881 26.9999C27.5861 26.5622 27.9391 26.2019 28.3741 26.1966C28.8164 26.1913 29.1914 26.5642 29.1854 27.0046C29.18 27.4389 28.8184 27.7945 28.3821 27.7938Z" fill="#F9FAFA"/>
<path d="M33.5506 15.4202C33.5913 17.0768 33.0563 18.4559 31.8313 19.5214C31.4604 19.8436 31.0093 20.0785 30.5783 20.3247C30.4689 20.3874 30.2714 20.3927 30.158 20.336C28.7609 19.6395 27.7762 18.5826 27.3391 17.0541C27.125 16.3049 27.1463 15.5396 27.169 14.7757C27.1723 14.6656 27.2731 14.5255 27.3692 14.4554C28.2692 13.7989 29.1786 13.1551 30.0839 12.5066C30.2614 12.3792 30.4349 12.3732 30.6137 12.5006C31.5271 13.1531 32.4451 13.7989 33.3478 14.4668C33.4592 14.5488 33.516 14.741 33.5426 14.8918C33.576 15.0773 33.5506 15.2727 33.5506 15.4202ZM32.752 15.603C32.752 15.5283 32.7413 15.4515 32.754 15.3788C32.7994 15.1079 32.6846 14.9438 32.4591 14.791C31.8053 14.3474 31.1661 13.8817 30.529 13.4146C30.3995 13.3199 30.3135 13.3192 30.1847 13.414C29.6076 13.837 29.0385 14.274 28.4347 14.6556C28.0617 14.8911 27.9349 15.1573 27.9456 15.6003C27.9856 17.3017 28.7129 18.578 30.1767 19.4426C30.3235 19.5294 30.4369 19.5307 30.5817 19.4453C32.0415 18.58 32.7387 17.285 32.752 15.603Z" fill="#F9FAFA"/>
<path d="M28.7563 16.0178C28.7563 15.9011 28.7603 15.7843 28.7557 15.6682C28.7476 15.4741 28.8317 15.3366 28.9918 15.2319C29.3534 14.995 29.7104 14.7502 30.072 14.5133C30.3215 14.3505 30.5484 14.3819 30.6838 14.5874C30.8186 14.7922 30.7579 15.0104 30.5103 15.1805C30.2501 15.3593 29.9893 15.5395 29.7204 15.7042C29.5896 15.7843 29.5536 15.8784 29.5516 16.0272C29.5409 16.8598 29.8505 17.5303 30.5224 18.0301C30.7659 18.2115 30.8179 18.427 30.6765 18.6279C30.529 18.8367 30.2975 18.856 30.042 18.6666C29.154 18.0074 28.745 17.114 28.7563 16.0178Z" fill="#F9FAFA"/>
</g>
</g>
<defs>
<filter id="filter0_d_2851_25681" x="0" y="0" width="48" height="48" filterUnits="userSpaceOnUse" color-interpolation-filters="sRGB">
<feFlood flood-opacity="0" result="BackgroundImageFix"/>
<feColorMatrix in="SourceAlpha" type="matrix" values="0 0 0 0 0 0 0 0 0 0 0 0 0 0 0 0 0 0 127 0" result="hardAlpha"/>
<feOffset dy="2"/>
<feGaussianBlur stdDeviation="2"/>
<feComposite in2="hardAlpha" operator="out"/>
<feColorMatrix type="matrix" values="0 0 0 0 0 0 0 0 0 0 0 0 0 0 0 0 0 0 0.1 0"/>
<feBlend mode="normal" in2="BackgroundImageFix" result="effect1_dropShadow_2851_25681"/>
<feBlend mode="normal" in="SourceGraphic" in2="effect1_dropShadow_2851_25681" result="shape"/>
</filter>
<clipPath id="clip0_2851_25681">
<rect width="24" height="24" fill="white" transform="translate(12 10)"/>
</clipPath>
</defs>
</svg>
