<svg width="34" height="28" viewBox="0 0 34 28" fill="none" xmlns="http://www.w3.org/2000/svg">
<g clip-path="url(#clip0_476_1638)">
<path d="M27.0002 18.7767C27.0008 17.7258 26.8201 16.6827 26.466 15.6933L25.2635 12.3258C25.0894 11.8405 24.7699 11.4208 24.3484 11.1239C23.9269 10.8269 23.4241 10.6673 22.9085 10.6667H16.9252C16.4096 10.6673 15.9068 10.8269 15.4853 11.1239C15.0639 11.4208 14.7443 11.8405 14.5702 12.3258L13.3677 15.6942C13.0136 16.6833 12.8329 17.7261 12.8335 18.7767V22.3333H14.5002V24H17.8335V22.3333H22.0002V24H25.3335V22.3333H27.0002V18.7767ZM16.9252 12.3333H22.9085C23.0805 12.3333 23.2482 12.3865 23.3888 12.4855C23.5293 12.5846 23.6358 12.7247 23.6935 12.8867L24.6869 15.6667H15.1469L16.1402 12.8867C16.198 12.7247 16.3044 12.5846 16.445 12.4855C16.5855 12.3865 16.7533 12.3333 16.9252 12.3333ZM25.3335 20.6667H14.5002V18.7767C14.4999 18.2922 14.5468 17.8088 14.6402 17.3333H16.1669V18.1667C16.1669 18.3877 16.2547 18.5996 16.4109 18.7559C16.5672 18.9122 16.7792 19 17.0002 19C17.2212 19 17.4332 18.9122 17.5895 18.7559C17.7457 18.5996 17.8335 18.3877 17.8335 18.1667V17.3333H22.0002V18.1667C22.0002 18.3877 22.088 18.5996 22.2443 18.7559C22.4006 18.9122 22.6125 19 22.8335 19C23.0545 19 23.2665 18.9122 23.4228 18.7559C23.5791 18.5996 23.6669 18.3877 23.6669 18.1667V17.3333H25.1935C25.2869 17.8088 25.3338 18.2922 25.3335 18.7767V20.6667ZM10.3335 11.5V10.6667H8.81186C8.71724 11.142 8.66868 11.6253 8.66686 12.11V14H12.0002V17.3333H8.66686V15.6667H7.0002C7.0502 13.75 6.77603 10.8242 7.53436 9.0275L8.73686 5.65917C8.91028 5.17361 9.22958 4.75354 9.65102 4.45652C10.0725 4.15949 10.5754 4.00004 11.091 4H17.076C17.5916 4.00004 18.0946 4.15949 18.516 4.45652C18.9375 4.75354 19.2568 5.17361 19.4302 5.65917L20.6235 9H18.8535L17.8602 6.22C17.8025 6.05818 17.6961 5.91817 17.5558 5.81911C17.4154 5.72006 17.2478 5.66681 17.076 5.66667H11.0919C10.9199 5.66664 10.7522 5.71981 10.6116 5.81887C10.4711 5.91794 10.3646 6.05805 10.3069 6.22L9.31353 9H16.9252C16.2791 9.00116 15.6422 9.1523 15.0645 9.44152C14.4868 9.73073 13.9841 10.1501 13.596 10.6667H12.0002V11.5C12.0002 11.721 11.9124 11.933 11.7561 12.0893C11.5998 12.2455 11.3879 12.3333 11.1669 12.3333C10.9459 12.3333 10.7339 12.2455 10.5776 12.0893C10.4213 11.933 10.3335 11.721 10.3335 11.5Z" fill="#39629C"/>
</g>
<defs>
<clipPath id="clip0_476_1638">
<rect width="20" height="20" fill="white" transform="translate(7 4)"/>
</clipPath>
</defs>
</svg>
