<svg width="41" height="39" viewBox="0 0 41 39" fill="none" xmlns="http://www.w3.org/2000/svg">
<g filter="url(#filter0_d_1485_16052)">
<rect x="4" y="3" width="32" height="31.0001" rx="15.5" fill="#FEFDFB"/>
<path d="M11.0358 18.4953C11.5409 18.117 12.0044 17.7668 12.4704 17.4211C13.6745 16.5281 15.0815 16.589 16.1999 17.5876C16.7549 18.083 17.3022 18.5881 17.8527 19.0887C18.6459 19.8102 19.439 20.5322 20.2328 21.253C20.291 21.3062 20.3531 21.3555 20.4203 21.4124C20.8383 20.9432 21.2461 20.4817 21.6577 20.024C22.7633 18.7942 24.3796 18.6617 25.674 19.693C26.3686 20.2467 27.0612 20.8017 27.7551 21.3561C27.8031 21.3945 27.8537 21.4304 27.9414 21.4963C27.9414 21.3727 27.9414 21.2889 27.9414 21.2057C27.9414 20.1334 27.9382 19.0612 27.9433 17.9889C27.9452 17.5882 28.232 17.2694 28.6039 17.2278C29.0085 17.1824 29.3574 17.4154 29.4534 17.8052C29.4758 17.8968 29.4777 17.9953 29.4777 18.0907C29.479 20.0912 29.4829 22.0916 29.4777 24.0921C29.4707 26.846 27.3256 28.9917 24.571 28.9962C21.1853 29.0014 17.8002 29.0014 14.4145 28.9962C11.6484 28.9924 9.50203 26.8428 9.49947 24.0761C9.49627 20.6993 9.49627 17.3226 9.49947 13.9458C9.50203 11.1759 11.6446 9.0282 14.41 9.0218C16.4348 9.01732 18.4596 9.01924 20.4843 9.02244C20.8992 9.02308 21.2269 9.30731 21.2698 9.68499C21.3159 10.0953 21.065 10.4576 20.6681 10.5402C20.5676 10.5614 20.4613 10.5575 20.3576 10.5575C18.3968 10.5581 16.4361 10.5575 14.4753 10.5581C12.4819 10.5588 11.0371 12.0023 11.0358 13.9925C11.0352 15.4008 11.0358 16.8092 11.0358 18.2175C11.0358 18.2917 11.0358 18.3686 11.0358 18.4953ZM19.382 22.5807C19.3526 22.5436 19.3404 22.5224 19.3231 22.5071C17.9142 21.2255 16.5091 19.9395 15.0937 18.6649C14.6072 18.2271 13.9773 18.2175 13.4421 18.6144C12.697 19.1675 11.9589 19.7308 11.2112 20.2807C11.0813 20.3767 11.0307 20.4733 11.032 20.6347C11.039 21.7869 11.0333 22.9398 11.0365 24.0921C11.0409 25.857 12.3065 27.2717 14.065 27.4407C14.5509 27.4874 15.0162 27.5546 15.4349 27.054C16.7081 25.533 18.0556 24.0735 19.382 22.5807ZM17.1089 27.4541C19.7213 27.4541 22.2729 27.4746 24.8239 27.4432C25.7515 27.4317 26.528 26.9983 27.1406 26.2935C27.8255 25.5055 28.0016 24.5671 27.9363 23.562C27.9318 23.4967 27.8697 23.4206 27.8134 23.3758C26.7539 22.5237 25.6926 21.6749 24.6299 20.8273C24.3476 20.602 24.0231 20.5073 23.6652 20.5521C23.3067 20.5969 23.0308 20.7864 22.7934 21.0546C21.2077 22.8444 19.6176 24.6298 18.0288 26.4171C17.733 26.7493 17.4385 27.0822 17.1089 27.4541Z" fill="#FF9626"/>
<path d="M23.9039 13.2952C23.9865 14.1396 24.779 14.9461 25.7008 15.1177C25.8493 15.1452 26.0017 15.1561 26.1527 15.1651C26.588 15.1913 26.9171 15.5204 26.9171 15.9345C26.9164 16.3583 26.5714 16.6944 26.1284 16.7021C24.3379 16.7341 22.6607 15.329 22.3682 13.5519C22.3503 13.4418 22.3317 13.3323 22.3067 13.1864C22.2171 13.2722 22.1474 13.3432 22.0725 13.4098C21.7428 13.7049 21.2896 13.7004 20.9925 13.4002C20.6974 13.1019 20.6897 12.6346 20.9945 12.3216C21.497 11.8062 22.0065 11.298 22.5212 10.7942C22.8547 10.4677 23.2945 10.4696 23.6344 10.8012C24.1382 11.2928 24.6356 11.7909 25.1279 12.294C25.4575 12.6301 25.4588 13.1038 25.1464 13.4092C24.8398 13.7094 24.3872 13.7011 24.0505 13.3836C24.0115 13.3471 23.9967 13.285 23.9705 13.235C23.9487 13.2549 23.9263 13.2747 23.9039 13.2952Z" fill="#FF9626"/>
<path d="M27.3942 11.4581C27.3545 11.2917 27.3379 11.1848 27.3033 11.0843C26.9948 10.1868 26.1869 9.5889 25.2216 9.54025C24.6621 9.51208 24.2972 9.14272 24.3631 8.67286C24.4208 8.26252 24.7293 8.00262 25.162 8.00006C26.8789 7.98982 28.4447 9.22146 28.8525 10.9057C28.8973 11.0913 28.9261 11.2814 28.9703 11.5119C29.0554 11.4293 29.1233 11.3595 29.1943 11.2936C29.5118 10.9998 29.9804 10.9991 30.2755 11.291C30.5713 11.583 30.5841 12.0599 30.2819 12.3703C29.7749 12.892 29.2596 13.4067 28.7379 13.9144C28.4146 14.2287 27.9723 14.2203 27.6432 13.8984C27.1343 13.401 26.6312 12.8972 26.1331 12.3889C25.8208 12.0701 25.8163 11.615 26.105 11.3102C26.4001 10.9985 26.8623 10.9902 27.2035 11.291C27.2496 11.3327 27.2969 11.373 27.3942 11.4581Z" fill="#FF9626"/>
<path d="M15.3965 13.3753C15.3958 12.5175 16.0738 11.8402 16.9322 11.8422C17.7855 11.8441 18.4756 12.5367 18.4666 13.383C18.4577 14.2197 17.7714 14.9059 16.936 14.9117C16.0891 14.9181 15.3978 14.228 15.3965 13.3753Z" fill="#FF9626"/>
</g>
<defs>
<filter id="filter0_d_1485_16052" x="0.5" y="0" width="40" height="39" filterUnits="userSpaceOnUse" color-interpolation-filters="sRGB">
<feFlood flood-opacity="0" result="BackgroundImageFix"/>
<feColorMatrix in="SourceAlpha" type="matrix" values="0 0 0 0 0 0 0 0 0 0 0 0 0 0 0 0 0 0 127 0" result="hardAlpha"/>
<feOffset dx="0.5" dy="1"/>
<feGaussianBlur stdDeviation="2"/>
<feComposite in2="hardAlpha" operator="out"/>
<feColorMatrix type="matrix" values="0 0 0 0 0.223529 0 0 0 0 0.384314 0 0 0 0 0.611765 0 0 0 0.24 0"/>
<feBlend mode="normal" in2="BackgroundImageFix" result="effect1_dropShadow_1485_16052"/>
<feBlend mode="normal" in="SourceGraphic" in2="effect1_dropShadow_1485_16052" result="shape"/>
</filter>
</defs>
</svg>
