<svg width="36" height="38" viewBox="0 0 36 38" fill="none" xmlns="http://www.w3.org/2000/svg">
<g filter="url(#filter0_d_776_3692)">
<path d="M11.366 30.5C11.141 30.425 10.8973 30.3688 10.6848 30.2625C9.95355 29.9 9.50355 29.3062 9.44105 28.4875C9.35355 27.2312 9.3098 25.975 9.25355 24.7188C9.1473 22.4312 9.0473 20.1438 8.94105 17.8625C8.8723 16.3625 8.80355 14.8688 8.74105 13.3688C8.7223 12.8063 9.02855 12.5 9.5973 12.5C15.5285 12.5 21.4535 12.5 27.3848 12.5C27.9535 12.5 28.2598 12.8063 28.2348 13.3688C28.1348 15.6188 28.0285 17.8625 27.9285 20.1125C27.841 22 27.7598 23.8875 27.6785 25.775C27.641 26.6562 27.616 27.5375 27.5473 28.4188C27.4598 29.4938 26.7598 30.25 25.7035 30.4625C25.6723 30.4688 25.6473 30.4875 25.6223 30.5C20.866 30.5 16.116 30.5 11.366 30.5ZM10.3035 14.0062C10.3035 14.2437 10.2973 14.4625 10.3035 14.6812C10.4035 16.9375 10.5098 19.1938 10.6098 21.4438C10.7098 23.6813 10.8035 25.925 10.9098 28.1625C10.9348 28.7313 11.2223 29 11.791 29C16.2598 29 20.7285 29 25.1973 29C25.7598 29 26.0473 28.7313 26.0723 28.1625C26.0973 27.6938 26.1098 27.225 26.1348 26.7563C26.216 24.8688 26.3035 22.9812 26.391 21.0938C26.491 18.8063 26.5973 16.5188 26.7035 14.2375C26.7098 14.1625 26.7035 14.0875 26.7035 14.0062C21.216 14.0062 15.766 14.0062 10.3035 14.0062Z" fill="#666666" stroke="#666666" stroke-width="0.2"/>
<path d="M21.8223 6.5C21.9161 6.53125 22.0098 6.5625 22.1098 6.5875C23.0723 6.86875 23.7286 7.71875 23.7473 8.71875C23.7536 8.96875 23.7473 9.21875 23.7473 9.5C23.8411 9.5 23.9223 9.5 24.0098 9.5C25.4161 9.5 26.8223 9.5 28.2286 9.5C28.5911 9.5 28.8661 9.70625 28.9661 10.0375C29.0598 10.3438 28.9536 10.6812 28.6723 10.8562C28.5536 10.9312 28.4036 10.9688 28.2598 10.9938C28.1223 11.0188 27.9786 11 27.8411 11C21.5348 11 15.2348 11 8.92856 11C8.82231 11 8.70981 11.0062 8.60356 10.9812C8.22856 10.9062 7.96606 10.55 8.00356 10.175C8.03481 9.7875 8.35356 9.5 8.76606 9.5C9.89731 9.49375 11.0286 9.5 12.1661 9.5C12.5161 9.5 12.8661 9.5 13.2473 9.5C13.2473 9.26875 13.2473 9.05 13.2473 8.8375C13.2536 7.6625 13.9411 6.8 15.0911 6.54375C15.1223 6.5375 15.1473 6.51875 15.1723 6.50625C17.3848 6.5 19.6036 6.5 21.8223 6.5ZM14.7411 9.4875C17.2536 9.4875 19.7411 9.4875 22.2411 9.4875C22.2411 9.21875 22.2536 8.95625 22.2411 8.7C22.2223 8.31875 21.9098 8.00625 21.5223 8.00625C19.5098 8 17.4911 8 15.4786 8.00625C15.0786 8.00625 14.7661 8.325 14.7536 8.71875C14.7348 8.96875 14.7411 9.2125 14.7411 9.4875Z" fill="#666666" stroke="#666666" stroke-width="0.2"/>
<path d="M21.866 21.1C21.9285 19.7375 21.9848 18.3687 22.0473 17.0062C22.066 16.5687 22.3973 16.2437 22.8098 16.2562C23.2348 16.2625 23.5598 16.6125 23.541 17.0625C23.4973 18.2062 23.4473 19.3562 23.3973 20.5C23.3285 22.0687 23.2598 23.6375 23.191 25.2C23.166 25.6937 22.841 26.0187 22.4035 26C21.966 25.975 21.6723 25.6187 21.6973 25.125C21.7535 23.7812 21.8098 22.4375 21.866 21.1Z" fill="#666666" stroke="#666666" stroke-width="0.2"/>
<path d="M17.7411 21.1C17.7411 19.75 17.7411 18.4 17.7411 17.0438C17.7411 16.4688 18.2536 16.1 18.7598 16.3C19.0661 16.4188 19.2286 16.6563 19.2411 16.9875C19.2473 17.2438 19.2411 17.5 19.2411 17.7625C19.2411 20.2063 19.2411 22.65 19.2411 25.1C19.2411 25.2 19.2473 25.3063 19.2223 25.4C19.1473 25.775 18.7911 26.0375 18.4161 25.9938C18.0286 25.9563 17.7473 25.6375 17.7411 25.225C17.7348 24 17.7411 22.775 17.7411 21.5438C17.7411 21.4 17.7411 21.25 17.7411 21.1Z" fill="#666666" stroke="#666666" stroke-width="0.2"/>
<path d="M13.6162 21.131C13.56 19.8373 13.5037 18.5435 13.4475 17.2435C13.4412 17.1123 13.435 16.9748 13.46 16.8498C13.535 16.4748 13.8662 16.2248 14.2412 16.2498C14.61 16.2748 14.91 16.5748 14.9287 16.956C14.9787 17.9748 15.0225 18.9998 15.0662 20.0185C15.1412 21.6935 15.2162 23.3748 15.2787 25.0498C15.285 25.2123 15.2725 25.381 15.2225 25.531C15.11 25.8498 14.76 26.0373 14.435 25.9935C14.0725 25.9373 13.81 25.6498 13.7912 25.2685C13.735 23.8873 13.6725 22.5123 13.6162 21.131Z" fill="#666666" stroke="#666666" stroke-width="0.2"/>
</g>
<defs>
<filter id="filter0_d_776_3692" x="-4" y="-1.5" width="44" height="44" filterUnits="userSpaceOnUse" color-interpolation-filters="sRGB">
<feFlood flood-opacity="0" result="BackgroundImageFix"/>
<feColorMatrix in="SourceAlpha" type="matrix" values="0 0 0 0 0 0 0 0 0 0 0 0 0 0 0 0 0 0 127 0" result="hardAlpha"/>
<feOffset dy="2"/>
<feGaussianBlur stdDeviation="2"/>
<feComposite in2="hardAlpha" operator="out"/>
<feColorMatrix type="matrix" values="0 0 0 0 1 0 0 0 0 0.588235 0 0 0 0 0.14902 0 0 0 0.24 0"/>
<feBlend mode="normal" in2="BackgroundImageFix" result="effect1_dropShadow_776_3692"/>
<feBlend mode="normal" in="SourceGraphic" in2="effect1_dropShadow_776_3692" result="shape"/>
</filter>
</defs>
</svg>
