<svg width="44" height="44" viewBox="0 0 44 44" fill="none" xmlns="http://www.w3.org/2000/svg">
<g clip-path="url(#clip0_479_22962)">
<path d="M21.2326 0C21.7482 0 22.2638 0 22.7794 0C23.0201 0.034375 23.2607 0.06875 23.5013 0.103125C24.3378 0.20625 25.1857 0.252083 26.0107 0.401042C30.3763 1.22604 34.169 3.17396 37.343 6.27917C40.8721 9.73958 43.0148 13.9104 43.7482 18.8146C43.8513 19.4792 43.9201 20.1438 44.0117 20.8083C44.0117 21.6104 44.0117 22.4125 44.0117 23.2146C43.9201 23.9938 43.8513 24.7729 43.7138 25.5406C42.8773 30.4906 40.6315 34.6958 36.9648 38.1104C33.6419 41.2042 29.7117 43.0948 25.2086 43.7479C24.544 43.8396 23.8794 43.9198 23.2148 44C22.4128 44 21.6107 44 20.8086 44C20.6711 43.9771 20.5336 43.9312 20.3961 43.9198C19.4221 43.7823 18.4253 43.7135 17.4742 43.4958C11.7794 42.2583 7.26484 39.2219 3.91901 34.4552C1.81068 31.4417 0.573177 28.0958 0.195052 24.4292C0.13776 23.9021 0.0804688 23.3865 0.0117188 22.8594C0.0117188 22.2865 0.0117188 21.7135 0.0117188 21.1406C0.0460938 20.9458 0.0804687 20.751 0.103385 20.5562C0.229427 19.5708 0.286719 18.5625 0.492969 17.5885C1.62734 12.2146 4.40026 7.8375 8.76589 4.50313C11.9628 2.0625 15.5721 0.630208 19.5711 0.194792C20.1211 0.126042 20.6711 0.0572917 21.2326 0ZM17.8638 25.6438C17.6919 25.426 17.6117 25.2771 17.4971 25.174C16.0992 23.776 14.7013 22.3781 13.3034 20.9802C12.6044 20.2813 11.7451 20.0177 10.7826 20.224C9.7513 20.4417 9.05234 21.0948 8.75443 22.1146C8.45651 23.1229 8.69714 24.051 9.44193 24.7958C11.5273 26.8927 13.6128 28.9667 15.6982 31.0521C17.0732 32.4271 18.6201 32.4271 19.9836 31.0635C24.7388 26.3083 29.5055 21.5417 34.2607 16.7865C34.4326 16.6146 34.6044 16.4427 34.7534 16.2479C35.8305 14.8271 35.269 12.7417 33.6076 12.1C32.4617 11.6646 31.4534 11.9281 30.5826 12.799C26.469 16.9125 22.3669 21.026 18.2534 25.1396C18.1617 25.2656 18.0586 25.4031 17.8638 25.6438Z" fill="#5EAB2B"/>
<path d="M17.8641 25.6438C18.0589 25.4032 18.1506 25.2543 18.2766 25.1397C22.3902 21.0261 26.5037 16.9126 30.6058 12.799C31.4766 11.9282 32.485 11.6647 33.6308 12.1001C35.2922 12.7418 35.8537 14.8272 34.7766 16.248C34.6277 16.4428 34.4558 16.6147 34.2839 16.7865C29.5287 21.5418 24.762 26.3084 20.0068 31.0636C18.6433 32.4272 17.0964 32.4272 15.7214 31.0522C13.636 28.9668 11.5391 26.8813 9.46516 24.7959C8.72037 24.0397 8.47974 23.123 8.77766 22.1147C9.07558 21.1063 9.77454 20.4532 10.8058 20.224C11.7683 20.0178 12.6162 20.2813 13.3266 20.9803C14.7245 22.3782 16.1225 23.7761 17.5204 25.174C17.6235 25.2886 17.7037 25.4261 17.8641 25.6438Z" fill="white"/>
</g>
<defs>
<clipPath id="clip0_479_22962">
<rect width="44" height="44" fill="white"/>
</clipPath>
</defs>
</svg>
