<svg width="16" height="11" viewBox="0 0 16 11" fill="none" xmlns="http://www.w3.org/2000/svg">
<path d="M8.85765 9.14174L8.85669 9.1427C8.39211 9.60729 7.62412 9.63289 7.15924 9.13604L2.8564 4.83321M8.85765 9.14174L2.8564 4.83321M8.85765 9.14174L13.1428 4.83321C13.1429 4.83308 13.143 4.83296 13.1431 4.83283C13.3709 4.60491 13.5 4.31628 13.5 3.98781C13.5 3.83093 13.4631 3.6844 13.4418 3.59961C13.4405 3.59469 13.4394 3.58998 13.4382 3.58549L13.4291 3.54909L13.4147 3.51445C13.22 3.04707 12.7803 2.76176 12.2974 2.76176L3.7018 2.76176C3.19884 2.76176 2.7778 3.0885 2.59083 3.49986L2.57997 3.52375L2.57167 3.54864C2.42686 3.98306 2.49315 4.46996 2.8564 4.83321M8.85765 9.14174L3.20996 4.47966L2.8564 4.83321M6.60293 5.19045L9.40394 5.19045L8.00971 6.58467L6.60293 5.19045Z" fill="#D9D9D9" stroke="#D9D9D9"/>
</svg>
