<svg width="34" height="28" viewBox="0 0 34 28" fill="none" xmlns="http://www.w3.org/2000/svg">
<g clip-path="url(#clip0_476_1646)">
<path d="M19.8891 4.6734C19.9152 4.68476 19.9403 4.70039 19.9672 4.70654C20.7594 4.87747 21.2973 5.52993 21.3091 6.33865C21.3124 6.5806 21.3096 6.82302 21.3096 7.0948C21.3853 7.0948 21.453 7.0948 21.5203 7.0948C22.5738 7.0948 23.6273 7.09433 24.6808 7.0948C25.328 7.09528 25.7064 7.47312 25.7068 8.1199C25.7073 10.8126 25.7068 13.5053 25.7068 16.198C25.7068 16.2217 25.7073 16.2454 25.7068 16.269C25.7021 16.5044 25.5842 16.6445 25.3943 16.6403C25.2082 16.636 25.1022 16.5067 25.1017 16.2728C25.1003 15.2255 25.1012 14.1777 25.1012 13.1303C25.1012 11.5441 25.1012 9.95797 25.1012 8.37226C25.1012 8.30976 25.1012 8.24679 25.1012 8.18429C25.0742 8.1644 25.0473 8.14452 25.0203 8.12463C24.9909 8.18287 24.9743 8.25389 24.9308 8.29793C23.5814 9.65162 22.2277 11.0015 20.8796 12.3571C20.7395 12.4977 20.5941 12.564 20.3943 12.5579C19.9994 12.546 19.6036 12.5546 19.2049 12.5546C19.186 12.7028 19.1822 12.8391 19.1495 12.9684C19.0335 13.431 18.6325 13.7582 18.1581 13.7615C17.1817 13.7686 16.2049 13.769 15.2286 13.7619C14.686 13.7577 14.2523 13.3443 14.1978 12.8031C14.1903 12.7269 14.1855 12.6507 14.1779 12.5546C13.8271 12.5546 13.4791 12.5465 13.132 12.5579C12.9398 12.564 12.7977 12.5034 12.6614 12.3661C11.3134 11.011 9.95966 9.66109 8.60834 8.30882C8.56288 8.26336 8.52453 8.21081 8.48287 8.16156C8.46487 8.16772 8.44688 8.17387 8.42889 8.18003C8.42889 8.2449 8.42889 8.30976 8.42889 8.37463C8.42889 10.9726 8.42889 13.5707 8.42889 16.1691C8.42889 16.234 8.43126 16.2998 8.4251 16.3642C8.40995 16.5214 8.30057 16.6298 8.15143 16.6407C8.00465 16.6516 7.87302 16.5583 7.83798 16.4082C7.8233 16.3457 7.8233 16.2795 7.8233 16.2146C7.82283 13.51 7.82235 10.8055 7.8233 8.10096C7.8233 7.47596 8.20493 7.09622 8.83135 7.09528C9.88485 7.09433 10.9384 7.0948 11.9919 7.0948C12.0615 7.0948 12.1311 7.0948 12.2201 7.0948C12.2201 6.87368 12.2201 6.66819 12.2201 6.4627C12.2206 5.52662 12.6888 4.92861 13.5974 4.70086C13.6117 4.69708 13.6249 4.68287 13.6391 4.6734C15.7224 4.6734 17.8058 4.6734 19.8891 4.6734ZM19.1841 11.949C19.5638 11.949 19.9128 11.957 20.2608 11.9438C20.3546 11.94 20.4691 11.8959 20.5349 11.8306C21.8654 10.5091 23.1907 9.18192 24.5165 7.85569C24.5558 7.81639 24.5918 7.77331 24.6467 7.71317C19.3806 7.71317 14.1453 7.71317 8.89196 7.71317C8.91658 7.74821 8.92699 7.76857 8.94262 7.7842C10.3058 9.14831 11.6694 10.5119 13.0345 11.8746C13.0662 11.9064 13.1112 11.9442 13.1505 11.9447C13.4914 11.9504 13.8323 11.948 14.1955 11.948C14.1955 11.7525 14.1836 11.5806 14.1978 11.4111C14.2428 10.8576 14.6742 10.4386 15.2272 10.4329C16.203 10.4229 17.1794 10.4215 18.1557 10.4333C18.7305 10.4404 19.168 10.895 19.1846 11.4679C19.1879 11.6204 19.1841 11.7728 19.1841 11.949ZM20.7045 7.08439C20.7045 6.85143 20.7054 6.62795 20.7045 6.40446C20.7011 5.72927 20.2542 5.28041 19.5804 5.27851C19.0065 5.27709 18.4327 5.27804 17.8583 5.27804C16.5449 5.27804 15.231 5.27662 13.9175 5.27899C13.4175 5.27993 12.9781 5.57113 12.8801 6.03278C12.8077 6.37226 12.8261 6.73117 12.8039 7.08439C15.4616 7.08439 18.0742 7.08439 20.7045 7.08439ZM16.6931 13.1592C17.1486 13.1592 17.6046 13.1606 18.06 13.1587C18.3991 13.1573 18.5766 12.9826 18.579 12.6478C18.5814 12.2809 18.5814 11.9139 18.579 11.547C18.5766 11.2127 18.3991 11.0361 18.06 11.0351C17.1486 11.0332 16.2371 11.0332 15.3257 11.0351C14.9748 11.0356 14.8001 11.2075 14.7963 11.556C14.7925 11.9168 14.7925 12.278 14.7963 12.6388C14.8001 12.9883 14.9743 13.1578 15.3257 13.1587C15.7816 13.1606 16.2376 13.1592 16.6931 13.1592Z" fill="#39629C" stroke="#39629C" stroke-width="0.7"/>
<path d="M7.67334 22.1805C7.71406 21.9916 7.74342 21.7989 7.79834 21.6137C8.19228 20.2847 9.05023 19.3955 10.3892 19.0427C11.7302 18.6895 12.912 19.046 13.9077 20.0124C13.9456 20.0493 13.9773 20.0919 14.0261 20.1483C14.7756 19.3519 15.6804 18.9177 16.7647 18.9182C17.8447 18.9182 18.7472 19.3453 19.4664 20.1156C19.7548 19.8917 20.0166 19.6488 20.3144 19.4636C22.5512 18.0716 25.4816 19.4688 25.8239 22.083C25.8282 22.1166 25.8452 22.1483 25.8561 22.1805C25.8561 22.4054 25.8561 22.6303 25.8561 22.8552C19.7955 22.8552 13.7349 22.8552 7.67429 22.8552C7.67334 22.6303 7.67334 22.4054 7.67334 22.1805ZM14.3106 22.243C14.2207 20.8888 12.9749 19.4234 11.1312 19.528C9.64588 19.6123 8.1705 21.0531 8.3258 22.243C10.3163 22.243 12.3073 22.243 14.3106 22.243ZM14.9342 22.2368C16.5621 22.2368 18.1658 22.2368 19.786 22.2368C19.5933 21.0119 18.9579 20.1346 17.8035 19.7141C16.6127 19.2804 15.5365 19.5508 14.6151 20.4187C14.4001 20.6208 14.4049 20.6284 14.5384 20.8836C14.76 21.3069 14.8836 21.7591 14.9342 22.2368ZM20.3897 22.2416C22.0086 22.2416 23.6089 22.2416 25.2254 22.2416C25.2174 22.163 25.216 22.0929 25.2032 22.0252C24.9451 20.6365 23.8206 19.6185 22.4072 19.5299C21.4352 19.4693 20.6137 19.8225 19.957 20.5437C19.9181 20.5863 19.8945 20.6904 19.9196 20.7354C20.1781 21.2023 20.3334 21.6994 20.3897 22.2416Z" fill="#39629C" stroke="#39629C" stroke-width="0.7"/>
<path d="M22.2125 18.4574C21.1311 18.4541 20.249 17.5729 20.2476 16.4943C20.2461 15.4119 21.1458 14.5137 22.2248 14.5204C23.3138 14.527 24.1922 15.4162 24.1865 16.5066C24.1808 17.5857 23.2959 18.4607 22.2125 18.4574ZM22.2187 17.8518C22.9729 17.8523 23.5842 17.2401 23.5818 16.4868C23.5799 15.7434 22.9734 15.135 22.2272 15.1274C21.4815 15.1198 20.8565 15.7387 20.8531 16.4872C20.8503 17.2377 21.4644 17.8513 22.2187 17.8518Z" fill="#39629C" stroke="#39629C" stroke-width="0.7"/>
<path d="M11.3011 18.457C10.2107 18.4522 9.33427 17.5649 9.34185 16.474C9.34942 15.3969 10.2467 14.5095 11.3182 14.52C12.4072 14.5304 13.2912 15.4267 13.2803 16.5086C13.2694 17.5905 12.384 18.4617 11.3011 18.457ZM11.3111 17.8519C12.0649 17.8509 12.679 17.2354 12.6747 16.4854C12.6704 15.7363 12.045 15.1184 11.2992 15.1274C10.553 15.136 9.94743 15.7453 9.94601 16.4882C9.94507 17.2411 10.5573 17.8528 11.3111 17.8519Z" fill="#39629C" stroke="#39629C" stroke-width="0.7"/>
<path d="M18.7307 16.4839C18.7378 17.5672 17.8624 18.4507 16.7757 18.4569C15.6886 18.4631 14.8098 17.5966 14.798 16.5071C14.7861 15.42 15.673 14.5227 16.7615 14.5203C17.8425 14.518 18.7236 15.3972 18.7307 16.4839ZM18.1237 16.4971C18.1261 15.741 17.5196 15.1288 16.7658 15.1274C16.0134 15.1259 15.404 15.7381 15.405 16.4943C15.4059 17.2434 16.0068 17.848 16.7539 17.8518C17.5125 17.8556 18.1209 17.2538 18.1237 16.4971Z" fill="#39629C" stroke="#39629C" stroke-width="0.7"/>
</g>
<defs>
<clipPath id="clip0_476_1646">
<rect width="20" height="20" fill="white" transform="translate(7 4)"/>
</clipPath>
</defs>
</svg>
