<svg width="16" height="16" viewBox="0 0 16 16" fill="none" xmlns="http://www.w3.org/2000/svg">
<g clip-path="url(#clip0_417_6037)">
<path d="M13.2614 15.3334H2.07328C1.65435 15.3334 1.33398 15.0161 1.33398 14.6012V1.3988C1.33398 0.983936 1.65435 0.666687 2.07328 0.666687H8.2834C8.70234 0.666687 9.0227 0.983936 9.0227 1.3988V5.59625H13.2614C13.6803 5.59625 14.0007 5.9135 14.0007 6.32836V14.6012C14.0007 14.9917 13.6803 15.3334 13.2614 15.3334ZM2.81258 13.8691H12.5221V7.06048H8.2834C7.86446 7.06048 7.5441 6.74323 7.5441 6.32836V2.13091H2.81258V13.8691Z" fill="#39629C"/>
<path d="M13.2622 7.06048C13.065 7.06048 12.8925 6.98726 12.7447 6.84084L7.76671 1.91128C7.47099 1.61843 7.47099 1.15476 7.76671 0.886321C8.06243 0.593476 8.53065 0.593476 8.80173 0.886321L13.7797 5.79148C14.0754 6.08432 14.0754 6.548 13.7797 6.81644C13.6318 6.98726 13.4593 7.06048 13.2622 7.06048Z" fill="#39629C"/>
</g>
<defs>
<clipPath id="clip0_417_6037">
<rect width="12.6667" height="14.6667" fill="white" transform="translate(1.33398 0.666687)"/>
</clipPath>
</defs>
</svg>
