<svg width="25" height="26" viewBox="0 0 25 26" fill="none" xmlns="http://www.w3.org/2000/svg">
<g clip-path="url(#clip0_465_7592)">
<path d="M4.00757 21.8418C5.66284 21.8375 7.31627 21.8375 8.97026 21.8374C10.3147 21.8373 11.6595 21.8373 13.006 21.8349L13.0069 21.8349C13.1402 21.8344 13.2289 21.8628 13.3317 21.9382L13.3317 21.9382C14.4686 22.7725 15.6113 23.5973 16.7525 24.4209L16.7528 24.4211L16.7535 24.4216C16.7535 24.4216 16.7542 24.4221 16.7559 24.4234L16.7631 24.4293C16.7688 24.4341 16.774 24.4386 16.7819 24.4454C16.7845 24.4477 16.7874 24.4502 16.7906 24.453L16.7908 24.4531C16.8126 24.4719 16.8519 24.5059 16.8997 24.5375C17.0104 24.6108 17.1658 24.6709 17.3625 24.6412C17.5738 24.6094 17.7228 24.417 17.7007 24.2044C17.6972 24.1707 17.6937 24.1351 17.6902 24.0985C17.681 24.0043 17.6711 23.9026 17.6579 23.8057C17.5961 23.3395 17.5334 22.8733 17.4708 22.4074C17.4439 22.2071 17.417 22.0067 17.3901 21.8065C18.2275 21.6935 18.934 21.341 19.4404 20.7818C19.9813 20.1845 20.2665 19.382 20.2674 18.4644C20.2688 17.0218 20.2687 15.5778 20.2686 14.1342C20.2685 12.9321 20.2684 11.7303 20.2691 10.5295V10.5293C20.2691 10.2171 20.2434 9.89264 20.1591 9.5672L20.159 9.56708C19.7679 8.05968 18.5207 7.14911 16.9022 7.14719L16.902 7.14719C14.418 7.145 11.9342 7.14525 9.45043 7.1455C8.03122 7.14564 6.61204 7.14578 5.19292 7.14547H5.19283C5.08815 7.14547 4.98752 7.14211 4.87964 7.1385C4.82864 7.1368 4.77601 7.13504 4.72057 7.13356C4.70274 7.13308 4.68491 7.1338 4.66719 7.1357C4.48227 7.15555 4.29597 7.1527 4.08092 7.14942C4.05116 7.14896 4.02085 7.1485 3.98991 7.14809C3.74687 7.14485 3.46991 7.14515 3.1882 7.19794L3.18787 7.198C1.65191 7.48716 0.567487 8.77363 0.561598 10.3479L0.561598 10.3479C0.557753 11.4308 0.55928 12.5103 0.560804 13.5886C0.563047 15.1748 0.565286 16.7584 0.550422 18.3458C0.544355 18.9917 0.660085 19.5843 0.930501 20.1096C1.20188 20.6368 1.61759 21.0739 2.17681 21.4237C2.18553 21.4291 2.19446 21.4342 2.20358 21.439C2.78326 21.7421 3.39141 21.8437 4.00757 21.8418ZM4.00757 21.8418L4.00653 21.4418M4.00757 21.8418C4.00762 21.8418 4.00768 21.8418 4.00774 21.8418L4.00653 21.4418M4.00653 21.4418C3.43577 21.4435 2.896 21.3497 2.38894 21.0846L17.3183 23.8516C17.3257 23.858 17.3308 23.8622 17.335 23.8656C17.3382 23.8681 17.34 23.8695 17.3407 23.87C17.3412 23.8703 17.3412 23.8704 17.341 23.8702C17.3393 23.8691 17.3258 23.8605 17.303 23.8545C17.3024 23.8543 17.3017 23.8541 17.301 23.8539L17.2615 23.8592L17.3007 23.8538C17.2856 23.8501 17.2717 23.8488 17.2602 23.8489C17.2606 23.8523 17.2611 23.8558 17.2615 23.8592C17.2736 23.9482 17.2823 24.0376 17.2912 24.129C17.295 24.1675 17.2988 24.2064 17.3028 24.2457C17.2936 24.2471 17.2846 24.248 17.2758 24.2485L16.905 24.287C16.9026 24.264 16.9004 24.2417 16.8982 24.2202C16.8982 24.22 16.8982 24.2199 16.8982 24.2197C16.8961 24.199 16.8942 24.1789 16.8923 24.1593C16.8875 24.11 16.883 24.0637 16.878 24.0182C15.7728 23.2205 14.6677 22.4225 13.5683 21.6157C13.3936 21.4874 13.2205 21.4341 13.0053 21.4349C11.6608 21.4373 10.3161 21.4373 8.97132 21.4374C7.31632 21.4375 5.6613 21.4375 4.00653 21.4418ZM17.1789 21.428C16.9421 21.4504 16.9533 21.5598 16.9749 21.719L17.2161 21.8216M17.1789 21.428L17.2032 21.6882L17.2032 21.6884L17.2157 21.8218C17.2034 21.8273 17.1958 21.8291 17.1957 21.8291C17.1956 21.8292 17.2017 21.8277 17.2161 21.8263C17.2163 21.8263 17.2164 21.8263 17.2165 21.8263L17.2161 21.8216M17.1789 21.428C18.8361 21.2731 19.8657 20.1316 19.8674 18.464C19.8688 17.0213 19.8687 15.5783 19.8686 14.1354C19.8685 12.9333 19.8684 11.7312 19.8691 10.5293L17.2161 21.8216M17.1789 21.428L17.2035 21.6881L17.2035 21.6884L17.2161 21.8216M16.3395 13.4899C16.4272 13.4834 16.5251 13.4962 16.6224 13.5089C16.8249 13.5354 17.0249 13.5615 17.1255 13.4132C17.2736 13.1946 17.085 12.8786 16.9155 12.6488C16.8457 12.5549 16.7588 12.4706 16.6675 12.3974M16.3395 13.4899L15.4167 16.9368C15.0026 16.9497 14.5816 16.8447 14.1985 16.6002C13.8499 16.3781 13.6553 16.0613 13.6123 15.6481C13.5942 15.4759 13.6372 15.3778 13.8326 15.3941C13.9394 15.4027 14.0479 15.4036 14.1546 15.3933C14.3948 15.37 14.5463 15.4105 14.5954 15.7049C14.6505 16.0346 14.9415 16.1612 15.241 16.1999C15.5742 16.243 15.9203 16.2541 16.1536 15.9408M16.3395 13.4899C16.232 13.4979 16.2179 13.402 16.2058 13.3204C16.2051 13.3151 16.2043 13.3099 16.2035 13.3048L16.3395 13.4899ZM16.6675 12.3974C16.015 11.8783 14.8106 11.8921 14.1632 12.4215C13.5339 12.9363 13.5589 13.8549 14.2192 14.3344C14.517 14.5513 14.8579 14.683 15.2049 14.8018C15.2495 14.8171 15.2943 14.8319 15.3391 14.8467C15.5495 14.916 15.7598 14.9852 15.9478 15.1066C16.2569 15.3063 16.3533 15.6731 16.1536 15.9408M16.6675 12.3974L16.4173 12.7095C16.4175 12.7096 16.4177 12.7098 16.4178 12.7099M16.6675 12.3974L16.4185 12.7104C16.4183 12.7103 16.4181 12.7101 16.4178 12.7099M16.1536 15.9408L16.4742 16.18C16.8432 15.6853 16.6221 15.0661 16.1649 14.7706L16.1647 14.7705C15.9289 14.6184 15.6592 14.5301 15.4491 14.4615C15.4084 14.4481 15.37 14.4356 15.3345 14.4234C14.9919 14.3061 14.7005 14.1901 14.4547 14.011L14.4542 14.0107C14.0063 13.6854 13.99 13.08 14.4164 12.7311C14.4779 12.6809 14.5483 12.6357 14.6257 12.5963C14.3898 12.7864 14.2542 13.0596 14.261 13.3511C14.268 13.6494 14.4233 13.9217 14.6802 14.1005L14.6803 14.1006C14.9729 14.3041 15.3076 14.4112 15.5754 14.4969C15.6084 14.5075 15.6404 14.5177 15.6712 14.5278L15.6714 14.5279C15.9685 14.6248 16.2295 14.7411 16.4529 14.9054L16.4529 14.9054C16.9682 15.2844 16.9295 16.0169 16.3717 16.3414L16.3716 16.3415C16.3358 16.3623 16.2987 16.3816 16.2596 16.3993C16.3355 16.3412 16.4079 16.269 16.4744 16.1797L16.1536 15.9408ZM10.6453 15.9104C10.57 15.9754 10.4714 16.0115 10.3677 16.0073C10.2936 16.0043 10.2237 15.9809 10.1643 15.9419C10.2262 16.1183 10.2872 16.295 10.3467 16.472L10.6453 15.9104ZM10.6453 15.9104C10.5799 16.0967 10.5152 16.2834 10.4518 16.4705C10.4508 16.4706 10.4497 16.4706 10.4486 16.4707C10.4319 16.4715 10.4125 16.472 10.3886 16.4723L10.6453 15.9104ZM16.4178 12.7099C16.4897 12.7676 16.5499 12.8276 16.594 12.8869C16.6567 12.9718 16.7082 13.0516 16.7417 13.1209C16.7246 13.1189 16.7066 13.1165 16.6868 13.1139C16.6626 13.1107 16.6355 13.1072 16.6035 13.1033C16.5916 13.1019 16.5792 13.1004 16.5662 13.099C16.4885 12.8417 16.3215 12.6621 16.129 12.5441C16.2382 12.589 16.3358 12.6448 16.4178 12.7099ZM6.26264 16.4028C6.33744 16.3469 6.40904 16.2777 6.47539 16.1923L6.1596 15.9468C6.36191 15.6877 6.26721 15.3072 5.96246 15.11M6.26264 16.4028L6.47489 16.193C6.85393 15.7075 6.63494 15.0687 6.17981 14.7742L5.96246 15.11M6.26264 16.4028C6.28796 16.3916 6.313 16.3797 6.33776 16.367C6.93883 16.0565 6.995 15.2885 6.4455 14.8935C6.22605 14.7363 5.9732 14.6237 5.68788 14.5305L6.26264 16.4028ZM5.96246 15.11L6.17972 14.7742M5.96246 15.11C5.77083 14.986 5.5555 14.9155 5.34069 14.8453L6.17972 14.7742M6.17972 14.7742C5.93956 14.6188 5.66166 14.5285 5.44594 14.4585C5.40065 14.4438 5.3581 14.4299 5.31921 14.4166L5.31843 14.4163C5.02313 14.3157 4.75999 14.2085 4.52909 14.0594L4.52894 14.0593M6.17972 14.7742L4.52894 14.0593M4.52894 14.0593C4.23529 13.87 4.10781 13.5977 4.10856 13.3478C4.10931 13.1001 4.23587 12.8385 4.53075 12.6626L4.52894 14.0593ZM4.69858 14.1054C4.9923 14.3076 5.32707 14.4148 5.59699 14.5012C5.62809 14.5112 5.65833 14.5208 5.68754 14.5304L4.69858 14.1054ZM4.69858 14.1054C4.17528 13.746 4.13258 13.0273 4.60754 12.6189L4.69858 14.1054ZM9.2423 13.5249C9.17866 13.4506 9.08889 13.401 8.98899 13.3883C8.8469 13.3703 8.706 13.4295 8.61956 13.5438C8.51714 13.6791 8.47981 13.8165 8.47207 13.9388C8.46864 13.993 8.47128 14.0409 8.47302 14.07C8.47348 14.0776 8.47386 14.0839 8.47419 14.0892C8.47541 14.1092 8.47575 14.1147 8.47569 14.121L8.47568 14.1226C8.47536 14.1992 8.47501 14.2759 8.47467 14.3526C8.47151 15.0573 8.46834 15.7666 8.47734 16.4755C8.41403 16.4741 8.364 16.4728 8.32302 16.4708C8.32119 16.4131 8.32096 16.3365 8.32096 16.23C8.32096 15.9024 8.32137 15.5743 8.32177 15.2459C8.3229 14.3304 8.32403 13.4126 8.31641 12.4955C8.51353 12.4964 8.64343 12.4978 8.74267 12.5077C8.82974 12.5164 8.85698 12.5291 8.86156 12.5317C8.86563 12.5352 8.88667 12.557 8.92343 12.6364C8.97076 12.7386 9.02124 12.8832 9.10094 13.1147L9.10097 13.1148C9.14802 13.2514 9.1951 13.388 9.2423 13.5249ZM8.20605 16.4589C8.20609 16.4589 8.20701 16.4591 8.20869 16.4596C8.20685 16.4592 8.20602 16.4589 8.20605 16.4589ZM8.33249 16.5847C8.333 16.5865 8.33321 16.5874 8.33318 16.5874C8.33315 16.5875 8.3329 16.5866 8.33249 16.5847ZM12.4907 14.9951C12.4907 15.4852 12.4906 15.9752 12.4902 16.4645C12.4356 16.466 12.3825 16.4668 12.3305 16.4664C12.3276 15.8488 12.3279 15.2309 12.3282 14.6118C12.3283 14.4253 12.3284 14.2387 12.3284 14.052V14.0514V14.0508V14.0502V14.0496V14.0489V14.0483V14.0477V14.0471V14.0465V14.0459V14.0452V14.0446V14.044V14.0434V14.0428V14.0422V14.0415V14.0409V14.0403V14.0397V14.0391V14.0385V14.0379V14.0372V14.0366V14.036V14.0354V14.0348V14.0342V14.0335V14.0329V14.0323V14.0317V14.0311V14.0305V14.0299V14.0292V14.0286V14.028V14.0274V14.0268V14.0262V14.0255V14.0249V14.0243V14.0237V14.0231V14.0225V14.0218V14.0212V14.0206V14.02V14.0194V14.0188V14.0181V14.0175V14.0169V14.0163V14.0157V14.0151V14.0144V14.0138V14.0132V14.0126V14.012V14.0114V14.0107V14.0101V14.0095V14.0089V14.0083V14.0077V14.007V14.0064V14.0058V14.0052V14.0046V14.0039V14.0033V14.0027V14.0021V14.0015V14.0009V14.0002V13.9996V13.999V13.9984V13.9978V13.9971V13.9965V13.9959V13.9953V13.9947V13.994V13.9934V13.9928V13.9922V13.9916V13.991V13.9903V13.9897V13.9891V13.9885V13.9879V13.9872V13.9866V13.986V13.9854V13.9848V13.9841V13.9835V13.9829V13.9823V13.9816V13.981V13.9804V13.9798V13.9792V13.9785V13.9779V13.9773V13.9767V13.9761V13.9754V13.9748V13.9742V13.9736V13.9729V13.9723V13.9717V13.9711V13.9705V13.9698V13.9692V13.9686V13.968V13.9673V13.9667V13.9661V13.9655V13.9648V13.9642V13.9636V13.963V13.9623V13.9617V13.9611V13.9605V13.9599V13.9592V13.9586V13.958V13.9574V13.9567V13.9561V13.9555V13.9548V13.9542V13.9536V13.953V13.9523V13.9517V13.9511V13.9505V13.9498V13.9492V13.9486V13.948V13.9473V13.9467V13.9461V13.9454V13.9448V13.9442V13.9436V13.9429V13.9423V13.9417V13.941V13.9404V13.9398V13.9392V13.9385V13.9379V13.9373V13.9366V13.936V13.9354V13.9347V13.9341V13.9335V13.9329V13.9322V13.9316V13.931V13.9303V13.9297V13.9291V13.9284V13.9278V13.9272V13.9265V13.9259V13.9253V13.9246V13.924V13.9234V13.9227V13.9221V13.9215V13.9208V13.9202V13.9196V13.9189V13.9183V13.9177V13.917V13.9164V13.9158V13.9151V13.9145V13.9139V13.9132V13.9126V13.9119V13.9113V13.9107V13.91V13.9094V13.9088V13.9081V13.9075V13.9068V13.9062V13.9056V13.9049V13.9043V13.9036V13.903V13.9024V13.9017V13.9011V13.9004V13.8998V13.8992V13.8985V13.8979V13.8972V13.8966V13.896V13.8953V13.8947V13.894V13.8934V13.8927V13.8921V13.8915V13.8908V13.8902V13.8895V13.8889V13.8882V13.8876V13.887V13.8863V13.8857V13.885V13.8844V13.8837V13.8831V13.8824V13.8818V13.8811V13.8805V13.8798V13.8792V13.8785V13.8779V13.8773V13.8766V13.876V13.8753V13.8747V13.874V13.8734V13.8727V13.8721V13.8714V13.8708V13.8701V13.8695V13.8688V13.8682V13.8675V13.8668V13.8662V13.8655V13.8649V13.8642V13.8636V13.8629V13.8623V13.8616V13.861V13.8603V13.8597V13.859V13.8583V13.8577V13.857V13.8564V13.8557V13.8551V13.8544V13.8538V13.8531V13.8524V13.8518V13.8511V13.8505V13.8498V13.8491V13.8485V13.8478V13.8472V13.8465V13.8458V13.8452V13.8445V13.8439V13.8432V13.8425V13.8419V13.8412V13.8405V13.8399V13.8392V13.8386V13.8379V13.8372V13.8366V13.8359V13.8352V13.8346V13.8339V13.8332V13.8326V13.8319V13.8312V13.8306V13.8299V13.8292V13.8286V13.8279V13.8272V13.8266V13.8259V13.8252V13.8246V13.8239V13.8232V13.8225V13.8219V13.8212V13.8205V13.8199V13.8192V13.8185V13.8178V13.8172V13.8165V13.8158V13.8151V13.8145V13.8138V13.8131V13.8124V13.8118V13.8111V13.8104V13.8097V13.8091V13.8084V13.8077V13.807V13.8064V13.8057V13.805V13.8043V13.8036V13.803V13.8023V13.8016V13.8009V13.8002V13.7996V13.7989V13.7982V13.7975V13.7968V13.7961V13.7955V13.7948V13.7941V13.7934V13.7927V13.792V13.7913V13.7907V13.79V13.7893V13.7886V13.7879V13.7872V13.7865V13.7858V13.7852V13.7845V13.7838V13.7831V13.7824V13.7817V13.781V13.7803V13.7796V13.7789V13.7783V13.7776V13.7769V13.7762V13.7755V13.7748V13.7741V13.7734V13.7727V13.772V13.7713V13.7706V13.7699V13.7692V13.7685V13.7678V13.7671V13.7664V13.7657V13.765V13.7643V13.7636V13.7629V13.7622V13.7615V13.7608V13.7601V13.7594V13.7587V13.758V13.7573V13.7566V13.7559V13.7552V13.7545V13.7538V13.7531V13.7524V13.7517V13.751V13.7503V13.7495V13.7488V13.7481V13.7474V13.7467V13.746V13.7453V13.7446V13.7439V13.7432V13.7424V13.7417V13.741V13.7403V13.7396V13.7389V13.7382V13.7374V13.7367V13.736V13.7353V13.7346V13.7339V13.7332V13.7324V13.7317V13.731V13.7303V13.7296V13.7288V13.7281V13.7274V13.7267V13.726V13.7252V13.7245V13.7238V13.7231V13.7223V13.7216V13.7209V13.7202V13.7194V13.7187V13.718C12.3284 13.5733 12.2502 13.4399 12.124 13.3691C11.9978 13.2983 11.8432 13.3012 11.7197 13.3767C11.6607 13.4128 11.6123 13.4536 11.5722 13.4965C11.6876 13.1646 11.8024 12.8323 11.916 12.4996C12.1122 12.5102 12.3075 12.5082 12.4929 12.5039C12.4908 13.3339 12.4907 14.1648 12.4907 14.9951ZM12.3309 16.5631L12.2537 16.5638L12.2547 16.565C12.2611 16.5728 12.267 16.5809 12.2725 16.5891C12.319 16.6592 12.3198 16.7202 12.3198 16.7211C12.3199 16.7221 12.3199 16.7228 12.3199 16.7228C12.32 16.7228 12.3202 16.7151 12.3228 16.6905C12.323 16.6886 12.3232 16.6862 12.3235 16.6836C12.326 16.6605 12.3313 16.6101 12.3309 16.5631ZM12.8934 12.3156C12.8943 12.1391 12.8142 12.0952 12.6575 12.0995L12.8934 12.3156ZM14.2043 15.7904C14.2477 16.0242 14.3581 16.1924 14.4966 16.3129C14.4688 16.2972 14.4411 16.2805 14.4137 16.263L14.4134 16.2629C14.2264 16.1437 14.1075 15.9946 14.0482 15.8001C14.0961 15.7989 14.1445 15.7961 14.1931 15.7914C14.197 15.791 14.2007 15.7907 14.2043 15.7904ZM4.21112 15.7932C4.25627 16.0266 4.36882 16.1949 4.50963 16.3157C4.47776 16.2981 4.44617 16.2793 4.41486 16.2596L4.41475 16.2595C4.23488 16.1458 4.11918 15.9977 4.05735 15.8015C4.10753 15.8006 4.1591 15.7982 4.21112 15.7932ZM6.72366 13.0968C6.67506 13.0969 6.62602 13.0966 6.57645 13.096C6.5046 12.8631 6.35952 12.694 6.18873 12.5769C6.24055 12.6006 6.29245 12.6267 6.34443 12.6552C6.53528 12.7598 6.66252 12.9053 6.72366 13.0968ZM16.779 13.227C16.7792 13.2297 16.7791 13.2308 16.779 13.2308C16.7789 13.2307 16.7788 13.2294 16.779 13.227ZM6.77068 13.376C6.77065 13.376 6.77058 13.3751 6.77054 13.3735L6.77068 13.376Z" fill="#4AA9C6" stroke="white" stroke-width="0.8" stroke-linejoin="round"/>
<path d="M23.4259 2.55686C23.4316 2.5659 23.437 2.57516 23.4421 2.58462C23.756 3.17602 23.8531 3.79675 23.8503 4.42234C23.8503 4.42241 23.8503 4.42248 23.8503 4.42255L23.4503 4.42077C23.4444 5.94141 23.445 7.46204 23.4456 8.98267C23.4461 10.1067 23.4465 11.2307 23.4443 12.3547L23.4259 2.55686ZM23.4259 2.55686C22.69 1.40477 21.6156 0.93779 20.3028 0.950887C18.3274 0.968595 16.3531 0.965057 14.3761 0.961515C13.5682 0.960067 12.7598 0.958619 11.9507 0.958619C11.4948 0.958619 11.0379 0.957552 10.5804 0.956485C9.49951 0.953962 8.41539 0.951432 7.33318 0.962943L23.4259 2.55686ZM20.3119 10.0639C20.3164 11.1072 20.3154 12.1499 20.3144 13.194C20.3138 13.7514 20.3133 14.3093 20.3136 14.8678V14.874C20.3136 14.9657 20.3136 15.0682 20.3243 15.1532C20.334 15.2309 20.3636 15.4076 20.5215 15.5318C20.6748 15.6524 20.8501 15.6442 20.9252 15.6384C21.0102 15.6318 21.1112 15.612 21.2045 15.5938L21.2112 15.5925L20.3119 10.0639ZM20.3119 10.0639C20.3049 8.56928 19.3993 7.4398 18.0181 7.14769M20.3119 10.0639L18.0181 7.14769M18.0181 7.14769C17.8258 7.10725 17.6156 7.09264 17.3966 7.09264H17.3963C13.9112 7.08977 10.4261 7.08989 6.94088 7.09001C6.24397 7.09003 5.54705 7.09006 4.85012 7.09006C4.82285 7.09006 4.80634 7.09165 4.77948 7.09424C4.75792 7.09631 4.7297 7.09903 4.68389 7.10209C4.60526 7.10733 4.52683 7.08922 4.45844 7.05005C4.36017 6.99374 4.27229 6.91161 4.21369 6.79918C4.15667 6.68978 4.14114 6.57814 4.14285 6.48235L18.0181 7.14769ZM4.13842 5.61802C4.12918 5.03511 4.11947 4.42274 4.17929 3.83785L4.13842 5.61802ZM4.13842 5.61802C4.14315 5.91636 4.14775 6.20699 4.14285 6.48227L4.13842 5.61802ZM7.33296 0.962946C5.67942 0.979734 4.34641 2.19358 4.1793 3.83772L7.33296 0.962946Z" fill="#4AA9C6" stroke="white" stroke-width="0.8" stroke-linejoin="round"/>
<path d="M8.9384 13.7851C8.84198 13.9125 8.87642 14.0219 8.87642 14.1235C8.87298 14.9292 8.86781 15.7359 8.879 16.5417C8.88245 16.7801 8.83338 16.8826 8.56306 16.8766C7.9217 16.8628 7.9217 16.8774 7.9217 16.2292C7.9217 14.9611 7.92773 13.693 7.91654 12.4249C7.91481 12.1762 7.98024 12.0935 8.23937 12.0944C9.17256 12.0978 9.1717 12.0883 9.4799 12.9837C9.7726 13.8333 10.0662 14.683 10.3847 15.6068C10.4492 15.4596 10.4889 15.3821 10.5181 15.2994C10.8625 14.3172 11.2085 13.3349 11.5452 12.3492C11.6054 12.1727 11.6838 12.0823 11.8852 12.0961C12.1417 12.1133 12.4009 12.1056 12.6583 12.0987C12.815 12.0944 12.895 12.1383 12.8942 12.3148C12.8898 13.7653 12.8924 15.2168 12.8907 16.6674C12.8907 16.7388 12.9071 16.8464 12.8081 16.8507C12.5412 16.8637 12.27 16.8783 12.0057 16.8464C11.8766 16.8309 11.9317 16.6648 11.9317 16.5658C11.9274 15.7273 11.9291 14.8888 11.9291 14.0512C11.9291 13.9461 11.9291 13.8411 11.9291 13.7171C11.7939 13.7998 11.7914 13.9289 11.7535 14.0322C11.4393 14.8888 11.1207 15.7436 10.828 16.608C10.7454 16.8507 10.6033 16.8697 10.3942 16.8714C10.1798 16.874 10.0489 16.8387 9.96888 16.6002C9.69167 15.7764 9.3852 14.962 9.0882 14.145C9.04601 14.0305 8.99436 13.9194 8.9384 13.7851Z" fill="#C32222"/>
<path d="M15.4164 16.9368C15.0024 16.9489 14.5805 16.8438 14.1974 16.6011C13.8488 16.3798 13.6542 16.0622 13.6112 15.6489C13.5931 15.4768 13.6361 15.3786 13.8316 15.395C13.9383 15.4036 14.0476 15.4045 14.1535 15.3941C14.3937 15.37 14.5452 15.4105 14.5943 15.7058C14.6494 16.0346 14.9404 16.162 15.24 16.2008C15.5731 16.2438 15.9192 16.255 16.1525 15.9416C16.3514 15.6739 16.2549 15.3072 15.9467 15.1074C15.7186 14.9602 15.4569 14.8896 15.2038 14.8027C14.8569 14.6839 14.516 14.553 14.2181 14.3352C13.5578 13.8549 13.5337 12.9372 14.1621 12.4224C14.8095 11.8929 16.0139 11.8791 16.6664 12.3983C16.7577 12.4714 16.8455 12.5558 16.9144 12.6496C17.0848 12.8803 17.2725 13.1954 17.1244 13.4141C16.9755 13.6336 16.6088 13.4709 16.3384 13.4907C16.224 13.4993 16.2162 13.39 16.2024 13.3056C16.1086 12.6944 15.2227 12.6376 14.8853 12.901C14.5779 13.1403 14.5857 13.5484 14.9077 13.7731C15.1763 13.9599 15.4888 14.0486 15.7944 14.1484C16.1129 14.2526 16.4177 14.3843 16.6888 14.584C17.4378 15.135 17.3767 16.2197 16.5717 16.688C16.2747 16.8611 15.9304 16.9385 15.4164 16.9368Z" fill="#C32222"/>
<path d="M5.45807 16.936C5.00524 16.9497 4.58513 16.8413 4.20118 16.5985C3.83875 16.3695 3.65624 16.0329 3.6132 15.6119C3.5977 15.4647 3.64333 15.3872 3.80431 15.3958C3.93258 15.4027 4.06344 15.407 4.19085 15.3941C4.42759 15.3692 4.555 15.4243 4.60063 15.6997C4.65486 16.0269 4.94154 16.1586 5.24284 16.1999C5.57687 16.2455 5.92122 16.2533 6.15968 15.9477C6.36199 15.6877 6.26815 15.308 5.96254 15.1109C5.7258 14.9577 5.4529 14.8862 5.18947 14.7958C4.88386 14.6908 4.58427 14.572 4.31223 14.3964C3.50731 13.8764 3.503 12.8106 4.32601 12.3199C5.04656 11.8903 5.80328 11.9041 6.53675 12.3053C6.90435 12.5067 7.12559 12.8347 7.16089 13.2652C7.16778 13.353 7.20479 13.483 7.05672 13.4899C6.82084 13.5019 6.5841 13.4967 6.34822 13.4933C6.22683 13.4916 6.22769 13.3814 6.21478 13.303C6.11664 12.697 5.23596 12.6367 4.89333 12.9027C4.59374 13.1352 4.60665 13.5587 4.92518 13.7765C5.19464 13.9608 5.50627 14.0512 5.81189 14.151C6.12008 14.2517 6.41537 14.38 6.6788 14.5694C7.47167 15.1384 7.38816 16.2757 6.52125 16.7233C6.18809 16.8946 5.82911 16.9489 5.45807 16.936Z" fill="#C32222"/>
</g>
<defs>
<clipPath id="clip0_465_7592">
<rect width="25" height="26" fill="white"/>
</clipPath>
</defs>
</svg>
