<svg width="47" height="49" viewBox="0 0 47 49" fill="none" xmlns="http://www.w3.org/2000/svg">
<g clip-path="url(#clip0_2052_15334)">
<path d="M26.3016 3C27.2782 3.23111 27.9585 3.8877 28.6495 4.56326C31.8447 7.68978 35.0578 10.7985 38.2708 13.9061C38.995 14.6065 39.3316 15.4492 39.3268 16.4483C39.3197 17.9286 39.3363 19.4089 39.3173 20.8892C39.3126 21.2293 39.4157 21.3218 39.744 21.3052C40.7573 21.2542 41.7553 21.3313 42.6904 21.7804C44.1055 22.4596 45.0607 23.5179 45.4056 25.0776C45.4187 25.1381 45.4293 25.1914 45.4945 25.2127C45.4945 27.7597 45.4945 30.3067 45.4945 32.8548C45.3582 32.9117 45.3772 33.0539 45.3487 33.157C44.9612 34.5401 44.0782 35.5001 42.8172 36.139C41.952 36.5775 41.0252 36.7079 40.0652 36.6865C39.3256 36.6699 39.3256 36.683 39.3256 37.4391C39.3256 39.1256 39.3363 40.811 39.3233 42.4975C39.3007 45.4332 37.4222 47.7443 34.5695 48.3796C34.4498 48.4068 34.2945 48.344 34.2116 48.4933C26.5398 48.4933 18.8693 48.4933 11.1976 48.4933C11.1668 48.4068 11.0898 48.4068 11.0187 48.3938C8.51318 47.9363 6.04207 45.7271 6.16296 42.1443C6.21866 40.4898 6.16177 38.8305 6.18074 37.1748C6.18548 36.8027 6.11437 36.6284 5.69955 36.6747C5.36414 36.7114 5.01925 36.6853 4.68029 36.6723C2.72474 36.5917 0.910217 35.2844 0.248884 33.4984C0.169476 33.2839 0.186069 33.0302 0.00236511 32.856C0.00236511 30.309 0.00236511 27.7621 0.00236511 25.2139C0.0829577 25.176 0.0794022 25.099 0.0959947 25.0279C0.334217 23.9979 0.869921 23.1541 1.68414 22.4833C2.84444 21.5268 4.20029 21.2199 5.664 21.3064C6.06577 21.3301 6.18311 21.2151 6.18192 20.8015C6.16533 16.8975 6.16651 12.9923 6.17481 9.0883C6.17718 6.12296 7.96918 3.85452 10.8433 3.13748C10.9618 3.10785 11.1194 3.14815 11.1953 3C16.2311 3 21.2658 3 26.3016 3ZM22.7473 36.1484C28.5381 36.1484 34.3277 36.1484 40.1185 36.1496C40.5333 36.1496 40.9446 36.1354 41.3559 36.0619C43.373 35.6981 44.8569 34.0874 44.8877 32.1354C44.9209 30.0329 44.8972 27.9304 44.8924 25.8267C44.8901 24.9484 44.5831 24.1733 44.0308 23.5013C43.059 22.3197 41.7766 21.835 40.2738 21.8361C28.589 21.8385 16.9055 21.8373 5.22074 21.8373C5.088 21.8373 4.95407 21.8373 4.82133 21.8421C2.48059 21.9203 0.631698 23.685 0.603254 25.9167C0.57718 27.9742 0.598513 30.0341 0.597328 32.0916C0.597328 32.8062 0.777476 33.4723 1.1674 34.0684C2.11555 35.5191 3.50103 36.1473 5.1994 36.1484C11.0483 36.1496 16.8972 36.1473 22.7473 36.1484ZM22.7307 21.3004C27.9573 21.3004 33.1828 21.2993 38.4095 21.3028C38.6596 21.3028 38.8551 21.3313 38.8504 20.9556C38.829 19.3567 38.8302 17.7579 38.8468 16.1591C38.8504 15.7834 38.7188 15.6981 38.3609 15.6993C35.4596 15.7135 32.557 15.7076 29.6557 15.7076C27.9087 15.7076 26.925 14.7298 26.9238 12.9959C26.9227 10.1834 26.9238 7.36978 26.9238 4.55733C26.9238 3.60563 26.8587 3.5357 25.8998 3.45867C25.811 3.45156 25.7221 3.45274 25.6332 3.45274C21.1473 3.45274 16.6613 3.44444 12.1754 3.45511C9.06429 3.46222 6.65955 5.87526 6.65481 8.97452C6.64888 12.9271 6.66074 16.8797 6.64177 20.8335C6.6394 21.2483 6.77096 21.3087 7.14074 21.3076C12.3378 21.2969 17.5336 21.3004 22.7307 21.3004ZM22.7461 36.683C17.5348 36.683 12.3236 36.6865 7.11229 36.6747C6.74844 36.6735 6.6394 36.7612 6.64296 37.1345C6.66311 38.9407 6.6477 40.747 6.65244 42.5532C6.66074 45.592 9.01688 48.0228 12.064 48.0335C19.1846 48.0607 26.3052 48.0607 33.427 48.0335C36.4741 48.0216 38.8279 45.5932 38.8385 42.552C38.8444 40.7612 38.8255 38.9692 38.8504 37.1784C38.8563 36.7624 38.7307 36.6735 38.3348 36.6747C33.139 36.6877 27.9431 36.683 22.7461 36.683ZM27.4572 9.1997C27.4572 10.5319 27.4513 11.864 27.4584 13.1973C27.4655 14.3446 28.2702 15.1659 29.4127 15.1695C32.0628 15.179 34.7129 15.1719 37.363 15.1742C37.5976 15.1742 37.8181 15.1529 37.9176 14.904C38.0184 14.6504 37.8536 14.4892 37.6913 14.328C37.2717 13.9108 36.8557 13.4877 36.4385 13.0681C33.7873 10.4015 31.1372 7.73363 28.4812 5.07289C28.2619 4.85363 28.0581 4.47674 27.6859 4.63437C27.3067 4.79556 27.4667 5.208 27.4631 5.51378C27.4489 6.74163 27.4572 7.97067 27.4572 9.1997Z" fill="#107C42"/>
<path d="M22.7816 27.7597C23.04 26.9775 23.3185 26.2012 23.5496 25.4106C23.6539 25.0563 23.808 24.8844 24.1932 24.9401C24.4077 24.9709 24.6293 24.946 24.8972 24.946C24.5025 26.1135 24.1339 27.2335 23.7404 28.3452C23.616 28.6972 23.603 29.0148 23.7321 29.3715C24.1197 30.4418 24.4622 31.5274 24.8557 32.5952C25.0015 32.9899 24.9043 33.0527 24.5203 33.042C23.6456 33.0183 23.6468 33.0361 23.3707 32.1875C23.1289 31.4432 22.8847 30.7001 22.6098 29.8563C22.2886 30.8246 21.9994 31.704 21.7031 32.5798C21.6498 32.7386 21.6687 32.9875 21.4673 33.0136C21.1473 33.0539 20.8119 33.0575 20.4966 33.0018C20.3307 32.9721 20.4575 32.7766 20.4954 32.6652C20.8735 31.5452 21.2492 30.424 21.6462 29.3099C21.7517 29.0148 21.7588 28.7552 21.6521 28.4578C21.2812 27.4136 20.9446 26.3564 20.5748 25.3123C20.4658 25.0053 20.5404 24.9389 20.851 24.9389C21.7695 24.9378 21.7695 24.9271 22.048 25.7899C22.2613 26.45 22.4747 27.109 22.688 27.768C22.7176 27.7656 22.7496 27.7632 22.7816 27.7597Z" fill="#107C42"/>
<path d="M16.3959 28.9436C16.3959 27.7454 16.4089 26.5472 16.3876 25.349C16.3816 25.0065 16.4895 24.9294 16.813 24.9377C17.715 24.9602 18.6181 24.9579 19.52 24.9377C19.8222 24.9306 19.8898 25.0361 19.8886 25.317C19.8862 26.1016 19.8981 26.1016 19.1336 26.1016C18.7342 26.1016 18.3348 26.1087 17.9354 26.0992C17.7458 26.0945 17.6735 26.1561 17.677 26.3516C17.6865 26.9288 17.6889 27.506 17.6759 28.082C17.6711 28.3143 17.7849 28.3487 17.9757 28.3439C18.3455 28.3356 18.7153 28.3511 19.085 28.3392C19.3185 28.3309 19.4276 28.3913 19.4394 28.6556C19.4785 29.5196 19.4892 29.5185 18.6181 29.5185C17.6806 29.5185 17.6806 29.5185 17.6806 30.4737C17.6806 30.8435 17.6936 31.2145 17.6759 31.5831C17.664 31.8248 17.7588 31.8841 17.984 31.8793C18.5162 31.8663 19.0495 31.8841 19.5816 31.8711C19.8116 31.8651 19.8815 31.9433 19.8898 32.1745C19.9218 33.0325 19.9313 33.0325 19.0744 33.0325C18.3052 33.0325 17.536 33.0195 16.7668 33.0396C16.4764 33.0468 16.3876 32.9638 16.3911 32.6711C16.4042 31.429 16.397 30.1869 16.3959 28.9436Z" fill="#107C42"/>
<path d="M27.3529 24.946C27.8412 24.946 28.3295 24.9543 28.8166 24.9425C29.0276 24.9377 29.0892 25.01 29.1022 25.2198C29.1532 26.1028 29.1615 26.1028 28.2714 26.1028C27.9016 26.1028 27.5319 26.1099 27.1621 26.1004C26.9713 26.0957 26.9001 26.1644 26.9025 26.3564C26.9108 26.9336 26.9096 27.5096 26.9025 28.0868C26.9001 28.2776 26.9736 28.3499 27.1633 28.3463C27.5473 28.338 27.9324 28.357 28.3164 28.3404C28.5713 28.3285 28.6412 28.4269 28.6483 28.6722C28.6756 29.522 28.6839 29.522 27.8222 29.522C26.9049 29.522 26.9049 29.522 26.9049 30.4583C26.9049 30.7842 26.9321 31.1125 26.8978 31.4337C26.8563 31.8225 27.0151 31.9078 27.3707 31.8853C27.8424 31.8557 28.3176 31.8877 28.7905 31.8734C29.0169 31.8663 29.0927 31.9351 29.1034 32.1697C29.139 33.0349 29.1484 33.0349 28.2987 33.0349C27.5295 33.0349 26.7603 33.0254 25.9911 33.0408C25.7173 33.0468 25.6024 32.9911 25.6036 32.6805C25.6154 30.2248 25.6142 27.7703 25.6047 25.3146C25.6036 25.0266 25.6806 24.9247 25.9781 24.9401C26.4356 24.9638 26.8954 24.946 27.3529 24.946Z" fill="#107C42"/>
<path d="M17.0169 12.8454C14.9155 12.8454 12.813 12.8465 10.7117 12.8442C10.5505 12.8442 10.3834 12.843 10.2293 12.8027C9.98873 12.7399 9.85836 12.5633 9.86666 12.3097C9.87496 12.0762 10.003 11.9138 10.2258 11.8581C10.381 11.819 10.547 11.8154 10.7081 11.8154C14.912 11.8131 19.1147 11.8142 23.3185 11.8142C23.3778 11.8142 23.437 11.8131 23.4963 11.8142C23.9384 11.8273 24.192 12.0217 24.1624 12.3488C24.1268 12.747 23.8447 12.8442 23.4998 12.8442C21.3393 12.8454 19.1787 12.8454 17.0169 12.8454Z" fill="#107C42"/>
<path d="M15.7713 10.0246C17.4886 10.0246 19.2059 10.0246 20.9233 10.0258C21.056 10.0258 21.1947 10.014 21.3203 10.0471C21.5561 10.11 21.7007 10.27 21.7019 10.5283C21.7019 10.782 21.5846 10.9597 21.331 11.0083C21.1579 11.0415 20.979 11.0486 20.8024 11.0486C17.472 11.051 14.1404 11.051 10.8101 11.0486C10.6335 11.0486 10.4533 11.0427 10.2803 11.0131C10.0101 10.9668 9.86311 10.7867 9.86904 10.5153C9.87496 10.2391 10.0527 10.0874 10.3099 10.0365C10.4249 10.014 10.5458 10.0246 10.6643 10.0246C12.3662 10.0246 14.0693 10.0246 15.7713 10.0246Z" fill="#107C42"/>
<path d="M14.4367 8.07026C15.7381 8.07026 17.0382 8.06789 18.3395 8.07145C18.7816 8.07263 19.0317 8.27175 19.0104 8.59649C18.9938 8.84656 18.8575 9.01367 18.6074 9.05634C18.4344 9.08597 18.2554 9.09426 18.0788 9.09426C15.6539 9.09663 13.229 9.09663 10.8053 9.09545C10.6584 9.09545 10.509 9.09189 10.3633 9.0753C10.0575 9.04212 9.85955 8.87619 9.8714 8.55856C9.88444 8.24212 10.099 8.0833 10.4012 8.07619C10.9037 8.06315 11.4062 8.07145 11.9087 8.07145C12.7502 8.07026 13.5929 8.07026 14.4367 8.07026Z" fill="#107C42"/>
<g clip-path="url(#clip1_2052_15334)">
<path d="M39.6549 6.17408C39.6549 6.13956 39.6549 6.10411 39.6549 6.06959C39.6549 5.27941 39.6502 5.26634 38.9109 5.53783C37.3112 6.12464 36.0074 7.08089 35.1375 8.56984C34.9074 8.96353 34.6481 9.08668 34.3476 8.96167C34.0385 8.83292 33.938 8.5689 34.0357 8.12763C34.6078 5.54716 36.107 3.69436 38.4938 2.54406C38.7559 2.41719 39.0312 2.30244 39.313 2.23247C39.5985 2.16156 39.6793 2.01789 39.6615 1.73895C39.637 1.36764 39.6483 0.99354 39.6577 0.621302C39.6718 0.0886011 40.0851 -0.156759 40.5529 0.109125C42.3339 1.12042 44.1102 2.13824 45.8828 3.16353C46.3816 3.4518 46.3703 3.93879 45.8602 4.23266C44.2483 5.16186 42.6307 6.08079 41.0151 7.00345C40.8328 7.10794 40.6572 7.22549 40.4684 7.31319C40.0785 7.49417 39.6925 7.26747 39.6615 6.83926C39.6455 6.61909 39.6586 6.39705 39.6586 6.17502C39.6577 6.17408 39.6558 6.17408 39.6549 6.17408ZM36.6433 5.28407C36.8227 5.32605 36.912 5.23649 37.0106 5.17958C37.9518 4.63475 38.9654 4.28677 40.0325 4.08526C40.4749 4.0013 40.7661 4.22986 40.7821 4.67673C40.7924 4.95568 40.7971 5.23649 40.7812 5.5145C40.7643 5.80837 40.8516 5.8205 41.0865 5.68336C42.1366 5.0695 43.1897 4.4603 44.2521 3.86882C44.5508 3.70276 44.4672 3.63279 44.238 3.50311C43.1784 2.90511 42.1263 2.29497 41.0705 1.69137C40.9935 1.64752 40.923 1.57009 40.784 1.60834C40.784 1.84157 40.7849 2.0832 40.784 2.32483C40.7821 2.87898 40.6769 3.0068 40.134 3.1458C38.7559 3.49752 37.5958 4.20094 36.6433 5.28407Z" fill="#21A365"/>
<path d="M36.6433 5.28413C37.5958 4.201 38.7559 3.49758 40.134 3.14493C40.6769 3.00592 40.7821 2.87811 40.784 2.32395C40.7849 2.08233 40.784 1.8407 40.784 1.60747C40.923 1.56922 40.9935 1.64665 41.0705 1.6905C42.1263 2.2941 43.1784 2.90423 44.2371 3.50317C44.4672 3.63378 44.5508 3.70282 44.2511 3.86888C43.1887 4.46036 42.1357 5.06956 41.0855 5.68342C40.8507 5.82056 40.7624 5.80844 40.7802 5.51456C40.7962 5.23655 40.7915 4.95574 40.7812 4.6768C40.7652 4.22992 40.474 4.00136 40.0316 4.08532C38.9645 4.28683 37.9519 4.63481 37.0097 5.17964C36.912 5.23655 36.8228 5.32611 36.6433 5.28413Z" fill="white"/>
</g>
</g>
<defs>
<clipPath id="clip0_2052_15334">
<rect width="47" height="49" fill="white"/>
</clipPath>
<clipPath id="clip1_2052_15334">
<rect width="12.2501" height="9.00741" fill="white" transform="translate(34)"/>
</clipPath>
</defs>
</svg>
