<svg width="24" height="24" viewBox="0 0 24 24" fill="none" xmlns="http://www.w3.org/2000/svg">
<g clip-path="url(#clip0_686_9665)">
<path d="M7.46139 9.98879C7.46139 9.22507 7.46139 8.50189 7.46139 7.77195C7.46815 5.57539 8.94154 3.76407 11.084 3.31124C13.6185 2.7773 16.153 4.56835 16.4369 7.1434C16.5315 7.96795 16.4774 8.81279 16.491 9.65086C16.491 9.75224 16.491 9.85362 16.491 9.98879C16.7005 9.98879 16.8897 9.98879 17.079 9.98879C18.2888 9.99555 19.1201 10.8201 19.1201 12.0231C19.1201 13.8074 19.1201 15.5917 19.1201 17.3692C19.1201 18.5858 18.3023 19.4036 17.0857 19.4104C13.6794 19.4171 10.273 19.4171 6.86663 19.4104C5.65007 19.4104 4.83228 18.5858 4.83228 17.3692C4.83228 15.585 4.83228 13.8007 4.83228 12.0231C4.83228 10.8133 5.66359 9.99555 6.87339 9.98879C7.06263 9.98879 7.24512 9.98879 7.46139 9.98879ZM12.0032 11.131C10.3068 11.131 8.60361 11.131 6.90718 11.131C6.27863 11.131 5.98125 11.4284 5.98125 12.0637C5.98125 13.821 5.98125 15.5782 5.98125 17.3355C5.98125 17.9775 6.28539 18.2749 6.93422 18.2749C10.3 18.2749 13.6591 18.2749 17.0249 18.2749C17.6737 18.2749 17.9779 17.9775 17.9779 17.3355C17.9779 15.5782 17.9779 13.821 17.9779 12.0637C17.9779 11.4284 17.6805 11.131 17.0519 11.131C15.3623 11.131 13.6794 11.131 12.0032 11.131ZM15.3285 9.97528C15.3285 9.11693 15.369 8.27885 15.3217 7.44754C15.2271 5.77139 13.8551 4.47373 12.1249 4.35883C10.5163 4.25069 8.93478 5.43346 8.69147 7.04878C8.54954 7.99499 8.63064 8.96824 8.61037 9.92797C8.61037 9.94148 8.63064 9.955 8.64416 9.97528C10.861 9.97528 13.0846 9.97528 15.3285 9.97528Z" fill="#4A4A4A"/>
<path d="M4.47415 21.3572C4.47415 21.9249 4.48091 22.4453 4.47415 22.959C4.47415 23.2226 4.31195 23.4321 4.08891 23.4929C3.85236 23.5605 3.62932 23.5132 3.47387 23.3104C3.40629 23.2158 3.35222 23.0807 3.35222 22.9658C3.34546 21.9993 3.34546 21.0395 3.34546 20.0731C3.34546 19.8162 3.47387 19.6405 3.71043 19.5459C3.94698 19.4513 4.1565 19.5188 4.33898 19.6946C5.0554 20.3975 5.84616 20.999 6.72479 21.4789C8.75915 22.5873 10.9219 23.0266 13.2266 22.7562C17.6468 22.2426 21.2694 19.1471 22.4454 14.8621C23.1618 12.2398 22.905 9.69175 21.7223 7.24512C21.6817 7.16401 21.6344 7.08291 21.6006 6.99505C21.4654 6.67739 21.5803 6.35973 21.8709 6.22456C22.1548 6.09614 22.4792 6.19077 22.6212 6.50166C22.8915 7.10318 23.1821 7.69795 23.3849 8.31974C25.4057 14.6053 22.0669 21.2761 15.8017 23.3442C11.8276 24.6419 8.12383 23.9931 4.73774 21.5464C4.67016 21.4924 4.59581 21.4383 4.47415 21.3572Z" fill="#4A4A4A"/>
<path d="M19.4783 2.60868C19.4783 2.07474 19.4716 1.56108 19.4783 1.04743C19.4851 0.777079 19.6541 0.567561 19.8906 0.499974C20.1339 0.432387 20.411 0.533767 20.5259 0.756803C20.58 0.858183 20.607 0.979839 20.607 1.09474C20.6138 2.02067 20.607 2.95337 20.6138 3.88606C20.6138 4.14965 20.5192 4.34565 20.2691 4.45379C20.0123 4.56193 19.796 4.48758 19.6 4.29834C18.4848 3.2102 17.2074 2.38564 15.7408 1.83819C9.56339 -0.452997 2.73715 3.2913 1.3719 9.7323C0.844721 12.1992 1.16238 14.5647 2.2708 16.8289C2.29783 16.8897 2.33163 16.9506 2.35866 17.0114C2.49383 17.329 2.3857 17.6467 2.09507 17.7819C1.81121 17.917 1.48004 17.8157 1.34486 17.5115C1.05424 16.8559 0.736582 16.2071 0.533823 15.5245C-1.38564 9.17133 2.03425 2.60192 8.36035 0.601354C12.2398 -0.621963 15.8625 0.047144 19.1674 2.42619C19.2418 2.48026 19.3161 2.54109 19.3905 2.59516C19.404 2.60192 19.4243 2.60192 19.4783 2.60868Z" fill="#4A4A4A"/>
<path d="M8.32654 13.5645C8.96185 13.5645 9.46875 14.0714 9.46199 14.7067C9.45524 15.3285 8.95509 15.8354 8.3333 15.8421C7.70474 15.8489 7.18433 15.3352 7.18433 14.7067C7.18433 14.0714 7.69123 13.5645 8.32654 13.5645Z" fill="#4A4A4A"/>
<path d="M11.9762 13.5645C12.6115 13.5645 13.1184 14.0714 13.1117 14.7067C13.1117 15.3352 12.5912 15.8489 11.9627 15.8421C11.3409 15.8354 10.8407 15.3285 10.834 14.7067C10.834 14.0714 11.3341 13.5645 11.9762 13.5645Z" fill="#4A4A4A"/>
<path d="M15.6395 13.5645C16.2748 13.5712 16.7749 14.0849 16.7681 14.7202C16.7546 15.342 16.2545 15.8421 15.6327 15.8421C15.0041 15.8421 14.4905 15.3285 14.4905 14.6931C14.4905 14.0646 14.9974 13.5645 15.6395 13.5645Z" fill="#4A4A4A"/>
</g>
<defs>
<clipPath id="clip0_686_9665">
<rect width="23.9594" height="24" fill="white"/>
</clipPath>
</defs>
</svg>
