<svg width="51" height="59" viewBox="0 0 51 59" fill="none" xmlns="http://www.w3.org/2000/svg">
<g filter="url(#filter0_d_2146_16543)">
<path fill-rule="evenodd" clip-rule="evenodd" d="M30.8206 4.59226C30.043 3.81346 28.9789 3.38943 27.8788 3.41999L25 3.49995H16L14.3883 3.41041C10.3759 3.1875 7 6.38104 7 10.3996V46.3028C7 50.2449 10.2538 53.4096 14.1944 53.3001L25 53L35.8056 53.3001C39.7462 53.4096 43 50.2449 43 46.3028V18.4461C43 17.3863 42.5794 16.3698 41.8307 15.6199L30.8206 4.59226Z" fill="#107C42"/>
</g>
<path d="M0 29.9403C0 26.65 2.64987 23.9735 5.94 23.9406L43.94 23.5606C47.277 23.5272 50 26.2231 50 29.5603V32L50.1226 34.0843C50.3267 37.5541 47.5491 40.4708 44.0736 40.4364L5.9406 40.0588C2.65023 40.0262 0 37.3496 0 34.0591V29.9403Z" fill="white"/>
<g filter="url(#filter1_i_2146_16543)">
<path d="M28.9855 3.30615C30.0617 3.56085 30.8114 4.28444 31.5729 5.02893C35.0942 8.47448 38.6351 11.9004 42.176 15.3251C42.974 16.097 43.345 17.0257 43.3398 18.1267C43.3319 19.7581 43.3502 21.3894 43.3293 23.0208C43.3241 23.3956 43.4377 23.4975 43.7995 23.4792C44.9162 23.4231 46.016 23.5079 47.0465 24.003C48.606 24.7514 49.6588 25.9177 50.0389 27.6366C50.0532 27.7032 50.065 27.762 50.1368 27.7855C50.1368 30.5924 50.1368 33.3992 50.1368 36.2074C49.9866 36.2701 50.0075 36.4268 49.9762 36.5404C49.5491 38.0647 48.576 39.1226 47.1863 39.8266C46.2328 40.3099 45.2114 40.4536 44.1535 40.4301C43.3385 40.4118 43.3385 40.4262 43.3385 41.2595C43.3385 43.1181 43.3502 44.9754 43.3358 46.834C43.311 50.0693 41.2408 52.6162 38.097 53.3163C37.9651 53.3463 37.794 53.2771 37.7025 53.4417C29.248 53.4417 20.7948 53.4417 12.3402 53.4417C12.3063 53.3463 12.2214 53.3463 12.143 53.332C9.38188 52.8278 6.65861 50.3932 6.79184 46.4448C6.85323 44.6214 6.79053 42.7929 6.81143 40.9682C6.81665 40.5581 6.73829 40.3661 6.28114 40.417C5.91151 40.4575 5.53143 40.4288 5.15788 40.4144C3.00278 40.3256 1.0031 38.8849 0.274287 36.9166C0.186776 36.6802 0.205062 36.4007 0.00261307 36.2087C0.00261307 33.4018 0.00261307 30.595 0.00261307 27.7868C0.0914294 27.745 0.087511 27.6601 0.105797 27.5817C0.368327 26.4467 0.958695 25.5168 1.856 24.7775C3.13469 23.7235 4.6289 23.3852 6.24196 23.4805C6.68474 23.5066 6.81404 23.3799 6.81274 22.9241C6.79445 18.6217 6.79576 14.3181 6.8049 10.0157C6.80751 6.74779 8.78237 4.24787 11.9497 3.45766C12.0803 3.42501 12.254 3.46942 12.3376 3.30615C17.8874 3.30615 23.4358 3.30615 28.9855 3.30615ZM25.0684 39.8371C31.4501 39.8371 37.8305 39.8371 44.2122 39.8384C44.6694 39.8384 45.1226 39.8227 45.5758 39.7417C47.7989 39.3408 49.4341 37.5657 49.4681 35.4146C49.5047 33.0975 49.4785 30.7804 49.4733 28.4621C49.4707 27.4942 49.1324 26.64 48.5238 25.8995C47.4527 24.5973 46.0395 24.0631 44.3834 24.0644C31.5063 24.067 18.6305 24.0657 5.75347 24.0657C5.60718 24.0657 5.45959 24.0657 5.31331 24.0709C2.73372 24.1571 0.696164 26.1019 0.664817 28.5613C0.636083 30.8288 0.659593 33.0988 0.658287 35.3662C0.658287 36.1538 0.856817 36.8879 1.28653 37.5448C2.33143 39.1435 3.85829 39.8358 5.72996 39.8371C12.1757 39.8384 18.6214 39.8358 25.0684 39.8371ZM25.0501 23.474C30.8101 23.474 36.5688 23.4727 42.3288 23.4766C42.6044 23.4766 42.8199 23.5079 42.8147 23.0939C42.7912 21.3319 42.7925 19.57 42.8108 17.808C42.8147 17.394 42.6697 17.2999 42.2753 17.3013C39.0779 17.3169 35.8792 17.3104 32.6818 17.3104C30.7566 17.3104 29.6725 16.2328 29.6712 14.322C29.6699 11.2226 29.6712 8.12183 29.6712 5.0224C29.6712 3.97358 29.5993 3.89652 28.5427 3.81162C28.4447 3.80379 28.3468 3.80509 28.2488 3.80509C23.3051 3.80509 18.3615 3.79595 13.4178 3.8077C9.98923 3.81554 7.3391 6.47481 7.33388 9.89032C7.32735 14.2462 7.34041 18.6022 7.31951 22.9594C7.3169 23.4165 7.46188 23.4831 7.86939 23.4818C13.5967 23.4701 19.3228 23.474 25.0501 23.474ZM25.0671 40.4262C19.3241 40.4262 13.5811 40.4301 7.83804 40.417C7.43706 40.4157 7.3169 40.5124 7.32082 40.9238C7.34302 42.9143 7.32604 44.9049 7.33127 46.8954C7.34041 50.2443 9.93698 52.9231 13.295 52.9349C21.1422 52.9649 28.9894 52.9649 36.8379 52.9349C40.1959 52.9218 42.7899 50.2456 42.8016 46.8941C42.8082 44.9205 42.7873 42.9457 42.8147 40.9721C42.8212 40.5137 42.6828 40.4157 42.2465 40.417C36.5205 40.4314 30.7945 40.4262 25.0671 40.4262ZM30.2589 10.1385C30.2589 11.6066 30.2524 13.0746 30.2602 14.544C30.2681 15.8084 31.1549 16.7135 32.414 16.7174C35.3345 16.7279 38.255 16.72 41.1755 16.7226C41.4341 16.7226 41.6771 16.6991 41.7868 16.4248C41.8978 16.1453 41.7162 15.9677 41.5373 15.7901C41.0749 15.3303 40.6165 14.864 40.1567 14.4017C37.2349 11.4629 34.3145 8.52281 31.3874 5.59056C31.1458 5.34893 30.9211 4.93358 30.511 5.1073C30.0931 5.28493 30.2694 5.73946 30.2655 6.07644C30.2498 7.42958 30.2589 8.78403 30.2589 10.1385Z" fill="#33C481"/>
</g>
<path d="M18.7533 14.1562C16.4375 14.1562 14.1205 14.1575 11.8047 14.1549C11.6271 14.1549 11.4429 14.1536 11.2731 14.1092C11.008 14.0399 10.8643 13.8453 10.8735 13.5658C10.8826 13.3085 11.0237 13.1296 11.2692 13.0682C11.4403 13.0251 11.6232 13.0212 11.8008 13.0212C16.4336 13.0186 21.0651 13.0199 25.698 13.0199C25.7633 13.0199 25.8286 13.0186 25.8939 13.0199C26.3811 13.0342 26.6606 13.2484 26.6279 13.6089C26.5887 14.0478 26.2779 14.1549 25.8978 14.1549C23.5167 14.1562 21.1357 14.1562 18.7533 14.1562Z" fill="#FDFBFC"/>
<path d="M17.3806 11.0475C19.2731 11.0475 21.1657 11.0475 23.0583 11.0488C23.2046 11.0488 23.3574 11.0357 23.4958 11.0723C23.7558 11.1415 23.9151 11.3178 23.9164 11.6026C23.9164 11.8821 23.7871 12.078 23.5076 12.1315C23.3169 12.1681 23.1197 12.176 22.9251 12.176C19.2549 12.1786 15.5833 12.1786 11.9131 12.176C11.7185 12.176 11.52 12.1694 11.3293 12.1368C11.0315 12.0858 10.8695 11.8873 10.8761 11.5882C10.8826 11.2839 11.0785 11.1167 11.362 11.0605C11.4887 11.0357 11.6219 11.0475 11.7525 11.0475C13.6281 11.0475 15.505 11.0475 17.3806 11.0475Z" fill="#FDFBFC"/>
<path d="M15.9099 8.89389C17.344 8.89389 18.7768 8.89128 20.2109 8.8952C20.6981 8.89651 20.9737 9.11594 20.9502 9.47381C20.9319 9.74941 20.7817 9.93357 20.5061 9.98059C20.3154 10.0132 20.1182 10.0224 19.9236 10.0224C17.2513 10.025 14.5789 10.025 11.9079 10.0237C11.746 10.0237 11.5814 10.0198 11.4207 10.0015C11.0838 9.96492 10.8656 9.78206 10.8787 9.43202C10.8931 9.08328 11.1295 8.90826 11.4625 8.90043C12.0163 8.88606 12.5701 8.8952 13.1239 8.8952C14.0513 8.89389 14.9799 8.89389 15.9099 8.89389Z" fill="#FDFBFC"/>
<path d="M9.756 36V27.804H15.204V29.184H11.412V31.176H14.484V32.532H11.412V34.62H15.204V36H9.756ZM15.7054 36L17.9374 32.016L15.7054 27.804H17.4574L19.0174 30.816L20.6614 27.804H22.3534L20.1094 31.86L22.3054 36H20.5414L19.0054 33.072L17.4214 36H15.7054ZM25.7978 36.132C25.1578 36.132 24.6298 36.052 24.2138 35.892C23.8058 35.724 23.4818 35.468 23.2418 35.124C23.0018 34.78 22.8338 34.344 22.7378 33.816C22.6498 33.28 22.6058 32.644 22.6058 31.908C22.6058 31.164 22.6498 30.528 22.7378 30C22.8338 29.464 23.0018 29.024 23.2418 28.68C23.4818 28.336 23.8098 28.08 24.2258 27.912C24.6498 27.744 25.1898 27.66 25.8458 27.66C26.1098 27.66 26.3858 27.676 26.6738 27.708C26.9618 27.74 27.2378 27.78 27.5018 27.828C27.7738 27.868 28.0058 27.912 28.1978 27.96L28.1498 29.28C27.9898 29.248 27.7898 29.22 27.5498 29.196C27.3098 29.164 27.0658 29.14 26.8178 29.124C26.5698 29.108 26.3378 29.1 26.1218 29.1C25.7378 29.1 25.4258 29.148 25.1858 29.244C24.9458 29.34 24.7578 29.5 24.6218 29.724C24.4938 29.948 24.4058 30.24 24.3578 30.6C24.3098 30.952 24.2858 31.388 24.2858 31.908C24.2858 32.42 24.3098 32.856 24.3578 33.216C24.4058 33.568 24.4938 33.856 24.6218 34.08C24.7498 34.296 24.9338 34.456 25.1738 34.56C25.4218 34.656 25.7418 34.704 26.1338 34.704C26.4538 34.704 26.8058 34.688 27.1898 34.656C27.5818 34.616 27.9058 34.58 28.1618 34.548L28.1978 35.856C28.0058 35.896 27.7778 35.94 27.5138 35.988C27.2498 36.028 26.9698 36.06 26.6738 36.084C26.3778 36.116 26.0858 36.132 25.7978 36.132ZM29.3263 36V27.804H34.7743V29.184H30.9823V31.176H34.0543V32.532H30.9823V34.62H34.7743V36H29.3263ZM35.9357 36V27.804H37.5917V34.596H40.8317V36H35.9357Z" fill="#107C42"/>
<defs>
<filter id="filter0_d_2146_16543" x="3" y="0.399414" width="44" height="57.9036" filterUnits="userSpaceOnUse" color-interpolation-filters="sRGB">
<feFlood flood-opacity="0" result="BackgroundImageFix"/>
<feColorMatrix in="SourceAlpha" type="matrix" values="0 0 0 0 0 0 0 0 0 0 0 0 0 0 0 0 0 0 127 0" result="hardAlpha"/>
<feOffset dy="1"/>
<feGaussianBlur stdDeviation="2"/>
<feComposite in2="hardAlpha" operator="out"/>
<feColorMatrix type="matrix" values="0 0 0 0 0.0627451 0 0 0 0 0.486275 0 0 0 0 0.258824 0 0 0 0.24 0"/>
<feBlend mode="normal" in2="BackgroundImageFix" result="effect1_dropShadow_2146_16543"/>
<feBlend mode="normal" in="SourceGraphic" in2="effect1_dropShadow_2146_16543" result="shape"/>
</filter>
<filter id="filter1_i_2146_16543" x="0.00261307" y="3.30615" width="51.1342" height="54.1355" filterUnits="userSpaceOnUse" color-interpolation-filters="sRGB">
<feFlood flood-opacity="0" result="BackgroundImageFix"/>
<feBlend mode="normal" in="SourceGraphic" in2="BackgroundImageFix" result="shape"/>
<feColorMatrix in="SourceAlpha" type="matrix" values="0 0 0 0 0 0 0 0 0 0 0 0 0 0 0 0 0 0 127 0" result="hardAlpha"/>
<feOffset dx="1" dy="4"/>
<feGaussianBlur stdDeviation="2"/>
<feComposite in2="hardAlpha" operator="arithmetic" k2="-1" k3="1"/>
<feColorMatrix type="matrix" values="0 0 0 0 1 0 0 0 0 1 0 0 0 0 1 0 0 0 0.25 0"/>
<feBlend mode="normal" in2="shape" result="effect1_innerShadow_2146_16543"/>
</filter>
</defs>
</svg>
