<svg width="26" height="26" viewBox="0 0 26 26" fill="none" xmlns="http://www.w3.org/2000/svg">
<rect x="5.14502" y="1.5" width="19.6522" height="14.471" rx="2" fill="#4AA9C6" stroke="white" stroke-linejoin="round"/>
<path d="M1.5 20.5122V9.25364C1.5 8.68134 1.96394 8.21741 2.53623 8.21741H20.1522C20.7245 8.21741 21.1884 8.68134 21.1884 9.25364V19.4759C21.1884 20.6205 20.2605 21.5484 19.1159 21.5484H18.0797L19.1159 23.4528L19.1476 23.5255C19.4363 24.1889 18.6754 24.8156 18.0797 24.405L13.9348 21.5484H2.53623C1.96394 21.5484 1.5 21.0845 1.5 20.5122Z" fill="#4AA9C6"/>
<path fill-rule="evenodd" clip-rule="evenodd" d="M2.53623 8.71741C2.24008 8.71741 2 8.95749 2 9.25364V20.5122C2 20.8083 2.24008 21.0484 2.53623 21.0484H14.0904L18.3634 23.9933C18.5451 24.1185 18.7772 23.9274 18.6891 23.7251L18.6663 23.6725L17.2384 21.0484H19.1159C19.9844 21.0484 20.6884 20.3444 20.6884 19.4759V9.25364C20.6884 8.95749 20.4483 8.71741 20.1522 8.71741H2.53623ZM1 9.25364C1 8.4052 1.68779 7.71741 2.53623 7.71741H20.1522C21.0006 7.71741 21.6884 8.4052 21.6884 9.25364V19.4759C21.6884 20.8967 20.5367 22.0484 19.1159 22.0484H18.921L19.5656 23.2331L19.606 23.326C20.0955 24.4503 18.8057 25.5126 17.796 24.8167L13.7792 22.0484H2.53623C1.6878 22.0484 1 21.3606 1 20.5122V9.25364Z" fill="white"/>
<path d="M10.1302 14.2111C10.0303 14.3432 10.066 14.4565 10.066 14.5617C10.0624 15.3967 10.0571 16.2326 10.0687 17.0676C10.0722 17.3147 10.0214 17.4208 9.74127 17.4146C9.07668 17.4003 9.07668 17.4155 9.07668 16.7437C9.07668 15.4297 9.08292 14.1157 9.07132 12.8017C9.06954 12.5439 9.13734 12.4582 9.40585 12.4591C10.3729 12.4627 10.372 12.4529 10.6913 13.3806C10.9946 14.2611 11.2988 15.1416 11.6289 16.0988C11.6958 15.9462 11.7368 15.8659 11.7672 15.7803C12.124 14.7624 12.4826 13.7446 12.8314 12.7232C12.8939 12.5403 12.975 12.4466 13.1838 12.4609C13.4496 12.4787 13.7181 12.4707 13.9849 12.4636C14.1472 12.4591 14.2302 12.5046 14.2293 12.6875C14.2248 14.1906 14.2275 15.6947 14.2257 17.1978C14.2257 17.2718 14.2427 17.3834 14.1401 17.3878C13.8635 17.4012 13.5825 17.4164 13.3087 17.3834C13.1749 17.3673 13.232 17.1951 13.232 17.0925C13.2275 16.2237 13.2293 15.3548 13.2293 14.4868C13.2293 14.378 13.2293 14.2691 13.2293 14.1407C13.0892 14.2263 13.0865 14.3601 13.0473 14.4672C12.7217 15.3548 12.3916 16.2406 12.0883 17.1363C12.0027 17.3878 11.8555 17.4074 11.6387 17.4092C11.4166 17.4119 11.281 17.3753 11.198 17.1282C10.9108 16.2745 10.5932 15.4306 10.2854 14.584C10.2417 14.4654 10.1882 14.3503 10.1302 14.2111Z" fill="#C32222"/>
<path d="M16.8423 17.4769C16.4133 17.4894 15.9761 17.3805 15.5792 17.129C15.2179 16.8997 15.0163 16.5705 14.9717 16.1423C14.9529 15.9639 14.9975 15.8622 15.2 15.8792C15.3107 15.8881 15.4239 15.889 15.5337 15.8783C15.7826 15.8533 15.9396 15.8952 15.9904 16.2012C16.0475 16.542 16.349 16.674 16.6595 16.7142C17.0047 16.7588 17.3633 16.7704 17.6051 16.4457C17.8111 16.1682 17.7112 15.7882 17.3919 15.5812C17.1555 15.4287 16.8843 15.3555 16.622 15.2654C16.2625 15.1423 15.9092 15.0067 15.6006 14.781C14.9164 14.2833 14.8914 13.3323 15.5426 12.7989C16.2134 12.2502 17.4614 12.236 18.1376 12.7739C18.2322 12.8497 18.3232 12.9371 18.3945 13.0344C18.5712 13.2734 18.7657 13.5999 18.6122 13.8265C18.4579 14.054 18.0779 13.8854 17.7978 13.9059C17.6791 13.9148 17.6711 13.8015 17.6568 13.7141C17.5596 13.0808 16.6416 13.0219 16.2919 13.2949C15.9735 13.5428 15.9815 13.9657 16.3151 14.1985C16.5935 14.3921 16.9173 14.484 17.234 14.5875C17.564 14.6954 17.8798 14.8319 18.1608 15.0389C18.9369 15.6098 18.8736 16.7338 18.0395 17.2191C17.7317 17.3984 17.3749 17.4787 16.8423 17.4769Z" fill="#C32222"/>
<path d="M6.52306 17.476C6.05383 17.4903 5.6185 17.3779 5.22063 17.1263C4.84507 16.889 4.65595 16.5402 4.61135 16.104C4.59529 15.9514 4.64257 15.8712 4.80939 15.8801C4.9423 15.8872 5.0779 15.8917 5.20993 15.8783C5.45525 15.8524 5.58727 15.9095 5.63455 16.195C5.69075 16.534 5.98781 16.6705 6.30004 16.7133C6.64616 16.7606 7.00299 16.7686 7.2501 16.4519C7.45973 16.1825 7.3625 15.7891 7.04581 15.5848C6.80049 15.426 6.51771 15.352 6.24473 15.2583C5.92805 15.1495 5.6176 15.0264 5.33571 14.8444C4.50162 14.3056 4.49716 13.2012 5.34998 12.6927C6.09665 12.2476 6.88078 12.2618 7.64083 12.6775C8.02174 12.8863 8.251 13.2262 8.28758 13.6722C8.29472 13.7632 8.33307 13.8979 8.17964 13.905C7.93521 13.9175 7.68989 13.9122 7.44546 13.9086C7.31968 13.9068 7.32057 13.7926 7.30719 13.7115C7.20549 13.0834 6.2929 13.021 5.93786 13.2966C5.62742 13.5375 5.6408 13.9764 5.97086 14.2021C6.25008 14.393 6.57301 14.4867 6.8897 14.5901C7.20906 14.6945 7.51504 14.8274 7.78802 15.0237C8.60962 15.6134 8.52309 16.7918 7.62477 17.2557C7.27954 17.4332 6.90754 17.4894 6.52306 17.476Z" fill="#C32222"/>
</svg>
