<svg width="59" height="59" viewBox="0 0 59 59" fill="none" xmlns="http://www.w3.org/2000/svg">
<g filter="url(#filter0_d_2146_16542)">
<path fill-rule="evenodd" clip-rule="evenodd" d="M34.8206 4.59226C34.043 3.81346 32.9789 3.38943 31.8788 3.41999L29 3.49995H20L18.3883 3.41041C14.3759 3.1875 11 6.38104 11 10.3996V46.3028C11 50.2449 14.2538 53.4096 18.1944 53.3001L29 53L39.8056 53.3001C43.7462 53.4096 47 50.2449 47 46.3028V18.4461C47 17.3863 46.5794 16.3698 45.8307 15.6199L34.8206 4.59226Z" fill="#107C42"/>
</g>
<path d="M4 29.9403C4 26.65 6.64987 23.9735 9.94 23.9406L47.94 23.5606C51.277 23.5272 54 26.2231 54 29.5603V32L54.1226 34.0843C54.3267 37.5541 51.5491 40.4708 48.0736 40.4364L9.9406 40.0588C6.65023 40.0262 4 37.3496 4 34.0591V29.9403Z" fill="white"/>
<g filter="url(#filter1_i_2146_16542)">
<path d="M32.9855 3.30615C34.0617 3.56085 34.8114 4.28444 35.5729 5.02893C39.0942 8.47448 42.6351 11.9004 46.176 15.3251C46.974 16.097 47.345 17.0257 47.3398 18.1267C47.3319 19.7581 47.3502 21.3894 47.3293 23.0208C47.3241 23.3956 47.4377 23.4975 47.7995 23.4792C48.9162 23.4231 50.016 23.5079 51.0465 24.003C52.606 24.7514 53.6588 25.9177 54.0389 27.6366C54.0532 27.7032 54.065 27.762 54.1368 27.7855C54.1368 30.5924 54.1368 33.3992 54.1368 36.2074C53.9866 36.2701 54.0075 36.4268 53.9762 36.5404C53.5491 38.0647 52.576 39.1226 51.1863 39.8266C50.2328 40.3099 49.2114 40.4536 48.1535 40.4301C47.3385 40.4118 47.3385 40.4262 47.3385 41.2595C47.3385 43.1181 47.3502 44.9754 47.3358 46.834C47.311 50.0693 45.2408 52.6162 42.097 53.3163C41.9651 53.3463 41.794 53.2771 41.7025 53.4417C33.248 53.4417 24.7948 53.4417 16.3402 53.4417C16.3063 53.3463 16.2214 53.3463 16.143 53.332C13.3819 52.8278 10.6586 50.3932 10.7918 46.4448C10.8532 44.6214 10.7905 42.7929 10.8114 40.9682C10.8167 40.5581 10.7383 40.3661 10.2811 40.417C9.91151 40.4575 9.53143 40.4288 9.15788 40.4144C7.00278 40.3256 5.0031 38.8849 4.27429 36.9166C4.18678 36.6802 4.20506 36.4007 4.00261 36.2087C4.00261 33.4018 4.00261 30.595 4.00261 27.7868C4.09143 27.745 4.08751 27.6601 4.1058 27.5817C4.36833 26.4467 4.95869 25.5168 5.856 24.7775C7.13469 23.7235 8.6289 23.3852 10.242 23.4805C10.6847 23.5066 10.814 23.3799 10.8127 22.9241C10.7945 18.6217 10.7958 14.3181 10.8049 10.0157C10.8075 6.74779 12.7824 4.24787 15.9497 3.45766C16.0803 3.42501 16.254 3.46942 16.3376 3.30615C21.8874 3.30615 27.4358 3.30615 32.9855 3.30615ZM29.0684 39.8371C35.4501 39.8371 41.8305 39.8371 48.2122 39.8384C48.6694 39.8384 49.1226 39.8227 49.5758 39.7417C51.7989 39.3408 53.4341 37.5657 53.4681 35.4146C53.5047 33.0975 53.4785 30.7804 53.4733 28.4621C53.4707 27.4942 53.1324 26.64 52.5238 25.8995C51.4527 24.5973 50.0395 24.0631 48.3834 24.0644C35.5063 24.067 22.6305 24.0657 9.75347 24.0657C9.60718 24.0657 9.45959 24.0657 9.31331 24.0709C6.73372 24.1571 4.69616 26.1019 4.66482 28.5613C4.63608 30.8288 4.65959 33.0988 4.65829 35.3662C4.65829 36.1538 4.85682 36.8879 5.28653 37.5448C6.33143 39.1435 7.85829 39.8358 9.72996 39.8371C16.1757 39.8384 22.6214 39.8358 29.0684 39.8371ZM29.0501 23.474C34.8101 23.474 40.5688 23.4727 46.3288 23.4766C46.6044 23.4766 46.8199 23.5079 46.8147 23.0939C46.7912 21.3319 46.7925 19.57 46.8108 17.808C46.8147 17.394 46.6697 17.2999 46.2753 17.3013C43.0779 17.3169 39.8792 17.3104 36.6818 17.3104C34.7566 17.3104 33.6725 16.2328 33.6712 14.322C33.6699 11.2226 33.6712 8.12183 33.6712 5.0224C33.6712 3.97358 33.5993 3.89652 32.5427 3.81162C32.4447 3.80379 32.3468 3.80509 32.2488 3.80509C27.3051 3.80509 22.3615 3.79595 17.4178 3.8077C13.9892 3.81554 11.3391 6.47481 11.3339 9.89032C11.3273 14.2462 11.3404 18.6022 11.3195 22.9594C11.3169 23.4165 11.4619 23.4831 11.8694 23.4818C17.5967 23.4701 23.3228 23.474 29.0501 23.474ZM29.0671 40.4262C23.3241 40.4262 17.5811 40.4301 11.838 40.417C11.4371 40.4157 11.3169 40.5124 11.3208 40.9238C11.343 42.9143 11.326 44.9049 11.3313 46.8954C11.3404 50.2443 13.937 52.9231 17.295 52.9349C25.1422 52.9649 32.9894 52.9649 40.8379 52.9349C44.1959 52.9218 46.7899 50.2456 46.8016 46.8941C46.8082 44.9205 46.7873 42.9457 46.8147 40.9721C46.8212 40.5137 46.6828 40.4157 46.2465 40.417C40.5205 40.4314 34.7945 40.4262 29.0671 40.4262ZM34.2589 10.1385C34.2589 11.6066 34.2524 13.0746 34.2602 14.544C34.2681 15.8084 35.1549 16.7135 36.414 16.7174C39.3345 16.7279 42.255 16.72 45.1755 16.7226C45.4341 16.7226 45.6771 16.6991 45.7868 16.4248C45.8978 16.1453 45.7162 15.9677 45.5373 15.7901C45.0749 15.3303 44.6165 14.864 44.1567 14.4017C41.2349 11.4629 38.3145 8.52281 35.3874 5.59056C35.1458 5.34893 34.9211 4.93358 34.511 5.1073C34.0931 5.28493 34.2694 5.73946 34.2655 6.07644C34.2498 7.42958 34.2589 8.78403 34.2589 10.1385Z" fill="#33C481"/>
</g>
<path d="M22.7533 14.1562C20.4375 14.1562 18.1205 14.1575 15.8047 14.1549C15.6271 14.1549 15.4429 14.1536 15.2731 14.1092C15.008 14.0399 14.8643 13.8453 14.8735 13.5658C14.8826 13.3085 15.0237 13.1296 15.2692 13.0682C15.4403 13.0251 15.6232 13.0212 15.8008 13.0212C20.4336 13.0186 25.0651 13.0199 29.698 13.0199C29.7633 13.0199 29.8286 13.0186 29.8939 13.0199C30.3811 13.0342 30.6606 13.2484 30.6279 13.6089C30.5887 14.0478 30.2779 14.1549 29.8978 14.1549C27.5167 14.1562 25.1357 14.1562 22.7533 14.1562Z" fill="#FDFBFC"/>
<path d="M21.3806 11.0475C23.2731 11.0475 25.1657 11.0475 27.0583 11.0488C27.2046 11.0488 27.3574 11.0357 27.4958 11.0723C27.7558 11.1415 27.9151 11.3178 27.9164 11.6026C27.9164 11.8821 27.7871 12.078 27.5076 12.1315C27.3169 12.1681 27.1197 12.176 26.9251 12.176C23.2549 12.1786 19.5833 12.1786 15.9131 12.176C15.7185 12.176 15.52 12.1694 15.3293 12.1368C15.0315 12.0858 14.8695 11.8873 14.8761 11.5882C14.8826 11.2839 15.0785 11.1167 15.362 11.0605C15.4887 11.0357 15.6219 11.0475 15.7525 11.0475C17.6281 11.0475 19.505 11.0475 21.3806 11.0475Z" fill="#FDFBFC"/>
<path d="M19.9099 8.89389C21.344 8.89389 22.7768 8.89128 24.2109 8.8952C24.6981 8.89651 24.9737 9.11594 24.9502 9.47381C24.9319 9.74941 24.7817 9.93357 24.5061 9.98059C24.3154 10.0132 24.1182 10.0224 23.9236 10.0224C21.2513 10.025 18.5789 10.025 15.9079 10.0237C15.746 10.0237 15.5814 10.0198 15.4207 10.0015C15.0838 9.96492 14.8656 9.78206 14.8787 9.43202C14.8931 9.08328 15.1295 8.90826 15.4625 8.90043C16.0163 8.88606 16.5701 8.8952 17.1239 8.8952C18.0513 8.89389 18.9799 8.89389 19.9099 8.89389Z" fill="#FDFBFC"/>
<path d="M13.756 36V27.804H19.204V29.184H15.412V31.176H18.484V32.532H15.412V34.62H19.204V36H13.756ZM19.7054 36L21.9374 32.016L19.7054 27.804H21.4574L23.0174 30.816L24.6614 27.804H26.3534L24.1094 31.86L26.3054 36H24.5414L23.0054 33.072L21.4214 36H19.7054ZM29.7978 36.132C29.1578 36.132 28.6298 36.052 28.2138 35.892C27.8058 35.724 27.4818 35.468 27.2418 35.124C27.0018 34.78 26.8338 34.344 26.7378 33.816C26.6498 33.28 26.6058 32.644 26.6058 31.908C26.6058 31.164 26.6498 30.528 26.7378 30C26.8338 29.464 27.0018 29.024 27.2418 28.68C27.4818 28.336 27.8098 28.08 28.2258 27.912C28.6498 27.744 29.1898 27.66 29.8458 27.66C30.1098 27.66 30.3858 27.676 30.6738 27.708C30.9618 27.74 31.2378 27.78 31.5018 27.828C31.7738 27.868 32.0058 27.912 32.1978 27.96L32.1498 29.28C31.9898 29.248 31.7898 29.22 31.5498 29.196C31.3098 29.164 31.0658 29.14 30.8178 29.124C30.5698 29.108 30.3378 29.1 30.1218 29.1C29.7378 29.1 29.4258 29.148 29.1858 29.244C28.9458 29.34 28.7578 29.5 28.6218 29.724C28.4938 29.948 28.4058 30.24 28.3578 30.6C28.3098 30.952 28.2858 31.388 28.2858 31.908C28.2858 32.42 28.3098 32.856 28.3578 33.216C28.4058 33.568 28.4938 33.856 28.6218 34.08C28.7498 34.296 28.9338 34.456 29.1738 34.56C29.4218 34.656 29.7418 34.704 30.1338 34.704C30.4538 34.704 30.8058 34.688 31.1898 34.656C31.5818 34.616 31.9058 34.58 32.1618 34.548L32.1978 35.856C32.0058 35.896 31.7778 35.94 31.5138 35.988C31.2498 36.028 30.9698 36.06 30.6738 36.084C30.3778 36.116 30.0858 36.132 29.7978 36.132ZM33.3263 36V27.804H38.7743V29.184H34.9823V31.176H38.0543V32.532H34.9823V34.62H38.7743V36H33.3263ZM39.9357 36V27.804H41.5917V34.596H44.8317V36H39.9357Z" fill="#107C42"/>
<g clip-path="url(#clip0_2146_16542)">
<path d="M48.2218 8.1742C48.2218 8.13969 48.2218 8.10423 48.2218 8.06972C48.2218 7.27953 48.2171 7.26647 47.4778 7.53795C45.8781 8.12476 44.5743 9.08101 43.7044 10.57C43.4743 10.9637 43.215 11.0868 42.9144 10.9618C42.6054 10.833 42.5049 10.569 42.6026 10.1278C43.1746 7.54728 44.6739 5.69448 47.0607 4.54419C47.3228 4.41731 47.598 4.30256 47.8799 4.23259C48.1654 4.16169 48.2462 4.01802 48.2284 3.73907C48.2039 3.36777 48.2152 2.99366 48.2246 2.62142C48.2387 2.08872 48.652 1.84336 49.1198 2.10925C50.9008 3.12054 52.6771 4.13836 54.4497 5.16365C54.9485 5.45192 54.9372 5.93891 54.4271 6.23278C52.8152 7.16198 51.1976 8.08091 49.582 9.00358C49.3997 9.10806 49.2241 9.22561 49.0353 9.31331C48.6454 9.4943 48.2594 9.26759 48.2284 8.83938C48.2124 8.61921 48.2255 8.39717 48.2255 8.17514C48.2246 8.1742 48.2227 8.1742 48.2218 8.1742ZM45.2102 7.28419C45.3896 7.32617 45.4789 7.23661 45.5775 7.1797C46.5187 6.63487 47.5323 6.28689 48.5994 6.08538C49.0418 6.00142 49.333 6.22998 49.349 6.67686C49.3593 6.9558 49.364 7.23661 49.3481 7.51462C49.3312 7.8085 49.4185 7.82062 49.6533 7.68348C50.7035 7.06962 51.7566 6.46042 52.819 5.86894C53.1177 5.70288 53.0341 5.63291 52.8049 5.50323C51.7453 4.90523 50.6932 4.29509 49.6374 3.69149C49.5604 3.64764 49.4899 3.57021 49.3509 3.60846C49.3509 3.84169 49.3518 4.08332 49.3509 4.32495C49.349 4.87911 49.2438 5.00692 48.7008 5.14592C47.3228 5.49764 46.1627 6.20106 45.2102 7.28419Z" fill="#107C42"/>
<path d="M45.2102 7.28413C46.1627 6.201 47.3228 5.49758 48.7009 5.14493C49.2438 5.00592 49.349 4.87811 49.3509 4.32395C49.3518 4.08233 49.3509 3.8407 49.3509 3.60747C49.4899 3.56922 49.5604 3.64665 49.6374 3.6905C50.6932 4.2941 51.7453 4.90423 52.8039 5.50317C53.0341 5.63378 53.1177 5.70282 52.818 5.86888C51.7556 6.46036 50.7026 7.06956 49.6524 7.68342C49.4176 7.82056 49.3293 7.80844 49.3471 7.51456C49.3631 7.23655 49.3584 6.95574 49.3481 6.6768C49.3321 6.22992 49.0409 6.00136 48.5985 6.08532C47.5314 6.28683 46.5187 6.63481 45.5766 7.17964C45.4789 7.23655 45.3896 7.32611 45.2102 7.28413Z" fill="#FDFBFC"/>
</g>
<defs>
<filter id="filter0_d_2146_16542" x="7" y="0.399414" width="44" height="57.9036" filterUnits="userSpaceOnUse" color-interpolation-filters="sRGB">
<feFlood flood-opacity="0" result="BackgroundImageFix"/>
<feColorMatrix in="SourceAlpha" type="matrix" values="0 0 0 0 0 0 0 0 0 0 0 0 0 0 0 0 0 0 127 0" result="hardAlpha"/>
<feOffset dy="1"/>
<feGaussianBlur stdDeviation="2"/>
<feComposite in2="hardAlpha" operator="out"/>
<feColorMatrix type="matrix" values="0 0 0 0 0.0627451 0 0 0 0 0.486275 0 0 0 0 0.258824 0 0 0 0.24 0"/>
<feBlend mode="normal" in2="BackgroundImageFix" result="effect1_dropShadow_2146_16542"/>
<feBlend mode="normal" in="SourceGraphic" in2="effect1_dropShadow_2146_16542" result="shape"/>
</filter>
<filter id="filter1_i_2146_16542" x="4.00261" y="3.30615" width="51.1342" height="54.1355" filterUnits="userSpaceOnUse" color-interpolation-filters="sRGB">
<feFlood flood-opacity="0" result="BackgroundImageFix"/>
<feBlend mode="normal" in="SourceGraphic" in2="BackgroundImageFix" result="shape"/>
<feColorMatrix in="SourceAlpha" type="matrix" values="0 0 0 0 0 0 0 0 0 0 0 0 0 0 0 0 0 0 127 0" result="hardAlpha"/>
<feOffset dx="1" dy="4"/>
<feGaussianBlur stdDeviation="2"/>
<feComposite in2="hardAlpha" operator="arithmetic" k2="-1" k3="1"/>
<feColorMatrix type="matrix" values="0 0 0 0 1 0 0 0 0 1 0 0 0 0 1 0 0 0 0.25 0"/>
<feBlend mode="normal" in2="shape" result="effect1_innerShadow_2146_16542"/>
</filter>
<clipPath id="clip0_2146_16542">
<rect width="12.2501" height="9.00741" fill="white" transform="translate(42.5669 2)"/>
</clipPath>
</defs>
</svg>
