<svg width="48" height="48" viewBox="0 0 48 48" fill="none" xmlns="http://www.w3.org/2000/svg">
<path d="M48 24C48 31.6035 44.4637 38.3841 38.9416 42.7805C34.8425 46.046 29.6496 48 24 48C18.3504 48 13.1575 46.046 9.05841 42.7805C3.53628 38.3841 0 31.6035 0 24C0 10.7469 10.7469 0 24 0C37.2531 0 48 10.7469 48 24Z" fill="#CED5D8"/>
<path d="M24.0001 28.7257C29.5718 28.7257 34.0886 24.2089 34.0886 18.6372C34.0886 13.0655 29.5718 8.54871 24.0001 8.54871C18.4284 8.54871 13.9116 13.0655 13.9116 18.6372C13.9116 24.2089 18.4284 28.7257 24.0001 28.7257Z" fill="#A6AFB2"/>
<path d="M38.9415 42.7805C34.8424 46.046 29.6495 48 23.9999 48C18.3504 48 13.1575 46.046 9.05835 42.7805C10.9964 36.3664 16.9539 31.6991 23.9999 31.6991C31.046 31.6991 37.0035 36.3664 38.9415 42.7805Z" fill="#A6AFB2"/>
</svg>
