<svg width="45" height="65" viewBox="0 0 45 65" fill="none" xmlns="http://www.w3.org/2000/svg">
<g clip-path="url(#clip0_514_1204)">
<path d="M0 32.4596C0 24.5504 0 16.6412 0 8.81274C0 3.88966 3.51011 0.5 8.52456 0.5C15.2105 0.5 21.8964 0.5 28.5823 0.5C29.4181 0.5 30.421 0.903531 31.006 1.46847C35.4354 5.58449 39.6977 9.78121 44.0435 14.0586C44.545 14.5429 44.9629 15.4306 44.9629 16.157C45.0464 24.7119 44.9629 33.2667 44.9629 41.8216C44.9629 42.1444 45.0464 42.6286 44.8793 42.8707C44.6286 43.1936 44.2107 43.5971 43.7928 43.6778C43.5421 43.6778 43.0406 43.2743 42.8735 42.8707C42.7064 42.4672 42.7064 41.9023 42.7064 41.418C42.7064 34.6387 42.7064 27.8594 42.7064 21.0801C42.7064 19.8695 42.7899 18.6589 42.8735 17.4483C42.8735 16.5605 42.4556 16.157 41.5363 16.157C39.447 16.157 37.274 16.2377 35.1847 15.9149C31.2567 15.2692 28.9166 12.3638 28.7495 8.57062C28.6659 7.0372 28.6659 5.42308 28.7495 3.88966C28.7495 2.84048 28.3316 2.43695 27.2451 2.43695C20.8935 2.43695 14.5419 2.43695 8.19026 2.51765C4.59657 2.59836 2.34007 5.10025 2.2565 9.13556C2.17293 12.1217 2.2565 15.0271 2.2565 18.0132C2.2565 30.2806 2.2565 42.6286 2.2565 54.896C2.2565 55.6223 2.34007 56.4294 2.42365 57.1557C2.84152 60.384 5.18159 62.4016 8.52456 62.4823C12.7868 62.5631 17.0491 62.4823 21.3114 62.4823C21.7293 62.4823 22.2307 62.4016 22.565 62.5631C22.9829 62.8052 23.3172 63.2087 23.6515 63.5315C23.3172 63.8544 22.8993 64.4193 22.4814 64.4193C21.5621 64.5807 20.6428 64.5 19.7235 64.5C15.9626 64.5 12.2018 64.5 8.44098 64.5C3.76083 64.5 0.167148 61.0296 0.167148 56.5101C0 48.4395 0 40.4496 0 32.4596ZM30.6717 4.61601C30.5045 7.36003 30.0031 10.104 32.2596 12.4445C34.5997 14.785 37.5248 14.4622 40.4499 14.2201C37.1905 10.9918 34.0147 7.84426 30.6717 4.61601Z" fill="#39629C"/>
<path d="M17.6748 53.1987C17.6748 51.8267 17.6748 50.4547 17.6748 49.002C17.6748 48.0335 18.0783 47.63 19.0468 47.63C19.8539 47.63 20.6609 47.63 21.468 47.63C24.9384 47.63 27.1174 50.2126 26.6332 53.683C26.4718 54.7321 26.0682 55.862 25.584 56.8305C25.0998 57.9604 24.0506 58.606 22.84 58.606C21.5487 58.6868 20.2574 58.606 18.9661 58.606C18.0783 58.606 17.6748 58.2025 17.6748 57.234C17.6748 55.9427 17.6748 54.5707 17.6748 53.1987ZM24.2927 53.0373C24.212 50.4547 23.3242 49.4862 21.2259 49.567C20.4995 49.567 20.0153 49.8091 20.0153 50.6968C20.0153 52.311 20.0153 53.9251 20.0153 55.5392C20.0153 55.862 20.1767 56.3463 20.4995 56.5884C21.5487 57.234 23.4857 56.5077 23.8892 55.3778C24.1313 54.5707 24.212 53.7637 24.2927 53.0373Z" fill="#39629C"/>
<path d="M6.69873 53.2753C6.69873 51.9033 6.69873 50.5313 6.69873 49.0786C6.69873 48.1908 7.10226 47.6259 8.07074 47.6259C9.28133 47.6259 10.5726 47.5452 11.7832 47.6259C14.043 47.868 14.6886 48.6751 14.6886 50.8541C14.6886 52.8718 13.6395 54.2438 11.7025 54.5666C10.8147 54.728 9.68486 54.5666 9.20062 55.0509C8.71638 55.5351 8.9585 56.665 8.9585 57.472C8.8778 58.1984 8.79709 59.0055 7.90932 59.0055C6.94085 59.0055 6.69873 58.1984 6.69873 57.3913C6.69873 56.0193 6.69873 54.6473 6.69873 53.2753ZM10.2498 52.549C11.7832 52.549 12.4289 52.0647 12.3482 51.0156C12.3482 49.7243 11.3797 49.5628 10.4112 49.4821C9.20062 49.4014 9.03921 50.0471 9.03921 51.0963C9.03921 51.984 9.20062 52.7104 10.2498 52.549Z" fill="#39629C"/>
<path d="M33.0893 47.47C34.0578 47.5507 34.9456 47.5507 35.8334 47.6314C36.2369 47.7121 36.5597 48.1156 36.8825 48.3577C36.5597 48.6806 36.3176 49.2455 35.9948 49.3262C35.107 49.4876 34.1385 49.4876 33.1701 49.5683C32.4437 49.5683 31.7981 49.5683 31.7981 50.5368C31.7981 51.5053 32.2823 51.9088 33.2508 51.8281C33.8157 51.8281 34.3806 51.7474 34.8649 51.9088C35.3491 52.0702 35.7527 52.6352 36.1562 52.958C35.7527 53.2808 35.3491 53.6843 34.8649 53.8458C34.2999 54.0072 33.6543 53.9265 33.0086 53.9265C32.2016 53.9265 31.8788 54.33 31.8788 55.0564C31.8788 55.9441 31.9595 56.8319 31.7981 57.7197C31.7173 58.1232 31.0717 58.7688 30.7489 58.6881C30.3453 58.6881 29.6997 58.0425 29.6997 57.6389C29.619 54.5721 29.619 51.586 29.6997 48.5192C29.6997 48.1963 30.2646 47.6314 30.6682 47.5507C31.3945 47.47 32.2823 47.5507 33.0893 47.47Z" fill="#39629C"/>
<path d="M14.7694 9.29696C12.5903 9.29696 10.492 9.37767 8.31292 9.21625C7.82869 9.21625 7.42516 8.65131 6.94092 8.32849C7.34445 8.00566 7.74798 7.44072 8.23222 7.44072C12.6711 7.36001 17.1099 7.36001 21.468 7.44072C21.8716 7.44072 22.2751 8.00566 22.5979 8.24778C22.1944 8.5706 21.7909 9.13555 21.3873 9.13555C19.289 9.37767 17.0292 9.29696 14.7694 9.29696Z" fill="#39629C"/>
<path d="M10.504 40V34.536H11.608V40H10.504ZM12.7172 40V35.984H13.7812V36.24C13.8665 36.1867 13.9705 36.136 14.0932 36.088C14.2159 36.0347 14.3439 35.9893 14.4772 35.952C14.6159 35.9147 14.7492 35.896 14.8772 35.896C15.2505 35.896 15.5385 35.9627 15.7412 36.096C15.9492 36.224 16.0959 36.4373 16.1812 36.736C16.2665 37.0293 16.3092 37.424 16.3092 37.92V40H15.2372V37.976C15.2372 37.6987 15.2212 37.4773 15.1892 37.312C15.1572 37.1413 15.0959 37.0187 15.0052 36.944C14.9145 36.8693 14.7812 36.832 14.6052 36.832C14.5092 36.832 14.4079 36.8427 14.3012 36.864C14.1999 36.88 14.1012 36.904 14.0052 36.936C13.9145 36.968 13.8399 37 13.7812 37.032V40H12.7172ZM17.9311 40L16.9791 35.984H18.1231L18.7951 39.096H19.0271L19.7151 35.984H20.7951L19.8431 40H17.9311ZM23.2417 40.088C22.7884 40.088 22.4231 40.0133 22.1457 39.864C21.8737 39.7147 21.6764 39.4853 21.5537 39.176C21.4311 38.8613 21.3697 38.456 21.3697 37.96C21.3697 37.48 21.4337 37.0907 21.5617 36.792C21.6897 36.488 21.8924 36.264 22.1697 36.12C22.4471 35.9707 22.8044 35.896 23.2417 35.896C23.6844 35.896 24.0417 35.9707 24.3137 36.12C24.5911 36.264 24.7937 36.488 24.9217 36.792C25.0551 37.0907 25.1217 37.48 25.1217 37.96C25.1217 38.456 25.0604 38.8613 24.9377 39.176C24.8151 39.4853 24.6151 39.7147 24.3377 39.864C24.0657 40.0133 23.7004 40.088 23.2417 40.088ZM23.2417 39.208C23.4657 39.208 23.6337 39.168 23.7457 39.088C23.8577 39.0027 23.9324 38.8693 23.9697 38.688C24.0124 38.5013 24.0337 38.2587 24.0337 37.96C24.0337 37.6667 24.0097 37.4347 23.9617 37.264C23.9137 37.088 23.8337 36.9627 23.7217 36.888C23.6097 36.8133 23.4497 36.776 23.2417 36.776C23.0391 36.776 22.8791 36.8133 22.7617 36.888C22.6497 36.9627 22.5697 37.088 22.5217 37.264C22.4737 37.4347 22.4497 37.6667 22.4497 37.96C22.4497 38.2587 22.4684 38.5013 22.5057 38.688C22.5484 38.8693 22.6257 39.0027 22.7377 39.088C22.8497 39.168 23.0177 39.208 23.2417 39.208ZM26.0097 40V35.984H27.0737V40H26.0097ZM26.0097 35.344V34.432H27.0817V35.344H26.0097ZM29.7628 40.088C29.3041 40.088 28.9441 40.0187 28.6828 39.88C28.4268 39.736 28.2455 39.5067 28.1388 39.192C28.0375 38.8773 27.9868 38.464 27.9868 37.952C27.9868 37.4453 28.0455 37.0427 28.1628 36.744C28.2801 36.44 28.4695 36.224 28.7308 36.096C28.9975 35.9627 29.3441 35.896 29.7708 35.896C29.8828 35.896 30.0135 35.904 30.1628 35.92C30.3121 35.936 30.4615 35.9573 30.6108 35.984C30.7655 36.0053 30.8961 36.0267 31.0028 36.048L30.9628 36.904C30.8615 36.8933 30.7468 36.8853 30.6188 36.88C30.4908 36.8693 30.3655 36.8613 30.2428 36.856C30.1255 36.8453 30.0295 36.84 29.9548 36.84C29.7255 36.84 29.5441 36.8773 29.4108 36.952C29.2828 37.0213 29.1921 37.1387 29.1388 37.304C29.0908 37.464 29.0668 37.68 29.0668 37.952C29.0668 38.2453 29.0908 38.48 29.1388 38.656C29.1868 38.832 29.2721 38.9573 29.3948 39.032C29.5228 39.1067 29.7095 39.144 29.9548 39.144C30.0295 39.144 30.1281 39.1413 30.2508 39.136C30.3735 39.1253 30.4988 39.1147 30.6268 39.104C30.7601 39.0933 30.8775 39.0853 30.9788 39.08L31.0108 39.936C30.9041 39.9573 30.7761 39.9787 30.6268 40C30.4775 40.0267 30.3255 40.048 30.1708 40.064C30.0215 40.08 29.8855 40.088 29.7628 40.088ZM33.4849 40.088C33.0423 40.088 32.6903 40.0133 32.4289 39.864C32.1729 39.7147 31.9889 39.488 31.8769 39.184C31.7649 38.88 31.7089 38.4987 31.7089 38.04C31.7089 37.544 31.7783 37.1387 31.9169 36.824C32.0609 36.5093 32.2689 36.2773 32.5409 36.128C32.8129 35.9733 33.1489 35.896 33.5489 35.896C34.1409 35.896 34.5863 36.0453 34.8849 36.344C35.1889 36.6427 35.3409 37.1147 35.3409 37.76L35.2929 38.352H32.7809C32.7863 38.6507 32.8476 38.8747 32.9649 39.024C33.0823 39.1733 33.2849 39.248 33.5729 39.248C33.7383 39.248 33.9196 39.2453 34.1169 39.24C34.3143 39.2293 34.5089 39.2187 34.7009 39.208C34.8983 39.1973 35.0663 39.1867 35.2049 39.176L35.2289 39.92C35.0956 39.9413 34.9276 39.9653 34.7249 39.992C34.5223 40.0187 34.3116 40.04 34.0929 40.056C33.8796 40.0773 33.6769 40.088 33.4849 40.088ZM32.7809 37.672H34.2769C34.2769 37.3093 34.2183 37.056 34.1009 36.912C33.9889 36.768 33.8049 36.696 33.5489 36.696C33.2983 36.696 33.1063 36.7707 32.9729 36.92C32.8449 37.0693 32.7809 37.32 32.7809 37.672Z" fill="#39629C"/>
<path d="M4.48 27V24.276C4.48 23.484 4.604 22.848 4.852 22.368C5.1 21.88 5.468 21.528 5.956 21.312C6.444 21.088 7.044 20.976 7.756 20.976C8.476 20.976 9.08 21.088 9.568 21.312C10.056 21.528 10.424 21.88 10.672 22.368C10.92 22.848 11.044 23.484 11.044 24.276V27H4.48ZM6.088 26.328L5.32 25.608H10.204L9.448 26.328V24.312C9.448 23.832 9.4 23.452 9.304 23.172C9.208 22.884 9.036 22.68 8.788 22.56C8.548 22.432 8.204 22.368 7.756 22.368C7.316 22.368 6.972 22.432 6.724 22.56C6.484 22.68 6.316 22.884 6.22 23.172C6.132 23.452 6.088 23.832 6.088 24.312V26.328ZM6.22 20.256V18.888H7.828V20.256H6.22ZM7.864 20.256V18.888H9.472V20.256H7.864ZM12.2194 29.976C12.1154 29.976 12.0034 29.972 11.8834 29.964C11.7634 29.956 11.6394 29.944 11.5114 29.928L11.5714 28.56C11.6994 28.568 11.8194 28.576 11.9314 28.584C12.0514 28.592 12.1394 28.596 12.1954 28.596C12.5074 28.596 12.7554 28.472 12.9394 28.224C13.1314 27.976 13.2274 27.628 13.2274 27.18V20.976H14.8354V27.18C14.8354 27.724 14.7234 28.208 14.4994 28.632C14.2834 29.056 13.9794 29.384 13.5874 29.616C13.1954 29.856 12.7394 29.976 12.2194 29.976ZM22.0503 27V25.608H23.3103V27H22.0503ZM18.8103 29.976C18.5143 29.976 18.2023 29.952 17.8743 29.904C17.5543 29.864 17.2103 29.808 16.8423 29.736L17.0823 28.452C17.4823 28.5 17.8223 28.536 18.1023 28.56C18.3823 28.584 18.6183 28.596 18.8103 28.596C19.3863 28.596 19.8023 28.492 20.0583 28.284C20.3143 28.076 20.4423 27.764 20.4423 27.348V22.08L20.8383 22.368H19.3383C19.0103 22.368 18.7463 22.408 18.5463 22.488C18.3463 22.56 18.1983 22.716 18.1023 22.956C18.0143 23.188 17.9703 23.544 17.9703 24.024C17.9703 24.48 18.0103 24.824 18.0903 25.056C18.1783 25.28 18.3223 25.428 18.5223 25.5C18.7223 25.572 18.9943 25.608 19.3383 25.608H20.4423V27H19.3383C18.6583 27 18.0983 26.892 17.6583 26.676C17.2183 26.46 16.8903 26.132 16.6743 25.692C16.4663 25.252 16.3623 24.696 16.3623 24.024C16.3623 23.352 16.4663 22.792 16.6743 22.344C16.8903 21.888 17.2183 21.548 17.6583 21.324C18.0983 21.092 18.6583 20.976 19.3383 20.976H22.0503V27.348C22.0503 27.892 21.9143 28.36 21.6423 28.752C21.3783 29.152 21.0023 29.456 20.5143 29.664C20.0343 29.872 19.4663 29.976 18.8103 29.976ZM23.3103 27V25.608C23.4063 25.608 23.4703 25.672 23.5023 25.8C23.5343 25.92 23.5503 26.088 23.5503 26.304C23.5503 26.512 23.5343 26.68 23.5023 26.808C23.4703 26.936 23.4063 27 23.3103 27ZM23.552 27V25.608H26.396L25.46 26.388V20.976H27.056V27H23.552ZM23.552 27C23.456 27 23.392 26.936 23.36 26.808C23.328 26.68 23.312 26.512 23.312 26.304C23.312 26.088 23.328 25.92 23.36 25.8C23.392 25.672 23.456 25.608 23.552 25.608V27ZM24.032 20.256V18.888H25.64V20.256H24.032ZM25.676 20.256V18.888H27.284V20.256H25.676ZM30.8508 27V25.608H32.2188V27H30.8508ZM29.2548 27V18.516H30.8508V27H29.2548ZM32.2188 27V25.608C32.3148 25.608 32.3788 25.672 32.4108 25.8C32.4428 25.92 32.4588 26.088 32.4588 26.304C32.4588 26.512 32.4428 26.68 32.4108 26.808C32.3788 26.936 32.3148 27 32.2188 27ZM32.4578 27V25.608H38.0618L37.5698 26.028V22.02L37.9778 22.368H36.4658C36.1138 22.368 35.8378 22.412 35.6378 22.5C35.4378 22.588 35.2978 22.752 35.2178 22.992C35.1378 23.224 35.0978 23.556 35.0978 23.988C35.0978 24.46 35.1378 24.812 35.2178 25.044C35.2978 25.268 35.4378 25.42 35.6378 25.5C35.8378 25.572 36.1138 25.608 36.4658 25.608V26.856C35.7858 26.856 35.2258 26.76 34.7858 26.568C34.3458 26.376 34.0178 26.072 33.8018 25.656C33.5938 25.232 33.4898 24.676 33.4898 23.988C33.4898 23.332 33.5938 22.78 33.8018 22.332C34.0178 21.884 34.3458 21.548 34.7858 21.324C35.2258 21.092 35.7858 20.976 36.4658 20.976H39.1778V27H32.4578ZM32.4578 27C32.3618 27 32.2978 26.936 32.2658 26.808C32.2338 26.68 32.2178 26.512 32.2178 26.304C32.2178 26.088 32.2338 25.92 32.2658 25.8C32.2978 25.672 32.3618 25.608 32.4578 25.608V27ZM35.8298 19.872V18.504H37.4378V19.872H35.8298Z" fill="#39629C"/>
</g>
<defs>
<clipPath id="clip0_514_1204">
<rect width="45" height="65" fill="white"/>
</clipPath>
</defs>
</svg>
