<svg width="1280" height="719" viewBox="0 0 1280 719" fill="none" xmlns="http://www.w3.org/2000/svg">
<mask id="mask0_1333_23608" style="mask-type:luminance" maskUnits="userSpaceOnUse" x="0" y="0" width="1280" height="719">
<path d="M0 718.255H1280V0H4.77783L0 718.255Z" fill="white"/>
</mask>
<g mask="url(#mask0_1333_23608)">
<g opacity="0.6">
<path d="M2192.74 190.984C2162.23 182.063 2124.73 185.626 2099.31 195.854C2073.89 206.096 2058.63 221.869 2047.5 238.001C2018.88 279.401 2013.08 325.154 1995.26 368.709C1977.46 412.264 1944.24 456.063 1876.04 480.311C1769.57 518.163 1619.47 497.018 1486.04 481.676C1451.14 477.668 1414.39 474.163 1381.97 479.708C1340.46 486.79 1313.73 507.806 1303.07 530.359C1292.41 552.913 1295.27 577.204 1297.24 601.064C1303.6 677.86 1298.62 757.428 1232.32 822.114C1166.03 886.8 986.564 954.862 742.571 925.658" stroke="#AFB7C2" stroke-width="1.0778" stroke-miterlimit="10"/>
<path opacity="0.9829" d="M748.046 929.694C884.274 944.462 998.84 926.75 1084.28 896.396C1145.27 874.734 1191.3 846.693 1218.53 819.198C1243.84 793.786 1260.52 766.234 1271.52 737.676C1275.77 726.586 1279.17 715.353 1281.9 704.076C1288.4 677.386 1291.02 650.566 1291.39 623.977C1291.51 616.176 1291.43 608.39 1291.24 600.648C1290.83 584.343 1289.95 567.852 1293.64 551.936C1295.12 545.428 1297.43 539.021 1300.83 532.715C1306.51 522.372 1315.74 512.288 1328.17 503.54C1341.81 493.944 1358.84 486.158 1379.64 482.136C1387.68 480.584 1395.96 479.636 1404.43 479.148C1428.69 477.711 1454.4 479.938 1479.16 482.452C1503.81 484.951 1529.08 487.652 1554.53 490.108C1619.24 496.371 1685.08 500.968 1746.32 496.371C1785.53 493.455 1822.87 486.833 1856.35 474.666C1878.23 466.722 1896.73 456.867 1912.46 445.778C1945.7 422.362 1966.27 393.474 1979.96 364.744C1993.72 335.727 2002 305.761 2015.58 276.528C2021.84 263.111 2029.19 249.838 2038.69 236.938C2050.46 220.964 2066.17 205.263 2091.76 194.92C2117.35 184.577 2154.7 180.727 2185.17 189.059" stroke="#AFB7C2" stroke-width="1.069" stroke-miterlimit="10"/>
<path opacity="0.9659" d="M750.46 933.329C880.703 945.855 989.471 926.462 1071.66 894.888C1130.15 872.421 1174.85 843.906 1201.7 815.88C1226.59 790.138 1243.46 762.399 1255.26 733.798C1259.82 722.708 1263.61 711.489 1266.87 700.327C1274.61 673.91 1278.96 647.909 1280.95 622.267C1281.53 614.74 1281.94 607.241 1282.21 599.8C1282.79 584.113 1282.89 568.283 1287.4 553.071C1289.2 546.836 1291.8 540.702 1295.56 534.654C1301.75 524.714 1311.57 514.96 1324.17 506.168C1338.01 496.515 1354.41 488.442 1374.3 484.118C1381.98 482.452 1389.89 481.374 1397.98 480.771C1421.11 478.975 1445.66 480.742 1469.26 482.782C1492.78 484.808 1516.87 487.034 1541.17 489.031C1602.9 494.102 1665.71 497.478 1725.26 491.789C1763.39 488.212 1800.22 481.044 1833.67 468.618C1855.52 460.502 1874.24 450.604 1890.36 439.615C1924.45 416.387 1946.38 388.274 1961.67 360.392C1976.97 332.222 1986.97 303.175 2002.01 274.488C2008.95 261.33 2016.91 248.243 2026.91 235.458C2039.3 219.642 2055.47 203.999 2081.21 193.57C2106.97 183.126 2144.16 178.989 2174.61 186.703" stroke="#AFB7C2" stroke-width="1.0603" stroke-miterlimit="10"/>
<path opacity="0.9488" d="M749.985 936.604C874.226 946.875 977.213 925.83 1056.14 893.02C1112.11 869.749 1155.39 840.703 1181.96 812.202C1206.31 786.101 1223.5 758.19 1236.12 729.56C1240.98 718.47 1245.16 707.28 1248.95 696.233C1257.93 670.088 1264.02 644.921 1267.61 620.213C1268.66 612.958 1269.53 605.762 1270.28 598.608C1271.84 583.539 1273 568.398 1278.25 553.86C1280.41 547.913 1283.28 542.038 1287.4 536.249C1294.15 526.725 1304.5 517.287 1317.29 508.452C1331.33 498.756 1347.08 490.41 1366.05 485.77C1373.38 483.974 1380.93 482.811 1388.62 482.049C1410.62 479.909 1434 481.187 1456.44 482.753C1478.8 484.305 1501.75 486.057 1524.86 487.58C1583.64 491.458 1643.36 493.527 1701.27 486.819C1738.3 482.538 1774.65 474.852 1808.06 462.168C1829.88 453.894 1848.82 443.939 1865.33 433.036C1900.25 409.994 1923.58 382.672 1940.45 355.622C1957.28 328.285 1969.01 300.159 1985.51 272.046C1993.14 259.132 2001.68 246.232 2012.18 233.591C2025.21 217.933 2041.82 202.361 2067.75 191.831C2093.68 181.287 2130.69 176.849 2161.13 183.974" stroke="#AFB7C2" stroke-width="1.0515" stroke-miterlimit="10"/>
<path opacity="0.9317" d="M746.839 939.592C865.077 947.608 962.266 924.911 1037.95 890.866C1091.4 866.819 1133.33 837.255 1159.55 808.223C1183.44 781.792 1200.87 753.679 1214.28 725.035C1219.45 713.945 1224.03 702.769 1228.35 691.852C1238.55 665.98 1246.39 641.631 1251.57 617.872C1253.1 610.905 1254.45 603.98 1255.65 597.114C1258.2 582.663 1260.36 568.197 1266.42 554.349C1268.9 548.675 1272.09 543.072 1276.53 537.542C1283.84 528.42 1294.73 519.298 1307.68 510.435C1321.93 500.695 1337.03 492.062 1355.1 487.12C1362.07 485.21 1369.25 483.917 1376.56 483.041C1397.44 480.541 1419.63 481.346 1440.95 482.452C1462.17 483.529 1483.95 484.808 1505.89 485.856C1561.71 488.528 1618.34 489.361 1674.59 481.59C1710.53 476.62 1746.39 468.403 1779.77 455.474C1801.57 447.042 1820.69 437.044 1837.61 426.227C1873.37 403.372 1898.19 376.868 1916.54 350.609C1935.04 324.148 1948.37 296.898 1966.33 269.36C1974.64 256.704 1983.79 243.991 1994.79 231.465C2008.44 215.965 2025.51 200.465 2051.6 189.835C2077.69 179.19 2114.52 174.45 2144.94 180.986" stroke="#AFB7C2" stroke-width="1.0427" stroke-miterlimit="10"/>
<path opacity="0.9146" d="M741.211 942.365C853.447 948.125 944.821 923.805 1017.27 888.481C1068.19 863.658 1108.8 833.578 1134.68 804.029C1158.12 777.266 1175.77 748.953 1189.99 720.28C1195.46 709.19 1200.43 698.043 1205.26 687.226C1216.7 661.627 1226.27 638.112 1233.07 615.286C1235.06 608.592 1236.88 601.955 1238.56 595.39C1242.12 581.556 1245.26 567.766 1252.12 554.593C1254.92 549.206 1258.44 543.862 1263.2 538.59C1271.07 529.885 1282.5 521.079 1295.63 512.173C1310.08 502.376 1324.53 493.484 1341.69 488.227C1348.3 486.201 1355.12 484.793 1362.02 483.788C1381.78 480.929 1402.8 481.259 1422.96 481.906C1443.03 482.509 1463.65 483.314 1484.43 483.888C1537.27 485.368 1590.85 484.951 1645.43 476.102C1680.28 470.457 1715.65 461.694 1748.99 448.521C1770.76 439.917 1790.11 429.875 1807.42 419.145C1844.01 396.462 1870.22 370.763 1890.15 345.337C1910.22 319.724 1925.25 293.393 1944.65 266.415C1953.66 254.018 1963.4 241.492 1974.91 229.095C1989.19 213.738 2006.72 198.325 2032.96 187.594C2059.23 176.849 2095.89 171.807 2126.29 177.739" stroke="#AFB7C2" stroke-width="1.034" stroke-miterlimit="10"/>
<path opacity="0.8976" d="M733.305 945.008C839.539 948.513 925.098 922.584 994.317 885.981C1042.71 860.397 1082 829.785 1107.51 799.719C1130.49 772.626 1148.38 744.112 1163.41 715.424C1169.18 704.335 1174.55 693.216 1179.9 682.514C1192.59 657.188 1203.9 634.492 1212.3 612.614C1214.76 606.192 1217.04 599.843 1219.2 593.565C1223.74 580.35 1227.89 567.234 1235.54 554.751C1238.67 549.637 1242.51 544.566 1247.61 539.538C1256.04 531.235 1268 522.76 1281.31 513.81C1295.97 503.97 1309.77 494.791 1326.03 489.217C1332.29 487.077 1338.73 485.54 1345.26 484.42C1363.91 481.202 1383.74 481.072 1402.75 481.231C1421.67 481.374 1441.12 481.69 1460.73 481.805C1510.61 482.092 1561.11 480.426 1614.02 470.514C1647.78 464.193 1682.67 454.899 1715.96 441.453C1737.69 432.691 1757.26 422.592 1774.96 411.962C1812.38 389.466 1840.01 364.572 1861.5 339.964C1883.13 315.199 1899.86 289.772 1920.72 263.355C1930.42 251.217 1940.77 238.877 1952.77 226.609C1967.69 211.411 1985.67 196.055 2012.08 185.238C2038.52 174.406 2075.01 169.063 2105.39 174.392" stroke="#AFB7C2" stroke-width="1.0252" stroke-miterlimit="10"/>
<path opacity="0.8805" d="M723.307 947.565C823.539 948.814 903.266 921.291 969.272 883.396C1015.15 857.065 1053.11 825.907 1078.24 795.323C1100.79 767.9 1118.9 739.185 1134.73 710.469C1140.8 699.365 1146.56 688.275 1152.44 677.688C1166.37 652.635 1179.41 630.771 1189.41 609.841C1192.35 603.693 1195.1 597.631 1197.72 591.655C1203.25 579.071 1208.38 566.631 1216.85 554.823C1220.3 549.996 1224.47 545.198 1229.89 540.415C1238.89 532.514 1251.37 524.369 1264.87 515.376C1279.73 505.479 1292.89 496.041 1308.24 490.151C1314.14 487.882 1320.23 486.244 1326.35 484.994C1343.88 481.417 1362.52 480.814 1380.39 480.512C1398.15 480.182 1416.45 480.024 1434.9 479.665C1481.83 478.76 1529.25 475.844 1580.49 464.854C1613.16 457.859 1647.55 448.019 1680.81 434.329C1702.51 425.408 1722.28 415.266 1740.39 404.708C1778.65 382.399 1807.67 358.294 1830.74 334.52C1853.94 310.616 1872.27 286.052 1894.69 260.238C1905.01 248.344 1916.01 236.205 1928.53 224.052C1944.07 209.012 1962.5 193.728 1989.08 182.81C2015.69 171.878 2052 166.233 2082.35 170.973" stroke="#AFB7C2" stroke-width="1.0165" stroke-miterlimit="10"/>
<path opacity="0.8634" d="M711.439 950.136C805.687 949.131 879.565 920.041 942.374 880.825C985.714 853.761 1022.36 822.043 1047.13 790.942C1069.23 763.189 1087.54 734.286 1104.21 705.542C1110.58 694.438 1116.74 683.376 1123.15 672.904C1138.3 648.124 1153.09 627.08 1164.7 607.098C1168.1 601.237 1171.34 595.448 1174.41 589.773C1180.93 577.807 1187.06 566.042 1196.31 554.924C1200.1 550.37 1204.58 545.845 1210.32 541.32C1219.88 533.821 1232.89 526.007 1246.56 516.971C1261.62 507.031 1274.14 497.306 1288.57 491.114C1294.13 488.73 1299.83 486.963 1305.57 485.598C1321.98 481.662 1339.44 480.613 1356.17 479.823C1372.8 479.033 1389.93 478.387 1407.2 477.553C1451.15 475.456 1495.51 471.29 1545.11 459.238C1576.67 451.567 1610.59 441.181 1643.81 427.232C1665.49 418.139 1685.47 407.955 1703.97 397.482C1743.06 375.36 1773.5 352.046 1798.13 329.105C1822.89 306.049 1842.9 282.389 1866.79 257.15C1877.81 245.514 1889.4 233.548 1902.41 221.539C1918.56 206.657 1937.47 191.444 1964.22 180.426C1991 169.393 2027.15 163.446 2057.48 167.583" stroke="#AFB7C2" stroke-width="1.0077" stroke-miterlimit="10"/>
<path opacity="0.8463" d="M697.854 952.765C786.1 949.504 854.163 918.863 913.741 878.31C954.565 850.528 989.88 818.236 1014.3 786.618C1035.96 758.534 1054.49 729.431 1071.95 700.657C1078.64 689.553 1085.18 678.521 1092.12 668.164C1108.51 643.657 1125.04 623.445 1138.25 604.397C1142.12 598.809 1145.83 593.321 1149.37 587.92C1156.87 576.572 1164.01 565.482 1174.06 555.038C1178.17 550.772 1182.97 546.506 1189.05 542.239C1199.19 535.143 1212.72 527.659 1226.56 518.594C1241.83 508.611 1253.68 498.612 1267.23 492.105C1272.44 489.605 1277.77 487.724 1283.11 486.23C1298.42 481.935 1314.69 480.412 1330.26 479.148C1345.75 477.898 1361.7 476.763 1377.8 475.456C1418.8 472.166 1460.08 466.765 1508.01 453.621C1538.48 445.275 1571.91 434.343 1605.1 420.15C1626.74 410.899 1646.94 400.657 1665.83 390.285C1705.77 368.35 1737.59 345.84 1763.8 323.717C1790.12 301.509 1811.84 278.755 1837.19 254.09C1848.89 242.713 1861.1 230.933 1874.6 219.039C1891.38 204.3 1910.74 189.174 1937.64 178.055C1964.59 166.922 2000.57 160.674 2030.89 164.222" stroke="#AFB7C2" stroke-width="0.9989" stroke-miterlimit="10"/>
<path opacity="0.8293" d="M682.79 955.523C765.033 950.021 827.281 917.829 883.629 875.926C921.937 847.44 955.943 814.573 979.968 782.424C1001.2 754.024 1019.94 724.705 1038.22 695.917C1045.21 684.813 1052.15 673.795 1059.59 663.553C1077.22 639.319 1095.49 619.926 1110.3 601.826C1114.65 596.511 1118.81 591.311 1122.83 586.211C1131.33 575.48 1139.44 565.08 1150.3 555.312C1154.74 551.332 1159.86 547.325 1166.27 543.302C1176.98 536.608 1191.03 529.455 1205.05 520.347C1220.53 510.306 1231.73 500.049 1244.38 493.211C1249.23 490.597 1254.19 488.6 1259.16 486.963C1273.35 482.308 1288.44 480.311 1302.85 478.588C1317.2 476.864 1331.98 475.255 1346.93 473.474C1384.94 468.992 1423.15 462.355 1469.43 448.134C1498.8 439.112 1531.75 427.649 1564.9 413.183C1586.51 403.774 1606.92 393.489 1626.2 383.189C1666.97 361.44 1700.18 339.72 1727.98 318.431C1755.85 297.085 1779.28 275.221 1806.07 251.116C1818.45 239.998 1831.26 228.405 1845.27 216.64C1862.68 202.06 1882.5 186.991 1909.55 175.772C1936.67 164.538 1972.48 158.002 2002.78 160.947" stroke="#AFB7C2" stroke-width="0.9902" stroke-miterlimit="10"/>
<path opacity="0.8122" d="M666.466 958.54C742.707 950.783 799.14 917.082 852.257 873.8C888.065 844.624 920.728 811.154 944.379 778.488C965.174 749.757 984.132 720.237 1003.21 691.421C1010.5 680.317 1017.83 669.327 1025.81 659.2C1044.68 635.239 1064.69 616.679 1081.1 599.513C1085.91 594.485 1090.55 589.558 1095.04 584.76C1104.53 574.661 1113.63 564.936 1125.31 555.843C1130.07 552.137 1135.53 548.402 1142.24 544.638C1153.53 538.346 1168.09 531.509 1182.28 522.372C1197.96 512.288 1208.52 501.758 1220.25 494.605C1224.74 491.875 1229.35 489.749 1233.91 487.997C1247 482.983 1260.89 480.527 1274.17 478.329C1287.36 476.146 1300.98 474.048 1314.75 471.807C1349.81 466.133 1384.94 458.247 1429.56 442.948C1457.83 433.251 1490.29 421.242 1523.42 406.532C1545.01 396.951 1565.62 386.622 1585.29 376.423C1626.9 354.861 1661.5 333.946 1690.88 313.475C1720.31 292.976 1745.42 272.018 1773.7 248.488C1786.76 237.613 1800.17 226.222 1814.69 214.586C1832.73 200.163 1853 185.166 1880.24 173.847C1907.53 162.512 1943.17 155.675 1973.43 158.031" stroke="#AFB7C2" stroke-width="0.9814" stroke-miterlimit="10"/>
<path opacity="0.7951" d="M649.105 962.001C719.345 951.989 769.996 916.795 819.849 872.105C853.175 842.24 884.494 808.18 907.754 774.982C928.124 745.922 947.286 716.2 967.18 687.37C974.763 676.265 982.5 665.29 991.001 655.292C1011.1 631.604 1032.86 613.878 1050.87 597.645C1056.16 592.89 1061.27 588.25 1066.22 583.74C1076.7 574.259 1086.78 565.209 1099.28 556.791C1104.36 553.372 1110.14 549.896 1117.2 546.391C1129.07 540.501 1144.15 533.994 1158.51 524.814C1174.39 514.687 1184.29 503.884 1195.14 496.414C1199.27 493.57 1203.52 491.315 1207.69 489.447C1219.67 484.075 1232.37 481.144 1244.5 478.472C1256.55 475.815 1269 473.243 1281.62 470.528C1313.72 463.662 1345.75 454.54 1388.72 438.164C1415.89 427.807 1447.87 415.237 1480.94 400.269C1502.5 390.529 1523.33 380.143 1543.39 370.03C1585.83 348.641 1621.83 328.53 1652.79 308.892C1683.77 289.241 1710.6 269.187 1740.32 246.232C1754.06 235.616 1768.09 224.397 1783.1 212.891C1801.77 198.612 1822.5 183.701 1849.89 172.28C1877.35 160.846 1912.82 153.706 1943.06 155.459" stroke="#AFB7C2" stroke-width="0.9726" stroke-miterlimit="10"/>
<path opacity="0.778" d="M630.947 966.024C695.201 953.756 740.055 917.097 786.643 870.985C817.487 840.459 847.446 805.767 870.332 772.052C890.276 742.676 909.643 712.753 930.335 683.879C938.225 672.775 946.352 661.829 955.381 651.931C976.719 628.516 1000.22 611.609 1019.82 596.339C1025.59 591.857 1031.16 587.504 1036.59 583.295C1048.05 574.432 1059.12 566.071 1072.43 558.328C1077.82 555.197 1083.96 551.979 1091.32 548.733C1103.78 543.245 1119.36 537.068 1133.91 527.846C1150 517.661 1159.25 506.614 1169.19 498.814C1172.97 495.855 1176.84 493.484 1180.62 491.488C1191.5 485.742 1203.01 482.366 1213.98 479.22C1224.89 476.088 1236.17 473.043 1247.61 469.854C1276.74 461.781 1305.71 451.452 1347.03 433.97C1373.11 422.937 1404.6 409.822 1437.64 394.609C1459.16 384.712 1480.19 374.283 1500.67 364.256C1543.94 343.053 1581.31 323.746 1613.87 304.928C1646.4 286.139 1674.95 266.976 1706.13 244.595C1720.57 234.238 1735.17 223.205 1750.69 211.828C1769.99 197.707 1791.18 182.854 1818.74 171.347C1846.37 159.812 1881.67 152.371 1911.9 153.534" stroke="#AFB7C2" stroke-width="0.9639" stroke-miterlimit="10"/>
<path opacity="0.761" d="M612.176 970.649C670.428 956.126 709.552 918.001 752.841 870.467C781.236 839.295 809.818 803.971 832.313 769.725C851.833 740.032 871.403 709.894 892.912 681.006C901.107 669.887 909.626 658.984 919.164 649.202C941.744 626.06 966.977 609.985 988.196 595.649C994.419 591.44 1000.47 587.374 1006.37 583.467C1018.82 575.221 1030.87 567.55 1045 560.483C1050.72 557.624 1057.19 554.679 1064.86 551.691C1077.92 546.606 1093.99 540.76 1108.73 531.494C1125.02 521.266 1133.62 509.946 1142.65 501.83C1146.07 498.756 1149.59 496.257 1152.97 494.145C1162.75 488.025 1173.09 484.19 1182.9 480.584C1192.67 476.979 1202.77 473.459 1213.04 469.796C1239.21 460.531 1265.11 448.967 1304.76 430.407C1329.73 418.714 1360.75 405.053 1393.75 389.567C1415.24 379.497 1436.5 369.025 1457.36 359.084C1501.46 338.068 1540.21 319.552 1574.37 301.566C1608.45 283.624 1638.71 265.366 1671.34 243.546C1686.46 233.447 1701.67 222.602 1717.69 211.339C1737.62 197.376 1759.26 182.595 1786.98 170.988C1814.78 159.352 1849.91 151.624 1880.12 152.184" stroke="#AFB7C2" stroke-width="0.9551" stroke-miterlimit="10"/>
<path opacity="0.7439" d="M592.996 975.979C645.246 959.2 678.64 919.639 718.614 870.654C744.578 838.835 771.765 802.865 793.886 768.102C812.98 738.079 832.755 707.739 855.063 678.822C863.564 667.704 872.457 656.815 882.54 647.148C906.361 624.278 933.327 609.023 956.145 595.634C962.845 591.713 969.374 587.92 975.733 584.3C989.182 576.672 1002.19 569.677 1017.15 563.299C1023.17 560.727 1030.01 558.041 1038 555.297C1051.65 550.614 1068.23 545.098 1083.12 535.789C1099.62 525.518 1107.57 513.94 1115.7 505.479C1118.76 502.29 1121.92 499.661 1124.9 497.434C1133.57 490.941 1142.72 486.646 1151.37 482.567C1160.03 478.501 1168.94 474.493 1178.05 470.356C1201.24 459.898 1224.08 447.114 1262.06 427.448C1285.95 415.094 1316.47 400.872 1349.44 385.143C1370.92 374.915 1392.37 364.385 1413.63 354.545C1458.58 333.716 1498.71 315.989 1534.45 298.837C1570.07 281.743 1602.05 264.39 1636.14 243.144C1651.94 233.304 1667.77 222.645 1684.28 211.512C1704.82 197.707 1726.92 182.997 1754.81 171.289C1782.78 159.553 1817.74 151.523 1847.92 151.48" stroke="#AFB7C2" stroke-width="0.9464" stroke-miterlimit="10"/>
<path opacity="0.7268" d="M573.611 982.07C619.859 963.036 647.574 922.038 684.182 871.602C707.731 839.151 733.507 802.535 755.237 767.24C773.906 736.901 793.868 706.346 817.009 677.4C825.816 666.282 835.1 655.422 845.71 645.869C870.755 623.273 899.473 608.85 923.889 596.396C931.065 592.747 938.053 589.256 944.888 585.924C959.324 578.928 973.3 572.607 989.096 566.89C995.438 564.591 1002.61 562.178 1010.91 559.693C1025.16 555.427 1042.23 550.226 1057.31 540.875C1074.01 530.546 1081.32 518.709 1088.55 509.932C1091.27 506.628 1094.04 503.87 1096.64 501.529C1104.19 494.662 1112.16 489.907 1119.66 485.368C1127.18 480.829 1134.91 476.347 1142.85 471.75C1163.09 460.1 1182.84 446.094 1219.16 425.336C1241.96 412.307 1271.99 397.54 1304.93 381.566C1326.37 371.18 1348.05 360.607 1369.69 350.839C1415.48 330.196 1456.98 313.274 1494.32 296.941C1531.47 280.694 1565.19 264.246 1600.74 243.575C1617.24 233.993 1633.64 223.521 1650.66 212.503C1671.83 198.842 1694.4 184.218 1722.45 172.41C1750.59 160.573 1785.38 152.241 1815.54 151.609" stroke="#AFB7C2" stroke-width="0.9376" stroke-miterlimit="10"/>
<path opacity="0.7098" d="M554.229 989.023C594.475 967.748 616.544 925.328 649.751 873.412C670.903 840.344 695.268 803.066 716.59 767.24C734.834 736.585 754.999 705.815 778.94 676.855C788.036 665.736 797.728 654.905 808.865 645.467C835.151 623.144 865.604 609.54 891.635 598.033C899.286 594.658 906.751 591.454 914.045 588.423C929.467 582.045 944.395 576.4 961.041 571.372C967.69 569.361 975.239 567.206 983.825 564.979C998.686 561.115 1016.23 556.245 1031.5 546.851C1048.39 536.479 1055.08 524.384 1061.38 515.276C1063.74 511.857 1066.15 508.97 1068.35 506.513C1074.79 499.273 1081.58 494.059 1087.93 489.06C1094.31 484.046 1100.89 479.09 1107.66 474.02C1124.93 461.177 1141.61 445.95 1176.28 424.086C1197.99 410.397 1227.53 395.069 1260.41 378.836C1281.82 368.292 1303.7 357.662 1325.75 347.98C1372.38 327.524 1415.26 311.392 1454.2 295.892C1492.89 280.493 1528.33 264.95 1565.33 244.853C1582.5 235.516 1599.52 225.23 1617.03 214.356C1638.83 200.853 1661.85 186.287 1690.06 174.392C1718.37 162.455 1752.97 153.822 1783.13 152.601" stroke="#AFB7C2" stroke-width="0.9288" stroke-miterlimit="10"/>
<path opacity="0.6927" d="M535.033 996.895C569.294 973.365 585.719 929.537 615.508 876.142C634.297 842.455 657.2 804.517 678.13 768.159C695.966 737.174 716.319 706.203 741.075 677.214C750.478 666.095 760.56 655.278 772.225 645.955C799.752 623.905 831.939 611.134 859.569 600.562C867.679 597.459 875.62 594.543 883.39 591.799C899.798 586.039 915.696 581.083 933.175 576.73C940.129 574.992 948.035 573.124 956.945 571.142C972.417 567.694 990.458 563.126 1005.88 553.703C1022.97 543.288 1029.02 530.934 1034.41 521.496C1036.42 517.977 1038.46 514.946 1040.28 512.36C1045.6 504.732 1051.21 499.072 1056.41 493.599C1061.63 488.097 1067.06 482.682 1072.65 477.137C1086.95 463.102 1100.57 446.654 1133.57 423.699C1154.2 409.362 1183.24 393.475 1216.09 376.983C1237.48 366.267 1259.56 355.594 1282.01 346.012C1329.46 325.743 1373.7 310.401 1414.27 295.734C1454.5 281.183 1491.67 266.545 1530.13 247.008C1548 237.929 1565.62 227.831 1583.64 217.071C1606.07 203.726 1629.55 189.232 1657.93 177.237C1686.41 165.199 1720.84 156.278 1750.98 154.439" stroke="#AFB7C2" stroke-width="0.9201" stroke-miterlimit="10"/>
<path opacity="0.6756" d="M516.244 1005.77C544.503 979.987 555.351 934.766 581.672 879.862C598.113 845.558 619.554 806.945 640.094 770.07C657.522 738.768 678.061 707.596 703.617 678.579C713.326 667.46 723.799 656.672 735.973 647.464C764.742 625.686 798.663 613.734 827.891 604.124C836.478 601.309 844.877 598.665 853.124 596.223C870.518 591.081 887.368 586.8 905.697 583.122C912.957 581.672 921.238 580.063 930.436 578.339C946.504 575.308 965.037 571.056 980.646 561.604C997.938 551.131 1003.36 538.519 1007.83 528.751C1009.5 525.116 1011.17 521.956 1012.58 519.255C1016.78 511.24 1021.22 505.134 1025.26 499.202C1029.34 493.226 1033.59 487.336 1038.01 481.317C1049.36 466.09 1059.91 448.421 1091.23 424.374C1110.77 409.377 1139.32 392.929 1172.13 376.179C1193.49 365.305 1215.8 354.588 1238.62 345.079C1286.9 324.982 1332.52 310.444 1374.69 296.611C1416.45 282.906 1455.37 269.173 1495.26 250.211C1513.81 241.391 1532.04 231.479 1550.55 220.849C1573.61 207.662 1597.53 193.239 1626.08 181.144C1654.73 169.006 1688.99 159.783 1719.1 157.355" stroke="#AFB7C2" stroke-width="0.9113" stroke-miterlimit="10"/>
<path opacity="0.6585" d="M498.035 1015.71C520.292 987.672 525.597 941.057 548.432 884.66C562.561 849.738 582.506 810.464 602.637 773.057C619.64 741.44 640.384 710.052 666.756 681.006C676.77 669.887 687.635 659.114 700.337 650.035C730.33 628.53 766.002 617.412 796.845 608.735C805.908 606.193 814.783 603.837 823.489 601.682C841.886 597.157 859.671 593.537 878.833 590.563C886.417 589.385 895.038 588.064 904.542 586.57C921.222 583.955 940.231 580.019 956.027 570.524C973.523 560.009 978.318 547.138 981.855 537.039C983.164 533.29 984.456 530 985.493 527.184C988.571 518.795 991.818 512.23 994.743 505.838C997.684 499.388 1000.76 493.024 1004.03 486.531C1012.39 470.112 1019.91 451.222 1049.54 426.069C1067.99 410.411 1096.05 393.402 1128.83 376.408C1150.15 365.376 1172.66 354.602 1195.89 345.193C1245.01 325.283 1292.01 311.536 1335.77 298.535C1379.06 285.678 1419.71 272.865 1461.07 254.463C1480.3 245.902 1499.12 236.176 1518.14 225.676C1541.83 212.632 1566.21 198.296 1594.93 186.1C1623.75 173.861 1657.84 164.336 1687.94 161.32" stroke="#AFB7C2" stroke-width="0.9025" stroke-miterlimit="10"/>
<path opacity="0.6415" d="M480.607 1026.77C496.862 996.478 496.675 948.47 515.957 890.578C527.791 855.053 546.222 815.104 565.945 777.152C582.54 745.218 603.471 713.615 630.642 684.554C640.962 673.435 652.218 662.69 665.447 653.712C696.681 632.481 734.088 622.181 766.529 614.452C776.051 612.183 785.403 610.114 794.584 608.261C813.968 604.368 832.705 601.409 852.717 599.125C860.607 598.22 869.601 597.186 879.412 595.936C896.704 593.738 916.206 590.118 932.172 580.579C949.872 570.007 954.038 556.891 956.656 546.462C957.626 542.598 958.527 539.179 959.173 536.249C961.111 527.472 963.203 520.462 964.971 513.595C966.756 506.671 968.678 499.833 970.769 492.881C976.176 475.255 980.631 455.172 1008.58 428.913C1025.96 412.594 1053.51 395.026 1086.25 377.773C1107.54 366.568 1130.27 355.752 1153.89 346.429C1203.86 326.705 1252.2 313.734 1297.58 301.581C1342.4 289.557 1384.79 277.663 1427.59 259.821C1447.52 251.518 1466.93 241.98 1486.45 231.594C1510.77 218.709 1535.61 204.43 1564.48 192.147C1593.47 179.808 1627.39 169.982 1657.47 166.376" stroke="#AFB7C2" stroke-width="0.8938" stroke-miterlimit="10"/>
<path opacity="0.6244" d="M464.165 1039.01C474.418 1006.46 468.756 957.074 484.467 897.675C494.022 861.546 510.923 820.922 530.239 782.438C546.425 750.188 567.543 718.37 595.53 689.28C606.157 678.147 617.804 667.445 631.559 658.582C664.035 637.624 703.176 628.157 737.216 621.362C747.213 619.365 757.041 617.599 766.682 616.033C787.051 612.758 806.741 610.459 827.603 608.879C835.799 608.261 845.15 607.5 855.267 606.494C873.171 604.713 893.15 601.409 909.286 591.828C927.19 581.212 930.726 567.838 932.409 557.078C933.039 553.114 933.549 549.551 933.821 546.506C934.62 537.341 935.538 529.885 936.167 522.559C936.796 515.161 937.562 507.849 938.497 500.423C940.945 481.604 942.339 460.301 968.626 432.935C984.915 415.956 1011.97 397.841 1044.68 380.33C1065.95 368.968 1088.89 358.108 1112.9 348.871C1163.7 329.334 1213.42 317.153 1260.4 305.819C1306.75 294.643 1350.89 283.653 1395.13 266.386C1415.75 258.342 1435.77 248.976 1455.78 238.734C1480.7 226.006 1506.02 211.799 1535.05 199.402C1564.21 186.962 1597.96 176.834 1628.02 172.625" stroke="#AFB7C2" stroke-width="0.885" stroke-miterlimit="10"/>
<path opacity="0.6073" d="M448.896 1052.52C453.146 1017.71 442.06 966.929 454.149 906.035C461.444 869.289 476.797 828.004 495.705 788.989C511.5 756.423 532.788 724.389 561.574 695.285C572.49 684.152 584.545 673.464 598.811 664.716C632.528 644.03 673.403 635.383 709.058 629.536C719.532 627.827 729.818 626.333 739.935 625.054C761.291 622.397 781.933 620.773 803.645 619.868C812.147 619.524 821.873 619.049 832.278 618.288C850.795 616.938 871.249 613.935 887.572 604.311C905.68 593.652 908.605 580.019 909.353 568.93C909.625 564.85 909.761 561.158 909.642 557.998C909.285 548.459 909.064 540.544 908.554 532.758C908.027 524.886 907.635 517.1 907.397 509.2C906.87 489.189 905.238 466.679 929.824 438.207C945.042 420.581 971.584 401.892 1004.25 384.123C1025.48 372.602 1048.62 361.684 1073.04 352.534C1124.68 333.184 1175.76 321.793 1224.35 311.292C1272.23 300.949 1318.1 290.893 1363.79 274.187C1385.1 266.401 1405.7 257.221 1426.23 247.094C1451.78 234.525 1477.54 220.389 1506.75 207.892C1536.08 195.351 1569.66 184.936 1599.69 180.124" stroke="#AFB7C2" stroke-width="0.8763" stroke-miterlimit="10"/>
<path opacity="0.5902" d="M435.004 1067.37C433.27 1030.31 416.76 978.134 425.21 915.746C430.277 878.397 444.067 836.436 462.566 796.889C477.954 763.993 499.428 731.758 529.031 702.626C540.253 691.493 552.699 680.834 567.491 672.2C602.432 651.787 645.059 643.973 682.312 639.06C693.245 637.624 704.008 636.417 714.584 635.44C736.926 633.4 758.537 632.438 781.082 632.237C789.89 632.165 799.973 631.978 810.702 631.447C829.83 630.527 850.761 627.827 867.27 618.159C885.583 607.442 887.878 593.551 887.708 582.131C887.64 577.937 887.385 574.13 886.892 570.84C885.396 560.914 884.001 552.553 882.352 544.293C880.686 535.947 879.122 527.688 877.71 519.313C874.225 498.11 869.549 474.379 892.435 444.801C906.581 426.514 932.613 407.265 965.242 389.251C986.444 377.558 1009.81 366.612 1034.61 357.547C1087.08 338.384 1139.54 327.768 1189.73 318.115C1239.14 308.62 1286.77 299.469 1333.9 283.337C1355.9 275.81 1377.1 266.817 1398.14 256.819C1424.32 244.394 1450.54 230.344 1479.9 217.746C1509.4 205.105 1542.82 194.389 1572.83 188.987" stroke="#AFB7C2" stroke-width="0.8675" stroke-miterlimit="10"/>
<path opacity="0.5732" d="M422.711 1083.63C414.974 1044.33 393.108 990.746 397.869 926.864C400.709 888.898 412.917 846.276 431.008 806.198C445.988 772.986 467.632 740.549 498.051 711.388C509.579 700.255 522.416 689.625 537.736 681.106C573.918 660.967 618.279 653.985 657.13 650.006C668.539 648.842 679.778 647.923 690.813 647.248C714.158 645.826 736.704 645.524 760.1 646.027C769.214 646.228 779.671 646.329 790.689 646.041C810.412 645.538 831.853 643.139 848.533 633.443C867.049 622.684 868.732 608.534 867.61 596.783C867.202 592.474 866.556 588.538 865.672 585.119C863.019 574.819 860.469 565.999 857.68 557.279C854.858 548.459 852.137 539.711 849.57 530.876C843.109 508.481 835.406 483.543 856.592 452.86C869.667 433.912 895.189 414.102 927.783 395.844C948.969 383.993 972.535 372.989 997.734 364.011C1051.04 345.035 1104.85 335.195 1156.66 326.389C1207.6 317.727 1256.96 309.496 1305.56 293.938C1328.24 286.67 1350.05 277.864 1371.58 267.981C1398.39 255.713 1425.07 241.721 1454.6 229.037C1484.27 216.295 1517.51 205.277 1547.51 199.272" stroke="#AFB7C2" stroke-width="0.8587" stroke-miterlimit="10"/>
<path opacity="0.5561" d="M412.187 1101.39C398.448 1059.83 371.244 1004.85 372.315 939.463C372.944 900.878 383.571 857.596 401.237 816.986C415.825 783.458 437.64 750.806 468.875 721.616C480.709 710.483 493.937 699.867 509.784 691.464C547.207 671.597 593.302 665.434 633.769 662.418C645.655 661.527 657.353 660.895 668.864 660.507C693.195 659.717 716.71 660.062 740.939 661.254C750.376 661.728 761.173 662.116 772.497 662.073C792.832 662.001 814.749 659.904 831.599 650.164C850.319 639.362 851.39 624.953 849.333 612.872C848.585 608.448 847.531 604.382 846.289 600.849C842.481 590.175 838.791 580.896 834.864 571.716C830.885 562.422 827.008 553.2 823.268 543.906C813.848 520.318 803.119 494.159 822.587 462.369C834.591 442.775 859.603 422.405 892.164 403.874C913.315 391.865 937.085 380.804 962.692 371.912C1016.83 353.108 1072.02 344.073 1125.43 336.1C1177.9 328.271 1229.01 320.974 1279.03 305.962C1302.41 298.952 1324.8 290.333 1346.84 280.579C1374.28 268.469 1401.42 254.549 1431.11 241.764C1460.95 228.922 1494.02 217.602 1523.99 211.009" stroke="#AFB7C2" stroke-width="0.85" stroke-miterlimit="10"/>
<path opacity="0.539" d="M404.042 1120.66C384.302 1076.85 351.775 1020.47 349.122 953.598C347.558 914.396 356.587 870.453 373.828 829.311C388.008 795.467 410.01 762.6 442.044 733.395C454.184 722.262 467.803 711.675 484.16 703.387C522.825 683.793 570.654 678.463 612.719 676.38C625.063 675.777 637.255 675.418 649.225 675.332C674.542 675.159 699.009 676.165 724.089 678.061C733.831 678.808 744.985 679.483 756.632 679.684C777.563 680.043 799.973 678.248 817.01 668.465C835.934 657.605 836.393 642.938 833.401 630.541C832.313 626.016 830.867 621.807 829.235 618.159C824.287 607.112 819.424 597.372 814.358 587.719C809.223 577.951 804.19 568.254 799.276 558.486C786.898 533.706 773.125 506.326 790.91 473.445C801.86 453.19 826.345 432.26 858.871 413.485C879.989 401.303 903.98 390.213 929.961 381.408C984.948 362.791 1041.48 354.531 1096.5 347.405C1150.52 340.41 1203.35 334.032 1254.84 319.595C1278.9 312.843 1301.9 304.396 1324.43 294.786C1352.5 282.834 1380.08 268.986 1409.94 256.101C1439.95 243.158 1472.85 231.551 1502.79 224.354" stroke="#AFB7C2" stroke-width="0.8412" stroke-miterlimit="10"/>
<path opacity="0.522" d="M400.793 1141.38C375.051 1095.31 337.236 1037.5 330.826 969.17C327.086 929.335 334.499 884.746 351.315 843.073C365.104 808.913 387.276 775.83 420.126 746.597C432.555 735.464 446.582 724.891 463.466 716.732C503.355 697.411 552.936 692.9 596.6 691.765C609.42 691.435 622.07 691.378 634.516 691.579C660.82 692.024 686.256 693.676 712.169 696.29C722.217 697.296 733.745 698.273 745.681 698.718C767.224 699.508 790.127 698.014 807.334 688.203C826.463 677.3 826.31 662.375 822.365 649.633C820.937 644.993 819.1 640.654 817.094 636.891C810.99 625.471 804.971 615.271 798.765 605.158C792.474 594.916 786.285 584.745 780.215 574.503C764.861 548.531 748.079 519.945 764.147 485.942C774.025 465.027 798 443.537 830.492 424.503C851.593 412.163 875.788 401.016 902.16 392.296C957.981 373.866 1015.89 366.382 1072.51 360.104C1128.06 353.942 1182.64 348.497 1235.55 334.621C1260.31 328.127 1283.91 319.868 1306.93 310.372C1335.63 298.564 1363.67 284.788 1393.7 271.816C1423.88 258.773 1456.61 246.864 1486.53 239.064" stroke="#AFB7C2" stroke-width="0.8324" stroke-miterlimit="10"/>
<path opacity="0.5049" d="M400.795 1163.73C369.067 1115.41 325.982 1056.18 315.78 986.379C309.863 945.913 315.661 900.677 332.069 858.472C345.467 823.996 367.809 790.698 401.458 761.436C414.193 750.289 428.612 739.759 446.023 731.701C487.153 712.652 538.468 708.975 583.73 708.774C597.026 708.716 610.135 708.946 623.058 709.435C650.347 710.498 676.753 712.81 703.499 716.129C713.87 717.407 725.738 718.671 737.981 719.347C760.118 720.568 783.515 719.375 800.892 709.521C820.224 698.575 819.459 683.376 814.579 670.319C812.811 665.564 810.583 661.096 808.186 657.218C800.926 645.424 793.767 634.765 786.405 624.192C778.958 613.476 771.613 602.831 764.369 592.115C746.057 564.95 726.249 535.143 740.599 500.049C749.424 478.487 772.854 456.422 805.312 437.144C826.379 424.647 850.778 413.442 877.558 404.823C934.212 386.579 993.484 379.871 1051.72 374.441C1108.8 369.111 1165.11 364.6 1219.49 351.27C1244.94 345.035 1269.14 336.962 1292.65 327.596C1321.96 315.946 1350.48 302.242 1380.66 289.169C1411.01 276.025 1443.57 263.815 1473.48 255.426" stroke="#AFB7C2" stroke-width="0.8237" stroke-miterlimit="10"/>
<path opacity="0.4878" d="M403.923 1187.82C366.193 1137.24 317.854 1076.58 303.86 1005.33C295.784 964.228 299.949 918.346 315.932 875.61C328.939 840.817 351.451 807.318 385.899 778.028C398.941 766.88 413.75 756.38 431.688 748.436C474.06 729.66 527.109 726.802 573.986 727.549C587.759 727.764 601.344 728.281 614.725 729.071C643.018 730.752 670.393 733.726 697.955 737.734C708.633 739.285 720.858 740.836 733.423 741.756C756.156 743.408 780.045 742.517 797.609 732.62C817.145 721.616 815.768 706.173 809.953 692.785C807.845 687.915 805.226 683.333 802.455 679.325C794.039 667.158 785.69 656.054 777.24 644.993C768.602 633.817 760.152 622.683 751.735 611.493C730.447 583.122 707.629 552.122 720.263 515.908C728.016 493.685 750.936 471.074 783.361 451.523C804.393 438.853 829.014 427.62 856.184 419.073C913.671 401.016 974.321 395.083 1034.15 390.501C1092.76 386.004 1150.83 382.413 1206.63 369.657C1232.77 363.681 1257.56 355.794 1281.58 346.543C1311.52 335.051 1340.5 321.419 1370.85 308.246C1401.37 295.001 1433.76 282.489 1463.65 273.511" stroke="#AFB7C2" stroke-width="0.8149" stroke-miterlimit="10"/>
<path opacity="0.4707" d="M410.231 1213.75C366.5 1160.91 312.94 1098.81 295.121 1026.11C284.902 984.368 287.436 937.868 302.977 894.586C315.593 859.478 338.275 825.763 373.539 796.444C386.886 785.297 402.087 774.81 420.535 766.981C464.148 748.479 518.931 746.453 567.407 748.134C581.638 748.637 595.7 749.427 609.557 750.519C638.836 752.831 667.18 756.451 695.575 761.163C706.576 762.988 719.141 764.841 732.012 765.99C755.341 768.087 779.74 767.484 797.474 757.543C817.214 746.496 815.225 730.781 808.458 717.077C805.992 712.092 802.983 707.38 799.837 703.243C790.282 690.702 780.76 679.139 771.17 667.618C761.394 655.968 751.77 644.361 742.18 632.711C717.934 603.147 692.09 570.926 703.005 533.62C709.705 510.737 732.097 487.566 764.488 467.771C785.487 454.943 810.328 443.652 837.89 435.205C896.21 417.335 958.237 412.178 1019.67 408.443C1079.81 404.78 1139.68 402.179 1196.87 389.926C1223.72 384.237 1249.09 376.509 1273.62 367.387C1304.2 356.053 1333.61 342.492 1364.13 329.219C1394.82 315.874 1427.03 303.075 1456.9 293.493" stroke="#AFB7C2" stroke-width="0.8062" stroke-miterlimit="10"/>
<path opacity="0.4537" d="M419.855 1241.57C370.121 1186.48 311.342 1122.93 289.715 1048.8C277.353 1006.4 278.237 959.272 293.353 915.459C305.578 880.034 328.43 846.104 364.494 816.77C378.147 805.623 393.739 795.165 412.714 787.451C457.551 769.222 514.086 768.015 564.159 770.659C578.867 771.434 593.404 772.512 607.721 773.891C637.986 776.821 667.299 781.102 696.51 786.517C707.834 788.615 720.74 790.755 733.917 792.149C757.84 794.677 782.732 794.361 800.653 784.391C820.598 773.287 817.996 757.313 810.294 743.279C807.489 738.179 804.088 733.338 800.568 729.086C789.857 716.186 779.196 704.148 768.45 692.168C757.517 680.044 746.737 667.962 735.974 655.838C708.769 625.083 679.898 591.641 689.114 553.229C694.759 529.684 716.625 505.953 748.981 485.899C769.963 472.913 795.008 461.565 822.961 453.204C882.115 435.521 945.519 431.14 1008.55 428.252C1070.24 425.422 1131.82 423.756 1190.46 412.063C1218.01 406.633 1243.97 399.077 1269 390.098C1300.2 378.908 1330.07 365.419 1360.75 352.06C1391.61 338.614 1423.64 325.513 1453.5 315.328" stroke="#AFB7C2" stroke-width="0.7974" stroke-miterlimit="10"/>
<path opacity="0.4366" d="M432.913 1271.4C377.177 1214.07 313.195 1149.03 287.724 1073.46C273.221 1030.41 272.473 982.659 287.146 938.313C298.98 902.573 321.985 868.427 358.882 839.065C372.841 827.918 388.824 817.489 408.326 809.89C454.404 791.933 512.674 791.56 564.363 795.137C579.546 796.185 594.543 797.55 609.335 799.231C640.587 802.779 670.886 807.706 700.913 813.84C712.543 816.21 725.806 818.638 739.306 820.261C763.824 823.22 789.21 823.206 807.301 813.194C827.449 802.046 824.236 785.799 815.598 771.449C812.453 766.234 808.661 761.278 804.75 756.897C792.882 743.623 781.082 731.14 769.197 718.671C757.125 706.073 745.172 693.518 733.253 680.92C703.073 648.972 671.209 614.309 678.69 574.805C683.281 550.6 704.62 526.308 736.943 506.01C757.89 492.866 783.14 481.475 811.501 473.2C871.487 455.689 936.268 452.098 1000.9 450.058C1064.11 448.062 1127.43 447.315 1187.54 436.182C1215.76 431.01 1242.32 423.641 1267.86 414.778C1299.69 403.745 1330.02 390.328 1360.87 376.868C1391.88 363.322 1423.76 349.919 1453.6 339.146" stroke="#AFB7C2" stroke-width="0.7886" stroke-miterlimit="10"/>
<path opacity="0.4195" d="M449.576 1303.27C387.855 1243.69 318.653 1177.19 289.34 1100.19C272.694 1056.48 270.314 1008.11 284.562 963.237C296.005 927.18 319.181 892.819 356.876 863.443C371.125 852.295 387.515 841.881 407.545 834.396C454.864 816.713 514.868 817.158 568.155 821.683C583.798 823.005 599.27 824.671 614.539 826.639C646.777 830.805 678.062 836.393 708.905 843.217C720.859 845.86 734.461 848.575 748.267 850.442C773.381 853.832 799.276 854.12 817.537 844.064C837.89 832.874 834.064 816.368 824.475 801.687C820.989 796.358 816.806 791.272 812.522 786.776C799.514 773.129 786.541 760.186 773.517 747.258C760.288 734.186 747.179 721.156 734.087 708.084C700.948 674.944 666.058 639.06 671.822 598.45C675.342 573.584 696.17 548.747 728.442 528.176C749.356 514.859 774.826 503.425 803.578 495.237C864.415 477.912 930.539 475.097 996.783 473.904C1061.53 472.741 1126.58 472.913 1188.13 462.355C1217.04 457.442 1244.21 450.26 1270.24 441.526C1302.7 430.651 1333.49 417.306 1364.49 403.731C1395.67 390.084 1427.38 376.38 1457.21 365.017" stroke="#AFB7C2" stroke-width="0.7799" stroke-miterlimit="10"/>
<path opacity="0.4024" d="M470.031 1337.3C402.308 1275.46 327.92 1207.49 294.747 1129.08C275.959 1084.71 271.929 1035.72 285.753 990.316C296.822 953.943 320.15 919.366 358.662 889.961C373.216 878.814 389.998 868.428 410.555 861.058C459.115 843.648 520.853 844.926 575.738 850.385C591.857 851.994 607.806 853.933 623.534 856.189C656.757 860.972 689.012 867.221 720.689 874.748C732.965 877.664 746.89 880.681 761.02 882.778C786.711 886.599 813.117 887.188 831.565 877.09C852.122 865.842 847.684 849.078 837.159 834.081C833.333 828.636 828.759 823.422 824.084 818.811C809.92 804.805 795.808 791.388 781.627 777.999C767.26 764.468 752.977 750.95 738.729 737.404C702.631 703.071 664.732 665.966 668.762 624.264C671.227 598.737 691.529 573.34 723.766 552.525C744.663 539.051 770.337 527.558 799.48 519.457C861.15 502.319 928.635 500.207 996.494 499.934C1062.77 499.518 1129.56 500.71 1192.57 490.712C1222.17 486.058 1249.94 479.062 1276.46 470.443C1309.55 459.726 1340.8 446.453 1371.97 432.777C1403.32 419.03 1434.86 405.039 1464.65 393.058" stroke="#AFB7C2" stroke-width="0.7711" stroke-miterlimit="10"/>
<path opacity="0.3854" d="M494.429 1373.55C420.704 1309.45 341.147 1239.98 304.098 1160.18C283.184 1115.13 277.505 1065.55 290.887 1019.61C301.565 982.917 325.063 948.139 364.373 918.705C379.234 907.558 396.407 897.186 417.474 889.946C467.258 872.809 530.747 874.906 587.248 881.313C603.843 883.195 620.251 885.421 636.455 887.978C670.682 893.394 703.906 900.289 736.398 908.52C748.98 911.709 763.263 915.013 777.715 917.355C804.002 921.621 830.901 922.498 849.519 912.356C870.28 901.065 865.23 884.028 853.77 868.715C849.604 863.155 844.622 857.826 839.589 853.086C824.27 838.706 809.018 824.829 793.698 810.967C778.175 796.961 762.736 782.969 747.314 768.963C708.241 733.439 667.332 695.113 669.645 652.305C671.056 626.117 690.83 600.159 723.034 579.1C743.897 565.468 769.775 553.932 799.309 545.917C861.812 528.966 930.691 527.63 1000.13 528.205C1067.96 528.636 1136.46 530.733 1200.94 521.309C1231.22 516.914 1259.58 510.105 1286.61 501.615C1320.31 491.042 1352.02 477.841 1383.36 464.079C1414.88 450.231 1446.26 435.938 1476.03 423.368" stroke="#AFB7C2" stroke-width="0.7623" stroke-miterlimit="10"/>
<path opacity="0.3683" d="M522.943 1412.07C443.216 1345.72 358.491 1274.76 317.564 1193.57C294.525 1147.84 287.384 1097.68 300.136 1051.18C310.576 1014.19 334.091 979.182 374.218 949.72C389.385 938.558 406.949 928.229 428.543 921.09C479.569 904.225 544.792 907.156 602.891 914.496C619.945 916.651 636.829 919.165 653.509 922.009C688.722 928.043 722.932 935.599 756.241 944.519C769.146 947.981 783.769 951.573 798.527 954.158C825.392 958.856 852.818 960.034 871.606 949.849C892.571 938.515 886.909 921.205 874.497 905.561C869.991 899.887 864.618 894.428 859.194 889.573C842.735 874.834 826.31 860.484 809.851 846.162C793.188 831.682 776.576 817.216 759.981 802.736C717.95 766.019 674.168 726.486 674.627 682.572C675.069 655.723 694.231 629.206 726.401 607.888C747.229 594.083 773.329 582.505 803.254 574.575C866.59 557.811 936.846 557.265 1007.9 558.673C1077.27 559.951 1147.5 562.954 1213.42 554.091C1244.4 549.953 1273.35 543.317 1300.88 534.956C1335.21 524.541 1367.38 511.412 1398.87 497.55C1430.56 483.601 1461.76 469.006 1491.52 455.848" stroke="#AFB7C2" stroke-width="0.7536" stroke-miterlimit="10"/>
<path opacity="0.3512" d="M555.777 1452.99C470.048 1384.38 380.136 1311.91 335.367 1229.34C310.203 1182.92 301.362 1132.17 313.723 1085.12C323.737 1047.82 347.457 1012.6 388.383 983.118C403.855 971.957 421.81 961.657 443.931 954.632C496.198 938.04 563.156 941.804 622.854 950.093C640.384 952.521 657.744 955.322 674.883 958.468C711.082 965.119 746.295 973.307 780.403 982.96C793.631 986.681 808.577 990.574 823.658 993.389C851.118 998.517 879.037 999.997 898.012 989.783C919.164 978.392 912.958 960.809 899.56 944.864C894.731 939.075 888.95 933.501 883.152 928.516C865.503 913.419 847.973 898.608 830.358 883.798C812.539 868.844 794.77 853.904 777.019 838.95C732.013 801.041 685.203 760.272 683.962 715.281C683.333 687.772 701.985 660.694 734.121 639.132C754.916 625.169 781.236 613.533 811.552 605.704C875.722 589.127 947.372 589.371 1020.01 591.612C1090.93 593.724 1162.87 597.66 1230.25 589.357C1261.91 585.478 1291.48 579.028 1319.52 570.797C1354.47 560.54 1387.1 547.482 1418.76 533.519C1450.63 519.47 1481.66 504.574 1511.39 490.812" stroke="#AFB7C2" stroke-width="0.7448" stroke-miterlimit="10"/>
<path opacity="0.3341" d="M593.08 1496.34C501.349 1425.48 406.269 1351.48 357.623 1267.55C330.316 1220.44 319.808 1169.09 331.779 1121.53C341.385 1083.9 365.291 1048.46 407.034 1018.96C422.812 1007.8 441.159 997.512 463.806 990.602C517.315 974.284 586.007 978.866 647.32 988.103C665.326 990.818 683.145 993.892 700.743 997.339C737.928 1004.61 774.128 1013.46 809.052 1023.81C822.603 1027.81 837.889 1032.02 853.293 1035.05C881.314 1040.64 909.76 1042.37 928.923 1032.13C950.278 1020.7 943.443 1002.84 929.11 986.58C923.941 980.676 917.768 974.973 911.579 969.859C892.808 954.402 874.105 939.118 855.351 923.848C836.392 908.42 817.451 893.006 798.527 877.578C750.561 838.462 700.709 796.487 697.767 750.389C696.067 722.219 714.209 694.595 746.311 672.76C767.088 658.639 793.596 646.961 824.32 639.203C889.323 622.798 962.35 623.833 1036.59 626.921C1109.03 629.88 1182.71 634.721 1251.54 626.993C1283.88 623.373 1314.04 617.11 1342.59 609.008C1378.17 598.895 1411.26 585.923 1443.08 571.86C1475.11 557.71 1505.97 542.526 1535.67 528.161" stroke="#AFB7C2" stroke-width="0.7361" stroke-miterlimit="10"/>
<path opacity="0.3171" d="M635.096 1542.21C537.38 1469.1 437.13 1393.57 384.591 1308.26C355.159 1260.47 342.968 1208.52 354.53 1160.43C363.728 1122.47 387.822 1086.83 430.363 1057.3C446.431 1046.14 465.185 1035.88 488.343 1029.09C543.076 1013.04 613.519 1018.46 676.43 1028.63C694.895 1031.61 713.207 1034.98 731.264 1038.71C769.436 1046.6 806.604 1056.12 842.362 1067.17C856.236 1071.45 871.845 1075.92 887.573 1079.21C916.189 1085.21 945.128 1087.27 964.46 1076.98C986.02 1065.5 978.555 1047.39 963.304 1030.8C957.778 1024.78 951.232 1018.94 944.669 1013.72C924.758 997.886 904.882 982.142 884.988 966.412C864.874 950.51 844.776 934.622 824.696 918.72C773.772 878.411 720.859 835.201 716.234 788.026C713.445 759.195 731.094 731.011 763.145 708.932C783.889 694.639 810.617 682.917 841.733 675.26C907.585 659.042 981.973 660.866 1057.81 664.774C1131.8 668.566 1207.19 674.326 1277.48 667.173C1310.52 663.811 1341.28 657.735 1370.32 649.748C1406.54 639.793 1440.07 626.878 1472.07 612.729C1504.27 598.479 1534.96 582.993 1564.65 568.039" stroke="#AFB7C2" stroke-width="0.7273" stroke-miterlimit="10"/>
<path opacity="0.3" d="M681.972 1590.66C578.254 1515.3 472.835 1438.25 416.42 1351.57C360.021 1264.9 360.123 1165.37 458.57 1098.25C474.944 1087.09 494.089 1076.86 517.774 1070.18C573.748 1054.41 645.943 1060.65 710.435 1071.77C769.401 1081.92 826.684 1095.86 880.566 1113.14C920.591 1125.98 974.695 1140.44 1004.91 1124.44C1034.58 1108.73 1008.77 1080.28 982.652 1060.19C940.349 1027.62 898.046 995.041 855.742 962.475C801.843 920.975 745.903 876.543 739.578 828.262C733.219 779.68 783.82 733.18 864.04 713.887C995.796 682.212 1163.05 723.297 1308.31 709.937C1426.43 699.077 1515.73 653.87 1598.48 610.502" stroke="#AFB7C2" stroke-width="0.7185" stroke-miterlimit="10"/>
</g>
</g>
</svg>
