<svg width="1280" height="719" viewBox="0 0 1280 719" fill="none" xmlns="http://www.w3.org/2000/svg">
<mask id="mask0_1333_23605" style="mask-type:luminance" maskUnits="userSpaceOnUse" x="0" y="0" width="1280" height="719">
<path d="M0 718.255H1280V0H4.77783L0 718.255Z" fill="white"/>
</mask>
<g mask="url(#mask0_1333_23605)">
<g opacity="0.6">
<path d="M-872.064 276.844C-841.561 285.765 -804.053 282.202 -778.633 271.974C-753.214 261.732 -737.962 245.959 -726.825 229.827C-698.209 188.427 -692.411 142.674 -674.592 99.1193C-656.79 55.5643 -623.566 11.7508 -555.367 -12.4831C-448.895 -50.3352 -298.793 -29.1897 -165.37 -13.8477C-130.463 -9.83989 -93.7198 -6.33481 -61.2952 -11.8797C-19.7909 -18.9617 6.9377 -39.9779 17.5986 -62.5311C28.2594 -85.0843 25.4029 -109.376 23.4306 -133.236C17.0715 -210.032 22.0534 -289.6 88.348 -354.286C154.643 -418.972 334.109 -487.034 578.101 -457.83" stroke="#AFB7C2" stroke-width="1.0778" stroke-miterlimit="10"/>
<path opacity="0.9829" d="M572.611 -461.867C436.383 -476.634 321.817 -458.922 236.377 -428.568C175.388 -406.906 129.361 -378.865 102.122 -351.37C76.8214 -325.958 60.1414 -298.406 49.1405 -269.848C44.8898 -258.758 41.4892 -247.525 38.7517 -236.248C32.2566 -209.558 29.6382 -182.738 29.2641 -156.149C29.1451 -148.348 29.2301 -140.562 29.4171 -132.82C29.8252 -116.515 30.7094 -100.024 27.0197 -84.1077C25.5405 -77.6003 23.228 -71.1935 19.8274 -64.8872C14.1484 -54.5444 4.91583 -44.4601 -7.51334 -35.7117C-21.1497 -26.1158 -38.1867 -18.33 -58.9813 -14.2934C-67.0237 -12.742 -75.3042 -11.7939 -83.7716 -11.3055C-108.035 -9.86894 -133.743 -12.0955 -158.5 -14.6094C-183.154 -17.1089 -208.42 -19.8096 -233.874 -22.266C-298.587 -28.5292 -364.423 -33.126 -425.667 -28.5292C-464.876 -25.6131 -502.215 -18.9908 -535.693 -6.82355C-557.576 1.12034 -576.075 10.9749 -591.803 22.0647C-625.044 45.4798 -645.618 74.368 -659.305 103.098C-673.06 132.116 -681.341 162.081 -694.926 191.314C-701.183 204.731 -708.529 218.004 -718.033 230.904C-729.799 246.878 -745.51 262.579 -771.099 272.922C-796.689 283.265 -834.044 287.115 -864.514 278.783" stroke="#AFB7C2" stroke-width="1.069" stroke-miterlimit="10"/>
<path opacity="0.9659" d="M570.195 -465.501C439.952 -478.027 331.184 -458.635 248.992 -427.06C190.502 -404.593 145.801 -376.078 118.953 -348.052C94.061 -322.31 77.1941 -294.571 65.394 -265.97C60.8372 -254.88 57.0456 -243.661 53.781 -232.499C46.0446 -206.082 41.6918 -180.081 39.7025 -154.439C39.1244 -146.912 38.7163 -139.413 38.4443 -131.972C37.8662 -116.286 37.7642 -100.455 33.2584 -85.2426C31.4561 -79.0082 28.8547 -72.8743 25.097 -66.8266C18.9079 -56.8859 9.08023 -47.1321 -3.51896 -38.3406C-17.3594 -28.6873 -33.7502 -20.6141 -53.6437 -16.2902C-61.329 -14.6238 -69.2354 -13.5465 -77.3288 -12.9432C-100.453 -11.1475 -125.005 -12.9144 -148.605 -14.9542C-172.12 -16.9797 -196.214 -19.2063 -220.511 -21.2031C-282.248 -26.274 -345.057 -29.6497 -404.602 -23.9612C-442.739 -20.3843 -479.568 -13.2161 -513.013 -0.790257C-534.861 7.32602 -553.582 17.2236 -569.701 28.2129C-603.792 51.4412 -625.725 79.5538 -641.011 107.436C-656.314 135.606 -666.311 164.667 -681.359 193.34C-688.296 206.498 -696.254 219.585 -706.251 232.37C-718.647 248.186 -734.816 263.829 -760.559 274.258C-786.318 284.702 -823.504 288.839 -853.956 281.125" stroke="#AFB7C2" stroke-width="1.0603" stroke-miterlimit="10"/>
<path opacity="0.9488" d="M570.671 -468.776C446.431 -479.047 343.444 -458.003 264.516 -425.193C208.542 -401.921 165.27 -372.875 138.694 -344.375C114.346 -318.273 97.1557 -290.362 84.5395 -261.732C79.6766 -250.642 75.4939 -239.452 71.7023 -228.405C62.7247 -202.261 56.6377 -177.093 53.0501 -152.385C51.9959 -145.131 51.1287 -137.934 50.3806 -130.78C48.8163 -115.711 47.6601 -100.57 42.4062 -86.0327C40.2468 -80.0856 37.3733 -74.2103 33.2586 -68.4212C26.5084 -58.8971 16.1536 -49.4592 3.36735 -40.6247C-10.6771 -30.9282 -26.4218 -22.5822 -45.3971 -17.9422C-52.7254 -16.1466 -60.2747 -14.983 -67.96 -14.2216C-89.9619 -12.0812 -113.341 -13.3597 -135.785 -14.9255C-158.144 -16.4769 -181.098 -18.2295 -204.205 -19.7522C-262.984 -23.6308 -322.698 -25.6994 -380.611 -18.9909C-417.643 -14.7101 -453.995 -7.02477 -487.406 5.65961C-509.221 13.9339 -528.162 23.889 -544.672 34.7921C-579.596 57.8337 -602.924 85.1561 -619.791 112.206C-636.624 139.542 -648.356 167.669 -664.849 195.782C-672.483 208.696 -681.019 221.596 -691.527 234.237C-704.551 249.895 -721.163 265.467 -747.092 275.996C-773.022 286.54 -810.037 290.979 -840.473 283.854" stroke="#AFB7C2" stroke-width="1.0515" stroke-miterlimit="10"/>
<path opacity="0.9317" d="M573.816 -471.764C455.578 -479.78 358.389 -457.083 282.709 -423.038C229.251 -398.99 187.322 -369.427 161.104 -340.41C137.214 -313.978 119.786 -285.865 106.371 -257.221C101.202 -246.131 96.6283 -234.955 92.3095 -224.038C82.1077 -198.166 74.2694 -173.818 69.0835 -150.058C67.5532 -143.091 66.21 -136.167 65.0028 -129.3C62.4523 -114.849 60.2929 -100.383 54.2399 -86.5353C51.7574 -80.8611 48.561 -75.2587 44.1232 -69.7281C36.812 -60.6063 25.93 -51.4844 12.9738 -42.6212C-1.2747 -32.8816 -16.3734 -24.2482 -34.4475 -19.3067C-41.4187 -17.3961 -48.594 -16.1032 -55.9052 -15.2269C-76.7849 -12.7274 -98.9737 -13.5319 -120.295 -14.638C-141.515 -15.7154 -163.296 -16.9939 -185.23 -18.0425C-241.05 -20.7144 -297.687 -21.5476 -353.933 -13.776C-389.877 -8.80572 -425.737 -0.588895 -459.113 12.3397C-480.911 20.772 -500.04 30.7701 -516.958 41.587C-552.715 64.4419 -577.539 90.9455 -595.885 117.205C-614.385 143.665 -627.715 170.916 -645.67 198.454C-653.984 211.109 -663.132 223.823 -674.133 236.349C-687.786 251.849 -704.857 267.349 -730.94 277.979C-757.039 288.623 -793.868 293.364 -824.286 286.828" stroke="#AFB7C2" stroke-width="1.0427" stroke-miterlimit="10"/>
<path opacity="0.9146" d="M579.444 -474.551C467.207 -480.312 375.833 -455.991 303.384 -420.668C252.46 -395.845 211.857 -365.764 185.978 -336.215C162.531 -309.453 144.882 -281.14 130.651 -252.467C125.176 -241.377 120.211 -230.23 115.382 -219.413C103.939 -193.814 94.3664 -170.298 87.5652 -147.472C85.5759 -140.778 83.7566 -134.142 82.0733 -127.577C78.5197 -113.743 75.3741 -99.9526 68.5219 -86.7798C65.7164 -81.3929 62.1968 -76.049 57.4359 -70.777C49.5636 -62.0718 38.1377 -53.2661 25.0114 -44.3597C10.5589 -34.5627 -3.89369 -25.6707 -21.0497 -20.413C-27.6638 -18.3876 -34.482 -16.9798 -41.3852 -15.9743C-61.1427 -13.1156 -82.1583 -13.446 -102.324 -14.0924C-122.387 -14.6958 -143.012 -15.5002 -163.79 -16.0748C-216.635 -17.5544 -270.211 -17.1378 -324.791 -8.28889C-359.647 -2.64341 -395.013 6.11922 -428.356 19.292C-450.119 27.8967 -469.469 37.9379 -486.778 48.6686C-523.368 71.3511 -549.587 97.0503 -569.514 122.476C-589.578 148.089 -604.608 174.421 -624.009 201.398C-633.02 213.795 -642.763 226.322 -654.274 238.719C-668.556 254.075 -686.087 269.489 -712.322 280.22C-738.592 290.965 -775.25 296.007 -805.651 290.074" stroke="#AFB7C2" stroke-width="1.034" stroke-miterlimit="10"/>
<path opacity="0.8976" d="M587.351 -477.18C481.116 -480.685 395.557 -454.756 326.338 -418.154C277.948 -392.57 238.654 -361.958 213.15 -331.891C190.162 -304.799 172.274 -276.284 157.244 -247.597C151.48 -236.507 146.107 -225.389 140.751 -214.687C128.067 -189.361 116.76 -166.664 108.36 -144.786C105.895 -138.365 103.617 -132.015 101.457 -125.738C96.9173 -112.536 92.7686 -99.4068 85.1173 -86.9235C81.9887 -81.8095 78.1461 -76.7386 73.0452 -71.7108C64.6117 -63.4078 52.6586 -54.9324 39.3453 -45.983C24.6888 -36.1429 10.8823 -26.9635 -5.37251 -21.3899C-11.6296 -19.2495 -18.0737 -17.7124 -24.6029 -16.592C-43.2551 -13.3742 -63.0806 -13.2449 -82.0899 -13.4029C-101.014 -13.5465 -120.466 -13.8626 -140.07 -13.9631C-189.957 -14.2504 -240.455 -12.5841 -293.369 -2.67219C-327.12 3.64845 -362.01 12.9426 -395.301 26.3884C-417.031 35.1511 -436.602 45.2498 -454.302 55.8799C-491.725 78.3757 -519.355 103.27 -540.847 127.878C-562.475 152.643 -579.206 178.069 -600.068 204.487C-609.76 216.625 -620.115 228.965 -632.119 241.233C-647.03 256.431 -665.019 271.787 -691.425 282.604C-717.865 293.435 -754.353 298.779 -784.737 293.45" stroke="#AFB7C2" stroke-width="1.0252" stroke-miterlimit="10"/>
<path opacity="0.8805" d="M597.348 -479.751C497.116 -481.001 417.389 -453.477 351.383 -415.582C305.509 -389.251 267.542 -358.093 242.411 -327.51C219.848 -300.087 201.757 -271.385 185.91 -242.655C179.84 -231.551 174.076 -220.461 168.193 -209.874C154.268 -184.821 141.226 -162.958 131.229 -142.028C128.287 -135.88 125.533 -129.817 122.914 -123.842C117.388 -111.258 112.253 -98.8176 103.786 -87.0095C100.334 -82.1828 96.1686 -77.3849 90.7447 -72.6013C81.7501 -64.7005 69.2699 -56.5555 55.7696 -47.5629C40.909 -37.6654 27.7487 -28.2275 12.395 -22.3378C6.47799 -20.0682 0.407991 -18.4305 -5.71308 -17.1807C-23.2431 -13.6038 -41.8784 -13.0005 -59.7485 -12.6988C-77.5166 -12.3684 -95.8118 -12.2105 -114.26 -11.8513C-161.188 -10.9463 -208.609 -8.03023 -259.856 2.95907C-292.519 9.95487 -326.916 19.795 -360.174 33.4849C-381.87 42.4056 -401.644 52.5474 -419.752 63.1057C-458.009 85.4147 -487.033 109.519 -510.106 133.294C-533.298 157.197 -551.627 181.761 -574.054 207.575C-584.375 219.47 -595.376 231.608 -607.89 243.761C-623.414 258.801 -641.862 274.086 -668.438 285.003C-695.047 295.935 -731.366 301.581 -761.716 296.84" stroke="#AFB7C2" stroke-width="1.0165" stroke-miterlimit="10"/>
<path opacity="0.8634" d="M609.234 -482.308C514.987 -481.303 441.109 -452.213 378.3 -412.997C334.959 -385.933 298.318 -354.215 273.544 -323.114C251.441 -295.361 233.128 -266.458 216.465 -237.714C210.089 -226.609 203.934 -215.548 197.524 -205.076C182.375 -180.296 167.582 -159.252 155.969 -139.27C152.568 -133.409 149.338 -127.62 146.26 -121.945C139.748 -109.979 133.61 -98.2143 124.36 -87.0957C120.569 -82.542 116.097 -78.0169 110.35 -73.4919C100.794 -65.9933 87.787 -58.1787 74.1166 -49.1431C59.052 -39.2024 46.5378 -29.4772 32.1023 -23.2859C26.5424 -20.9013 20.8464 -19.1344 15.0994 -17.7697C-1.3085 -13.8337 -18.7706 -12.785 -35.5015 -11.9949C-52.1304 -11.2049 -69.2524 -10.5584 -86.5274 -9.72524C-130.48 -7.62793 -174.841 -3.46206 -224.438 8.59026C-255.996 16.2612 -289.917 26.6471 -323.141 40.5956C-344.819 49.6887 -364.798 59.8736 -383.297 70.3458C-422.387 92.468 -452.822 115.783 -477.459 138.724C-502.216 161.78 -522.228 185.439 -546.117 210.678C-557.135 222.314 -568.731 234.28 -581.739 246.289C-597.891 261.172 -616.799 276.384 -643.544 287.402C-670.324 298.435 -706.472 304.382 -736.806 300.245" stroke="#AFB7C2" stroke-width="1.0077" stroke-miterlimit="10"/>
<path opacity="0.8463" d="M622.801 -484.937C534.556 -481.676 466.493 -451.035 406.914 -410.483C366.09 -382.701 330.775 -350.408 306.359 -318.79C284.697 -290.707 266.164 -261.603 248.702 -232.83C242.02 -221.725 235.473 -210.693 228.536 -200.336C212.145 -175.829 195.618 -155.617 182.407 -136.569C178.53 -130.981 174.824 -125.494 171.287 -120.092C163.789 -108.744 156.648 -97.6541 146.599 -87.2107C142.484 -82.9442 137.689 -78.6778 131.602 -74.4114C121.469 -67.315 107.934 -59.8308 94.0937 -50.7664C78.8251 -40.7827 66.974 -30.7846 53.4227 -24.2772C48.2198 -21.7777 42.8809 -19.8959 37.542 -18.4019C22.2393 -14.1068 5.9674 -12.5841 -9.60731 -11.3199C-25.097 -10.0702 -41.0458 -8.93532 -57.1476 -7.6281C-98.1418 -4.33849 -139.425 1.0628 -187.356 14.2069C-217.826 22.553 -251.253 33.4848 -284.443 47.6775C-306.088 56.9286 -326.288 67.171 -345.178 77.5426C-385.118 99.4781 -416.93 121.988 -443.149 144.11C-469.469 166.319 -491.182 189.073 -516.534 213.738C-528.232 225.115 -540.44 236.895 -553.94 248.789C-570.722 263.527 -590.089 278.668 -616.987 289.772C-643.937 300.905 -679.915 307.154 -710.231 303.606" stroke="#AFB7C2" stroke-width="0.9989" stroke-miterlimit="10"/>
<path opacity="0.8293" d="M637.867 -487.695C555.624 -482.193 493.376 -450.001 437.028 -408.098C398.72 -379.612 364.714 -346.745 340.689 -314.595C319.452 -286.196 300.715 -256.876 282.437 -228.089C275.449 -216.985 268.512 -205.967 261.064 -195.724C243.432 -171.49 225.171 -152.098 210.361 -133.997C206.009 -128.682 201.843 -123.482 197.83 -118.383C189.329 -107.652 181.218 -97.2516 170.354 -87.4833C165.916 -83.5042 160.798 -79.482 154.388 -75.4741C143.676 -68.78 129.631 -61.6262 115.604 -52.5187C100.131 -42.4775 88.9263 -32.2208 76.2761 -25.383C71.4302 -22.7686 66.4654 -20.7719 61.5005 -19.1343C47.303 -14.48 32.2214 -12.4832 17.8029 -10.7594C3.45238 -9.03557 -11.3232 -7.42668 -26.2688 -5.64541C-64.2874 -1.1635 -102.493 5.4732 -148.775 19.6946C-178.139 28.7159 -211.091 40.1793 -244.247 54.6449C-265.857 64.0541 -286.261 74.3395 -305.542 84.6393C-346.316 106.388 -379.522 128.108 -407.322 149.397C-435.19 170.744 -458.62 192.607 -485.417 216.712C-497.795 227.831 -510.598 239.423 -524.609 251.188C-542.02 265.769 -561.845 280.838 -588.897 292.057C-616.017 303.29 -651.825 309.826 -682.124 306.882" stroke="#AFB7C2" stroke-width="0.9902" stroke-miterlimit="10"/>
<path opacity="0.8122" d="M654.205 -490.711C577.964 -482.954 521.531 -449.254 468.414 -405.972C432.605 -376.796 399.943 -343.326 376.292 -310.659C355.497 -281.929 336.539 -252.409 317.461 -223.593C310.167 -212.488 302.839 -201.499 294.864 -191.372C275.991 -167.411 255.979 -148.851 239.571 -131.685C234.759 -126.657 230.117 -121.73 225.628 -116.932C216.141 -106.833 207.044 -97.1079 195.363 -88.0148C190.602 -84.3086 185.144 -80.5737 178.428 -76.81C167.138 -70.5181 152.584 -63.6803 138.386 -54.5441C122.709 -44.4598 112.151 -33.9302 100.419 -26.7764C95.9297 -24.047 91.3219 -21.921 86.7651 -20.1685C73.6728 -15.155 59.7814 -12.6986 46.5021 -10.5008C33.3078 -8.31729 19.6884 -6.21993 5.91603 -3.97897C-29.1441 1.69524 -64.2722 9.58163 -108.888 24.8805C-137.164 34.5769 -169.623 46.5862 -202.744 61.296C-224.338 70.8775 -244.946 81.206 -264.618 91.4052C-306.224 112.967 -340.825 133.883 -370.206 154.353C-399.639 174.852 -424.752 195.811 -453.028 219.341C-466.086 230.215 -479.502 241.607 -494.022 253.257C-512.062 267.679 -532.33 282.676 -559.568 293.996C-586.858 305.33 -622.496 312.168 -652.762 309.812" stroke="#AFB7C2" stroke-width="0.9814" stroke-miterlimit="10"/>
<path opacity="0.7951" d="M671.549 -494.188C601.31 -484.176 550.658 -448.981 500.806 -404.291C467.48 -374.426 436.16 -340.367 412.9 -307.169C392.531 -278.108 373.368 -248.387 353.475 -219.556C345.892 -208.452 338.155 -197.477 329.654 -187.479C309.556 -163.791 287.792 -146.064 269.786 -129.832C264.498 -125.077 259.381 -120.437 254.433 -115.926C243.959 -106.445 233.876 -97.3954 221.379 -88.9775C216.295 -85.5586 210.514 -82.0822 203.458 -78.5772C191.59 -72.6875 176.508 -66.1801 162.141 -57.0008C146.26 -46.8734 136.364 -36.0708 125.516 -28.601C121.384 -25.7567 117.134 -23.5014 112.968 -21.6339C100.981 -16.2614 88.2796 -13.3309 76.1565 -10.659C64.1014 -8.00142 51.6553 -5.43003 39.0391 -2.71503C6.93754 4.15149 -25.096 13.2733 -68.0625 29.6495C-95.2332 40.0067 -127.216 52.5762 -160.287 67.5446C-181.846 77.2841 -202.675 87.6701 -222.738 97.7831C-265.178 119.173 -301.173 139.284 -332.136 158.921C-363.115 178.572 -389.946 198.626 -419.667 221.581C-433.405 232.197 -447.433 243.416 -462.446 254.923C-481.116 269.202 -501.842 284.113 -529.234 295.533C-556.694 306.968 -592.162 314.107 -622.41 312.354" stroke="#AFB7C2" stroke-width="0.9726" stroke-miterlimit="10"/>
<path opacity="0.778" d="M689.708 -498.196C625.454 -485.928 580.6 -449.268 534.012 -403.156C503.169 -372.631 473.209 -337.939 450.323 -304.224C430.379 -274.847 411.013 -244.925 390.32 -216.051C382.431 -204.947 374.303 -194.001 365.275 -184.103C343.936 -160.688 320.438 -143.78 300.833 -128.51C295.069 -124.028 289.492 -119.676 284.069 -115.467C272.609 -106.603 261.54 -98.2429 248.226 -90.5001C242.836 -87.3685 236.698 -84.1508 229.336 -80.9042C216.873 -75.4168 201.298 -69.2397 186.744 -60.0173C170.659 -49.8325 161.409 -38.7858 151.462 -30.9855C147.688 -28.0263 143.811 -25.656 140.036 -23.6593C129.154 -17.9133 117.643 -14.5375 106.677 -11.3915C95.7606 -8.25995 84.4877 -5.21452 73.0447 -2.02547C43.9186 6.04771 14.9455 16.3762 -26.3717 33.8585C-52.4542 44.8909 -83.9437 58.0063 -116.98 73.2189C-138.506 83.1164 -159.556 93.5455 -180.01 103.572C-223.283 124.775 -260.656 144.082 -293.216 162.9C-325.743 181.69 -354.291 200.853 -385.474 223.234C-399.91 233.591 -414.515 244.623 -430.039 256C-449.337 270.121 -470.523 284.975 -498.085 296.481C-525.715 308.016 -561.013 315.457 -591.244 314.294" stroke="#AFB7C2" stroke-width="0.9639" stroke-miterlimit="10"/>
<path opacity="0.761" d="M708.48 -502.821C650.228 -488.298 611.104 -450.173 567.814 -402.639C539.42 -371.467 510.838 -336.143 488.343 -301.897C468.823 -272.204 449.253 -242.066 427.744 -213.178C419.549 -202.059 411.03 -191.156 401.492 -181.374C378.912 -158.232 353.679 -142.157 332.459 -127.821C326.236 -123.612 320.183 -119.546 314.283 -115.639C301.837 -107.393 289.782 -99.7225 275.653 -92.6548C269.94 -89.7962 263.462 -86.8514 255.793 -83.8634C242.735 -78.7782 226.667 -72.9316 211.926 -63.6661C195.637 -53.4382 187.033 -42.1184 178.005 -34.0022C174.587 -30.928 171.067 -28.4285 167.684 -26.3169C157.907 -20.1973 147.569 -16.3618 137.759 -12.7562C127.982 -9.15057 117.882 -5.63111 107.612 -1.96801C81.4448 7.29747 55.5493 18.8613 15.8983 37.421C-9.079 49.1142 -40.0924 62.7755 -73.0951 78.2611C-94.5869 88.331 -115.841 98.8031 -136.703 108.744C-180.809 129.76 -219.559 148.276 -253.718 166.262C-287.792 184.204 -318.057 202.462 -350.685 224.282C-365.801 234.381 -381.019 245.226 -397.036 256.489C-416.963 270.452 -438.608 285.233 -466.323 296.84C-494.122 308.476 -529.251 316.204 -559.465 315.644" stroke="#AFB7C2" stroke-width="0.9551" stroke-miterlimit="10"/>
<path opacity="0.7439" d="M727.658 -508.151C675.408 -491.372 642.014 -451.811 602.04 -402.826C576.077 -371.007 548.889 -335.037 526.768 -300.274C507.674 -270.251 487.899 -239.912 465.591 -210.995C457.09 -199.876 448.197 -188.987 438.115 -179.319C414.293 -156.45 387.327 -141.195 364.509 -127.806C357.809 -123.885 351.28 -120.092 344.921 -116.472C331.472 -108.844 318.465 -101.849 303.502 -95.4705C297.483 -92.8991 290.648 -90.2128 282.656 -87.4691C269.003 -82.7861 252.425 -77.2699 237.531 -67.9614C221.038 -57.6903 213.08 -46.0976 204.953 -37.651C201.892 -34.4619 198.73 -31.8331 195.754 -29.6065C187.083 -23.1135 177.935 -18.8184 169.281 -14.7387C160.626 -10.6734 151.717 -6.66553 142.603 -2.52838C119.411 7.92941 96.5761 20.7144 58.5914 40.3802C34.7023 52.7342 4.18193 66.9556 -28.7868 82.6854C-50.2616 92.9133 -71.7193 103.443 -92.973 113.283C-137.929 134.112 -178.056 151.839 -213.796 168.991C-249.417 186.085 -281.4 203.438 -315.491 224.684C-331.287 234.524 -347.116 245.183 -363.626 256.316C-384.166 270.121 -406.27 284.831 -434.154 296.538C-462.124 308.275 -497.082 316.305 -527.263 316.348" stroke="#AFB7C2" stroke-width="0.9464" stroke-miterlimit="10"/>
<path opacity="0.7268" d="M747.042 -514.256C700.794 -495.223 673.079 -454.225 636.471 -403.789C612.922 -371.338 587.146 -334.721 565.416 -299.426C546.747 -269.087 526.785 -238.533 503.644 -209.587C494.837 -198.469 485.553 -187.609 474.943 -178.056C449.898 -155.459 421.18 -141.037 396.764 -128.582C389.588 -124.934 382.6 -121.443 375.765 -118.11C361.329 -111.1 347.353 -104.794 331.557 -99.0765C325.215 -96.778 318.04 -94.3647 309.742 -91.8795C295.494 -87.6131 278.423 -82.413 263.341 -73.0613C246.644 -62.7328 239.333 -50.896 232.107 -42.1189C229.386 -38.8149 226.615 -36.0568 224.014 -33.7153C216.464 -26.8488 208.49 -22.0939 200.992 -17.5546C193.476 -13.0152 185.74 -8.53331 177.8 -3.93648C157.566 7.71361 137.809 21.7196 101.49 42.4771C78.6892 55.5063 48.662 70.2736 15.7273 86.2476C-5.71347 96.6336 -27.3922 107.206 -49.037 116.974C-94.8259 137.617 -136.33 154.539 -173.669 170.872C-210.82 187.119 -244.537 203.567 -280.09 224.239C-296.583 233.82 -313.008 244.292 -330.011 255.31C-351.18 268.972 -373.743 283.595 -401.797 295.403C-429.937 307.24 -464.725 315.572 -494.889 316.204" stroke="#AFB7C2" stroke-width="0.9376" stroke-miterlimit="10"/>
<path opacity="0.7098" d="M766.426 -521.194C726.18 -499.905 704.11 -457.5 670.903 -405.584C649.751 -372.516 625.386 -335.238 604.064 -299.412C585.82 -268.757 565.655 -237.987 541.714 -209.027C532.618 -197.908 522.926 -187.077 511.789 -177.639C485.503 -155.315 455.05 -141.712 429.019 -130.205C421.367 -126.829 413.903 -123.626 406.609 -120.595C391.187 -114.217 376.259 -108.571 359.613 -103.544C352.965 -101.532 345.415 -99.3778 336.829 -97.1512C321.968 -93.287 304.421 -88.4172 289.152 -79.0225C272.268 -68.6509 265.569 -56.5554 259.278 -47.4479C256.915 -44.029 254.5 -41.1417 252.307 -38.6709C245.863 -31.4309 239.079 -26.2163 232.72 -21.2173C226.343 -16.2038 219.763 -11.2479 212.996 -6.17705C195.721 6.66534 179.041 21.8923 144.372 43.756C122.659 57.446 93.1253 72.7735 60.2415 89.0061C38.8348 99.55 16.952 110.18 -5.10083 119.862C-51.723 140.318 -94.6044 156.45 -133.541 171.95C-172.24 187.349 -207.674 202.893 -244.673 222.989C-261.846 232.327 -278.865 242.612 -296.379 253.486C-318.176 266.99 -341.198 281.556 -369.406 293.45C-397.716 305.387 -432.317 314.021 -462.48 315.242" stroke="#AFB7C2" stroke-width="0.9288" stroke-miterlimit="10"/>
<path opacity="0.6927" d="M785.622 -529.081C751.361 -505.551 734.936 -461.723 705.147 -408.328C686.359 -374.642 663.456 -336.704 642.525 -300.346C624.689 -269.36 604.337 -238.389 579.58 -209.4C570.178 -198.282 560.095 -187.465 548.431 -178.142C520.903 -156.091 488.717 -143.321 461.087 -132.748C452.976 -129.645 445.036 -126.729 437.266 -123.985C420.858 -118.225 404.96 -113.269 387.481 -108.917C380.527 -107.178 372.62 -105.311 363.711 -103.328C348.238 -99.8808 330.198 -95.3127 314.776 -85.8892C297.688 -75.4602 291.635 -63.1206 286.245 -53.6827C284.239 -50.1633 282.199 -47.1323 280.379 -44.5465C275.057 -36.9187 269.446 -31.2588 264.243 -25.7857C259.024 -20.2839 253.6 -14.8682 248.006 -9.32331C233.706 4.71138 220.087 21.1594 187.084 44.1148C166.459 58.4656 137.418 74.339 104.569 90.8302C83.179 101.547 61.0921 112.22 38.6482 121.801C-8.8071 142.07 -53.0488 157.412 -93.6009 172.079C-133.83 186.631 -170.998 201.269 -209.459 220.805C-227.329 229.884 -244.944 239.983 -262.967 250.742C-285.394 264.087 -308.875 278.582 -337.253 290.577C-365.733 302.615 -400.164 311.535 -430.311 313.374" stroke="#AFB7C2" stroke-width="0.9201" stroke-miterlimit="10"/>
<path opacity="0.6756" d="M804.427 -537.958C776.168 -512.173 765.32 -466.952 739 -412.048C722.558 -377.745 701.117 -339.131 680.578 -302.256C663.15 -270.955 642.61 -239.782 617.054 -210.765C607.346 -199.646 596.872 -188.858 584.698 -179.65C555.929 -157.873 522.008 -145.921 492.78 -136.31C484.193 -133.495 475.794 -130.852 467.547 -128.41C450.153 -123.267 433.303 -118.986 414.974 -115.309C407.714 -113.858 399.434 -112.249 390.235 -110.525C374.167 -107.494 355.634 -103.242 340.025 -93.7899C322.733 -83.3177 317.309 -70.7052 312.837 -60.9369C311.171 -57.3025 309.505 -54.1422 308.094 -51.4416C303.894 -43.4259 299.456 -37.3207 295.409 -31.3879C291.329 -25.412 287.078 -19.5223 282.657 -13.5033C271.316 1.72366 260.757 19.3927 229.438 43.4542C209.901 58.4514 181.353 74.8994 148.538 91.6491C127.182 102.523 104.874 113.24 82.0562 122.75C33.7678 142.846 -11.8513 157.384 -54.0186 171.217C-95.7779 184.922 -134.698 198.655 -174.587 217.617C-193.137 226.437 -211.364 236.349 -229.88 246.979C-252.936 260.166 -276.859 274.589 -305.407 286.684C-334.057 298.822 -368.318 308.045 -398.431 310.473" stroke="#AFB7C2" stroke-width="0.9113" stroke-miterlimit="10"/>
<path opacity="0.6585" d="M822.62 -547.885C800.363 -519.844 795.058 -473.229 772.223 -416.832C758.094 -381.91 738.15 -342.636 718.018 -305.23C701.015 -273.612 680.271 -242.224 653.9 -213.178C643.885 -202.059 633.02 -191.286 620.319 -182.207C590.326 -160.702 554.654 -149.584 523.81 -140.907C514.748 -138.365 505.872 -136.009 497.166 -133.868C478.769 -129.343 460.984 -125.723 441.822 -122.75C434.239 -121.572 425.618 -120.25 416.113 -118.756C399.433 -116.142 380.424 -112.206 364.628 -102.711C347.132 -92.1953 342.338 -79.3242 338.801 -69.2255C337.492 -65.4762 336.199 -62.1865 335.162 -59.371C332.085 -50.9818 328.837 -44.4169 325.913 -38.0245C322.971 -31.5745 319.894 -25.2108 316.629 -18.7178C308.264 -2.29847 300.748 16.5916 271.112 41.7449C252.664 57.4028 224.609 74.4111 191.827 91.405C170.506 102.437 147.994 113.211 124.768 122.62C75.646 142.53 28.6498 156.278 -15.1158 169.278C-58.4054 182.135 -99.0595 194.949 -140.411 213.35C-159.641 221.912 -178.463 231.637 -197.49 242.138C-221.175 255.181 -245.557 269.518 -274.275 281.714C-303.095 293.953 -337.186 303.477 -367.281 306.494" stroke="#AFB7C2" stroke-width="0.9025" stroke-miterlimit="10"/>
<path opacity="0.6415" d="M840.05 -558.946C823.795 -528.65 823.982 -480.642 804.7 -422.75C792.866 -387.225 774.435 -347.276 754.712 -309.338C738.117 -277.404 717.186 -245.801 690.016 -216.741C679.695 -205.622 668.439 -194.877 655.21 -185.899C623.976 -164.667 586.569 -154.367 554.128 -146.639C544.606 -144.369 535.254 -142.301 526.073 -140.448C506.689 -136.555 487.952 -133.595 467.94 -131.311C460.05 -130.406 451.056 -129.372 441.245 -128.122C423.953 -125.924 404.451 -122.304 388.485 -112.766C370.785 -102.193 366.619 -89.078 364.001 -78.6489C363.031 -74.7847 362.13 -71.3658 361.484 -68.4353C359.546 -59.6582 357.454 -52.6481 355.686 -45.7816C353.901 -38.8576 351.979 -32.0199 349.888 -25.0671C344.481 -7.44118 340.026 12.6413 312.074 38.9007C294.696 55.2194 267.152 72.7879 234.404 90.0404C213.116 101.245 190.383 112.062 166.766 121.385C116.795 141.108 68.4551 154.08 23.0742 166.233C-21.7456 178.256 -64.134 190.151 -106.931 207.978C-126.858 216.281 -146.275 225.819 -165.795 236.205C-190.109 249.091 -214.95 263.37 -243.821 275.652C-272.811 287.991 -306.732 297.817 -336.811 301.423" stroke="#AFB7C2" stroke-width="0.8938" stroke-miterlimit="10"/>
<path opacity="0.6244" d="M856.507 -571.185C846.254 -538.634 851.916 -489.247 836.205 -429.847C826.649 -393.719 809.748 -353.094 790.433 -314.61C774.246 -282.361 753.129 -250.542 725.142 -221.452C714.515 -210.32 702.868 -199.618 689.112 -190.754C656.637 -169.796 617.496 -160.329 583.456 -153.534C573.458 -151.538 563.631 -149.771 553.99 -148.205C533.62 -144.93 513.931 -142.631 493.068 -141.051C484.873 -140.433 475.521 -139.672 465.404 -138.666C447.5 -136.885 427.522 -133.581 411.386 -124C393.482 -113.384 389.945 -100.01 388.262 -89.2506C387.633 -85.2858 387.123 -81.7232 386.851 -78.6778C386.052 -69.5129 385.134 -62.0574 384.504 -54.7312C383.875 -47.3332 383.11 -40.0214 382.192 -32.5947C379.744 -13.7764 378.349 7.52711 352.063 34.8926C335.774 51.8721 308.722 69.9865 276.009 87.4976C254.738 98.8604 231.801 109.72 207.793 118.957C156.988 138.494 107.271 150.675 60.292 162.009C13.9419 173.185 -30.1978 184.175 -74.4395 201.441C-95.0641 209.486 -115.077 218.852 -135.089 229.094C-160.015 241.822 -185.333 256.029 -214.357 268.426C-243.517 280.866 -277.268 290.993 -307.329 295.202" stroke="#AFB7C2" stroke-width="0.885" stroke-miterlimit="10"/>
<path opacity="0.6073" d="M871.759 -584.703C867.509 -549.896 878.595 -499.115 866.505 -438.222C859.211 -401.476 843.858 -360.191 824.95 -321.175C809.155 -288.609 787.867 -256.575 759.081 -227.472C748.165 -216.339 736.11 -205.651 721.844 -196.903C688.127 -176.217 647.252 -167.569 611.597 -161.722C601.123 -160.013 590.836 -158.519 580.72 -157.241C559.364 -154.583 538.722 -152.96 517.01 -152.055C508.508 -151.71 498.782 -151.236 488.377 -150.475C469.86 -149.124 449.406 -146.122 433.083 -136.497C414.975 -125.838 412.05 -112.206 411.302 -101.116C411.03 -97.0365 410.894 -93.3446 411.013 -90.1843C411.37 -80.6459 411.591 -72.7307 412.101 -64.9448C412.628 -57.0728 413.019 -49.287 413.257 -41.3861C413.785 -21.3756 415.417 1.13459 390.831 29.6062C375.613 47.2322 349.071 65.9211 316.409 83.6907C295.172 95.2115 272.031 106.129 247.615 115.28C195.977 134.629 144.9 146.021 96.3053 156.522C48.425 166.865 2.55095 176.92 -43.136 193.627C-64.4407 201.413 -85.0483 210.592 -105.571 220.719C-131.126 233.289 -156.886 247.424 -186.097 259.922C-215.427 272.462 -249.008 282.877 -279.035 287.689" stroke="#AFB7C2" stroke-width="0.8763" stroke-miterlimit="10"/>
<path opacity="0.5902" d="M885.651 -599.542C887.385 -562.48 903.895 -510.306 895.445 -447.918C890.378 -410.569 876.588 -368.608 858.089 -329.061C842.701 -296.165 821.227 -263.93 791.625 -234.797C780.403 -223.665 767.956 -213.006 753.164 -204.372C718.223 -183.959 675.596 -176.145 638.343 -171.232C627.41 -169.795 616.647 -168.589 606.071 -167.612C583.729 -165.572 562.119 -164.61 539.573 -164.408C530.765 -164.337 520.682 -164.15 509.953 -163.618C490.825 -162.699 469.894 -159.998 453.385 -150.331C435.072 -139.614 432.777 -125.723 432.947 -114.303C433.015 -110.108 433.27 -106.302 433.763 -102.998C435.259 -93.0714 436.654 -84.7109 438.303 -76.451C439.969 -68.1048 441.534 -59.8449 442.945 -51.47C446.43 -30.2672 451.106 -6.53604 428.22 23.0417C414.074 41.3285 388.042 60.5777 355.414 78.5915C334.211 90.2847 310.849 101.231 286.041 110.295C233.57 129.458 181.116 140.074 130.923 149.727C81.5129 159.223 33.8875 168.373 -13.2447 184.505C-35.2465 192.033 -56.4492 201.025 -77.4648 211.023C-103.649 223.449 -129.868 237.498 -159.232 250.096C-188.732 262.738 -222.143 273.454 -252.153 278.855" stroke="#AFB7C2" stroke-width="0.8675" stroke-miterlimit="10"/>
<path opacity="0.5732" d="M897.961 -615.803C905.697 -576.5 927.563 -522.918 922.802 -459.036C919.963 -421.07 907.755 -378.448 889.664 -338.37C874.684 -305.158 853.039 -272.721 822.621 -243.56C811.093 -232.427 798.256 -221.797 782.936 -213.278C746.754 -193.139 702.393 -186.157 663.541 -182.178C652.132 -181.014 640.893 -180.095 629.858 -179.42C606.513 -177.998 583.967 -177.696 560.571 -178.199C551.458 -178.4 541.001 -178.501 529.983 -178.213C510.259 -177.71 488.819 -175.311 472.139 -165.615C453.623 -154.856 451.939 -140.706 453.062 -128.955C453.47 -124.646 454.116 -120.71 455 -117.291C457.652 -106.991 460.203 -98.1709 462.991 -89.4513C465.814 -80.6311 468.534 -71.8828 471.102 -63.0482C477.563 -40.6531 485.265 -15.7153 464.079 14.9686C451.004 33.9161 425.483 53.7256 392.888 71.9836C371.702 83.8348 348.136 94.8385 322.938 103.817C269.634 122.793 215.819 132.633 164.011 141.439C113.07 150.101 63.7107 158.332 15.1162 173.904C-7.56571 181.173 -29.3805 189.978 -50.9063 199.847C-77.72 212.115 -104.398 226.107 -133.932 238.791C-163.602 251.533 -196.843 262.551 -226.836 268.556" stroke="#AFB7C2" stroke-width="0.8587" stroke-miterlimit="10"/>
<path opacity="0.5561" d="M908.486 -633.558C922.225 -592 949.43 -537.025 948.358 -471.635C947.729 -433.05 937.102 -389.768 919.436 -349.158C904.848 -315.63 883.033 -282.978 851.799 -253.788C839.964 -242.655 826.736 -232.039 810.889 -223.636C773.466 -203.769 727.371 -197.606 686.904 -194.59C675.019 -193.699 663.321 -193.067 651.81 -192.679C627.478 -191.889 603.963 -192.234 579.734 -193.426C570.298 -193.9 559.501 -194.288 548.177 -194.245C527.841 -194.173 505.924 -192.076 489.074 -182.336C470.354 -171.534 469.283 -157.125 471.34 -145.044C472.088 -140.62 473.143 -136.555 474.384 -133.021C478.175 -122.348 481.882 -113.068 485.81 -103.888C489.788 -94.5942 493.665 -85.3718 497.406 -76.0776C506.825 -52.4901 517.554 -26.3313 498.086 5.45862C486.082 25.0526 461.071 45.4224 428.51 63.9533C407.358 75.9625 383.588 87.0237 357.981 95.9157C303.844 114.72 248.653 123.755 195.246 131.728C142.775 139.557 91.6641 146.854 41.6414 161.866C18.2623 168.876 -4.1306 177.495 -26.1664 187.249C-53.6092 199.359 -80.7459 213.278 -110.433 226.063C-140.273 238.906 -173.344 250.225 -203.32 256.819" stroke="#AFB7C2" stroke-width="0.85" stroke-miterlimit="10"/>
<path opacity="0.539" d="M916.614 -652.836C936.354 -609.022 968.881 -552.639 971.533 -485.77C973.098 -446.568 964.069 -402.625 946.828 -361.483C932.648 -327.639 910.646 -294.772 878.612 -265.567C866.472 -254.434 852.853 -243.847 836.496 -235.559C797.831 -215.965 750.002 -210.635 707.936 -208.552C695.592 -207.949 683.401 -207.59 671.431 -207.504C646.114 -207.331 621.646 -208.337 596.567 -210.233C586.824 -210.98 575.67 -211.655 564.023 -211.856C543.093 -212.215 520.683 -210.42 503.646 -200.637C484.722 -189.777 484.262 -175.11 487.255 -162.713C488.343 -158.188 489.788 -153.979 491.421 -150.331C496.369 -139.284 501.231 -129.544 506.298 -119.891C511.433 -110.123 516.466 -100.426 521.38 -90.658C533.758 -65.8782 547.53 -38.4984 529.745 -5.61667C518.795 14.6381 494.311 35.568 461.784 54.3432C440.667 66.5248 416.676 77.6146 390.695 86.4204C335.707 105.038 279.173 113.298 224.151 120.423C170.133 127.418 117.304 133.797 65.8195 148.233C41.7603 154.985 18.7552 163.432 -3.77368 173.042C-31.8456 184.994 -59.4244 198.842 -89.2816 211.727C-119.292 224.67 -152.193 236.277 -182.135 243.474" stroke="#AFB7C2" stroke-width="0.8412" stroke-miterlimit="10"/>
<path opacity="0.522" d="M919.86 -673.551C945.603 -627.482 983.417 -569.677 989.827 -501.342C993.568 -461.508 986.155 -416.918 969.339 -375.245C955.55 -341.085 933.378 -308.002 900.528 -278.769C888.082 -267.636 874.071 -257.064 857.187 -248.904C817.298 -229.583 767.718 -225.073 724.054 -223.938C711.234 -223.607 698.584 -223.55 686.138 -223.751C659.834 -224.196 634.398 -225.848 608.485 -228.463C598.436 -229.468 586.908 -230.445 574.972 -230.89C553.429 -231.681 530.526 -230.187 513.319 -220.375C494.191 -209.472 494.344 -194.547 498.289 -181.805C499.717 -177.165 501.553 -172.827 503.56 -169.063C509.664 -157.643 515.683 -147.444 521.889 -137.331C528.18 -127.088 534.369 -116.918 540.439 -106.676C555.793 -80.7035 572.575 -52.1169 556.507 -18.1147C546.628 2.80085 522.654 24.2911 490.161 43.3248C469.078 55.6644 444.866 66.8117 418.494 75.5313C362.673 93.9617 304.761 101.446 248.141 107.723C192.593 113.886 138.013 119.33 85.0998 133.207C60.3435 139.7 36.7434 147.96 13.7214 157.455C-14.9796 169.264 -43.0175 183.04 -73.0447 196.011C-103.225 209.055 -135.956 220.964 -165.881 228.764" stroke="#AFB7C2" stroke-width="0.8324" stroke-miterlimit="10"/>
<path opacity="0.5049" d="M919.861 -695.903C951.589 -647.579 994.674 -588.351 1004.88 -518.551C1010.79 -478.085 1005 -432.849 988.587 -390.645C975.189 -356.168 952.847 -322.87 919.198 -293.608C906.463 -282.461 892.045 -271.932 874.634 -263.873C833.503 -244.825 782.188 -241.147 736.927 -240.946C723.63 -240.889 710.521 -241.118 697.599 -241.607C670.309 -242.67 643.903 -244.983 617.158 -248.301C606.786 -249.579 594.918 -250.843 582.676 -251.519C560.538 -252.74 537.142 -251.547 519.765 -241.693C500.432 -230.747 501.198 -215.548 506.077 -202.491C507.846 -197.736 510.073 -193.268 512.47 -189.39C519.731 -177.596 526.889 -166.937 534.251 -156.364C541.699 -145.648 549.044 -135.003 556.287 -124.287C574.599 -97.1226 594.408 -67.3151 580.057 -32.2212C571.233 -10.6592 547.803 11.4057 515.344 30.6836C494.277 43.1813 469.878 54.3861 443.098 63.0051C386.445 81.2488 327.172 87.9572 268.937 93.3872C211.858 98.7166 155.544 103.227 101.169 116.558C75.7155 122.793 51.5202 130.866 28.0052 140.232C-1.30795 151.882 -29.8219 165.586 -60.0021 178.658C-90.3524 191.802 -122.913 204.013 -152.821 212.402" stroke="#AFB7C2" stroke-width="0.8237" stroke-miterlimit="10"/>
<path opacity="0.4878" d="M916.731 -719.993C954.461 -669.414 1002.8 -608.75 1016.79 -537.499C1024.87 -496.4 1020.7 -450.518 1004.72 -407.782C991.715 -372.99 969.203 -339.491 934.755 -310.2C921.713 -299.053 906.904 -288.552 888.966 -280.608C846.594 -261.833 793.545 -258.974 746.668 -259.721C732.895 -259.937 719.31 -260.454 705.929 -261.244C677.636 -262.925 650.261 -265.898 622.699 -269.906C612.021 -271.457 599.796 -273.009 587.231 -273.928C564.498 -275.58 540.609 -274.69 523.045 -264.792C503.508 -253.788 504.886 -238.346 510.701 -224.958C512.809 -220.088 515.428 -215.505 518.199 -211.498C526.616 -199.33 534.964 -188.226 543.414 -177.165C552.052 -165.989 560.502 -154.856 568.919 -143.666C590.207 -115.295 613.025 -84.2947 600.391 -48.0803C592.638 -25.8575 569.718 -3.24679 537.293 16.3041C516.261 28.9741 491.64 40.2076 464.47 48.7548C406.983 66.8117 346.333 72.7445 286.5 77.327C227.89 81.8233 169.825 85.4145 114.022 98.1708C87.8881 104.147 63.0978 112.033 39.0726 121.284C9.13036 132.776 -19.8427 146.409 -50.193 159.582C-80.7133 172.826 -113.104 185.338 -142.995 194.316" stroke="#AFB7C2" stroke-width="0.8149" stroke-miterlimit="10"/>
<path opacity="0.4707" d="M910.424 -745.922C954.155 -693.087 1007.71 -630.987 1025.53 -558.285C1035.75 -516.54 1033.22 -470.04 1017.68 -426.758C1005.06 -391.65 982.38 -357.935 947.116 -328.616C933.769 -317.469 918.568 -306.982 900.103 -299.153C856.49 -280.651 801.707 -278.625 753.231 -280.306C739 -280.809 724.938 -281.599 711.081 -282.691C681.802 -285.004 653.458 -288.624 625.063 -293.335C614.062 -295.16 601.497 -297.013 588.626 -298.162C565.298 -300.259 540.898 -299.656 523.164 -289.715C503.424 -278.669 505.413 -262.953 512.18 -249.249C514.646 -244.264 517.655 -239.552 520.801 -235.43C530.356 -222.889 539.878 -211.325 549.468 -199.804C559.244 -188.154 568.868 -176.547 578.458 -164.897C602.704 -135.334 628.549 -103.113 617.633 -65.8067C610.933 -42.9231 588.54 -19.7521 556.15 0.0430085C535.151 12.871 510.31 24.1619 482.748 32.6086C424.428 50.4787 362.401 55.6358 300.969 59.3707C240.83 63.0338 180.963 65.6339 123.765 77.8874C96.9169 83.5759 71.5484 91.3044 47.0132 100.426C16.4418 111.76 -12.9903 125.321 -43.4936 138.594C-74.1839 151.939 -106.388 164.739 -136.262 174.32" stroke="#AFB7C2" stroke-width="0.8062" stroke-miterlimit="10"/>
<path opacity="0.4537" d="M900.817 -773.747C950.55 -718.657 1009.33 -655.106 1030.96 -580.968C1043.32 -538.576 1042.43 -491.444 1027.32 -447.631C1015.09 -412.206 992.242 -378.276 956.179 -348.942C942.525 -337.795 926.933 -327.337 907.958 -319.623C863.121 -301.394 806.586 -300.187 756.513 -302.831C741.805 -303.606 727.268 -304.684 712.951 -306.063C682.686 -308.993 653.373 -313.274 624.162 -318.69C612.838 -320.787 599.932 -322.927 586.755 -324.321C562.832 -326.849 537.94 -326.533 520.018 -316.564C500.074 -305.459 502.675 -289.485 510.378 -275.451C513.183 -270.351 516.584 -265.51 520.104 -261.258C530.815 -248.358 541.476 -236.32 552.222 -224.34C563.155 -212.216 573.935 -200.135 584.698 -188.01C611.903 -157.255 640.774 -123.813 631.558 -85.4005C625.913 -61.8561 604.047 -38.1249 571.69 -18.0712C550.709 -5.0852 525.663 6.26315 497.711 14.6236C438.557 32.3071 375.153 36.6884 312.123 39.5758C250.437 42.4057 188.852 44.0721 130.209 55.7653C102.664 61.1953 76.7004 68.7514 51.672 77.7296C20.4716 88.92 -9.40268 102.409 -40.076 115.768C-70.9364 129.214 -102.97 142.315 -132.827 152.5" stroke="#AFB7C2" stroke-width="0.7974" stroke-miterlimit="10"/>
<path opacity="0.4366" d="M887.759 -803.569C943.495 -746.238 1007.48 -681.207 1032.95 -605.633C1047.45 -562.581 1048.2 -514.831 1033.53 -470.486C1021.69 -434.746 998.686 -400.6 961.79 -371.238C947.831 -360.09 931.848 -349.661 912.345 -342.062C866.267 -324.106 807.998 -323.732 756.309 -327.309C741.126 -328.358 726.129 -329.722 711.336 -331.403C680.085 -334.951 649.786 -339.879 619.758 -346.012C608.128 -348.383 594.866 -350.81 581.366 -352.434C556.847 -355.393 531.462 -355.378 513.371 -345.366C493.222 -334.219 496.436 -317.972 505.073 -303.621C508.219 -298.406 512.011 -293.451 515.921 -289.069C527.789 -275.796 539.589 -263.313 551.474 -250.844C563.547 -238.246 575.5 -225.69 587.419 -213.092C617.599 -181.144 649.463 -146.481 641.981 -106.977C637.391 -82.7721 616.052 -58.4806 583.729 -38.1828C562.782 -25.0387 537.532 -13.6472 509.171 -5.37294C449.185 12.1381 384.403 15.7294 319.775 17.7692C256.558 19.766 193.239 20.513 133.134 31.6459C104.909 36.8174 78.3501 44.1865 52.8116 53.0498C20.9821 64.0822 -9.35122 77.4992 -40.1946 90.9593C-71.208 104.506 -103.089 117.908 -132.929 128.682" stroke="#AFB7C2" stroke-width="0.7886" stroke-miterlimit="10"/>
<path opacity="0.4195" d="M871.08 -835.459C932.801 -775.873 1002 -709.377 1031.32 -632.38C1047.96 -588.667 1050.34 -540.3 1036.09 -495.423C1024.65 -459.367 1001.48 -425.006 963.78 -395.629C949.532 -384.482 933.141 -374.067 913.111 -366.583C865.792 -348.9 805.789 -349.345 752.501 -353.87C736.859 -355.191 721.386 -356.843 706.117 -358.826C673.879 -362.992 642.594 -368.58 611.751 -375.403C599.798 -378.046 586.195 -380.761 572.389 -382.629C547.275 -386.019 521.38 -386.306 503.119 -376.251C482.766 -365.06 486.592 -348.555 496.182 -333.874C499.667 -328.544 503.85 -323.459 508.135 -318.963C521.142 -305.316 534.115 -292.373 547.139 -279.444C560.368 -266.372 573.477 -253.343 586.569 -240.271C619.708 -207.13 654.598 -171.246 648.834 -130.636C645.315 -105.77 624.486 -80.933 592.214 -60.3622C571.301 -47.0458 545.83 -35.6112 517.078 -27.4231C456.242 -10.0988 390.117 -7.28326 323.873 -6.09096C259.126 -4.92739 194.073 -5.0998 132.522 5.45854C103.617 10.3714 76.4463 17.5539 50.4147 26.2879C17.9561 37.1623 -12.8362 50.5076 -43.8326 64.0826C-75.0161 77.7294 -106.727 91.4336 -136.55 102.796" stroke="#AFB7C2" stroke-width="0.7799" stroke-miterlimit="10"/>
<path opacity="0.4024" d="M850.641 -869.476C918.364 -807.634 992.752 -739.659 1025.92 -661.254C1044.71 -616.88 1048.74 -567.895 1034.92 -522.487C1023.85 -486.115 1000.52 -451.538 962.01 -422.133C947.456 -410.985 930.674 -400.599 910.117 -393.23C861.557 -375.82 799.819 -377.098 744.933 -382.557C728.815 -384.166 712.866 -386.105 697.138 -388.36C663.914 -393.144 631.66 -399.393 599.983 -406.92C587.707 -409.836 573.782 -412.853 559.652 -414.95C533.961 -418.771 507.555 -419.36 489.107 -409.262C468.55 -398.014 472.988 -381.25 483.513 -366.252C487.339 -360.808 491.912 -355.594 496.588 -350.982C510.752 -336.976 524.864 -323.559 539.045 -310.171C553.412 -296.625 567.695 -283.122 581.943 -269.575C618.04 -235.243 655.94 -198.138 651.91 -156.436C649.445 -130.909 629.143 -105.512 596.906 -84.6966C576.009 -71.2222 550.334 -59.7302 521.191 -51.6283C459.522 -34.4908 392.037 -32.379 324.178 -32.106C257.901 -31.6895 191.113 -32.8819 128.1 -22.8838C98.4977 -18.2295 70.732 -11.2337 44.2073 -2.61464C11.1196 8.10172 -20.1319 21.3752 -51.2983 35.0508C-82.6518 48.7982 -114.192 62.7896 -143.981 74.7701" stroke="#AFB7C2" stroke-width="0.7711" stroke-miterlimit="10"/>
<path opacity="0.3854" d="M826.243 -905.719C899.967 -841.622 979.524 -772.153 1016.57 -692.354C1037.49 -647.306 1043.17 -597.717 1029.78 -551.778C1019.11 -515.089 995.609 -480.311 956.298 -450.877C941.438 -439.73 924.265 -429.358 903.198 -422.118C853.413 -404.981 789.924 -407.078 733.423 -413.485C716.828 -415.367 700.421 -417.593 684.217 -420.15C649.99 -425.566 616.766 -432.461 584.273 -440.692C571.691 -443.881 557.409 -447.185 542.956 -449.527C516.67 -453.793 489.771 -454.67 471.153 -444.528C450.392 -433.237 455.442 -416.2 466.902 -400.887C471.068 -395.328 476.05 -389.998 481.082 -385.258C496.402 -370.878 511.654 -357.001 526.973 -343.139C542.497 -329.133 557.936 -315.142 573.358 -301.136C612.43 -265.611 653.339 -227.285 651.027 -184.477C649.616 -158.289 629.841 -132.331 597.638 -111.272C576.775 -97.6396 550.897 -86.1045 521.362 -78.0888C458.86 -61.138 389.981 -59.802 320.54 -60.3766C252.716 -60.8075 184.211 -62.9049 119.735 -53.4814C89.4532 -49.0856 61.0922 -42.2766 34.0575 -33.7868C0.357603 -23.2141 -31.3529 -10.0126 -62.6893 3.7492C-94.2128 17.5972 -125.583 31.8904 -155.355 44.4598" stroke="#AFB7C2" stroke-width="0.7623" stroke-miterlimit="10"/>
<path opacity="0.3683" d="M797.711 -944.261C877.437 -877.908 962.163 -806.945 1003.09 -725.753C1026.13 -680.029 1033.27 -629.866 1020.52 -583.367C1010.08 -546.376 986.562 -511.369 946.435 -481.906C931.269 -470.744 913.705 -460.416 892.111 -453.276C841.085 -436.412 775.862 -439.342 717.763 -446.683C700.709 -448.837 683.825 -451.351 667.145 -454.196C631.932 -460.229 597.722 -467.785 564.413 -476.706C551.508 -480.168 536.885 -483.759 522.127 -486.345C495.262 -491.042 467.836 -492.22 449.048 -482.035C428.083 -470.701 433.745 -453.391 446.157 -437.748C450.663 -432.073 456.036 -426.615 461.46 -421.759C477.919 -407.021 494.344 -392.67 510.803 -378.348C527.465 -363.868 544.077 -349.402 560.672 -334.922C602.704 -298.205 646.486 -258.672 646.027 -214.758C645.585 -187.91 626.423 -161.392 594.253 -140.074C573.424 -126.269 547.325 -114.691 517.4 -106.761C454.064 -89.9974 383.807 -89.4516 312.752 -90.8594C243.38 -92.1379 173.158 -95.1401 107.237 -86.2768C76.2578 -82.1397 47.3018 -75.5031 19.774 -67.1426C-14.555 -56.7279 -46.7246 -43.5982 -78.2141 -29.7359C-109.908 -15.7873 -141.108 -1.19237 -170.863 11.9661" stroke="#AFB7C2" stroke-width="0.7536" stroke-miterlimit="10"/>
</g>
</g>
</svg>
