<svg width="826" height="423" viewBox="0 0 826 423" fill="none" xmlns="http://www.w3.org/2000/svg">
<g clip-path="url(#clip0_1333_23608)">
<g opacity="0.6">
<path d="M1738.74 -104.016C1708.23 -112.937 1670.73 -109.374 1645.31 -99.1462C1619.89 -88.9039 1604.63 -73.131 1593.5 -56.999C1564.88 -15.5988 1559.08 30.154 1541.26 73.7089C1523.46 117.264 1490.24 161.063 1422.04 185.311C1315.57 223.163 1165.47 202.018 1032.04 186.676C997.136 182.668 960.392 179.163 927.968 184.708C886.463 191.79 859.735 212.806 849.074 235.359C838.413 257.913 841.27 282.204 843.242 306.064C849.601 382.86 844.619 462.428 778.325 527.114C712.03 591.8 532.564 659.862 288.571 630.658" stroke="#AFB7C2" stroke-width="1.0778" stroke-miterlimit="10"/>
<path opacity="0.9829" d="M294.046 634.694C430.274 649.462 544.84 631.75 630.279 601.396C691.269 579.734 737.296 551.693 764.535 524.198C789.835 498.786 806.515 471.234 817.516 442.676C821.767 431.586 825.167 420.353 827.905 409.076C834.4 382.386 837.018 355.566 837.392 328.977C837.511 321.176 837.427 313.39 837.24 305.648C836.831 289.343 835.947 272.852 839.637 256.936C841.116 250.428 843.429 244.021 846.829 237.715C852.508 227.372 861.741 217.288 874.17 208.54C887.806 198.944 904.843 191.158 925.638 187.136C933.68 185.584 941.961 184.636 950.428 184.148C974.692 182.711 1000.4 184.938 1025.16 187.452C1049.81 189.951 1075.08 192.652 1100.53 195.108C1165.24 201.371 1231.08 205.968 1292.32 201.371C1331.53 198.455 1368.87 191.833 1402.35 179.666C1424.23 171.722 1442.73 161.867 1458.46 150.778C1491.7 127.362 1512.27 98.4742 1525.96 69.744C1539.72 40.7265 1548 10.761 1561.58 -18.472C1567.84 -31.889 1575.19 -45.1623 1584.69 -58.0622C1596.46 -74.0362 1612.17 -89.7372 1637.76 -100.08C1663.35 -110.423 1700.7 -114.273 1731.17 -105.941" stroke="#AFB7C2" stroke-width="1.069" stroke-miterlimit="10"/>
<path opacity="0.9659" d="M296.46 638.329C426.703 650.855 535.471 631.462 617.663 599.888C676.153 577.421 720.854 548.906 747.701 520.88C772.594 495.138 789.461 467.399 801.261 438.798C805.818 427.708 809.609 416.489 812.874 405.327C820.61 378.91 824.963 352.909 826.952 327.267C827.53 319.74 827.939 312.241 828.211 304.8C828.789 289.113 828.891 273.283 833.396 258.071C835.199 251.836 837.8 245.702 841.558 239.654C847.747 229.714 857.575 219.96 870.174 211.168C884.014 201.515 900.405 193.442 920.299 189.118C927.984 187.452 935.89 186.374 943.984 185.771C967.108 183.975 991.66 185.742 1015.26 187.782C1038.78 189.808 1062.87 192.034 1087.17 194.031C1148.9 199.102 1211.71 202.478 1271.26 196.789C1309.39 193.212 1346.22 186.044 1379.67 173.618C1401.52 165.502 1420.24 155.604 1436.36 144.615C1470.45 121.387 1492.38 93.2742 1507.67 65.3915C1522.97 37.2216 1532.97 8.17529 1548.01 -20.5118C1554.95 -33.6702 1562.91 -46.7568 1572.91 -59.5417C1585.3 -75.3577 1601.47 -91.0013 1627.21 -101.43C1652.97 -111.874 1690.16 -116.011 1720.61 -108.297" stroke="#AFB7C2" stroke-width="1.0603" stroke-miterlimit="10"/>
<path opacity="0.9488" d="M295.985 641.604C420.226 651.875 523.213 630.83 602.141 598.02C658.114 574.749 701.387 545.703 727.963 517.202C752.311 491.101 769.501 463.19 782.117 434.56C786.98 423.47 791.163 412.28 794.954 401.233C803.932 375.088 810.019 349.921 813.607 325.213C814.661 317.958 815.528 310.762 816.276 303.608C817.84 288.539 818.996 273.398 824.25 258.86C826.41 252.913 829.283 247.038 833.398 241.249C840.148 231.725 850.503 222.287 863.289 213.452C877.334 203.756 893.078 195.41 912.054 190.77C919.382 188.974 926.931 187.811 934.617 187.049C956.619 184.909 979.998 186.187 1002.44 187.753C1024.8 189.305 1047.75 191.057 1070.86 192.58C1129.64 196.458 1189.36 198.527 1247.27 191.819C1284.3 187.538 1320.65 179.852 1354.06 167.168C1375.88 158.894 1394.82 148.939 1411.33 138.036C1446.25 114.994 1469.58 87.6716 1486.45 60.6221C1503.28 33.2853 1515.01 5.15851 1531.51 -22.954C1539.14 -35.8682 1547.68 -48.768 1558.18 -61.4093C1571.21 -77.0672 1587.82 -92.639 1613.75 -103.169C1639.68 -113.713 1676.69 -118.151 1707.13 -111.026" stroke="#AFB7C2" stroke-width="1.0515" stroke-miterlimit="10"/>
<path opacity="0.9317" d="M292.839 644.592C411.077 652.608 508.266 629.911 583.947 595.866C637.404 571.819 679.333 542.255 705.552 513.223C729.441 486.792 746.869 458.679 760.284 430.035C765.453 418.945 770.027 407.769 774.346 396.852C784.548 370.98 792.386 346.631 797.572 322.872C799.102 315.905 800.445 308.98 801.653 302.114C804.203 287.663 806.362 273.197 812.415 259.349C814.898 253.675 818.094 248.072 822.532 242.542C829.843 233.42 840.725 224.298 853.682 215.435C867.93 205.695 883.029 197.062 901.103 192.12C908.074 190.21 915.249 188.917 922.561 188.041C943.44 185.541 965.629 186.346 986.951 187.452C1008.17 188.529 1029.95 189.808 1051.89 190.856C1107.71 193.528 1164.34 194.361 1220.59 186.59C1256.53 181.62 1292.39 173.403 1325.77 160.474C1347.57 152.042 1366.69 142.044 1383.61 131.227C1419.37 108.372 1444.19 81.8684 1462.54 55.609C1481.04 29.1485 1494.37 1.89788 1512.33 -25.64C1520.64 -38.2956 1529.79 -51.0088 1540.79 -63.5351C1554.44 -79.0351 1571.51 -94.535 1597.6 -105.165C1623.69 -115.81 1660.52 -120.55 1690.94 -114.014" stroke="#AFB7C2" stroke-width="1.0427" stroke-miterlimit="10"/>
<path opacity="0.9146" d="M287.211 647.365C399.447 653.125 490.821 628.805 563.271 593.481C614.195 568.658 654.798 538.578 680.677 509.029C704.124 482.266 721.773 453.953 735.987 425.28C741.462 414.19 746.427 403.043 751.256 392.226C762.699 366.627 772.272 343.112 779.073 320.286C781.062 313.592 782.881 306.955 784.565 300.39C788.118 286.556 791.264 272.766 798.116 259.593C800.921 254.206 804.441 248.862 809.202 243.59C817.074 234.885 828.5 226.079 841.626 217.173C856.079 207.376 870.532 198.484 887.688 193.227C894.302 191.201 901.12 189.793 908.023 188.788C927.781 185.929 948.796 186.259 968.962 186.906C989.025 187.509 1009.65 188.314 1030.43 188.888C1083.27 190.368 1136.85 189.951 1191.43 181.102C1226.28 175.457 1261.65 166.694 1294.99 153.521C1316.76 144.917 1336.11 134.875 1353.42 124.145C1390.01 101.462 1416.22 75.7631 1436.15 50.3369C1456.22 24.7239 1471.25 -1.60726 1490.65 -28.5849C1499.66 -40.982 1509.4 -53.5083 1520.91 -65.9054C1535.19 -81.2617 1552.72 -96.6754 1578.96 -107.406C1605.23 -118.151 1641.89 -123.193 1672.29 -117.261" stroke="#AFB7C2" stroke-width="1.034" stroke-miterlimit="10"/>
<path opacity="0.8976" d="M279.305 650.008C385.539 653.513 471.098 627.584 540.317 590.981C588.708 565.397 628.002 534.785 653.506 504.719C676.494 477.626 694.381 449.112 709.412 420.424C715.176 409.335 720.549 398.216 725.905 387.514C738.589 362.188 749.896 339.492 758.295 317.614C760.761 311.192 763.039 304.843 765.198 298.565C769.738 285.35 773.887 272.234 781.538 259.751C784.667 254.637 788.509 249.566 793.61 244.538C802.044 236.235 813.997 227.76 827.31 218.81C841.967 208.97 855.773 199.791 872.028 194.217C878.285 192.077 884.729 190.54 891.258 189.42C909.911 186.202 929.736 186.072 948.745 186.231C967.67 186.374 987.121 186.69 1006.73 186.805C1056.61 187.092 1107.11 185.426 1160.02 175.514C1193.78 169.193 1228.67 159.899 1261.96 146.453C1283.69 137.691 1303.26 127.592 1320.96 116.962C1358.38 94.4662 1386.01 69.5715 1407.5 44.9641C1429.13 20.1987 1445.86 -5.22752 1466.72 -31.6449C1476.42 -43.7834 1486.77 -56.1231 1498.77 -68.3909C1513.69 -83.5891 1531.67 -98.9454 1558.08 -109.762C1584.52 -120.594 1621.01 -125.937 1651.39 -120.608" stroke="#AFB7C2" stroke-width="1.0252" stroke-miterlimit="10"/>
<path opacity="0.8805" d="M269.307 652.565C369.539 653.814 449.266 626.291 515.272 588.396C561.146 562.065 599.113 530.907 624.244 500.323C646.789 472.9 664.898 444.185 680.727 415.469C686.797 404.365 692.561 393.275 698.444 382.688C712.37 357.635 725.411 335.771 735.409 314.841C738.35 308.693 741.105 302.631 743.723 296.655C749.249 284.071 754.384 271.631 762.852 259.823C766.303 254.996 770.469 250.198 775.893 245.415C784.888 237.514 797.368 229.369 810.868 220.376C825.729 210.479 838.889 201.041 854.243 195.151C860.143 192.882 866.23 191.244 872.351 189.994C889.881 186.417 908.516 185.814 926.386 185.512C944.154 185.182 962.449 185.024 980.898 184.665C1027.83 183.76 1075.25 180.844 1126.49 169.854C1159.16 162.859 1193.55 153.019 1226.81 139.329C1248.51 130.408 1268.28 120.266 1286.39 109.708C1324.65 87.3988 1353.67 63.2941 1376.74 39.5199C1399.94 15.6164 1418.27 -8.9479 1440.69 -34.762C1451.01 -46.6563 1462.01 -58.7948 1474.53 -70.9476C1490.07 -85.9879 1508.5 -101.272 1535.08 -112.19C1561.69 -123.122 1598 -128.767 1628.35 -124.027" stroke="#AFB7C2" stroke-width="1.0165" stroke-miterlimit="10"/>
<path opacity="0.8634" d="M257.439 655.136C351.687 654.131 425.565 625.041 488.374 585.825C531.714 558.761 568.356 527.043 593.129 495.942C615.233 468.189 633.545 439.286 650.208 410.542C656.584 399.438 662.739 388.376 669.149 377.904C684.299 353.124 699.091 332.08 710.704 312.098C714.105 306.237 717.336 300.448 720.413 294.773C726.925 282.807 733.063 271.042 742.313 259.924C746.105 255.37 750.576 250.845 756.323 246.32C765.879 238.821 778.886 231.007 792.557 221.971C807.621 212.031 820.136 202.306 834.571 196.114C840.131 193.73 845.827 191.963 851.574 190.598C867.982 186.662 885.444 185.613 902.175 184.823C918.804 184.033 935.926 183.387 953.201 182.553C997.153 180.456 1041.51 176.29 1091.11 164.238C1122.67 156.567 1156.59 146.181 1189.81 132.232C1211.49 123.139 1231.47 112.955 1249.97 102.482C1289.06 80.3601 1319.5 57.0456 1344.13 34.1046C1368.89 11.0486 1388.9 -12.6107 1412.79 -37.8502C1423.81 -49.4859 1435.4 -61.452 1448.41 -73.4613C1464.56 -88.3435 1483.47 -103.556 1510.22 -114.574C1537 -125.607 1573.15 -131.554 1603.48 -127.417" stroke="#AFB7C2" stroke-width="1.0077" stroke-miterlimit="10"/>
<path opacity="0.8463" d="M243.854 657.765C332.1 654.504 400.163 623.863 459.741 583.31C500.565 555.528 535.88 523.236 560.297 491.618C581.958 463.534 600.492 434.431 617.954 405.657C624.636 394.553 631.182 383.521 638.119 373.164C654.51 348.657 671.037 328.445 684.248 309.397C688.125 303.809 691.832 298.321 695.368 292.92C702.867 281.572 710.008 270.482 720.056 260.038C724.171 255.772 728.966 251.506 735.053 247.239C745.187 240.143 758.721 232.659 772.562 223.594C787.83 213.611 799.681 203.612 813.233 197.105C818.436 194.605 823.775 192.724 829.113 191.23C844.416 186.935 860.688 185.412 876.263 184.148C891.752 182.898 907.701 181.763 923.803 180.456C964.797 177.166 1006.08 171.765 1054.01 158.621C1084.48 150.275 1117.91 139.343 1151.1 125.15C1172.74 115.899 1192.94 105.657 1211.83 95.2852C1251.77 73.3497 1283.59 50.8396 1309.8 28.7174C1336.12 6.50893 1357.84 -16.2454 1383.19 -40.9103C1394.89 -52.2874 1407.1 -64.0668 1420.6 -75.961C1437.38 -90.6996 1456.74 -105.826 1483.64 -116.945C1510.59 -128.078 1546.57 -134.326 1576.89 -130.778" stroke="#AFB7C2" stroke-width="0.9989" stroke-miterlimit="10"/>
<path opacity="0.8293" d="M228.79 660.523C311.033 655.021 373.281 622.829 429.629 580.926C467.937 552.44 501.943 519.573 525.968 487.424C547.205 459.024 565.942 429.705 584.22 400.917C591.208 389.813 598.145 378.795 605.593 368.553C623.225 344.319 641.486 324.926 656.295 306.826C660.648 301.511 664.814 296.311 668.827 291.211C677.328 280.48 685.439 270.08 696.303 260.312C700.741 256.332 705.859 252.325 712.269 248.302C722.981 241.608 737.026 234.455 751.053 225.347C766.526 215.306 777.731 205.049 790.381 198.211C795.227 195.597 800.192 193.6 805.156 191.963C819.354 187.308 834.435 185.311 848.854 183.588C863.204 181.864 877.98 180.255 892.926 178.474C930.944 173.992 969.15 167.355 1015.43 153.134C1044.8 144.112 1077.75 132.649 1110.9 118.183C1132.51 108.774 1152.92 98.4889 1172.2 88.1892C1212.97 66.4404 1246.18 44.7204 1273.98 23.4313C1301.85 2.08478 1325.28 -19.779 1352.07 -43.8836C1364.45 -55.0022 1377.26 -66.5948 1391.27 -78.3598C1408.68 -92.9404 1428.5 -108.009 1455.55 -119.228C1482.67 -130.462 1518.48 -136.998 1548.78 -134.053" stroke="#AFB7C2" stroke-width="0.9902" stroke-miterlimit="10"/>
<path opacity="0.8122" d="M212.466 663.54C288.707 655.783 345.14 622.082 398.257 578.8C434.065 549.624 466.728 516.154 490.379 483.488C511.174 454.757 530.132 425.237 549.21 396.421C556.504 385.317 563.832 374.327 571.807 364.2C590.68 340.239 610.692 321.679 627.1 304.513C631.912 299.485 636.554 294.558 641.043 289.76C650.53 279.661 659.627 269.936 671.308 260.843C676.069 257.137 681.527 253.402 688.243 249.638C699.533 243.346 714.087 236.509 728.285 227.372C743.962 217.288 754.52 206.758 766.252 199.605C770.741 196.875 775.349 194.749 779.906 192.997C792.998 187.983 806.889 185.527 820.169 183.329C833.363 181.146 846.982 179.048 860.755 176.807C895.815 171.133 930.943 163.247 975.559 147.948C1003.83 138.251 1036.29 126.242 1069.42 111.532C1091.01 101.951 1111.62 91.6222 1131.29 81.423C1172.9 59.861 1207.5 38.9455 1236.88 18.4752C1266.31 -2.02374 1291.42 -22.9824 1319.7 -46.5124C1332.76 -57.3868 1346.17 -68.7784 1360.69 -80.4141C1378.73 -94.8366 1399 -109.834 1426.24 -121.153C1453.53 -132.488 1489.17 -139.325 1519.43 -136.969" stroke="#AFB7C2" stroke-width="0.9814" stroke-miterlimit="10"/>
<path opacity="0.7951" d="M195.105 667.001C265.345 656.989 315.996 621.795 365.849 577.105C399.175 547.24 430.494 513.18 453.754 479.982C474.124 450.922 493.286 421.2 513.18 392.37C520.763 381.265 528.5 370.29 537.001 360.292C557.099 336.604 578.862 318.878 596.868 302.645C602.156 297.89 607.274 293.25 612.222 288.74C622.696 279.259 632.779 270.209 645.276 261.791C650.36 258.372 656.141 254.896 663.197 251.391C675.065 245.501 690.147 238.994 704.514 229.814C720.395 219.687 730.291 208.884 741.138 201.414C745.27 198.57 749.521 196.315 753.687 194.447C765.674 189.075 778.375 186.144 790.498 183.472C802.553 180.815 814.999 178.243 827.615 175.528C859.717 168.662 891.751 159.54 934.717 143.164C961.888 132.807 993.871 120.237 1026.94 105.269C1048.5 95.5294 1069.33 85.1434 1089.39 75.0303C1131.83 53.6407 1167.83 33.5296 1198.79 13.8925C1229.77 -5.75895 1256.6 -25.8126 1286.32 -48.768C1300.06 -59.3838 1314.09 -70.603 1329.1 -82.1094C1347.77 -96.3883 1368.5 -111.299 1395.89 -122.72C1423.35 -134.154 1458.82 -141.294 1489.06 -139.541" stroke="#AFB7C2" stroke-width="0.9726" stroke-miterlimit="10"/>
<path opacity="0.778" d="M176.947 671.024C241.201 658.756 286.055 622.097 332.643 575.985C363.487 545.459 393.446 510.767 416.332 477.052C436.276 447.676 455.643 417.753 476.335 388.879C484.225 377.775 492.352 366.829 501.381 356.931C522.719 333.516 546.218 316.609 565.822 301.339C571.586 296.857 577.163 292.504 582.587 288.295C594.047 279.432 605.116 271.071 618.429 263.328C623.819 260.197 629.957 256.979 637.32 253.733C649.783 248.245 665.357 242.068 679.912 232.846C695.997 222.661 705.246 211.614 715.193 203.814C718.968 200.855 722.844 198.484 726.619 196.488C737.501 190.742 749.012 187.366 759.979 184.22C770.895 181.088 782.168 178.043 793.611 174.854C822.737 166.781 851.71 156.452 893.027 138.97C919.11 127.937 950.599 114.822 983.636 99.6095C1005.16 89.7119 1026.19 79.2829 1046.67 69.256C1089.94 48.0531 1127.31 28.7465 1159.87 9.92821C1192.4 -8.86133 1220.95 -28.0244 1252.13 -50.4052C1266.57 -60.7624 1281.17 -71.7948 1296.69 -83.172C1315.99 -97.2928 1337.18 -112.146 1364.74 -123.653C1392.37 -135.188 1427.67 -142.629 1457.9 -141.466" stroke="#AFB7C2" stroke-width="0.9639" stroke-miterlimit="10"/>
<path opacity="0.761" d="M158.176 675.649C216.428 661.126 255.552 623.001 298.841 575.467C327.236 544.295 355.818 508.971 378.313 474.725C397.833 445.032 417.403 414.894 438.912 386.006C447.107 374.887 455.626 363.984 465.164 354.202C487.744 331.06 512.977 314.985 534.196 300.649C540.419 296.44 546.472 292.374 552.372 288.467C564.819 280.221 576.874 272.55 591.003 265.483C596.716 262.624 603.194 259.679 610.863 256.691C623.921 251.606 639.989 245.76 654.73 236.494C671.019 226.266 679.623 214.946 688.651 206.83C692.069 203.756 695.588 201.257 698.972 199.145C708.749 193.025 719.087 189.19 728.897 185.584C738.674 181.979 748.774 178.459 759.043 174.796C785.211 165.531 811.106 153.967 850.757 135.407C875.735 123.714 906.748 110.053 939.751 94.567C961.243 84.4971 982.496 74.0249 1003.36 64.0843C1047.46 43.0682 1086.21 24.5515 1120.37 6.56643C1154.45 -11.3756 1184.71 -29.6335 1217.34 -51.4541C1232.46 -61.5528 1247.67 -72.3985 1263.69 -83.6607C1283.62 -97.6236 1305.26 -112.405 1332.98 -124.012C1360.78 -135.648 1395.91 -143.376 1426.12 -142.816" stroke="#AFB7C2" stroke-width="0.9551" stroke-miterlimit="10"/>
<path opacity="0.7439" d="M138.996 680.979C191.246 664.2 224.64 624.639 264.614 575.654C290.578 543.835 317.765 507.865 339.886 473.102C358.98 443.079 378.755 412.739 401.063 383.822C409.564 372.704 418.457 361.815 428.54 352.148C452.361 329.278 479.327 314.023 502.145 300.634C508.845 296.713 515.374 292.92 521.733 289.3C535.182 281.672 548.189 274.677 563.152 268.299C569.171 265.727 576.006 263.041 583.998 260.297C597.651 255.614 614.229 250.098 629.123 240.789C645.616 230.518 653.574 218.94 661.701 210.479C664.762 207.29 667.924 204.661 670.9 202.434C679.571 195.941 688.719 191.646 697.373 187.567C706.028 183.501 714.937 179.493 724.051 175.356C747.243 164.898 770.078 152.114 808.063 132.448C831.952 120.094 862.472 105.872 895.441 90.1426C916.916 79.9147 938.373 69.385 959.627 59.5449C1004.58 38.7155 1044.71 20.989 1080.45 3.83712C1116.07 -13.2573 1148.05 -30.6104 1182.14 -51.8564C1197.94 -61.6965 1213.77 -72.3554 1230.28 -83.4883C1250.82 -97.2932 1272.92 -112.003 1300.81 -123.711C1328.78 -135.447 1363.74 -143.477 1393.92 -143.52" stroke="#AFB7C2" stroke-width="0.9464" stroke-miterlimit="10"/>
<path opacity="0.7268" d="M119.611 687.07C165.859 668.036 193.574 627.038 230.182 576.602C253.731 544.151 279.507 507.535 301.237 472.24C319.906 441.901 339.868 411.346 363.009 382.4C371.816 371.282 381.1 360.422 391.71 350.869C416.755 328.273 445.473 313.85 469.889 301.396C477.065 297.747 484.053 294.256 490.888 290.924C505.324 283.928 519.3 277.607 535.096 271.89C541.438 269.591 548.613 267.178 556.911 264.693C571.159 260.427 588.23 255.226 603.312 245.875C620.009 235.546 627.32 223.709 634.546 214.932C637.267 211.628 640.038 208.87 642.64 206.529C650.189 199.662 658.163 194.907 665.661 190.368C673.177 185.829 680.913 181.347 688.853 176.75C709.087 165.1 728.844 151.094 765.163 130.336C787.964 117.307 817.991 102.54 850.926 86.5658C872.367 76.1798 894.045 65.6071 915.69 55.8388C961.479 35.1962 1002.98 18.2741 1040.32 1.94099C1077.47 -14.3059 1111.19 -30.754 1146.74 -51.4254C1163.24 -61.0069 1179.64 -71.479 1196.66 -82.4971C1217.83 -96.1583 1240.4 -110.782 1268.45 -122.59C1296.59 -134.427 1331.38 -142.759 1361.54 -143.391" stroke="#AFB7C2" stroke-width="0.9376" stroke-miterlimit="10"/>
<path opacity="0.7098" d="M100.229 694.023C140.475 672.748 162.544 630.328 195.751 578.412C216.903 545.344 241.268 508.066 262.59 472.24C280.834 441.585 300.999 410.815 324.94 381.855C334.036 370.736 343.728 359.905 354.865 350.467C381.151 328.144 411.604 314.54 437.635 303.033C445.286 299.658 452.751 296.454 460.045 293.423C475.467 287.045 490.395 281.4 507.041 276.372C513.69 274.361 521.239 272.206 529.825 269.979C544.686 266.115 562.233 261.245 577.502 251.851C594.385 241.479 601.085 229.384 607.376 220.276C609.739 216.857 612.154 213.97 614.347 211.513C620.791 204.273 627.575 199.059 633.934 194.06C640.311 189.046 646.891 184.09 653.658 179.02C670.933 166.177 687.613 150.95 722.282 129.086C743.995 115.397 773.529 100.069 806.412 83.8364C827.819 73.2925 849.702 62.6623 871.755 52.9802C918.377 32.5243 961.258 16.3923 1000.2 0.892396C1038.89 -14.507 1074.33 -30.0501 1111.33 -50.1468C1128.5 -59.4841 1145.52 -69.7695 1163.03 -80.6439C1184.83 -94.1471 1207.85 -108.713 1236.06 -120.608C1264.37 -132.545 1298.97 -141.178 1329.13 -142.399" stroke="#AFB7C2" stroke-width="0.9288" stroke-miterlimit="10"/>
<path opacity="0.6927" d="M81.0332 701.895C115.294 678.365 131.719 634.537 161.508 581.142C180.297 547.455 203.2 509.517 224.13 473.159C241.966 442.174 262.319 411.203 287.075 382.214C296.478 371.095 306.56 360.278 318.225 350.955C345.752 328.905 377.939 316.134 405.569 305.562C413.679 302.459 421.62 299.543 429.39 296.799C445.798 291.039 461.696 286.083 479.175 281.73C486.129 279.992 494.035 278.124 502.945 276.142C518.417 272.694 536.458 268.126 551.879 258.703C568.967 248.288 575.02 235.934 580.41 226.496C582.416 222.977 584.457 219.946 586.276 217.36C591.598 209.732 597.209 204.072 602.412 198.599C607.632 193.097 613.056 187.682 618.65 182.137C632.949 168.102 646.569 151.654 679.571 128.699C700.196 114.362 729.237 98.4745 762.087 81.9834C783.477 71.2671 805.564 60.5938 828.007 51.0123C875.463 30.7431 919.704 15.4012 960.273 0.73447C1000.5 -13.8174 1037.67 -28.4554 1076.13 -47.9919C1094 -57.0706 1111.62 -67.1692 1129.64 -77.9287C1152.07 -91.2739 1175.55 -105.768 1203.93 -117.763C1232.41 -129.801 1266.84 -138.722 1296.98 -140.561" stroke="#AFB7C2" stroke-width="0.9201" stroke-miterlimit="10"/>
<path opacity="0.6756" d="M62.2441 710.772C90.5031 684.987 101.351 639.766 127.672 584.862C144.113 550.558 165.554 511.945 186.094 475.07C203.522 443.768 224.061 412.596 249.617 383.579C259.326 372.46 269.799 361.672 281.973 352.464C310.742 330.686 344.663 318.734 373.891 309.124C382.478 306.309 390.877 303.665 399.124 301.223C416.518 296.081 433.368 291.8 451.697 288.122C458.957 286.672 467.238 285.063 476.436 283.339C492.504 280.308 511.037 276.056 526.646 266.604C543.938 256.131 549.362 243.519 553.834 233.751C555.5 230.116 557.166 226.956 558.578 224.255C562.777 216.24 567.215 210.134 571.262 204.202C575.343 198.226 579.593 192.336 584.014 186.317C595.355 171.09 605.914 153.421 637.233 129.374C656.77 114.377 685.318 97.9287 718.133 81.179C739.489 70.3046 761.797 59.5882 784.615 50.0785C832.904 29.9817 878.522 15.4443 920.69 1.61069C962.449 -12.0936 1001.37 -25.8267 1041.26 -44.7886C1059.81 -53.6088 1078.04 -63.5207 1096.55 -74.1509C1119.61 -87.338 1143.53 -101.761 1172.08 -113.856C1200.73 -125.994 1234.99 -135.217 1265.1 -137.645" stroke="#AFB7C2" stroke-width="0.9113" stroke-miterlimit="10"/>
<path opacity="0.6585" d="M44.0352 720.713C66.292 692.672 71.597 646.057 94.432 589.66C108.561 554.738 128.506 515.464 148.637 478.057C165.64 446.44 186.384 415.052 212.756 386.006C222.77 374.887 233.635 364.114 246.337 355.035C276.33 333.53 312.002 322.412 342.845 313.735C351.908 311.193 360.783 308.837 369.489 306.682C387.886 302.157 405.671 298.537 424.833 295.563C432.417 294.385 441.038 293.064 450.542 291.57C467.222 288.955 486.231 285.019 502.027 275.524C519.523 265.009 524.318 252.138 527.855 242.039C529.164 238.29 530.456 235 531.493 232.184C534.571 223.795 537.818 217.23 540.743 210.838C543.684 204.388 546.762 198.024 550.026 191.531C558.392 175.112 565.907 156.222 595.543 131.069C613.992 115.411 642.046 98.4022 674.828 81.4083C696.15 70.376 718.662 59.6022 741.888 50.193C791.01 30.283 838.006 16.5356 881.771 3.53523C925.061 -9.32153 965.715 -22.1352 1007.07 -40.5369C1026.3 -49.0985 1045.12 -58.8236 1064.14 -69.3245C1087.83 -82.368 1112.21 -96.7044 1140.93 -108.9C1169.75 -121.139 1203.84 -130.664 1233.94 -133.68" stroke="#AFB7C2" stroke-width="0.9025" stroke-miterlimit="10"/>
<path opacity="0.6415" d="M26.6074 731.774C42.8623 701.478 42.6753 653.47 61.9567 595.578C73.7907 560.053 92.2219 520.104 111.945 482.152C128.54 450.218 149.471 418.615 176.642 389.554C186.962 378.435 198.218 367.69 211.447 358.712C242.681 337.481 280.088 327.181 312.529 319.452C322.051 317.183 331.403 315.114 340.584 313.261C359.968 309.368 378.705 306.409 398.717 304.125C406.607 303.22 415.601 302.186 425.412 300.936C442.704 298.738 462.206 295.118 478.172 285.579C495.872 275.007 500.038 261.891 502.656 251.462C503.626 247.598 504.527 244.179 505.173 241.249C507.111 232.472 509.203 225.462 510.971 218.595C512.756 211.671 514.678 204.833 516.769 197.881C522.176 180.255 526.631 160.172 554.583 133.913C571.961 117.594 599.505 100.026 632.253 82.7732C653.541 71.5684 676.274 60.7515 699.891 51.4286C749.862 31.7053 798.202 18.7336 843.583 6.58071C888.403 -5.44287 930.791 -17.3372 973.588 -35.1786C993.515 -43.4816 1012.93 -53.02 1032.45 -63.406C1056.77 -76.2915 1081.61 -90.5704 1110.48 -102.853C1139.47 -115.192 1173.39 -125.018 1203.47 -128.624" stroke="#AFB7C2" stroke-width="0.8938" stroke-miterlimit="10"/>
<path opacity="0.6244" d="M10.165 744.013C20.4178 711.462 14.7558 662.074 30.4666 602.675C40.0222 566.546 56.9232 525.922 76.2385 487.438C92.4253 455.188 113.543 423.37 141.53 394.28C152.157 383.147 163.804 372.445 177.559 363.582C210.035 342.624 249.176 333.157 283.216 326.362C293.213 324.365 303.041 322.599 312.682 321.033C333.051 317.758 352.741 315.459 373.603 313.879C381.799 313.261 391.15 312.5 401.267 311.494C419.171 309.713 439.15 306.409 455.286 296.828C473.19 286.212 476.726 272.838 478.409 262.078C479.039 258.114 479.549 254.551 479.821 251.506C480.62 242.341 481.538 234.885 482.167 227.559C482.796 220.161 483.562 212.849 484.497 205.423C486.945 186.604 488.339 165.301 514.626 137.935C530.915 120.956 557.966 102.841 590.68 85.3304C611.951 73.9676 634.888 63.1076 658.896 53.8708C709.701 34.3343 759.417 22.1526 806.397 10.8186C852.747 -0.357458 896.886 -11.3468 941.128 -28.6136C961.753 -36.6581 981.765 -46.0241 1001.78 -56.2664C1026.7 -68.9939 1052.02 -83.201 1081.05 -95.598C1110.21 -108.038 1143.96 -118.166 1174.02 -122.375" stroke="#AFB7C2" stroke-width="0.885" stroke-miterlimit="10"/>
<path opacity="0.6073" d="M-5.10444 757.516C-0.853699 722.709 -11.9397 671.929 0.149417 611.035C7.44369 574.289 22.7974 533.004 41.7047 493.989C57.5004 461.423 78.7881 429.389 107.574 400.285C118.49 389.152 130.545 378.464 144.811 369.716C178.528 349.03 219.403 340.383 255.058 334.536C265.532 332.827 275.818 331.333 285.935 330.054C307.291 327.397 327.933 325.773 349.645 324.868C358.147 324.524 367.873 324.049 378.278 323.288C396.795 321.938 417.249 318.935 433.572 309.311C451.68 298.652 454.605 285.019 455.353 273.93C455.625 269.85 455.761 266.158 455.642 262.998C455.285 253.459 455.064 245.544 454.554 237.758C454.027 229.886 453.635 222.1 453.397 214.2C452.87 194.189 451.238 171.679 475.824 143.207C491.042 125.581 517.584 106.892 550.246 89.1226C571.483 77.6018 594.624 66.6844 619.04 57.5338C670.678 38.184 721.755 26.7926 770.35 16.2917C818.23 5.94881 864.104 -4.10678 909.791 -20.8134C931.096 -28.5993 951.703 -37.7785 972.226 -47.9059C997.781 -60.4754 1023.54 -74.6106 1052.75 -87.1082C1082.08 -99.649 1115.66 -110.064 1145.69 -114.876" stroke="#AFB7C2" stroke-width="0.8763" stroke-miterlimit="10"/>
<path opacity="0.5902" d="M-18.9959 772.37C-20.7302 735.308 -37.24 683.134 -28.7895 620.746C-23.7227 583.397 -9.9333 541.436 8.56592 501.889C23.9536 468.993 45.4284 436.758 75.0306 407.626C86.2525 396.493 98.6987 385.834 113.491 377.2C148.432 356.787 191.059 348.973 228.312 344.06C239.245 342.624 250.008 341.417 260.584 340.44C282.926 338.4 304.537 337.438 327.082 337.237C335.89 337.165 345.973 336.978 356.702 336.447C375.83 335.527 396.761 332.827 413.27 323.159C431.583 312.442 433.878 298.551 433.708 287.131C433.64 282.937 433.385 279.13 432.892 275.84C431.396 265.914 430.001 257.553 428.352 249.293C426.686 240.947 425.122 232.688 423.71 224.313C420.225 203.11 415.549 179.379 438.435 149.801C452.581 131.514 478.613 112.265 511.242 94.2511C532.444 82.5579 555.806 71.6116 580.614 62.5473C633.085 43.3842 685.539 32.7685 735.732 23.1151C785.142 13.6198 832.768 4.46922 879.9 -11.6628C901.902 -19.1901 923.104 -28.1826 944.137 -38.1807C970.322 -50.6065 996.54 -64.6556 1025.9 -77.2538C1055.4 -89.895 1088.82 -100.611 1118.83 -106.013" stroke="#AFB7C2" stroke-width="0.8675" stroke-miterlimit="10"/>
<path opacity="0.5732" d="M-31.2894 788.631C-39.0258 749.328 -60.8916 695.746 -56.1307 631.864C-53.2912 593.898 -41.0831 551.276 -22.992 511.198C-8.01237 477.986 13.6324 445.549 44.0507 416.388C55.5787 405.255 68.416 394.625 83.7356 386.106C119.918 365.967 164.279 358.985 203.13 355.006C214.539 353.842 225.778 352.923 236.813 352.248C260.158 350.826 282.704 350.524 306.1 351.027C315.214 351.228 325.671 351.329 336.689 351.041C356.412 350.538 377.853 348.139 394.533 338.443C413.049 327.684 414.732 313.534 413.61 301.783C413.202 297.474 412.556 293.538 411.672 290.119C409.019 279.819 406.469 270.999 403.68 262.279C400.858 253.459 398.137 244.711 395.57 235.876C389.109 213.481 381.406 188.543 402.592 157.86C415.667 138.912 441.189 119.102 473.783 100.844C494.969 88.9932 518.535 77.9894 543.734 69.0113C597.038 50.035 650.852 40.195 702.66 31.3892C753.601 22.727 802.961 14.4958 851.555 -1.06162C874.237 -8.33036 896.052 -17.1362 917.578 -27.0194C944.391 -39.2871 971.069 -53.2787 1000.6 -65.9631C1030.27 -78.7049 1063.51 -89.7229 1093.51 -95.7275" stroke="#AFB7C2" stroke-width="0.8587" stroke-miterlimit="10"/>
<path opacity="0.5561" d="M-41.8131 806.386C-55.5515 764.828 -82.7563 709.853 -81.6851 644.463C-81.056 605.878 -70.4291 562.596 -52.763 521.986C-38.1745 488.458 -16.3597 455.806 14.8748 426.616C26.7089 415.483 39.9372 404.867 55.7839 396.464C93.2074 376.597 139.302 370.434 179.769 367.418C191.655 366.527 203.353 365.895 214.864 365.507C239.195 364.717 262.71 365.062 286.939 366.254C296.376 366.728 307.173 367.116 318.497 367.073C338.832 367.001 360.749 364.904 377.599 355.164C396.319 344.362 397.39 329.953 395.333 317.872C394.585 313.448 393.531 309.382 392.289 305.849C388.481 295.175 384.791 285.896 380.864 276.716C376.885 267.422 373.008 258.2 369.268 248.906C359.848 225.318 349.119 199.159 368.587 167.369C380.591 147.775 405.603 127.405 438.164 108.874C459.315 96.8652 483.085 85.8041 508.692 76.9121C562.829 58.1082 618.021 49.0727 671.427 41.1C723.898 33.2711 775.009 25.9735 825.032 10.962C848.411 3.95185 870.804 -4.66718 892.84 -14.4211C920.282 -26.5309 947.419 -40.4507 977.106 -53.2356C1006.95 -66.078 1040.02 -77.3976 1069.99 -83.9912" stroke="#AFB7C2" stroke-width="0.85" stroke-miterlimit="10"/>
<path opacity="0.539" d="M-49.958 825.664C-69.6984 781.851 -102.225 725.468 -104.878 658.598C-106.442 619.396 -97.4133 575.453 -80.1723 534.311C-65.9918 500.467 -43.99 467.6 -11.9564 438.395C0.183711 427.262 13.8031 416.675 30.16 408.387C68.8247 388.793 116.654 383.463 158.719 381.38C171.063 380.777 183.255 380.418 195.225 380.332C220.542 380.159 245.009 381.165 270.089 383.061C279.831 383.808 290.985 384.483 302.632 384.684C323.563 385.043 345.973 383.248 363.01 373.465C381.934 362.605 382.393 347.938 379.401 335.541C378.313 331.016 376.867 326.807 375.235 323.159C370.287 312.112 365.424 302.372 360.358 292.719C355.223 282.951 350.19 273.254 345.276 263.486C332.898 238.706 319.125 211.326 336.91 178.445C347.86 158.19 372.345 137.26 404.871 118.485C425.989 106.303 449.98 95.2135 475.961 86.4077C530.948 67.7905 587.483 59.5305 642.505 52.4054C696.523 45.4096 749.351 39.0316 800.836 24.5946C824.895 17.8431 847.9 9.39635 870.429 -0.2139C898.501 -12.1657 926.08 -26.0136 955.937 -38.8991C985.948 -51.842 1018.85 -63.4491 1048.79 -70.646" stroke="#AFB7C2" stroke-width="0.8412" stroke-miterlimit="10"/>
<path opacity="0.522" d="M-53.2066 846.378C-78.9491 800.31 -116.764 742.504 -123.174 674.17C-126.914 634.335 -119.501 589.746 -102.685 548.073C-88.8958 513.913 -66.724 480.83 -33.8743 451.597C-21.4451 440.464 -7.41757 429.891 9.46637 421.732C49.3553 402.411 98.9359 397.9 142.6 396.765C155.42 396.435 168.07 396.378 180.516 396.579C206.82 397.024 232.256 398.676 258.169 401.29C268.217 402.296 279.745 403.273 291.681 403.718C313.224 404.508 336.127 403.014 353.334 393.203C372.463 382.3 372.31 367.375 368.365 354.633C366.937 349.993 365.1 345.654 363.094 341.891C356.99 330.471 350.971 320.271 344.765 310.158C338.474 299.916 332.285 289.745 326.215 279.503C310.861 253.531 294.079 224.945 310.147 190.942C320.025 170.027 344 148.537 376.492 129.503C397.593 117.163 421.788 106.016 448.16 97.2964C503.981 78.866 561.893 71.3817 618.512 65.1042C674.061 58.9415 728.641 53.4972 781.554 39.6205C806.31 33.1275 829.91 24.8675 852.932 15.3722C881.633 3.56411 909.671 -10.212 939.698 -23.1836C969.879 -36.2271 1002.61 -48.1358 1032.53 -55.936" stroke="#AFB7C2" stroke-width="0.8324" stroke-miterlimit="10"/>
<path opacity="0.5049" d="M-53.2051 868.731C-84.9327 820.407 -128.018 761.179 -138.22 691.379C-144.137 650.913 -138.339 605.677 -121.931 563.472C-108.533 528.996 -86.1909 495.698 -52.542 466.436C-39.8068 455.289 -25.3882 444.759 -7.97718 436.701C33.153 417.652 84.4679 413.975 129.73 413.774C143.026 413.716 156.135 413.946 169.058 414.435C196.347 415.498 222.753 417.81 249.499 421.129C259.87 422.407 271.738 423.671 283.981 424.347C306.118 425.568 329.515 424.375 346.892 414.521C366.224 403.575 365.459 388.376 360.579 375.319C358.811 370.564 356.583 366.096 354.186 362.218C346.926 350.424 339.767 339.765 332.405 329.192C324.958 318.476 317.613 307.831 310.369 297.115C292.057 269.95 272.249 240.143 286.599 205.049C295.424 183.487 318.854 161.422 351.312 142.144C372.379 129.647 396.778 118.442 423.558 109.823C480.212 91.5791 539.484 84.8706 597.719 79.4405C654.798 74.1111 711.112 69.6005 765.488 56.2696C790.941 50.0352 815.136 41.962 838.651 32.596C867.964 20.9459 896.478 7.24161 926.659 -5.83063C957.009 -18.9747 989.57 -31.185 1019.48 -39.5742" stroke="#AFB7C2" stroke-width="0.8237" stroke-miterlimit="10"/>
<path opacity="0.4878" d="M-50.0774 892.821C-87.807 842.241 -136.146 781.577 -150.14 710.327C-158.216 669.228 -154.051 623.346 -138.068 580.61C-125.061 545.817 -102.549 512.318 -68.1005 483.028C-55.0593 471.88 -40.2497 461.38 -22.3116 453.436C20.0598 434.66 73.109 431.802 119.986 432.549C133.759 432.764 147.344 433.281 160.725 434.071C189.018 435.752 216.393 438.726 243.955 442.734C254.633 444.285 266.858 445.836 279.423 446.756C302.156 448.408 326.045 447.517 343.609 437.62C363.145 426.616 361.768 411.173 355.953 397.785C353.845 392.915 351.226 388.333 348.455 384.325C340.039 372.158 331.69 361.054 323.24 349.993C314.602 338.817 306.152 327.683 297.735 316.493C276.447 288.122 253.629 257.122 266.263 220.908C274.016 198.685 296.936 176.074 329.361 156.523C350.393 143.853 375.014 132.62 402.184 124.073C459.671 106.016 520.321 100.083 580.154 95.5005C638.764 91.0043 696.829 87.413 752.632 74.6568C778.766 68.6809 803.556 60.7944 827.582 51.5433C857.524 40.0512 886.497 26.4188 916.847 13.246C947.367 0.00139797 979.758 -12.5106 1009.65 -21.4888" stroke="#AFB7C2" stroke-width="0.8149" stroke-miterlimit="10"/>
<path opacity="0.4707" d="M-43.7686 918.75C-87.5002 865.915 -141.06 803.815 -158.879 731.113C-169.098 689.368 -166.564 642.868 -151.023 599.586C-138.407 564.478 -115.725 530.763 -80.4611 501.444C-67.1137 490.297 -51.913 479.81 -33.4648 471.981C10.1478 453.479 64.9313 451.453 113.407 453.134C127.638 453.637 141.7 454.427 155.557 455.519C184.836 457.831 213.18 461.451 241.575 466.163C252.576 467.988 265.141 469.841 278.012 470.99C301.341 473.087 325.74 472.484 343.474 462.543C363.214 451.496 361.225 435.781 354.458 422.077C351.992 417.092 348.983 412.38 345.837 408.243C336.282 395.702 326.76 384.139 317.17 372.618C307.394 360.968 297.77 349.361 288.18 337.711C263.934 308.147 238.09 275.926 249.005 238.62C255.705 215.737 278.097 192.566 310.488 172.771C331.487 159.943 356.328 148.652 383.89 140.205C442.21 122.335 504.237 117.178 565.669 113.443C625.808 109.78 685.676 107.179 742.873 94.926C769.721 89.2375 795.09 81.5091 819.625 72.3873C850.196 61.0532 879.611 47.4925 910.132 34.2191C940.822 20.874 973.026 8.07468 1002.9 -1.50684" stroke="#AFB7C2" stroke-width="0.8062" stroke-miterlimit="10"/>
<path opacity="0.4537" d="M-34.1448 946.575C-83.8785 891.485 -142.658 827.934 -164.285 753.795C-176.647 711.404 -175.763 664.272 -160.647 620.459C-148.422 585.034 -125.57 551.104 -89.5065 521.77C-75.8531 510.623 -60.2614 500.165 -41.2861 492.451C3.5507 474.222 60.0856 473.015 110.159 475.659C124.867 476.434 139.404 477.512 153.721 478.891C183.986 481.821 213.299 486.102 242.51 491.517C253.834 493.615 266.74 495.755 279.917 497.149C303.84 499.677 328.732 499.361 346.653 489.391C366.598 478.287 363.996 462.313 356.294 448.279C353.489 443.179 350.088 438.338 346.568 434.086C335.857 421.186 325.196 409.148 314.45 397.168C303.517 385.044 292.737 372.962 281.974 360.838C254.769 330.083 225.898 296.641 235.114 258.229C240.759 234.684 262.625 210.953 294.981 190.899C315.963 177.913 341.008 166.565 368.961 158.204C428.115 140.521 491.519 136.14 554.549 133.252C616.235 130.422 677.82 128.756 736.463 117.063C764.008 111.633 789.972 104.077 815 95.0984C846.201 83.908 876.075 70.4192 906.748 57.0597C937.608 43.614 969.642 30.513 999.499 20.3281" stroke="#AFB7C2" stroke-width="0.7974" stroke-miterlimit="10"/>
<path opacity="0.4366" d="M-21.0873 976.397C-76.823 919.066 -140.805 854.035 -166.276 778.46C-180.779 735.408 -181.527 687.659 -166.854 643.313C-155.02 607.573 -132.015 573.427 -95.1182 544.065C-81.1588 532.918 -65.176 522.489 -45.6736 514.89C0.404394 496.933 58.6736 496.56 110.363 500.137C125.546 501.185 140.543 502.55 155.335 504.231C186.587 507.779 216.886 512.706 246.913 518.84C258.543 521.21 271.806 523.638 285.306 525.261C309.824 528.22 335.21 528.206 353.301 518.194C373.449 507.046 370.236 490.799 361.598 476.449C358.453 471.234 354.661 466.278 350.75 461.897C338.882 448.623 327.082 436.14 315.197 423.671C303.125 411.073 291.172 398.518 279.253 385.92C249.073 353.972 217.209 319.309 224.69 279.805C229.281 255.6 250.62 231.308 282.943 211.01C303.89 197.866 329.14 186.475 357.501 178.2C417.487 160.689 482.268 157.098 546.897 155.058C610.114 153.062 673.433 152.315 733.538 141.182C761.763 136.01 788.322 128.641 813.86 119.778C845.69 108.745 876.023 95.3283 906.866 81.8683C937.88 68.322 969.76 54.9193 999.6 44.1455" stroke="#AFB7C2" stroke-width="0.7886" stroke-miterlimit="10"/>
<path opacity="0.4195" d="M-4.42379 1008.27C-66.1446 948.687 -135.347 882.191 -164.66 805.194C-181.306 761.481 -183.686 713.113 -169.438 668.237C-157.995 632.18 -134.819 597.819 -97.1239 568.443C-82.8754 557.295 -66.4846 546.881 -46.4551 539.396C0.86418 521.713 60.8676 522.158 114.155 526.683C129.798 528.005 145.27 529.671 160.539 531.639C192.777 535.805 224.062 541.393 254.905 548.217C266.859 550.86 280.461 553.575 294.267 555.442C319.381 558.832 345.276 559.12 363.537 549.064C383.89 537.874 380.064 521.368 370.475 506.687C366.989 501.358 362.806 496.272 358.522 491.776C345.514 478.129 332.541 465.186 319.517 452.258C306.288 439.186 293.179 426.156 280.087 413.084C246.948 379.944 212.058 344.06 217.822 303.45C221.342 278.584 242.17 253.747 274.442 233.176C295.356 219.859 320.826 208.425 349.578 200.237C410.415 182.912 476.539 180.097 542.783 178.904C607.53 177.741 672.583 177.913 734.134 167.355C763.039 162.442 790.21 155.26 816.241 146.526C848.7 135.651 879.492 122.306 910.489 108.731C941.672 95.0841 973.383 81.3799 1003.21 70.0171" stroke="#AFB7C2" stroke-width="0.7799" stroke-miterlimit="10"/>
<path opacity="0.4024" d="M16.031 1042.3C-51.6918 980.463 -126.08 912.487 -159.253 834.082C-178.041 789.709 -182.071 740.724 -168.247 695.316C-157.178 658.943 -133.85 624.366 -95.3384 594.961C-80.7839 583.814 -64.0019 573.428 -43.4454 566.058C5.1151 548.648 66.8528 549.926 121.738 555.385C137.857 556.994 153.806 558.933 169.534 561.189C202.757 565.972 235.012 572.221 266.689 579.748C278.965 582.664 292.89 585.681 307.02 587.778C332.711 591.599 359.117 592.188 377.565 582.09C398.122 570.842 393.684 554.078 383.159 539.081C379.333 533.636 374.759 528.422 370.084 523.811C355.92 509.805 341.808 496.388 327.627 482.999C313.26 469.468 298.977 455.95 284.729 442.404C248.631 408.071 210.732 370.966 214.762 329.264C217.227 303.737 237.529 278.34 269.766 257.525C290.663 244.051 316.337 232.558 345.48 224.457C407.15 207.319 474.635 205.207 542.494 204.934C608.771 204.518 675.559 205.71 738.572 195.712C768.174 191.058 795.94 184.062 822.465 175.443C855.552 164.726 886.804 151.453 917.97 137.777C949.324 124.03 980.864 110.039 1010.65 98.0581" stroke="#AFB7C2" stroke-width="0.7711" stroke-miterlimit="10"/>
<path opacity="0.3854" d="M40.4291 1078.55C-33.2957 1014.45 -112.853 944.981 -149.902 865.183C-170.816 820.134 -176.495 770.545 -163.113 724.606C-152.435 687.917 -128.937 653.139 -89.6265 623.705C-74.7659 612.558 -57.593 602.186 -36.5263 594.946C13.2584 577.809 76.7475 579.906 133.248 586.313C149.843 588.195 166.251 590.421 182.455 592.978C216.682 598.394 249.906 605.289 282.398 613.52C294.98 616.709 309.263 620.013 323.715 622.355C350.002 626.621 376.901 627.498 395.519 617.356C416.28 606.065 411.23 589.028 399.77 573.715C395.604 568.155 390.622 562.826 385.589 558.086C370.27 543.706 355.018 529.829 339.698 515.967C324.175 501.961 308.736 487.969 293.314 473.963C254.241 438.439 213.332 400.113 215.645 357.305C217.056 331.117 236.83 305.159 269.034 284.1C289.897 270.468 315.775 258.932 345.309 250.917C407.812 233.966 476.691 232.63 546.131 233.205C613.956 233.636 682.461 235.733 746.936 226.309C777.218 221.914 805.579 215.105 832.614 206.615C866.314 196.042 898.025 182.841 929.361 169.079C960.885 155.231 992.255 140.938 1022.03 128.368" stroke="#AFB7C2" stroke-width="0.7623" stroke-miterlimit="10"/>
<path opacity="0.3683" d="M68.9432 1117.07C-10.7837 1050.72 -95.5094 979.759 -136.436 898.567C-159.475 852.843 -166.616 802.68 -153.864 756.18C-143.424 719.19 -119.909 684.182 -79.7818 654.72C-64.6151 643.558 -47.051 633.229 -25.4573 626.09C25.5686 609.225 90.7921 612.156 148.891 619.496C165.945 621.651 182.829 624.165 199.509 627.009C234.722 633.043 268.932 640.599 302.241 649.519C315.146 652.981 329.769 656.573 344.527 659.158C371.392 663.856 398.818 665.034 417.606 654.849C438.571 643.515 432.909 626.205 420.497 610.561C415.991 604.887 410.618 599.428 405.194 594.573C388.735 579.834 372.31 565.484 355.851 551.162C339.188 536.682 322.576 522.216 305.981 507.736C263.95 471.019 220.168 431.486 220.627 387.572C221.069 360.723 240.231 334.206 272.401 312.888C293.229 299.083 319.329 287.505 349.254 279.575C412.59 262.811 482.846 262.265 553.902 263.673C623.274 264.951 693.496 267.954 759.417 259.091C790.396 254.953 819.352 248.317 846.88 239.956C881.209 229.541 913.378 216.412 944.868 202.55C976.561 188.601 1007.76 174.006 1037.52 160.848" stroke="#AFB7C2" stroke-width="0.7536" stroke-miterlimit="10"/>
<path opacity="0.3512" d="M101.777 1157.99C16.048 1089.38 -73.8637 1016.91 -118.633 934.336C-143.797 887.922 -152.638 837.17 -140.277 790.125C-130.263 752.819 -106.543 717.595 -65.6173 688.118C-50.1446 676.957 -32.1895 666.657 -10.0687 659.632C42.1984 643.04 109.156 646.804 168.854 655.093C186.384 657.521 203.744 660.322 220.883 663.468C257.082 670.119 292.295 678.307 326.403 687.96C339.631 691.681 354.577 695.574 369.658 698.389C397.118 703.517 425.037 704.997 444.012 694.783C465.164 683.392 458.958 665.809 445.56 649.864C440.731 644.075 434.95 638.501 429.152 633.516C411.503 618.419 393.973 603.608 376.358 588.798C358.539 573.844 340.77 558.904 323.019 543.95C278.013 506.041 231.203 465.272 229.962 420.281C229.333 392.772 247.985 365.694 280.121 344.132C300.916 330.169 327.236 318.533 357.552 310.704C421.722 294.127 493.372 294.371 566.009 296.612C636.928 298.724 708.868 302.66 776.25 294.357C807.91 290.478 837.478 284.028 865.516 275.797C900.474 265.54 933.103 252.482 964.762 238.519C996.626 224.47 1027.66 209.574 1057.39 195.812" stroke="#AFB7C2" stroke-width="0.7448" stroke-miterlimit="10"/>
<path opacity="0.3341" d="M139.08 1201.34C47.3491 1130.48 -47.7314 1056.48 -96.3769 972.547C-123.684 925.444 -134.192 874.089 -122.221 826.526C-112.615 788.904 -88.7086 753.465 -46.9663 723.959C-31.1876 712.797 -12.8415 702.512 9.80648 695.602C63.3148 679.284 132.007 683.866 193.32 693.103C211.326 695.818 229.145 698.892 246.743 702.339C283.928 709.608 320.128 718.457 355.052 728.814C368.603 732.808 383.889 737.017 399.293 740.048C427.314 745.636 455.76 747.374 474.923 737.132C496.278 725.697 489.443 707.841 475.11 691.58C469.941 685.676 463.768 679.973 457.579 674.859C438.808 659.402 420.105 644.118 401.351 628.848C382.392 613.42 363.451 598.006 344.527 582.578C296.561 543.462 246.709 501.487 243.767 455.389C242.067 427.219 260.209 399.595 292.311 377.76C313.088 363.639 339.596 351.961 370.32 344.203C435.323 327.798 508.35 328.833 582.585 331.921C655.035 334.88 728.709 339.721 797.537 331.993C829.876 328.373 860.039 322.11 888.587 314.008C924.175 303.895 957.263 290.923 989.075 276.86C1021.11 262.71 1051.97 247.526 1081.67 233.161" stroke="#AFB7C2" stroke-width="0.7361" stroke-miterlimit="10"/>
<path opacity="0.3171" d="M181.096 1247.21C83.3796 1174.1 -16.8698 1098.57 -69.409 1013.26C-98.8411 965.465 -111.032 913.521 -99.4702 865.427C-90.2716 827.474 -66.1784 791.834 -23.637 762.3C-7.56924 751.138 11.1851 740.882 34.3431 734.087C89.0757 718.041 159.519 723.457 222.43 733.627C240.895 736.615 259.207 739.976 277.264 743.711C315.436 751.598 352.604 761.122 388.362 772.169C402.236 776.449 417.845 780.917 433.573 784.206C462.189 790.211 491.128 792.265 510.46 781.98C532.02 770.502 524.555 752.388 509.304 735.796C503.778 729.777 497.232 723.945 490.669 718.716C470.758 702.886 450.882 687.142 430.988 671.412C410.874 655.51 390.776 639.622 370.696 623.72C319.772 583.411 266.859 540.201 262.234 493.026C259.445 464.195 277.094 436.011 309.145 413.932C329.889 399.639 356.617 387.917 387.733 380.26C453.585 364.042 527.973 365.866 603.806 369.774C677.803 373.566 753.194 379.326 823.485 372.173C856.521 368.811 887.28 362.735 916.321 354.748C952.537 344.793 986.067 331.878 1018.07 317.729C1050.27 303.479 1080.96 287.993 1110.65 273.039" stroke="#AFB7C2" stroke-width="0.7273" stroke-miterlimit="10"/>
<path opacity="0.3" d="M227.972 1295.66C124.254 1220.3 18.8354 1143.25 -37.5804 1056.57C-93.9792 969.904 -93.8772 870.368 4.57001 803.254C20.9439 792.093 40.0892 781.865 63.7743 775.185C119.748 759.412 191.943 765.646 256.435 776.765C315.401 786.921 372.684 800.855 426.566 818.137C466.591 830.979 520.695 845.445 550.909 829.442C580.579 813.726 554.769 785.283 528.652 765.187C486.349 732.621 444.046 700.041 401.742 667.475C347.843 625.975 291.903 581.543 285.578 533.262C279.219 484.68 329.82 438.18 410.04 418.887C541.796 387.212 709.054 428.297 854.31 414.937C972.43 404.077 1061.73 358.87 1144.48 315.502" stroke="#AFB7C2" stroke-width="0.7185" stroke-miterlimit="10"/>
</g>
</g>
<defs>
<clipPath id="clip0_1333_23608">
<rect width="826" height="423" fill="white"/>
</clipPath>
</defs>
</svg>
