<svg width="72" height="72" viewBox="0 0 72 72" fill="none" xmlns="http://www.w3.org/2000/svg">
<g filter="url(#filter0_d_499_7485)">
<circle cx="36" cy="34" r="32" fill="#FF9626"/>
<path d="M31.5715 16.8571C32.2857 17 32.8572 17 33.5715 17.1428C35 17.4285 36.2857 18 37.2857 19C39.8572 21 39.5715 24.2857 38.2857 26.2857C38.1429 26.4285 38.1429 26.5714 38.1429 26.7143C38.1429 27.2857 38.1429 28 38 28.5714C37.8572 29.1428 37.7143 29.8571 37.5715 30.4285C38.1429 30.8571 38.7143 31.2857 39.2857 31.8571C40.5715 33.2857 41.2857 35 41.4286 36.8571C41.4286 38.4285 41.4286 40 41.4286 41.4285C41.4286 42 41 42.5714 40.4286 42.5714C39.8572 42.5714 39.4286 42.1428 39.2857 41.4285C39.2857 40 39.2857 38.5714 39.2857 37C39.2857 35.2857 38.7143 34 37.4286 32.8571C37.2857 32.7143 37.2857 32.7143 37.1429 32.5714C36.4286 32 36.4286 32 35.7143 32.5714C34.4286 33.5714 33.1429 34 31.7143 34C30.5715 34 29.5715 34 28.4286 33.8571C27.2857 33.7143 26.1429 33.1428 25.2857 32.4285C25.1429 32.2857 25 32.2857 24.7143 32.4285C23 33.4285 22.1429 34.8571 22 36.7143C21.8572 38.2857 22 39.8571 22 41.4285C22 41.5714 22 41.8571 22 42C21.8572 42.2857 21.4286 42.5714 20.8572 42.5714C20.4286 42.5714 20 42.1428 19.8572 41.7143C19.8572 41.5714 19.8572 41.5714 19.8572 41.4285C19.8572 39.8571 19.8572 38.1428 19.8572 36.5714C20 33.8571 21.2857 31.8571 23.5715 30.4285C23.5715 30.4285 23.5715 30.4285 23.7143 30.4285C23.1429 29.2857 23 28.1428 23.1429 26.8571C23.1429 26.7143 23.1429 26.4285 23 26.2857C21.5715 24.1428 21.4286 20.5714 24.5715 18.5714C26 17.5714 27.7143 17.1428 29.4286 16.8571C29.5715 16.8571 29.7143 16.8571 29.8572 16.8571C30.2857 16.8571 30.8572 16.8571 31.5715 16.8571ZM37 22.1428C36.7143 21.7143 36.5715 21.4285 36.4286 21.1428C36 20.5714 35.4286 20.1428 34.8572 19.8571C32.5715 18.8571 30.1429 18.7143 27.8572 19.4285C26.7143 19.7143 25.5715 20.2857 24.8572 21.1428C24.5715 21.4285 24.4286 21.8571 24.1429 22.1428C28.4286 22.1428 32.7143 22.1428 37 22.1428ZM35.8572 28.2857C35.7143 28.2857 35.7143 28.2857 35.5715 28.4285C35.1429 28.5714 34.7143 28.7143 34.1429 28.7143C31.8572 28.7143 29.5715 28.7143 27.1429 28.7143C26.5715 28.7143 26.1429 28.5714 25.5715 28.4285C25.5715 28.4285 25.4286 28.2857 25.2857 28.2857V28.4285C25.5715 30.2857 27.4286 31.8571 29.4286 31.8571C30.1429 31.8571 31 31.8571 31.7143 31.8571C32.5715 31.8571 33.4286 31.5714 34.1429 31C35.1429 30.4285 35.7143 29.4285 35.8572 28.2857ZM24.4286 24.4285C24.4286 24.5714 24.4286 24.7143 24.5715 24.7143C25.1429 25.8571 26.1429 26.5714 27.4286 26.5714C29.5715 26.5714 31.8572 26.5714 34 26.5714C35.2857 26.5714 36.2857 25.8571 36.8572 24.7143C36.8572 24.5714 36.8572 24.5714 37 24.4285C32.7143 24.4285 28.5715 24.4285 24.4286 24.4285Z" fill="#FEFDFB"/>
<path d="M20.5715 51.1429C20 50.8572 19.8572 50.4286 19.8572 49.8572C19.8572 45.4286 22.8572 41.2857 27 39.8572C33 37.8572 39.2857 41.1429 40.8572 47.2857C41.1429 48.1429 41.1429 48.8572 41.2857 49.7143C41.4286 50.2857 41.1429 50.7143 40.5715 51C40.2857 51 40 51 39.7143 51C39.1429 50.7143 39 50.1429 39 49.5714C39 47.8572 38.4286 46.2857 37.4286 44.8572C37.2857 44.7143 37.2857 44.5714 37.1429 44.4286C36 45.5714 34.7143 46.8572 33.5715 48C33.4286 48.1429 33.2857 48.2857 33.4286 48.5714C33.5715 48.7143 33.5715 49 33.5715 49.2857C33.7143 50.1429 33.5715 50.4286 32.8572 50.8572C32.5715 50.8572 32.4286 50.8572 32.1429 50.8572C31.7143 50.5714 31.4286 50.2857 31.4286 49.7143C31.4286 49.1429 31 48.7143 30.4286 48.7143C29.8572 48.7143 29.4286 49.1429 29.4286 49.7143C29.4286 50.2857 29.1429 50.5714 28.7143 50.8572C28.4286 50.8572 28.1429 50.8572 27.8572 50.8572C26.7143 50 27.2857 49 27.7143 48.1429C26.4286 46.8572 25.1429 45.5714 23.8572 44.2857C23.8572 44.2857 23.8572 44.2857 23.7143 44.4286C22.5715 45.8572 21.8572 47.5714 21.8572 49.4286C21.8572 50 21.7143 50.4286 21.1429 50.8572C21.1429 51.1429 20.8572 51.1429 20.5715 51.1429ZM25.7143 43.1429C27 44.4286 28.2857 45.7143 29.4286 46.8572C29.4286 46.8572 29.7143 47 29.7143 46.8572C30.2857 46.7143 30.8572 46.7143 31.4286 46.8572C31.5715 46.8572 31.7143 46.8572 31.8572 46.7143C33 45.5714 34.2857 44.2857 35.4286 43.1429L35.5715 43C32.7143 41 28.4286 41 25.7143 43.1429Z" fill="#FEFDFB"/>
<path d="M48.2732 16.8571C49.3912 17.3651 49.9502 18.127 49.9502 19.3968C49.9502 19.9047 49.9502 20.1587 49.9502 20.6666C50.5092 20.6666 51.3478 20.6666 51.9068 20.6666C53.3043 20.6666 54.1428 21.4285 54.1428 22.6984C54.1428 23.7143 53.3043 24.4762 51.9068 24.4762C51.3478 24.4762 50.7888 24.4762 49.9502 24.4762C49.9502 25.2381 49.9502 25.746 49.9502 26.2539C49.9502 27.5238 49.1117 28.2857 47.7142 28.2857C46.5962 28.2857 45.7577 27.5238 45.7577 26.2539C45.7577 25.746 45.7577 24.9841 45.7577 24.4762C45.1987 24.4762 44.3602 24.4762 43.8012 24.4762C42.4037 24.4762 41.2856 23.7143 41.2856 22.4444C41.2856 21.4285 42.1242 20.6666 43.5217 20.6666C44.0807 20.6666 44.9192 20.6666 45.4782 20.6666C45.4782 20.1587 45.4782 19.6508 45.4782 19.3968C45.4782 18.127 45.7577 17.3651 47.1552 16.8571C47.4347 16.8571 47.9937 16.8571 48.2732 16.8571Z" fill="#FEFDFB"/>
</g>
<defs>
<filter id="filter0_d_499_7485" x="0" y="0" width="72" height="72" filterUnits="userSpaceOnUse" color-interpolation-filters="sRGB">
<feFlood flood-opacity="0" result="BackgroundImageFix"/>
<feColorMatrix in="SourceAlpha" type="matrix" values="0 0 0 0 0 0 0 0 0 0 0 0 0 0 0 0 0 0 127 0" result="hardAlpha"/>
<feOffset dy="2"/>
<feGaussianBlur stdDeviation="2"/>
<feComposite in2="hardAlpha" operator="out"/>
<feColorMatrix type="matrix" values="0 0 0 0 0 0 0 0 0 0 0 0 0 0 0 0 0 0 0.1 0"/>
<feBlend mode="normal" in2="BackgroundImageFix" result="effect1_dropShadow_499_7485"/>
<feBlend mode="normal" in="SourceGraphic" in2="effect1_dropShadow_499_7485" result="shape"/>
</filter>
</defs>
</svg>
