<svg width="72" height="71" viewBox="0 0 72 71" fill="none" xmlns="http://www.w3.org/2000/svg">
<g filter="url(#filter0_d_344_5252)">
<circle cx="36" cy="34" r="32" fill="#FF9626"/>
<path d="M21.0833 46.5697C21.0833 41.1531 21.0833 35.7364 21.0833 30.3197C20.5833 30.3197 20.0833 30.3197 19.5833 30.3197C19 30.3197 18.5833 29.9864 18.5833 29.3197C18.5833 27.9031 18.5833 26.5697 18.5833 25.1531C18.5833 24.6531 18.75 24.3197 19.1667 24.1531C24.0833 21.6531 29.0833 19.2364 34 16.7364C34.4167 16.4864 34.75 16.4864 35.0833 16.6531C36.4167 17.3197 37.75 17.9864 39.0833 18.6531C39.3333 18.7364 39.4167 18.7364 39.6667 18.5697C42.25 16.4864 45.25 15.9031 48.5 17.1531C51.6667 18.4031 53.5833 20.7364 54.0833 24.1531C54.9167 29.1531 51.25 33.8197 46.25 34.3197C45.1667 34.4031 44.0833 34.3197 43 34.0697C43 35.7364 43 37.4031 43 39.0697C44 39.0697 45 39.0697 46.0833 39.0697C46.0833 38.7364 46.0833 38.3197 46.0833 37.9864C46.0833 37.6531 46.0833 37.3197 46.0833 36.9031C46.0833 36.4031 46.5 35.9864 47 35.9864C47.5 35.9864 47.9167 36.4031 47.9167 36.9031C47.9167 36.9864 47.9167 37.1531 47.9167 37.2364C47.9167 40.1531 47.9167 43.1531 47.9167 46.0697C47.9167 46.2364 47.9167 46.3197 47.9167 46.5697C48.4167 46.5697 48.8333 46.5697 49.3333 46.5697C50.0833 46.5697 50.4167 46.9031 50.4167 47.6531C50.4167 48.8197 50.4167 49.9864 50.4167 51.1531C50.4167 51.8197 50.0833 52.2364 49.3333 52.2364C39.4167 52.2364 29.5 52.2364 19.5833 52.2364C18.9167 52.2364 18.5 51.8197 18.5 51.1531C18.5 49.9864 18.5 48.8197 18.5 47.6531C18.5 46.9031 18.8333 46.5697 19.5833 46.5697C20.1667 46.4864 20.5833 46.5697 21.0833 46.5697ZM45.3333 18.4031C41.5 18.4031 38.3333 21.5697 38.3333 25.4031C38.3333 29.2364 41.5 32.4031 45.3333 32.4031C49.1667 32.4031 52.3333 29.2364 52.3333 25.4031C52.3333 21.5697 49.1667 18.4031 45.3333 18.4031ZM48.5833 48.4031C39.1667 48.4031 29.8333 48.4031 20.5 48.4031C20.5 49.0697 20.5 49.6531 20.5 50.2364C29.9167 50.2364 39.25 50.2364 48.5833 50.2364C48.5833 49.6531 48.5833 49.0697 48.5833 48.4031ZM23 46.4864C30.75 46.4864 38.4167 46.4864 46.0833 46.4864C46.0833 45.9031 46.0833 45.2364 46.0833 44.6531C38.4167 44.6531 30.6667 44.6531 23 44.6531C23 45.3197 23 45.9031 23 46.4864ZM36.8333 28.4031V28.3197C36.4167 26.9031 36.25 25.4864 36.5 24.0697C36.5 23.9864 36.4167 23.8197 36.3333 23.8197C35.8333 23.5697 35.3333 23.3197 34.9167 23.0697C34.6667 22.9031 34.4167 22.9864 34.1667 23.0697C31 24.6531 27.8333 26.2364 24.6667 27.8197C24.3333 27.9864 24 28.1531 23.6667 28.3197C23.6667 28.3197 23.6667 28.3197 23.6667 28.4031C28.0833 28.4031 32.5 28.4031 36.8333 28.4031ZM28 30.3197C28 34.4864 28 38.6531 28 42.7364C29.0833 42.7364 30.0833 42.7364 31.0833 42.7364C31.0833 38.5697 31.0833 34.4031 31.0833 30.3197C30 30.3197 29 30.3197 28 30.3197ZM20.5 27.8197C20.6667 27.7364 20.8333 27.6531 20.9167 27.6531C25.25 25.4031 29.5833 23.2364 33.9167 21.0697C34.3333 20.8197 34.75 20.8197 35.1667 21.0697C35.75 21.4031 36.4167 21.7364 37 21.9864C37.3333 21.4031 37.6667 20.8197 38 20.2364C36.9167 19.6531 35.75 19.1531 34.6667 18.5697C34.5833 18.4864 34.3333 18.5697 34.25 18.6531C33.25 19.1531 32.1667 19.6531 31.1667 20.1531C27.6667 21.9031 24.25 23.6531 20.75 25.3197C20.5833 25.4031 20.4167 25.5697 20.4167 25.6531C20.4167 26.4031 20.5 27.0697 20.5 27.8197ZM38 30.4864C38 34.6531 38 38.6531 38 42.7364C39 42.7364 40.0833 42.7364 41.0833 42.7364V42.6531C41.0833 39.5697 41.0833 36.4864 41.0833 33.4031C41.0833 33.3197 41 33.1531 41 33.1531C39.8333 32.5697 38.8333 31.6531 38 30.4864ZM23 38.9864C24.0833 38.9864 25.0833 38.9864 26.0833 38.9864C26.0833 36.0697 26.0833 33.1531 26.0833 30.3197C25.0833 30.3197 24 30.3197 23 30.3197C23 33.2364 23 36.0697 23 38.9864ZM33 30.3197C33 33.2364 33 36.1531 33 38.9864C34.0833 38.9864 35.0833 38.9864 36.0833 38.9864C36.0833 36.0697 36.0833 33.1531 36.0833 30.3197C35 30.3197 34 30.3197 33 30.3197ZM23 42.7364C24.0833 42.7364 25.0833 42.7364 26.0833 42.7364C26.0833 42.0697 26.0833 41.4864 26.0833 40.9031C25.0833 40.9031 24 40.9031 23 40.9031C23 41.5697 23 42.1531 23 42.7364ZM33 42.7364C34.0833 42.7364 35.0833 42.7364 36.0833 42.7364C36.0833 42.0697 36.0833 41.4864 36.0833 40.9031C35.0833 40.9031 34 40.9031 33 40.9031C33 41.5697 33 42.1531 33 42.7364ZM46.0833 40.9031C45 40.9031 44 40.9031 43 40.9031C43 41.5697 43 42.1531 43 42.7364C44 42.7364 45.0833 42.7364 46.0833 42.7364C46.0833 42.1531 46.0833 41.5697 46.0833 40.9031Z" fill="#FEFDFB"/>
<path d="M46.2501 24.4865C47.1667 24.4865 48.0001 24.4865 48.9167 24.4865C49.3334 24.4865 49.5834 24.6531 49.7501 24.9864C49.9167 25.3198 49.9167 25.6531 49.6667 25.9031C49.5001 26.2365 49.1667 26.3198 48.8334 26.3198C48.0001 26.3198 47.1667 26.3198 46.2501 26.3198C46.2501 27.0698 46.2501 27.8198 46.2501 28.5698C46.2501 28.7365 46.2501 28.9031 46.2501 29.0698C46.2501 29.5698 45.8334 29.9865 45.3334 29.9865C44.8334 29.9865 44.4167 29.5698 44.4167 29.0698C44.4167 28.3198 44.4167 27.5698 44.4167 26.7365C44.4167 26.6531 44.4167 26.5698 44.4167 26.4031C44.0001 26.4031 43.5834 26.4031 43.2501 26.4031C42.8334 26.4031 42.3334 26.4031 41.9167 26.4031C41.3334 26.4031 40.9167 25.9865 40.9167 25.4865C40.9167 24.9865 41.3334 24.5698 41.9167 24.5698C42.7501 24.5698 43.5834 24.5698 44.5001 24.5698C44.5001 24.1531 44.5001 23.7364 44.5001 23.3198C44.5001 22.8198 44.5001 22.4031 44.5001 21.9031C44.5001 21.3198 44.9167 20.9865 45.4167 20.9865C45.9167 20.9865 46.3334 21.4031 46.3334 21.9031C46.3334 22.6531 46.3334 23.3198 46.3334 24.0698C46.2501 24.1531 46.2501 24.3198 46.2501 24.4865Z" fill="#FEFDFB"/>
</g>
<defs>
<filter id="filter0_d_344_5252" x="0" y="0" width="72" height="72" filterUnits="userSpaceOnUse" color-interpolation-filters="sRGB">
<feFlood flood-opacity="0" result="BackgroundImageFix"/>
<feColorMatrix in="SourceAlpha" type="matrix" values="0 0 0 0 0 0 0 0 0 0 0 0 0 0 0 0 0 0 127 0" result="hardAlpha"/>
<feOffset dy="2"/>
<feGaussianBlur stdDeviation="2"/>
<feComposite in2="hardAlpha" operator="out"/>
<feColorMatrix type="matrix" values="0 0 0 0 0 0 0 0 0 0 0 0 0 0 0 0 0 0 0.1 0"/>
<feBlend mode="normal" in2="BackgroundImageFix" result="effect1_dropShadow_344_5252"/>
<feBlend mode="normal" in="SourceGraphic" in2="effect1_dropShadow_344_5252" result="shape"/>
</filter>
</defs>
</svg>
