<svg width="48" height="48" viewBox="0 0 48 48" fill="none" xmlns="http://www.w3.org/2000/svg">
<g filter="url(#filter0_d_474_11617)">
<circle cx="24" cy="22" r="20" fill="#FF9626"/>
<path d="M13.1992 20.3589C13.2547 19.9667 13.2974 19.5718 13.3679 19.1823C13.7324 17.1812 14.6456 15.4635 16.0893 14.0356C17.4769 12.6632 19.1336 11.771 21.0517 11.3942C23.4465 10.9247 25.7078 11.3105 27.8331 12.5058C28.093 12.652 28.1805 12.8852 28.0637 13.1077C27.9473 13.3291 27.6986 13.4006 27.4381 13.256C26.6269 12.8051 25.7778 12.4588 24.8688 12.2614C23.3595 11.9332 21.8592 11.9769 20.3883 12.4385C17.921 13.2128 16.0946 14.7613 14.9423 17.0804C13.2899 20.4058 13.9848 24.5813 16.6139 27.2029C16.6289 27.2179 16.6465 27.2301 16.7089 27.2814C16.7089 27.0818 16.71 26.9185 16.7089 26.7558C16.703 26.1032 16.8418 25.4884 17.1903 24.9298C17.7587 24.0178 18.6009 23.5429 19.6465 23.3866C19.9832 23.3364 20.3173 23.2692 20.6515 23.2057C21.0053 23.1379 21.2439 22.9138 21.2972 22.6118C21.3202 22.4821 21.2972 22.3919 21.1702 22.3119C20.2779 21.7516 19.7489 20.9442 19.5819 19.9058C19.5472 19.6903 19.5445 19.4672 19.5435 19.2479C19.5408 18.5734 19.5328 17.8984 19.5509 17.2245C19.6016 15.3211 21.4024 13.772 23.2976 13.9908C25.0711 14.1952 26.3318 15.5425 26.3974 17.3483C26.4262 18.1417 26.423 18.94 26.368 19.7319C26.2939 20.8012 25.7612 21.6337 24.8827 22.242C24.5929 22.4426 24.5572 22.5984 24.7626 22.8935C24.8982 23.0877 25.0951 23.1699 25.3188 23.2121C25.8274 23.3081 26.3403 23.3882 26.842 23.5125C27.6255 23.7062 28.2355 24.1614 28.6865 24.8294C28.7335 24.8988 28.7788 24.9698 28.7975 24.9981C29.2853 24.8647 29.7443 24.7217 30.2118 24.6192C30.451 24.5669 30.7061 24.5797 30.9537 24.577C31.0615 24.576 31.1138 24.5472 31.1571 24.4436C31.7548 23.005 31.9736 21.5141 31.8012 19.9645C31.6529 18.6321 31.227 17.3963 30.523 16.256C30.4163 16.0825 30.3645 15.9032 30.4867 15.7181C30.5812 15.5756 30.729 15.494 30.8891 15.5447C31.013 15.5841 31.1533 15.6695 31.2206 15.7762C32.0596 17.1076 32.5436 18.5606 32.6797 20.13C32.8126 21.6635 32.5837 23.1422 32.0249 24.5733C32.0073 24.6187 31.9961 24.6667 31.9875 24.696C32.3392 24.8695 32.7027 25.0034 33.0181 25.2115C34.505 26.1928 35.2058 27.585 34.9667 29.3539C34.7329 31.0839 33.7167 32.2311 32.0708 32.8101C31.7996 32.9056 31.5104 32.9478 31.2291 33.015C30.9452 33.015 30.6607 33.015 30.3768 33.015C30.1297 32.96 29.8804 32.9125 29.6354 32.8474C29.3462 32.7706 29.2127 32.5657 29.2714 32.317C29.3259 32.0865 29.542 31.9777 29.8249 32.0214C30.1676 32.0742 30.5123 32.1575 30.8555 32.1538C32.874 32.134 34.3956 30.3427 34.1309 28.3219C33.9302 26.7931 32.6146 25.5343 31.1085 25.4314C29.4679 25.3193 28.0023 26.3043 27.5662 27.8139C27.3613 28.5236 27.3837 29.2269 27.6143 29.9286C27.7039 30.2013 27.5967 30.4249 27.3656 30.5028C27.1238 30.5844 26.9076 30.4622 26.8057 30.1842C26.7801 30.1148 26.7571 30.0444 26.7352 29.9814C26.6936 29.9846 26.6781 29.9825 26.6653 29.9873C26.5922 30.014 26.5191 30.0417 26.4465 30.0695C24.8747 30.6655 23.2538 30.8566 21.5919 30.6138C19.4767 30.3048 17.6413 29.4083 16.116 27.9062C14.6531 26.4655 13.726 24.7334 13.3636 22.7078C13.2958 22.3247 13.2537 21.9373 13.1992 21.552C13.1992 21.1545 13.1992 20.7569 13.1992 20.3589ZM21.8123 23.505C21.1964 23.9767 21.1958 23.9757 20.4156 24.1128C20.122 24.164 19.8295 24.2222 19.5371 24.2777C18.4259 24.4874 17.6349 25.3897 17.5837 26.4463C17.5613 26.9137 17.5714 27.3828 17.557 27.8507C17.5527 27.9868 17.5965 28.0706 17.7091 28.1485C20.4294 30.0204 23.3275 30.3624 26.4081 29.1693C26.5415 29.1175 26.5863 29.053 26.581 28.9057C26.5527 28.1293 26.7112 27.3881 27.1238 26.7286C27.3954 26.2942 27.7386 25.9041 28.0887 25.4415C27.9468 25.2745 27.7765 25.0392 27.571 24.8396C27.1259 24.4074 26.5436 24.3006 25.9598 24.1886C25.3278 24.0669 24.641 24.0755 24.1553 23.4938C23.9743 23.6806 23.8148 23.862 23.637 24.0232C23.5159 24.1326 23.4897 24.2339 23.533 24.3935C23.811 25.4196 24.0763 26.4495 24.3506 27.4772C24.4088 27.6944 24.3789 27.8758 24.2225 28.0466C23.9295 28.3657 23.6509 28.6976 23.3611 29.0199C23.0985 29.3128 22.8493 29.3107 22.5878 29.0172C22.3134 28.7098 22.0503 28.3923 21.768 28.0925C21.5828 27.8956 21.5385 27.6965 21.6105 27.4335C21.8897 26.4148 22.1539 25.3919 22.4154 24.3684C22.4362 24.2868 22.4282 24.163 22.3791 24.1048C22.203 23.893 22.0023 23.7014 21.8123 23.505ZM20.3979 18.5377C20.3979 18.8904 20.3905 19.1876 20.399 19.4848C20.4374 20.781 21.4435 21.8551 22.7244 21.973C24.0101 22.0915 25.2051 21.2521 25.4671 19.9901C25.5637 19.5243 25.5259 19.0313 25.5568 18.5515C25.5653 18.4213 25.521 18.3466 25.4068 18.2826C25.0114 18.0596 24.6185 17.8328 24.2327 17.5937C24.0966 17.5094 24.0128 17.5099 23.8879 17.622C23.264 18.1785 22.5301 18.4918 21.6933 18.535C21.2706 18.5558 20.8457 18.5377 20.3979 18.5377ZM20.4059 17.7244C20.9231 17.7015 21.428 17.7122 21.9238 17.6487C22.5632 17.5665 23.0996 17.2517 23.541 16.7789C23.8318 16.4678 23.9642 16.4518 24.3357 16.669C24.5929 16.8194 24.8496 16.971 25.1064 17.1215C25.2451 17.2031 25.3844 17.2837 25.5541 17.3824C25.489 16.3493 25.0455 15.5847 24.1633 15.1268C23.2239 14.6397 22.2894 14.7144 21.4355 15.343C20.6547 15.9182 20.3387 16.7191 20.4059 17.7244ZM22.9763 28.1661C23.1359 27.9857 23.2853 27.8251 23.4236 27.6549C23.4577 27.6127 23.4791 27.5348 23.4657 27.4836C23.3125 26.8817 23.1519 26.2819 22.9934 25.6821C22.7986 26.2931 22.6369 26.9068 22.4816 27.522C22.4719 27.5599 22.4976 27.6186 22.5259 27.6517C22.6662 27.8193 22.8135 27.9815 22.9763 28.1661ZM22.9453 23.4218C23.1668 23.2025 23.3846 22.9864 23.565 22.8076C23.1909 22.8076 22.7607 22.8076 22.3262 22.8076C22.5483 23.0274 22.7628 23.2404 22.9453 23.4218Z" fill="#FEFDFB"/>
<path d="M29.5757 14.7961C29.3458 14.7961 29.1425 14.596 29.1387 14.3665C29.135 14.1333 29.3394 13.9295 29.5688 13.937C29.7977 13.9444 29.9968 14.1515 29.9946 14.3793C29.993 14.6077 29.8036 14.7961 29.5757 14.7961Z" fill="#FEFDFB"/>
<path d="M30.372 28.354C30.372 28.0099 30.3699 27.6908 30.3725 27.3722C30.3757 27.0547 30.5353 26.8711 30.799 26.8738C31.0573 26.8765 31.219 27.0648 31.2233 27.3797C31.2275 27.6982 31.2243 28.0168 31.2243 28.3658C31.4971 28.3658 31.7564 28.3658 32.0164 28.3658C32.1012 28.3658 32.1866 28.3631 32.2715 28.3674C32.5319 28.3802 32.7161 28.5563 32.7166 28.7884C32.7171 29.0093 32.5447 29.1961 32.2944 29.2115C32.0398 29.227 31.7837 29.2169 31.5285 29.2179C31.4373 29.2185 31.346 29.2179 31.2243 29.2179C31.2243 29.5253 31.2249 29.8204 31.2243 30.1149C31.2238 30.4991 31.0744 30.7072 30.7974 30.7094C30.5198 30.7121 30.3725 30.5077 30.3715 30.1197C30.3709 29.8433 30.3699 29.5669 30.3683 29.29C30.3683 29.2766 30.3613 29.2633 30.348 29.2174C30.0918 29.2174 29.8255 29.2185 29.5591 29.2169C29.4529 29.2163 29.3451 29.2206 29.241 29.2025C28.9998 29.1603 28.8637 28.9842 28.8803 28.7548C28.8957 28.5397 29.0537 28.3791 29.2875 28.37C29.5853 28.3588 29.8831 28.3663 30.1815 28.3647C30.237 28.3647 30.2919 28.3588 30.372 28.354Z" fill="#FEFDFB"/>
<path d="M27.7305 31.5145C27.7299 31.2829 27.9162 31.0945 28.1462 31.094C28.3767 31.0935 28.5832 31.2968 28.5848 31.5262C28.5858 31.7477 28.3884 31.9456 28.1632 31.9483C27.9316 31.9504 27.731 31.7498 27.7305 31.5145Z" fill="#FEFDFB"/>
<path d="M23.0033 21.2221C22.6954 21.2248 22.4478 21.1352 22.2391 20.9441C22.0465 20.768 22.0172 20.5429 22.1591 20.355C22.3005 20.1672 22.531 20.1261 22.7429 20.2755C22.9083 20.3924 23.0444 20.3844 23.2066 20.2702C23.4083 20.1283 23.6345 20.1677 23.7759 20.3449C23.9179 20.5226 23.8944 20.7712 23.713 20.9367C23.5054 21.1266 23.2599 21.2254 23.0033 21.2221Z" fill="#FEFDFB"/>
<path d="M22.1108 19.3034C22.1156 19.5339 21.9304 19.7255 21.6999 19.7297C21.4726 19.734 21.2736 19.5456 21.2677 19.321C21.2618 19.0979 21.455 18.8994 21.6823 18.8946C21.9128 18.8893 22.106 19.0739 22.1108 19.3034Z" fill="#FEFDFB"/>
<path d="M23.8457 19.3179C23.8431 19.0853 24.0266 18.8958 24.2571 18.8926C24.4855 18.8894 24.6787 19.0778 24.6824 19.3062C24.6862 19.5356 24.4994 19.7266 24.2689 19.7293C24.0362 19.7325 23.8484 19.55 23.8457 19.3179Z" fill="#FEFDFB"/>
</g>
<defs>
<filter id="filter0_d_474_11617" x="0" y="0" width="48" height="48" filterUnits="userSpaceOnUse" color-interpolation-filters="sRGB">
<feFlood flood-opacity="0" result="BackgroundImageFix"/>
<feColorMatrix in="SourceAlpha" type="matrix" values="0 0 0 0 0 0 0 0 0 0 0 0 0 0 0 0 0 0 127 0" result="hardAlpha"/>
<feOffset dy="2"/>
<feGaussianBlur stdDeviation="2"/>
<feComposite in2="hardAlpha" operator="out"/>
<feColorMatrix type="matrix" values="0 0 0 0 0 0 0 0 0 0 0 0 0 0 0 0 0 0 0.1 0"/>
<feBlend mode="normal" in2="BackgroundImageFix" result="effect1_dropShadow_474_11617"/>
<feBlend mode="normal" in="SourceGraphic" in2="effect1_dropShadow_474_11617" result="shape"/>
</filter>
</defs>
</svg>
