<svg width="128" height="128" viewBox="0 0 128 128" fill="none" xmlns="http://www.w3.org/2000/svg">
<g clip-path="url(#clip0_1485_16031)">
<rect width="128" height="128" rx="64" fill="#F2F2F2"/>
<path d="M64.6408 19.592C51.5507 20.158 48.6355 32.6113 48.6355 50.6827C48.6355 68.7541 40.9513 72.1222 40.9513 72.1222H87.0992C87.0992 72.1222 79.8819 60.7869 79.2027 50.5129C78.5234 40.2248 80.4055 18.8985 64.6408 19.592Z" fill="#B3B3B3"/>
<path d="M56.9282 52.5509V73.8206H70.2589V52.5509H56.9282Z" fill="#EDB8A6"/>
<path d="M70.2589 52.5509H56.9282V69.6176C57.749 68.5987 58.3434 67.1552 58.6122 65.1882C58.7538 63.8155 58.4424 61.056 60.5651 61.6079C64.8672 62.7117 68.2211 61.6786 70.2589 58.8625V52.5509Z" fill="#B07D6B"/>
<path d="M76.4572 39.9419C77.2214 39.3476 78.3394 39.1353 79.3017 39.4325C80.264 39.7297 81.014 40.4938 81.2121 41.3854C81.5235 42.7864 78.6224 46.4941 77.9148 46.8479C77.2073 47.2016 76.2308 47.2441 75.6506 46.7205L76.4572 39.9419Z" fill="#EDB8A6"/>
<path d="M51.5789 39.9419C50.8147 39.3476 49.6967 39.1353 48.7344 39.4325C47.7721 39.7297 47.0221 40.4938 46.824 41.3854C46.5127 42.7864 49.4137 46.4941 50.1213 46.8479C50.8288 47.2016 51.8053 47.2441 52.3855 46.7205L51.5789 39.9419Z" fill="#EDB8A6"/>
<path d="M63.7632 19.0826C50.6165 19.0826 50.4467 27.4886 50.4467 29.7387C50.4467 34.0124 50.1495 42.6873 51.1967 47.9941C51.6637 50.3715 54.777 54.0792 56.2629 55.7349C58.414 58.1407 61.1593 58.5086 63.7632 58.5086C66.3671 58.5086 69.1125 58.1407 71.2635 55.7349C72.7494 54.0651 75.8627 50.3574 76.3297 47.9941C77.3769 42.6873 77.0797 34.0124 77.0797 29.7387C77.0797 27.4745 76.9099 19.0826 63.7632 19.0826Z" fill="#EDB8A6"/>
<path d="M54.9894 33.3045C54.9894 33.3045 58.7961 34.5923 61.3434 33.6017C64.7681 31.7195 66.2398 30.9129 69.1833 31.7903C72.6221 32.8234 73.5703 33.4319 77.1223 33.2479C77.1081 31.8752 77.094 30.6582 77.094 29.7242C77.094 27.4741 76.9242 19.0681 63.7774 19.0681C50.6307 19.0681 50.4609 27.4741 50.4609 29.7242C50.4609 33.9979 50.1637 42.6728 51.2109 47.9796C51.6779 50.357 54.7913 54.0647 56.2772 55.7204C57.1404 56.6827 58.0886 57.3195 59.0792 57.7299C55.6687 53.8949 53.5742 51.8854 52.895 46.522C52.5129 42.6586 53.5459 35.965 54.9894 33.3045Z" fill="#E6A38C"/>
<path d="M69.5936 47.3844C68.32 46.5636 63.6924 47.7382 63.6924 47.7382C63.6924 47.7382 59.0083 46.5778 57.7347 47.3844C56.461 48.2052 56.7016 53.1157 56.7016 53.1157L57.763 53.7525C57.763 53.7525 57.4517 50.0307 58.2017 49.2807C58.9517 48.5307 63.6358 49.3797 63.6358 49.3797C63.6358 49.3797 68.3624 48.5307 69.1125 49.2807C69.8625 50.0307 69.5512 53.7525 69.5512 53.7525L70.5559 53.1582C70.5701 53.1582 70.8672 48.2052 69.5936 47.3844Z" fill="#231F20"/>
<path d="M76.825 45.6017L74.8155 48.3612L70.8814 52.2246C70.8814 52.2246 68.2351 54.9558 66.6926 55.1681C64.3576 55.4936 63.6076 54.786 63.6076 54.786C63.6076 54.786 62.8575 55.4794 60.5225 55.1681C58.98 54.9558 56.3337 52.2246 56.3337 52.2246L52.2722 48.3612L50.8146 45.446C50.8146 45.446 51.2109 49.8047 51.5647 50.4556C51.9184 51.1066 55.4846 56.371 57.2252 57.3616C58.1026 57.8569 59.8999 58.6635 60.5084 58.9607C60.5084 58.9607 60.5225 58.9748 60.565 58.989C60.6782 59.0456 60.749 59.088 60.749 59.088H60.7631C61.1876 59.2862 62.065 59.6541 62.9 59.8098L62.7019 59.456C62.7019 59.456 64.0038 60.2202 65.9001 60.2626C65.9001 60.2626 64.8387 59.5692 65.3906 59.5126C65.9425 59.4701 66.5935 59.4277 66.5935 59.4277C66.5935 59.4277 66.3671 59.2862 66.4944 59.0739C66.4944 59.0739 68.886 57.9701 69.9899 57.3474C71.7446 56.3568 75.6929 51.2906 75.891 50.4415C76.0467 49.7198 76.825 45.6017 76.825 45.6017Z" fill="#231F20"/>
<path d="M58.5415 49.6493C58.5415 49.6493 60.8482 50.272 63.6502 50.2861C65.3201 50.3003 68.8013 49.6493 68.8013 49.6493C68.8013 49.6493 68.2777 51.121 67.839 51.6163C66.0135 53.6966 61.8813 53.5409 59.4755 51.6163C59.051 51.2767 58.5415 49.6493 58.5415 49.6493Z" fill="white"/>
<path d="M70.8816 45.065C72.0617 45.065 73.0185 43.9879 73.0185 42.6592C73.0185 41.3306 72.0617 40.2535 70.8816 40.2535C69.7014 40.2535 68.7447 41.3306 68.7447 42.6592C68.7447 43.9879 69.7014 45.065 70.8816 45.065Z" fill="white"/>
<path d="M70.8814 44.8239C71.7099 44.8239 72.3815 44.0002 72.3815 42.9842C72.3815 41.9681 71.7099 41.1445 70.8814 41.1445C70.053 41.1445 69.3814 41.9681 69.3814 42.9842C69.3814 44.0002 70.053 44.8239 70.8814 44.8239Z" fill="#1A1A1A"/>
<path d="M71.4757 42.4465C71.4757 42.5314 71.5323 42.5881 71.6172 42.5881C71.6879 42.5881 71.7587 42.5173 71.7587 42.4465C71.7587 42.3616 71.7021 42.305 71.6172 42.305C71.5323 42.305 71.4757 42.3758 71.4757 42.4465Z" fill="white"/>
<path d="M70.8816 40.1539C69.806 40.1539 68.9004 41.0171 68.6881 42.1634C69.3107 41.003 70.8957 40.3237 71.9712 40.9747C72.7496 41.5124 72.9052 42.2766 73.1033 42.7719C73.1033 42.7294 73.1033 42.687 73.1033 42.6445C73.1033 41.2718 72.1127 40.1539 70.8816 40.1539Z" fill="#1A1A1A"/>
<path d="M57.0981 45.065C58.2783 45.065 59.235 43.9879 59.235 42.6592C59.235 41.3306 58.2783 40.2535 57.0981 40.2535C55.918 40.2535 54.9613 41.3306 54.9613 42.6592C54.9613 43.9879 55.918 45.065 57.0981 45.065Z" fill="white"/>
<path d="M57.098 44.8239C57.9264 44.8239 58.598 44.0002 58.598 42.9842C58.598 41.9681 57.9264 41.1445 57.098 41.1445C56.2695 41.1445 55.5979 41.9681 55.5979 42.9842C55.5979 44.0002 56.2695 44.8239 57.098 44.8239Z" fill="#1A1A1A"/>
<path d="M56.5035 42.4465C56.5035 42.5314 56.4469 42.5881 56.362 42.5881C56.2771 42.5881 56.2205 42.5173 56.2205 42.4465C56.2205 42.3616 56.2771 42.305 56.362 42.305C56.4469 42.305 56.5035 42.3758 56.5035 42.4465Z" fill="white"/>
<path d="M57.098 40.1539C58.1735 40.1539 59.0792 41.0171 59.2915 42.1634C58.6688 41.003 57.0838 40.3237 56.0083 40.9747C55.23 41.5124 55.0743 42.2766 54.8762 42.7719C54.8762 42.7294 54.8762 42.687 54.8762 42.6445C54.8762 41.2718 55.8668 40.1539 57.098 40.1539Z" fill="#1A1A1A"/>
<path d="M68.4049 39.3756C68.3766 39.1492 68.971 38.0171 69.8625 37.5501C69.8625 37.5501 71.0371 37.5218 71.7022 37.5784C74.4334 37.8473 74.207 39.9134 74.2353 40.2955C74.2636 40.5502 73.4711 39.5596 71.3201 39.1775C69.1832 38.7954 68.4615 39.7294 68.4049 39.3756Z" fill="#1A1A1A"/>
<path d="M59.631 39.3757C59.6593 39.1634 59.1074 38.0596 58.2583 37.5926C58.2583 37.5926 57.0413 37.5218 56.3337 37.5784C53.6025 37.8473 53.8289 39.9134 53.8006 40.2955C53.7723 40.5502 54.777 39.5738 56.9281 39.1917C59.0649 38.8096 59.5744 39.7295 59.631 39.3757Z" fill="#1A1A1A"/>
<path d="M62.6312 46.607C63.4802 46.508 64.1878 45.6872 64.0746 44.8806C64.0322 44.5692 64.5416 44.4702 64.5982 44.7956C64.7539 45.857 63.8482 46.9891 62.7019 47.1165C62.5604 47.1306 62.433 47.0599 62.4047 46.9184C62.3906 46.7768 62.4896 46.6212 62.6312 46.607Z" fill="#C45C5C"/>
<path d="M82.0329 50.6118C82.4574 45.2484 80.4196 33.7291 79.8394 31.2384C79.8253 31.196 79.8253 31.1677 79.8111 31.1252C79.6271 30.3327 79.33 29.2997 79.33 28.9742C79.3441 25.7901 79.2875 23.6391 79.1743 22.9881C78.778 20.4833 75.3958 18.587 73.4712 17.3134C70.8391 15.5727 67.7965 14.1151 64.57 14.2283C61.6831 14.3274 58.9235 15.5161 56.2348 16.436C53.1356 17.5115 50.3902 20.9361 49.2156 23.073C48.0411 25.2099 49.06 26.7524 48.7628 28.8893C48.593 30.1063 47.1778 36.0499 46.9231 37.5217C46.541 39.8 45.1966 45.9842 45.6212 51.4184C46.0457 56.8526 41.1352 73.4947 41.1352 73.4947C41.1352 73.4947 43.0315 73.6362 45.5646 69.5323C48.0835 65.4283 53.645 63.6594 52.5554 57.9847C51.4657 52.2958 52.5554 35.2574 52.5554 35.2574C53.7441 27.8704 57.9188 32.9224 60.1264 32.6536C62.4048 32.3847 64.6832 28.5921 67.7824 30.5874C70.8815 32.5828 72.5514 28.2383 74.3345 30.361C75.0138 31.1677 75.4666 32.2432 75.7779 33.2904C76.061 35.9933 77.0657 47.3428 75.0845 57.178C73.9383 62.8528 79.5564 64.6217 82.0753 68.7256C84.5943 72.8296 86.5048 72.688 86.5048 72.688C86.5048 72.688 81.6083 56.0459 82.0329 50.6118Z" fill="#E6E6E6"/>
<path d="M52.5838 35.1873C52.5838 35.1873 53.3763 27.7577 54.2396 27.7294C54.565 27.7153 54.9896 31.2532 54.9896 31.2532C54.9896 31.2532 53.3763 32.3994 52.5838 35.1873Z" fill="#D6D6D6"/>
<path d="M59.3482 32.5684C59.3482 32.5684 59.886 28.4928 60.5935 28.7051C61.1455 28.8608 61.7964 31.9741 61.7964 31.9741C61.7964 31.9741 60.4803 32.9505 59.3482 32.5684Z" fill="#D6D6D6"/>
<path d="M68.122 30.7716C68.122 30.7716 68.589 28.2526 69.5513 28.2526C70.5136 28.2526 70.9806 30.7433 70.9806 30.7433C70.9806 30.7433 70.3863 31.1537 69.5089 31.1537C68.6173 31.1395 68.122 30.7716 68.122 30.7716Z" fill="#D6D6D6"/>
<path d="M48.7061 26.3846C48.7061 26.3846 66.537 20.5401 79.3441 27.1771V27.8847C79.3441 27.8847 67.8955 21.4316 48.7911 27.1771L48.7061 26.3846Z" fill="#1A1A1A"/>
<path d="M48.8054 27.3616C48.8054 27.3616 66.5371 21.5171 79.3442 28.1541V28.8617C79.3442 28.8617 67.9381 22.4086 48.8337 28.1541L48.8054 27.3616Z" fill="#1A1A1A"/>
<path d="M38.7579 70.7067C38.1069 70.8624 33.2671 72.6596 32.2624 74.2163C30.9887 76.1833 25.9933 117.902 26.7433 123.039C27.4933 128.162 40.1872 129.902 40.9938 124.341C41.6165 120.067 48.1403 90.0376 47.8007 87.363C47.461 84.6884 39.423 70.5511 38.7579 70.7067Z" fill="#E6E6E6"/>
<path d="M39.4373 87.504C38.8712 87.504 41.8572 93.2495 41.8572 94.4382C43.3855 102.533 41.8996 107.854 42.6355 115.807C44.2346 107.854 46.5272 96.6741 47.4329 90.9145C44.6733 90.6881 42.1685 87.6031 39.4373 87.504Z" fill="#CCCCCC"/>
<path d="M89.3494 71.0321C90.0004 71.1877 95.5478 73.2397 96.5384 74.7539C97.7837 76.6643 101.76 116.076 101.576 121.072C101.392 126.067 87.7503 128.487 87.0003 123.124C86.4342 118.977 80.2642 89.9101 80.6321 87.3346C81.0001 84.7448 88.6843 70.8764 89.3494 71.0321Z" fill="#E6E6E6"/>
<path d="M85.1607 99.7312C84.8352 95.5282 86.2079 91.4243 87.906 87.4336C83.8163 87.9289 80.8728 90.094 80.8728 90.094C81.9907 98.0613 86.5192 119.586 87.0145 123.095C87.0853 123.647 87.2975 124.1 87.6089 124.496C86.9013 116.345 85.8399 108.59 85.1607 99.7312Z" fill="#CCCCCC"/>
<path d="M77.0234 119.359C78.1838 119.77 79.3584 120.166 80.533 120.548C81.0707 110.048 84.0992 103.51 84.2124 93.4054C85.0898 91.3676 85.9672 89.3298 86.8304 87.2778C88.9107 82.4239 90.439 76.2397 89.5333 71.0744L70.726 64.4798C70.726 64.4798 69.2401 69.8574 63.2965 69.8574C57.3529 69.8574 56.4613 64.4798 56.4613 64.4798L37.6682 71.0885C36.7625 76.2397 38.2909 82.438 40.3711 87.292C41.2485 89.3298 42.1259 91.3817 42.9891 93.4196C43.0882 102.675 45.1685 115.368 45.7487 122.218C53.6027 119.911 61.5559 117.916 69.6222 116.911C71.9006 116.515 74.5611 118.609 77.0234 119.359Z" fill="#E6E6E6"/>
<path d="M42.9891 93.4196C43.1165 104.981 46.3288 121.921 45.8477 126.095C45.7486 127.015 45.3099 131.119 44.7014 137.035H81.8631C81.5094 134.402 81.1556 132.195 80.7735 130.511C79.1178 113.458 84.0425 106.354 84.1981 93.4197C85.0755 91.3819 85.9529 89.3441 86.8162 87.2921C88.8964 82.4382 90.4248 76.254 89.5191 71.0887L70.726 64.4798C70.726 64.4798 69.2401 69.8574 63.2965 69.8574C57.3529 69.8574 56.4613 64.4798 56.4613 64.4798L37.6682 71.0885C36.7625 76.2397 38.2909 82.438 40.3711 87.292C41.2344 89.3298 42.1118 91.3676 42.9891 93.4196Z" fill="#E6E6E6"/>
<path d="M70.3438 63.5744C69.4806 66.4755 66.7918 68.6124 63.5936 68.6124C60.4095 68.6124 57.7207 66.4896 56.8433 63.5744L54.2536 65.0462C55.1735 69.3624 59.0085 72.2493 63.5936 72.2493C68.1787 72.2493 72.0137 69.3624 72.9336 65.0462L70.3438 63.5744Z" fill="#F2F2F2"/>
<path d="M61.3152 102.661L61.2162 69.3485H65.9852V97.9911C65.9852 100.581 63.8908 102.661 61.3152 102.661Z" fill="#F2F2F2"/>
<path d="M63.5937 75.3204C64.0627 75.3204 64.4428 74.9402 64.4428 74.4713C64.4428 74.0024 64.0627 73.6222 63.5937 73.6222C63.1248 73.6222 62.7446 74.0024 62.7446 74.4713C62.7446 74.9402 63.1248 75.3204 63.5937 75.3204Z" fill="#CCCCCC"/>
<path d="M63.5937 83.1457C64.0627 83.1457 64.4428 82.7655 64.4428 82.2966C64.4428 81.8277 64.0627 81.4475 63.5937 81.4475C63.1248 81.4475 62.7446 81.8277 62.7446 82.2966C62.7446 82.7655 63.1248 83.1457 63.5937 83.1457Z" fill="#CCCCCC"/>
<path d="M63.5937 90.972C64.0627 90.972 64.4428 90.5919 64.4428 90.1229C64.4428 89.654 64.0627 89.2739 63.5937 89.2739C63.1248 89.2739 62.7446 89.654 62.7446 90.1229C62.7446 90.5919 63.1248 90.972 63.5937 90.972Z" fill="#CCCCCC"/>
</g>
<defs>
<clipPath id="clip0_1485_16031">
<rect width="128" height="128" rx="64" fill="white"/>
</clipPath>
</defs>
</svg>
