<svg width="137" height="136" viewBox="0 0 137 136" fill="none" xmlns="http://www.w3.org/2000/svg">
<g filter="url(#filter0_d_1490_11323)">
<rect x="4" y="3" width="128" height="128" rx="64" fill="#FEFDFB"/>
<g clip-path="url(#clip0_1490_11323)">
<path d="M49.8456 58.9572C49.8456 55.9023 49.8456 53.0096 49.8456 50.0898C49.8726 41.3036 55.7662 34.0583 64.3361 32.247C74.4741 30.1112 84.6121 37.2754 85.7476 47.5756C86.1261 50.8738 85.9098 54.2532 85.9639 57.6055C85.9639 58.011 85.9639 58.4165 85.9639 58.9572C86.8019 58.9572 87.5589 58.9572 88.3159 58.9572C93.1551 58.9842 96.4803 62.2824 96.4803 67.0946C96.4803 74.2318 96.4803 81.3689 96.4803 88.479C96.4803 93.3452 93.2091 96.6164 88.3429 96.6435C74.7174 96.6705 61.092 96.6705 47.4665 96.6435C42.6003 96.6435 39.3291 93.3452 39.3291 88.479C39.3291 81.3419 39.3291 74.2047 39.3291 67.0946C39.3291 62.2554 42.6544 58.9842 47.4936 58.9572C48.2505 58.9572 48.9805 58.9572 49.8456 58.9572ZM68.0129 63.526C61.2272 63.526 54.4144 63.526 47.6287 63.526C45.1145 63.526 43.925 64.7156 43.925 67.2568C43.925 74.2858 43.925 81.3148 43.925 88.3438C43.925 90.9121 45.1415 92.1017 47.7369 92.1017C61.2001 92.1017 74.6363 92.1017 88.0996 92.1017C90.6949 92.1017 91.9115 90.9121 91.9115 88.3438C91.9115 81.3148 91.9115 74.2858 91.9115 67.2568C91.9115 64.7156 90.7219 63.526 88.2077 63.526C81.4491 63.526 74.7174 63.526 68.0129 63.526ZM81.3139 58.9031C81.3139 55.4697 81.4761 52.1174 81.2869 48.7922C80.9084 42.0876 75.4203 36.8969 68.4995 36.4373C62.0652 36.0048 55.7391 40.7358 54.7659 47.1971C54.1982 50.982 54.5226 54.875 54.4415 58.7139C54.4415 58.7679 54.5226 58.822 54.5766 58.9031C63.444 58.9031 72.3384 58.9031 81.3139 58.9031Z" fill="#39629C"/>
<path d="M37.8966 104.429C37.8966 106.7 37.9237 108.782 37.8966 110.837C37.8966 111.891 37.2478 112.729 36.3556 112.972C35.4094 113.243 34.5173 113.054 33.8955 112.242C33.6251 111.864 33.4089 111.323 33.4089 110.864C33.3818 106.998 33.3818 103.159 33.3818 99.2929C33.3818 98.2656 33.8955 97.5627 34.8417 97.1842C35.7879 96.8057 36.626 97.076 37.3559 97.7789C40.2216 100.591 43.3847 102.997 46.8992 104.916C55.0366 109.35 63.6877 111.107 72.9065 110.026C90.5871 107.971 105.078 95.5891 109.782 78.4492C112.647 67.9597 111.62 57.7677 106.889 47.9811C106.727 47.6567 106.538 47.3323 106.402 46.9809C105.862 45.7102 106.321 44.4396 107.484 43.8989C108.619 43.3853 109.917 43.7637 110.485 45.0073C111.566 47.4134 112.728 49.7925 113.54 52.2796C121.623 77.4219 108.268 104.105 83.2067 112.378C67.3103 117.568 52.4953 114.973 38.951 105.186C38.6806 104.97 38.3832 104.754 37.8966 104.429Z" fill="#39629C"/>
<path d="M97.9134 29.4354C97.9134 27.2996 97.8863 25.245 97.9134 23.1904C97.9404 22.109 98.6163 21.2709 99.5625 21.0006C100.536 20.7302 101.644 21.1357 102.104 22.0279C102.32 22.4334 102.428 22.92 102.428 23.3796C102.455 27.0834 102.428 30.8141 102.455 34.5449C102.455 35.5993 102.077 36.3833 101.076 36.8158C100.049 37.2484 99.184 36.951 98.4 36.194C93.9393 31.8415 88.8297 28.5432 82.9632 26.3534C58.2536 17.1887 30.9486 32.1659 25.4876 57.9299C23.3789 67.7975 24.6495 77.2596 29.0832 86.3162C29.1913 86.5596 29.3265 86.8029 29.4346 87.0462C29.9753 88.3168 29.5428 89.5874 28.3803 90.1281C27.2448 90.6688 25.9201 90.2633 25.3794 89.0468C24.217 86.4244 22.9463 83.8291 22.1353 81.0986C14.4575 55.686 28.137 29.4083 53.4414 21.4061C68.9593 16.5128 83.4498 19.1892 96.6698 28.7054C96.9672 28.9217 97.2645 29.165 97.5619 29.3813C97.616 29.4083 97.6971 29.4083 97.9134 29.4354Z" fill="#39629C"/>
<path d="M53.3062 73.2585C55.8474 73.2585 57.875 75.2861 57.848 77.8274C57.8209 80.3146 55.8204 82.3422 53.3332 82.3692C50.819 82.3963 48.7373 80.3416 48.7373 77.8274C48.7373 75.2861 50.7649 73.2585 53.3062 73.2585Z" fill="#39629C"/>
<path d="M67.9048 73.2585C70.446 73.2585 72.4736 75.2861 72.4466 77.8274C72.4466 80.3416 70.3649 82.3963 67.8507 82.3692C65.3635 82.3422 63.363 80.3146 63.3359 77.8274C63.3359 75.2861 65.3365 73.2585 67.9048 73.2585Z" fill="#39629C"/>
<path d="M82.5578 73.2585C85.0991 73.2856 87.0996 75.3402 87.0726 77.8815C87.0185 80.3687 85.018 82.3692 82.5308 82.3692C80.0165 82.3692 77.9619 80.3146 77.9619 77.7733C77.9619 75.2591 79.9895 73.2585 82.5578 73.2585Z" fill="#39629C"/>
</g>
</g>
<defs>
<filter id="filter0_d_1490_11323" x="0.5" y="0" width="136" height="136" filterUnits="userSpaceOnUse" color-interpolation-filters="sRGB">
<feFlood flood-opacity="0" result="BackgroundImageFix"/>
<feColorMatrix in="SourceAlpha" type="matrix" values="0 0 0 0 0 0 0 0 0 0 0 0 0 0 0 0 0 0 127 0" result="hardAlpha"/>
<feOffset dx="0.5" dy="1"/>
<feGaussianBlur stdDeviation="2"/>
<feComposite in2="hardAlpha" operator="out"/>
<feColorMatrix type="matrix" values="0 0 0 0 0.223529 0 0 0 0 0.384314 0 0 0 0 0.611765 0 0 0 0.24 0"/>
<feBlend mode="normal" in2="BackgroundImageFix" result="effect1_dropShadow_1490_11323"/>
<feBlend mode="normal" in="SourceGraphic" in2="effect1_dropShadow_1490_11323" result="shape"/>
</filter>
<clipPath id="clip0_1490_11323">
<rect width="95.8378" height="96" fill="white" transform="translate(20 19)"/>
</clipPath>
</defs>
</svg>
