<svg width="32" height="32" viewBox="0 0 32 32" fill="none" xmlns="http://www.w3.org/2000/svg">
<g clip-path="url(#clip0_1418_14644)">
<path d="M30.8375 10.7544C30.3947 11.6906 29.9533 12.6277 29.5089 13.5632C29.1523 14.313 28.533 14.5344 27.7778 14.1793C26.9705 13.7994 26.1663 13.4148 25.3606 13.0317C24.6885 12.7124 24.4002 12.1358 24.6162 11.5282C24.8353 10.9105 25.5058 10.5889 26.1329 10.8196C26.157 10.8282 26.1873 10.8204 26.2409 10.8204C25.7941 9.902 25.2588 9.05975 24.5805 8.32161C21.4647 4.93082 17.6093 3.63092 13.1432 4.67286C8.60322 5.73112 5.75711 8.69145 4.50537 13.177C4.32356 13.8274 3.93973 14.1863 3.36942 14.1964C2.59709 14.2096 2.02911 13.529 2.20937 12.7761C2.92109 9.80255 4.44555 7.31929 6.76486 5.33253C8.70345 3.6721 10.9489 2.64337 13.4578 2.20437C19.2464 1.19117 25.1298 4.0132 27.9899 9.16231C28.1678 9.48321 28.3325 9.81187 28.5229 10.1732C28.5649 10.0963 28.5936 10.0442 28.6224 9.99136C28.8601 9.54692 29.2276 9.31615 29.735 9.34257C30.2439 9.36899 30.5788 9.6456 30.7707 10.1087C30.7886 10.1514 30.815 10.1903 30.8368 10.2307C30.8375 10.4047 30.8375 10.5795 30.8375 10.7544Z" fill="#FF9626"/>
<path d="M1 21.2437C1.42268 20.3308 1.85313 19.4209 2.26649 18.5041C2.61536 17.7294 3.29367 17.4582 4.05512 17.8172C4.90593 18.2181 5.75751 18.6183 6.60287 19.0301C7.11258 19.2787 7.37131 19.7923 7.2672 20.2973C7.11258 21.0464 6.36744 21.4434 5.65728 21.1544C5.55238 21.1116 5.44982 21.0635 5.27267 20.9865C5.35891 21.1645 5.41097 21.2826 5.47313 21.396C7.37287 24.8886 10.2804 26.981 14.2181 27.542C20.0137 28.3672 25.4293 24.7922 27.0097 19.1606C27.0571 18.9928 27.0967 18.8226 27.1473 18.6556C27.3392 18.0278 27.9444 17.6735 28.5513 17.832C29.1799 17.9959 29.559 18.6035 29.3889 19.2484C28.0866 24.1838 25.0626 27.6088 20.2289 29.2498C13.5818 31.5062 6.49953 28.5264 3.31543 22.274C3.28513 22.2142 3.25016 22.1567 3.2354 22.131C2.98832 22.295 2.76687 22.5032 2.50347 22.6042C1.98056 22.8055 1.37917 22.5296 1.12587 22.0254C1.08314 21.9407 1.04273 21.8544 1.00155 21.7697C1 21.5934 1 21.4185 1 21.2437Z" fill="#FF9626"/>
<path d="M11.2013 23.6923C11.0541 23.6433 10.8948 23.6065 10.7558 23.537C10.2777 23.3 9.98346 22.9118 9.9426 22.3765C9.88539 21.5551 9.85678 20.7337 9.82 19.9123C9.75053 18.4166 9.68515 16.9209 9.61568 15.4293C9.57072 14.4486 9.52577 13.4719 9.48491 12.4911C9.47265 12.1233 9.67289 11.9231 10.0448 11.9231C13.9229 11.9231 17.7969 11.9231 21.675 11.9231C22.0469 11.9231 22.2472 12.1233 22.2308 12.4911C22.1654 13.9623 22.096 15.4293 22.0306 16.9005C21.9734 18.1346 21.9202 19.3688 21.8671 20.6029C21.8426 21.1791 21.8263 21.7553 21.7813 22.3315C21.7241 23.0344 21.2664 23.5289 20.5758 23.6678C20.5553 23.6719 20.539 23.6842 20.5226 23.6923C17.4128 23.6923 14.307 23.6923 11.2013 23.6923ZM10.5065 12.908C10.5065 13.0632 10.5025 13.2063 10.5065 13.3493C10.5719 14.8245 10.6414 16.2998 10.7068 17.7709C10.7722 19.2339 10.8335 20.701 10.9029 22.164C10.9193 22.5358 11.1073 22.7116 11.4791 22.7116C14.401 22.7116 17.3229 22.7116 20.2448 22.7116C20.6125 22.7116 20.8005 22.5358 20.8169 22.164C20.8332 21.8575 20.8414 21.551 20.8577 21.2445C20.9109 20.0104 20.9681 18.7762 21.0253 17.5421C21.0907 16.0464 21.1601 14.5507 21.2296 13.0592C21.2337 13.0101 21.2296 12.9611 21.2296 12.908C17.6416 12.908 14.0782 12.908 10.5065 12.908Z" fill="#FF9626" stroke="#FF9626" stroke-width="0.2"/>
<path d="M18.0377 8C18.099 8.02043 18.1603 8.04087 18.2256 8.05721C18.855 8.24111 19.2841 8.79688 19.2963 9.45072C19.3004 9.61418 19.2963 9.77764 19.2963 9.96154C19.3576 9.96154 19.4107 9.96154 19.468 9.96154C20.3874 9.96154 21.3069 9.96154 22.2264 9.96154C22.4634 9.96154 22.6432 10.0964 22.7086 10.313C22.7699 10.5132 22.7004 10.7339 22.5165 10.8483C22.4389 10.8974 22.3408 10.9219 22.2468 10.9382C22.1569 10.9546 22.0629 10.9423 21.973 10.9423C17.8497 10.9423 13.7305 10.9423 9.60714 10.9423C9.53767 10.9423 9.46411 10.9464 9.39464 10.93C9.14944 10.881 8.97781 10.6481 9.00233 10.4029C9.02276 10.1495 9.23118 9.96154 9.50089 9.96154C10.2406 9.95745 10.9802 9.96154 11.724 9.96154C11.9528 9.96154 12.1817 9.96154 12.4309 9.96154C12.4309 9.81034 12.4309 9.66731 12.4309 9.52837C12.435 8.7601 12.8845 8.19615 13.6365 8.02861C13.6569 8.02452 13.6732 8.01226 13.6896 8.00409C15.1362 8 16.5869 8 18.0377 8ZM13.4076 9.95337C15.0504 9.95337 16.6768 9.95337 18.3115 9.95337C18.3115 9.77764 18.3196 9.60601 18.3115 9.43846C18.2992 9.18918 18.0949 8.98486 17.8415 8.98486C16.5256 8.98077 15.2057 8.98077 13.8898 8.98486C13.6283 8.98486 13.424 9.19327 13.4158 9.45072C13.4035 9.61418 13.4076 9.77356 13.4076 9.95337Z" fill="#FF9626" stroke="#FF9626" stroke-width="0.2"/>
<path d="M18.0664 17.5462C18.1072 16.6553 18.144 15.7604 18.1849 14.8695C18.1972 14.5835 18.4137 14.371 18.6835 14.3791C18.9613 14.3832 19.1738 14.6121 19.1616 14.9063C19.133 15.6541 19.1003 16.4061 19.0676 17.1539C19.0226 18.1796 18.9777 19.2053 18.9327 20.227C18.9164 20.5498 18.7039 20.7623 18.4178 20.75C18.1318 20.7337 17.9397 20.5008 17.956 20.1779C17.9928 19.2993 18.0296 18.4207 18.0664 17.5462Z" fill="#FF9626" stroke="#FF9626" stroke-width="0.2"/>
<path d="M15.369 17.5462C15.369 16.6635 15.369 15.7808 15.369 14.894C15.369 14.5181 15.7041 14.277 16.0351 14.4077C16.2354 14.4854 16.3416 14.6407 16.3498 14.8572C16.3539 15.0248 16.3498 15.1923 16.3498 15.364C16.3498 16.9618 16.3498 18.5596 16.3498 20.1616C16.3498 20.227 16.3539 20.2964 16.3375 20.3577C16.2885 20.6029 16.0555 20.7746 15.8104 20.7459C15.557 20.7214 15.3731 20.513 15.369 20.2433C15.3649 19.4423 15.369 18.6414 15.369 17.8363C15.369 17.7423 15.369 17.6443 15.369 17.5462Z" fill="#FF9626" stroke="#FF9626" stroke-width="0.2"/>
<path d="M12.6726 17.5666C12.6358 16.7207 12.599 15.8748 12.5622 15.0248C12.5582 14.939 12.5541 14.8491 12.5704 14.7673C12.6195 14.5221 12.836 14.3587 13.0812 14.375C13.3223 14.3914 13.5185 14.5875 13.5308 14.8368C13.5635 15.5029 13.5921 16.1731 13.6207 16.8392C13.6697 17.9344 13.7187 19.0337 13.7596 20.1289C13.7637 20.2351 13.7555 20.3455 13.7228 20.4435C13.6493 20.6519 13.4204 20.7745 13.2079 20.7459C12.9709 20.7092 12.7993 20.5212 12.787 20.2719C12.7502 19.3688 12.7094 18.4697 12.6726 17.5666Z" fill="#FF9626" stroke="#FF9626" stroke-width="0.2"/>
</g>
<defs>
<clipPath id="clip0_1418_14644">
<path d="M0 4C0 1.79086 1.79086 0 4 0H28C30.2091 0 32 1.79086 32 4V28C32 30.2091 30.2091 32 28 32H4C1.79086 32 0 30.2091 0 28V4Z" fill="white"/>
</clipPath>
</defs>
</svg>
