<svg width="129" height="128" viewBox="0 0 129 128" fill="none" xmlns="http://www.w3.org/2000/svg">
<g clip-path="url(#clip0_476_23368)">
<path d="M128.5 0H0.5V128H128.5V0Z" fill="white"/>
<path d="M83.8663 59.7325H73.5653C72.3144 59.7325 71.3579 58.776 71.3579 57.5252C71.3579 56.2743 72.3144 55.3178 73.5653 55.3178H81.6589V47.2242C81.6589 45.9733 82.6154 45.0168 83.8663 45.0168C85.1171 45.0168 86.0736 45.9733 86.0736 47.2242V57.5252C86.0736 58.7024 85.1171 59.7325 83.8663 59.7325Z" fill="#5EAB2B"/>
<path d="M64 86C51.8595 86 42 76.1405 42 64C42 51.8595 51.8595 42 64 42C72.8294 42 80.8495 47.2977 84.3077 55.4649C84.7492 56.5686 84.2341 57.893 83.1304 58.3344C82.0268 58.7759 80.7023 58.2609 80.2609 57.1572C77.4649 50.6087 71.0635 46.4147 64 46.4147C54.2876 46.4147 46.4147 54.2876 46.4147 64C46.4147 73.7124 54.2876 81.5853 64 81.5853C72.903 81.5853 80.408 74.9632 81.4381 66.2074C81.5853 65.0301 82.689 64.1472 83.8662 64.2943C85.0435 64.4415 85.9264 65.5451 85.7793 66.7224C84.4549 77.6856 75.1104 86 64 86Z" fill="#5EAB2B"/>
<path d="M19.092 109V108.148H20.388V109H19.092ZM15.852 111.976C15.22 111.976 14.648 111.86 14.136 111.628C13.624 111.396 13.22 111.072 12.924 110.656C12.628 110.24 12.48 109.764 12.48 109.228C12.48 109.06 12.492 108.84 12.516 108.568C12.548 108.288 12.584 107.98 12.624 107.644C12.672 107.3 12.724 106.956 12.78 106.612C12.836 106.26 12.888 105.928 12.936 105.616L13.86 105.76C13.772 106.312 13.692 106.824 13.62 107.296C13.556 107.76 13.504 108.16 13.464 108.496C13.432 108.824 13.416 109.068 13.416 109.228C13.416 109.596 13.516 109.92 13.716 110.2C13.924 110.488 14.212 110.712 14.58 110.872C14.948 111.04 15.372 111.124 15.852 111.124C16.332 111.124 16.744 111.048 17.088 110.896C17.432 110.744 17.696 110.532 17.88 110.26C18.064 109.988 18.156 109.668 18.156 109.3V100.396H19.092V109.3C19.092 109.86 18.944 110.34 18.648 110.74C18.36 111.14 17.972 111.444 17.484 111.652C16.996 111.868 16.452 111.976 15.852 111.976ZM20.388 109V108.148C20.436 108.148 20.476 108.16 20.508 108.184C20.54 108.2 20.564 108.228 20.58 108.268C20.596 108.3 20.608 108.344 20.616 108.4C20.624 108.448 20.628 108.504 20.628 108.568C20.628 108.632 20.624 108.692 20.616 108.748C20.608 108.804 20.596 108.852 20.58 108.892C20.564 108.924 20.54 108.952 20.508 108.976C20.476 108.992 20.436 109 20.388 109ZM22.6226 109V108.148H23.9186V109H22.6226ZM23.9186 109V108.148C23.9666 108.148 24.0066 108.16 24.0386 108.184C24.0706 108.2 24.0946 108.228 24.1106 108.268C24.1266 108.3 24.1386 108.344 24.1466 108.4C24.1546 108.448 24.1586 108.504 24.1586 108.568C24.1586 108.632 24.1546 108.692 24.1466 108.748C24.1386 108.804 24.1266 108.852 24.1106 108.892C24.0946 108.924 24.0706 108.952 24.0386 108.976C24.0066 108.992 23.9666 109 23.9186 109ZM20.3906 109C20.3426 109 20.3026 108.992 20.2706 108.976C20.2386 108.952 20.2146 108.924 20.1986 108.892C20.1826 108.852 20.1706 108.804 20.1626 108.748C20.1546 108.692 20.1506 108.632 20.1506 108.568C20.1506 108.48 20.1586 108.408 20.1746 108.352C20.1826 108.288 20.2066 108.24 20.2466 108.208C20.2786 108.168 20.3266 108.148 20.3906 108.148V109ZM20.3906 109V108.148H22.1186L21.6866 108.496V103H22.6226V109H20.3906ZM20.8706 111.16V110.08H21.8066V111.16H20.8706ZM22.5146 111.16V110.08H23.4506V111.16H22.5146ZM30.722 109V108.148H32.018V109H30.722ZM23.918 109C23.87 109 23.83 108.992 23.798 108.976C23.766 108.952 23.742 108.924 23.726 108.892C23.71 108.852 23.698 108.804 23.69 108.748C23.682 108.692 23.678 108.632 23.678 108.568C23.678 108.48 23.686 108.408 23.702 108.352C23.71 108.288 23.734 108.24 23.774 108.208C23.806 108.168 23.854 108.148 23.918 108.148V109ZM23.918 109V108.148H30.482L29.786 108.64V106.06C29.786 105.5 29.722 105.06 29.594 104.74C29.466 104.42 29.246 104.192 28.934 104.056C28.63 103.92 28.214 103.852 27.686 103.852C27.35 103.852 27.014 103.876 26.678 103.924C26.35 103.972 26.094 104.036 25.91 104.116L26.474 103.54C26.426 103.732 26.378 103.976 26.33 104.272C26.282 104.56 26.242 104.872 26.21 105.208C26.178 105.544 26.162 105.88 26.162 106.216C26.162 106.56 26.178 106.896 26.21 107.224C26.242 107.552 26.278 107.836 26.318 108.076C26.358 108.316 26.39 108.484 26.414 108.58L25.526 108.832C25.494 108.728 25.454 108.548 25.406 108.292C25.366 108.036 25.326 107.728 25.286 107.368C25.254 107.008 25.238 106.624 25.238 106.216C25.238 105.824 25.254 105.444 25.286 105.076C25.326 104.7 25.37 104.36 25.418 104.056C25.474 103.752 25.526 103.508 25.574 103.324C25.75 103.252 26.03 103.18 26.414 103.108C26.798 103.036 27.222 103 27.686 103C28.358 103 28.918 103.1 29.366 103.3C29.822 103.5 30.162 103.824 30.386 104.272C30.61 104.712 30.722 105.308 30.722 106.06V109H23.918ZM32.018 109V108.148C32.066 108.148 32.106 108.16 32.138 108.184C32.17 108.2 32.194 108.228 32.21 108.268C32.226 108.3 32.238 108.344 32.246 108.4C32.254 108.448 32.258 108.504 32.258 108.568C32.258 108.632 32.254 108.692 32.246 108.748C32.238 108.804 32.226 108.852 32.21 108.892C32.194 108.924 32.17 108.952 32.138 108.976C32.106 108.992 32.066 109 32.018 109ZM37.9556 109V108.148H39.2516V109H37.9556ZM32.0156 109C31.9676 109 31.9276 108.992 31.8956 108.976C31.8636 108.952 31.8396 108.924 31.8236 108.892C31.8076 108.852 31.7956 108.804 31.7876 108.748C31.7796 108.692 31.7756 108.632 31.7756 108.568C31.7756 108.48 31.7836 108.408 31.7996 108.352C31.8076 108.288 31.8316 108.24 31.8716 108.208C31.9036 108.168 31.9516 108.148 32.0156 108.148V109ZM32.0156 109V108.148H37.3076L37.0196 108.4V105.424C37.0196 104.904 36.8556 104.516 36.5276 104.26C36.2076 103.996 35.7156 103.864 35.0516 103.864C34.8436 103.864 34.5436 103.884 34.1516 103.924C33.7596 103.956 33.3476 104.004 32.9156 104.068L32.8076 103.3C33.1356 103.22 33.4956 103.152 33.8876 103.096C34.2796 103.032 34.6596 103 35.0276 103C35.6356 103 36.1556 103.096 36.5876 103.288C37.0276 103.472 37.3636 103.744 37.5956 104.104C37.8356 104.464 37.9556 104.904 37.9556 105.424V109H32.0156ZM39.2516 109V108.148C39.2996 108.148 39.3396 108.16 39.3716 108.184C39.4036 108.2 39.4276 108.228 39.4436 108.268C39.4596 108.3 39.4716 108.344 39.4796 108.4C39.4876 108.448 39.4916 108.504 39.4916 108.568C39.4916 108.632 39.4876 108.692 39.4796 108.748C39.4716 108.804 39.4596 108.852 39.4436 108.892C39.4276 108.924 39.4036 108.952 39.3716 108.976C39.3396 108.992 39.2996 109 39.2516 109ZM41.4781 109V108.148H42.7741V109H41.4781ZM42.7741 109V108.148C42.8221 108.148 42.8621 108.16 42.8941 108.184C42.9261 108.2 42.9501 108.228 42.9661 108.268C42.9821 108.3 42.9941 108.344 43.0021 108.4C43.0101 108.448 43.0141 108.504 43.0141 108.568C43.0141 108.632 43.0101 108.692 43.0021 108.748C42.9941 108.804 42.9821 108.852 42.9661 108.892C42.9501 108.924 42.9261 108.952 42.8941 108.976C42.8621 108.992 42.8221 109 42.7741 109ZM39.2461 109C39.1981 109 39.1581 108.992 39.1261 108.976C39.0941 108.952 39.0701 108.924 39.0541 108.892C39.0381 108.852 39.0261 108.804 39.0181 108.748C39.0101 108.692 39.0061 108.632 39.0061 108.568C39.0061 108.48 39.0141 108.408 39.0301 108.352C39.0381 108.288 39.0621 108.24 39.1021 108.208C39.1341 108.168 39.1821 108.148 39.2461 108.148V109ZM39.2461 109V108.148H40.9741L40.5421 108.496V103H41.4781V109H39.2461ZM39.7261 101.92V100.84H40.6621V101.92H39.7261ZM41.3701 101.92V100.84H42.3061V101.92H41.3701ZM44.2254 109V100.396H45.1614V109H44.2254ZM42.7734 109V108.148H44.2254V109H42.7734ZM42.7734 109C42.7254 109 42.6854 108.992 42.6534 108.976C42.6214 108.952 42.5974 108.924 42.5814 108.892C42.5654 108.852 42.5534 108.804 42.5454 108.748C42.5374 108.692 42.5334 108.632 42.5334 108.568C42.5334 108.48 42.5414 108.408 42.5574 108.352C42.5654 108.288 42.5894 108.24 42.6294 108.208C42.6614 108.168 42.7094 108.148 42.7734 108.148V109ZM47.2301 109V100.396H48.1541V109H47.2301ZM52.4175 109V106.12C52.4175 105.352 52.5295 104.74 52.7535 104.284C52.9775 103.828 53.3135 103.5 53.7615 103.3C54.2175 103.1 54.7775 103 55.4415 103C56.1135 103 56.6735 103.1 57.1215 103.3C57.5695 103.5 57.9055 103.828 58.1295 104.284C58.3535 104.74 58.4655 105.352 58.4655 106.12V109H52.4175ZM53.3535 108.556L52.8615 108.148H58.0215L57.5415 108.556V106.12C57.5415 105.544 57.4775 105.092 57.3495 104.764C57.2215 104.428 57.0015 104.192 56.6895 104.056C56.3855 103.92 55.9695 103.852 55.4415 103.852C54.9135 103.852 54.4975 103.92 54.1935 104.056C53.8895 104.192 53.6735 104.428 53.5455 104.764C53.4175 105.092 53.3535 105.544 53.3535 106.12V108.556ZM54.1575 101.92V100.84H55.0935V101.92H54.1575ZM55.8015 101.92V100.84H56.7375V101.92H55.8015ZM59.4253 109V108.148H63.9013L63.1333 108.832V106.216C63.1333 105.624 63.0653 105.156 62.9293 104.812C62.7933 104.468 62.5693 104.224 62.2573 104.08C61.9533 103.928 61.5413 103.852 61.0213 103.852H60.0493V103H61.0213C61.6613 103 62.2093 103.1 62.6653 103.3C63.1213 103.5 63.4693 103.836 63.7093 104.308C63.9493 104.772 64.0693 105.408 64.0693 106.216V109H59.4253ZM66.8221 109V108.148H68.2861V109H66.8221ZM65.8981 109V100.396H66.8221V109H65.8981ZM68.2861 109V108.148C68.3341 108.148 68.3741 108.16 68.4061 108.184C68.4381 108.2 68.4621 108.228 68.4781 108.268C68.4941 108.3 68.5061 108.344 68.5141 108.4C68.5221 108.448 68.5261 108.504 68.5261 108.568C68.5261 108.632 68.5221 108.692 68.5141 108.748C68.5061 108.804 68.4941 108.852 68.4781 108.892C68.4621 108.924 68.4381 108.952 68.4061 108.976C68.3741 108.992 68.3341 109 68.2861 109ZM70.8892 108.964C70.4572 108.596 70.1252 108.176 69.8932 107.704C69.6692 107.224 69.5572 106.716 69.5572 106.18C69.5572 105.724 69.6372 105.304 69.7972 104.92C69.9572 104.528 70.1772 104.188 70.4572 103.9C70.7372 103.612 71.0692 103.392 71.4532 103.24C71.8372 103.08 72.2492 103 72.6892 103C72.9212 103 73.1692 103.024 73.4332 103.072C73.7052 103.12 73.9652 103.188 74.2132 103.276L73.8892 104.08C73.6892 104.008 73.4852 103.952 73.2772 103.912C73.0772 103.872 72.8852 103.852 72.7012 103.852C72.2772 103.852 71.8972 103.952 71.5612 104.152C71.2252 104.352 70.9612 104.628 70.7692 104.98C70.5852 105.324 70.4932 105.724 70.4932 106.18C70.4932 106.596 70.5772 106.988 70.7452 107.356C70.9212 107.716 71.1732 108.036 71.5012 108.316L70.8892 108.964ZM68.2852 109V108.148H74.3572V109H68.2852ZM68.2852 109C68.2372 109 68.1972 108.992 68.1652 108.976C68.1332 108.952 68.1092 108.924 68.0932 108.892C68.0772 108.852 68.0652 108.804 68.0572 108.748C68.0492 108.692 68.0452 108.632 68.0452 108.568C68.0452 108.48 68.0532 108.408 68.0692 108.352C68.0772 108.288 68.1012 108.24 68.1412 108.208C68.1732 108.168 68.2212 108.148 68.2852 108.148V109ZM75.8667 109V108.148H81.7347L81.2067 108.688V100.396H82.1427V109H75.8667ZM77.7867 108.148V102.1H78.7107V108.148H77.7867ZM77.6907 112.228C77.5627 112.068 77.4627 111.912 77.3907 111.76C77.3267 111.608 77.2947 111.448 77.2947 111.28C77.2947 111.048 77.3507 110.84 77.4627 110.656C77.5827 110.472 77.7387 110.328 77.9307 110.224C78.1227 110.12 78.3307 110.068 78.5547 110.068C78.6827 110.068 78.8107 110.084 78.9387 110.116C79.0667 110.156 79.1787 110.208 79.2747 110.272L78.9627 110.812C78.8987 110.772 78.8347 110.744 78.7707 110.728C78.7147 110.72 78.6547 110.716 78.5907 110.716C78.4067 110.716 78.2587 110.768 78.1467 110.872C78.0427 110.976 77.9907 111.112 77.9907 111.28C77.9907 111.384 78.0107 111.484 78.0507 111.58C78.0987 111.676 78.1667 111.78 78.2547 111.892L77.6907 112.228ZM77.0667 112.228V111.592H79.4307V112.228H77.0667ZM94.0021 109V108.148H95.3101V109H94.0021ZM85.9861 109V108.148H93.9421L93.0781 108.928V106.108C93.0781 105.604 93.0061 105.188 92.8621 104.86C92.7261 104.524 92.5181 104.272 92.2381 104.104C91.9661 103.936 91.6221 103.852 91.2061 103.852C90.8541 103.852 90.5261 103.912 90.2221 104.032C89.9261 104.144 89.6501 104.296 89.3941 104.488C89.1381 104.672 88.8981 104.88 88.6741 105.112C88.4581 105.336 88.2581 105.564 88.0741 105.796C87.8901 106.028 87.7221 106.24 87.5701 106.432L87.2581 105.58C87.5061 105.268 87.7581 104.96 88.0141 104.656C88.2701 104.352 88.5501 104.076 88.8541 103.828C89.1581 103.58 89.5021 103.38 89.8861 103.228C90.2701 103.076 90.7101 103 91.2061 103C91.7741 103 92.2381 103.096 92.5981 103.288C92.9661 103.48 93.2501 103.736 93.4501 104.056C93.6581 104.368 93.8021 104.704 93.8821 105.064C93.9621 105.424 94.0021 105.772 94.0021 106.108V109H85.9861ZM86.7781 108.148V100.396H87.7141V108.148H86.7781ZM95.3101 109V108.148C95.3581 108.148 95.3981 108.16 95.4301 108.184C95.4621 108.2 95.4861 108.228 95.5021 108.268C95.5181 108.3 95.5301 108.344 95.5381 108.4C95.5461 108.448 95.5501 108.504 95.5501 108.568C95.5501 108.632 95.5461 108.692 95.5381 108.748C95.5301 108.804 95.5181 108.852 95.5021 108.892C95.4861 108.924 95.4621 108.952 95.4301 108.976C95.3981 108.992 95.3581 109 95.3101 109ZM95.3086 109V108.148H96.9166C97.3966 108.148 97.8566 108.072 98.2966 107.92C98.7366 107.76 99.1406 107.552 99.5086 107.296C99.8766 107.032 100.197 106.744 100.469 106.432C100.741 106.112 100.953 105.788 101.105 105.46C101.257 105.132 101.333 104.824 101.333 104.536V103.816L101.837 104.572C101.373 104.332 100.917 104.152 100.469 104.032C100.021 103.912 99.5846 103.852 99.1606 103.852C98.7366 103.852 98.3006 103.912 97.8526 104.032C97.4046 104.152 96.9526 104.332 96.4966 104.572L97.0006 103.816V104.536C97.0006 104.824 97.0766 105.132 97.2286 105.46C97.3806 105.788 97.5886 106.112 97.8526 106.432C98.1246 106.744 98.4446 107.032 98.8126 107.296C99.1806 107.552 99.5846 107.76 100.025 107.92C100.465 108.072 100.925 108.148 101.405 108.148H102.941V109H101.405C100.781 109 100.197 108.9 99.6526 108.7C99.1086 108.5 98.6166 108.236 98.1766 107.908C97.7366 107.572 97.3566 107.208 97.0366 106.816C96.7246 106.416 96.4846 106.02 96.3166 105.628C96.1486 105.228 96.0646 104.864 96.0646 104.536V103.816C96.4086 103.632 96.7566 103.48 97.1086 103.36C97.4606 103.24 97.8086 103.152 98.1526 103.096C98.5046 103.032 98.8406 103 99.1606 103C99.4886 103 99.8246 103.032 100.169 103.096C100.513 103.152 100.861 103.24 101.213 103.36C101.565 103.48 101.913 103.632 102.257 103.816V104.536C102.257 104.864 102.173 105.228 102.005 105.628C101.837 106.02 101.593 106.416 101.273 106.816C100.961 107.208 100.585 107.572 100.145 107.908C99.7046 108.236 99.2126 108.5 98.6686 108.7C98.1246 108.9 97.5406 109 96.9166 109H95.3086ZM95.3086 109C95.2606 109 95.2206 108.992 95.1886 108.976C95.1566 108.952 95.1326 108.924 95.1166 108.892C95.1006 108.852 95.0886 108.804 95.0806 108.748C95.0726 108.692 95.0686 108.632 95.0686 108.568C95.0686 108.48 95.0766 108.408 95.0926 108.352C95.1006 108.288 95.1246 108.24 95.1646 108.208C95.1966 108.168 95.2446 108.148 95.3086 108.148V109ZM102.941 109V108.148C102.989 108.148 103.029 108.16 103.061 108.184C103.093 108.2 103.117 108.228 103.133 108.268C103.149 108.3 103.161 108.344 103.169 108.4C103.177 108.448 103.181 108.504 103.181 108.568C103.181 108.632 103.177 108.692 103.169 108.748C103.161 108.804 103.149 108.852 103.133 108.892C103.117 108.924 103.093 108.952 103.061 108.976C103.029 108.992 102.989 109 102.941 109ZM98.6806 101.92V100.84H99.6166V101.92H98.6806ZM102.938 109V108.148H111.806L110.942 108.928V106.108C110.942 105.604 110.87 105.188 110.726 104.86C110.59 104.524 110.382 104.272 110.102 104.104C109.83 103.936 109.486 103.852 109.07 103.852C108.718 103.852 108.39 103.912 108.086 104.032C107.79 104.144 107.514 104.296 107.258 104.488C107.002 104.672 106.762 104.88 106.538 105.112C106.322 105.336 106.122 105.564 105.938 105.796C105.754 106.028 105.586 106.24 105.434 106.432L105.134 105.58C105.334 105.332 105.534 105.084 105.734 104.836C105.942 104.588 106.158 104.356 106.382 104.14C106.606 103.916 106.85 103.72 107.114 103.552C107.386 103.384 107.682 103.252 108.002 103.156C108.322 103.052 108.682 103 109.082 103C109.65 103 110.114 103.096 110.474 103.288C110.842 103.48 111.126 103.736 111.326 104.056C111.534 104.368 111.678 104.704 111.758 105.064C111.838 105.424 111.878 105.772 111.878 106.108V109H102.938ZM104.642 108.148V103H105.578V108.148H104.642ZM102.938 109C102.889 109 102.849 108.992 102.817 108.976C102.785 108.952 102.761 108.924 102.745 108.892C102.729 108.852 102.717 108.804 102.709 108.748C102.701 108.692 102.697 108.632 102.697 108.568C102.697 108.48 102.705 108.408 102.721 108.352C102.729 108.288 102.753 108.24 102.793 108.208C102.825 108.168 102.873 108.148 102.938 108.148V109ZM107.918 101.932V100.852H108.854V101.932H107.918ZM113.933 109V100.396H114.857V109H113.933Z" fill="#504949"/>
</g>
<defs>
<clipPath id="clip0_476_23368">
<rect x="0.5" width="128" height="128" rx="12" fill="white"/>
</clipPath>
</defs>
</svg>
