<svg width="34" height="28" viewBox="0 0 34 28" fill="none" xmlns="http://www.w3.org/2000/svg">
<path d="M10.0026 14.0829C10.0026 11.724 10.0051 9.36506 10.0012 7.00612C10.0002 6.2482 10.3008 5.6621 10.9508 5.26426C11.2867 5.05857 11.6598 5.00485 12.0475 5.00485C14.8962 5.00679 17.7449 5.00921 20.5937 5.00001C20.8448 4.99904 21.0157 5.0697 21.1919 5.24829C22.1584 6.23175 23.1399 7.20068 24.1113 8.1793C24.1669 8.23544 24.2085 8.33466 24.2085 8.41403C24.2129 12.7026 24.2148 16.9907 24.21 21.2793C24.209 22.3508 23.3824 23.177 22.3103 23.1784C18.8445 23.1833 15.3787 23.1828 11.9129 23.1789C10.8636 23.1775 10.0607 22.406 10.0099 21.3587C9.99345 21.0145 10.0026 20.6695 10.0026 20.3244C10.0022 18.2442 10.0026 16.1636 10.0026 14.0829ZM20.6556 5.42301C20.5714 5.42301 20.5119 5.42301 20.4519 5.42301C17.6273 5.42301 14.8028 5.42253 11.9783 5.4235C11.0364 5.4235 10.4164 6.0488 10.4164 6.99741C10.416 11.7274 10.416 16.4569 10.4164 21.1868C10.4164 22.1543 11.0379 22.7753 12.0034 22.7753C15.4024 22.7758 18.802 22.7753 22.201 22.7753C23.1781 22.7753 23.8025 22.1553 23.8025 21.1791C23.8034 17.0483 23.803 12.917 23.803 8.78622C23.803 8.72136 23.803 8.65651 23.803 8.56794C23.7168 8.56794 23.652 8.56794 23.5876 8.56794C23.0131 8.56794 22.4376 8.54664 21.8641 8.57326C21.0767 8.60956 20.6183 8.04814 20.6498 7.36814C20.6788 6.72928 20.6556 6.08801 20.6556 5.42301ZM23.4269 8.15268C22.637 7.36427 21.8491 6.5778 21.0631 5.79326C21.0631 6.31887 21.0626 6.86674 21.0636 7.41509C21.0636 7.48139 21.0641 7.54867 21.0743 7.61401C21.1236 7.9315 21.3622 8.14445 21.6841 8.15123C21.9624 8.15704 22.2402 8.15316 22.5185 8.15316C22.8301 8.15268 23.1423 8.15268 23.4269 8.15268Z" fill="#39629C" stroke="#39629C" stroke-width="0.5"/>
<path d="M14.5114 15.0643C13.0479 15.0663 11.8384 13.8655 11.8427 12.4005C11.8466 10.9781 12.9249 9.81845 14.3203 9.73617C16.1139 9.63018 17.1927 11.0879 17.1787 12.3995C17.1632 13.8713 15.9827 15.0629 14.5114 15.0643ZM14.5105 10.1369C14.4959 10.1684 14.4872 10.1785 14.4872 10.1892C14.4858 10.8537 14.4819 11.5187 14.4887 12.1832C14.4892 12.2364 14.5497 12.3081 14.6015 12.3386C15.0438 12.5984 15.4905 12.8506 15.9368 13.1047C16.1236 13.2112 16.3114 13.3162 16.5151 13.4309C16.8844 12.6425 16.8631 11.8899 16.4019 11.1736C15.961 10.4907 15.3148 10.1587 14.5105 10.1369ZM14.072 10.1897C13.1529 10.3557 12.4293 11.1228 12.2788 12.0612C12.1593 12.8085 12.5377 13.7871 13.0634 14.0799C13.2386 13.7769 13.3886 13.4566 13.5938 13.1754C13.9931 12.6265 14.1412 12.0307 14.0788 11.359C14.0429 10.9771 14.072 10.5889 14.072 10.1897ZM16.278 13.7731C15.629 13.4033 14.994 13.0413 14.3503 12.6749C14.0236 13.2412 13.708 13.7876 13.3929 14.333C14.268 14.9148 15.6401 14.6525 16.278 13.7731Z" fill="#39629C" stroke="#39629C" stroke-width="0.5"/>
<path d="M11.8403 18.9034C11.8403 18.1416 11.8403 17.3798 11.8403 16.618C11.8403 16.3262 11.8887 16.2763 12.1714 16.2763C13.5314 16.2763 14.8918 16.2759 16.2518 16.2763C16.5209 16.2763 16.5727 16.3262 16.5732 16.5904C16.5742 18.144 16.5742 19.6976 16.5732 21.2517C16.5732 21.5024 16.5132 21.5619 16.261 21.5624C14.8947 21.5634 13.5285 21.5634 12.1622 21.5624C11.8979 21.5624 11.8408 21.5043 11.8408 21.243C11.8398 20.4628 11.8403 19.6831 11.8403 18.9034ZM12.2735 16.6955C12.2735 18.1808 12.2735 19.6574 12.2735 21.1351C13.5725 21.1351 14.8575 21.1351 16.1473 21.1351C16.1473 19.6512 16.1473 18.1784 16.1473 16.6955C14.8526 16.6955 13.5677 16.6955 12.2735 16.6955Z" fill="#39629C" stroke="#39629C" stroke-width="0.5"/>
<path d="M15.5733 8.56798C14.4427 8.56798 13.3121 8.56846 12.1811 8.56798C11.8907 8.56798 11.8408 8.51861 11.8403 8.23306C11.8398 7.84587 11.8394 7.45917 11.8403 7.07198C11.8408 6.81644 11.8965 6.75739 12.1448 6.75739C14.4364 6.75691 16.7281 6.75643 19.0193 6.75739C19.2608 6.75739 19.3121 6.81305 19.3126 7.06085C19.3135 7.46014 19.3135 7.85894 19.3126 8.25823C19.3121 8.507 19.2525 8.56749 19.0014 8.56749C17.8591 8.56846 16.716 8.56798 15.5733 8.56798ZM12.2682 8.14207C14.4887 8.14207 16.6869 8.14207 18.8925 8.14207C18.8925 7.8149 18.8925 7.49837 18.8925 7.18088C16.6768 7.18088 14.4732 7.18088 12.2682 7.18088C12.2682 7.50612 12.2682 7.81877 12.2682 8.14207Z" fill="#39629C" stroke="#39629C" stroke-width="0.5"/>
<path d="M20.5477 19.0724C20.5477 19.7974 20.5482 20.5224 20.5477 21.2474C20.5477 21.5029 20.493 21.5601 20.2428 21.5625C19.9829 21.5644 19.723 21.5659 19.4636 21.5615C19.253 21.5581 19.1949 21.4986 19.1949 21.2871C19.194 19.8129 19.194 18.3387 19.1949 16.8649C19.1949 16.6437 19.2496 16.5924 19.4795 16.5905C19.7394 16.5881 19.9993 16.5886 20.2587 16.5905C20.4935 16.5924 20.5477 16.6462 20.5477 16.8794C20.5482 17.6107 20.5477 18.3416 20.5477 19.0724ZM19.6126 17.0087C19.6126 18.3967 19.6126 19.7654 19.6126 21.1322C19.7902 21.1322 19.9553 21.1322 20.1218 21.1322C20.1218 19.7504 20.1218 18.3822 20.1218 17.0087C19.9466 17.0087 19.7854 17.0087 19.6126 17.0087Z" fill="#39629C" stroke="#39629C" stroke-width="0.2"/>
<path d="M22.3728 19.6396C22.3728 20.1777 22.3738 20.7164 22.3723 21.2546C22.3718 21.5073 22.3171 21.5605 22.0596 21.5619C21.7997 21.5639 21.5394 21.5658 21.2795 21.561C21.0834 21.5571 21.0181 21.4898 21.0176 21.2958C21.0162 20.1947 21.0162 19.0936 21.0176 17.9926C21.0176 17.7941 21.0815 17.7288 21.2756 17.7269C21.5539 17.724 21.8322 17.7244 22.1105 17.7269C22.3108 17.7288 22.3708 17.7864 22.3718 17.9877C22.3742 18.5385 22.3723 19.0893 22.3728 19.6396ZM21.4353 18.145C21.4353 19.1565 21.4353 20.1453 21.4353 21.1336C21.6144 21.1336 21.7804 21.1336 21.9435 21.1336C21.9435 20.1284 21.9435 19.1357 21.9435 18.145C21.7659 18.145 21.6047 18.145 21.4353 18.145Z" fill="#39629C" stroke="#39629C" stroke-width="0.2"/>
<path d="M18.7264 20.1454C18.7264 20.5195 18.7279 20.8941 18.726 21.2682C18.725 21.4914 18.6577 21.5596 18.4336 21.562C18.1679 21.5649 17.9022 21.5659 17.6365 21.5615C17.4299 21.5581 17.3645 21.4938 17.364 21.2866C17.3616 20.5137 17.3616 19.7413 17.364 18.9684C17.3645 18.7525 17.4323 18.6867 17.6467 18.6847C17.9182 18.6823 18.1902 18.6814 18.4617 18.6852C18.6524 18.6881 18.7245 18.7598 18.726 18.95C18.7284 19.3483 18.7264 19.7466 18.7264 20.1454ZM18.2923 21.1376C18.2923 20.4522 18.2923 19.7858 18.2923 19.116C18.1166 19.116 17.9526 19.116 17.7885 19.116C17.7885 19.7969 17.7885 20.4634 17.7885 21.1376C17.9598 21.1376 18.12 21.1376 18.2923 21.1376Z" fill="#39629C" stroke="#39629C" stroke-width="0.2"/>
<path d="M20.1828 13.0211C20.8047 13.0211 21.4266 13.0206 22.0485 13.0216C22.1085 13.0216 22.1831 13.0109 22.2242 13.0414C22.2847 13.0855 22.3568 13.1614 22.3583 13.2253C22.3597 13.2897 22.292 13.372 22.2324 13.4151C22.186 13.4484 22.1051 13.4397 22.0398 13.4397C20.7902 13.4407 19.54 13.4407 18.2904 13.4397C18.225 13.4397 18.1437 13.4484 18.0978 13.4151C18.0382 13.372 17.971 13.2897 17.9724 13.2258C17.9739 13.1619 18.0455 13.0859 18.106 13.0414C18.1471 13.0109 18.2221 13.0216 18.2817 13.0216C18.9152 13.0211 19.5492 13.0211 20.1828 13.0211Z" fill="#39629C" stroke="#39629C" stroke-width="0.5"/>
<path d="M20.1721 14.6481C20.8013 14.6481 21.4305 14.6477 22.0596 14.6491C22.1192 14.6491 22.1956 14.6394 22.2348 14.6709C22.2934 14.7178 22.3607 14.7987 22.3587 14.8635C22.3568 14.9274 22.2842 15.0053 22.2223 15.0455C22.1734 15.077 22.0935 15.0649 22.0272 15.0649C20.7873 15.0658 19.5468 15.0653 18.3068 15.0653C18.2768 15.0653 18.2463 15.0653 18.2163 15.0649C18.0731 15.0624 17.9588 15.0184 17.9637 14.8504C17.968 14.6961 18.0755 14.6501 18.212 14.6486C18.2541 14.6481 18.2967 14.6481 18.3388 14.6481C18.95 14.6481 19.5608 14.6481 20.1721 14.6481Z" fill="#39629C" stroke="#39629C" stroke-width="0.5"/>
<path d="M20.1842 9.77893C20.8013 9.77893 21.4179 9.77893 22.035 9.77893C22.0892 9.77893 22.1598 9.76054 22.1947 9.78716C22.2634 9.83943 22.3568 9.91735 22.3568 9.98414C22.3568 10.0504 22.261 10.1255 22.1932 10.1797C22.1632 10.2039 22.0998 10.1874 22.0514 10.1874C20.7935 10.1874 19.5352 10.1874 18.2773 10.1874C18.2289 10.1874 18.165 10.2039 18.1355 10.1797C18.0687 10.1255 17.9734 10.0495 17.9743 9.98366C17.9753 9.91638 18.0677 9.83653 18.1374 9.78813C18.1791 9.75957 18.255 9.77942 18.3151 9.77942C18.938 9.77893 19.5608 9.77893 20.1842 9.77893Z" fill="#39629C" stroke="#39629C" stroke-width="0.5"/>
<path d="M20.1639 11.8144C19.5347 11.8144 18.906 11.8144 18.2768 11.8144C18.2284 11.8144 18.1641 11.8309 18.135 11.8067C18.0682 11.751 17.9748 11.675 17.9743 11.6068C17.9739 11.5414 18.0687 11.464 18.1374 11.4132C18.1733 11.3866 18.2429 11.4035 18.2972 11.4035C19.5429 11.403 20.7892 11.403 22.035 11.4035C22.0834 11.4035 22.1318 11.4025 22.1802 11.4074C22.3012 11.419 22.3689 11.4872 22.3679 11.6087C22.367 11.7302 22.2949 11.796 22.1777 11.812C22.1303 11.8183 22.0809 11.8144 22.0325 11.8144C21.4097 11.8144 20.7868 11.8144 20.1639 11.8144Z" fill="#39629C" stroke="#39629C" stroke-width="0.5"/>
</svg>
