<svg width="24" height="24" viewBox="0 0 24 24" fill="none" xmlns="http://www.w3.org/2000/svg">
<g clip-path="url(#clip0_2686_8497)">
<path d="M22.0812 23.9999C15.3625 23.9999 8.64375 23.9999 1.925 23.9999C1.875 23.9812 1.825 23.9624 1.775 23.9499C0.95625 23.7437 0.4 23.2437 0.1125 22.4499C0.06875 22.3249 0.0375 22.1999 0 22.0749C0 15.3562 0 8.6374 0 1.91865C0.01875 1.86865 0.0375 1.81865 0.05 1.76865C0.25625 0.949902 0.75625 0.393652 1.55 0.106152C1.675 0.0624024 1.8 0.0311523 1.925 -0.00634766C6.84375 -9.76562e-05 11.7688 -9.76562e-05 16.6875 -9.76562e-05C16.7313 0.0124023 16.775 0.0374023 16.8188 0.0436523C17.4375 0.149902 17.975 0.418652 18.4188 0.862402C20 2.4374 21.5812 4.01865 23.1562 5.5999C23.5438 5.9874 23.7938 6.4624 23.9188 6.9999C23.9438 7.10615 23.975 7.20615 24 7.3124C24 12.2374 24 17.1562 24 22.0812C23.9813 22.1312 23.9625 22.1812 23.95 22.2312C23.7438 23.0562 23.2375 23.6187 22.4312 23.8999C22.3125 23.9374 22.1937 23.9624 22.0812 23.9999ZM15.75 1.5249C15.75 1.61865 15.75 1.70615 15.75 1.7874C15.75 3.15615 15.75 4.51865 15.75 5.8874C15.75 6.4624 15.4563 6.7499 14.8813 6.7499C11.2125 6.7499 7.5375 6.7499 3.86875 6.7499C3.29375 6.7499 3 6.4624 3 5.8874C3 4.5124 3 3.1374 3 1.7624C3 1.68115 3 1.5999 3 1.4999C2.79375 1.4999 2.6125 1.4999 2.4375 1.4999C1.7625 1.4999 1.5 1.7624 1.5 2.4374C1.5 8.8124 1.5 15.1874 1.5 21.5624C1.5 21.6374 1.5 21.7187 1.5 21.7937C1.525 22.1437 1.78125 22.4499 2.125 22.4874C2.40625 22.5187 2.69375 22.4937 3 22.4937C3 22.3812 3 22.2937 3 22.1999C3 18.8562 3 15.5124 3 12.1687C3 11.5249 3.26875 11.2499 3.90625 11.2499C9.29375 11.2499 14.6875 11.2499 20.075 11.2499C20.7313 11.2499 21 11.5187 21 12.1749C21 15.5187 21 18.8624 21 22.2062C21 22.2999 21 22.3874 21 22.4999C21.2062 22.4999 21.3937 22.4999 21.5812 22.4999C22.2375 22.4999 22.5 22.2312 22.5 21.5749C22.5 16.9999 22.5 12.4187 22.5063 7.84365C22.5063 7.3124 22.3313 6.88115 21.95 6.50615C20.4938 5.0624 19.0312 3.61865 17.5938 2.14365C17.075 1.60615 16.4937 1.41865 15.75 1.5249ZM4.51875 12.7624C4.51875 16.0187 4.51875 19.2562 4.51875 22.4812C9.51875 22.4812 14.5062 22.4812 19.4875 22.4812C19.4875 19.2312 19.4875 15.9999 19.4875 12.7624C14.4937 12.7624 9.5125 12.7624 4.51875 12.7624ZM4.5125 5.23115C6.76875 5.23115 9.00625 5.23115 11.2312 5.23115C11.2312 3.9749 11.2312 2.74365 11.2312 1.5124C8.98125 1.5124 6.75 1.5124 4.5125 1.5124C4.5125 2.75615 4.5125 3.9874 4.5125 5.23115ZM12.7688 1.5124C12.7688 2.76865 12.7688 4.00615 12.7688 5.23115C13.275 5.23115 13.7563 5.23115 14.2375 5.23115C14.2375 3.98115 14.2375 2.7499 14.2375 1.5124C13.7438 1.5124 13.2625 1.5124 12.7688 1.5124Z" fill="#FF9626"/>
<path d="M11.9999 8.25C12.7249 8.25 13.4499 8.25 14.1812 8.25C14.6624 8.25 14.9999 8.55625 15.0062 8.99375C15.0124 9.4375 14.6687 9.75 14.1749 9.75C12.7312 9.75 11.2874 9.75 9.83744 9.75C9.34369 9.75 8.99994 9.4375 9.00619 8.99375C9.00619 8.55 9.34994 8.25 9.84994 8.25C10.5624 8.25 11.2812 8.25 11.9999 8.25Z" fill="#FF9626"/>
<path d="M11.9937 14.25C13.7062 14.25 15.4125 14.25 17.125 14.25C17.7 14.25 17.9937 14.5437 17.9937 15.1062C17.9937 16.0375 17.9937 16.9625 17.9937 17.8937C17.9937 18.45 17.7 18.7437 17.1437 18.7437C13.7125 18.7437 10.2875 18.7437 6.85625 18.7437C6.29375 18.7437 6 18.45 6 17.9C6 16.9625 6 16.025 6 15.0875C6 14.5437 6.29375 14.25 6.8375 14.25C8.55625 14.25 10.275 14.25 11.9937 14.25ZM16.4875 15.7688C13.4812 15.7688 10.4938 15.7688 7.51875 15.7688C7.51875 16.275 7.51875 16.7562 7.51875 17.2375C10.5188 17.2375 13.5 17.2375 16.4875 17.2375C16.4875 16.7437 16.4875 16.2625 16.4875 15.7688Z" fill="#FF9626"/>
</g>
<defs>
<clipPath id="clip0_2686_8497">
<rect width="24" height="24" fill="white"/>
</clipPath>
</defs>
</svg>
