<svg width="32" height="34" viewBox="0 0 32 34" fill="none" xmlns="http://www.w3.org/2000/svg">
<g filter="url(#filter0_d_1295_11678)">
<path d="M7.15137 17.2232C7.15137 14.7141 7.15137 12.1121 7.15137 9.60303C7.15137 8.58081 7.80187 7.83738 8.73117 7.65152C8.91702 7.65152 9.00995 7.65152 9.10288 7.65152C13.0059 7.65152 17.0019 7.65152 20.9049 7.65152C21.4625 7.65152 21.9271 7.83738 22.2988 8.11617C23.0423 8.76667 23.6928 9.51011 24.4362 10.2535C24.8079 10.6253 24.9009 10.997 24.9009 11.5545C24.9009 16.0152 24.9009 20.4758 24.9009 24.9364C24.9009 25.9586 24.0645 26.795 23.0423 26.8879C22.9493 26.8879 22.8564 26.8879 22.8564 26.8879C18.3029 26.8879 13.7493 26.8879 9.19581 26.8879C8.73117 26.8879 8.26652 26.795 7.8948 26.5162C7.33723 26.1444 7.15137 25.5869 7.15137 24.9364C7.15137 22.3343 7.15137 19.7323 7.15137 17.2232ZM21.4625 25.7727C22.0201 25.7727 22.4847 25.7727 22.9493 25.7727C23.5069 25.7727 23.8786 25.401 23.8786 24.8434C23.8786 20.3828 23.8786 16.0152 23.8786 11.5545C23.8786 11.2758 23.7857 11.0899 23.5999 10.904C22.9493 10.2535 22.2988 9.51011 21.5554 8.8596C21.2766 8.58081 20.9978 8.58081 20.719 8.67374C20.719 10.0677 20.719 11.4616 20.719 12.9485C20.719 13.7849 20.1615 14.2495 19.418 14.2495C17.1877 14.2495 14.8645 14.2495 12.6342 14.2495C11.7978 14.2495 11.3332 13.7849 11.3332 12.9485C11.3332 11.6475 11.3332 10.2535 11.3332 8.95253C11.3332 8.8596 11.3332 8.76667 11.3332 8.67374C10.5898 8.67374 9.93925 8.67374 9.19581 8.67374C8.54531 8.67374 8.17359 9.04546 8.17359 9.69596C8.17359 13.3202 8.17359 16.8515 8.17359 20.4758C8.17359 21.9626 8.17359 23.4495 8.17359 24.8434C8.17359 25.401 8.54531 25.7727 9.10288 25.7727C9.4746 25.7727 9.75339 25.7727 10.1251 25.7727C10.311 25.7727 10.4968 25.7727 10.6827 25.7727C10.6827 25.6798 10.6827 25.5869 10.6827 25.4939C10.6827 23.2636 10.6827 21.0333 10.6827 18.803C10.6827 17.9667 11.1473 17.502 11.9837 17.502C14.6786 17.502 17.3736 17.502 20.0685 17.502C20.9049 17.502 21.3695 17.9667 21.3695 18.803C21.3695 21.0333 21.3695 23.2636 21.3695 25.4939C21.4625 25.5869 21.4625 25.6798 21.4625 25.7727ZM20.3473 25.7727C20.3473 25.6798 20.3473 25.6798 20.3473 25.6798C20.3473 23.3566 20.3473 21.0333 20.3473 18.803C20.3473 18.5242 20.3473 18.5242 20.0685 18.5242C17.3736 18.5242 14.6786 18.5242 11.9837 18.5242C11.7049 18.5242 11.7049 18.5242 11.7049 18.896C11.7049 21.1263 11.7049 23.4495 11.7049 25.6798C11.7049 25.7727 11.7049 25.7727 11.7049 25.8657C14.5857 25.7727 17.4665 25.7727 20.3473 25.7727ZM12.3554 8.67374C12.3554 8.76667 12.3554 8.76667 12.3554 8.8596C12.3554 10.1606 12.3554 11.5545 12.3554 12.8556C12.3554 13.2273 12.4483 13.2273 12.7271 13.2273C14.9574 13.2273 17.1877 13.2273 19.418 13.2273C19.6968 13.2273 19.6968 13.2273 19.6968 12.9485C19.6968 11.6475 19.6968 10.2535 19.6968 8.95253C19.6968 8.8596 19.6968 8.8596 19.6968 8.76667C17.2807 8.67374 14.8645 8.67374 12.3554 8.67374Z" fill="#FF9626" stroke="#FF9626" stroke-width="0.2"/>
<path d="M16.0724 21.5909C15.4219 21.5909 14.7714 21.5909 14.0279 21.5909C13.6562 21.5909 13.3774 21.4051 13.3774 21.0333C13.3774 20.7546 13.6562 20.5687 14.0279 20.5687C15.329 20.5687 16.7229 20.5687 18.0239 20.5687C18.3956 20.5687 18.5815 20.7546 18.6744 21.1263C18.6744 21.4051 18.3956 21.6838 18.0239 21.6838C17.3734 21.5909 16.7229 21.5909 16.0724 21.5909Z" fill="#FF9626"/>
<path d="M16.0724 23.7283C15.4219 23.7283 14.7714 23.7283 14.0279 23.7283C13.6562 23.7283 13.3774 23.5424 13.3774 23.1707C13.3774 22.8919 13.6562 22.7061 14.0279 22.6131C15.329 22.6131 16.7229 22.6131 18.0239 22.6131C18.3956 22.6131 18.5815 22.799 18.6744 23.1707C18.6744 23.4495 18.3956 23.7283 18.0239 23.7283C17.3734 23.7283 16.7229 23.7283 16.0724 23.7283Z" fill="#FF9626"/>
</g>
<defs>
<filter id="filter0_d_1295_11678" x="-4" y="-1.5" width="40" height="40" filterUnits="userSpaceOnUse" color-interpolation-filters="sRGB">
<feFlood flood-opacity="0" result="BackgroundImageFix"/>
<feColorMatrix in="SourceAlpha" type="matrix" values="0 0 0 0 0 0 0 0 0 0 0 0 0 0 0 0 0 0 127 0" result="hardAlpha"/>
<feOffset dy="2"/>
<feGaussianBlur stdDeviation="2"/>
<feComposite in2="hardAlpha" operator="out"/>
<feColorMatrix type="matrix" values="0 0 0 0 1 0 0 0 0 0.588235 0 0 0 0 0.14902 0 0 0 0.24 0"/>
<feBlend mode="normal" in2="BackgroundImageFix" result="effect1_dropShadow_1295_11678"/>
<feBlend mode="normal" in="SourceGraphic" in2="effect1_dropShadow_1295_11678" result="shape"/>
</filter>
</defs>
</svg>
