<svg width="34" height="28" viewBox="0 0 34 28" fill="none" xmlns="http://www.w3.org/2000/svg">
<g clip-path="url(#clip0_476_1665)">
<path d="M11.423 12.9423C10.6538 12.9423 9.98073 12.9423 9.2115 12.9423C7.76919 12.9423 6.90381 12.0769 6.90381 10.7308C6.90381 9.28846 6.90381 7.75 6.90381 6.30769C6.90381 4.96154 7.86535 4 9.11535 4C10.6538 4 12.1923 4 13.6346 4C14.9807 4 15.8461 4.86538 15.8461 6.21154C15.8461 7.75 15.8461 9.28846 15.8461 10.7308C15.8461 12.0769 14.8846 12.9423 13.6346 12.9423C12.8653 13.0385 12.0961 12.9423 11.423 12.9423ZM8.34612 8.42308C8.34612 9.19231 8.34612 9.96154 8.34612 10.7308C8.34612 11.2115 8.63458 11.5 9.11535 11.5C10.6538 11.5 12.1923 11.5 13.7307 11.5C14.2115 11.5 14.5 11.2115 14.5 10.7308C14.5 9.19231 14.5 7.65385 14.5 6.21154C14.5 5.73077 14.2115 5.44231 13.7307 5.44231C12.1923 5.44231 10.75 5.44231 9.2115 5.44231C8.73073 5.44231 8.44227 5.73077 8.44227 6.21154C8.34612 6.98077 8.34612 7.75 8.34612 8.42308Z" fill="#39629C"/>
<path d="M11.4231 15.0577C12.1923 15.0577 12.9615 15.0577 13.7308 15.0577C14.9808 15.0577 15.9423 15.9231 15.9423 17.2692C15.9423 18.8077 15.9423 20.3462 15.9423 21.8846C15.9423 23.1346 14.9808 24.0962 13.7308 24.0962C12.1923 24.0962 10.6538 24.0962 9.21154 24.0962C7.86538 24.0962 7 23.1346 7 21.8846C7 20.3462 7 18.9038 7 17.3654C7 16.1154 7.96154 15.1538 9.21154 15.1538C9.88462 15.0577 10.6538 15.0577 11.4231 15.0577ZM11.4231 22.5577C12.1923 22.5577 12.9615 22.5577 13.7308 22.5577C14.2115 22.5577 14.5 22.2692 14.5 21.7885C14.5 20.25 14.5 18.7115 14.5 17.1731C14.5 16.6923 14.2115 16.4038 13.7308 16.4038C12.1923 16.4038 10.6538 16.4038 9.11538 16.4038C8.63462 16.4038 8.34615 16.6923 8.34615 17.1731C8.34615 18.7115 8.34615 20.25 8.34615 21.6923C8.34615 22.1731 8.63462 22.4615 9.11538 22.4615C9.88462 22.5577 10.6538 22.5577 11.4231 22.5577Z" fill="#39629C"/>
<path d="M26.9037 8.51923C26.9037 9.28846 26.9037 9.96154 26.9037 10.7308C26.9037 12.0769 26.0383 12.9423 24.596 12.9423C23.1537 12.9423 21.6152 12.9423 20.1729 12.9423C18.8268 12.9423 17.8652 12.0769 17.8652 10.7308C17.8652 9.19231 17.8652 7.75 17.8652 6.21154C17.9614 4.96154 18.8268 4 20.1729 4C21.7114 4 23.1537 4 24.6922 4C26.0383 4 26.9037 4.86538 26.9037 6.21154C26.9037 6.98077 26.9037 7.75 26.9037 8.51923ZM19.4037 8.51923C19.4037 9.28846 19.4037 10.0577 19.4037 10.8269C19.4037 11.3077 19.6922 11.5962 20.1729 11.5962C21.7114 11.5962 23.2499 11.5962 24.7883 11.5962C25.2691 11.5962 25.5575 11.3077 25.5575 10.8269C25.5575 9.28846 25.5575 7.75 25.5575 6.21154C25.5575 5.73077 25.2691 5.44231 24.7883 5.44231C23.2499 5.44231 21.7114 5.44231 20.1729 5.44231C19.6922 5.44231 19.4037 5.73077 19.4037 6.21154C19.4037 6.98077 19.4037 7.75 19.4037 8.51923Z" fill="#39629C"/>
<path d="M19.0193 21.8846C19.3077 21.2115 19.0193 20.7308 18.5385 20.25C18.3462 20.0577 18.25 19.8654 18.0577 19.6731C17.4808 18.9038 17.7693 17.75 18.7308 17.5577C19.2116 17.4615 19.5962 17.2692 20.077 17.1731C20.2693 17.1731 20.3654 16.9808 20.4616 16.8846C20.6539 16.5 20.9423 16.1154 21.1347 15.7308C21.7116 14.8654 22.8654 14.8654 23.4423 15.7308C23.7308 16.1154 23.9231 16.5 24.2116 16.8846C24.3077 16.9808 24.4039 17.0769 24.5 17.0769C24.9808 17.1731 25.3654 17.3654 25.8462 17.4615C26.9039 17.75 27.1923 18.8077 26.5193 19.6731C26.2308 20.0577 25.9423 20.3462 25.6539 20.7308C25.5577 20.8269 25.4616 21.0192 25.4616 21.2115C25.4616 21.6923 25.5577 22.1731 25.5577 22.6538C25.5577 23.5192 24.8847 24.0962 24.1154 24C23.9231 24 23.827 23.9039 23.6347 23.9039C23.1539 23.7115 22.7693 23.5192 22.2885 23.4231C22.1923 23.4231 22.0962 23.4231 21.9039 23.4231C21.4231 23.6154 21.0385 23.7115 20.5577 23.9039C19.5 24.2885 18.6347 23.6154 18.6347 22.4615C19.1154 22.2692 19.0193 22.0769 19.0193 21.8846ZM19.3077 18.8077C19.5962 19.1923 19.8847 19.5769 20.2693 19.9615C20.5577 20.25 20.6539 20.6346 20.6539 21.0192C20.6539 21.5 20.6539 21.9808 20.5577 22.4615C20.9423 22.2692 21.4231 22.1731 21.8077 21.9808C22.2885 21.7885 22.7693 21.7885 23.25 21.9808C23.6347 22.1731 24.0193 22.2692 24.5 22.4615C24.5 21.9808 24.5 21.5 24.4039 21.0192C24.4039 20.5385 24.5 20.25 24.7885 19.8654C25.077 19.4808 25.3654 19.1923 25.6539 18.8077C25.1731 18.7115 24.6923 18.5192 24.2116 18.4231C23.827 18.3269 23.5385 18.1346 23.25 17.75C23.0577 17.3654 22.7693 17.0769 22.577 16.6923L22.4808 16.5962C22.1923 16.9808 22 17.3654 21.7116 17.75C21.5193 18.1346 21.1347 18.3269 20.75 18.4231C20.2693 18.6154 19.7885 18.7115 19.3077 18.8077Z" fill="#39629C"/>
</g>
<defs>
<clipPath id="clip0_476_1665">
<rect width="20.1923" height="20" fill="white" transform="translate(6.90381 4)"/>
</clipPath>
</defs>
</svg>
