<svg width="69" height="28" viewBox="0 0 69 28" fill="none" xmlns="http://www.w3.org/2000/svg">
<path d="M12.6523 6.05078C12.5221 6.05078 12.457 5.97917 12.457 5.83594C12.457 5.60807 12.6328 5.1849 12.9844 4.56641C13.0495 4.44922 13.1504 4.39062 13.2871 4.39062C13.528 4.39062 13.8763 4.57617 14.332 4.94727C14.4036 5.00586 14.4395 5.10352 14.4395 5.24023C14.4395 5.33789 14.4199 5.45833 14.3809 5.60156C14.2637 6.01823 14.1595 6.29492 14.0684 6.43164C14.0553 6.47721 14.0098 6.5 13.9316 6.5C13.834 6.5 13.6875 6.46094 13.4922 6.38281C12.9453 6.16797 12.6654 6.05729 12.6523 6.05078ZM10.7578 25.8652C10.8945 25.6699 11.2298 25.5137 11.7637 25.3965C12.2975 25.2858 12.6882 25.1165 12.9355 24.8887L12.9941 24.957L13.0137 25.3086V25.416C13.0137 25.6829 13.0007 25.8978 12.9746 26.0605C12.9551 26.2819 12.8997 26.4609 12.8086 26.5977C12.724 26.7409 12.4701 26.8906 12.0469 27.0469L11.4219 27.2617L10.7188 27.5156C10.6797 27.5352 10.6471 27.5156 10.6211 27.457C10.6016 27.4049 10.5885 27.3464 10.582 27.2812C10.5755 27.2227 10.5723 27.1217 10.5723 26.9785L10.582 26.627C10.582 26.5098 10.5918 26.3763 10.6113 26.2266C10.6374 26.0768 10.6862 25.9564 10.7578 25.8652ZM18.082 9.50781C18.082 9.41667 18.0299 9.37109 17.9258 9.37109C17.7956 9.37109 17.597 9.43294 17.3301 9.55664C16.9785 9.72591 16.6465 9.99609 16.334 10.3672C16.0736 10.6732 15.9434 11.4089 15.9434 12.5742C17.2389 11.5391 17.9518 10.5169 18.082 9.50781ZM14.5273 15.1621C14.0456 15.1621 13.6615 14.9375 13.375 14.4883C13.1927 14.1758 13.0495 13.9349 12.9453 13.7656C12.8477 13.6615 12.6979 13.6094 12.4961 13.6094C12.4245 13.6094 12.3464 13.6159 12.2617 13.6289C11.6953 13.7331 11.168 14.0846 10.6797 14.6836C10.1784 15.3021 9.89844 15.8359 9.83984 16.2852C9.83984 16.474 10.1328 16.6237 10.7188 16.7344C11.2591 16.832 11.6465 16.9818 11.8809 17.1836C12.3431 17.5938 12.5742 18.2383 12.5742 19.1172V19.332C12.4896 21.5326 11.526 22.9909 9.68359 23.707C9.3125 23.8503 8.95117 23.9219 8.59961 23.9219C8.08529 23.9219 7.59049 23.7689 7.11523 23.4629C6.43164 23.0202 5.89779 22.3529 5.51367 21.4609C5.25326 20.862 5.12305 20.0286 5.12305 18.9609V18.668C5.13607 17.7109 5.25977 16.7604 5.49414 15.8164C5.89128 14.2279 6.74089 12.2747 8.04297 9.95703C6.71484 11.474 5.23698 12.7109 3.60938 13.668C2.76302 14.1628 1.9362 14.5762 1.12891 14.9082C0.783854 15.0514 0.578776 15.1328 0.513672 15.1523C0.429036 15.1719 0.363932 15.1816 0.318359 15.1816C0.259766 15.1816 0.230469 15.1686 0.230469 15.1426C0.230469 15.11 0.266276 15.0579 0.337891 14.9863C0.350911 14.9733 0.542969 14.8529 0.914062 14.625C1.15495 14.4688 1.38281 14.3223 1.59766 14.1855C3.43359 12.9876 4.92773 11.8027 6.08008 10.6309C7.42773 9.26367 8.53125 7.74674 9.39062 6.08008C9.82031 5.25326 10.1654 4.42318 10.4258 3.58984C10.556 3.17969 10.6732 2.75651 10.7773 2.32031C10.8294 2.09896 10.8783 1.8776 10.9238 1.65625C11.0215 1.16146 11.0703 0.910807 11.0703 0.904297C11.1289 0.787109 11.1745 0.728516 11.207 0.728516C11.2461 0.728516 11.2656 0.809896 11.2656 0.972656C11.2461 1.21354 11.2233 1.45768 11.1973 1.70508C11.1387 2.19987 11.0573 2.73047 10.9531 3.29688C10.7839 4.19531 10.5495 5.14909 10.25 6.1582C9.65104 8.16341 8.92188 10.0026 8.0625 11.6758C7.49609 12.7695 7.06641 13.6322 6.77344 14.2637C6.40885 15.2272 6.1582 16.1582 6.02148 17.0566C5.94336 17.5514 5.9043 18.0137 5.9043 18.4434C5.9043 19.5501 6.16146 20.4486 6.67578 21.1387C7.0599 21.6595 7.6263 21.9753 8.375 22.0859C8.49219 22.1055 8.61263 22.1152 8.73633 22.1152C9.28971 22.1152 9.85938 21.9297 10.4453 21.5586C11.0182 21.194 11.4349 20.7057 11.6953 20.0938C11.8125 19.8073 11.8711 19.5501 11.8711 19.3223C11.8711 19.2637 11.8678 19.2051 11.8613 19.1465C11.8288 18.9382 11.6172 18.8014 11.2266 18.7363C10.0612 18.5215 9.41341 18.3262 9.2832 18.1504C9.0944 17.916 9 17.6165 9 17.252C9 17.0827 9.02279 16.9004 9.06836 16.7051C9.19206 16.0931 9.35807 15.5527 9.56641 15.084C9.85938 14.4199 10.0677 13.987 10.1914 13.7852C10.7708 12.8346 11.3893 12.2389 12.0469 11.998C12.2682 11.9199 12.4668 11.8809 12.6426 11.8809C12.8184 11.8809 12.9746 11.9199 13.1113 11.998H13.0918C13.0918 12.0566 13.2936 12.3724 13.6973 12.9453C13.8796 13.1992 14.1172 13.3262 14.4102 13.3262C14.4753 13.3262 14.5436 13.3197 14.6152 13.3066C14.804 13.2741 14.9831 13.2155 15.1523 13.1309C15.2826 13.0658 15.3477 12.9974 15.3477 12.9258V12.4961C15.3477 9.91797 15.9206 8.39128 17.0664 7.91602C17.3464 7.79883 17.6068 7.74023 17.8477 7.74023C17.9648 7.74023 18.0788 7.75651 18.1895 7.78906C18.515 7.88021 18.7363 8.18945 18.8535 8.7168C18.8926 8.89258 18.9121 9.07812 18.9121 9.27344C18.9121 9.8724 18.7331 10.5723 18.375 11.373C18.1602 11.8483 17.8086 12.4212 17.3203 13.0918C17.1966 13.2611 16.9688 13.5215 16.6367 13.873C16.526 13.9967 16.4186 14.1074 16.3145 14.2051L15.9727 14.5469C15.9271 14.6706 15.8913 14.9115 15.8652 15.2695C15.8457 15.582 15.7871 15.8164 15.6895 15.9727C15.6439 16.0378 15.6081 16.0703 15.582 16.0703C15.5234 16.0703 15.4941 15.9401 15.4941 15.6797L15.4746 15.25C15.4616 15.0612 15.4551 14.918 15.4551 14.8203C15.123 15.0482 14.8138 15.1621 14.5273 15.1621ZM22.4082 7.80859C22.4017 7.75 22.418 7.05664 22.457 5.72852C23.9609 6.76367 25.0807 8.35547 25.8164 10.5039C26.5456 12.6523 26.679 14.7194 26.2168 16.7051C25.6569 19.0944 24.5794 21.0052 22.9844 22.4375C21.2201 24.026 19.0228 24.8203 16.3926 24.8203C15.3053 24.8268 14.7292 24.7812 14.6641 24.6836C14.612 24.6055 14.9049 24.4753 15.543 24.293C17.9844 23.6029 19.2637 23.2318 19.3809 23.1797C21.1908 22.3008 22.6458 21.3568 23.7461 20.3477C24.3971 19.7552 24.7715 19.3288 24.8691 19.0684C25.722 17.0632 25.9759 15.2598 25.6309 13.6582C25.3379 12.304 24.485 10.6602 23.0723 8.72656C23.5801 14.2865 23.8112 17.1641 23.7656 17.3594C23.7852 17.2682 23.7591 17.5872 23.6875 18.3164C23.6419 18.8372 23.5931 18.9316 23.541 18.5996C23.4499 17.7598 23.2643 15.9629 22.9844 13.209C22.737 10.8587 22.5449 9.05859 22.4082 7.80859ZM30.8457 9.73242C30.8457 9.5306 30.8815 9.31576 30.9531 9.08789C31.0052 8.74284 31.0312 8.49544 31.0312 8.3457C31.1029 8.3457 31.2493 8.30664 31.4707 8.22852C31.5553 8.21549 31.6855 8.18945 31.8613 8.15039C32.0241 8.11784 32.1608 8.09505 32.2715 8.08203C32.6426 7.97135 32.89 7.90951 33.0137 7.89648C33.248 7.81836 33.401 7.7793 33.4727 7.7793C33.4987 7.75326 33.5247 7.74023 33.5508 7.74023C33.5768 7.74023 33.5996 7.75326 33.6191 7.7793C33.6191 7.79883 33.6419 7.86068 33.6875 7.96484C33.6875 8.0625 33.7038 8.13737 33.7363 8.18945V8.3457C33.7363 8.51497 33.7103 8.7526 33.6582 9.05859C33.6257 9.2474 33.5508 9.42318 33.4336 9.58594C33.349 9.66406 33.2253 9.73568 33.0625 9.80078C32.8737 9.89844 32.6816 9.96029 32.4863 9.98633C32.3431 10.0449 32.1185 10.097 31.8125 10.1426C31.4609 10.1882 31.2363 10.2109 31.1387 10.2109H30.875C30.8034 10.2109 30.7676 10.1882 30.7676 10.1426V9.98633L30.7578 10.0059C30.7578 9.99284 30.7871 9.90169 30.8457 9.73242ZM30.4746 14.4004C30.6374 14.2376 30.8424 14.0944 31.0898 13.9707C31.2396 13.8926 31.4512 13.7917 31.7246 13.668C31.9395 13.5703 32.1152 13.4694 32.252 13.3652C32.4017 13.2676 32.4961 13.1178 32.5352 12.916C32.5938 12.6816 32.6426 12.5645 32.6816 12.5645C32.7337 12.5645 32.7598 12.5872 32.7598 12.6328C32.7598 12.8737 32.7533 13.069 32.7402 13.2188C32.7402 13.4336 32.7598 13.6452 32.7988 13.8535C32.8574 14.0684 32.9518 14.2507 33.082 14.4004C33.1992 14.5566 33.4238 14.6445 33.7559 14.6641V16.5C33.4694 16.5 33.2318 16.4414 33.043 16.3242C32.8607 16.207 32.7174 16.0768 32.6133 15.9336C32.5156 15.8034 32.4342 15.6406 32.3691 15.4453C32.3105 15.276 32.2715 15.1198 32.252 14.9766C32.0762 15.0156 31.8516 15.097 31.5781 15.2207C31.3177 15.3314 31.0801 15.4941 30.8652 15.709C30.6439 15.9303 30.4876 16.2233 30.3965 16.5879C30.2793 17.0306 30.1979 17.4375 30.1523 17.8086C30.1003 18.2578 30.0449 18.7266 29.9863 19.2148C29.9342 19.6706 29.8268 20.1523 29.6641 20.6602C29.5143 21.1094 29.3027 21.5391 29.0293 21.9492C28.7493 22.3594 28.3685 22.7012 27.8867 22.9746C27.6003 23.1374 27.2747 23.2839 26.9102 23.4141C26.5391 23.5443 26.2526 23.6289 26.0508 23.668C25.8294 23.7331 25.6113 23.7786 25.3965 23.8047C25.2663 23.8307 25.1523 23.8438 25.0547 23.8438H24.9863C24.9082 23.8438 24.8691 23.8307 24.8691 23.8047C24.8691 23.7917 24.8757 23.7786 24.8887 23.7656C24.9342 23.7005 25.0384 23.6061 25.2012 23.4824C25.6309 23.196 26.0898 22.8607 26.5781 22.4766C27.0469 22.099 27.4635 21.7116 27.8281 21.3145C28.2448 20.8587 28.5768 20.403 28.8242 19.9473C29.0977 19.472 29.2897 18.9414 29.4004 18.3555C29.485 17.9323 29.5371 17.5677 29.5566 17.2617C29.5762 16.9102 29.612 16.5749 29.6641 16.2559C29.7161 15.9694 29.804 15.6504 29.9277 15.2988C30.0514 14.9798 30.2337 14.6803 30.4746 14.4004ZM33.7168 14.6641C34.4395 14.6641 34.8984 14.599 35.0938 14.4688C35.2695 14.3385 35.4388 14.1628 35.6016 13.9414C35.7708 13.707 35.8945 13.4889 35.9727 13.2871C36.0833 13.0267 36.1517 12.8216 36.1777 12.6719C36.1908 12.5938 36.1973 12.5221 36.1973 12.457C36.1973 12.3919 36.1908 12.3333 36.1777 12.2812C36.1582 12.2292 36.1289 12.2031 36.0898 12.2031C36.0573 12.2031 36.0182 12.2227 35.9727 12.2617C35.9141 12.3138 35.8164 12.3952 35.6797 12.5059C35.556 12.61 35.4616 12.6914 35.3965 12.75C35.2272 12.8997 35.0091 12.9746 34.7422 12.9746C34.5469 12.9746 34.3971 12.9421 34.293 12.877C34.1888 12.8053 34.1074 12.7109 34.0488 12.5938C33.9577 12.3398 33.9121 12.0404 33.9121 11.6953C33.9121 11.4609 33.9316 11.2298 33.9707 11.002C34.0033 10.8457 34.0651 10.6602 34.1562 10.4453C34.2344 10.3086 34.3678 10.1784 34.5566 10.0547C34.7129 9.96354 34.9375 9.91797 35.2305 9.91797C35.556 9.91797 35.8424 10.0124 36.0898 10.2012C36.3047 10.3835 36.4772 10.6276 36.6074 10.9336C36.7311 11.2721 36.7995 11.627 36.8125 11.998C36.819 12.1022 36.8223 12.2096 36.8223 12.3203C36.8223 12.6003 36.8027 12.89 36.7637 13.1895C36.7116 13.528 36.6107 13.9284 36.4609 14.3906C36.3503 14.7357 36.1875 15.0905 35.9727 15.4551C35.7513 15.7806 35.5267 16.0312 35.2988 16.207C35.0449 16.3893 34.5176 16.487 33.7168 16.5V14.6641ZM33.9219 7.14453C33.9674 6.91667 34.0033 6.73438 34.0293 6.59766C34.1595 6.18099 34.2246 5.96289 34.2246 5.94336H34.2148L34.1758 6.06055C34.2409 5.9043 34.293 5.82617 34.332 5.82617C34.3581 5.82617 34.4557 5.84245 34.625 5.875C34.6771 5.88802 34.8333 5.93685 35.0938 6.02148C35.2044 6.06055 35.3444 6.12891 35.5137 6.22656C35.6374 6.29818 35.6992 6.37305 35.6992 6.45117C35.6992 6.54883 35.6829 6.67904 35.6504 6.8418C35.5983 7.06315 35.5527 7.23242 35.5137 7.34961C35.4421 7.54492 35.3867 7.67839 35.3477 7.75C35.2826 7.85417 35.237 7.90625 35.2109 7.90625H35.2012C34.6803 7.69792 34.4199 7.59049 34.4199 7.58398C34.4264 7.58398 34.4753 7.60352 34.5664 7.64258C34.293 7.51888 34.0716 7.43099 33.9023 7.37891L33.9219 7.14453ZM39.9863 7.80859C39.9798 7.75 39.9961 7.05664 40.0352 5.72852C41.5391 6.76367 42.6589 8.35547 43.3945 10.5039C44.1237 12.6523 44.2572 14.7194 43.7949 16.7051C43.235 19.0944 42.1576 21.0052 40.5625 22.4375C38.7982 24.026 36.6009 24.8203 33.9707 24.8203C32.8835 24.8268 32.3073 24.7812 32.2422 24.6836C32.1901 24.6055 32.4831 24.4753 33.1211 24.293C35.5625 23.6029 36.8418 23.2318 36.959 23.1797C38.7689 22.3008 40.224 21.3568 41.3242 20.3477C41.9753 19.7552 42.3496 19.3288 42.4473 19.0684C43.3001 17.0632 43.554 15.2598 43.209 13.6582C42.916 12.304 42.0632 10.6602 40.6504 8.72656C41.1582 14.2865 41.3893 17.1641 41.3438 17.3594C41.3633 17.2682 41.3372 17.5872 41.2656 18.3164C41.2201 18.8372 41.1712 18.9316 41.1191 18.5996C41.028 17.7598 40.8424 15.9629 40.5625 13.209C40.3151 10.8587 40.123 9.05859 39.9863 7.80859ZM52.7598 16.002C52.3887 16.3014 51.8939 16.7148 51.2754 17.2422C50.7871 17.6589 50.3281 18.1113 49.8984 18.5996C49.4948 19.0358 49.1432 19.5241 48.8438 20.0645C48.5573 20.5853 48.3945 21.0866 48.3555 21.5684C48.3424 21.6855 48.3359 21.8027 48.3359 21.9199C48.3359 22.3301 48.4108 22.7077 48.5605 23.0527C48.7559 23.4824 49.026 23.834 49.3711 24.1074C49.6706 24.3678 50.084 24.6055 50.6113 24.8203C51.0215 24.9961 51.5228 25.1458 52.1152 25.2695C52.6751 25.3737 53.196 25.4421 53.6777 25.4746C54.0163 25.5007 54.4915 25.5137 55.1035 25.5137C56.0996 25.5137 57.0046 25.4453 57.8184 25.3086C58.6973 25.1589 59.5599 24.9505 60.4062 24.6836C61.2266 24.4362 62.0664 24.1367 62.9258 23.7852C63.7135 23.4661 64.5371 23.0983 65.3965 22.6816C65.5202 22.6296 65.6081 22.6035 65.6602 22.6035C65.6797 22.6035 65.696 22.61 65.709 22.623C65.722 22.6296 65.7285 22.6393 65.7285 22.6523C65.7285 22.6914 65.6667 22.75 65.543 22.8281C64.7227 23.4271 63.8145 23.9707 62.8184 24.459C61.8548 24.9212 60.8457 25.3053 59.791 25.6113C58.86 25.8978 57.7988 26.1224 56.6074 26.2852C55.748 26.3893 54.918 26.4414 54.1172 26.4414C53.8828 26.4414 53.6549 26.4382 53.4336 26.4316C52.6784 26.3926 51.959 26.2754 51.2754 26.0801C50.5853 25.8978 49.9375 25.6016 49.332 25.1914C48.7852 24.8268 48.3294 24.3451 47.9648 23.7461C47.6133 23.1732 47.4375 22.4798 47.4375 21.666V21.5293C47.4375 21.015 47.5384 20.5202 47.7402 20.0449C47.9421 19.5176 48.2025 19.0293 48.5215 18.5801C48.8405 18.1309 49.1921 17.7044 49.5762 17.3008C49.8431 17.0208 50.2077 16.6758 50.6699 16.2656C51.2233 15.8034 51.5293 15.5495 51.5879 15.5039C51.7637 15.3737 51.9264 15.2337 52.0762 15.084C52.0762 15.0059 52.0339 14.9115 51.9492 14.8008C51.8581 14.7161 51.7572 14.6543 51.6465 14.6152C51.6139 14.6087 51.5814 14.6055 51.5488 14.6055C51.4707 14.6055 51.3893 14.6217 51.3047 14.6543L50.9727 14.8203C50.8555 14.8789 50.7611 14.918 50.6895 14.9375H50.6602C50.6016 14.9375 50.5723 14.8919 50.5723 14.8008C50.5723 14.5078 50.6243 14.1888 50.7285 13.8438C50.8197 13.5443 50.9564 13.2741 51.1387 13.0332C51.3014 12.8053 51.526 12.6133 51.8125 12.457C52.0794 12.3073 52.3887 12.2324 52.7402 12.2324C53.2611 12.2324 53.6419 12.3268 53.8828 12.5156C54.0716 12.6589 54.166 12.89 54.166 13.209C54.166 13.3197 54.153 13.4434 54.127 13.5801C54.1074 13.7689 54.0716 13.9577 54.0195 14.1465C53.9935 14.2116 53.9577 14.306 53.9121 14.4297C53.8665 14.5273 53.834 14.5957 53.8145 14.6348C53.9316 14.6543 54.1009 14.6641 54.3223 14.6641V16.5C54.14 16.5 53.9642 16.487 53.7949 16.4609C53.5931 16.4089 53.4466 16.3633 53.3555 16.3242C53.1797 16.2526 53.0625 16.1973 53.0039 16.1582C52.8737 16.0801 52.7923 16.028 52.7598 16.002ZM54.3125 14.6641C54.7812 14.625 55.1133 14.5436 55.3086 14.4199C55.5104 14.2962 55.6667 14.14 55.7773 13.9512C55.888 13.7624 55.9629 13.5703 56.002 13.375C56.0475 13.1276 56.0768 12.9453 56.0898 12.8281C56.1094 12.6784 56.1289 12.5417 56.1484 12.418C56.168 12.3073 56.2168 12.252 56.2949 12.252C56.3535 12.252 56.3991 12.2943 56.4316 12.3789C56.4447 12.431 56.474 12.5319 56.5195 12.6816C56.5716 13.0072 56.6107 13.2188 56.6367 13.3164C56.6758 13.3555 56.7116 13.388 56.7441 13.4141C56.8353 13.4531 56.9753 13.4727 57.1641 13.4727H57.1836V15.2988C56.8841 15.2988 56.6595 15.2858 56.5098 15.2598C56.4186 15.2402 56.347 15.2305 56.2949 15.2305C56.2168 15.3281 56.1126 15.4648 55.9824 15.6406C55.8587 15.8034 55.735 15.9401 55.6113 16.0508C55.4095 16.2005 55.2467 16.3079 55.123 16.373C54.9017 16.4577 54.6315 16.5 54.3125 16.5V14.6641ZM54.0684 21.2168C54.0684 21.015 54.1042 20.8001 54.1758 20.5723C54.2279 20.2272 54.2539 19.9798 54.2539 19.8301C54.3255 19.8301 54.472 19.791 54.6934 19.7129C54.778 19.6999 54.9082 19.6738 55.084 19.6348C55.2467 19.6022 55.3835 19.5794 55.4941 19.5664C55.8652 19.4557 56.1126 19.3939 56.2363 19.3809C56.4707 19.3027 56.6237 19.2637 56.6953 19.2637C56.7214 19.2376 56.7474 19.2246 56.7734 19.2246C56.7995 19.2246 56.8223 19.2376 56.8418 19.2637C56.8418 19.2832 56.8646 19.3451 56.9102 19.4492C56.9102 19.5469 56.9264 19.6217 56.959 19.6738V19.8301C56.959 19.9993 56.9329 20.237 56.8809 20.543C56.8483 20.7318 56.7734 20.9076 56.6562 21.0703C56.5716 21.1484 56.4479 21.2201 56.2852 21.2852C56.0964 21.3828 55.9043 21.4447 55.709 21.4707C55.5658 21.5293 55.3411 21.5814 55.0352 21.627C54.6836 21.6725 54.459 21.6953 54.3613 21.6953H54.0977C54.026 21.6953 53.9902 21.6725 53.9902 21.627V21.4707L53.9805 21.4902C53.9805 21.4772 54.0098 21.3861 54.0684 21.2168ZM57.0371 12.6641C57.7598 12.6641 58.2188 12.599 58.4141 12.4688C58.5898 12.3385 58.7591 12.1628 58.9219 11.9414C59.0911 11.707 59.2148 11.4889 59.293 11.2871C59.4036 11.0267 59.472 10.8216 59.498 10.6719C59.5111 10.5938 59.5176 10.5221 59.5176 10.457C59.5176 10.3919 59.5111 10.3333 59.498 10.2812C59.4785 10.2292 59.4492 10.2031 59.4102 10.2031C59.3776 10.2031 59.3385 10.2227 59.293 10.2617C59.2344 10.3138 59.1367 10.3952 59 10.5059C58.8763 10.61 58.7819 10.6914 58.7168 10.75C58.5475 10.8997 58.3294 10.9746 58.0625 10.9746C57.8672 10.9746 57.7174 10.9421 57.6133 10.877C57.5091 10.8053 57.4277 10.7109 57.3691 10.5938C57.278 10.3398 57.2324 10.0404 57.2324 9.69531C57.2324 9.46094 57.252 9.22982 57.291 9.00195C57.3236 8.8457 57.3854 8.66016 57.4766 8.44531C57.5547 8.30859 57.6882 8.17839 57.877 8.05469C58.0332 7.96354 58.2578 7.91797 58.5508 7.91797C58.8763 7.91797 59.1628 8.01237 59.4102 8.20117C59.625 8.38346 59.7975 8.6276 59.9277 8.93359C60.0514 9.27214 60.1198 9.62695 60.1328 9.99805C60.1393 10.1022 60.1426 10.2096 60.1426 10.3203C60.1426 10.6003 60.123 10.89 60.084 11.1895C60.0319 11.528 59.931 11.9284 59.7812 12.3906C59.6706 12.7357 59.5078 13.0905 59.293 13.4551C59.0716 13.7806 58.847 14.0312 58.6191 14.207C58.3652 14.3893 57.8379 14.487 57.0371 14.5V12.6641ZM57.8281 5.07617C57.8542 4.90039 57.877 4.64974 57.8965 4.32422C57.9421 4.32422 58.1016 4.29167 58.375 4.22656C58.7005 4.15495 58.9544 4.09961 59.1367 4.06055C59.2344 4.04102 59.3646 4.00846 59.5273 3.96289C59.7031 3.91732 59.8268 3.88802 59.8984 3.875C60.1458 3.8099 60.2956 3.76432 60.3477 3.73828C60.3607 3.73177 60.377 3.72852 60.3965 3.72852C60.429 3.72852 60.4616 3.74479 60.4941 3.77734C60.5397 3.86198 60.5658 3.91732 60.5723 3.94336C60.5788 3.9694 60.5853 4.00846 60.5918 4.06055C60.5983 4.11263 60.6048 4.14844 60.6113 4.16797V4.34375C60.6113 4.60417 60.5853 4.83529 60.5332 5.03711C60.5007 5.24544 60.4323 5.42122 60.3281 5.56445C60.2565 5.63607 60.1296 5.71094 59.9473 5.78906C59.765 5.8737 59.5729 5.94206 59.3711 5.99414C59.2148 6.0332 58.987 6.07878 58.6875 6.13086C58.5378 6.16341 58.3132 6.19271 58.0137 6.21875H57.7305C57.6784 6.20573 57.6523 6.17969 57.6523 6.14062V5.99414C57.6719 5.91602 57.6914 5.82161 57.7109 5.71094C57.7305 5.51562 57.7695 5.30404 57.8281 5.07617ZM66.0605 16.5C65.9889 16.5195 65.9206 16.5293 65.8555 16.5293C65.8555 17.8184 65.7253 18.8079 65.4648 19.498C65.1523 20.2728 64.6901 20.8945 64.0781 21.3633C63.4596 21.8711 62.6751 22.2324 61.7246 22.4473C60.7871 22.6751 59.6771 22.7891 58.3945 22.7891C58.1016 22.8021 56.2884 22.7891 52.9551 22.75C54.7194 22.6914 55.901 22.6165 56.5 22.5254C57.112 22.5124 57.7826 22.4603 58.5117 22.3691C59.6966 22.3626 61.028 21.9036 62.5059 20.9922C63.9642 20.0807 64.8626 18.7852 65.2012 17.1055C65.2207 17.0208 65.2305 16.9557 65.2305 16.9102C65.2305 16.8581 65.2207 16.8223 65.2012 16.8027C65.123 16.8027 65.0612 16.8158 65.0156 16.8418C64.8659 16.9069 64.752 16.9557 64.6738 16.9883C64.498 17.0664 64.3255 17.1152 64.1562 17.1348C64.0977 17.1413 64.0423 17.1445 63.9902 17.1445C63.7038 17.1445 63.4694 17.0566 63.2871 16.8809C63.1178 16.666 63.0332 16.3665 63.0332 15.9824C63.0332 15.8783 63.056 15.6764 63.1016 15.377C63.1602 15.0905 63.222 14.8919 63.2871 14.7812C63.3587 14.612 63.4727 14.4492 63.6289 14.293C63.7526 14.1693 63.9382 14.1074 64.1855 14.1074C64.498 14.1074 64.7487 14.1823 64.9375 14.332C65.0677 14.4167 65.1686 14.5306 65.2402 14.6738C65.4811 14.6738 65.7546 14.6706 66.0605 14.6641V16.5ZM66.0703 14.6641C66.2005 14.6641 66.3633 14.6152 66.5586 14.5176C66.7018 14.4525 66.8906 14.3288 67.125 14.1465C67.3138 13.9577 67.4635 13.7754 67.5742 13.5996C67.6979 13.3717 67.7598 13.1732 67.7598 13.0039V12.9551C67.7598 12.7793 67.6914 12.6035 67.5547 12.4277C67.3854 12.2324 67.1348 12.0762 66.8027 11.959C66.7311 12.1152 66.679 12.2096 66.6465 12.2422C66.6204 12.2747 66.6042 12.291 66.5977 12.291C66.5911 12.291 66.5879 12.2845 66.5879 12.2715C66.5879 12.2585 66.5911 12.2389 66.5977 12.2129C66.6042 12.0892 66.6107 11.9525 66.6172 11.8027C66.6432 11.4837 66.666 11.2298 66.6855 11.041C66.7051 10.8197 66.7376 10.569 66.7832 10.2891C66.8223 10.0677 66.8743 9.95703 66.9395 9.95703C66.9915 9.95052 67.0436 9.94727 67.0957 9.94727C67.3691 9.94727 67.6035 10.0742 67.7988 10.3281C68.0202 10.6341 68.1732 11.0085 68.2578 11.4512C68.3359 11.8092 68.375 12.1771 68.375 12.5547C68.375 12.6979 68.3685 12.8411 68.3555 12.9844C68.2969 13.5573 68.1862 14.0814 68.0234 14.5566C67.8411 15.0514 67.584 15.4811 67.252 15.8457C66.9264 16.2103 66.5326 16.4284 66.0703 16.5V14.6641ZM66.0996 7.93555C66.1257 7.74023 66.1647 7.52865 66.2168 7.30078C66.2428 7.125 66.2656 6.87435 66.2852 6.54883C66.3307 6.54883 66.487 6.51628 66.7539 6.45117C67.0794 6.37956 67.3366 6.32422 67.5254 6.28516C67.6165 6.26562 67.7435 6.23633 67.9062 6.19727C68.082 6.14518 68.2025 6.11263 68.2676 6.09961C68.5215 6.03451 68.6712 5.99219 68.7168 5.97266C68.7363 5.96615 68.7559 5.96289 68.7754 5.96289C68.8079 5.96289 68.8405 5.97591 68.873 6.00195C68.9121 6.0931 68.9349 6.15169 68.9414 6.17773C68.9479 6.20378 68.9544 6.23958 68.9609 6.28516C68.9674 6.33724 68.974 6.3763 68.9805 6.40234V6.56836C68.9805 6.82878 68.9544 7.0599 68.9023 7.26172C68.8698 7.46354 68.8014 7.63607 68.6973 7.7793C68.6322 7.85091 68.5085 7.92578 68.3262 8.00391C68.1439 8.08854 67.9518 8.1569 67.75 8.20898C67.5938 8.25456 67.3691 8.30013 67.0762 8.3457C66.9199 8.37826 66.6953 8.40755 66.4023 8.43359H66.1191C66.0671 8.42057 66.041 8.39779 66.041 8.36523V8.20898C66.0605 8.13737 66.0801 8.04622 66.0996 7.93555Z" fill="#39629C"/>
</svg>
