<svg width="44" height="44" viewBox="0 0 44 44" fill="none" xmlns="http://www.w3.org/2000/svg">
<g filter="url(#filter0_d_417_7309)">
<g clip-path="url(#clip0_417_7309)">
<path d="M12.0124 14.7112C12.2271 14.717 12.4417 14.7273 12.6564 14.7273C17.8607 14.7284 23.0638 14.725 28.2682 14.7296C30.2034 14.7319 31.6394 15.8005 32.0951 17.5567C32.1926 17.9332 32.2248 18.3177 32.2248 18.7057C32.2225 22.2319 32.2259 25.7592 32.2225 29.2854C32.2202 31.5087 30.8474 33.0308 28.6378 33.2374C28.3221 33.2672 28.337 33.413 28.3657 33.6254C28.4931 34.5769 28.6217 35.5273 28.748 36.4789C28.7709 36.6476 28.7847 36.8175 28.8031 36.9943C28.5976 37.0253 28.5 36.8806 28.3818 36.7957C26.8598 35.6972 25.3377 34.5987 23.8237 33.4876C23.5907 33.3166 23.36 33.2454 23.073 33.2466C19.0739 33.2535 15.0737 33.2454 11.0746 33.2557C10.3136 33.258 9.59391 33.1329 8.91783 32.7794C7.56912 31.9357 6.98487 30.7213 6.99979 29.1327C7.03308 25.5778 7.00209 22.0218 7.01471 18.4658C7.0216 16.6247 8.28308 15.1267 10.0817 14.7881C10.7188 14.6687 11.3708 14.7801 12.0124 14.7112ZM17.6506 23.0468C17.7252 23.2259 17.7941 23.374 17.8492 23.5278C18.2452 24.6171 18.6538 25.7029 19.0234 26.8014C19.1302 27.1194 19.3047 27.1664 19.5905 27.163C19.8694 27.1596 20.0599 27.1355 20.169 26.8118C20.5592 25.6593 20.984 24.5195 21.4029 23.3774C21.4534 23.2397 21.4569 23.0675 21.6371 22.9573C21.6371 23.1226 21.6371 23.2626 21.6371 23.4027C21.6371 24.5207 21.6348 25.6387 21.6405 26.7555C21.6417 26.8864 21.5682 27.1091 21.7392 27.1297C22.0916 27.1722 22.452 27.1527 22.809 27.1355C22.941 27.1286 22.9192 26.9851 22.9192 26.891C22.9215 24.9569 22.9181 23.0216 22.9238 21.0875C22.925 20.8522 22.8182 20.7936 22.6093 20.7994C22.2661 20.8085 21.9206 20.8189 21.5785 20.7959C21.3099 20.7776 21.2055 20.8981 21.1251 21.1334C20.6763 22.4477 20.2149 23.7562 19.7558 25.067C19.7179 25.1772 19.6639 25.2805 19.5778 25.4768C19.1531 24.2452 18.7617 23.1123 18.3715 21.9793C17.9605 20.7856 17.9605 20.7982 16.7174 20.7936C16.3719 20.7925 16.2847 20.9027 16.287 21.2344C16.3019 22.9252 16.2939 24.6159 16.2939 26.3067C16.2939 27.171 16.2939 27.1515 17.149 27.1699C17.5094 27.1779 17.5749 27.0413 17.5703 26.7234C17.5553 25.649 17.5622 24.5735 17.5668 23.4991C17.568 23.3625 17.5221 23.2167 17.6506 23.0468ZM26.2881 27.2491C26.9734 27.2502 27.4314 27.1481 27.8297 26.9162C28.9029 26.2918 28.9844 24.8455 27.9858 24.1109C27.6254 23.8457 27.219 23.669 26.7932 23.5301C26.3857 23.3969 25.969 23.2787 25.6109 23.0296C25.1805 22.73 25.1701 22.186 25.5811 21.8669C26.0322 21.5168 27.2121 21.5914 27.3373 22.4063C27.3545 22.5188 27.366 22.6646 27.5186 22.6531C27.879 22.6267 28.368 22.8437 28.5666 22.551C28.764 22.2594 28.5126 21.8382 28.2865 21.5317C28.1935 21.4066 28.0776 21.2941 27.9559 21.1965C27.0859 20.5044 25.48 20.5227 24.6169 21.2287C23.7778 21.9151 23.8111 23.1398 24.6915 23.7792C25.0886 24.0684 25.5432 24.244 26.0058 24.4024C26.3444 24.5184 26.6922 24.6125 26.9963 24.8088C27.4084 25.0751 27.537 25.5641 27.2707 25.921C26.9596 26.3389 26.4982 26.3239 26.054 26.2665C25.6545 26.2149 25.2666 26.0462 25.1931 25.6065C25.1277 25.214 24.9256 25.16 24.6054 25.191C24.4631 25.2048 24.3184 25.2036 24.1761 25.1922C23.9155 25.1704 23.8581 25.3012 23.8823 25.5308C23.9396 26.0817 24.1991 26.5041 24.6639 26.8003C25.1747 27.1263 25.736 27.2663 26.2881 27.2491ZM13.0099 27.2468C13.5046 27.264 13.9833 27.1917 14.4275 26.9633C15.5834 26.3664 15.6935 24.8501 14.6375 24.0914C14.2851 23.8389 13.8926 23.6678 13.4817 23.5335C13.073 23.4004 12.6575 23.281 12.2994 23.0342C11.8747 22.7427 11.8575 22.1791 12.2569 21.8692C12.7137 21.5145 13.888 21.5948 14.0188 22.4029C14.0361 22.5062 14.0349 22.6531 14.1968 22.6566C14.5113 22.6623 14.8281 22.6681 15.1414 22.652C15.34 22.6417 15.2907 22.4695 15.2803 22.3524C15.2333 21.7785 14.9383 21.3411 14.4481 21.0726C13.4713 20.5377 12.4612 20.5193 11.5005 21.0921C10.4031 21.7463 10.4089 23.1685 11.4821 23.8607C11.8448 24.0948 12.2443 24.2544 12.6518 24.3933C13.003 24.5138 13.3669 24.6091 13.6825 24.8134C14.0889 25.0762 14.2151 25.5836 13.9454 25.9291C13.6286 26.3366 13.1683 26.3251 12.7229 26.2654C12.3212 26.2114 11.939 26.0347 11.8666 25.5985C11.8058 25.23 11.6371 25.1577 11.3203 25.191C11.1504 25.2094 10.9759 25.2025 10.8049 25.1933C10.5902 25.1818 10.5294 25.2863 10.5501 25.4814C10.6086 26.0427 10.8508 26.4915 11.334 26.7968C11.846 27.1205 12.4073 27.2663 13.0099 27.2468Z" fill="#4AA9C6"/>
<path d="M35.9841 8.89625C36.3491 9.58381 36.4696 10.3173 36.4662 11.0944C36.4524 14.6205 36.465 18.1467 36.4581 21.6729C36.4535 23.6277 35.2472 25.1015 33.3785 25.4665C32.8264 25.5744 32.8172 25.5687 32.8172 25.0234C32.816 22.8873 32.8241 20.7512 32.8149 18.6162C32.8045 16.3859 31.434 14.6527 29.3335 14.2085C29.0281 14.1442 28.7079 14.1235 28.3945 14.1235C22.8183 14.1189 17.2421 14.1201 11.6659 14.1201C11.5798 14.1201 11.4949 14.1316 11.4088 14.1373C11.2986 14.0742 11.2538 13.98 11.2561 13.8526C11.2768 12.6922 11.1838 11.5271 11.302 10.3712C11.4972 8.44974 13.0479 7.03675 14.982 7.01723C17.0321 6.99542 19.0832 7.01149 21.1333 7.01149C24.8477 7.01149 28.561 7.03445 32.2742 7.00116C33.872 6.98509 35.1175 7.5395 35.9841 8.89625Z" fill="#4AA9C6"/>
<path d="M17.6506 23.0469C17.5221 23.2167 17.568 23.3625 17.568 23.498C17.5634 24.5723 17.5565 25.6479 17.5714 26.7222C17.576 27.0402 17.5106 27.1768 17.1502 27.1688C16.295 27.1504 16.295 27.1699 16.295 26.3056C16.295 24.6148 16.3031 22.924 16.2881 21.2333C16.2858 20.9015 16.3731 20.7913 16.7186 20.7925C17.9628 20.7971 17.9617 20.7845 18.3726 21.9782C18.7629 23.1111 19.1543 24.2441 19.579 25.4757C19.6651 25.2794 19.7179 25.1761 19.7569 25.0659C20.216 23.7562 20.6775 22.4465 21.1263 21.1323C21.2066 20.8969 21.3111 20.7764 21.5797 20.7948C21.9217 20.8177 22.2672 20.8074 22.6104 20.7982C22.8194 20.7925 22.9261 20.851 22.925 21.0863C22.9192 23.0205 22.9227 24.9557 22.9204 26.8898C22.9204 26.9851 22.9422 27.1286 22.8102 27.1343C22.4543 27.1515 22.0928 27.171 21.7404 27.1286C21.5682 27.1079 21.6417 26.8864 21.6417 26.7544C21.6359 25.6364 21.6382 24.5184 21.6382 23.4015C21.6382 23.2615 21.6382 23.1215 21.6382 22.9562C21.458 23.0664 21.4546 23.2385 21.4041 23.3763C20.9851 24.5184 20.5604 25.6582 20.1701 26.8106C20.0599 27.1343 19.8705 27.1596 19.5916 27.1619C19.3058 27.1653 19.1313 27.1182 19.0246 26.8003C18.655 25.7018 18.2463 24.616 17.8503 23.5266C17.7941 23.374 17.7252 23.2259 17.6506 23.0469Z" fill="#FEFDFB"/>
<path d="M26.288 27.2491C25.7359 27.2652 25.1735 27.1251 24.6627 26.8014C24.1978 26.5064 23.9384 26.0829 23.881 25.5319C23.8569 25.3024 23.9143 25.1715 24.1748 25.1933C24.3172 25.2048 24.4629 25.2059 24.6041 25.1922C24.9244 25.16 25.1264 25.214 25.1918 25.6077C25.2653 26.0462 25.6533 26.216 26.0527 26.2677C26.4969 26.3251 26.9583 26.34 27.2694 25.9222C27.5346 25.5652 27.406 25.0762 26.9951 24.8099C26.6909 24.6137 26.342 24.5195 26.0045 24.4036C25.5419 24.2452 25.0874 24.0707 24.6902 23.7803C23.8098 23.1398 23.7777 21.9162 24.6156 21.2298C25.4788 20.5239 27.0846 20.5055 27.9547 21.1977C28.0763 21.2952 28.1934 21.4077 28.2853 21.5328C28.5125 21.8405 28.7628 22.2606 28.5653 22.5521C28.3668 22.8448 27.8778 22.6279 27.5173 22.6543C27.3647 22.6658 27.3544 22.52 27.336 22.4075C27.2109 21.5925 26.0297 21.5168 25.5798 21.868C25.17 22.1871 25.1803 22.7312 25.6096 23.0308C25.9678 23.2799 26.3844 23.3981 26.7919 23.5312C27.2166 23.6701 27.6229 23.8458 27.9845 24.112C28.9831 24.8467 28.9016 26.293 27.8284 26.9174C27.4324 27.1481 26.9733 27.2514 26.288 27.2491Z" fill="#FEFDFB"/>
<path d="M13.01 27.248C12.4062 27.2663 11.8461 27.1217 11.3342 26.798C10.8509 26.4927 10.6076 26.0439 10.5502 25.4826C10.5295 25.2863 10.5904 25.183 10.805 25.1945C10.976 25.2036 11.1505 25.2094 11.3204 25.1922C11.636 25.1589 11.8059 25.2323 11.8668 25.5997C11.9391 26.0358 12.3213 26.2115 12.723 26.2665C13.1684 26.3274 13.6275 26.3377 13.9455 25.9302C14.2152 25.5836 14.0901 25.0774 13.6826 24.8145C13.367 24.6102 13.0031 24.5149 12.6519 24.3944C12.2444 24.2544 11.8449 24.096 11.4822 23.8618C10.409 23.1685 10.4033 21.7475 11.5006 21.0932C12.4613 20.5204 13.4703 20.5388 14.4483 21.0737C14.9384 21.3423 15.2334 21.7796 15.2804 22.3536C15.2896 22.4706 15.339 22.644 15.1415 22.6531C14.827 22.6692 14.5114 22.6623 14.1969 22.6577C14.035 22.6554 14.0362 22.5085 14.019 22.4041C13.8881 21.596 12.7139 21.5156 12.257 21.8703C11.8576 22.1802 11.8748 22.745 12.2995 23.0354C12.6588 23.281 13.0743 23.4015 13.4818 23.5347C13.8927 23.669 14.2864 23.84 14.6376 24.0925C15.6948 24.8513 15.5835 26.3676 14.4276 26.9644C13.9834 27.1929 13.5047 27.2652 13.01 27.248Z" fill="#FEFDFB"/>
</g>
<g filter="url(#filter1_d_417_7309)">
<path d="M30 22C25.5853 22 22 25.5853 22 30C22 34.4147 25.5853 38 30 38C34.4147 38 38 34.4147 38 30C38 25.5853 34.4147 22 30 22ZM29.1973 26.4147C29.1973 25.9599 29.5452 25.612 30 25.612C30.4549 25.612 30.8027 25.9599 30.8027 26.4147V30.1338C30.8027 30.5886 30.4549 30.9365 30 30.9365C29.5452 30.9365 29.1973 30.5886 29.1973 30.1338V26.4147ZM30 33.5853C29.4114 33.5853 28.9298 33.1037 28.9298 32.5151C28.9298 31.9264 29.4114 31.4448 30 31.4448C30.5886 31.4448 31.0702 31.9264 31.0702 32.5151C31.0702 33.1037 30.5886 33.5853 30 33.5853Z" fill="#C32222"/>
</g>
</g>
<defs>
<filter id="filter0_d_417_7309" x="-2" y="0" width="48" height="48" filterUnits="userSpaceOnUse" color-interpolation-filters="sRGB">
<feFlood flood-opacity="0" result="BackgroundImageFix"/>
<feColorMatrix in="SourceAlpha" type="matrix" values="0 0 0 0 0 0 0 0 0 0 0 0 0 0 0 0 0 0 127 0" result="hardAlpha"/>
<feOffset dy="2"/>
<feGaussianBlur stdDeviation="1"/>
<feComposite in2="hardAlpha" operator="out"/>
<feColorMatrix type="matrix" values="0 0 0 0 0.766667 0 0 0 0 0.566667 0 0 0 0 0.0333333 0 0 0 0.32 0"/>
<feBlend mode="normal" in2="BackgroundImageFix" result="effect1_dropShadow_417_7309"/>
<feBlend mode="normal" in="SourceGraphic" in2="effect1_dropShadow_417_7309" result="shape"/>
</filter>
<filter id="filter1_d_417_7309" x="20" y="20.5" width="20" height="20" filterUnits="userSpaceOnUse" color-interpolation-filters="sRGB">
<feFlood flood-opacity="0" result="BackgroundImageFix"/>
<feColorMatrix in="SourceAlpha" type="matrix" values="0 0 0 0 0 0 0 0 0 0 0 0 0 0 0 0 0 0 127 0" result="hardAlpha"/>
<feOffset dy="0.5"/>
<feGaussianBlur stdDeviation="1"/>
<feComposite in2="hardAlpha" operator="out"/>
<feColorMatrix type="matrix" values="0 0 0 0 0 0 0 0 0 0 0 0 0 0 0 0 0 0 0.2 0"/>
<feBlend mode="normal" in2="BackgroundImageFix" result="effect1_dropShadow_417_7309"/>
<feBlend mode="normal" in="SourceGraphic" in2="effect1_dropShadow_417_7309" result="shape"/>
</filter>
<clipPath id="clip0_417_7309">
<rect width="29.4663" height="30" fill="white" transform="translate(7 7)"/>
</clipPath>
</defs>
</svg>
