<svg width="32" height="33" viewBox="0 0 32 33" fill="none" xmlns="http://www.w3.org/2000/svg">
<path d="M5.04607 17.0103C5.0133 11.2352 9.74805 6.54957 15.5027 6.54547C21.2532 6.54138 25.9674 11.2475 25.9551 16.9939C25.9429 22.7853 21.2818 27.4464 15.4986 27.4545C9.73576 27.4627 5.0174 22.7444 5.04607 17.0103ZM22.4164 22.388C25.0991 19.0745 25.0991 13.6025 21.1221 10.2563C17.5055 7.20899 12.6806 7.90118 10.1535 10.072C14.2371 14.176 18.3206 18.2759 22.4164 22.388ZM8.57665 11.6161C5.95124 14.8477 5.88161 20.164 9.63337 23.539C13.25 26.791 18.1813 26.1808 20.8395 23.9363C16.756 19.8323 12.6725 15.7324 8.57665 11.6161Z" fill="#FF9626" stroke="#FF9626" stroke-width="0.2"/>
</svg>
