<svg width="48" height="48" viewBox="0 0 48 48" fill="none" xmlns="http://www.w3.org/2000/svg">
<g filter="url(#filter0_d_2531_24067)">
<circle cx="24" cy="22" r="20" fill="#FF9626"/>
<g clip-path="url(#clip0_2531_24067)">
<path d="M19.9544 33.9982C19.9544 33.8559 19.9544 33.7406 19.9544 33.5928C20.0499 33.5928 20.14 33.5928 20.2301 33.5928C21.729 33.5928 23.228 33.5948 24.7277 33.5921C29.5023 33.5853 33.6226 30.664 35.0627 26.1128C36.2548 22.3447 35.5368 18.8708 33.0083 15.8268C31.302 13.7726 29.0762 12.5705 26.4407 12.1556C25.8663 12.0655 25.2777 12.0363 24.6952 12.0343C21.9593 12.0221 19.2235 12.0289 16.4884 12.0289C16.1037 12.0289 16.0833 12.0085 16.0833 11.6282C16.0833 11.2899 16.0833 10.9509 16.0833 10.5583C14.919 11.2573 13.7878 11.936 12.616 12.639C13.7851 13.3414 14.9122 14.018 16.0827 14.721C16.0827 14.3156 16.082 13.9563 16.0827 13.5963C16.084 13.2953 16.1253 13.2505 16.4152 13.2505C19.2357 13.2499 22.0562 13.2336 24.876 13.2546C29.5307 13.2885 33.4255 16.6037 34.2349 21.1929C35.1446 26.3515 31.615 31.3691 26.4678 32.2199C25.9354 32.3081 25.3915 32.3596 24.8523 32.3657C23.1501 32.384 21.4479 32.3725 19.7451 32.3725C19.6868 32.3725 19.6293 32.3725 19.5548 32.3725C19.5548 32.2348 19.5548 32.1142 19.5548 31.9657C19.6496 31.9657 19.7404 31.9657 19.8311 31.9657C21.5164 31.9657 23.2023 31.9779 24.8875 31.9623C29.0566 31.923 32.6296 29.123 33.6822 25.0844C35.0179 19.9617 31.6359 14.7007 26.4231 13.8085C25.9164 13.7217 25.3976 13.6675 24.8841 13.6648C22.1483 13.6505 19.4125 13.658 16.6774 13.6573C16.6273 13.6573 16.5771 13.6573 16.4891 13.6573C16.4891 14.0282 16.4891 14.3888 16.4891 14.7495C16.4891 14.8343 16.4918 14.919 16.4884 15.0038C16.4782 15.2736 16.3441 15.3502 16.1084 15.2105C15.5333 14.8695 14.9617 14.5231 14.3886 14.1787C13.6706 13.7475 12.9513 13.3177 12.234 12.8851C11.938 12.7068 11.9373 12.5753 12.234 12.3963C13.5175 11.6241 14.8011 10.8526 16.0861 10.0831C16.3597 9.91903 16.4877 9.997 16.4891 10.3251C16.4911 10.7475 16.4898 11.1692 16.4898 11.6221C16.6063 11.6221 16.7052 11.6221 16.8034 11.6221C19.5473 11.6228 22.2919 11.6024 25.0359 11.6289C30.0103 11.677 34.4293 15.1793 35.6472 20.0051C37.0825 25.6939 34.0277 31.4138 28.4978 33.3779C27.3565 33.7833 26.1752 33.9901 24.9627 33.9955C23.3025 34.0037 21.643 33.9982 19.9544 33.9982Z" fill="white" stroke="white" stroke-width="0.2"/>
<path d="M19.1443 27.889C19.1443 27.7453 19.1443 27.6293 19.1443 27.4958C19.8812 27.4958 20.6067 27.4958 21.3504 27.4958C21.3504 27.2205 21.3504 26.9636 21.3504 26.6788C20.3479 26.6788 19.3448 26.6788 18.3315 26.6788C18.3315 26.5358 18.3315 26.4199 18.3315 26.2775C19.3333 26.2775 20.3364 26.2775 21.3538 26.2775C21.3538 26.0002 21.3538 25.7487 21.3538 25.4558C21.2651 25.4558 21.1682 25.4558 21.0707 25.4558C18.9959 25.4558 16.9212 25.4558 14.8458 25.4558C14.4821 25.4558 14.457 25.43 14.457 25.0646C14.457 22.4883 14.457 19.9121 14.457 17.3358C14.457 16.9006 14.4672 16.8891 14.8932 16.8904C18.4331 16.8972 21.9729 16.9053 25.5127 16.9121C25.613 16.9121 25.7125 16.9121 25.8406 16.9121C25.8406 16.5982 25.848 16.304 25.8385 16.0104C25.8311 15.7853 25.9178 15.6796 26.1501 15.6891C26.3872 15.6986 26.6242 15.6877 26.8613 15.6918C27.5055 15.7026 28.0406 16.0999 28.2174 16.7202C28.2614 16.8762 28.3251 16.9155 28.4761 16.9141C29.2469 16.9074 30.0171 16.9101 30.7879 16.9114C31.0826 16.9121 31.1259 16.9548 31.1259 17.2518C31.1266 20.6843 31.1266 24.1161 31.1259 27.5487C31.1259 27.849 31.0819 27.8958 30.794 27.8958C26.9663 27.8965 23.1379 27.8965 19.3102 27.8958C19.2608 27.8965 19.2113 27.8917 19.1443 27.889ZM14.875 25.0483C14.9948 25.0483 15.0876 25.0483 15.1804 25.0483C19.0075 25.0483 22.8352 25.0483 26.6622 25.0483C26.7387 25.0483 26.8146 25.0504 26.8904 25.047C27.4479 25.0219 27.8787 24.5704 27.8726 24.0185C27.8665 23.4775 27.4384 23.0368 26.8911 23.0165C26.6629 23.0077 26.4339 23.0151 26.2056 23.0138C25.8765 23.0124 25.8412 22.9785 25.8412 22.649C25.8406 20.9711 25.8412 19.2938 25.8412 17.6158C25.8412 17.525 25.8412 17.4341 25.8412 17.3196C22.1734 17.3196 18.5299 17.3196 14.875 17.3196C14.875 19.8924 14.875 22.4565 14.875 25.0483ZM28.2912 18.1284C28.6014 18.0836 28.6766 18.2423 28.7118 18.5175C28.7694 18.9745 29.1413 19.3033 29.6127 19.344C29.8491 19.3643 29.9107 19.4707 29.9094 19.6857C29.9033 20.685 29.9033 21.685 29.9094 22.6843C29.9107 22.9012 29.8437 23.0036 29.61 23.0239C29.1474 23.0639 28.7816 23.3778 28.7179 23.828C28.6766 24.1195 28.6068 24.3026 28.3169 24.2443C28.1754 24.5311 28.0507 24.7833 27.9261 25.0355C28.8473 25.0355 29.7732 25.0355 30.7053 25.0355C30.7053 22.4599 30.7053 19.8985 30.7053 17.3379C29.8911 17.3379 29.0925 17.3379 28.2926 17.3379C28.2912 17.607 28.2912 17.8585 28.2912 18.1284ZM26.2646 16.1006C26.2646 18.2836 26.2646 20.4375 26.2646 22.6151C26.839 22.5867 27.3991 22.5663 27.8699 23.0328C27.8699 20.986 27.8787 19.005 27.8638 17.0246C27.8597 16.5345 27.4303 16.1372 26.9406 16.1033C26.7225 16.0884 26.5023 16.1006 26.2646 16.1006ZM24.2264 26.2517C26.3994 26.2517 28.552 26.2517 30.6992 26.2517C30.6992 25.9771 30.6992 25.7202 30.6992 25.468C28.5317 25.468 26.3851 25.468 24.2264 25.468C24.2264 25.7317 24.2264 25.9826 24.2264 26.2517ZM24.2271 27.4754C26.3926 27.4754 28.5459 27.4754 30.7026 27.4754C30.7026 27.2043 30.7026 26.9473 30.7026 26.6944C28.5323 26.6944 26.3797 26.6944 24.2271 26.6944C24.2271 26.9643 24.2271 27.2151 24.2271 27.4754ZM28.2858 23.6843C28.4836 23.1548 28.8189 22.7982 29.3641 22.6463C29.4203 22.6307 29.4935 22.5372 29.4942 22.4789C29.5023 21.6151 29.5016 20.7514 29.4962 19.8877C29.4962 19.8341 29.4522 19.7426 29.4136 19.7331C28.8399 19.5934 28.4876 19.2226 28.2865 18.5996C28.2858 20.3501 28.2858 22.0172 28.2858 23.6843ZM23.7936 27.4775C23.7936 26.79 23.7936 26.1331 23.7936 25.4714C23.1169 25.4714 22.4538 25.4714 21.7934 25.4714C21.7934 26.1514 21.7934 26.8144 21.7934 27.4775C22.4687 27.4775 23.1257 27.4775 23.7936 27.4775Z" fill="white" stroke="white" stroke-width="0.2"/>
<path d="M18.9996 29.7488C18.8723 30.218 18.7402 30.6864 18.621 31.1576C18.5905 31.279 18.5641 31.4227 18.5993 31.5359C18.8147 32.2213 19.0538 32.8993 19.2719 33.584C19.3058 33.6905 19.2713 33.8193 19.2685 33.9373C19.1514 33.9332 19.0206 33.9623 18.919 33.9203C18.2397 33.6403 17.5684 33.3393 16.8883 33.0613C16.7685 33.0125 16.6086 33.0051 16.4826 33.0383C15.0642 33.4118 13.8294 33.0864 12.8744 31.98C11.9186 30.8729 11.7405 29.5861 12.3691 28.2607C13.0024 26.9258 14.1187 26.262 15.5905 26.2858C17.4417 26.3156 18.9265 27.8742 18.9265 29.7291C18.9509 29.7352 18.9753 29.742 18.9996 29.7488ZM18.7937 33.4267C18.5783 32.7793 18.3948 32.199 18.1902 31.6254C18.1137 31.4112 18.1225 31.2349 18.2227 31.0247C19.1534 29.0769 17.7845 26.7664 15.6393 26.6858C14.3564 26.637 13.3655 27.1915 12.7741 28.3346C12.1828 29.4783 12.2952 30.6159 13.0965 31.62C13.9039 32.6322 14.9911 32.9881 16.2482 32.6613C16.6066 32.5685 16.8911 32.5935 17.2101 32.744C17.7127 32.98 18.2281 33.1847 18.7937 33.4267Z" fill="white" stroke="white" stroke-width="0.2"/>
<path d="M17.3272 23.8281C17.7519 23.8281 18.1909 23.8281 18.6298 23.8281C19.0592 23.8281 19.4893 23.8281 19.9316 23.8281C19.9316 23.9658 19.9316 24.081 19.9316 24.2091C19.9079 24.2159 19.8775 24.2329 19.8463 24.2329C18.9576 24.2349 18.0689 24.2329 17.1803 24.2363C16.9933 24.2369 16.91 24.1617 16.8897 23.9691C16.8307 23.4166 16.4934 23.0797 15.9394 23.0193C15.747 22.9983 15.6738 22.9142 15.6745 22.7271C15.6779 21.702 15.6779 20.6776 15.6738 19.6526C15.6732 19.4546 15.7477 19.3671 15.9522 19.3461C16.4846 19.2919 16.8314 18.9414 16.8897 18.4092C16.908 18.241 16.9588 18.1326 17.1437 18.1326C18.0656 18.1326 18.9867 18.1326 19.9262 18.1326C19.9262 18.2668 19.9262 18.3875 19.9262 18.5393C19.5063 18.5393 19.0856 18.5393 18.665 18.5393C18.2674 18.5393 17.8691 18.5339 17.4715 18.5448C17.4004 18.5468 17.2825 18.6051 17.2676 18.66C17.1017 19.26 16.7041 19.6051 16.0985 19.7515C16.0924 19.8085 16.0823 19.8648 16.0823 19.921C16.0809 20.7509 16.085 21.5814 16.0782 22.4112C16.0769 22.5617 16.1161 22.6254 16.2719 22.6702C16.7718 22.8139 17.0942 23.1515 17.248 23.6498C17.2629 23.698 17.2791 23.7454 17.2954 23.7929C17.2988 23.7997 17.3069 23.8051 17.3272 23.8281Z" fill="white" stroke="white" stroke-width="0.2"/>
<path d="M22.7768 19.3528C23.7942 19.3481 24.6213 20.1711 24.6213 21.188C24.6213 22.1901 23.7969 23.0138 22.7938 23.0131C21.7872 23.0124 20.9656 22.1948 20.9629 21.1914C20.9609 20.184 21.7764 19.3575 22.7768 19.3528ZM24.2148 21.1901C24.2196 20.407 23.5795 19.7596 22.7999 19.7596C22.0121 19.7589 21.3768 20.3887 21.3693 21.1758C21.3625 21.9562 22.0033 22.6043 22.7843 22.6063C23.5687 22.6091 24.2101 21.9731 24.2148 21.1901Z" fill="white" stroke="white" stroke-width="0.2"/>
<path d="M19.935 20.9937C19.935 21.1204 19.935 21.2357 19.935 21.3692C19.0016 21.3692 18.0682 21.3692 17.1172 21.3692C17.1172 21.2499 17.1172 21.1292 17.1172 20.9937C18.0546 20.9937 18.9887 20.9937 19.935 20.9937Z" fill="white" stroke="white" stroke-width="0.2"/>
<path d="M16.523 27.5879C16.6423 27.6679 16.7445 27.737 16.8597 27.8143C16.0435 29.0387 15.2374 30.2469 14.4226 31.4706C14.3034 31.3906 14.2011 31.3208 14.0859 31.2435C14.9028 30.0184 15.7082 28.8109 16.523 27.5879Z" fill="white" stroke="white" stroke-width="0.2"/>
<path d="M15.0553 28.3174C15.0553 28.4435 15.0553 28.5587 15.0553 28.6923C14.8004 28.6923 14.5434 28.6923 14.2695 28.6923C14.2695 28.5737 14.2695 28.453 14.2695 28.3174C14.5299 28.3174 14.7868 28.3174 15.0553 28.3174Z" fill="white"/>
<path d="M15.4844 30.7544C15.7528 30.7544 16.003 30.7544 16.2701 30.7544C16.2701 30.8812 16.2701 31.0019 16.2701 31.1374C16.0098 31.1374 15.7528 31.1374 15.4844 31.1374C15.4844 31.012 15.4844 30.8968 15.4844 30.7544Z" fill="white"/>
</g>
</g>
<defs>
<filter id="filter0_d_2531_24067" x="0" y="0" width="48" height="48" filterUnits="userSpaceOnUse" color-interpolation-filters="sRGB">
<feFlood flood-opacity="0" result="BackgroundImageFix"/>
<feColorMatrix in="SourceAlpha" type="matrix" values="0 0 0 0 0 0 0 0 0 0 0 0 0 0 0 0 0 0 127 0" result="hardAlpha"/>
<feOffset dy="2"/>
<feGaussianBlur stdDeviation="2"/>
<feComposite in2="hardAlpha" operator="out"/>
<feColorMatrix type="matrix" values="0 0 0 0 0 0 0 0 0 0 0 0 0 0 0 0 0 0 0.1 0"/>
<feBlend mode="normal" in2="BackgroundImageFix" result="effect1_dropShadow_2531_24067"/>
<feBlend mode="normal" in="SourceGraphic" in2="effect1_dropShadow_2531_24067" result="shape"/>
</filter>
<clipPath id="clip0_2531_24067">
<rect width="26" height="26" fill="white" transform="translate(11 9)"/>
</clipPath>
</defs>
</svg>
