<svg width="34" height="28" viewBox="0 0 34 28" fill="none" xmlns="http://www.w3.org/2000/svg">
<path d="M6.41162 19.2941C6.41162 19.0588 6.52927 18.8235 6.52927 18.5882C6.99986 16.9412 8.52927 15.7647 10.294 15.7647C10.7646 15.7647 11.2352 15.6471 11.7057 15.4118C12.4116 15.0588 13.1175 14.8235 13.941 14.8235C15.941 14.8235 17.941 14.8235 20.0587 14.8235C20.9999 14.8235 21.941 15.0588 22.7646 15.6471C22.8822 15.7647 22.9999 15.7647 23.1175 15.7647C23.8234 15.7647 24.5293 15.7647 25.1175 16.1177C26.5293 16.7059 27.3528 17.7647 27.5881 19.2941V19.4118C27.5881 19.8824 27.5881 20.3529 27.5881 20.8235C27.4704 21.0588 27.2351 21.1765 26.9999 21.1765C26.6469 21.1765 26.1763 21.1765 25.8234 21.1765C25.5881 21.1765 25.2351 21.1765 24.8822 21.1765C24.8822 21.6471 24.8822 22 24.8822 22.4706C24.8822 22.8235 24.7646 22.9412 24.4116 22.9412H24.294C19.3528 22.9412 14.5293 22.9412 9.58809 22.9412H9.47044C9.1175 22.9412 8.99986 22.8235 8.99986 22.4706C8.99986 22.1177 8.99986 21.7647 8.99986 21.4118C8.99986 21.2941 8.99986 21.2941 8.99986 21.1765C8.29397 21.1765 7.58809 21.1765 6.99986 21.1765C6.76456 21.1765 6.52927 21.0588 6.41162 20.8235C6.41162 20.2353 6.41162 19.7647 6.41162 19.2941ZM9.94103 21.8824C14.6469 21.8824 19.3528 21.8824 24.0587 21.8824V21.7647C24.0587 21.0588 24.0587 20.3529 24.0587 19.6471C24.0587 19.4118 24.0587 19.0588 23.941 18.8235C23.5881 17.0588 21.941 15.7647 20.0587 15.7647C18.0587 15.7647 15.941 15.7647 13.941 15.7647C13.7057 15.7647 13.3528 15.7647 13.1175 15.8824C11.4704 16.2353 10.0587 17.6471 9.94103 19.2941C9.94103 19.7647 9.94103 20.3529 9.94103 20.8235C9.94103 21.1765 9.94103 21.5294 9.94103 21.8824ZM23.8234 16.7059C24.1763 17.1765 24.5293 17.7647 24.6469 18.3529C24.8822 18.9412 24.8822 19.5294 24.8822 20.2353C25.4704 20.2353 26.0587 20.2353 26.6469 20.2353C26.8822 18 25.2351 16.7059 23.8234 16.7059ZM10.1763 16.7059C8.52927 16.7059 6.99986 18.5882 7.3528 20.2353C7.94103 20.2353 8.52927 20.2353 9.1175 20.2353C9.1175 19.6471 9.1175 18.9412 9.3528 18.3529C9.47044 17.7647 9.70574 17.1765 10.1763 16.7059Z" fill="#39629C" stroke="#39629C" stroke-width="0.8"/>
<path d="M12.6468 8.70588C13.1174 6.35294 15.235 5.17647 16.9998 5.17647C18.7645 5.17647 20.8821 6.35294 21.3527 8.70588C22.2939 8.58823 23.1174 8.82353 23.8233 9.41176C24.2939 9.88235 24.6468 10.4706 24.8821 11.0588C25.235 12.4706 24.5292 13.8824 23.235 14.5882C22.0586 15.1765 20.2939 14.9412 19.235 13.4118C17.7056 14.2353 16.2939 14.2353 14.7645 13.4118C14.2939 14.1176 13.588 14.7059 12.6468 14.8235C11.9409 14.9412 11.3527 14.8235 10.7645 14.5882C9.47034 13.8824 8.76446 12.4706 9.1174 11.0588C9.35269 10.2353 9.70564 9.64706 10.4115 9.17647C11.1174 8.82353 11.8233 8.58823 12.6468 8.70588ZM20.5292 9.64706C20.5292 7.64706 18.9998 6.11764 16.9998 6.11764C14.9998 6.11764 13.4703 7.64706 13.4703 9.64706C13.4703 11.6471 14.9998 13.1765 16.9998 13.1765C18.8821 13.1765 20.5292 11.5294 20.5292 9.64706ZM14.0586 12.9412C13.1174 12 12.6468 10.9412 12.6468 9.7647C12.6468 9.64706 12.5292 9.64706 12.5292 9.64706C10.9998 9.41176 9.82328 10.7059 9.94093 12.1176C10.0586 12.9412 10.7645 13.7647 11.7056 13.8824C12.6468 14.1176 13.588 13.7647 14.0586 12.9412ZM19.9409 12.9412C20.4115 13.7647 21.3527 14.2353 22.2939 14C23.4703 13.7647 24.2939 12.7059 24.0586 11.4118C23.8233 10.2353 22.7645 9.41176 21.588 9.64706L21.4703 9.7647C21.4703 10 21.4703 10.2353 21.3527 10.4706C21.1174 11.4118 20.6468 12.2353 19.9409 12.9412Z" fill="#39629C" stroke="#39629C" stroke-width="0.8"/>
</svg>
