<svg width="28" height="28" viewBox="0 0 28 28" fill="none" xmlns="http://www.w3.org/2000/svg">
<g filter="url(#filter0_d_465_7588)">
<path d="M21.7 4.1625C19.6375 2.1 17.025 1 14 1C8.0875 1 3.1375 5.95 3.1375 11.8625C3.1375 13.7875 3.6875 15.7125 4.65 17.3625L3 23L8.775 21.4875C10.425 22.3125 12.2125 22.8625 14 22.8625C20.05 22.8625 24.8625 17.9125 24.8625 12C25 8.975 23.7625 6.225 21.7 4.1625ZM19.3625 15.85C19.0875 16.5375 17.9875 17.0875 17.575 17.0875C17.1625 17.225 15.7875 17.0875 14.275 16.4C11.525 15.1625 9.7375 12.4125 9.6 12.275C9.4625 12.1375 8.5 10.7625 8.5 9.525C8.5 8.2875 9.1875 7.4625 9.4625 7.1875C10.0125 6.6375 11.1125 6.775 11.3875 7.325C11.525 7.875 12.075 9.25 12.2125 9.3875C12.35 9.525 12.35 10.075 11.9375 10.35C11.8 10.35 11.1125 10.9 11.3875 11.3125C11.525 11.5875 12.075 12.4125 12.9 13.2375C14 14.2 14.825 14.475 15.1 14.6125C15.375 14.75 15.5125 14.75 15.65 14.475C15.7875 14.3375 16.3375 13.65 16.475 13.375C16.6125 13.1 16.8875 13.1 17.025 13.2375C17.1625 13.375 18.675 13.925 18.95 14.0625C19.225 14.3375 19.5 14.3375 19.5 14.475C19.6375 14.6125 19.6375 15.1625 19.3625 15.85Z" fill="#70CC33"/>
<path d="M19.3625 15.85C19.0875 16.5375 17.9875 17.0875 17.575 17.0875C17.1625 17.225 15.7875 17.0875 14.275 16.4C11.525 15.1625 9.7375 12.4125 9.6 12.275C9.4625 12.1375 8.5 10.7625 8.5 9.525C8.5 8.2875 9.1875 7.4625 9.4625 7.1875C10.0125 6.6375 11.1125 6.775 11.3875 7.325C11.525 7.875 12.075 9.25 12.2125 9.3875C12.35 9.525 12.35 10.075 11.9375 10.35C11.8 10.35 11.1125 10.9 11.3875 11.3125C11.525 11.5875 12.075 12.4125 12.9 13.2375C14 14.2 14.825 14.475 15.1 14.6125C15.375 14.75 15.5125 14.75 15.65 14.475C15.7875 14.3375 16.3375 13.65 16.475 13.375C16.6125 13.1 16.8875 13.1 17.025 13.2375C17.1625 13.375 18.675 13.925 18.95 14.0625C19.225 14.3375 19.5 14.3375 19.5 14.475C19.6375 14.6125 19.6375 15.1625 19.3625 15.85Z" fill="#C32222"/>
<path d="M3.12668 23.4837L8.72122 22.0184C10.3712 22.8205 12.1749 23.3625 14 23.3625C20.3264 23.3625 25.3563 18.1909 25.3625 12.0114C25.5035 8.8336 24.2002 5.9556 22.0536 3.80895C19.8969 1.6523 17.1571 0.5 14 0.5C7.81136 0.5 2.6375 5.67386 2.6375 11.8625C2.6375 13.8075 3.17241 15.7462 4.11048 17.4259L2.52013 22.8596C2.46952 23.0325 2.51586 23.2193 2.64143 23.3485C2.767 23.4777 2.95238 23.5293 3.12668 23.4837Z" stroke="white" stroke-linejoin="round"/>
</g>
<defs>
<filter id="filter0_d_465_7588" x="-1" y="0" width="29" height="29" filterUnits="userSpaceOnUse" color-interpolation-filters="sRGB">
<feFlood flood-opacity="0" result="BackgroundImageFix"/>
<feColorMatrix in="SourceAlpha" type="matrix" values="0 0 0 0 0 0 0 0 0 0 0 0 0 0 0 0 0 0 127 0" result="hardAlpha"/>
<feOffset dy="2"/>
<feGaussianBlur stdDeviation="1"/>
<feComposite in2="hardAlpha" operator="out"/>
<feColorMatrix type="matrix" values="0 0 0 0 0.766667 0 0 0 0 0.566667 0 0 0 0 0.0333333 0 0 0 0.32 0"/>
<feBlend mode="normal" in2="BackgroundImageFix" result="effect1_dropShadow_465_7588"/>
<feBlend mode="normal" in="SourceGraphic" in2="effect1_dropShadow_465_7588" result="shape"/>
</filter>
</defs>
</svg>
