<svg width="36" height="36" viewBox="0 0 36 36" fill="none" xmlns="http://www.w3.org/2000/svg">
<g filter="url(#filter0_d_576_1287)">
<rect x="4" y="3" width="28" height="28" rx="4" fill="white" shape-rendering="crispEdges"/>
<path d="M15.3151 11.9925C15.7711 11.5369 15.7711 10.7982 15.3151 10.3426C14.859 9.88701 14.1197 9.88701 13.6636 10.3426L7.84203 16.1578C7.38599 16.6134 7.38599 17.3521 7.84203 17.8077L13.6817 23.6574C14.1377 24.113 14.8771 24.113 15.3332 23.6574C15.7892 23.2018 15.7892 22.4631 15.3332 22.0075L11.487 18.1495H27.3971C28.0062 18.1495 28.5 17.6271 28.5 16.9828C28.5 16.3385 28.0062 15.8161 27.3971 15.8161L11.487 15.8161L15.3151 11.9925Z" fill="#FF9626"/>
</g>
<defs>
<filter id="filter0_d_576_1287" x="0" y="0" width="36" height="36" filterUnits="userSpaceOnUse" color-interpolation-filters="sRGB">
<feFlood flood-opacity="0" result="BackgroundImageFix"/>
<feColorMatrix in="SourceAlpha" type="matrix" values="0 0 0 0 0 0 0 0 0 0 0 0 0 0 0 0 0 0 127 0" result="hardAlpha"/>
<feOffset dy="1"/>
<feGaussianBlur stdDeviation="2"/>
<feComposite in2="hardAlpha" operator="out"/>
<feColorMatrix type="matrix" values="0 0 0 0 1 0 0 0 0 0.588235 0 0 0 0 0.14902 0 0 0 0.24 0"/>
<feBlend mode="normal" in2="BackgroundImageFix" result="effect1_dropShadow_576_1287"/>
<feBlend mode="normal" in="SourceGraphic" in2="effect1_dropShadow_576_1287" result="shape"/>
</filter>
</defs>
</svg>
