<svg width="532" height="274" viewBox="0 0 532 274" fill="none" xmlns="http://www.w3.org/2000/svg">
<path d="M143.666 27C143.666 41.9117 131.577 54 116.666 54C101.754 54 89.6658 41.9117 89.6658 27C89.6658 12.0883 101.754 0 116.666 0C131.577 0 143.666 12.0883 143.666 27ZM93.7158 27C93.7158 39.6749 103.991 49.95 116.666 49.95C129.341 49.95 139.616 39.6749 139.616 27C139.616 14.3251 129.341 4.05 116.666 4.05C103.991 4.05 93.7158 14.3251 93.7158 27Z" fill="black"/>
<path d="M437.666 28C437.666 42.9117 425.577 55 410.666 55C395.754 55 383.666 42.9117 383.666 28C383.666 13.0883 395.754 1 410.666 1C425.577 1 437.666 13.0883 437.666 28ZM387.716 28C387.716 40.6749 397.991 50.95 410.666 50.95C423.341 50.95 433.616 40.6749 433.616 28C433.616 15.3251 423.341 5.05 410.666 5.05C397.991 5.05 387.716 15.3251 387.716 28Z" fill="black"/>
<path d="M437.666 243C437.666 257.912 425.577 270 410.666 270C395.754 270 383.666 257.912 383.666 243C383.666 228.088 395.754 216 410.666 216C425.577 216 437.666 228.088 437.666 243ZM387.716 243C387.716 255.675 397.991 265.95 410.666 265.95C423.341 265.95 433.616 255.675 433.616 243C433.616 230.325 423.341 220.05 410.666 220.05C397.991 220.05 387.716 230.325 387.716 243Z" fill="black"/>
<path d="M140.666 247C140.666 261.912 128.577 274 113.666 274C98.7541 274 86.6658 261.912 86.6658 247C86.6658 232.088 98.7541 220 113.666 220C128.577 220 140.666 232.088 140.666 247ZM90.7158 247C90.7158 259.675 100.991 269.95 113.666 269.95C126.341 269.95 136.616 259.675 136.616 247C136.616 234.325 126.341 224.05 113.666 224.05C100.991 224.05 90.7158 234.325 90.7158 247Z" fill="black"/>
<path d="M513.666 63.6006C517.989 64.2226 526.615 67.3623 529.026 68.26C529.415 68.4047 529.666 68.7741 529.666 69.189V82M513.666 63.6006C512.219 63.3925 511.255 63.4662 511.166 64C510.766 66.4 508.666 67 507.166 67.5C505.742 67.9746 446.661 50.4312 440.657 48.646C440.326 48.5477 439.997 48.6498 439.737 48.8767C402.796 81.1425 381.908 53.848 373.431 35.5771C373.266 35.2214 372.914 35 372.522 35H154.635C154.338 35 154.049 35.1405 153.858 35.3682C124.449 70.439 97.5939 59.518 87.7365 49.5716C87.6882 49.5229 87.6464 49.4696 87.6088 49.4123C83.9969 43.9063 77.4842 44.5053 74.6658 45.5L22.9782 66.3738C22.7755 66.4557 22.5465 66.4671 22.3352 66.4111C9.67375 63.0544 4.08536 67.1557 2.75387 69.8124C2.69205 69.9357 2.66577 70.0712 2.66577 70.2092V203.791C2.66577 203.929 2.69205 204.064 2.75387 204.188C4.08536 206.844 9.67375 210.946 22.3352 207.589C22.5465 207.533 22.7755 207.544 22.9782 207.626L74.6658 228.5C77.4846 229.495 88.4528 226.135 92.11 220.586C92.1477 220.528 92.1885 220.477 92.2368 220.428C102.087 210.502 128.514 202.651 153.86 238.564C154.048 238.831 154.36 239 154.687 239H367.522C367.914 239 368.264 238.782 368.43 238.426C377.019 220.08 403.266 189.364 440.267 221.65C440.511 221.863 440.853 221.956 441.168 221.883L506.983 206.543C507.104 206.514 507.228 206.508 507.35 206.531C508.571 206.764 510.786 207.72 511.166 210C511.255 210.534 512.219 210.632 513.666 210.463M513.666 63.6006V82M513.666 210.463C517.975 209.957 526.559 207.072 529.003 206.231C529.403 206.093 529.666 205.717 529.666 205.293V195M513.666 210.463V195M513.666 195H529.666M513.666 195V82M529.666 195V82M513.666 82H529.666" stroke="#4A4A4A" stroke-width="3.5"/>
<path fill-rule="evenodd" clip-rule="evenodd" d="M171.024 233.002L170.334 232.998C169.91 232.996 169.328 232.994 168.697 232.992C167.429 232.989 165.973 232.989 165.182 233.001C155.695 233.147 146.843 224.009 146.667 212.517C146.622 209.56 148.109 206.25 150.18 203.051C152.272 199.819 155.061 196.549 157.829 193.639C160.601 190.725 163.375 188.149 165.454 186.302C166.494 185.378 167.362 184.635 167.97 184.123C168.275 183.866 168.514 183.668 168.679 183.532C168.761 183.465 168.824 183.413 168.867 183.378L168.916 183.338L168.929 183.328L168.932 183.325L168.933 183.324C168.934 183.324 168.934 183.324 169.562 184.102L168.933 183.324L168.971 183.293L169.012 183.267L169.562 184.102C169.012 183.267 169.012 183.267 169.012 183.267L169.013 183.266L169.015 183.265L169.023 183.26L169.051 183.241C169.076 183.225 169.112 183.201 169.16 183.17C169.255 183.109 169.394 183.02 169.573 182.908C169.93 182.682 170.448 182.361 171.094 181.977C172.384 181.209 174.187 180.184 176.24 179.157C180.292 177.131 185.506 175.002 189.667 175.002H250.667C253.98 175.002 256.667 177.688 256.667 181.002V227.002C256.667 230.315 253.98 233.002 250.667 233.002L171.03 233.002L171.024 233.002ZM148.667 212.486C148.829 223.083 156.967 231.127 165.151 231.002C165.963 230.989 167.438 230.989 168.701 230.992C169.335 230.994 169.918 230.996 170.343 230.998L171.032 231.002L250.667 231.002C252.876 231.002 254.667 229.211 254.667 227.002V202.002L153.339 202.002C152.814 202.715 152.318 203.429 151.859 204.138C149.84 207.257 148.631 210.146 148.667 212.486ZM154.883 200.002C156.262 198.291 157.766 196.608 159.278 195.018C162 192.156 164.73 189.62 166.782 187.797C167.807 186.886 168.662 186.155 169.258 185.653C169.557 185.401 169.791 185.207 169.95 185.076L170.075 184.974L170.13 184.928L170.152 184.911L170.244 184.851C170.333 184.794 170.466 184.709 170.639 184.6C170.984 184.382 171.488 184.07 172.117 183.695C173.377 182.945 175.136 181.945 177.134 180.946C181.183 178.922 186.022 177.002 189.667 177.002H250.667C252.876 177.002 254.667 178.792 254.667 181.002V200.002L154.883 200.002Z" fill="#4A4A4A"/>
<path fill-rule="evenodd" clip-rule="evenodd" d="M340.42 233.002L341.11 232.998C341.534 232.996 342.115 232.994 342.747 232.992C344.015 232.989 345.471 232.989 346.262 233.001C355.749 233.147 364.601 224.009 364.777 212.517C364.822 209.56 363.335 206.25 361.264 203.051C359.171 199.819 356.383 196.549 353.615 193.639C350.843 190.725 348.069 188.149 345.99 186.302C344.95 185.378 344.082 184.635 343.474 184.123C343.169 183.866 342.929 183.668 342.765 183.532C342.683 183.465 342.62 183.413 342.577 183.378L342.528 183.338L342.515 183.328L342.512 183.325L342.511 183.324C342.511 183.324 342.51 183.324 341.882 184.102L342.511 183.324L342.472 183.293L342.432 183.267L341.882 184.102C342.432 183.267 342.432 183.267 342.432 183.267L342.431 183.266L342.429 183.265L342.421 183.26L342.393 183.241C342.368 183.225 342.331 183.201 342.284 183.17C342.189 183.109 342.05 183.02 341.871 182.908C341.514 182.682 340.995 182.361 340.35 181.977C339.06 181.209 337.257 180.184 335.204 179.157C331.152 177.131 325.938 175.002 321.777 175.002H267.667C264.353 175.002 261.667 177.688 261.667 181.002V227.002C261.667 230.315 264.353 233.002 267.667 233.002L340.414 233.002L340.42 233.002ZM362.777 212.486C362.615 223.083 354.477 231.127 346.293 231.002C345.481 230.989 344.006 230.989 342.742 230.992C342.109 230.994 341.525 230.996 341.101 230.998L340.412 231.002L267.667 231.002C265.458 231.002 263.667 229.211 263.667 227.002V202.002L358.105 202.002C358.63 202.715 359.126 203.429 359.585 204.138C361.604 207.257 362.813 210.146 362.777 212.486ZM356.561 200.002C355.181 198.291 353.678 196.608 352.166 195.018C349.444 192.156 346.713 189.62 344.662 187.797C343.637 186.886 342.782 186.155 342.185 185.653C341.887 185.401 341.653 185.207 341.494 185.076L341.369 184.974L341.313 184.928L341.292 184.911L341.2 184.851C341.111 184.794 340.978 184.709 340.805 184.6C340.46 184.382 339.956 184.07 339.327 183.695C338.067 182.945 336.307 181.945 334.31 180.946C330.261 178.922 325.422 177.002 321.777 177.002H267.667C265.458 177.002 263.667 178.792 263.667 181.002V200.002L356.561 200.002Z" fill="#4A4A4A"/>
<path fill-rule="evenodd" clip-rule="evenodd" d="M171.024 40.0033L170.334 40.0067C169.91 40.0086 169.328 40.0109 168.697 40.0125C167.429 40.0155 165.973 40.0155 165.182 40.0034C155.695 39.8583 146.843 48.9959 146.667 60.488C146.622 63.4449 148.109 66.7547 150.18 69.9539C152.272 73.1862 155.061 76.4557 157.829 79.3655C160.601 82.2796 163.375 84.8563 165.454 86.7031C166.494 87.6271 167.362 88.3698 167.97 88.8823C168.275 89.1385 168.514 89.3373 168.679 89.4725C168.761 89.5401 168.824 89.5918 168.867 89.6268L168.916 89.6668L168.929 89.6772L168.932 89.68L168.933 89.6808C168.934 89.681 168.934 89.6812 169.562 88.9031L168.933 89.6808L168.971 89.7116L169.012 89.7382L169.562 88.9031C169.012 89.7382 169.012 89.7381 169.012 89.7382L169.013 89.7389L169.015 89.7403L169.023 89.7453L169.051 89.764C169.076 89.7802 169.112 89.8038 169.16 89.8344C169.255 89.8955 169.394 89.9845 169.573 90.0972C169.93 90.3226 170.448 90.6434 171.094 91.0279C172.384 91.7962 174.187 92.8214 176.24 93.8476C180.292 95.8735 185.506 98.0033 189.667 98.0033H250.667C253.98 98.0033 256.667 95.317 256.667 92.0033V46.0033C256.667 42.6896 253.98 40.0033 250.667 40.0033L171.03 40.0033L171.024 40.0033ZM148.667 60.5186C148.829 49.9219 156.967 41.878 165.151 42.0032C165.963 42.0156 167.438 42.0155 168.701 42.0125C169.335 42.0109 169.918 42.0086 170.343 42.0067L171.032 42.0033L250.667 42.0033C252.876 42.0033 254.667 43.7941 254.667 46.0033V71.0034L153.339 71.0033C152.814 70.29 152.318 69.5763 151.859 68.867C149.84 65.748 148.631 62.8592 148.667 60.5186ZM154.883 73.0033C156.262 74.7139 157.766 76.397 159.278 77.987C162 80.8485 164.73 83.3852 166.782 85.2079C167.807 86.1186 168.662 86.8497 169.258 87.3523C169.557 87.6036 169.791 87.7977 169.95 87.9285L170.075 88.0311L170.13 88.0765L170.152 88.0942L170.244 88.1537C170.333 88.2112 170.466 88.2963 170.639 88.405C170.984 88.6226 171.488 88.9346 172.117 89.3096C173.377 90.06 175.136 91.0599 177.134 92.0587C181.183 94.083 186.022 96.0033 189.667 96.0033H250.667C252.876 96.0033 254.667 94.2124 254.667 92.0033V73.0034L154.883 73.0033Z" fill="#4A4A4A"/>
<path fill-rule="evenodd" clip-rule="evenodd" d="M340.42 40.0033L341.11 40.0067C341.534 40.0086 342.115 40.0109 342.747 40.0125C344.015 40.0155 345.471 40.0155 346.262 40.0034C355.749 39.8583 364.601 48.9959 364.777 60.488C364.822 63.4449 363.335 66.7547 361.264 69.9539C359.171 73.1862 356.383 76.4557 353.615 79.3655C350.843 82.2796 348.069 84.8563 345.99 86.7031C344.95 87.6271 344.082 88.3698 343.474 88.8823C343.169 89.1385 342.929 89.3373 342.765 89.4725C342.683 89.5401 342.62 89.5918 342.577 89.6268L342.528 89.6668L342.515 89.6772L342.512 89.68L342.511 89.6808C342.511 89.6808 342.51 89.6812 341.882 88.9031L342.511 89.6808L342.472 89.7116L342.432 89.7382L341.882 88.9031C342.432 89.7382 342.432 89.7382 342.432 89.7382L342.431 89.7389L342.429 89.7403L342.421 89.7453L342.393 89.764C342.368 89.7802 342.331 89.8038 342.284 89.8344C342.189 89.8955 342.05 89.9845 341.871 90.0972C341.514 90.3226 340.995 90.6434 340.35 91.0279C339.06 91.7962 337.257 92.8214 335.204 93.8476C331.152 95.8735 325.938 98.0033 321.777 98.0033H267.667C264.353 98.0033 261.667 95.317 261.667 92.0033V46.0033C261.667 42.6896 264.353 40.0033 267.667 40.0033L340.414 40.0033L340.42 40.0033ZM362.777 60.5186C362.615 49.9219 354.477 41.878 346.293 42.0032C345.481 42.0156 344.006 42.0155 342.742 42.0125C342.109 42.0109 341.525 42.0086 341.101 42.0067L340.412 42.0033L267.667 42.0033C265.458 42.0033 263.667 43.7941 263.667 46.0033V71.0034L358.105 71.0033C358.63 70.29 359.126 69.5763 359.585 68.867C361.604 65.748 362.813 62.8592 362.777 60.5186ZM356.561 73.0033C355.181 74.7139 353.678 76.397 352.166 77.987C349.444 80.8485 346.713 83.3852 344.662 85.2079C343.637 86.1186 342.782 86.8497 342.185 87.3523C341.887 87.6036 341.653 87.7977 341.494 87.9285L341.369 88.0311L341.313 88.0765L341.292 88.0942L341.2 88.1537C341.111 88.2112 340.978 88.2963 340.805 88.405C340.46 88.6226 339.956 88.9346 339.327 89.3096C338.067 90.06 336.307 91.0599 334.31 92.0587C330.261 94.083 325.422 96.0033 321.777 96.0033H267.667C265.458 96.0033 263.667 94.2124 263.667 92.0033V73.0034L356.561 73.0033Z" fill="#4A4A4A"/>
<path d="M52.1658 94.52C52.6658 92.02 53.1658 90.02 57.1658 88.52L117.166 81.02C119.375 81.02 121.666 80.52 121.166 84.52C121.166 84.52 115.76 115.749 115.666 136.02C115.568 157.066 121.166 188.52 121.166 188.52C121.166 190.729 120.666 191.52 116.666 191.02L59.1658 186.02C56.9566 186.02 52.6658 183.02 52.1658 180.52C52.1658 180.52 48.7284 154.284 48.6658 138.02C48.6001 120.977 52.1658 94.52 52.1658 94.52Z" stroke="#4A4A4A" stroke-width="3"/>
<path d="M127.735 100.564C128.235 97.5644 130.735 80.5643 133.735 81.0644L166.735 95.5644C170.735 97.5644 171.235 99.0644 170.735 101.564C170.735 101.564 165.369 123.65 165.235 138.064C165.113 151.239 169.235 171.564 169.235 171.564C169.735 174.564 169.235 175.564 164.735 177.564L133.735 191.064C130.735 192.064 128.235 176.564 127.735 173.564C127.735 173.564 124.235 151.384 124.235 137.064C124.235 122.745 127.735 100.564 127.735 100.564Z" stroke="#4A4A4A" stroke-width="3"/>
<path d="M384.166 100.564C383.666 97.564 380.666 83.5639 377.666 84.064L347.486 95.5748C343.486 97.5748 342.986 99.0748 343.486 101.575C343.486 101.575 348.852 123.66 348.986 138.075C349.108 151.25 344.986 171.575 344.986 171.575C344.486 174.575 344.986 175.575 349.486 177.575L379.166 188.064C382.166 189.064 385.166 174.575 385.666 171.575C385.666 171.575 389.166 149.384 389.166 135.064C389.166 120.745 384.166 100.564 384.166 100.564Z" stroke="#4A4A4A" stroke-width="3"/>
<path d="M471.667 94.02C471.167 91.52 470.667 89.52 466.667 88.02L394.235 81.02C392.026 81.02 389.735 80.52 390.235 84.52C390.235 84.52 395.641 115.749 395.735 136.02C395.833 157.066 390.235 188.52 390.235 188.52C390.235 190.729 390.735 191.52 394.735 191.02L464.667 185.52C466.876 185.52 471.167 182.52 471.667 180.02C471.667 180.02 475.104 153.784 475.167 137.52C475.233 120.477 471.667 94.02 471.667 94.02Z" stroke="#4A4A4A" stroke-width="3"/>
<path d="M243.695 126C242.675 126 241.835 125.838 241.175 125.514C240.515 125.19 240.023 124.698 239.699 124.038C239.387 123.378 239.231 122.544 239.231 121.536C239.231 120.528 239.387 119.688 239.699 119.016C240.023 118.332 240.515 117.822 241.175 117.486C241.835 117.138 242.675 116.964 243.695 116.964H247.763V124.866H245.351V118.53L245.945 119.052H243.695C243.203 119.052 242.807 119.112 242.507 119.232C242.207 119.34 241.985 119.574 241.841 119.934C241.709 120.282 241.643 120.816 241.643 121.536C241.643 122.22 241.703 122.736 241.823 123.084C241.955 123.42 242.171 123.642 242.471 123.75C242.771 123.858 243.179 123.912 243.695 123.912H249.653V126H243.695ZM249.653 126V123.912C249.797 123.912 249.893 124.008 249.941 124.2C249.989 124.38 250.013 124.632 250.013 124.956C250.013 125.268 249.989 125.52 249.941 125.712C249.893 125.904 249.797 126 249.653 126ZM241.499 115.884V113.832H243.911V115.884H241.499ZM243.965 115.884V113.832H246.377V115.884H243.965ZM252.049 126V113.274H254.461V126H252.049ZM250.015 126V123.912H252.049V126H250.015ZM250.015 126C249.871 126 249.775 125.904 249.727 125.712C249.679 125.52 249.655 125.268 249.655 124.956C249.655 124.632 249.679 124.38 249.727 124.2C249.775 124.008 249.871 123.912 250.015 123.912V126ZM260.102 126V123.912H262.154V126H260.102ZM257.708 126V113.274H260.102V126H257.708ZM262.154 126V123.912C262.298 123.912 262.394 124.008 262.442 124.2C262.49 124.38 262.514 124.632 262.514 124.956C262.514 125.268 262.49 125.52 262.442 125.712C262.394 125.904 262.298 126 262.154 126ZM271.837 126V123.912H273.745V126H271.837ZM262.513 126V123.912H270.253L269.443 124.578V121.248C269.443 120.528 269.215 119.982 268.759 119.61C268.315 119.238 267.607 119.052 266.635 119.052C266.359 119.052 265.981 119.076 265.501 119.124C265.021 119.16 264.499 119.22 263.935 119.304L263.701 117.396C264.217 117.276 264.739 117.174 265.267 117.09C265.807 117.006 266.335 116.964 266.851 116.964C267.835 116.964 268.699 117.138 269.443 117.486C270.187 117.822 270.769 118.308 271.189 118.944C271.621 119.58 271.837 120.348 271.837 121.248V126H262.513ZM262.513 126C262.369 126 262.273 125.904 262.225 125.712C262.177 125.52 262.153 125.268 262.153 124.956C262.153 124.632 262.177 124.38 262.225 124.2C262.273 124.008 262.369 123.912 262.513 123.912V126ZM273.745 126V123.912C273.877 123.912 273.967 124.008 274.015 124.2C274.075 124.38 274.105 124.632 274.105 124.956C274.105 125.268 274.075 125.52 274.015 125.712C273.967 125.904 273.877 126 273.745 126ZM276.139 126V113.274H278.551V126H276.139ZM274.105 126V123.912H276.139V126H274.105ZM274.105 126C273.961 126 273.865 125.904 273.817 125.712C273.769 125.52 273.745 125.268 273.745 124.956C273.745 124.632 273.769 124.38 273.817 124.2C273.865 124.008 273.961 123.912 274.105 123.912V126ZM281.798 126V113.274H284.192V126H281.798ZM204.639 160V155.914C204.639 154.726 204.825 153.772 205.197 153.052C205.569 152.32 206.121 151.792 206.853 151.468C207.585 151.132 208.485 150.964 209.553 150.964C210.633 150.964 211.539 151.132 212.271 151.468C213.003 151.792 213.555 152.32 213.927 153.052C214.299 153.772 214.485 154.726 214.485 155.914V160H204.639ZM207.051 158.992L205.899 157.912H213.225L212.091 158.992V155.968C212.091 155.248 212.019 154.678 211.875 154.258C211.731 153.826 211.473 153.52 211.101 153.34C210.741 153.148 210.225 153.052 209.553 153.052C208.893 153.052 208.377 153.148 208.005 153.34C207.645 153.52 207.393 153.826 207.249 154.258C207.117 154.678 207.051 155.248 207.051 155.968V158.992ZM207.249 149.884V147.832H209.661V149.884H207.249ZM209.715 149.884V147.832H212.127V149.884H209.715ZM216.248 164.464C216.092 164.464 215.924 164.458 215.744 164.446C215.564 164.434 215.378 164.416 215.186 164.392L215.276 162.34C215.468 162.352 215.648 162.364 215.816 162.376C215.996 162.388 216.128 162.394 216.212 162.394C216.68 162.394 217.052 162.208 217.328 161.836C217.616 161.464 217.76 160.942 217.76 160.27V150.964H220.172V160.27C220.172 161.086 220.004 161.812 219.668 162.448C219.344 163.084 218.888 163.576 218.3 163.924C217.712 164.284 217.028 164.464 216.248 164.464ZM225.756 160V157.912H227.808V160H225.756ZM223.362 160V147.274H225.756V160H223.362ZM227.808 160V157.912C227.952 157.912 228.048 158.008 228.096 158.2C228.144 158.38 228.168 158.632 228.168 158.956C228.168 159.268 228.144 159.52 228.096 159.712C228.048 159.904 227.952 160 227.808 160ZM233.423 160V157.912H235.673V160H233.423ZM235.673 160V157.912C235.817 157.912 235.913 158.008 235.961 158.2C236.009 158.38 236.033 158.632 236.033 158.956C236.033 159.268 236.009 159.52 235.961 159.712C235.913 159.904 235.817 160 235.673 160ZM228.167 160V157.912H232.433L231.029 159.082V150.964H233.423V160H228.167ZM228.167 160C228.023 160 227.927 159.904 227.879 159.712C227.831 159.52 227.807 159.268 227.807 158.956C227.807 158.632 227.831 158.38 227.879 158.2C227.927 158.008 228.023 157.912 228.167 157.912V160ZM228.887 163.744V161.692H231.299V163.744H228.887ZM231.353 163.744V161.692H233.765V163.744H231.353ZM251.134 160V157.912H253.042V160H251.134ZM246.616 160C246.124 160 245.632 159.91 245.14 159.73C244.66 159.538 244.216 159.256 243.808 158.884L245.284 157.354C245.524 157.546 245.746 157.69 245.95 157.786C246.166 157.87 246.388 157.912 246.616 157.912H249.982L248.74 159.046V155.05C248.74 154.858 248.716 154.57 248.668 154.186C248.632 153.79 248.572 153.346 248.488 152.854C248.416 152.35 248.326 151.84 248.218 151.324L250.594 150.964C250.678 151.396 250.756 151.882 250.828 152.422C250.912 152.95 250.984 153.454 251.044 153.934C251.104 154.402 251.134 154.774 251.134 155.05V160H246.616ZM236.032 160V157.912H238.66L238.12 158.47V152.8H240.532V160H236.032ZM240.532 160V157.912H241.99C242.374 157.912 242.668 157.858 242.872 157.75C243.076 157.63 243.214 157.396 243.286 157.048C243.37 156.688 243.412 156.154 243.412 155.446V151.9H245.824V155.446C245.824 156.514 245.686 157.384 245.41 158.056C245.146 158.728 244.732 159.22 244.168 159.532C243.604 159.844 242.878 160 241.99 160H240.532ZM236.032 160C235.888 160 235.792 159.904 235.744 159.712C235.696 159.52 235.672 159.268 235.672 158.956C235.672 158.632 235.696 158.38 235.744 158.2C235.792 158.008 235.888 157.912 236.032 157.912V160ZM253.042 160V157.912C253.186 157.912 253.282 158.008 253.33 158.2C253.378 158.38 253.402 158.632 253.402 158.956C253.402 159.268 253.378 159.52 253.33 159.712C253.282 159.904 253.186 160 253.042 160ZM257.854 160V157.912H259.744V160H257.854ZM255.442 160V147.274H257.854V160H255.442ZM253.408 160V157.912H255.442V160H253.408ZM253.408 160C253.264 160 253.168 159.904 253.12 159.712C253.072 159.52 253.048 159.268 253.048 158.956C253.048 158.632 253.072 158.38 253.12 158.2C253.168 158.008 253.264 157.912 253.408 157.912V160ZM259.744 160V157.912C259.888 157.912 259.984 158.008 260.032 158.2C260.08 158.38 260.104 158.632 260.104 158.956C260.104 159.268 260.08 159.52 260.032 159.712C259.984 159.904 259.888 160 259.744 160ZM262.13 160V147.274H264.542V160H262.13ZM260.096 160V157.912H262.13V160H260.096ZM260.096 160C259.952 160 259.856 159.904 259.808 159.712C259.76 159.52 259.736 159.268 259.736 158.956C259.736 158.632 259.76 158.38 259.808 158.2C259.856 158.008 259.952 157.912 260.096 157.912V160ZM275.633 160C274.613 160 273.773 159.838 273.113 159.514C272.453 159.19 271.961 158.698 271.637 158.038C271.325 157.378 271.169 156.544 271.169 155.536C271.169 154.528 271.325 153.688 271.637 153.016C271.961 152.332 272.453 151.822 273.113 151.486C273.773 151.138 274.613 150.964 275.633 150.964H279.701V158.866H277.289V152.53L277.883 153.052H275.633C275.141 153.052 274.745 153.112 274.445 153.232C274.145 153.34 273.923 153.574 273.779 153.934C273.647 154.282 273.581 154.816 273.581 155.536C273.581 156.22 273.641 156.736 273.761 157.084C273.893 157.42 274.109 157.642 274.409 157.75C274.709 157.858 275.117 157.912 275.633 157.912H281.591V160H275.633ZM281.591 160V157.912C281.735 157.912 281.831 158.008 281.879 158.2C281.927 158.38 281.951 158.632 281.951 158.956C281.951 159.268 281.927 159.52 281.879 159.712C281.831 159.904 281.735 160 281.591 160ZM273.437 149.884V147.832H275.849V149.884H273.437ZM275.903 149.884V147.832H278.315V149.884H275.903ZM287.209 160V157.912H289.459V160H287.209ZM289.459 160V157.912C289.603 157.912 289.699 158.008 289.747 158.2C289.795 158.38 289.819 158.632 289.819 158.956C289.819 159.268 289.795 159.52 289.747 159.712C289.699 159.904 289.603 160 289.459 160ZM281.953 160V157.912H286.219L284.815 159.082V150.964H287.209V160H281.953ZM281.953 160C281.809 160 281.713 159.904 281.665 159.712C281.617 159.52 281.593 159.268 281.593 158.956C281.593 158.632 281.617 158.38 281.665 158.2C281.713 158.008 281.809 157.912 281.953 157.912V160ZM282.673 163.744V161.692H285.085V163.744H282.673ZM285.139 163.744V161.692H287.551V163.744H285.139ZM294.121 160V157.912H296.011V160H294.121ZM289.819 160V157.912H293.113L291.709 159.082V150.964H294.121V160H289.819ZM289.819 160C289.675 160 289.579 159.904 289.531 159.712C289.483 159.52 289.459 159.268 289.459 158.956C289.459 158.632 289.483 158.38 289.531 158.2C289.579 158.008 289.675 157.912 289.819 157.912V160ZM296.011 160V157.912C296.155 157.912 296.251 158.008 296.299 158.2C296.347 158.38 296.371 158.632 296.371 158.956C296.371 159.268 296.347 159.52 296.299 159.712C296.251 159.904 296.155 160 296.011 160ZM291.709 149.308V147.256H294.121V149.308H291.709ZM306.447 160V157.912H308.337V160H306.447ZM296.367 160V157.912H304.773L304.035 158.542V152.53L304.647 153.052H302.379C301.851 153.052 301.437 153.118 301.137 153.25C300.837 153.382 300.627 153.628 300.507 153.988C300.387 154.336 300.327 154.834 300.327 155.482C300.327 156.19 300.387 156.718 300.507 157.066C300.627 157.402 300.837 157.63 301.137 157.75C301.437 157.858 301.851 157.912 302.379 157.912V159.784C301.359 159.784 300.519 159.64 299.859 159.352C299.199 159.064 298.707 158.608 298.383 157.984C298.071 157.348 297.915 156.514 297.915 155.482C297.915 154.498 298.071 153.67 298.383 152.998C298.707 152.326 299.199 151.822 299.859 151.486C300.519 151.138 301.359 150.964 302.379 150.964H306.447V160H296.367ZM296.367 160C296.223 160 296.127 159.904 296.079 159.712C296.031 159.52 296.007 159.268 296.007 158.956C296.007 158.632 296.031 158.38 296.079 158.2C296.127 158.008 296.223 157.912 296.367 157.912V160ZM308.337 160V157.912C308.481 157.912 308.577 158.008 308.625 158.2C308.673 158.38 308.697 158.632 308.697 158.956C308.697 159.268 308.673 159.52 308.625 159.712C308.577 159.904 308.481 160 308.337 160ZM301.425 149.308V147.256H303.837V149.308H301.425ZM310.732 160V147.274H313.144V160H310.732ZM308.698 160V157.912H310.732V160H308.698ZM308.698 160C308.554 160 308.458 159.904 308.41 159.712C308.362 159.52 308.338 159.268 308.338 158.956C308.338 158.632 308.362 158.38 308.41 158.2C308.458 158.008 308.554 157.912 308.698 157.912V160ZM316.39 160V147.274H318.784V160H316.39Z" fill="#39629C"/>
<circle cx="241" cy="34" r="2" fill="#D9D9D9"/>
<path d="M27.8991 92.5L28.2301 87.5344C28.4753 83.8573 31.5294 81 35.2146 81H42.7252C43.4227 81 43.906 81.6961 43.6621 82.3496L39.8741 92.5M27.8991 92.5L27.6658 96V105.5C27.6658 108.261 29.9043 110.5 32.6658 110.5H34.6658C37.4272 110.5 39.6658 108.261 39.6658 105.5V93.5417C39.6658 93.1841 39.7366 92.8301 39.8741 92.5M27.8991 92.5H39.8741" stroke="#4A4A4A" stroke-width="2"/>
<path d="M27.8991 179.5L28.2301 184.466C28.4753 188.143 31.5294 191 35.2146 191H42.7252C43.4227 191 43.906 190.304 43.6621 189.65L39.8741 179.5M27.8991 179.5L27.6658 176V166.5C27.6658 163.739 29.9043 161.5 32.6658 161.5H34.6658C37.4272 161.5 39.6658 163.739 39.6658 166.5V178.458C39.6658 178.816 39.7366 179.17 39.8741 179.5M27.8991 179.5H39.8741" stroke="#4A4A4A" stroke-width="2"/>
<path d="M483.666 84C483.666 80.6863 486.352 78 489.666 78H501.666C504.979 78 507.666 80.6863 507.666 84V187C507.666 190.314 504.979 193 501.666 193H489.666C486.352 193 483.666 190.314 483.666 187V84Z" stroke="#4A4A4A" stroke-width="2.5"/>
<circle cx="495.666" cy="93" r="7" stroke="#4A4A4A" stroke-width="2"/>
<circle cx="495.666" cy="111" r="7" stroke="#4A4A4A" stroke-width="2"/>
<circle cx="495.666" cy="160.5" r="7" stroke="#4A4A4A" stroke-width="2"/>
<circle cx="495.666" cy="178.5" r="7" stroke="#4A4A4A" stroke-width="2"/>
</svg>
