<svg width="36" height="36" viewBox="0 0 36 36" fill="none" xmlns="http://www.w3.org/2000/svg">
<g filter="url(#filter0_d_576_1292)">
<rect x="4" y="3" width="28" height="28" rx="4" fill="white" shape-rendering="crispEdges"/>
<path fill-rule="evenodd" clip-rule="evenodd" d="M8.46948 7.4864C8.9815 6.97451 9.81155 6.97461 10.3234 7.48663L17.9509 15.1974L25.6785 7.46724C26.1902 6.95505 27.0203 6.95468 27.5324 7.4664C28.0446 7.97813 28.045 8.80818 27.5333 9.32037L19.8047 17.0516L27.5142 24.6794C28.0261 25.1914 28.026 26.0215 27.514 26.5334C27.0019 27.0453 26.1719 27.0452 25.66 26.5331L17.9516 18.9064L10.3221 26.5323C9.81033 27.0445 8.98029 27.0449 8.4681 26.5331C7.95591 26.0214 7.95553 25.1914 8.46726 24.6792L16.0978 17.0522L8.46925 9.34037C7.95736 8.82835 7.95746 7.9983 8.46948 7.4864Z" fill="#FF9626"/>
</g>
<defs>
<filter id="filter0_d_576_1292" x="0" y="0" width="36" height="36" filterUnits="userSpaceOnUse" color-interpolation-filters="sRGB">
<feFlood flood-opacity="0" result="BackgroundImageFix"/>
<feColorMatrix in="SourceAlpha" type="matrix" values="0 0 0 0 0 0 0 0 0 0 0 0 0 0 0 0 0 0 127 0" result="hardAlpha"/>
<feOffset dy="1"/>
<feGaussianBlur stdDeviation="2"/>
<feComposite in2="hardAlpha" operator="out"/>
<feColorMatrix type="matrix" values="0 0 0 0 1 0 0 0 0 0.588235 0 0 0 0 0.14902 0 0 0 0.24 0"/>
<feBlend mode="normal" in2="BackgroundImageFix" result="effect1_dropShadow_576_1292"/>
<feBlend mode="normal" in="SourceGraphic" in2="effect1_dropShadow_576_1292" result="shape"/>
</filter>
</defs>
</svg>
