<svg width="36" height="36" viewBox="0 0 36 36" fill="none" xmlns="http://www.w3.org/2000/svg">
<g filter="url(#filter0_d_2525_6419)">
<rect width="32" height="32" rx="4" transform="matrix(-1 0 0 1 34 2)" fill="#FF9626"/>
<g clip-path="url(#clip0_2525_6419)">
<path d="M27.6677 17.9868C27.6684 12.6648 23.3132 8.31682 17.9835 8.31812C12.6699 8.31941 8.31736 12.6648 8.3122 17.9752C8.30703 23.3185 12.6751 27.6801 18.0223 27.6704C23.33 27.6614 27.6671 23.3069 27.6677 17.9868ZM26.9185 17.9855C26.9192 22.9168 22.9399 26.9173 18.03 26.9225C13.0619 26.9277 9.06335 22.9446 9.06076 17.9894C9.05818 13.0698 13.0503 9.06927 17.9641 9.06733C22.9238 9.06539 26.9185 13.044 26.9185 17.9855Z" fill="white" stroke="white" stroke-width="0.5"/>
<path d="M30 18.0183C29.7313 18.0183 29.5072 18.0183 29.2611 18.0183C29.1959 21.0991 28.125 23.7705 25.9446 25.9496C23.7686 28.1236 21.107 29.199 18.0197 29.2649C18.0197 29.5006 18.0197 29.7306 18.0197 30.0006C21.0476 29.9476 23.7195 28.9626 25.9717 26.9365C28.6043 24.5668 29.9076 21.5771 30 18.0183Z" fill="white" stroke="white" stroke-width="0.5"/>
<path d="M17.9667 6.72984C17.9667 6.48763 17.9667 6.26352 17.9667 6C14.9951 6.04392 12.367 6.99464 10.1349 8.95099C7.42092 11.3291 6.07815 14.357 5.97998 17.9706C6.06523 17.9758 6.12013 17.9816 6.17503 17.9816C6.35135 17.9829 6.52768 17.9822 6.7195 17.9822C6.78796 14.8963 7.85624 12.232 10.0296 10.0548C12.2043 7.87432 14.8678 6.80347 17.9667 6.72984Z" fill="white" stroke="white" stroke-width="0.5"/>
<path d="M25.6359 8.65506C25.4305 8.49812 25.2477 8.35861 25.043 8.20166C24.8996 8.40188 24.7659 8.58789 24.6167 8.79586C24.8014 8.94054 24.9745 9.07617 25.1631 9.22408C25.32 9.03613 25.4666 8.85916 25.6359 8.65506Z" fill="white" stroke="white" stroke-width="0.5"/>
<path d="M27.7775 10.9383C27.6193 10.7323 27.4785 10.5482 27.3235 10.3467C27.1323 10.5023 26.954 10.6477 26.7558 10.8098C26.8966 10.9945 27.0303 11.1702 27.1775 11.3626C27.3764 11.2218 27.565 11.0888 27.7775 10.9383Z" fill="white" stroke="white" stroke-width="0.5"/>
<path d="M27.6109 12.0085C27.7362 12.2236 27.8447 12.409 27.9616 12.6085C28.1748 12.4961 28.3769 12.3889 28.6094 12.2662C28.4828 12.0466 28.3659 11.8432 28.2361 11.6184C28.0223 11.7515 27.8279 11.8729 27.6109 12.0085Z" fill="white" stroke="white" stroke-width="0.5"/>
<path d="M7.66052 22.6848C7.61789 22.5796 7.58883 22.5046 7.55718 22.431C7.39055 22.0396 7.39055 22.0396 6.98171 22.1953C6.89968 22.2263 6.81895 22.2611 6.71109 22.3044C6.8041 22.5318 6.89322 22.7494 6.99204 22.9903C7.22456 22.8838 7.43318 22.7882 7.66052 22.6848Z" fill="white" stroke="white" stroke-width="0.5"/>
<path d="M7.35636 23.728C7.48489 23.9515 7.59921 24.1511 7.72774 24.3745C7.93958 24.2428 8.13399 24.1213 8.35229 23.9851C8.23475 23.7803 8.1243 23.5891 8.00417 23.3799C7.78587 23.4974 7.58371 23.6059 7.35636 23.728Z" fill="white" stroke="white" stroke-width="0.5"/>
<path d="M8.78565 24.627C8.57832 24.7768 8.39683 24.9086 8.19144 25.0571C8.34322 25.2567 8.48661 25.4446 8.64162 25.6487C8.83732 25.4892 9.01622 25.3439 9.21063 25.1856C9.06919 24.9996 8.93485 24.8233 8.78565 24.627Z" fill="white" stroke="white" stroke-width="0.5"/>
<path d="M22.9781 7.00747C22.7398 6.90736 22.5331 6.82146 22.2935 6.7207C22.2043 6.9558 22.121 7.17475 22.0325 7.40791C22.2541 7.50027 22.4523 7.58294 22.6732 7.6753C22.7746 7.45312 22.8702 7.24386 22.9781 7.00747Z" fill="white" stroke="white" stroke-width="0.5"/>
<path d="M26.2514 10.222C26.4271 10.0567 26.595 9.89843 26.7668 9.73696C26.5801 9.56128 26.4122 9.40304 26.2243 9.22607C26.0796 9.38173 25.9188 9.55482 25.7547 9.73179C25.9213 9.89649 26.0751 10.0483 26.2514 10.222Z" fill="white" stroke="white" stroke-width="0.5"/>
<path d="M11.3517 27.1957C11.1534 27.044 10.9816 26.9122 10.7969 26.7708C10.6425 26.9593 10.4959 27.1389 10.3344 27.3365C10.5256 27.4864 10.7078 27.6291 10.9209 27.7958C11.0649 27.5942 11.2025 27.4031 11.3517 27.1957Z" fill="white" stroke="white" stroke-width="0.5"/>
<path d="M21.5087 6.45667C21.2885 6.39596 21.0973 6.3417 20.9055 6.29068C20.8764 6.28293 20.8435 6.28939 20.8002 6.28939C20.7834 6.34493 20.766 6.39596 20.7531 6.44827C20.7124 6.61814 20.673 6.78865 20.629 6.97789C20.8506 7.03731 21.0566 7.09221 21.2962 7.1555C21.3692 6.91653 21.4364 6.69435 21.5087 6.45667Z" fill="white" stroke="white" stroke-width="0.5"/>
<path d="M29.8586 16.0078C29.6222 16.0453 29.3961 16.0814 29.1507 16.1202C29.1849 16.3579 29.2159 16.5749 29.2482 16.7984C29.3005 16.7984 29.3315 16.8009 29.3619 16.7977C30.0175 16.728 30.0175 16.728 29.8586 16.0078Z" fill="white" stroke="white" stroke-width="0.5"/>
<path d="M6.09045 19.9864C6.33847 19.9476 6.56259 19.9121 6.80737 19.8733C6.77895 19.637 6.75312 19.4251 6.7247 19.1887C6.48508 19.2107 6.25773 19.2313 5.99745 19.2552C6.0291 19.5046 6.05751 19.73 6.09045 19.9864Z" fill="white" stroke="white" stroke-width="0.5"/>
<path d="M6.97137 20.6678C6.94425 20.66 6.93649 20.6542 6.92939 20.6561C6.11753 20.8247 6.2002 20.6697 6.45726 21.5132C6.67556 21.4473 6.89387 21.3815 7.14124 21.3065C7.08117 21.0818 7.02498 20.8699 6.97137 20.6678Z" fill="white" stroke="white" stroke-width="0.5"/>
<path d="M9.69894 25.7927C9.54846 25.9303 9.37859 26.086 9.18806 26.2603C9.37084 26.4334 9.54264 26.5955 9.72995 26.7725C9.88431 26.6091 10.0425 26.4425 10.2111 26.2649C10.0393 26.106 9.87656 25.9561 9.69894 25.7927Z" fill="white" stroke="white" stroke-width="0.5"/>
<path d="M11.9956 27.6252C11.8652 27.8332 11.7424 28.0289 11.6036 28.2511C11.8141 28.3738 12.0124 28.4888 12.2462 28.6251C12.3638 28.408 12.4729 28.2078 12.5956 27.9818C12.3993 27.8649 12.2094 27.7518 11.9956 27.6252Z" fill="white" stroke="white" stroke-width="0.5"/>
<path d="M15.3329 29.0176C15.0991 28.9543 14.8995 28.9007 14.6741 28.8394C14.5998 29.0712 14.5307 29.2889 14.4519 29.5343C14.6599 29.5931 14.8478 29.6551 15.0403 29.6945C15.0875 29.7042 15.1856 29.6493 15.1985 29.606C15.2547 29.4232 15.2864 29.2333 15.3329 29.0176Z" fill="white" stroke="white" stroke-width="0.5"/>
<path d="M19.9857 6.10019C19.7209 6.06725 19.5065 6.04077 19.2559 6.00977C19.2281 6.25197 19.2023 6.47932 19.1732 6.72927C19.396 6.76027 19.6085 6.78933 19.8591 6.82421C19.9011 6.58653 19.9412 6.3566 19.9857 6.10019Z" fill="white" stroke="white" stroke-width="0.5"/>
<path d="M23.3649 8.01964C23.5761 8.14042 23.7621 8.24763 23.9714 8.36712C24.1012 8.15785 24.222 7.9628 24.357 7.74514C24.138 7.61726 23.9391 7.50165 23.7163 7.37183C23.5974 7.59207 23.4876 7.79358 23.3649 8.01964Z" fill="white" stroke="white" stroke-width="0.5"/>
<path d="M28.5707 13.9461C28.7974 13.8615 29.0054 13.7847 29.2521 13.693C29.1604 13.463 29.0732 13.2454 28.9763 13.0012C28.747 13.1052 28.5403 13.1995 28.3072 13.3048C28.3969 13.5231 28.4796 13.7246 28.5707 13.9461Z" fill="white" stroke="white" stroke-width="0.5"/>
<path d="M29.004 15.3528C29.245 15.2986 29.4671 15.2482 29.7151 15.192C29.6519 14.9498 29.5937 14.7296 29.5266 14.4731C29.316 14.5377 29.119 14.5907 28.9285 14.6617C28.891 14.6759 28.8503 14.7618 28.8587 14.8051C28.8955 14.9827 28.9504 15.1571 29.004 15.3528Z" fill="white" stroke="white" stroke-width="0.5"/>
<path d="M13.6723 29.2765C13.7627 29.0382 13.8415 28.8296 13.9319 28.5906C13.7175 28.4995 13.516 28.4143 13.2919 28.3193C13.1905 28.5422 13.0955 28.7501 12.9883 28.9872C13.2189 29.0847 13.4307 29.1745 13.6723 29.2765Z" fill="white" stroke="white" stroke-width="0.5"/>
<path d="M16.7855 29.2592C16.5362 29.2276 16.3385 29.2031 16.1054 29.1733C16.0647 29.4091 16.0259 29.6332 15.982 29.889C16.2261 29.9219 16.4522 29.9529 16.7131 29.9884C16.737 29.743 16.7603 29.5105 16.7855 29.2592Z" fill="white" stroke="white" stroke-width="0.5"/>
<path d="M15.6507 16.8241C16.7919 16.8241 17.8905 16.7924 18.9866 16.8338C19.874 16.8674 20.6549 17.7025 20.713 18.5802C20.7789 19.5775 20.1698 20.4416 19.2378 20.6645C19.0977 20.698 18.9517 20.7071 18.8077 20.7194C18.5461 20.742 18.3963 20.8737 18.3943 21.1301C18.3872 21.8806 18.3866 22.6318 18.3943 23.3823C18.3969 23.6652 18.5655 23.7957 18.8781 23.7924C21.1012 23.7705 23.1473 22.1228 23.6459 19.9534C24.2873 17.1645 22.6061 14.4867 19.8088 13.8647C19.4419 13.7833 19.0576 13.7568 18.6811 13.7497C17.7691 13.7336 16.8565 13.7446 15.9445 13.7446C15.8573 13.7446 15.7701 13.7446 15.6513 13.7446C15.6513 13.3861 15.6481 13.0503 15.6526 12.7138C15.6552 12.509 15.6287 12.3256 15.4136 12.2313C15.1869 12.1312 15.0493 12.2739 14.9098 12.4134C14.0702 13.2524 13.2306 14.0908 12.3922 14.931C12.1248 15.1984 12.1229 15.3638 12.3858 15.6273C13.2351 16.4786 14.0863 17.3285 14.9376 18.1785C15.0668 18.3077 15.2018 18.4213 15.4052 18.3354C15.6093 18.2495 15.6545 18.0823 15.6526 17.882C15.6481 17.5365 15.6507 17.1916 15.6507 16.8241ZM14.895 16.9617C14.3163 16.3836 13.7427 15.8114 13.2235 15.2934C13.7686 14.7515 14.3408 14.1838 14.8943 13.6335C14.8943 13.7155 14.8937 13.8518 14.8943 13.9881C14.8969 14.3665 15.0267 14.4996 15.4026 14.5002C16.509 14.5015 17.6154 14.499 18.7218 14.5028C18.931 14.5035 19.1416 14.517 19.3489 14.5442C21.346 14.8064 22.9387 16.5115 23.0304 18.4801C23.1299 20.6238 21.7593 22.4742 19.7287 22.9308C19.5453 22.9722 19.3567 22.9883 19.1455 23.0206C19.1455 22.5821 19.1597 22.1868 19.1403 21.7934C19.128 21.5454 19.19 21.4395 19.4548 21.3736C20.7279 21.0565 21.6017 19.8042 21.4629 18.5408C21.3111 17.1574 20.2402 16.1091 18.8845 16.0742C17.6981 16.0432 16.5103 16.0633 15.3232 16.0665C15.0409 16.0671 14.9021 16.2202 14.8943 16.5102C14.8918 16.6678 14.895 16.8267 14.895 16.9617Z" fill="white" stroke="white" stroke-width="0.5"/>
</g>
</g>
<defs>
<filter id="filter0_d_2525_6419" x="0" y="0" width="36" height="36" filterUnits="userSpaceOnUse" color-interpolation-filters="sRGB">
<feFlood flood-opacity="0" result="BackgroundImageFix"/>
<feColorMatrix in="SourceAlpha" type="matrix" values="0 0 0 0 0 0 0 0 0 0 0 0 0 0 0 0 0 0 127 0" result="hardAlpha"/>
<feOffset/>
<feGaussianBlur stdDeviation="1"/>
<feComposite in2="hardAlpha" operator="out"/>
<feColorMatrix type="matrix" values="0 0 0 0 1 0 0 0 0 0.588235 0 0 0 0 0.14902 0 0 0 0.1 0"/>
<feBlend mode="normal" in2="BackgroundImageFix" result="effect1_dropShadow_2525_6419"/>
<feBlend mode="normal" in="SourceGraphic" in2="effect1_dropShadow_2525_6419" result="shape"/>
</filter>
<clipPath id="clip0_2525_6419">
<rect width="26" height="26" fill="white" transform="matrix(-1 0 0 1 31 5)"/>
</clipPath>
</defs>
</svg>
