<svg width="36" height="36" viewBox="0 0 36 36" fill="none" xmlns="http://www.w3.org/2000/svg">
<g filter="url(#filter0_d_2525_6448)">
<rect x="2" y="2" width="32" height="32" rx="4" fill="#FF9626"/>
<g clip-path="url(#clip0_2525_6448)">
<path d="M8.33228 17.9868C8.33163 12.6648 12.6868 8.31682 18.0165 8.31812C23.3301 8.31941 27.6826 12.6648 27.6878 17.9752C27.693 23.3185 23.3249 27.6801 17.9777 27.6704C12.67 27.6614 8.33292 23.3069 8.33228 17.9868ZM9.08149 17.9855C9.08084 22.9168 13.0601 26.9173 17.97 26.9225C22.9381 26.9277 26.9367 22.9446 26.9392 17.9894C26.9418 13.0698 22.9497 9.06927 18.0359 9.06733C13.0762 9.06539 9.08149 13.044 9.08149 17.9855Z" fill="white" stroke="white" stroke-width="0.5"/>
<path d="M6 18.0183C6.26868 18.0183 6.4928 18.0183 6.73888 18.0183C6.80411 21.0991 7.87497 23.7705 10.0554 25.9496C12.2314 28.1236 14.893 29.199 17.9803 29.2649C17.9803 29.5006 17.9803 29.7306 17.9803 30.0006C14.9524 29.9476 12.2805 28.9626 10.0283 26.9365C7.39573 24.5668 6.09236 21.5771 6 18.0183Z" fill="white" stroke="white" stroke-width="0.5"/>
<path d="M18.0333 6.72984C18.0333 6.48763 18.0333 6.26352 18.0333 6C21.0049 6.04392 23.633 6.99464 25.8651 8.95099C28.5791 11.3291 29.9219 14.357 30.02 17.9706C29.9348 17.9758 29.8799 17.9816 29.825 17.9816C29.6486 17.9829 29.4723 17.9822 29.2805 17.9822C29.212 14.8963 28.1438 12.232 25.9704 10.0548C23.7957 7.87432 21.1322 6.80347 18.0333 6.72984Z" fill="white" stroke="white" stroke-width="0.5"/>
<path d="M10.3641 8.65506C10.5695 8.49812 10.7523 8.35861 10.957 8.20166C11.1004 8.40188 11.2341 8.58789 11.3833 8.79586C11.1986 8.94054 11.0255 9.07617 10.8369 9.22408C10.68 9.03613 10.5334 8.85916 10.3641 8.65506Z" fill="white" stroke="white" stroke-width="0.5"/>
<path d="M8.22247 10.9383C8.38071 10.7323 8.52151 10.5482 8.67652 10.3467C8.8677 10.5023 9.04596 10.6477 9.24424 10.8098C9.10344 10.9945 8.96975 11.1702 8.82249 11.3626C8.62356 11.2218 8.43497 11.0888 8.22247 10.9383Z" fill="white" stroke="white" stroke-width="0.5"/>
<path d="M8.38908 12.0085C8.26378 12.2236 8.15528 12.409 8.03837 12.6085C7.82524 12.4961 7.62308 12.3889 7.39056 12.2662C7.51716 12.0466 7.63406 11.8432 7.76388 11.6184C7.97766 11.7515 8.17207 11.8729 8.38908 12.0085Z" fill="white" stroke="white" stroke-width="0.5"/>
<path d="M28.3395 22.6848C28.3821 22.5796 28.4112 22.5046 28.4428 22.431C28.6095 22.0396 28.6095 22.0396 29.0183 22.1953C29.1003 22.2263 29.181 22.2611 29.2889 22.3044C29.1959 22.5318 29.1068 22.7494 29.008 22.9903C28.7754 22.8838 28.5668 22.7882 28.3395 22.6848Z" fill="white" stroke="white" stroke-width="0.5"/>
<path d="M28.6436 23.728C28.5151 23.9515 28.4008 24.1511 28.2723 24.3745C28.0604 24.2428 27.866 24.1213 27.6477 23.9851C27.7653 23.7803 27.8757 23.5891 27.9958 23.3799C28.2141 23.4974 28.4163 23.6059 28.6436 23.728Z" fill="white" stroke="white" stroke-width="0.5"/>
<path d="M27.2144 24.627C27.4217 24.7768 27.6032 24.9086 27.8086 25.0571C27.6568 25.2567 27.5134 25.4446 27.3584 25.6487C27.1627 25.4892 26.9838 25.3439 26.7894 25.1856C26.9308 24.9996 27.0652 24.8233 27.2144 24.627Z" fill="white" stroke="white" stroke-width="0.5"/>
<path d="M13.0219 7.00747C13.2602 6.90736 13.4669 6.82146 13.7065 6.7207C13.7957 6.9558 13.879 7.17475 13.9675 7.40791C13.7459 7.50027 13.5477 7.58294 13.3268 7.6753C13.2254 7.45312 13.1298 7.24386 13.0219 7.00747Z" fill="white" stroke="white" stroke-width="0.5"/>
<path d="M9.74862 10.222C9.57294 10.0567 9.40502 9.89843 9.23322 9.73696C9.41987 9.56128 9.5878 9.40304 9.77575 9.22607C9.92042 9.38173 10.0812 9.55482 10.2453 9.73179C10.0787 9.89649 9.92495 10.0483 9.74862 10.222Z" fill="white" stroke="white" stroke-width="0.5"/>
<path d="M24.6483 27.1957C24.8466 27.044 25.0184 26.9122 25.2031 26.7708C25.3575 26.9593 25.5041 27.1389 25.6656 27.3365C25.4744 27.4864 25.2922 27.6291 25.0791 27.7958C24.9351 27.5942 24.7975 27.4031 24.6483 27.1957Z" fill="white" stroke="white" stroke-width="0.5"/>
<path d="M14.4913 6.45667C14.7115 6.39596 14.9027 6.3417 15.0945 6.29068C15.1236 6.28293 15.1565 6.28939 15.1998 6.28939C15.2166 6.34493 15.234 6.39596 15.2469 6.44827C15.2876 6.61814 15.327 6.78865 15.371 6.97789C15.1494 7.03731 14.9434 7.09221 14.7038 7.1555C14.6308 6.91653 14.5636 6.69435 14.4913 6.45667Z" fill="white" stroke="white" stroke-width="0.5"/>
<path d="M6.14143 16.0078C6.37782 16.0453 6.60388 16.0814 6.84931 16.1202C6.81508 16.3579 6.78408 16.5749 6.75178 16.7984C6.69947 16.7984 6.66847 16.8009 6.63811 16.7977C5.98255 16.728 5.98255 16.728 6.14143 16.0078Z" fill="white" stroke="white" stroke-width="0.5"/>
<path d="M29.9095 19.9864C29.6615 19.9476 29.4374 19.9121 29.1926 19.8733C29.221 19.637 29.2469 19.4251 29.2753 19.1887C29.5149 19.2107 29.7423 19.2313 30.0026 19.2552C29.9709 19.5046 29.9425 19.73 29.9095 19.9864Z" fill="white" stroke="white" stroke-width="0.5"/>
<path d="M29.0286 20.6678C29.0558 20.66 29.0635 20.6542 29.0706 20.6561C29.8825 20.8247 29.7998 20.6697 29.5427 21.5132C29.3244 21.4473 29.1061 21.3815 28.8588 21.3065C28.9188 21.0818 28.975 20.8699 29.0286 20.6678Z" fill="white" stroke="white" stroke-width="0.5"/>
<path d="M26.3011 25.7927C26.4515 25.9303 26.6214 26.086 26.8119 26.2603C26.6292 26.4334 26.4574 26.5955 26.2701 26.7725C26.1157 26.6091 25.9575 26.4425 25.7889 26.2649C25.9607 26.106 26.1234 25.9561 26.3011 25.7927Z" fill="white" stroke="white" stroke-width="0.5"/>
<path d="M24.0044 27.6252C24.1348 27.8332 24.2576 28.0289 24.3964 28.2511C24.1859 28.3738 23.9876 28.4888 23.7538 28.6251C23.6362 28.408 23.5271 28.2078 23.4044 27.9818C23.6007 27.8649 23.7906 27.7518 24.0044 27.6252Z" fill="white" stroke="white" stroke-width="0.5"/>
<path d="M20.6671 29.0176C20.9009 28.9543 21.1005 28.9007 21.3259 28.8394C21.4002 29.0712 21.4693 29.2889 21.5481 29.5343C21.3401 29.5931 21.1522 29.6551 20.9597 29.6945C20.9125 29.7042 20.8144 29.6493 20.8015 29.606C20.7453 29.4232 20.7136 29.2333 20.6671 29.0176Z" fill="white" stroke="white" stroke-width="0.5"/>
<path d="M16.0143 6.10019C16.2791 6.06725 16.4935 6.04077 16.7441 6.00977C16.7719 6.25197 16.7977 6.47932 16.8268 6.72927C16.604 6.76027 16.3915 6.78933 16.1409 6.82421C16.0989 6.58653 16.0588 6.3566 16.0143 6.10019Z" fill="white" stroke="white" stroke-width="0.5"/>
<path d="M12.6351 8.01964C12.4239 8.14042 12.2379 8.24763 12.0286 8.36712C11.8988 8.15785 11.778 7.9628 11.643 7.74514C11.862 7.61726 12.0609 7.50165 12.2837 7.37183C12.4026 7.59207 12.5124 7.79358 12.6351 8.01964Z" fill="white" stroke="white" stroke-width="0.5"/>
<path d="M7.42932 13.9461C7.20262 13.8615 6.99465 13.7847 6.74792 13.693C6.83964 13.463 6.92683 13.2454 7.02371 13.0012C7.253 13.1052 7.45968 13.1995 7.69284 13.3048C7.60306 13.5231 7.52039 13.7246 7.42932 13.9461Z" fill="white" stroke="white" stroke-width="0.5"/>
<path d="M6.99596 15.3528C6.75505 15.2986 6.53287 15.2482 6.28485 15.192C6.34815 14.9498 6.40628 14.7296 6.47345 14.4731C6.684 14.5377 6.88099 14.5907 7.07152 14.6617C7.10899 14.6759 7.14968 14.7618 7.14128 14.8051C7.10446 14.9827 7.04956 15.1571 6.99596 15.3528Z" fill="white" stroke="white" stroke-width="0.5"/>
<path d="M22.3277 29.2765C22.2373 29.0382 22.1585 28.8296 22.0681 28.5906C22.2825 28.4995 22.484 28.4143 22.7081 28.3193C22.8095 28.5422 22.9045 28.7501 23.0117 28.9872C22.7811 29.0847 22.5693 29.1745 22.3277 29.2765Z" fill="white" stroke="white" stroke-width="0.5"/>
<path d="M19.2145 29.2592C19.4638 29.2276 19.6615 29.2031 19.8946 29.1733C19.9353 29.4091 19.9741 29.6332 20.018 29.889C19.7739 29.9219 19.5478 29.9529 19.2869 29.9884C19.263 29.743 19.2397 29.5105 19.2145 29.2592Z" fill="white" stroke="white" stroke-width="0.5"/>
<path d="M20.3493 16.8241C19.2081 16.8241 18.1095 16.7924 17.0134 16.8338C16.126 16.8674 15.3451 17.7025 15.287 18.5802C15.2211 19.5775 15.8302 20.4416 16.7622 20.6645C16.9023 20.698 17.0483 20.7071 17.1923 20.7194C17.4539 20.742 17.6037 20.8737 17.6057 21.1301C17.6128 21.8806 17.6134 22.6318 17.6057 23.3823C17.6031 23.6652 17.4345 23.7957 17.1219 23.7924C14.8988 23.7705 12.8527 22.1228 12.3541 19.9534C11.7127 17.1645 13.3939 14.4867 16.1912 13.8647C16.5581 13.7833 16.9424 13.7568 17.3189 13.7497C18.2309 13.7336 19.1435 13.7446 20.0555 13.7446C20.1427 13.7446 20.2299 13.7446 20.3487 13.7446C20.3487 13.3861 20.3519 13.0503 20.3474 12.7138C20.3448 12.509 20.3713 12.3256 20.5864 12.2313C20.8131 12.1312 20.9507 12.2739 21.0902 12.4134C21.9298 13.2524 22.7694 14.0908 23.6078 14.931C23.8752 15.1984 23.8771 15.3638 23.6142 15.6273C22.7649 16.4786 21.9137 17.3285 21.0624 18.1785C20.9332 18.3077 20.7982 18.4213 20.5948 18.3354C20.3907 18.2495 20.3455 18.0823 20.3474 17.882C20.3519 17.5365 20.3493 17.1916 20.3493 16.8241ZM21.105 16.9617C21.6837 16.3836 22.2573 15.8114 22.7765 15.2934C22.2314 14.7515 21.6592 14.1838 21.1057 13.6335C21.1057 13.7155 21.1063 13.8518 21.1057 13.9881C21.1031 14.3665 20.9733 14.4996 20.5974 14.5002C19.491 14.5015 18.3846 14.499 17.2782 14.5028C17.069 14.5035 16.8584 14.517 16.6511 14.5442C14.654 14.8064 13.0613 16.5115 12.9696 18.4801C12.8701 20.6238 14.2407 22.4742 16.2713 22.9308C16.4547 22.9722 16.6433 22.9883 16.8545 23.0206C16.8545 22.5821 16.8403 22.1868 16.8597 21.7934C16.872 21.5454 16.81 21.4395 16.5452 21.3736C15.2721 21.0565 14.3983 19.8042 14.5371 18.5408C14.6889 17.1574 15.7598 16.1091 17.1155 16.0742C18.3019 16.0432 19.4897 16.0633 20.6768 16.0665C20.9591 16.0671 21.0979 16.2202 21.1057 16.5102C21.1082 16.6678 21.105 16.8267 21.105 16.9617Z" fill="white" stroke="white" stroke-width="0.5"/>
</g>
</g>
<defs>
<filter id="filter0_d_2525_6448" x="0" y="0" width="36" height="36" filterUnits="userSpaceOnUse" color-interpolation-filters="sRGB">
<feFlood flood-opacity="0" result="BackgroundImageFix"/>
<feColorMatrix in="SourceAlpha" type="matrix" values="0 0 0 0 0 0 0 0 0 0 0 0 0 0 0 0 0 0 127 0" result="hardAlpha"/>
<feOffset/>
<feGaussianBlur stdDeviation="1"/>
<feComposite in2="hardAlpha" operator="out"/>
<feColorMatrix type="matrix" values="0 0 0 0 1 0 0 0 0 0.588235 0 0 0 0 0.14902 0 0 0 0.1 0"/>
<feBlend mode="normal" in2="BackgroundImageFix" result="effect1_dropShadow_2525_6448"/>
<feBlend mode="normal" in="SourceGraphic" in2="effect1_dropShadow_2525_6448" result="shape"/>
</filter>
<clipPath id="clip0_2525_6448">
<rect width="26" height="26" fill="white" transform="translate(5 5)"/>
</clipPath>
</defs>
</svg>
