<svg width="24" height="24" viewBox="0 0 24 24" fill="none" xmlns="http://www.w3.org/2000/svg">
<path fill-rule="evenodd" clip-rule="evenodd" d="M14.1674 3C14.8975 3 15.581 3.36529 15.9959 3.9772L16.9478 5.38104C17.3627 5.99296 18.0462 6.35824 18.7763 6.35824H19.8052C21.0173 6.35824 22 7.35918 22 8.59389V17.7364C22 18.9866 21.0051 20 19.7778 20H4.22222C2.99492 20 2 18.9866 2 17.7364V8.6218C2 7.37167 2.99492 6.35824 4.22222 6.35824H5.28653C6.03122 6.35824 6.7264 5.9783 7.13816 5.34626L8.00739 4.01199C8.41914 3.37995 9.11433 3 9.85902 3H14.1674ZM14.3778 5.22194C14.285 5.08325 14.1292 5 13.9623 5H10.0708C9.90069 5 9.74223 5.0865 9.65023 5.22961L8.90378 6.39066C8.10657 7.63066 6.79288 8.40517 5.3639 8.492L5.09471 8.50017H4.5C4.22386 8.50017 4 8.72403 4 9.00017V17.5C4 17.7761 4.22386 18 4.5 18H19.5C19.7761 18 20 17.7761 20 17.5V8.99956C20 8.7232 19.7758 8.49924 19.4994 8.49956L18.9699 8.50017C17.5563 8.50017 16.2277 7.82566 15.3646 6.68287L15.2084 6.46316L14.3778 5.22194ZM12 7C14.7614 7 17 9.23858 17 12C17 14.7614 14.7614 17 12 17C9.23858 17 7 14.7614 7 12C7 9.23858 9.23858 7 12 7ZM12 9C10.3431 9 9 10.3431 9 12C9 13.6569 10.3431 15 12 15C13.6569 15 15 13.6569 15 12C15 10.3431 13.6569 9 12 9Z" fill="#FF9626"/>
</svg>
