<svg width="24" height="22" viewBox="0 0 24 22" fill="none" xmlns="http://www.w3.org/2000/svg">
<path d="M11.0307 0.818845C11.2859 -0.186474 12.7141 -0.186476 12.9693 0.818842L14.7516 7.84117C14.8469 8.2164 15.1501 8.50295 15.5301 8.5768L22.9485 10.0184C24.0275 10.228 24.0275 11.772 22.9485 11.9816L15.5301 13.4232C15.1501 13.497 14.8469 13.7836 14.7516 14.1588L12.9693 21.1812C12.7141 22.1865 11.2859 22.1865 11.0307 21.1812L9.24838 14.1588C9.15315 13.7836 8.84989 13.497 8.46987 13.4232L1.05154 11.9816C-0.0274556 11.772 -0.0274551 10.228 1.05154 10.0184L8.46987 8.5768C8.84989 8.50295 9.15315 8.2164 9.24838 7.84117L11.0307 0.818845Z" fill="#0702D1"/>
</svg>
