<svg width="28" height="18" viewBox="0 0 28 18" fill="none" xmlns="http://www.w3.org/2000/svg">
<g clip-path="url(#clip0_2525_6345)">
<path d="M0.55111 9.81821C0.977031 9.81821 1.3348 9.81821 1.69258 9.81821C2.04183 9.81821 2.15257 9.70747 2.15257 9.36674C2.15257 8.54045 2.15257 7.70565 2.15257 6.87936C2.15257 6.53863 2.03331 6.4364 1.68406 6.42789C1.32629 6.42789 0.959994 6.42789 0.5 6.42789C0.602221 6.12122 0.627776 5.84012 0.772589 5.63567C1.48814 4.57939 2.22924 3.54015 2.98737 2.50942C3.11515 2.33053 3.32811 2.1772 3.54107 2.10905C6.41177 1.16351 9.35914 0.79722 12.3832 1.05277C13.908 1.18055 15.3902 1.50425 16.7787 2.16017C18.295 2.87571 19.5046 3.93199 20.2457 5.45679C20.3479 5.67827 20.5097 5.75493 20.7397 5.79752C22.2305 6.05308 23.7127 6.32567 25.2034 6.58974C25.3056 6.60677 25.4078 6.64085 25.5271 6.67492C25.476 6.85381 25.4163 7.01566 25.3823 7.17751C25.1863 8.02935 25.4419 8.74489 26.1148 9.28155C26.413 9.52859 26.7708 9.71599 27.12 9.89488C27.3245 9.9971 27.4608 10.0993 27.4096 10.3464C27.3159 10.7978 27.2904 11.2834 27.1115 11.7008C26.8389 12.3397 26.3363 12.7145 25.5782 12.6804C25.0671 12.6548 24.556 12.6634 24.0449 12.6804C23.8234 12.6889 23.7382 12.6208 23.6956 12.3908C23.4145 10.8915 22.0856 9.81821 20.5523 9.82673C19.0446 9.83525 17.7242 10.9171 17.4516 12.4078C17.409 12.6208 17.3324 12.6889 17.1279 12.6804C15.0409 12.6719 12.9539 12.6719 10.8669 12.6804C10.6539 12.6804 10.5773 12.6208 10.5432 12.4078C10.2621 10.8915 8.9247 9.81821 7.38287 9.82673C5.87511 9.83525 4.56328 10.9426 4.29921 12.4248C4.26514 12.6293 4.20551 12.7145 3.98403 12.7145C3.49848 12.706 3.00441 12.7571 2.51886 12.723C1.45406 12.6463 1.01962 12.2715 0.789626 11.2323C0.66185 10.7638 0.619258 10.3123 0.55111 9.81821ZM7.51917 7.24565C8.93322 7.24565 10.3473 7.24565 11.7699 7.24565C12.1361 7.24565 12.2469 7.14343 12.2554 6.81121C12.2554 5.40568 12.2554 4.00014 12.2554 2.5946C12.2554 2.33905 12.1447 2.1772 11.8976 2.16017C10.9947 2.09202 10.1002 1.98128 9.19729 1.9898C7.82583 1.99832 6.54807 2.46683 5.27031 2.9183C5.00624 3.01201 4.81031 3.1483 4.65698 3.39533C4.13736 4.20458 3.61774 5.00531 3.07256 5.78901C2.86812 6.08715 2.77441 6.38529 2.79145 6.74307C2.81701 7.16047 2.89367 7.25417 3.30256 7.25417C4.70809 7.25417 6.11363 7.24565 7.51917 7.24565ZM16.4039 7.24565C17.3835 7.24565 18.3631 7.24565 19.3427 7.24565C19.709 7.24565 19.8623 7.04973 19.7346 6.75159C19.3853 5.9253 18.9935 5.12457 18.3546 4.47717C17.0087 3.10571 15.3135 2.5009 13.4735 2.19424C13.1584 2.14313 13.0476 2.27942 13.0476 2.67127C13.0476 4.03421 13.0476 5.39716 13.0476 6.7601C13.0476 7.16899 13.1413 7.25417 13.5672 7.25417C14.5128 7.25417 15.4583 7.24565 16.4039 7.24565Z" fill="#39629C"/>
<path d="M9.91287 12.9956C9.91287 14.3926 8.78844 15.5 7.39142 15.5C5.9944 15.5 4.87849 14.3756 4.88701 12.9786C4.89553 11.5901 6.01996 10.4571 7.39994 10.4656C8.79696 10.4741 9.91287 11.6071 9.91287 12.9956ZM8.814 13.0041C8.82251 12.2119 8.20067 11.5815 7.41698 11.573C6.62477 11.5645 5.9944 12.1863 5.98589 12.9786C5.97737 13.7708 6.59921 14.4096 7.3829 14.4096C8.17512 14.4096 8.80548 13.7878 8.814 13.0041Z" fill="#39629C"/>
<path d="M23.0738 13.0041C23.0652 14.4011 21.9493 15.5085 20.5438 15.5C19.1553 15.4915 18.0394 14.3671 18.0479 12.9701C18.0564 11.5816 19.1979 10.4486 20.5693 10.4656C21.9664 10.4827 23.0823 11.6156 23.0738 13.0041ZM21.9749 13.0041C21.9834 12.2119 21.3701 11.5816 20.5779 11.5645C19.7857 11.556 19.1553 12.1693 19.1468 12.9615C19.1383 13.7537 19.7601 14.3926 20.5438 14.4011C21.3275 14.4182 21.9664 13.7963 21.9749 13.0041Z" fill="#39629C"/>
<path d="M1.44559 9.13676C1.15596 9.13676 0.883376 9.13676 0.59375 9.13676C0.59375 8.4638 0.59375 7.79937 0.59375 7.10938C0.874857 7.10938 1.14745 7.10938 1.44559 7.10938C1.44559 7.77381 1.44559 8.43825 1.44559 9.13676Z" fill="#39629C"/>
<path d="M26.1574 6.95605C26.9155 7.54382 27.1796 8.32752 27.3074 9.20491C26.217 8.88122 25.7144 7.91863 26.1574 6.95605Z" fill="#39629C"/>
<path d="M7.85981 6.55564C7.85981 5.73787 7.85981 4.93714 7.85981 4.14493C7.85981 3.79568 7.86832 3.44642 7.85129 3.08865C7.84277 2.89272 7.91092 2.80754 8.10684 2.77347C9.24831 2.57754 10.3898 2.59458 11.5483 2.7905C11.5483 4.04271 11.5483 5.29491 11.5483 6.55564C10.3216 6.55564 9.10349 6.55564 7.85981 6.55564Z" fill="#39629C"/>
<path d="M7.17835 2.98645C7.17835 4.22162 7.17835 5.38012 7.17835 6.56418C5.94319 6.56418 4.73357 6.56418 3.45581 6.56418C3.51544 6.42789 3.54099 6.32566 3.60062 6.23196C4.13728 5.4142 4.67394 4.59643 5.21912 3.78718C5.26171 3.72755 5.3043 3.64237 5.36393 3.62533C5.9517 3.40385 6.54799 3.19941 7.17835 2.98645Z" fill="#39629C"/>
<path d="M13.7375 6.55567C13.7375 5.32902 13.7375 4.13644 13.7375 2.90979C15.9779 3.39534 17.9201 4.26422 18.9167 6.55567C17.1705 6.55567 15.4668 6.55567 13.7375 6.55567Z" fill="#39629C"/>
<path d="M7.39992 13.7282C6.99104 13.7282 6.64178 13.3789 6.6503 12.97C6.65882 12.5611 7.01659 12.2204 7.41696 12.2289C7.8088 12.2374 8.14954 12.5782 8.14954 12.97C8.15806 13.3959 7.8088 13.7367 7.39992 13.7282Z" fill="#39629C"/>
<path d="M20.5693 13.7281C20.1519 13.7366 19.8112 13.4044 19.8026 12.987C19.7941 12.5867 20.1519 12.2289 20.5523 12.2289C20.9441 12.2289 21.2848 12.5611 21.3019 12.9529C21.3274 13.3703 20.9867 13.7196 20.5693 13.7281Z" fill="#39629C"/>
<path d="M16.2169 10.4503C16.4446 10.6472 16.6727 10.8505 16.9188 11.0331C16.9873 11.0864 17.0981 11.0977 17.1886 11.0976C17.7584 11.108 18.3342 11.1115 18.865 11.1182C18.0238 12.0911 17.1766 13.0708 16.3294 14.0506C16.2808 13.7372 16.177 13.3762 16.1633 13.0086C16.1456 12.4085 15.9066 11.9667 15.4053 11.6538C15.358 11.6249 15.3161 11.5827 15.2614 11.5414C13.9015 12.6748 12.3452 13.1499 10.5918 12.8697C9.21109 12.6466 8.06931 11.9728 7.17614 10.8931C5.40312 8.739 5.4919 5.59622 7.3865 3.54458C9.2866 1.47961 12.4105 1.13003 14.7178 2.71505C17.1 4.35283 17.96 7.73716 16.2169 10.4503ZM11.2144 3.18271C8.91146 3.34984 7.19968 5.33648 7.36681 7.63942C7.53348 9.93593 9.5275 11.6601 11.83 11.4865C14.1265 11.3198 15.8443 9.32631 15.6772 7.02337C15.5041 4.72733 13.5174 3.01557 11.2144 3.18271Z" fill="white"/>
<path d="M20.0806 12.097C20.5695 12.5077 21.1026 12.9023 21.576 13.3659C22.3272 14.0938 22.3318 15.3157 21.6393 16.1096C20.9467 16.9036 19.742 17.0557 18.9123 16.4045C18.3986 16.0086 17.9316 15.5445 17.4615 15.126C18.3325 14.1186 19.2155 13.0975 20.0806 12.097Z" fill="white"/>
<g filter="url(#filter0_f_2525_6345)">
<circle cx="11.5123" cy="7.1376" r="4.6019" transform="rotate(8.80869 11.5123 7.1376)" fill="white" fill-opacity="0.5"/>
</g>
</g>
<defs>
<filter id="filter0_f_2525_6345" x="4.90967" y="0.535034" width="13.2053" height="13.2051" filterUnits="userSpaceOnUse" color-interpolation-filters="sRGB">
<feFlood flood-opacity="0" result="BackgroundImageFix"/>
<feBlend mode="normal" in="SourceGraphic" in2="BackgroundImageFix" result="shape"/>
<feGaussianBlur stdDeviation="1" result="effect1_foregroundBlur_2525_6345"/>
</filter>
<clipPath id="clip0_2525_6345">
<rect width="27" height="18" fill="white" transform="translate(0.5)"/>
</clipPath>
</defs>
</svg>
