<svg width="28" height="18" viewBox="0 0 28 18" fill="none" xmlns="http://www.w3.org/2000/svg">
<g clip-path="url(#clip0_87_5209)">
<path d="M0.52865 9.81723C0.95457 9.81723 1.31234 9.81723 1.67012 9.81723C2.01937 9.81723 2.13011 9.7065 2.13011 9.36576C2.13011 8.53947 2.13011 7.70467 2.13011 6.87838C2.13011 6.53765 2.01085 6.43543 1.6616 6.42691C1.30382 6.42691 0.937533 6.42691 0.477539 6.42691C0.57976 6.12025 0.605315 5.83914 0.750128 5.6347C1.46567 4.57841 2.20678 3.53917 2.96491 2.50844C3.09269 2.32956 3.30565 2.17622 3.51861 2.10808C6.38931 1.16253 9.33668 0.796244 12.3607 1.0518C13.8855 1.17957 15.3677 1.50327 16.7562 2.15919C18.2725 2.87473 19.4821 3.93102 20.2232 5.45581C20.3254 5.67729 20.4873 5.75396 20.7173 5.79655C22.208 6.0521 23.6902 6.32469 25.1809 6.58876C25.2831 6.6058 25.3854 6.63987 25.5046 6.67394C25.4535 6.85283 25.3939 7.01468 25.3598 7.17653C25.1639 8.02837 25.4194 8.74392 26.0924 9.28057C26.3905 9.52761 26.7483 9.71501 27.0976 9.8939C27.302 9.99612 27.4383 10.0983 27.3872 10.3454C27.2935 10.7969 27.2679 11.2824 27.089 11.6998C26.8165 12.3387 26.3139 12.7135 25.5557 12.6794C25.0446 12.6539 24.5335 12.6624 24.0224 12.6794C23.8009 12.6879 23.7157 12.6198 23.6732 12.3898C23.392 10.8906 22.0632 9.81723 20.5299 9.82575C19.0221 9.83427 17.7018 10.9161 17.4292 12.4068C17.3866 12.6198 17.3099 12.6879 17.1055 12.6794C15.0185 12.6709 12.9314 12.6709 10.8444 12.6794C10.6315 12.6794 10.5548 12.6198 10.5207 12.4068C10.2396 10.8906 8.90224 9.81723 7.36041 9.82575C5.85265 9.83427 4.54082 10.9417 4.27675 12.4239C4.24267 12.6283 4.18305 12.7135 3.96157 12.7135C3.47602 12.705 2.98195 12.7561 2.4964 12.722C1.4316 12.6453 0.997162 12.2705 0.767165 11.2313C0.639389 10.7628 0.596797 10.3113 0.52865 9.81723ZM7.49671 7.24468C8.91076 7.24468 10.3248 7.24468 11.7474 7.24468C12.1137 7.24468 12.2244 7.14246 12.2329 6.81024C12.2329 5.4047 12.2329 3.99916 12.2329 2.59363C12.2329 2.33807 12.1222 2.17623 11.8752 2.15919C10.9722 2.09104 10.0778 1.9803 9.17483 1.98882C7.80337 1.99734 6.52561 2.46585 5.24785 2.91733C4.98378 3.01103 4.78785 3.14732 4.63452 3.39436C4.1149 4.20361 3.59528 5.00434 3.0501 5.78803C2.84566 6.08617 2.75195 6.38432 2.76899 6.74209C2.79455 7.15949 2.87121 7.25319 3.28009 7.25319C4.68563 7.25319 6.09117 7.24468 7.49671 7.24468ZM16.3814 7.24468C17.361 7.24468 18.3406 7.24468 19.3203 7.24468C19.6865 7.24468 19.8399 7.04875 19.7121 6.75061C19.3628 5.92432 18.971 5.12359 18.3321 4.47619C16.9862 3.10473 15.291 2.49992 13.4511 2.19326C13.1359 2.14215 13.0252 2.27845 13.0252 2.67029C13.0252 4.03324 13.0252 5.39618 13.0252 6.75913C13.0252 7.16801 13.1189 7.25319 13.5448 7.25319C14.4903 7.25319 15.4359 7.24468 16.3814 7.24468Z" fill="white"/>
<path d="M9.89038 12.9949C9.89038 14.3919 8.76595 15.4993 7.36893 15.4993C5.97191 15.4993 4.856 14.3748 4.86452 12.9778C4.87304 11.5893 5.99747 10.4564 7.37745 10.4649C8.77447 10.4734 9.89038 11.6064 9.89038 12.9949ZM8.7915 13.0034C8.80002 12.2112 8.17818 11.5808 7.39449 11.5723C6.60227 11.5638 5.97191 12.1856 5.96339 12.9778C5.95488 13.77 6.57672 14.4089 7.36041 14.4089C8.15262 14.4089 8.78299 13.7871 8.7915 13.0034Z" fill="white"/>
<path d="M23.0513 13.0035C23.0428 14.4005 21.9269 15.5079 20.5213 15.4994C19.1328 15.4909 18.0169 14.3665 18.0255 12.9694C18.034 11.5809 19.1754 10.448 20.5469 10.465C21.9439 10.4821 23.0598 11.615 23.0513 13.0035ZM21.9524 13.0035C21.961 12.2113 21.3476 11.5809 20.5554 11.5639C19.7632 11.5554 19.1328 12.1687 19.1243 12.9609C19.1158 13.7531 19.7377 14.392 20.5213 14.4005C21.305 14.4176 21.9439 13.7957 21.9524 13.0035Z" fill="white"/>
<path d="M1.42308 9.13676C1.13346 9.13676 0.860869 9.13676 0.571243 9.13676C0.571243 8.4638 0.571243 7.79937 0.571243 7.10938C0.852351 7.10938 1.12494 7.10938 1.42308 7.10938C1.42308 7.77381 1.42308 8.43825 1.42308 9.13676Z" fill="white"/>
<path d="M26.135 6.95312C26.8931 7.5409 27.1572 8.32459 27.285 9.20198C26.1946 8.87829 25.692 7.9157 26.135 6.95312Z" fill="white"/>
<path d="M7.83744 6.55369C7.83744 5.73592 7.83744 4.93519 7.83744 4.14298C7.83744 3.79372 7.84596 3.44447 7.82893 3.08669C7.82041 2.89077 7.88855 2.80559 8.08448 2.77151C9.22594 2.57559 10.3674 2.59263 11.5259 2.78855C11.5259 4.04076 11.5259 5.29296 11.5259 6.55369C10.2993 6.55369 9.08113 6.55369 7.83744 6.55369Z" fill="white"/>
<path d="M7.15597 2.98438C7.15597 4.21954 7.15597 5.37805 7.15597 6.56211C5.9208 6.56211 4.71119 6.56211 3.43343 6.56211C3.49305 6.42581 3.51861 6.32359 3.57824 6.22989C4.1149 5.41212 4.65156 4.59435 5.19674 3.7851C5.23933 3.72548 5.28192 3.64029 5.34155 3.62326C5.92932 3.40178 6.52561 3.19734 7.15597 2.98438Z" fill="white"/>
<path d="M13.7151 6.55603C13.7151 5.32938 13.7151 4.13681 13.7151 2.91016C15.9555 3.39571 17.8977 4.26458 18.8943 6.55603C17.1481 6.55603 15.4444 6.55603 13.7151 6.55603Z" fill="white"/>
<path d="M7.37745 13.726C6.96857 13.726 6.61931 13.3767 6.62783 12.9678C6.63635 12.5589 6.99412 12.2182 7.39449 12.2267C7.78633 12.2352 8.12707 12.576 8.12707 12.9678C8.13559 13.3937 7.78633 13.7345 7.37745 13.726Z" fill="white"/>
<path d="M20.5469 13.7258C20.1295 13.7343 19.7888 13.4021 19.7802 12.9847C19.7717 12.5843 20.1295 12.2266 20.5299 12.2266C20.9217 12.2266 21.2624 12.5588 21.2795 12.9506C21.305 13.368 20.9643 13.7173 20.5469 13.7258Z" fill="white"/>
<g filter="url(#filter0_d_87_5209)">
<path d="M16.1945 10.4507C16.4222 10.6476 16.6503 10.8509 16.8964 11.0335C16.9649 11.0867 17.0757 11.0981 17.1662 11.098C17.736 11.1084 18.3118 11.1118 18.8426 11.1186C18.0014 12.0914 17.1542 13.0712 16.307 14.0509C16.2584 13.7376 16.1546 13.3765 16.1409 13.0089C16.1232 12.4088 15.8842 11.967 15.383 11.6542C15.3356 11.6253 15.2937 11.5831 15.239 11.5418C13.8792 12.6751 12.3228 13.1502 10.5694 12.8701C9.18872 12.6469 8.04694 11.9732 7.15377 10.8934C5.38075 8.73937 5.46953 5.59658 7.36414 3.54495C9.26423 1.47998 12.3882 1.1304 14.6954 2.71542C17.0777 4.3532 17.9376 7.73753 16.1945 10.4507ZM11.1921 3.18307C8.88909 3.35021 7.17731 5.33684 7.34444 7.63978C7.51111 9.93629 9.50513 11.6604 11.8076 11.4869C14.1042 11.3202 15.8219 9.32668 15.6548 7.02374C15.4817 4.72769 13.495 3.01594 11.1921 3.18307Z" fill="#F1F1F1"/>
</g>
<g filter="url(#filter1_d_87_5209)">
<path d="M20.0583 12.0982C20.5472 12.509 21.0802 12.9035 21.5536 13.3671C22.3049 14.0951 22.3095 15.3169 21.617 16.1109C20.9244 16.9048 19.7197 17.0569 18.89 16.4058C18.3762 16.0098 17.9093 15.5457 17.4392 15.1272C18.3102 14.1198 19.1932 13.0987 20.0583 12.0982Z" fill="#F1F1F1"/>
</g>
<g filter="url(#filter2_f_87_5209)">
<circle cx="11.4899" cy="7.13906" r="4.6019" transform="rotate(8.80869 11.4899 7.13906)" fill="#FF9626" fill-opacity="0.5"/>
</g>
</g>
<defs>
<filter id="filter0_d_87_5209" x="4.88131" y="1.72656" width="14.9613" height="14.3242" filterUnits="userSpaceOnUse" color-interpolation-filters="sRGB">
<feFlood flood-opacity="0" result="BackgroundImageFix"/>
<feColorMatrix in="SourceAlpha" type="matrix" values="0 0 0 0 0 0 0 0 0 0 0 0 0 0 0 0 0 0 127 0" result="hardAlpha"/>
<feOffset dy="1"/>
<feGaussianBlur stdDeviation="0.5"/>
<feComposite in2="hardAlpha" operator="out"/>
<feColorMatrix type="matrix" values="0 0 0 0 1 0 0 0 0 0.588235 0 0 0 0 0.14902 0 0 0 0.25 0"/>
<feBlend mode="normal" in2="BackgroundImageFix" result="effect1_dropShadow_87_5209"/>
<feBlend mode="normal" in="SourceGraphic" in2="effect1_dropShadow_87_5209" result="shape"/>
</filter>
<filter id="filter1_d_87_5209" x="13.4392" y="9.09766" width="12.6878" height="12.7148" filterUnits="userSpaceOnUse" color-interpolation-filters="sRGB">
<feFlood flood-opacity="0" result="BackgroundImageFix"/>
<feColorMatrix in="SourceAlpha" type="matrix" values="0 0 0 0 0 0 0 0 0 0 0 0 0 0 0 0 0 0 127 0" result="hardAlpha"/>
<feOffset dy="1"/>
<feGaussianBlur stdDeviation="2"/>
<feComposite in2="hardAlpha" operator="out"/>
<feColorMatrix type="matrix" values="0 0 0 0 1 0 0 0 0 0.588235 0 0 0 0 0.14902 0 0 0 0.25 0"/>
<feBlend mode="normal" in2="BackgroundImageFix" result="effect1_dropShadow_87_5209"/>
<feBlend mode="normal" in="SourceGraphic" in2="effect1_dropShadow_87_5209" result="shape"/>
</filter>
<filter id="filter2_f_87_5209" x="4.88733" y="0.535156" width="13.2051" height="13.207" filterUnits="userSpaceOnUse" color-interpolation-filters="sRGB">
<feFlood flood-opacity="0" result="BackgroundImageFix"/>
<feBlend mode="normal" in="SourceGraphic" in2="BackgroundImageFix" result="shape"/>
<feGaussianBlur stdDeviation="1" result="effect1_foregroundBlur_87_5209"/>
</filter>
<clipPath id="clip0_87_5209">
<rect width="27" height="18" fill="white" transform="translate(0.477539)"/>
</clipPath>
</defs>
</svg>
