<svg width="24" height="26" viewBox="0 0 24 26" fill="none" xmlns="http://www.w3.org/2000/svg">
<path d="M11.5119 1.1955C11.628 0.673513 12.372 0.673511 12.4881 1.1955L14.2112 8.94633C14.2743 9.23006 14.5651 9.4004 14.8434 9.31658L23.2095 6.79711C23.7428 6.63653 24.0997 7.33659 23.6565 7.6738L17.179 12.6021C16.916 12.8022 16.916 13.1978 17.179 13.3979L23.6565 18.3262C24.0997 18.6634 23.7428 19.3635 23.2095 19.2029L14.8434 16.6834C14.5651 16.5996 14.2743 16.7699 14.2112 17.0537L12.4881 24.8045C12.372 25.3265 11.628 25.3265 11.5119 24.8045L9.78882 17.0537C9.72574 16.7699 9.43487 16.5996 9.15656 16.6834L0.790472 19.2029C0.257229 19.3635 -0.0996664 18.6634 0.343537 18.3262L6.821 13.3979C7.08399 13.1978 7.08399 12.8022 6.821 12.6021L0.343535 7.67379C-0.0996685 7.33659 0.257226 6.63653 0.79047 6.79711L9.15656 9.31658C9.43487 9.4004 9.72574 9.23006 9.78882 8.94633L11.5119 1.1955Z" fill="#C20001"/>
</svg>
