<svg width="25" height="24" viewBox="0 0 25 24" fill="none" xmlns="http://www.w3.org/2000/svg">
<g clip-path="url(#clip0_2686_8508)">
<path d="M24.2493 9.31198C24.14 9.77972 23.8423 10.126 23.5082 10.454C19.6266 14.3356 15.7449 18.2173 11.8633 22.0989C11.8086 22.1536 11.76 22.2082 11.6689 22.2993C11.7904 22.2993 11.8694 22.2993 11.9484 22.2993C13.139 22.2993 14.3296 22.2993 15.5202 22.2993C15.5931 22.2993 15.672 22.2933 15.7449 22.3054C15.9333 22.3358 16.073 22.4998 16.073 22.6881C16.073 22.8704 15.9333 23.0404 15.7449 23.0708C15.672 23.083 15.5931 23.0769 15.5202 23.0769C13.0175 23.0769 10.5087 23.0708 8.00598 23.083C7.49572 23.083 7.08265 22.9129 6.72425 22.5545C4.96871 20.7929 3.20709 19.0312 1.44548 17.2757C1.1782 17.0084 1.01418 16.6986 0.916992 16.3402C0.916992 16.1701 0.916992 16.0061 0.916992 15.836C1.03241 15.3622 1.34221 15.016 1.68238 14.6819C6.08643 10.2839 10.4783 5.88594 14.8763 1.49405C15.6356 0.734731 16.5589 0.734731 17.3243 1.49405C19.3775 3.54724 21.4307 5.60651 23.49 7.65971C23.8302 7.99381 24.1339 8.34005 24.2493 8.81387C24.2493 8.97788 24.2493 9.14797 24.2493 9.31198ZM20.7139 12.1123C18.1565 9.55496 15.5992 6.99758 13.0843 4.47665C10.7699 6.79105 8.43727 9.12367 6.1168 11.4441C8.64988 13.9772 11.2012 16.5346 13.7464 19.0798C16.073 16.7533 18.3995 14.4267 20.7139 12.1123ZM5.48505 11.9969C5.48505 11.9969 5.46682 12.003 5.45467 12.0152C4.27621 13.1875 3.09775 14.3599 1.93144 15.5445C1.59734 15.8786 1.62164 16.3281 1.96789 16.6804C3.74773 18.4663 5.53364 20.2462 7.31348 22.0321C7.50179 22.2204 7.72048 22.3115 7.98776 22.3054C8.71063 22.2993 9.42742 22.2993 10.1503 22.3054C10.4358 22.3054 10.6606 22.2143 10.861 22.0138C11.4867 21.3821 12.1124 20.7564 12.7441 20.1307C12.896 19.9849 13.0418 19.8331 13.1815 19.6994C10.6059 17.1178 8.05458 14.5665 5.48505 11.9969ZM13.6432 3.81452C16.2188 6.39013 18.7761 8.94751 21.3214 11.4927C21.9774 10.8488 22.6517 10.211 23.3017 9.53674C23.5872 9.23909 23.5325 8.80172 23.2227 8.49192C21.0419 6.30508 18.8551 4.12432 16.6683 1.93749C16.322 1.59124 15.8664 1.59732 15.5141 1.94964C15.2043 2.25337 14.9006 2.56317 14.5969 2.86689C14.2749 3.18885 13.953 3.5108 13.6432 3.81452Z" fill="#FF9626" stroke="#FF9626" stroke-width="0.7"/>
<path d="M17.6219 23.077C17.4943 23.077 17.3607 23.0831 17.2331 23.077C17.0144 23.0648 16.8625 22.9008 16.8625 22.6943C16.8625 22.4878 17.0083 22.3177 17.2331 22.3116C17.5065 22.2995 17.7798 22.2995 18.0532 22.3116C18.2658 22.3238 18.4176 22.4999 18.4176 22.7064C18.4116 22.9008 18.2658 23.0648 18.0592 23.077C17.9134 23.0831 17.7677 23.0709 17.6219 23.077Z" fill="#FF9626" stroke="#FF9626" stroke-width="0.7"/>
<path d="M10.9825 14.615C10.8549 14.5178 10.7152 14.451 10.6666 14.3477C10.618 14.2384 10.6484 14.0865 10.6788 13.965C10.6909 13.8982 10.7699 13.8496 10.8246 13.7949C12.2278 12.3917 13.6249 10.9946 15.0282 9.59136C15.0707 9.54883 15.1132 9.50024 15.1618 9.46379C15.3319 9.33623 15.5384 9.34837 15.6781 9.48809C15.8178 9.6278 15.83 9.84041 15.7024 10.0044C15.6781 10.0409 15.6417 10.0712 15.6113 10.1016C14.1899 11.5231 12.7684 12.9445 11.3409 14.3659C11.2498 14.4631 11.1222 14.5178 10.9825 14.615Z" fill="#FF9626" stroke="#FF9626" stroke-width="0.7"/>
<path d="M8.32186 11.8087C7.96347 11.8148 7.76908 11.4928 7.90879 11.2377C7.94524 11.1709 7.99991 11.1162 8.05458 11.0615C9.19052 9.9195 10.3265 8.78356 11.4745 7.64762C11.5717 7.55043 11.7297 7.45931 11.8633 7.45931C12.1488 7.45323 12.3068 7.79948 12.1488 8.04246C12.1063 8.10928 12.0395 8.17003 11.9848 8.23077C10.861 9.35456 9.74331 10.4784 8.61344 11.5961C8.51625 11.6993 8.38261 11.7601 8.32186 11.8087Z" fill="#FF9626" stroke="#FF9626" stroke-width="0.7"/>
<path d="M11.0311 10.9885C11.1343 11.0736 11.268 11.1465 11.3409 11.2497C11.4441 11.4077 11.3834 11.5717 11.2558 11.7053C10.8974 12.0698 10.539 12.4282 10.1806 12.7866C10.0834 12.8838 9.99232 12.987 9.88905 13.0721C9.70682 13.23 9.48813 13.2179 9.33627 13.0539C9.19656 12.902 9.19048 12.6833 9.34842 12.5193C9.80401 12.0516 10.2657 11.596 10.7334 11.1404C10.8002 11.0796 10.9035 11.0553 11.0311 10.9885Z" fill="#FF9626" stroke="#FF9626" stroke-width="0.7"/>
</g>
<defs>
<clipPath id="clip0_2686_8508">
<rect width="24.9231" height="24" fill="white"/>
</clipPath>
</defs>
</svg>
