<svg width="213" height="105" viewBox="0 0 213 105" fill="none" xmlns="http://www.w3.org/2000/svg">
<g clip-path="url(#clip0_1283_13018)">
<rect width="213" height="105" rx="8" fill="url(#paint0_linear_1283_13018)"/>
<path d="M-76.7413 -55.8745C-86.14 -58.4847 -83.5971 -73.2973 -73.8677 -72.5986L240.564 -50.0164C244.293 -49.7486 247.339 -46.9342 247.901 -43.2383L279.601 165.463C280.886 173.92 269.564 178.432 264.651 171.43C231.74 124.531 166.903 36.1221 130.999 14C100.905 -4.54226 -1.25875 -34.9116 -76.7413 -55.8745Z" fill="url(#paint1_linear_1283_13018)"/>
<path d="M73.016 54.68C71.312 54.68 69.836 54.464 68.588 54.032C67.364 53.576 66.416 52.856 65.744 51.872C65.072 50.864 64.688 49.52 64.592 47.84L63.944 33.332H69.02L69.632 46.076C69.68 47.06 69.836 47.816 70.1 48.344C70.388 48.848 70.796 49.196 71.324 49.388C71.852 49.556 72.536 49.64 73.376 49.64C74.288 49.64 74.936 49.88 75.32 50.36C75.704 50.816 75.896 51.392 75.896 52.088C75.896 52.832 75.644 53.456 75.14 53.96C74.66 54.44 73.952 54.68 73.016 54.68ZM66.428 51.332C64.82 51.692 63.272 51.86 61.784 51.836C60.296 51.788 58.964 51.524 57.788 51.044C56.612 50.54 55.676 49.82 54.98 48.884C54.308 47.948 53.972 46.76 53.972 45.32C53.972 44.048 54.248 42.896 54.8 41.864C55.376 40.808 56.168 39.884 57.176 39.092C58.208 38.3 59.408 37.628 60.776 37.076C62.144 36.524 63.632 36.104 65.24 35.816L65.744 40.928C64.712 40.976 63.776 41.12 62.936 41.36C62.12 41.576 61.412 41.864 60.812 42.224C60.236 42.584 59.792 42.992 59.48 43.448C59.168 43.88 59.012 44.348 59.012 44.852C59.012 45.26 59.156 45.596 59.444 45.86C59.732 46.124 60.116 46.34 60.596 46.508C61.076 46.652 61.628 46.736 62.252 46.76C62.876 46.784 63.512 46.748 64.16 46.652C64.832 46.556 65.492 46.4 66.14 46.184L66.428 51.332ZM66.536 29.624C65.84 29.624 65.24 29.384 64.736 28.904C64.256 28.4 64.016 27.812 64.016 27.14C64.016 26.444 64.256 25.844 64.736 25.34C65.24 24.836 65.84 24.584 66.536 24.584C67.208 24.584 67.784 24.836 68.264 25.34C68.744 25.844 68.984 26.444 68.984 27.14C68.984 27.812 68.744 28.4 68.264 28.904C67.784 29.384 67.208 29.624 66.536 29.624ZM60.308 29.588C59.612 29.588 59.012 29.348 58.508 28.868C58.028 28.364 57.788 27.776 57.788 27.104C57.788 26.408 58.028 25.808 58.508 25.304C59.012 24.8 59.612 24.548 60.308 24.548C60.98 24.548 61.556 24.8 62.036 25.304C62.516 25.808 62.756 26.408 62.756 27.104C62.756 27.776 62.516 28.364 62.036 28.868C61.556 29.348 60.98 29.588 60.308 29.588ZM73.0039 54.68L73.3639 49.64C74.8039 49.64 75.9079 49.568 76.6759 49.424C77.4439 49.28 77.9719 49.016 78.2599 48.632C78.5719 48.224 78.7279 47.648 78.7279 46.904C78.7279 46.232 78.6319 45.428 78.4399 44.492C78.2719 43.556 78.0439 42.584 77.7559 41.576C77.4919 40.568 77.2039 39.644 76.8919 38.804L81.8599 37.436C82.1719 38.252 82.4719 39.2 82.7599 40.28C83.0479 41.36 83.2879 42.476 83.4799 43.628C83.6719 44.756 83.7679 45.848 83.7679 46.904C83.7679 48.536 83.5039 49.868 82.9759 50.9C82.4479 51.908 81.7039 52.688 80.7439 53.24C79.8079 53.792 78.6799 54.176 77.3599 54.392C76.0399 54.584 74.5879 54.68 73.0039 54.68ZM81.8959 63.032C81.1999 63.032 80.5999 62.78 80.0959 62.276C79.6159 61.796 79.3759 61.22 79.3759 60.548C79.3759 59.852 79.6159 59.252 80.0959 58.748C80.5999 58.244 81.1999 57.992 81.8959 57.992C82.5679 57.992 83.1439 58.244 83.6239 58.748C84.1039 59.252 84.3439 59.852 84.3439 60.548C84.3439 61.22 84.1039 61.796 83.6239 62.276C83.1439 62.78 82.5679 63.032 81.8959 63.032ZM75.6679 63.032C74.9719 63.032 74.3719 62.78 73.8679 62.276C73.3879 61.796 73.1479 61.22 73.1479 60.548C73.1479 59.852 73.3879 59.252 73.8679 58.748C74.3719 58.244 74.9719 57.992 75.6679 57.992C76.3399 57.992 76.9159 58.244 77.3959 58.748C77.8759 59.252 78.1159 59.852 78.1159 60.548C78.1159 61.22 77.8759 61.796 77.3959 62.276C76.9159 62.78 76.3399 63.032 75.6679 63.032ZM86.5174 62.816L84.6814 58.352C85.9534 57.92 87.1174 57.416 88.1734 56.84C89.2534 56.264 90.1894 55.628 90.9814 54.932C91.7734 54.236 92.3854 53.48 92.8174 52.664C93.2494 51.824 93.4654 50.924 93.4654 49.964C93.4654 48.956 93.2374 47.852 92.7814 46.652C92.3254 45.452 91.7734 44.228 91.1254 42.98L95.8414 40.712C96.2734 41.456 96.6454 42.26 96.9574 43.124C97.2934 43.964 97.5694 44.72 97.7854 45.392C98.0014 46.064 98.1454 46.52 98.2174 46.76C98.5534 47.912 99.0094 48.68 99.5854 49.064C100.185 49.448 101.145 49.64 102.465 49.64C103.377 49.64 104.025 49.88 104.409 50.36C104.817 50.816 105.021 51.392 105.021 52.088C105.021 52.832 104.769 53.456 104.265 53.96C103.761 54.44 103.041 54.68 102.105 54.68C101.121 54.68 100.257 54.536 99.5134 54.248C98.7694 53.96 98.1694 53.54 97.7134 52.988C97.2814 52.436 97.0054 51.788 96.8854 51.044L98.2174 51.8C98.0734 53.072 97.6534 54.272 96.9574 55.4C96.2854 56.552 95.4094 57.608 94.3294 58.568C93.2494 59.528 92.0374 60.368 90.6934 61.088C89.3494 61.808 87.9574 62.384 86.5174 62.816ZM93.8614 37.04C93.1174 37.04 92.4814 36.788 91.9534 36.284C91.4494 35.78 91.1974 35.156 91.1974 34.412C91.1974 33.668 91.4494 33.032 91.9534 32.504C92.4814 31.976 93.1174 31.712 93.8614 31.712C94.5814 31.712 95.1934 31.976 95.6974 32.504C96.2254 33.032 96.4894 33.668 96.4894 34.412C96.4894 35.156 96.2254 35.78 95.6974 36.284C95.1934 36.788 94.5814 37.04 93.8614 37.04ZM102.148 54.68L102.508 49.64C103.564 49.64 104.392 49.568 104.992 49.424C105.616 49.28 106.06 49.016 106.324 48.632C106.588 48.224 106.72 47.648 106.72 46.904C106.72 46.232 106.624 45.428 106.432 44.492C106.264 43.556 106.036 42.584 105.748 41.576C105.46 40.568 105.172 39.644 104.884 38.804L109.852 37.436C110.14 38.252 110.428 39.2 110.716 40.28C111.004 41.36 111.244 42.476 111.436 43.628C111.652 44.756 111.76 45.848 111.76 46.904C111.76 48.224 111.592 49.34 111.256 50.252C110.92 51.14 110.452 51.884 109.852 52.484C109.276 53.06 108.58 53.516 107.764 53.852C106.972 54.164 106.096 54.38 105.136 54.5C104.176 54.62 103.18 54.68 102.148 54.68ZM107.332 34.448C106.588 34.448 105.952 34.196 105.424 33.692C104.92 33.188 104.668 32.564 104.668 31.82C104.668 31.076 104.92 30.44 105.424 29.912C105.952 29.384 106.588 29.12 107.332 29.12C108.052 29.12 108.664 29.384 109.168 29.912C109.696 30.44 109.96 31.076 109.96 31.82C109.96 32.564 109.696 33.188 109.168 33.692C108.664 34.196 108.052 34.448 107.332 34.448ZM115.626 62.78L114.582 57.74C116.286 57.524 117.774 57.26 119.046 56.948C120.318 56.66 121.386 56.252 122.25 55.724C123.114 55.196 123.762 54.476 124.194 53.564C124.626 52.628 124.842 51.428 124.842 49.964C124.842 49.436 124.794 48.908 124.698 48.38C124.602 47.828 124.458 47.324 124.266 46.868C124.074 46.412 123.822 46.04 123.51 45.752C123.222 45.464 122.874 45.32 122.466 45.32C122.034 45.32 121.65 45.476 121.314 45.788C120.978 46.076 120.714 46.448 120.522 46.904C120.33 47.336 120.234 47.78 120.234 48.236C120.234 48.572 120.318 48.86 120.486 49.1C120.654 49.316 120.906 49.484 121.242 49.604C121.578 49.7 121.998 49.748 122.502 49.748C123.078 49.748 123.666 49.688 124.266 49.568C124.89 49.424 125.454 49.232 125.958 48.992L126.102 52.916C125.526 53.372 124.866 53.78 124.122 54.14C123.378 54.476 122.478 54.644 121.422 54.644C120.558 54.644 119.754 54.548 119.01 54.356C118.266 54.14 117.606 53.816 117.03 53.384C116.478 52.952 116.046 52.4 115.734 51.728C115.422 51.032 115.266 50.204 115.266 49.244C115.266 48.068 115.458 46.928 115.842 45.824C116.226 44.72 116.754 43.736 117.426 42.872C118.122 41.984 118.914 41.288 119.802 40.784C120.714 40.256 121.674 39.992 122.682 39.992C123.882 39.992 124.926 40.292 125.814 40.892C126.726 41.492 127.482 42.284 128.082 43.268C128.682 44.228 129.138 45.272 129.45 46.4C129.762 47.528 129.918 48.608 129.918 49.64C129.918 52.352 129.342 54.656 128.19 56.552C127.038 58.448 125.394 59.912 123.258 60.944C121.122 62 118.578 62.612 115.626 62.78ZM132.08 62.816L130.244 58.352C131.516 57.92 132.68 57.416 133.736 56.84C134.816 56.264 135.752 55.628 136.544 54.932C137.336 54.236 137.948 53.48 138.38 52.664C138.812 51.824 139.028 50.924 139.028 49.964C139.028 48.956 138.8 47.852 138.344 46.652C137.888 45.452 137.336 44.228 136.688 42.98L141.404 40.712C141.836 41.456 142.208 42.26 142.52 43.124C142.856 43.964 143.132 44.72 143.348 45.392C143.564 46.064 143.708 46.52 143.78 46.76C144.116 47.912 144.572 48.68 145.148 49.064C145.748 49.448 146.708 49.64 148.028 49.64C148.94 49.64 149.588 49.88 149.972 50.36C150.38 50.816 150.584 51.392 150.584 52.088C150.584 52.832 150.332 53.456 149.828 53.96C149.324 54.44 148.604 54.68 147.668 54.68C146.684 54.68 145.82 54.536 145.076 54.248C144.332 53.96 143.732 53.54 143.276 52.988C142.844 52.436 142.568 51.788 142.448 51.044L143.78 51.8C143.636 53.072 143.216 54.272 142.52 55.4C141.848 56.552 140.972 57.608 139.892 58.568C138.812 59.528 137.6 60.368 136.256 61.088C134.912 61.808 133.52 62.384 132.08 62.816ZM147.711 54.68L148.071 49.64C149.127 49.64 149.955 49.568 150.555 49.424C151.179 49.28 151.623 49.016 151.887 48.632C152.151 48.224 152.283 47.648 152.283 46.904C152.283 46.232 152.187 45.428 151.995 44.492C151.827 43.556 151.599 42.584 151.311 41.576C151.023 40.568 150.735 39.644 150.447 38.804L155.415 37.436C155.703 38.252 155.991 39.2 156.279 40.28C156.567 41.36 156.807 42.476 156.999 43.628C157.215 44.756 157.323 45.848 157.323 46.904C157.323 48.224 157.155 49.34 156.819 50.252C156.483 51.14 156.015 51.884 155.415 52.484C154.839 53.06 154.143 53.516 153.327 53.852C152.535 54.164 151.659 54.38 150.699 54.5C149.739 54.62 148.743 54.68 147.711 54.68ZM152.139 62.96C151.443 62.96 150.843 62.72 150.339 62.24C149.859 61.76 149.619 61.172 149.619 60.476C149.619 59.78 149.859 59.168 150.339 58.64C150.843 58.136 151.443 57.884 152.139 57.884C152.835 57.884 153.423 58.136 153.903 58.64C154.407 59.168 154.659 59.78 154.659 60.476C154.659 61.172 154.407 61.76 153.903 62.24C153.423 62.72 152.835 62.96 152.139 62.96Z" fill="#0D0C0C"/>
<path d="M66.1411 64.935C81.9152 64.1986 90.8236 64.6201 106.641 64.6201C122.458 64.6201 131.367 64.1986 147.141 64.935C149.486 65.0445 154.14 65.25 153.141 65.25C152.142 65.25 149.486 65.4555 147.141 65.565C131.367 66.3014 122.458 65.8799 106.641 65.8799C90.8236 65.8799 81.9152 66.3014 66.1411 65.565C63.7962 65.4555 62.1411 65.25 60.1411 65.25C58.1411 65.25 63.7962 65.0445 66.1411 64.935Z" fill="url(#paint2_radial_1283_13018)"/>
<path d="M89.3551 78.63C89.7418 78.5833 90.0485 78.4933 90.2751 78.36V72.96C90.0418 72.8267 89.7151 72.7367 89.2951 72.69L89.3451 72.33H91.9351C92.7018 72.33 93.2751 72.4733 93.6551 72.76C94.0351 73.04 94.2251 73.45 94.2251 73.99C94.2251 74.75 93.8351 75.24 93.0551 75.46C93.5151 75.5933 93.8718 75.8033 94.1251 76.09C94.3785 76.37 94.5051 76.7133 94.5051 77.12C94.5051 77.7 94.3018 78.16 93.8951 78.5C93.4951 78.8333 92.9318 79 92.2051 79H89.3051L89.3551 78.63ZM91.9551 75.24C92.4351 75.24 92.7885 75.14 93.0151 74.94C93.2418 74.74 93.3551 74.43 93.3551 74.01C93.3551 73.59 93.2385 73.2833 93.0051 73.09C92.7785 72.89 92.4185 72.79 91.9251 72.79C91.7051 72.79 91.4485 72.8033 91.1551 72.83V75.24H91.9551ZM92.2051 78.51C92.6651 78.51 93.0118 78.3933 93.2451 78.16C93.4785 77.92 93.5951 77.5767 93.5951 77.13C93.5951 76.6833 93.4551 76.34 93.1751 76.1C92.9018 75.8533 92.4918 75.73 91.9451 75.73H91.1551V78.47C91.4351 78.4967 91.7851 78.51 92.2051 78.51ZM95.1461 78.63C95.5328 78.5833 95.8395 78.4933 96.0661 78.36V72.96C95.8328 72.8267 95.5061 72.7367 95.0861 72.69L95.1361 72.33H97.7061C99.2328 72.33 99.9961 72.9167 99.9961 74.09C99.9961 74.53 99.8828 74.8867 99.6561 75.16C99.4361 75.4333 99.0895 75.6267 98.6161 75.74C98.7428 75.82 98.8528 75.93 98.9461 76.07C99.0461 76.21 99.1428 76.3867 99.2361 76.6L100.026 78.36C100.226 78.4933 100.506 78.58 100.866 78.62L100.806 79H99.2961L98.4261 76.77C98.3128 76.4833 98.2128 76.2833 98.1261 76.17C98.0461 76.0567 97.9395 75.9833 97.8061 75.95C97.6728 75.91 97.4528 75.89 97.1461 75.89H96.9461V78.36C97.0461 78.42 97.1695 78.4733 97.3161 78.52C97.4628 78.56 97.6628 78.5967 97.9161 78.63L97.8661 79H95.0961L95.1461 78.63ZM97.2561 75.43C97.8828 75.43 98.3461 75.32 98.6461 75.1C98.9461 74.8733 99.0961 74.53 99.0961 74.07C99.0961 73.63 98.9761 73.3 98.7361 73.08C98.5028 72.8533 98.1561 72.74 97.6961 72.74C97.4695 72.74 97.2195 72.7633 96.9461 72.81V75.43H97.2561ZM103.616 79.07C102.636 79.07 101.933 78.7767 101.506 78.19C101.086 77.6033 100.876 76.76 100.876 75.66C100.876 74.5533 101.086 73.7067 101.506 73.12C101.933 72.5333 102.636 72.24 103.616 72.24C104.59 72.24 105.286 72.5367 105.706 73.13C106.133 73.7167 106.346 74.5633 106.346 75.67C106.346 76.77 106.133 77.6133 105.706 78.2C105.286 78.78 104.59 79.07 103.616 79.07ZM103.616 78.58C104.09 78.58 104.45 78.4533 104.696 78.2C104.95 77.94 105.12 77.6 105.206 77.18C105.293 76.76 105.336 76.2567 105.336 75.67C105.336 75.0767 105.293 74.57 105.206 74.15C105.12 73.73 104.95 73.39 104.696 73.13C104.45 72.87 104.09 72.74 103.616 72.74C103.143 72.74 102.78 72.87 102.526 73.13C102.273 73.39 102.103 73.73 102.016 74.15C101.93 74.5633 101.886 75.0667 101.886 75.66C101.886 76.5733 102.003 77.29 102.236 77.81C102.476 78.3233 102.936 78.58 103.616 78.58ZM106.963 78.63C107.349 78.5833 107.656 78.4933 107.883 78.36V72.96C107.623 72.8267 107.296 72.7367 106.903 72.69L106.953 72.33H108.543L111.693 77.09V72.96C111.459 72.8333 111.139 72.7433 110.733 72.69L110.783 72.33H113.313L113.263 72.69C112.896 72.73 112.589 72.82 112.343 72.96V79H111.913L108.513 73.85V78.36C108.733 78.4867 109.056 78.5767 109.483 78.63L109.443 79H106.903L106.963 78.63ZM117.236 72.85C117.029 72.8433 116.643 72.84 116.076 72.84L115.116 72.85C115.063 72.8567 114.976 72.86 114.856 72.86C114.743 72.96 114.643 73.1167 114.556 73.33C114.476 73.5367 114.416 73.7533 114.376 73.98L114.166 73.99C114.086 73.99 114.029 73.9867 113.996 73.98L113.876 72.52L114.136 72.28C114.969 72.3133 115.709 72.33 116.356 72.33C116.749 72.33 117.396 72.3133 118.296 72.28L118.386 72.68L114.836 78.48L116.006 78.49L117.286 78.48C117.599 78.1067 117.819 77.6767 117.946 77.19C118.026 77.1767 118.096 77.17 118.156 77.17C118.209 77.17 118.283 77.1767 118.376 77.19L118.286 79.03C117.826 79.01 116.993 79 115.786 79C115.313 79 114.896 79.0033 114.536 79.01C114.183 79.0233 113.939 79.0333 113.806 79.04L113.776 78.54L117.236 72.85ZM118.964 78.63C119.138 78.61 119.314 78.5767 119.494 78.53C119.681 78.4767 119.811 78.42 119.884 78.36V72.96C119.631 72.8267 119.304 72.7367 118.904 72.69L118.954 72.33H123.414L123.494 73.85C123.408 73.8833 123.314 73.9 123.214 73.9C123.181 73.9 123.131 73.8933 123.064 73.88C122.978 73.44 122.838 73.1 122.644 72.86H120.764V75.36L121.894 75.31C122.034 75.3033 122.148 75.24 122.234 75.12C122.321 75 122.394 74.84 122.454 74.64H122.774V76.62H122.454C122.374 76.3333 122.298 76.14 122.224 76.04C122.151 75.94 122.031 75.8867 121.864 75.88L120.764 75.82V78.42H122.894C123.094 78.14 123.238 77.7633 123.324 77.29C123.404 77.2767 123.468 77.27 123.514 77.27C123.548 77.27 123.618 77.2767 123.724 77.29L123.634 79H118.904L118.964 78.63Z" fill="#0D0C0C"/>
</g>
<defs>
<linearGradient id="paint0_linear_1283_13018" x1="106.5" y1="0" x2="106.5" y2="105" gradientUnits="userSpaceOnUse">
<stop stop-color="#8D5E3B"/>
<stop offset="1" stop-color="#F1BE9B"/>
</linearGradient>
<linearGradient id="paint1_linear_1283_13018" x1="252.466" y1="25.6914" x2="64.6692" y2="18.9722" gradientUnits="userSpaceOnUse">
<stop stop-color="#8D5E3B"/>
<stop offset="1" stop-color="#F1BE9B"/>
</linearGradient>
<radialGradient id="paint2_radial_1283_13018" cx="0" cy="0" r="1" gradientUnits="userSpaceOnUse" gradientTransform="translate(106.5 65.25) scale(46.7796 0.75)">
<stop stop-color="#E6A600"/>
<stop offset="1" stop-color="#FFFEFC"/>
</radialGradient>
<clipPath id="clip0_1283_13018">
<rect width="213" height="105" rx="8" fill="white"/>
</clipPath>
</defs>
</svg>
