<svg width="213" height="105" viewBox="0 0 213 105" fill="none" xmlns="http://www.w3.org/2000/svg">
<g clip-path="url(#clip0_1283_13630)">
<rect width="213" height="105" rx="8" fill="url(#paint0_linear_1283_13630)"/>
<path d="M-13.3802 8.00442C-22.6507 5.36388 -20.3492 -9.54103 -10.7187 -9.12894L206.269 0.156163C210.132 0.321463 213.324 3.226 213.852 7.05637L234.878 159.582C236.152 168.823 221.422 173.241 217.042 165.005C196.903 127.132 167.82 80.1414 140 63C111.947 45.7152 41.9825 23.7735 -13.3802 8.00442Z" fill="url(#paint1_linear_1283_13630)"/>
<path d="M76.016 54.68C74.312 54.68 72.836 54.464 71.588 54.032C70.364 53.576 69.416 52.856 68.744 51.872C68.072 50.864 67.688 49.52 67.592 47.84L66.944 33.332H72.02L72.632 46.076C72.68 47.06 72.836 47.816 73.1 48.344C73.388 48.848 73.796 49.196 74.324 49.388C74.852 49.556 75.536 49.64 76.376 49.64C77.288 49.64 77.936 49.88 78.32 50.36C78.704 50.816 78.896 51.392 78.896 52.088C78.896 52.832 78.644 53.456 78.14 53.96C77.66 54.44 76.952 54.68 76.016 54.68ZM69.428 51.332C67.82 51.692 66.272 51.86 64.784 51.836C63.296 51.788 61.964 51.524 60.788 51.044C59.612 50.54 58.676 49.82 57.98 48.884C57.308 47.948 56.972 46.76 56.972 45.32C56.972 44.048 57.248 42.896 57.8 41.864C58.376 40.808 59.168 39.884 60.176 39.092C61.208 38.3 62.408 37.628 63.776 37.076C65.144 36.524 66.632 36.104 68.24 35.816L68.744 40.928C67.712 40.976 66.776 41.12 65.936 41.36C65.12 41.576 64.412 41.864 63.812 42.224C63.236 42.584 62.792 42.992 62.48 43.448C62.168 43.88 62.012 44.348 62.012 44.852C62.012 45.26 62.156 45.596 62.444 45.86C62.732 46.124 63.116 46.34 63.596 46.508C64.076 46.652 64.628 46.736 65.252 46.76C65.876 46.784 66.512 46.748 67.16 46.652C67.832 46.556 68.492 46.4 69.14 46.184L69.428 51.332ZM69.536 29.624C68.84 29.624 68.24 29.384 67.736 28.904C67.256 28.4 67.016 27.812 67.016 27.14C67.016 26.444 67.256 25.844 67.736 25.34C68.24 24.836 68.84 24.584 69.536 24.584C70.208 24.584 70.784 24.836 71.264 25.34C71.744 25.844 71.984 26.444 71.984 27.14C71.984 27.812 71.744 28.4 71.264 28.904C70.784 29.384 70.208 29.624 69.536 29.624ZM63.308 29.588C62.612 29.588 62.012 29.348 61.508 28.868C61.028 28.364 60.788 27.776 60.788 27.104C60.788 26.408 61.028 25.808 61.508 25.304C62.012 24.8 62.612 24.548 63.308 24.548C63.98 24.548 64.556 24.8 65.036 25.304C65.516 25.808 65.756 26.408 65.756 27.104C65.756 27.776 65.516 28.364 65.036 28.868C64.556 29.348 63.98 29.588 63.308 29.588ZM76.0039 54.68L76.3639 49.64C77.2279 49.64 77.9719 49.556 78.5959 49.388C79.2199 49.22 79.7479 48.884 80.1799 48.38C80.6119 47.852 80.9719 47.084 81.2599 46.076C81.5719 45.068 81.8479 43.724 82.0879 42.044L86.8039 42.836C86.7559 43.196 86.6839 43.616 86.5879 44.096C86.5159 44.576 86.4439 45.068 86.3719 45.572C86.3239 46.052 86.2999 46.508 86.2999 46.94C86.2999 47.372 86.3839 47.756 86.5519 48.092C86.7199 48.428 86.9839 48.716 87.3439 48.956C87.7279 49.172 88.2199 49.34 88.8199 49.46C89.4439 49.58 90.1999 49.64 91.0879 49.64C91.9999 49.64 92.6479 49.88 93.0319 50.36C93.4159 50.816 93.6079 51.392 93.6079 52.088C93.6079 52.832 93.3559 53.456 92.8519 53.96C92.3719 54.44 91.6639 54.68 90.7279 54.68C89.6479 54.68 88.6639 54.596 87.7759 54.428C86.9119 54.26 86.1559 53.984 85.5079 53.6C84.8839 53.192 84.3679 52.664 83.9599 52.016C83.5759 51.344 83.3359 50.528 83.2399 49.568H84.9679C84.5359 50.72 83.9839 51.644 83.3119 52.34C82.6639 53.012 81.9319 53.516 81.1159 53.852C80.2999 54.188 79.4479 54.404 78.5599 54.5C77.6959 54.62 76.8439 54.68 76.0039 54.68ZM86.0479 63.032C85.3519 63.032 84.7519 62.78 84.2479 62.276C83.7679 61.796 83.5279 61.22 83.5279 60.548C83.5279 59.852 83.7679 59.252 84.2479 58.748C84.7519 58.244 85.3519 57.992 86.0479 57.992C86.7199 57.992 87.2959 58.244 87.7759 58.748C88.2559 59.252 88.4959 59.852 88.4959 60.548C88.4959 61.22 88.2559 61.796 87.7759 62.276C87.2959 62.78 86.7199 63.032 86.0479 63.032ZM79.8199 63.032C79.1239 63.032 78.5239 62.78 78.0199 62.276C77.5399 61.796 77.2999 61.22 77.2999 60.548C77.2999 59.852 77.5399 59.252 78.0199 58.748C78.5239 58.244 79.1239 57.992 79.8199 57.992C80.4919 57.992 81.0679 58.244 81.5479 58.748C82.0279 59.252 82.2679 59.852 82.2679 60.548C82.2679 61.22 82.0279 61.796 81.5479 62.276C81.0679 62.78 80.4919 63.032 79.8199 63.032ZM90.7344 54.68L91.0944 49.64C91.8864 49.64 92.5344 49.58 93.0384 49.46C93.5424 49.316 93.9504 49.016 94.2624 48.56C94.5984 48.08 94.8864 47.372 95.1264 46.436C95.3904 45.476 95.6784 44.18 95.9904 42.548L100.67 43.412C100.598 43.772 100.514 44.192 100.418 44.672C100.322 45.152 100.238 45.644 100.166 46.148C100.094 46.628 100.058 47.06 100.058 47.444C100.058 48.116 100.274 48.656 100.706 49.064C101.138 49.448 101.954 49.64 103.154 49.64C103.754 49.64 104.27 49.58 104.702 49.46C105.158 49.316 105.542 49.016 105.854 48.56C106.19 48.08 106.478 47.348 106.718 46.364C106.982 45.356 107.234 44 107.474 42.296L112.226 43.052C112.13 43.604 112.034 44.192 111.938 44.816C111.842 45.44 111.758 46.016 111.686 46.544C111.614 47.072 111.578 47.504 111.578 47.84C111.578 48.152 111.662 48.452 111.83 48.74C112.022 49.004 112.358 49.22 112.838 49.388C113.342 49.556 114.05 49.64 114.962 49.64C115.61 49.64 116.162 49.556 116.618 49.388C117.098 49.22 117.458 48.944 117.698 48.56C117.962 48.176 118.094 47.672 118.094 47.048C118.094 46.16 117.89 44.996 117.482 43.556C117.074 42.116 116.594 40.604 116.042 39.02L121.118 37.508C121.502 38.54 121.838 39.644 122.126 40.82C122.438 41.972 122.678 43.1 122.846 44.204C123.038 45.284 123.134 46.232 123.134 47.048C123.134 48.272 122.942 49.364 122.558 50.324C122.174 51.26 121.634 52.052 120.938 52.7C120.242 53.348 119.414 53.84 118.454 54.176C117.494 54.512 116.438 54.68 115.286 54.68C113.894 54.68 112.754 54.548 111.866 54.284C110.978 53.996 110.294 53.528 109.814 52.88C109.358 52.208 109.058 51.296 108.914 50.144H110.138C109.634 51.56 109.07 52.592 108.446 53.24C107.822 53.864 107.078 54.26 106.214 54.428C105.374 54.596 104.318 54.68 103.046 54.68C102.254 54.68 101.438 54.596 100.598 54.428C99.7824 54.236 99.0504 53.804 98.4024 53.132C97.7544 52.46 97.2744 51.416 96.9624 50L98.9064 49.928C98.4024 51.344 97.7424 52.388 96.9264 53.06C96.1344 53.732 95.2224 54.176 94.1904 54.392C93.1584 54.584 92.0064 54.68 90.7344 54.68ZM136.353 54.68C134.121 54.68 132.393 54.452 131.169 53.996C129.969 53.54 129.129 52.832 128.649 51.872C128.169 50.888 127.893 49.652 127.821 48.164L127.065 28.148H132.105L132.861 45.752C132.909 46.856 133.029 47.684 133.221 48.236C133.413 48.788 133.773 49.16 134.301 49.352C134.853 49.544 135.657 49.64 136.713 49.64C137.625 49.64 138.273 49.88 138.657 50.36C139.065 50.816 139.269 51.392 139.269 52.088C139.269 52.832 139.017 53.456 138.513 53.96C138.009 54.44 137.289 54.68 136.353 54.68ZM136.402 54.68L136.762 49.64C137.314 49.64 137.782 49.508 138.166 49.244C138.574 48.956 138.994 48.488 139.426 47.84C139.858 47.168 140.362 46.268 140.938 45.14C141.658 43.7 142.402 42.572 143.17 41.756C143.962 40.94 144.766 40.364 145.582 40.028C146.422 39.668 147.262 39.488 148.102 39.488C149.158 39.488 150.142 39.716 151.054 40.172C151.966 40.628 152.758 41.252 153.43 42.044C154.102 42.812 154.618 43.7 154.978 44.708C155.362 45.692 155.554 46.712 155.554 47.768C155.554 49.04 155.278 50.192 154.726 51.224C154.198 52.232 153.454 53.036 152.494 53.636C151.558 54.212 150.478 54.5 149.254 54.5C148.222 54.5 147.022 54.32 145.654 53.96C144.286 53.6 142.846 52.844 141.334 51.692L143.17 47.336C144.25 48.08 145.258 48.62 146.194 48.956C147.154 49.292 147.946 49.46 148.57 49.46C149.05 49.46 149.446 49.412 149.758 49.316C150.07 49.22 150.298 49.064 150.442 48.848C150.586 48.632 150.658 48.344 150.658 47.984C150.658 47.48 150.538 46.964 150.298 46.436C150.058 45.908 149.734 45.464 149.326 45.104C148.942 44.72 148.486 44.528 147.958 44.528C147.454 44.528 147.022 44.72 146.662 45.104C146.326 45.464 145.99 45.992 145.654 46.688C145.342 47.36 144.958 48.152 144.502 49.064C143.95 50.168 143.41 51.092 142.882 51.836C142.354 52.556 141.79 53.132 141.19 53.564C140.614 53.972 139.93 54.26 139.138 54.428C138.37 54.596 137.458 54.68 136.402 54.68Z" fill="#E6A600"/>
<path d="M66.6411 64.935C82.4152 64.1986 91.3236 64.6201 107.141 64.6201C122.958 64.6201 131.867 64.1986 147.641 64.935C149.986 65.0445 154.64 65.25 153.641 65.25C152.642 65.25 149.986 65.4555 147.641 65.565C131.867 66.3014 122.958 65.8799 107.141 65.8799C91.3236 65.8799 82.4152 66.3014 66.6411 65.565C64.2962 65.4555 62.6411 65.25 60.6411 65.25C58.6411 65.25 64.2962 65.0445 66.6411 64.935Z" fill="url(#paint2_radial_1283_13630)"/>
<path d="M85.5045 78.63C85.7045 78.6033 85.8745 78.5733 86.0145 78.54C86.1545 78.5067 86.2879 78.45 86.4145 78.37V72.96C86.1812 72.8333 85.8579 72.7433 85.4445 72.69L85.4945 72.33H87.6445C88.8112 72.33 89.6845 72.5967 90.2645 73.13C90.8445 73.6633 91.1345 74.51 91.1345 75.67C91.1345 76.8367 90.8412 77.6833 90.2545 78.21C89.6745 78.7367 88.7845 79 87.5845 79H85.4545L85.5045 78.63ZM87.7545 78.51C88.5545 78.51 89.1512 78.2967 89.5445 77.87C89.9379 77.4367 90.1345 76.7 90.1345 75.66C90.1345 74.6267 89.9412 73.8967 89.5545 73.47C89.1679 73.0433 88.5779 72.83 87.7845 72.83H87.3045V78.47C87.4179 78.4967 87.5679 78.51 87.7545 78.51ZM91.7545 78.63C92.1412 78.5833 92.4479 78.4933 92.6745 78.36V72.96C92.4145 72.8267 92.0879 72.7367 91.6945 72.69L91.7445 72.33H94.5145L94.4645 72.69C94.1045 72.7367 93.8012 72.8267 93.5545 72.96V78.36C93.7745 78.4867 94.0979 78.5767 94.5245 78.63L94.4745 79H91.6945L91.7545 78.63ZM94.8823 78.63C95.0356 78.6033 95.1656 78.5733 95.2723 78.54C95.3789 78.5067 95.4856 78.45 95.5923 78.37L97.4623 72.33H98.0623L100.122 78.38C100.289 78.5 100.509 78.5833 100.782 78.63L100.742 79H98.2423L98.2923 78.63C98.6789 78.5833 98.9856 78.4933 99.2123 78.36L98.7023 76.85H96.6823L96.2223 78.36C96.4423 78.4867 96.7656 78.5767 97.1923 78.63L97.1523 79H94.8323L94.8823 78.63ZM98.5323 76.33L97.6523 73.72L96.8423 76.33H98.5323ZM101.159 78.63C101.539 78.59 101.842 78.5 102.069 78.36V72.96C101.822 72.8267 101.502 72.7367 101.109 72.69L101.149 72.33H103.079L105.319 77.77L107.479 72.33H109.389L109.339 72.69C108.972 72.73 108.665 72.82 108.419 72.96V78.36C108.639 78.4867 108.962 78.5767 109.389 78.63L109.349 79H106.569L106.619 78.63C106.812 78.61 106.979 78.58 107.119 78.54C107.265 78.5 107.405 78.44 107.539 78.36V73.71H107.499L105.469 79H104.879L102.749 73.62H102.709V78.36C102.942 78.5 103.265 78.59 103.679 78.63L103.639 79H101.109L101.159 78.63ZM112.686 79.07C111.706 79.07 111.002 78.7767 110.576 78.19C110.156 77.6033 109.946 76.76 109.946 75.66C109.946 74.5533 110.156 73.7067 110.576 73.12C111.002 72.5333 111.706 72.24 112.686 72.24C113.659 72.24 114.356 72.5367 114.776 73.13C115.202 73.7167 115.416 74.5633 115.416 75.67C115.416 76.77 115.202 77.6133 114.776 78.2C114.356 78.78 113.659 79.07 112.686 79.07ZM112.686 78.58C113.159 78.58 113.519 78.4533 113.766 78.2C114.019 77.94 114.189 77.6 114.276 77.18C114.362 76.76 114.406 76.2567 114.406 75.67C114.406 75.0767 114.362 74.57 114.276 74.15C114.189 73.73 114.019 73.39 113.766 73.13C113.519 72.87 113.159 72.74 112.686 72.74C112.212 72.74 111.849 72.87 111.596 73.13C111.342 73.39 111.172 73.73 111.086 74.15C110.999 74.5633 110.956 75.0667 110.956 75.66C110.956 76.5733 111.072 77.29 111.306 77.81C111.546 78.3233 112.006 78.58 112.686 78.58ZM116.032 78.63C116.419 78.5833 116.725 78.4933 116.952 78.36V72.96C116.692 72.8267 116.365 72.7367 115.972 72.69L116.022 72.33H117.612L120.762 77.09V72.96C120.529 72.8333 120.209 72.7433 119.802 72.69L119.852 72.33H122.382L122.332 72.69C121.965 72.73 121.659 72.82 121.412 72.96V79H120.982L117.582 73.85V78.36C117.802 78.4867 118.125 78.5767 118.552 78.63L118.512 79H115.972L116.032 78.63ZM122.965 78.63C123.165 78.6033 123.335 78.5733 123.475 78.54C123.615 78.5067 123.749 78.45 123.875 78.37V72.96C123.642 72.8333 123.319 72.7433 122.905 72.69L122.955 72.33H125.105C126.272 72.33 127.145 72.5967 127.725 73.13C128.305 73.6633 128.595 74.51 128.595 75.67C128.595 76.8367 128.302 77.6833 127.715 78.21C127.135 78.7367 126.245 79 125.045 79H122.915L122.965 78.63ZM125.215 78.51C126.015 78.51 126.612 78.2967 127.005 77.87C127.399 77.4367 127.595 76.7 127.595 75.66C127.595 74.6267 127.402 73.8967 127.015 73.47C126.629 73.0433 126.039 72.83 125.245 72.83H124.765V78.47C124.879 78.4967 125.029 78.51 125.215 78.51Z" fill="#E6A600"/>
</g>
<defs>
<linearGradient id="paint0_linear_1283_13630" x1="106.5" y1="0" x2="106.5" y2="105" gradientUnits="userSpaceOnUse">
<stop stop-color="#E6E6E6"/>
<stop offset="1" stop-color="#FCFCFC"/>
</linearGradient>
<linearGradient id="paint1_linear_1283_13630" x1="218.467" y1="75.6913" x2="30.671" y2="68.9721" gradientUnits="userSpaceOnUse">
<stop stop-color="#E5E5E5"/>
<stop offset="1" stop-color="#E5E5E5"/>
</linearGradient>
<radialGradient id="paint2_radial_1283_13630" cx="0" cy="0" r="1" gradientUnits="userSpaceOnUse" gradientTransform="translate(107 65.25) scale(46.7796 0.75)">
<stop stop-color="#E6A600"/>
<stop offset="1" stop-color="#FFFEFC"/>
</radialGradient>
<clipPath id="clip0_1283_13630">
<rect width="213" height="105" rx="8" fill="white"/>
</clipPath>
</defs>
</svg>
