<svg width="24" height="24" viewBox="0 0 24 24" fill="none" xmlns="http://www.w3.org/2000/svg">
<path d="M3.80713 11.9965C4.26896 11.6506 4.69274 11.3304 5.11886 11.0143C6.21986 10.1978 7.50642 10.2534 8.52899 11.1665C9.03647 11.6195 9.53693 12.0814 10.0403 12.5391C10.7655 13.1988 11.4908 13.859 12.2166 14.5181C12.2698 14.5667 12.3266 14.6118 12.3881 14.6639C12.7703 14.2348 13.1432 13.8128 13.5195 13.3943C14.5304 12.2698 16.0083 12.1487 17.1919 13.0917C17.827 13.598 18.4603 14.1054 19.0948 14.6123C19.1387 14.6475 19.1849 14.6802 19.2651 14.7405C19.2651 14.6276 19.2651 14.5509 19.2651 14.4748C19.2651 13.4944 19.2622 12.5139 19.2669 11.5335C19.2686 11.1671 19.5309 10.8756 19.8709 10.8375C20.2409 10.796 20.5599 11.009 20.6477 11.3655C20.6682 11.4492 20.6699 11.5394 20.6699 11.6266C20.6711 13.4557 20.6746 15.2849 20.6699 17.114C20.6635 19.6321 18.702 21.5942 16.1834 21.5983C13.0875 21.6029 9.99232 21.6029 6.89651 21.5983C4.36729 21.5947 2.40468 19.6292 2.40234 17.0994C2.39941 14.0118 2.39941 10.9242 2.40234 7.83656C2.40468 5.30384 4.36378 3.34005 6.89241 3.3342C8.74381 3.3301 10.5952 3.33186 12.4466 3.33478C12.8259 3.33537 13.1256 3.59526 13.1648 3.9406C13.207 4.3158 12.9775 4.64709 12.6146 4.7226C12.5227 4.74192 12.4255 4.73841 12.3307 4.73841C10.5378 4.73899 8.74498 4.73841 6.95211 4.73899C5.12939 4.73958 3.8083 6.0595 3.80713 7.87929C3.80655 9.16701 3.80713 10.4547 3.80713 11.7425C3.80713 11.8104 3.80713 11.8806 3.80713 11.9965ZM11.4387 15.7321C11.4117 15.6981 11.4006 15.6788 11.3848 15.6648C10.0965 14.4929 8.81171 13.317 7.51754 12.1516C7.07269 11.7512 6.49673 11.7425 6.00739 12.1054C5.32607 12.6111 4.65118 13.1262 3.96751 13.629C3.84869 13.7168 3.80245 13.8052 3.80362 13.9527C3.81006 15.0063 3.80479 16.0604 3.80772 17.114C3.81182 18.7278 4.96901 20.0214 6.57692 20.1759C7.02118 20.2186 7.44672 20.2801 7.82952 19.8224C8.99374 18.4316 10.2259 17.0971 11.4387 15.7321ZM9.36016 20.1882C11.7489 20.1882 14.082 20.2069 16.4146 20.1782C17.2627 20.1677 17.9727 19.7714 18.5329 19.127C19.1592 18.4065 19.3201 17.5484 19.2604 16.6294C19.2563 16.5697 19.1996 16.5 19.1481 16.4591C18.1793 15.68 17.2089 14.9038 16.2372 14.1289C15.9791 13.9228 15.6823 13.8362 15.3551 13.8772C15.0273 13.9181 14.7751 14.0914 14.5579 14.3367C13.108 15.9732 11.6541 17.6057 10.2013 19.24C9.93086 19.5437 9.66161 19.8481 9.36016 20.1882Z" fill="#39629C"/>
<path d="M15.5746 7.24187C15.6501 8.01392 16.3748 8.75143 17.2177 8.9083C17.3535 8.93347 17.4928 8.94342 17.6309 8.95161C18.0289 8.97561 18.3298 9.27647 18.3298 9.65518C18.3292 10.0427 18.0137 10.35 17.6087 10.357C15.9715 10.3863 14.4379 9.10146 14.1704 7.47658C14.154 7.37591 14.1371 7.27581 14.1142 7.14236C14.0323 7.22079 13.9685 7.28576 13.9 7.34664C13.5986 7.61648 13.1842 7.61238 12.9126 7.33786C12.6427 7.0651 12.6357 6.6378 12.9143 6.35158C13.3738 5.88039 13.8397 5.41563 14.3103 4.95498C14.6153 4.65646 15.0174 4.65822 15.3282 4.96142C15.7889 5.41095 16.2437 5.86634 16.6938 6.32641C16.9952 6.63371 16.9964 7.06685 16.7108 7.34605C16.4304 7.62057 16.0166 7.61296 15.7087 7.32264C15.673 7.28928 15.6595 7.2325 15.6355 7.18684C15.6156 7.20499 15.5951 7.22313 15.5746 7.24187Z" fill="#39629C"/>
<path d="M18.7642 5.56198C18.7279 5.40979 18.7126 5.31204 18.681 5.22014C18.3989 4.39951 17.6602 3.85281 16.7775 3.80833C16.266 3.78257 15.9323 3.44484 15.9926 3.0152C16.0453 2.64001 16.3274 2.40236 16.7231 2.40002C18.293 2.39066 19.7247 3.51683 20.0975 5.05684C20.1385 5.22658 20.1648 5.40042 20.2052 5.61114C20.2831 5.53564 20.3451 5.47183 20.4101 5.41155C20.7004 5.14288 21.1289 5.14229 21.3987 5.4092C21.6691 5.67611 21.6809 6.11219 21.4046 6.39607C20.941 6.87311 20.4698 7.34372 19.9928 7.80789C19.6972 8.09528 19.2927 8.08768 18.9918 7.79325C18.5265 7.33845 18.0664 6.8778 17.6111 6.41304C17.3254 6.12155 17.3213 5.70538 17.5853 5.42676C17.8551 5.14171 18.2777 5.1341 18.5897 5.4092C18.6319 5.44725 18.6752 5.48413 18.7642 5.56198Z" fill="#39629C"/>
<path d="M7.7937 7.31502C7.79312 6.53067 8.41298 5.91139 9.19791 5.91315C9.97815 5.91491 10.6091 6.54823 10.6009 7.32204C10.5928 8.08707 9.96528 8.71454 9.20142 8.71981C8.42703 8.72566 7.79487 8.09468 7.7937 7.31502Z" fill="#39629C"/>
</svg>
