<svg width="213" height="105" viewBox="0 0 213 105" fill="none" xmlns="http://www.w3.org/2000/svg">
<g clip-path="url(#clip0_1283_13470)">
<rect width="213" height="105" rx="8" fill="url(#paint0_linear_1283_13470)"/>
<path d="M-168.171 -30.2962C-177.758 -32.8522 -175.039 -47.8948 -165.168 -46.8905L204.754 -9.25328C208.382 -8.88411 211.302 -6.10757 211.853 -2.50219L240.519 185.197C241.813 193.663 230.403 198.235 225.447 191.251C196.047 149.818 141.681 77.3155 106.977 55.9321C75.9408 36.8094 -66.3407 -3.1473 -168.171 -30.2962Z" fill="url(#paint1_linear_1283_13470)"/>
<path d="M80.016 54.68C78.312 54.68 76.836 54.464 75.588 54.032C74.364 53.576 73.416 52.856 72.744 51.872C72.072 50.864 71.688 49.52 71.592 47.84L70.944 33.332H76.02L76.632 46.076C76.68 47.06 76.836 47.816 77.1 48.344C77.388 48.848 77.796 49.196 78.324 49.388C78.852 49.556 79.536 49.64 80.376 49.64C81.288 49.64 81.936 49.88 82.32 50.36C82.704 50.816 82.896 51.392 82.896 52.088C82.896 52.832 82.644 53.456 82.14 53.96C81.66 54.44 80.952 54.68 80.016 54.68ZM73.428 51.332C71.82 51.692 70.272 51.86 68.784 51.836C67.296 51.788 65.964 51.524 64.788 51.044C63.612 50.54 62.676 49.82 61.98 48.884C61.308 47.948 60.972 46.76 60.972 45.32C60.972 44.048 61.248 42.896 61.8 41.864C62.376 40.808 63.168 39.884 64.176 39.092C65.208 38.3 66.408 37.628 67.776 37.076C69.144 36.524 70.632 36.104 72.24 35.816L72.744 40.928C71.712 40.976 70.776 41.12 69.936 41.36C69.12 41.576 68.412 41.864 67.812 42.224C67.236 42.584 66.792 42.992 66.48 43.448C66.168 43.88 66.012 44.348 66.012 44.852C66.012 45.26 66.156 45.596 66.444 45.86C66.732 46.124 67.116 46.34 67.596 46.508C68.076 46.652 68.628 46.736 69.252 46.76C69.876 46.784 70.512 46.748 71.16 46.652C71.832 46.556 72.492 46.4 73.14 46.184L73.428 51.332ZM73.536 29.624C72.84 29.624 72.24 29.384 71.736 28.904C71.256 28.4 71.016 27.812 71.016 27.14C71.016 26.444 71.256 25.844 71.736 25.34C72.24 24.836 72.84 24.584 73.536 24.584C74.208 24.584 74.784 24.836 75.264 25.34C75.744 25.844 75.984 26.444 75.984 27.14C75.984 27.812 75.744 28.4 75.264 28.904C74.784 29.384 74.208 29.624 73.536 29.624ZM67.308 29.588C66.612 29.588 66.012 29.348 65.508 28.868C65.028 28.364 64.788 27.776 64.788 27.104C64.788 26.408 65.028 25.808 65.508 25.304C66.012 24.8 66.612 24.548 67.308 24.548C67.98 24.548 68.556 24.8 69.036 25.304C69.516 25.808 69.756 26.408 69.756 27.104C69.756 27.776 69.516 28.364 69.036 28.868C68.556 29.348 67.98 29.588 67.308 29.588ZM80.0039 54.68L80.3639 49.64C81.2279 49.64 81.9719 49.556 82.5959 49.388C83.2199 49.22 83.7479 48.884 84.1799 48.38C84.6119 47.852 84.9719 47.084 85.2599 46.076C85.5719 45.068 85.8479 43.724 86.0879 42.044L90.8039 42.836C90.7559 43.196 90.6839 43.616 90.5879 44.096C90.5159 44.576 90.4439 45.068 90.3719 45.572C90.3239 46.052 90.2999 46.508 90.2999 46.94C90.2999 47.372 90.3839 47.756 90.5519 48.092C90.7199 48.428 90.9839 48.716 91.3439 48.956C91.7279 49.172 92.2199 49.34 92.8199 49.46C93.4439 49.58 94.1999 49.64 95.0879 49.64C95.9999 49.64 96.6479 49.88 97.0319 50.36C97.4159 50.816 97.6079 51.392 97.6079 52.088C97.6079 52.832 97.3559 53.456 96.8519 53.96C96.3719 54.44 95.6639 54.68 94.7279 54.68C93.6479 54.68 92.6639 54.596 91.7759 54.428C90.9119 54.26 90.1559 53.984 89.5079 53.6C88.8839 53.192 88.3679 52.664 87.9599 52.016C87.5759 51.344 87.3359 50.528 87.2399 49.568H88.9679C88.5359 50.72 87.9839 51.644 87.3119 52.34C86.6639 53.012 85.9319 53.516 85.1159 53.852C84.2999 54.188 83.4479 54.404 82.5599 54.5C81.6959 54.62 80.8439 54.68 80.0039 54.68ZM90.0479 63.032C89.3519 63.032 88.7519 62.78 88.2479 62.276C87.7679 61.796 87.5279 61.22 87.5279 60.548C87.5279 59.852 87.7679 59.252 88.2479 58.748C88.7519 58.244 89.3519 57.992 90.0479 57.992C90.7199 57.992 91.2959 58.244 91.7759 58.748C92.2559 59.252 92.4959 59.852 92.4959 60.548C92.4959 61.22 92.2559 61.796 91.7759 62.276C91.2959 62.78 90.7199 63.032 90.0479 63.032ZM83.8199 63.032C83.1239 63.032 82.5239 62.78 82.0199 62.276C81.5399 61.796 81.2999 61.22 81.2999 60.548C81.2999 59.852 81.5399 59.252 82.0199 58.748C82.5239 58.244 83.1239 57.992 83.8199 57.992C84.4919 57.992 85.0679 58.244 85.5479 58.748C86.0279 59.252 86.2679 59.852 86.2679 60.548C86.2679 61.22 86.0279 61.796 85.5479 62.276C85.0679 62.78 84.4919 63.032 83.8199 63.032ZM94.7344 54.68L95.0944 49.64C96.0064 49.64 96.7264 49.556 97.2544 49.388C97.8064 49.22 98.2384 48.884 98.5504 48.38C98.8864 47.852 99.1624 47.084 99.3784 46.076C99.6184 45.068 99.8584 43.724 100.098 42.044L104.814 42.836C104.766 43.196 104.694 43.616 104.598 44.096C104.526 44.576 104.454 45.068 104.382 45.572C104.334 46.052 104.31 46.508 104.31 46.94C104.31 47.516 104.43 48.008 104.67 48.416C104.934 48.8 105.39 49.1 106.038 49.316C106.71 49.532 107.67 49.64 108.918 49.64C109.83 49.64 110.478 49.88 110.862 50.36C111.246 50.816 111.438 51.392 111.438 52.088C111.438 52.832 111.186 53.456 110.682 53.96C110.202 54.44 109.494 54.68 108.558 54.68C106.902 54.68 105.558 54.524 104.526 54.212C103.494 53.9 102.726 53.372 102.222 52.628C101.718 51.884 101.394 50.864 101.25 49.568H102.978C102.546 50.72 102.042 51.644 101.466 52.34C100.89 53.012 100.242 53.516 99.5224 53.852C98.8024 54.188 98.0344 54.404 97.2184 54.5C96.4264 54.62 95.5984 54.68 94.7344 54.68ZM101.142 62.96C100.446 62.96 99.8464 62.72 99.3424 62.24C98.8624 61.76 98.6224 61.172 98.6224 60.476C98.6224 59.78 98.8624 59.168 99.3424 58.64C99.8464 58.136 100.446 57.884 101.142 57.884C101.838 57.884 102.426 58.136 102.906 58.64C103.41 59.168 103.662 59.78 103.662 60.476C103.662 61.172 103.41 61.76 102.906 62.24C102.426 62.72 101.838 62.96 101.142 62.96ZM123.203 54.788C122.123 54.788 121.007 54.656 119.855 54.392C118.727 54.128 117.635 53.732 116.579 53.204C115.523 52.676 114.575 52.016 113.735 51.224C112.895 50.432 112.223 49.52 111.719 48.488C111.239 47.432 110.999 46.244 110.999 44.924C110.999 43.844 111.227 42.848 111.683 41.936C112.139 41.024 112.811 40.292 113.699 39.74C114.611 39.164 115.715 38.876 117.011 38.876C118.235 38.876 119.291 39.176 120.179 39.776C121.091 40.352 121.799 41.108 122.303 42.044C122.807 42.956 123.059 43.916 123.059 44.924C123.059 46.532 122.663 47.948 121.871 49.172C121.079 50.372 119.987 51.38 118.595 52.196C117.227 53.012 115.679 53.636 113.951 54.068C112.223 54.476 110.423 54.68 108.551 54.68L108.911 49.64C110.279 49.64 111.467 49.604 112.475 49.532C113.507 49.46 114.395 49.304 115.139 49.064C115.883 48.824 116.531 48.464 117.083 47.984C117.635 47.504 118.055 46.976 118.343 46.4C118.655 45.8 118.811 45.212 118.811 44.636C118.811 44.252 118.751 43.892 118.631 43.556C118.535 43.22 118.367 42.944 118.127 42.728C117.911 42.488 117.623 42.368 117.263 42.368C116.879 42.368 116.555 42.488 116.291 42.728C116.051 42.944 115.859 43.232 115.715 43.592C115.595 43.952 115.535 44.336 115.535 44.744C115.535 45.584 115.751 46.34 116.183 47.012C116.639 47.684 117.239 48.248 117.983 48.704C118.727 49.16 119.543 49.508 120.431 49.748C121.343 49.988 122.267 50.108 123.203 50.108C123.947 50.108 124.475 49.988 124.787 49.748C125.099 49.508 125.255 49.184 125.255 48.776C125.255 48.488 125.183 48.188 125.039 47.876C124.919 47.54 124.643 47.132 124.211 46.652C123.779 46.172 123.119 45.584 122.231 44.888C121.343 44.168 120.155 43.28 118.667 42.224C117.179 41.168 115.307 39.884 113.051 38.372L115.823 34.448C118.367 36.248 120.491 37.82 122.195 39.164C123.923 40.508 125.315 41.684 126.371 42.692C127.427 43.7 128.231 44.588 128.783 45.356C129.359 46.1 129.743 46.784 129.935 47.408C130.127 48.032 130.223 48.656 130.223 49.28C130.223 50.432 129.947 51.416 129.395 52.232C128.843 53.048 128.039 53.684 126.983 54.14C125.951 54.572 124.691 54.788 123.203 54.788ZM132.873 53.06L134.637 48.488C135.525 48.872 136.377 49.16 137.193 49.352C138.009 49.544 138.825 49.64 139.641 49.64C140.481 49.64 141.177 49.568 141.729 49.424C142.305 49.256 142.737 49.016 143.025 48.704C143.313 48.392 143.457 48.02 143.457 47.588C143.457 47.18 143.325 46.616 143.061 45.896C142.821 45.176 142.377 44.24 141.729 43.088C141.081 41.912 140.133 40.46 138.885 38.732L143.169 35.888C144.321 37.52 145.317 39.116 146.157 40.676C146.997 42.212 147.645 43.652 148.101 44.996C148.581 46.316 148.821 47.48 148.821 48.488C148.821 49.736 148.485 50.828 147.813 51.764C147.165 52.676 146.193 53.396 144.897 53.924C143.625 54.452 142.053 54.716 140.181 54.716C139.485 54.716 138.705 54.656 137.841 54.536C136.977 54.416 136.101 54.236 135.213 53.996C134.349 53.756 133.569 53.444 132.873 53.06ZM139.677 33.152C138.933 33.152 138.297 32.9 137.769 32.396C137.265 31.892 137.013 31.268 137.013 30.524C137.013 29.78 137.265 29.144 137.769 28.616C138.297 28.088 138.933 27.824 139.677 27.824C140.397 27.824 141.009 28.088 141.513 28.616C142.041 29.144 142.305 29.78 142.305 30.524C142.305 31.268 142.041 31.892 141.513 32.396C141.009 32.9 140.397 33.152 139.677 33.152Z" fill="#0D0C0C"/>
<path d="M66.4206 64.935C82.1948 64.1986 91.1032 64.6201 106.921 64.6201C122.738 64.6201 131.646 64.1986 147.421 64.935C149.765 65.0445 154.42 65.25 153.421 65.25C152.421 65.25 149.765 65.4555 147.421 65.565C131.646 66.3014 122.738 65.8799 106.921 65.8799C91.1032 65.8799 82.1948 66.3014 66.4206 65.565C64.0758 65.4555 62.4206 65.25 60.4206 65.25C58.4206 65.25 64.0758 65.0445 66.4206 64.935Z" fill="url(#paint2_radial_1283_13470)"/>
<path d="M98.4412 79.07C97.4612 79.07 96.7612 78.78 96.3412 78.2C95.9279 77.6133 95.7212 76.7667 95.7212 75.66C95.7212 74.5533 95.9312 73.7067 96.3512 73.12C96.7779 72.5333 97.4779 72.24 98.4512 72.24C98.7845 72.24 99.1112 72.2867 99.4312 72.38C99.7579 72.4733 100.028 72.62 100.241 72.82C100.455 73.02 100.561 73.2667 100.561 73.56C100.561 73.7933 100.501 73.9833 100.381 74.13C100.268 74.2767 100.131 74.35 99.9712 74.35C99.8379 74.35 99.7179 74.3133 99.6112 74.24C99.5045 74.1667 99.4312 74.0733 99.3912 73.96C99.5179 73.7733 99.5812 73.6067 99.5812 73.46C99.5812 73.24 99.4745 73.0733 99.2612 72.96C99.0545 72.84 98.7879 72.78 98.4612 72.78C97.7812 72.78 97.3212 73.0333 97.0812 73.54C96.8479 74.0467 96.7312 74.7533 96.7312 75.66C96.7312 76.56 96.8479 77.2667 97.0812 77.78C97.3145 78.2867 97.7679 78.54 98.4412 78.54C98.7145 78.54 98.9645 78.5 99.1912 78.42C99.4179 78.3333 99.5779 78.25 99.6712 78.17V76.42C99.3979 76.3067 99.0579 76.2367 98.6512 76.21L98.6912 75.84L100.561 75.75V78.58C100.288 78.7333 99.9579 78.8533 99.5712 78.94C99.1845 79.0267 98.8079 79.07 98.4412 79.07ZM103.852 79.07C102.872 79.07 102.169 78.7767 101.742 78.19C101.322 77.6033 101.112 76.76 101.112 75.66C101.112 74.5533 101.322 73.7067 101.742 73.12C102.169 72.5333 102.872 72.24 103.852 72.24C104.825 72.24 105.522 72.5367 105.942 73.13C106.369 73.7167 106.582 74.5633 106.582 75.67C106.582 76.77 106.369 77.6133 105.942 78.2C105.522 78.78 104.825 79.07 103.852 79.07ZM103.852 78.58C104.325 78.58 104.685 78.4533 104.932 78.2C105.185 77.94 105.355 77.6 105.442 77.18C105.529 76.76 105.572 76.2567 105.572 75.67C105.572 75.0767 105.529 74.57 105.442 74.15C105.355 73.73 105.185 73.39 104.932 73.13C104.685 72.87 104.325 72.74 103.852 72.74C103.379 72.74 103.015 72.87 102.762 73.13C102.509 73.39 102.339 73.73 102.252 74.15C102.165 74.5633 102.122 75.0667 102.122 75.66C102.122 76.5733 102.239 77.29 102.472 77.81C102.712 78.3233 103.172 78.58 103.852 78.58ZM107.198 78.63C107.592 78.5833 107.892 78.4933 108.098 78.36V72.96C107.852 72.8267 107.532 72.7367 107.138 72.69L107.188 72.33H109.958L109.908 72.69C109.542 72.7367 109.235 72.8267 108.988 72.96V78.42H110.858C111.065 78.1267 111.208 77.75 111.288 77.29C111.342 77.27 111.402 77.26 111.468 77.26C111.535 77.26 111.608 77.27 111.688 77.29L111.598 79H107.138L107.198 78.63ZM112.208 78.63C112.408 78.6033 112.578 78.5733 112.718 78.54C112.858 78.5067 112.991 78.45 113.118 78.37V72.96C112.885 72.8333 112.561 72.7433 112.148 72.69L112.198 72.33H114.348C115.515 72.33 116.388 72.5967 116.968 73.13C117.548 73.6633 117.838 74.51 117.838 75.67C117.838 76.8367 117.545 77.6833 116.958 78.21C116.378 78.7367 115.488 79 114.288 79H112.158L112.208 78.63ZM114.458 78.51C115.258 78.51 115.855 78.2967 116.248 77.87C116.641 77.4367 116.838 76.7 116.838 75.66C116.838 74.6267 116.645 73.8967 116.258 73.47C115.871 73.0433 115.281 72.83 114.488 72.83H114.008V78.47C114.121 78.4967 114.271 78.51 114.458 78.51Z" fill="#0D0C0C"/>
</g>
<defs>
<linearGradient id="paint0_linear_1283_13470" x1="106.5" y1="0" x2="106.5" y2="105" gradientUnits="userSpaceOnUse">
<stop stop-color="#C05D01"/>
<stop offset="1" stop-color="#F2E394"/>
</linearGradient>
<linearGradient id="paint1_linear_1283_13470" x1="216.443" y1="66.6234" x2="28.6469" y2="59.9042" gradientUnits="userSpaceOnUse">
<stop stop-color="#C05D01"/>
<stop offset="1" stop-color="#F2E394"/>
</linearGradient>
<radialGradient id="paint2_radial_1283_13470" cx="0" cy="0" r="1" gradientUnits="userSpaceOnUse" gradientTransform="translate(106.78 65.25) scale(46.7796 0.75)">
<stop stop-color="#E6A600"/>
<stop offset="1" stop-color="#FFFEFC"/>
</radialGradient>
<clipPath id="clip0_1283_13470">
<rect width="213" height="105" rx="8" fill="white"/>
</clipPath>
</defs>
</svg>
