<svg width="213" height="105" viewBox="0 0 213 105" fill="none" xmlns="http://www.w3.org/2000/svg">
<g clip-path="url(#clip0_1283_13623)">
<rect width="213" height="105" rx="8" fill="url(#paint0_linear_1283_13623)"/>
<path d="M-76.7413 -55.8745C-86.14 -58.4847 -83.5971 -73.2973 -73.8677 -72.5986L240.564 -50.0164C244.293 -49.7486 247.339 -46.9342 247.901 -43.2383L279.601 165.463C280.886 173.92 269.564 178.432 264.651 171.43C231.74 124.531 166.903 36.1221 130.999 14C100.905 -4.54226 -1.25875 -34.9116 -76.7413 -55.8745Z" fill="url(#paint1_linear_1283_13623)"/>
<path d="M60.764 55.256L61.7 50.216C63.98 50.24 65.816 50.18 67.208 50.036C68.624 49.868 69.692 49.568 70.412 49.136C71.156 48.68 71.636 48.044 71.852 47.228C72.092 46.388 72.176 45.32 72.104 44.024L71.312 28.148H76.352L77.144 44.276C77.264 46.46 77.108 48.272 76.676 49.712C76.244 51.128 75.428 52.244 74.228 53.06C73.028 53.852 71.336 54.416 69.152 54.752C66.968 55.088 64.172 55.256 60.764 55.256ZM59.036 46.724L58.1 43.16C58.94 42.944 59.624 42.752 60.152 42.584C60.704 42.416 61.112 42.248 61.376 42.08C61.64 41.912 61.772 41.744 61.772 41.576C61.772 41.36 61.664 41.132 61.448 40.892C61.232 40.652 60.992 40.376 60.728 40.064C60.464 39.752 60.224 39.404 60.008 39.02C59.792 38.636 59.684 38.192 59.684 37.688C59.684 37.088 59.852 36.524 60.188 35.996C60.524 35.444 61.064 34.916 61.808 34.412C62.576 33.884 63.584 33.368 64.832 32.864L66.38 36.068C65.372 36.476 64.688 36.836 64.328 37.148C63.992 37.436 63.824 37.712 63.824 37.976C63.824 38.192 63.932 38.444 64.148 38.732C64.364 39.02 64.604 39.344 64.868 39.704C65.156 40.04 65.408 40.424 65.624 40.856C65.84 41.264 65.948 41.708 65.948 42.188C65.948 42.572 65.864 42.968 65.696 43.376C65.552 43.784 65.24 44.18 64.76 44.564C64.304 44.948 63.62 45.32 62.708 45.68C61.796 46.04 60.572 46.388 59.036 46.724ZM60.764 55.256C58.172 55.256 55.976 55.052 54.176 54.644C52.4 54.26 50.948 53.708 49.82 52.988C48.716 52.244 47.912 51.38 47.408 50.396C46.904 49.412 46.652 48.332 46.652 47.156C46.652 46.388 46.712 45.62 46.832 44.852C46.976 44.06 47.144 43.292 47.336 42.548C47.552 41.804 47.744 41.132 47.912 40.532L52.412 41.576C52.316 42.008 52.208 42.476 52.088 42.98C51.968 43.484 51.872 43.976 51.8 44.456C51.728 44.912 51.692 45.332 51.692 45.716C51.692 46.604 52.004 47.396 52.628 48.092C53.276 48.764 54.332 49.292 55.796 49.676C57.26 50.036 59.228 50.216 61.7 50.216L62.42 54.104L60.764 55.256ZM78.6658 62.816L76.8298 58.352C78.1018 57.92 79.2658 57.416 80.3218 56.84C81.4018 56.264 82.3378 55.628 83.1298 54.932C83.9218 54.236 84.5338 53.48 84.9658 52.664C85.3978 51.824 85.6138 50.924 85.6138 49.964C85.6138 48.956 85.3858 47.852 84.9298 46.652C84.4738 45.452 83.9218 44.228 83.2738 42.98L87.9898 40.712C88.4218 41.456 88.7938 42.26 89.1058 43.124C89.4418 43.964 89.7178 44.72 89.9338 45.392C90.1498 46.064 90.2938 46.52 90.3658 46.76C90.7018 47.912 91.1578 48.68 91.7338 49.064C92.3338 49.448 93.2938 49.64 94.6138 49.64C95.5258 49.64 96.1738 49.88 96.5578 50.36C96.9658 50.816 97.1698 51.392 97.1698 52.088C97.1698 52.832 96.9178 53.456 96.4138 53.96C95.9098 54.44 95.1898 54.68 94.2538 54.68C93.2698 54.68 92.4058 54.536 91.6618 54.248C90.9178 53.96 90.3178 53.54 89.8618 52.988C89.4298 52.436 89.1538 51.788 89.0338 51.044L90.3658 51.8C90.2218 53.072 89.8018 54.272 89.1058 55.4C88.4338 56.552 87.5578 57.608 86.4778 58.568C85.3978 59.528 84.1858 60.368 82.8418 61.088C81.4978 61.808 80.1058 62.384 78.6658 62.816ZM94.2969 54.68L94.6569 49.64C95.5209 49.64 96.2649 49.556 96.8889 49.388C97.5129 49.22 98.0409 48.884 98.4729 48.38C98.9049 47.852 99.2649 47.084 99.5529 46.076C99.8649 45.068 100.141 43.724 100.381 42.044L105.097 42.836C105.049 43.196 104.977 43.616 104.881 44.096C104.809 44.576 104.737 45.068 104.665 45.572C104.617 46.052 104.593 46.508 104.593 46.94C104.593 47.372 104.677 47.756 104.845 48.092C105.013 48.428 105.277 48.716 105.637 48.956C106.021 49.172 106.513 49.34 107.113 49.46C107.737 49.58 108.493 49.64 109.381 49.64C110.293 49.64 110.941 49.88 111.325 50.36C111.709 50.816 111.901 51.392 111.901 52.088C111.901 52.832 111.649 53.456 111.145 53.96C110.665 54.44 109.957 54.68 109.021 54.68C107.941 54.68 106.957 54.596 106.069 54.428C105.205 54.26 104.449 53.984 103.801 53.6C103.177 53.192 102.661 52.664 102.253 52.016C101.869 51.344 101.629 50.528 101.533 49.568H103.261C102.829 50.72 102.277 51.644 101.605 52.34C100.957 53.012 100.225 53.516 99.4089 53.852C98.5929 54.188 97.7409 54.404 96.8529 54.5C95.9889 54.62 95.1369 54.68 94.2969 54.68ZM105.853 38.804C105.157 38.804 104.557 38.564 104.053 38.084C103.573 37.58 103.333 36.992 103.333 36.32C103.333 35.624 103.573 35.024 104.053 34.52C104.557 34.016 105.157 33.764 105.853 33.764C106.525 33.764 107.101 34.016 107.581 34.52C108.061 35.024 108.301 35.624 108.301 36.32C108.301 36.992 108.061 37.58 107.581 38.084C107.101 38.564 106.525 38.804 105.853 38.804ZM99.6249 38.768C98.9289 38.768 98.3289 38.528 97.8249 38.048C97.3449 37.544 97.1049 36.956 97.1049 36.284C97.1049 35.588 97.3449 34.988 97.8249 34.484C98.3289 33.98 98.9289 33.728 99.6249 33.728C100.297 33.728 100.873 33.98 101.353 34.484C101.833 34.988 102.073 35.588 102.073 36.284C102.073 36.956 101.833 37.544 101.353 38.048C100.873 38.528 100.297 38.768 99.6249 38.768ZM109.027 54.68L109.387 49.64C110.179 49.64 110.827 49.58 111.331 49.46C111.835 49.316 112.243 49.016 112.555 48.56C112.891 48.08 113.179 47.372 113.419 46.436C113.683 45.476 113.971 44.18 114.283 42.548L118.963 43.412C118.867 43.94 118.735 44.6 118.567 45.392C118.423 46.184 118.351 46.868 118.351 47.444C118.351 47.9 118.435 48.296 118.603 48.632C118.795 48.944 119.107 49.196 119.539 49.388C119.995 49.556 120.619 49.64 121.411 49.64C122.035 49.64 122.563 49.58 122.995 49.46C123.451 49.316 123.835 49.016 124.147 48.56C124.483 48.08 124.771 47.348 125.011 46.364C125.275 45.356 125.527 44 125.767 42.296L130.519 43.052C130.423 43.604 130.327 44.192 130.231 44.816C130.135 45.44 130.051 46.016 129.979 46.544C129.907 47.072 129.871 47.504 129.871 47.84C129.871 48.152 129.955 48.452 130.123 48.74C130.315 49.004 130.651 49.22 131.131 49.388C131.635 49.556 132.331 49.64 133.219 49.64C134.299 49.64 135.091 49.412 135.595 48.956C136.123 48.476 136.387 47.756 136.387 46.796C136.387 46.244 136.375 45.656 136.351 45.032C136.327 44.384 136.279 43.664 136.207 42.872C136.159 42.056 136.063 41.132 135.919 40.1L140.563 39.74C140.731 41.804 140.923 43.484 141.139 44.78C141.355 46.076 141.643 47.084 142.003 47.804C142.387 48.5 142.891 48.98 143.515 49.244C144.163 49.508 145.003 49.64 146.035 49.64C146.947 49.64 147.595 49.88 147.979 50.36C148.387 50.816 148.591 51.392 148.591 52.088C148.591 52.832 148.339 53.456 147.835 53.96C147.355 54.44 146.635 54.68 145.675 54.68C145.027 54.68 144.355 54.62 143.659 54.5C142.963 54.404 142.291 54.2 141.643 53.888C140.995 53.552 140.419 53.072 139.915 52.448C139.411 51.824 139.015 50.996 138.727 49.964L139.375 50.18C139.039 51.38 138.583 52.304 138.007 52.952C137.431 53.6 136.723 54.056 135.883 54.32C135.043 54.56 134.035 54.68 132.859 54.68C131.779 54.68 130.819 54.536 129.979 54.248C129.139 53.96 128.467 53.492 127.963 52.844C127.483 52.172 127.231 51.272 127.207 50.144H128.431C127.951 51.488 127.399 52.484 126.775 53.132C126.151 53.78 125.395 54.2 124.507 54.392C123.619 54.584 122.503 54.68 121.159 54.68C120.343 54.68 119.539 54.596 118.747 54.428C117.955 54.236 117.247 53.816 116.623 53.168C115.999 52.496 115.543 51.44 115.255 50L117.199 49.928C116.695 51.344 116.035 52.388 115.219 53.06C114.427 53.732 113.515 54.176 112.483 54.392C111.451 54.584 110.299 54.68 109.027 54.68ZM127.495 32.396C126.895 32.396 126.367 32.168 125.911 31.712C125.479 31.256 125.263 30.716 125.263 30.092C125.263 29.468 125.479 28.94 125.911 28.508C126.367 28.076 126.895 27.86 127.495 27.86C128.119 27.86 128.647 28.076 129.079 28.508C129.511 28.94 129.727 29.468 129.727 30.092C129.727 30.716 129.511 31.256 129.079 31.712C128.647 32.168 128.119 32.396 127.495 32.396ZM124.615 37.148C124.015 37.148 123.487 36.92 123.031 36.464C122.599 36.008 122.383 35.468 122.383 34.844C122.383 34.22 122.599 33.692 123.031 33.26C123.487 32.828 124.015 32.612 124.615 32.612C125.239 32.612 125.767 32.828 126.199 33.26C126.631 33.692 126.847 34.22 126.847 34.844C126.847 35.468 126.631 36.008 126.199 36.464C125.767 36.92 125.239 37.148 124.615 37.148ZM130.195 37.148C129.595 37.148 129.067 36.92 128.611 36.464C128.179 36.008 127.963 35.468 127.963 34.844C127.963 34.22 128.179 33.692 128.611 33.26C129.067 32.828 129.595 32.612 130.195 32.612C130.819 32.612 131.347 32.828 131.779 33.26C132.211 33.692 132.427 34.22 132.427 34.844C132.427 35.468 132.211 36.008 131.779 36.464C131.347 36.92 130.819 37.148 130.195 37.148ZM145.695 54.68L146.055 49.64C146.607 49.64 147.075 49.508 147.459 49.244C147.867 48.956 148.287 48.488 148.719 47.84C149.151 47.168 149.655 46.268 150.231 45.14C150.951 43.7 151.695 42.572 152.463 41.756C153.255 40.94 154.059 40.364 154.875 40.028C155.715 39.668 156.555 39.488 157.395 39.488C158.451 39.488 159.435 39.716 160.347 40.172C161.259 40.628 162.051 41.252 162.723 42.044C163.395 42.812 163.911 43.7 164.271 44.708C164.655 45.692 164.847 46.712 164.847 47.768C164.847 49.04 164.571 50.192 164.019 51.224C163.491 52.232 162.747 53.036 161.787 53.636C160.851 54.212 159.771 54.5 158.547 54.5C157.515 54.5 156.315 54.32 154.947 53.96C153.579 53.6 152.139 52.844 150.627 51.692L152.463 47.336C153.543 48.08 154.551 48.62 155.487 48.956C156.447 49.292 157.239 49.46 157.863 49.46C158.343 49.46 158.739 49.412 159.051 49.316C159.363 49.22 159.591 49.064 159.735 48.848C159.879 48.632 159.951 48.344 159.951 47.984C159.951 47.48 159.831 46.964 159.591 46.436C159.351 45.908 159.027 45.464 158.619 45.104C158.235 44.72 157.779 44.528 157.251 44.528C156.747 44.528 156.315 44.72 155.955 45.104C155.619 45.464 155.283 45.992 154.947 46.688C154.635 47.36 154.251 48.152 153.795 49.064C153.243 50.168 152.703 51.092 152.175 51.836C151.647 52.556 151.083 53.132 150.483 53.564C149.907 53.972 149.223 54.26 148.431 54.428C147.663 54.596 146.751 54.68 145.695 54.68Z" fill="#0D0C0C"/>
<path d="M66.1411 64.935C81.9152 64.1986 90.8236 64.6201 106.641 64.6201C122.458 64.6201 131.367 64.1986 147.141 64.935C149.486 65.0445 154.14 65.25 153.141 65.25C152.142 65.25 149.486 65.4555 147.141 65.565C131.367 66.3014 122.458 65.8799 106.641 65.8799C90.8236 65.8799 81.9152 66.3014 66.1411 65.565C63.7962 65.4555 62.1411 65.25 60.1411 65.25C58.1411 65.25 63.7962 65.0445 66.1411 64.935Z" fill="url(#paint2_radial_1283_13623)"/>
<path d="M80.2954 78.63C80.4487 78.6033 80.5787 78.5733 80.6854 78.54C80.792 78.5067 80.8987 78.45 81.0054 78.37L82.8754 72.33H83.4754L85.5354 78.38C85.702 78.5 85.922 78.5833 86.1954 78.63L86.1554 79H83.6554L83.7054 78.63C84.092 78.5833 84.3987 78.4933 84.6254 78.36L84.1154 76.85H82.0954L81.6354 78.36C81.8554 78.4867 82.1787 78.5767 82.6054 78.63L82.5654 79H80.2454L80.2954 78.63ZM83.9454 76.33L83.0654 73.72L82.2554 76.33H83.9454ZM86.5217 78.63C86.675 78.61 86.7983 78.5833 86.8917 78.55C86.985 78.5167 87.0817 78.46 87.1817 78.38V73.33C87.1817 73.0833 87.1317 72.9167 87.0317 72.83C86.9317 72.7367 86.7483 72.6833 86.4817 72.67L86.5117 72.37C86.7717 72.33 87.0417 72.27 87.3217 72.19C87.6083 72.1033 87.7817 72.05 87.8417 72.03L88.0317 72.13V78.38C88.1983 78.5067 88.4317 78.5967 88.7317 78.65L88.6917 79H86.4817L86.5217 78.63ZM89.2365 78.63C89.3899 78.61 89.5132 78.5833 89.6065 78.55C89.6999 78.5167 89.7965 78.46 89.8965 78.38V73.33C89.8965 73.0833 89.8465 72.9167 89.7465 72.83C89.6465 72.7367 89.4632 72.6833 89.1965 72.67L89.2265 72.37C89.4865 72.33 89.7565 72.27 90.0365 72.19C90.3232 72.1033 90.4965 72.05 90.5565 72.03L90.7465 72.13V78.38C90.9132 78.5067 91.1465 78.5967 91.4465 78.65L91.4065 79H89.1965L89.2365 78.63ZM94.1986 78.63C94.5786 78.59 94.882 78.5 95.1086 78.36V72.96C94.862 72.8267 94.542 72.7367 94.1486 72.69L94.1886 72.33H96.1186L98.3586 77.77L100.519 72.33H102.429L102.379 72.69C102.012 72.73 101.705 72.82 101.459 72.96V78.36C101.679 78.4867 102.002 78.5767 102.429 78.63L102.389 79H99.6086L99.6586 78.63C99.852 78.61 100.019 78.58 100.159 78.54C100.305 78.5 100.445 78.44 100.579 78.36V73.71H100.539L98.5086 79H97.9186L95.7886 73.62H95.7486V78.36C95.982 78.5 96.3053 78.59 96.7186 78.63L96.6786 79H94.1486L94.1986 78.63ZM105.096 79.07C104.349 79.07 103.812 78.8667 103.486 78.46C103.166 78.0467 103.006 77.4333 103.006 76.62C103.006 75.88 103.182 75.3 103.536 74.88C103.896 74.4533 104.416 74.24 105.096 74.24C105.756 74.24 106.219 74.4133 106.486 74.76C106.752 75.1067 106.896 75.62 106.916 76.3L106.706 76.57H103.926V76.62C103.926 77.0533 103.952 77.4067 104.006 77.68C104.059 77.9533 104.176 78.1733 104.356 78.34C104.536 78.5 104.802 78.58 105.156 78.58C105.422 78.58 105.666 78.53 105.886 78.43C106.106 78.33 106.289 78.2233 106.436 78.11L106.686 78.41C106.519 78.5633 106.302 78.7133 106.036 78.86C105.769 79 105.456 79.07 105.096 79.07ZM106.016 76.13C106.016 75.6033 105.946 75.2233 105.806 74.99C105.672 74.7567 105.422 74.64 105.056 74.64C104.676 74.64 104.396 74.78 104.216 75.06C104.036 75.3333 103.939 75.7133 103.926 76.2L106.016 76.13ZM107.48 78.64C107.64 78.6133 107.766 78.5833 107.86 78.55C107.953 78.5167 108.046 78.46 108.14 78.38V75.53C108.14 75.2833 108.09 75.1167 107.99 75.03C107.89 74.9367 107.706 74.8833 107.44 74.87L107.47 74.58C107.71 74.5333 108.013 74.4533 108.38 74.34C108.42 74.3267 108.526 74.2933 108.7 74.24L108.88 74.33L108.95 74.85C109.063 74.7233 109.22 74.59 109.42 74.45C109.626 74.31 109.876 74.24 110.17 74.24C110.783 74.24 111.223 74.4467 111.49 74.86C111.696 74.6733 111.906 74.5233 112.12 74.41C112.333 74.2967 112.566 74.24 112.82 74.24C113.273 74.24 113.643 74.3633 113.93 74.61C114.223 74.85 114.37 75.2267 114.37 75.74V78.38C114.436 78.4333 114.533 78.4867 114.66 78.54C114.793 78.5933 114.93 78.6333 115.07 78.66L115.03 79H112.84L112.86 78.66C113.113 78.62 113.333 78.5267 113.52 78.38V75.71C113.52 75.37 113.453 75.12 113.32 74.96C113.193 74.8 112.996 74.72 112.73 74.72C112.516 74.72 112.316 74.7867 112.13 74.92C111.943 75.0533 111.803 75.21 111.71 75.39V78.38C111.77 78.4333 111.866 78.4867 112 78.54C112.133 78.5933 112.27 78.6333 112.41 78.66L112.37 79H110.17L110.2 78.66C110.453 78.62 110.673 78.5267 110.86 78.38V75.71C110.86 75.37 110.793 75.12 110.66 74.96C110.533 74.8 110.336 74.72 110.07 74.72C109.836 74.72 109.616 74.8033 109.41 74.97C109.203 75.13 109.066 75.3067 109 75.5V78.38C109.153 78.5 109.383 78.5933 109.69 78.66L109.65 79H107.44L107.48 78.64ZM118.034 79.07C117.614 79.07 117.228 78.9067 116.874 78.58C116.774 78.7333 116.708 78.8733 116.674 79H116.194V73.33C116.194 73.0833 116.144 72.9167 116.044 72.83C115.944 72.7367 115.761 72.6833 115.494 72.67L115.524 72.37C115.784 72.33 116.054 72.27 116.334 72.19C116.621 72.1033 116.794 72.05 116.854 72.03L117.054 72.13V74.94C117.154 74.7467 117.314 74.5833 117.534 74.45C117.761 74.31 117.994 74.24 118.234 74.24C118.914 74.24 119.411 74.4533 119.724 74.88C120.038 75.3067 120.194 75.89 120.194 76.63C120.194 77.3567 120.008 77.9467 119.634 78.4C119.261 78.8467 118.728 79.07 118.034 79.07ZM118.084 78.65C118.564 78.65 118.884 78.4633 119.044 78.09C119.204 77.71 119.284 77.2233 119.284 76.63C119.284 76.2233 119.261 75.8833 119.214 75.61C119.168 75.33 119.068 75.1033 118.914 74.93C118.768 74.7567 118.548 74.67 118.254 74.67C117.768 74.67 117.444 74.8767 117.284 75.29C117.131 75.7033 117.054 76.2567 117.054 76.95V78.15C117.228 78.3033 117.394 78.4267 117.554 78.52C117.714 78.6067 117.891 78.65 118.084 78.65ZM122.84 79.07C122.093 79.07 121.556 78.8667 121.23 78.46C120.91 78.0467 120.75 77.4333 120.75 76.62C120.75 75.88 120.926 75.3 121.28 74.88C121.64 74.4533 122.16 74.24 122.84 74.24C123.5 74.24 123.963 74.4133 124.23 74.76C124.496 75.1067 124.64 75.62 124.66 76.3L124.45 76.57H121.67V76.62C121.67 77.0533 121.696 77.4067 121.75 77.68C121.803 77.9533 121.92 78.1733 122.1 78.34C122.28 78.5 122.546 78.58 122.9 78.58C123.166 78.58 123.41 78.53 123.63 78.43C123.85 78.33 124.033 78.2233 124.18 78.11L124.43 78.41C124.263 78.5633 124.046 78.7133 123.78 78.86C123.513 79 123.2 79.07 122.84 79.07ZM123.76 76.13C123.76 75.6033 123.69 75.2233 123.55 74.99C123.416 74.7567 123.166 74.64 122.8 74.64C122.42 74.64 122.14 74.78 121.96 75.06C121.78 75.3333 121.683 75.7133 121.67 76.2L123.76 76.13ZM125.224 78.64C125.377 78.6133 125.5 78.5833 125.594 78.55C125.687 78.5167 125.784 78.46 125.884 78.38V75.53C125.884 75.2833 125.83 75.1167 125.724 75.03C125.624 74.9367 125.444 74.8833 125.184 74.87L125.214 74.58C125.42 74.54 125.717 74.46 126.104 74.34L126.434 74.24L126.614 74.33L126.714 75.03C126.867 74.7967 127.047 74.6067 127.254 74.46C127.46 74.3133 127.68 74.24 127.914 74.24C128.154 74.24 128.36 74.31 128.534 74.45C128.714 74.59 128.804 74.79 128.804 75.05C128.804 75.2167 128.754 75.3633 128.654 75.49C128.56 75.6167 128.434 75.68 128.274 75.68C128.16 75.68 128.054 75.6533 127.954 75.6C127.854 75.54 127.79 75.4633 127.764 75.37C127.79 75.3433 127.814 75.3033 127.834 75.25C127.854 75.19 127.864 75.1367 127.864 75.09C127.864 74.89 127.77 74.79 127.584 74.79C127.464 74.79 127.337 74.8533 127.204 74.98C127.07 75.1067 126.957 75.27 126.864 75.47C126.777 75.6633 126.734 75.86 126.734 76.06V78.38C126.914 78.5 127.177 78.5933 127.524 78.66L127.484 79H125.184L125.224 78.64ZM130.679 79.06C130.445 79.06 130.175 79.0233 129.869 78.95C129.569 78.87 129.342 78.78 129.189 78.68V77.45L129.719 77.38C129.745 77.66 129.775 77.8833 129.809 78.05C129.849 78.21 129.909 78.3633 129.989 78.51C130.202 78.5767 130.459 78.61 130.759 78.61C131.032 78.61 131.255 78.5367 131.429 78.39C131.602 78.2433 131.689 78.06 131.689 77.84C131.689 77.62 131.602 77.4567 131.429 77.35C131.262 77.2367 130.995 77.1167 130.629 76.99C130.322 76.8833 130.072 76.78 129.879 76.68C129.692 76.58 129.532 76.4367 129.399 76.25C129.265 76.0633 129.199 75.8233 129.199 75.53C129.199 75.13 129.345 74.8167 129.639 74.59C129.939 74.3633 130.349 74.25 130.869 74.25C131.149 74.25 131.405 74.2933 131.639 74.38C131.879 74.4667 132.069 74.5867 132.209 74.74C132.349 74.8867 132.419 75.05 132.419 75.23C132.419 75.5767 132.265 75.75 131.959 75.75C131.832 75.75 131.725 75.73 131.639 75.69C131.559 75.6433 131.485 75.5733 131.419 75.48C131.532 75.4 131.589 75.28 131.589 75.12C131.589 74.98 131.512 74.8667 131.359 74.78C131.212 74.6933 131.029 74.65 130.809 74.65C130.542 74.65 130.332 74.71 130.179 74.83C130.025 74.95 129.949 75.1133 129.949 75.32C129.949 75.4867 129.999 75.6267 130.099 75.74C130.205 75.8467 130.332 75.9333 130.479 76C130.625 76.0667 130.835 76.1467 131.109 76.24C131.395 76.3467 131.629 76.45 131.809 76.55C131.995 76.65 132.152 76.79 132.279 76.97C132.405 77.1433 132.469 77.3667 132.469 77.64C132.469 78.0867 132.312 78.4367 131.999 78.69C131.685 78.9367 131.245 79.06 130.679 79.06Z" fill="#0D0C0C"/>
</g>
<defs>
<linearGradient id="paint0_linear_1283_13623" x1="0" y1="0" x2="178.191" y2="142.149" gradientUnits="userSpaceOnUse">
<stop stop-color="#39629C"/>
<stop offset="1" stop-color="#8FACD6"/>
</linearGradient>
<linearGradient id="paint1_linear_1283_13623" x1="252.466" y1="25.6914" x2="64.6692" y2="18.9722" gradientUnits="userSpaceOnUse">
<stop stop-color="#39629C"/>
<stop offset="1" stop-color="#8FACD6"/>
</linearGradient>
<radialGradient id="paint2_radial_1283_13623" cx="0" cy="0" r="1" gradientUnits="userSpaceOnUse" gradientTransform="translate(106.5 65.25) scale(46.7796 0.75)">
<stop stop-color="#E6A600"/>
<stop offset="1" stop-color="#FFFEFC"/>
</radialGradient>
<clipPath id="clip0_1283_13623">
<rect width="213" height="105" rx="8" fill="white"/>
</clipPath>
</defs>
</svg>
