<svg width="213" height="105" viewBox="0 0 213 105" fill="none" xmlns="http://www.w3.org/2000/svg">
<g clip-path="url(#clip0_1283_13463)">
<rect width="213" height="105" rx="8" fill="url(#paint0_linear_1283_13463)"/>
<path d="M-11.7931 -6.27171C-20.8428 -9.00071 -18.6652 -23.2812 -9.21515 -23.0775L242.311 -17.6564C246.522 -17.5657 249.941 -14.2258 250.13 -10.0184L259.373 195.1C259.765 203.788 247.504 207.065 243.426 199.384C218.225 151.92 171.21 70.0773 136.449 49.0905C107.211 31.4374 39.2814 9.13019 -11.7931 -6.27171Z" fill="url(#paint1_linear_1283_13463)"/>
<path d="M80.016 54.68C78.312 54.68 76.836 54.464 75.588 54.032C74.364 53.576 73.416 52.856 72.744 51.872C72.072 50.864 71.688 49.52 71.592 47.84L70.944 33.332H76.02L76.632 46.076C76.68 47.06 76.836 47.816 77.1 48.344C77.388 48.848 77.796 49.196 78.324 49.388C78.852 49.556 79.536 49.64 80.376 49.64C81.288 49.64 81.936 49.88 82.32 50.36C82.704 50.816 82.896 51.392 82.896 52.088C82.896 52.832 82.644 53.456 82.14 53.96C81.66 54.44 80.952 54.68 80.016 54.68ZM73.428 51.332C71.82 51.692 70.272 51.86 68.784 51.836C67.296 51.788 65.964 51.524 64.788 51.044C63.612 50.54 62.676 49.82 61.98 48.884C61.308 47.948 60.972 46.76 60.972 45.32C60.972 44.048 61.248 42.896 61.8 41.864C62.376 40.808 63.168 39.884 64.176 39.092C65.208 38.3 66.408 37.628 67.776 37.076C69.144 36.524 70.632 36.104 72.24 35.816L72.744 40.928C71.712 40.976 70.776 41.12 69.936 41.36C69.12 41.576 68.412 41.864 67.812 42.224C67.236 42.584 66.792 42.992 66.48 43.448C66.168 43.88 66.012 44.348 66.012 44.852C66.012 45.26 66.156 45.596 66.444 45.86C66.732 46.124 67.116 46.34 67.596 46.508C68.076 46.652 68.628 46.736 69.252 46.76C69.876 46.784 70.512 46.748 71.16 46.652C71.832 46.556 72.492 46.4 73.14 46.184L73.428 51.332ZM73.536 29.624C72.84 29.624 72.24 29.384 71.736 28.904C71.256 28.4 71.016 27.812 71.016 27.14C71.016 26.444 71.256 25.844 71.736 25.34C72.24 24.836 72.84 24.584 73.536 24.584C74.208 24.584 74.784 24.836 75.264 25.34C75.744 25.844 75.984 26.444 75.984 27.14C75.984 27.812 75.744 28.4 75.264 28.904C74.784 29.384 74.208 29.624 73.536 29.624ZM67.308 29.588C66.612 29.588 66.012 29.348 65.508 28.868C65.028 28.364 64.788 27.776 64.788 27.104C64.788 26.408 65.028 25.808 65.508 25.304C66.012 24.8 66.612 24.548 67.308 24.548C67.98 24.548 68.556 24.8 69.036 25.304C69.516 25.808 69.756 26.408 69.756 27.104C69.756 27.776 69.516 28.364 69.036 28.868C68.556 29.348 67.98 29.588 67.308 29.588ZM80.0039 54.68L80.3639 49.64C81.2279 49.64 81.9719 49.556 82.5959 49.388C83.2199 49.22 83.7479 48.884 84.1799 48.38C84.6119 47.852 84.9719 47.084 85.2599 46.076C85.5719 45.068 85.8479 43.724 86.0879 42.044L90.8039 42.836C90.7559 43.196 90.6839 43.616 90.5879 44.096C90.5159 44.576 90.4439 45.068 90.3719 45.572C90.3239 46.052 90.2999 46.508 90.2999 46.94C90.2999 47.372 90.3839 47.756 90.5519 48.092C90.7199 48.428 90.9839 48.716 91.3439 48.956C91.7279 49.172 92.2199 49.34 92.8199 49.46C93.4439 49.58 94.1999 49.64 95.0879 49.64C95.9999 49.64 96.6479 49.88 97.0319 50.36C97.4159 50.816 97.6079 51.392 97.6079 52.088C97.6079 52.832 97.3559 53.456 96.8519 53.96C96.3719 54.44 95.6639 54.68 94.7279 54.68C93.6479 54.68 92.6639 54.596 91.7759 54.428C90.9119 54.26 90.1559 53.984 89.5079 53.6C88.8839 53.192 88.3679 52.664 87.9599 52.016C87.5759 51.344 87.3359 50.528 87.2399 49.568H88.9679C88.5359 50.72 87.9839 51.644 87.3119 52.34C86.6639 53.012 85.9319 53.516 85.1159 53.852C84.2999 54.188 83.4479 54.404 82.5599 54.5C81.6959 54.62 80.8439 54.68 80.0039 54.68ZM90.0479 63.032C89.3519 63.032 88.7519 62.78 88.2479 62.276C87.7679 61.796 87.5279 61.22 87.5279 60.548C87.5279 59.852 87.7679 59.252 88.2479 58.748C88.7519 58.244 89.3519 57.992 90.0479 57.992C90.7199 57.992 91.2959 58.244 91.7759 58.748C92.2559 59.252 92.4959 59.852 92.4959 60.548C92.4959 61.22 92.2559 61.796 91.7759 62.276C91.2959 62.78 90.7199 63.032 90.0479 63.032ZM83.8199 63.032C83.1239 63.032 82.5239 62.78 82.0199 62.276C81.5399 61.796 81.2999 61.22 81.2999 60.548C81.2999 59.852 81.5399 59.252 82.0199 58.748C82.5239 58.244 83.1239 57.992 83.8199 57.992C84.4919 57.992 85.0679 58.244 85.5479 58.748C86.0279 59.252 86.2679 59.852 86.2679 60.548C86.2679 61.22 86.0279 61.796 85.5479 62.276C85.0679 62.78 84.4919 63.032 83.8199 63.032ZM130.842 54.68C129.618 54.68 128.442 54.572 127.314 54.356C126.186 54.116 125.166 53.804 124.254 53.42C123.366 53.036 122.634 52.604 122.058 52.124L125.298 48.632C126.162 48.992 127.05 49.256 127.962 49.424C128.874 49.568 129.954 49.64 131.202 49.64C132.114 49.64 132.762 49.88 133.146 50.36C133.554 50.816 133.758 51.392 133.758 52.088C133.758 52.832 133.506 53.456 133.002 53.96C132.498 54.44 131.778 54.68 130.842 54.68ZM113.382 55.148C111.15 55.148 109.29 55.052 107.802 54.86C106.338 54.668 105.15 54.392 104.238 54.032C103.326 53.672 102.606 53.24 102.078 52.736C101.55 52.232 101.118 51.68 100.782 51.08L101.79 50.792C101.19 51.944 100.506 52.796 99.7384 53.348C98.9704 53.9 98.1664 54.26 97.3264 54.428C96.4864 54.596 95.6224 54.68 94.7344 54.68L95.0944 49.64C95.8384 49.64 96.4264 49.52 96.8584 49.28C97.2904 49.04 97.6384 48.644 97.9024 48.092C98.1904 47.54 98.4544 46.808 98.6944 45.896C98.9344 44.984 99.2224 43.868 99.5584 42.548L104.13 43.664C103.962 44.312 103.818 44.876 103.698 45.356C103.602 45.836 103.518 46.256 103.446 46.616C103.398 46.952 103.374 47.228 103.374 47.444C103.374 47.9 103.482 48.308 103.698 48.668C103.914 49.004 104.334 49.28 104.958 49.496C105.582 49.688 106.494 49.844 107.694 49.964C108.918 50.06 110.514 50.108 112.482 50.108C114.57 50.108 116.31 50.036 117.702 49.892C119.094 49.724 120.198 49.496 121.014 49.208C121.854 48.896 122.454 48.524 122.814 48.092C123.174 47.636 123.354 47.12 123.354 46.544C123.354 46.088 123.246 45.668 123.03 45.284C122.838 44.876 122.514 44.54 122.058 44.276C121.602 44.012 121.014 43.88 120.294 43.88C119.43 43.88 118.554 44.096 117.666 44.528C116.802 44.936 115.95 45.488 115.11 46.184C114.27 46.856 113.466 47.612 112.698 48.452C111.954 49.292 111.282 50.132 110.682 50.972L105.282 50.36C106.218 48.848 107.274 47.396 108.45 46.004C109.626 44.612 110.886 43.388 112.23 42.332C113.574 41.252 114.966 40.4 116.406 39.776C117.846 39.152 119.31 38.84 120.798 38.84C122.406 38.84 123.774 39.152 124.902 39.776C126.03 40.4 126.894 41.264 127.494 42.368C128.094 43.472 128.394 44.744 128.394 46.184C128.394 47.936 127.89 49.484 126.882 50.828C125.898 52.172 124.302 53.228 122.094 53.996C119.91 54.764 117.006 55.148 113.382 55.148ZM119.754 35.492C119.01 35.492 118.374 35.24 117.846 34.736C117.342 34.232 117.09 33.608 117.09 32.864C117.09 32.12 117.342 31.484 117.846 30.956C118.374 30.428 119.01 30.164 119.754 30.164C120.474 30.164 121.086 30.428 121.59 30.956C122.118 31.484 122.382 32.12 122.382 32.864C122.382 33.608 122.118 34.232 121.59 34.736C121.086 35.24 120.474 35.492 119.754 35.492ZM130.875 54.68L131.235 49.676C133.227 49.676 134.823 49.664 136.023 49.64C137.247 49.616 138.195 49.568 138.867 49.496C139.563 49.4 140.079 49.292 140.415 49.172C140.751 49.028 141.039 48.872 141.279 48.704C141.567 48.488 141.807 48.2 141.999 47.84C142.215 47.456 142.383 46.952 142.503 46.328C142.623 45.704 142.683 44.924 142.683 43.988C142.683 42.812 142.575 41.828 142.359 41.036C142.167 40.22 141.879 39.608 141.495 39.2C141.135 38.792 140.691 38.588 140.163 38.588C139.779 38.588 139.419 38.72 139.083 38.984C138.747 39.224 138.471 39.56 138.255 39.992C138.039 40.424 137.931 40.916 137.931 41.468C137.931 41.78 138.015 42.056 138.183 42.296C138.351 42.536 138.615 42.716 138.975 42.836C139.335 42.956 139.791 43.016 140.343 43.016C140.871 43.016 141.423 42.956 141.999 42.836C142.599 42.692 143.151 42.5 143.655 42.26L143.799 46.544C143.415 46.808 142.971 47.048 142.467 47.264C141.963 47.48 141.423 47.648 140.847 47.768C140.295 47.864 139.731 47.912 139.155 47.912C137.883 47.912 136.779 47.744 135.843 47.408C134.931 47.048 134.223 46.472 133.719 45.68C133.215 44.888 132.963 43.808 132.963 42.44C132.963 41.384 133.143 40.34 133.503 39.308C133.863 38.252 134.379 37.304 135.051 36.464C135.723 35.6 136.515 34.916 137.427 34.412C138.339 33.884 139.347 33.62 140.451 33.62C142.083 33.62 143.427 34.1 144.483 35.06C145.563 35.996 146.355 37.268 146.859 38.876C147.387 40.46 147.651 42.224 147.651 44.168C147.651 45.872 147.399 47.36 146.895 48.632C146.391 49.88 145.791 50.864 145.095 51.584C144.519 52.184 143.859 52.688 143.115 53.096C142.371 53.504 141.459 53.828 140.379 54.068C139.323 54.284 138.015 54.44 136.455 54.536C134.919 54.632 133.059 54.68 130.875 54.68ZM140.379 30.272C139.635 30.272 138.999 30.02 138.471 29.516C137.967 29.012 137.715 28.388 137.715 27.644C137.715 26.9 137.967 26.264 138.471 25.736C138.999 25.208 139.635 24.944 140.379 24.944C141.099 24.944 141.711 25.208 142.215 25.736C142.743 26.264 143.007 26.9 143.007 27.644C143.007 28.388 142.743 29.012 142.215 29.516C141.711 30.02 141.099 30.272 140.379 30.272Z" fill="#0D0C0C"/>
<path d="M66.4206 64.935C82.1948 64.1986 91.1032 64.6201 106.921 64.6201C122.738 64.6201 131.646 64.1986 147.421 64.935C149.765 65.0445 154.42 65.25 153.421 65.25C152.421 65.25 149.765 65.4555 147.421 65.565C131.646 66.3014 122.738 65.8799 106.921 65.8799C91.1032 65.8799 82.1948 66.3014 66.4206 65.565C64.0758 65.4555 62.4206 65.25 60.4206 65.25C58.4206 65.25 64.0758 65.0445 66.4206 64.935Z" fill="url(#paint2_radial_1283_13463)"/>
<path d="M93.9707 79.07C93.624 79.07 93.2674 79.0133 92.9007 78.9C92.5407 78.78 92.2807 78.6633 92.1207 78.55V76.91L92.6107 76.86C92.6507 77.18 92.694 77.45 92.7407 77.67C92.794 77.89 92.8707 78.1133 92.9707 78.34C93.304 78.4933 93.684 78.57 94.1107 78.57C94.484 78.57 94.784 78.4667 95.0107 78.26C95.244 78.0533 95.3607 77.7667 95.3607 77.4C95.3607 77.14 95.294 76.92 95.1607 76.74C95.034 76.56 94.874 76.4167 94.6807 76.31C94.494 76.1967 94.2407 76.0733 93.9207 75.94C93.5607 75.7867 93.264 75.64 93.0307 75.5C92.804 75.3533 92.6107 75.16 92.4507 74.92C92.2907 74.6733 92.2107 74.37 92.2107 74.01C92.2107 73.47 92.3907 73.04 92.7507 72.72C93.1174 72.4 93.624 72.24 94.2707 72.24C94.604 72.24 94.914 72.2967 95.2007 72.41C95.494 72.5233 95.724 72.6767 95.8907 72.87C96.064 73.0633 96.1507 73.2767 96.1507 73.51C96.1507 73.9367 95.984 74.15 95.6507 74.15C95.4974 74.15 95.3774 74.1267 95.2907 74.08C95.2107 74.0333 95.1374 73.9633 95.0707 73.87C95.2107 73.73 95.2807 73.56 95.2807 73.36C95.2807 73.1867 95.1907 73.0433 95.0107 72.93C94.8307 72.81 94.5807 72.75 94.2607 72.75C93.8874 72.75 93.594 72.8367 93.3807 73.01C93.174 73.1833 93.0707 73.4333 93.0707 73.76C93.0707 74 93.1307 74.2 93.2507 74.36C93.3774 74.52 93.5307 74.6533 93.7107 74.76C93.8907 74.86 94.1407 74.9767 94.4607 75.11C94.8474 75.2767 95.1607 75.4333 95.4007 75.58C95.6407 75.7267 95.844 75.9333 96.0107 76.2C96.184 76.46 96.2707 76.79 96.2707 77.19C96.2707 77.7967 96.0607 78.2633 95.6407 78.59C95.2207 78.91 94.664 79.07 93.9707 79.07ZM96.832 78.63C97.2186 78.5833 97.5253 78.4933 97.752 78.36V72.96C97.492 72.8267 97.1653 72.7367 96.772 72.69L96.822 72.33H99.592L99.542 72.69C99.182 72.7367 98.8786 72.8267 98.632 72.96V78.36C98.852 78.4867 99.1753 78.5767 99.602 78.63L99.552 79H96.772L96.832 78.63ZM100.26 78.63C100.653 78.5833 100.953 78.4933 101.16 78.36V72.96C100.913 72.8267 100.593 72.7367 100.2 72.69L100.25 72.33H103.02L102.97 72.69C102.603 72.7367 102.296 72.8267 102.05 72.96V78.42H103.92C104.126 78.1267 104.27 77.75 104.35 77.29C104.403 77.27 104.463 77.26 104.53 77.26C104.596 77.26 104.67 77.27 104.75 77.29L104.66 79H100.2L100.26 78.63ZM104.759 72.96C104.619 72.84 104.415 72.75 104.149 72.69L104.199 72.33H106.619L106.559 72.69C106.212 72.7367 105.925 72.8267 105.699 72.96L107.269 77.47L108.699 72.96C108.432 72.82 108.129 72.73 107.789 72.69L107.839 72.33H110.039L109.979 72.69C109.752 72.73 109.545 72.8167 109.359 72.95L107.399 79H106.919L104.759 72.96ZM110.445 78.63C110.619 78.61 110.795 78.5767 110.975 78.53C111.162 78.4767 111.292 78.42 111.365 78.36V72.96C111.112 72.8267 110.785 72.7367 110.385 72.69L110.435 72.33H114.895L114.975 73.85C114.889 73.8833 114.795 73.9 114.695 73.9C114.662 73.9 114.612 73.8933 114.545 73.88C114.459 73.44 114.319 73.1 114.125 72.86H112.245V75.36L113.375 75.31C113.515 75.3033 113.629 75.24 113.715 75.12C113.802 75 113.875 74.84 113.935 74.64H114.255V76.62H113.935C113.855 76.3333 113.779 76.14 113.705 76.04C113.632 75.94 113.512 75.8867 113.345 75.88L112.245 75.82V78.42H114.375C114.575 78.14 114.719 77.7633 114.805 77.29C114.885 77.2767 114.949 77.27 114.995 77.27C115.029 77.27 115.099 77.2767 115.205 77.29L115.115 79H110.385L110.445 78.63ZM115.846 78.63C116.232 78.5833 116.539 78.4933 116.766 78.36V72.96C116.532 72.8267 116.206 72.7367 115.786 72.69L115.836 72.33H118.406C119.932 72.33 120.696 72.9167 120.696 74.09C120.696 74.53 120.582 74.8867 120.356 75.16C120.136 75.4333 119.789 75.6267 119.316 75.74C119.442 75.82 119.552 75.93 119.646 76.07C119.746 76.21 119.842 76.3867 119.936 76.6L120.726 78.36C120.926 78.4933 121.206 78.58 121.566 78.62L121.506 79H119.996L119.126 76.77C119.012 76.4833 118.912 76.2833 118.826 76.17C118.746 76.0567 118.639 75.9833 118.506 75.95C118.372 75.91 118.152 75.89 117.846 75.89H117.646V78.36C117.746 78.42 117.869 78.4733 118.016 78.52C118.162 78.56 118.362 78.5967 118.616 78.63L118.566 79H115.796L115.846 78.63ZM117.956 75.43C118.582 75.43 119.046 75.32 119.346 75.1C119.646 74.8733 119.796 74.53 119.796 74.07C119.796 73.63 119.676 73.3 119.436 73.08C119.202 72.8533 118.856 72.74 118.396 72.74C118.169 72.74 117.919 72.7633 117.646 72.81V75.43H117.956Z" fill="#0D0C0C"/>
</g>
<defs>
<linearGradient id="paint0_linear_1283_13463" x1="106.5" y1="0" x2="106.5" y2="105" gradientUnits="userSpaceOnUse">
<stop stop-color="#646466"/>
<stop offset="1" stop-color="#EFEFEF"/>
</linearGradient>
<linearGradient id="paint1_linear_1283_13463" x1="255.998" y1="57.7019" x2="68.1491" y2="52.6797" gradientUnits="userSpaceOnUse">
<stop stop-color="#646466"/>
<stop offset="1" stop-color="#EFEFEF"/>
</linearGradient>
<radialGradient id="paint2_radial_1283_13463" cx="0" cy="0" r="1" gradientUnits="userSpaceOnUse" gradientTransform="translate(106.78 65.25) scale(46.7796 0.75)">
<stop stop-color="#E6A600"/>
<stop offset="1" stop-color="#FFFEFC"/>
</radialGradient>
<clipPath id="clip0_1283_13463">
<rect width="213" height="105" rx="8" fill="white"/>
</clipPath>
</defs>
</svg>
