<svg width="213" height="105" viewBox="0 0 213 105" fill="none" xmlns="http://www.w3.org/2000/svg">
<g clip-path="url(#clip0_1283_12719)">
<rect width="213" height="105" rx="4" fill="url(#paint0_linear_1283_12719)"/>
<path d="M-103.327 -5.55862C-112.519 -8.37535 -109.898 -22.6918 -100.308 -22.0046L206.246 -0.0381465C210.118 0.239297 213.232 3.25633 213.632 7.11752L233.213 196.243C234.07 204.523 223.04 208.636 218.186 201.875C189.843 162.399 134.936 89.8335 99.5005 68C68.4514 48.8691 -32.4315 16.1648 -103.327 -5.55862Z" fill="url(#paint1_linear_1283_12719)"/>
<path d="M80.016 54.68C78.312 54.68 76.836 54.464 75.588 54.032C74.364 53.576 73.416 52.856 72.744 51.872C72.072 50.864 71.688 49.52 71.592 47.84L70.944 33.332H76.02L76.632 46.076C76.68 47.06 76.836 47.816 77.1 48.344C77.388 48.848 77.796 49.196 78.324 49.388C78.852 49.556 79.536 49.64 80.376 49.64C81.288 49.64 81.936 49.88 82.32 50.36C82.704 50.816 82.896 51.392 82.896 52.088C82.896 52.832 82.644 53.456 82.14 53.96C81.66 54.44 80.952 54.68 80.016 54.68ZM73.428 51.332C71.82 51.692 70.272 51.86 68.784 51.836C67.296 51.788 65.964 51.524 64.788 51.044C63.612 50.54 62.676 49.82 61.98 48.884C61.308 47.948 60.972 46.76 60.972 45.32C60.972 44.048 61.248 42.896 61.8 41.864C62.376 40.808 63.168 39.884 64.176 39.092C65.208 38.3 66.408 37.628 67.776 37.076C69.144 36.524 70.632 36.104 72.24 35.816L72.744 40.928C71.712 40.976 70.776 41.12 69.936 41.36C69.12 41.576 68.412 41.864 67.812 42.224C67.236 42.584 66.792 42.992 66.48 43.448C66.168 43.88 66.012 44.348 66.012 44.852C66.012 45.26 66.156 45.596 66.444 45.86C66.732 46.124 67.116 46.34 67.596 46.508C68.076 46.652 68.628 46.736 69.252 46.76C69.876 46.784 70.512 46.748 71.16 46.652C71.832 46.556 72.492 46.4 73.14 46.184L73.428 51.332ZM73.536 29.624C72.84 29.624 72.24 29.384 71.736 28.904C71.256 28.4 71.016 27.812 71.016 27.14C71.016 26.444 71.256 25.844 71.736 25.34C72.24 24.836 72.84 24.584 73.536 24.584C74.208 24.584 74.784 24.836 75.264 25.34C75.744 25.844 75.984 26.444 75.984 27.14C75.984 27.812 75.744 28.4 75.264 28.904C74.784 29.384 74.208 29.624 73.536 29.624ZM67.308 29.588C66.612 29.588 66.012 29.348 65.508 28.868C65.028 28.364 64.788 27.776 64.788 27.104C64.788 26.408 65.028 25.808 65.508 25.304C66.012 24.8 66.612 24.548 67.308 24.548C67.98 24.548 68.556 24.8 69.036 25.304C69.516 25.808 69.756 26.408 69.756 27.104C69.756 27.776 69.516 28.364 69.036 28.868C68.556 29.348 67.98 29.588 67.308 29.588ZM98.6519 55.148C96.4199 55.148 94.5599 55.052 93.0719 54.86C91.6079 54.668 90.4199 54.392 89.5079 54.032C88.5959 53.672 87.8759 53.24 87.3479 52.736C86.8199 52.232 86.3879 51.68 86.0519 51.08L87.0599 50.792C86.4599 51.944 85.7759 52.796 85.0079 53.348C84.2399 53.9 83.4359 54.26 82.5959 54.428C81.7559 54.596 80.8919 54.68 80.0039 54.68L80.3639 49.64C81.1079 49.64 81.6959 49.52 82.1279 49.28C82.5599 49.04 82.9079 48.644 83.1719 48.092C83.4599 47.54 83.7239 46.808 83.9639 45.896C84.2039 44.984 84.4919 43.868 84.8279 42.548L89.3999 43.664C89.2319 44.312 89.0879 44.876 88.9679 45.356C88.8719 45.836 88.7879 46.256 88.7159 46.616C88.6679 46.952 88.6439 47.228 88.6439 47.444C88.6439 47.9 88.7519 48.308 88.9679 48.668C89.1839 49.004 89.6039 49.28 90.2279 49.496C90.8519 49.688 91.7639 49.844 92.9639 49.964C94.1879 50.06 95.7839 50.108 97.7519 50.108C99.8399 50.108 101.58 50.036 102.972 49.892C104.364 49.724 105.468 49.496 106.284 49.208C107.124 48.896 107.724 48.524 108.084 48.092C108.444 47.636 108.624 47.12 108.624 46.544C108.624 46.088 108.516 45.668 108.3 45.284C108.108 44.876 107.784 44.54 107.328 44.276C106.872 44.012 106.284 43.88 105.564 43.88C104.7 43.88 103.824 44.096 102.936 44.528C102.072 44.936 101.22 45.488 100.38 46.184C99.5399 46.856 98.7359 47.612 97.9679 48.452C97.2239 49.292 96.5519 50.132 95.9519 50.972L90.5519 50.36C91.4879 48.848 92.5439 47.396 93.7199 46.004C94.8959 44.612 96.1559 43.388 97.4999 42.332C98.8439 41.252 100.236 40.4 101.676 39.776C103.116 39.152 104.58 38.84 106.068 38.84C107.676 38.84 109.044 39.152 110.172 39.776C111.3 40.4 112.164 41.264 112.764 42.368C113.364 43.472 113.664 44.744 113.664 46.184C113.664 47.936 113.16 49.484 112.152 50.828C111.168 52.172 109.572 53.228 107.364 53.996C105.18 54.764 102.276 55.148 98.6519 55.148ZM126.467 54.68C124.235 54.68 122.507 54.452 121.283 53.996C120.083 53.54 119.243 52.832 118.763 51.872C118.283 50.888 118.007 49.652 117.935 48.164L117.179 28.148H122.219L122.975 45.752C123.023 46.856 123.143 47.684 123.335 48.236C123.527 48.788 123.887 49.16 124.415 49.352C124.967 49.544 125.771 49.64 126.827 49.64C127.739 49.64 128.387 49.88 128.771 50.36C129.179 50.816 129.383 51.392 129.383 52.088C129.383 52.832 129.131 53.456 128.627 53.96C128.123 54.44 127.403 54.68 126.467 54.68ZM126.516 54.68L126.876 49.64C128.172 49.64 129.456 49.568 130.728 49.424C132 49.28 133.236 49.064 134.436 48.776C135.636 48.488 136.776 48.116 137.856 47.66C138.96 47.204 139.992 46.652 140.952 46.004C140.232 45.572 139.452 45.2 138.612 44.888C137.772 44.576 136.872 44.348 135.912 44.204C134.976 44.036 133.98 43.952 132.924 43.952C132.54 43.952 132.132 43.964 131.7 43.988C131.292 44.012 130.872 44.06 130.44 44.132C130.008 44.18 129.576 44.252 129.144 44.348L128.424 39.416C129.12 39.224 129.852 39.092 130.62 39.02C131.412 38.924 132.108 38.876 132.708 38.876C134.004 38.876 135.192 39.02 136.272 39.308C137.376 39.596 138.384 39.956 139.296 40.388C140.232 40.82 141.096 41.252 141.888 41.684C142.704 42.116 143.472 42.476 144.192 42.764C144.936 43.052 145.656 43.196 146.352 43.196H147.684L148.26 47.984C147.228 48.032 146.256 48.236 145.344 48.596C144.456 48.932 143.568 49.364 142.68 49.892C141.816 50.396 140.88 50.924 139.872 51.476C138.888 52.028 137.772 52.544 136.524 53.024C135.276 53.504 133.836 53.9 132.204 54.212C130.572 54.524 128.676 54.68 126.516 54.68ZM132.744 35.528C132 35.528 131.364 35.276 130.836 34.772C130.332 34.268 130.08 33.644 130.08 32.9C130.08 32.156 130.332 31.52 130.836 30.992C131.364 30.464 132 30.2 132.744 30.2C133.464 30.2 134.076 30.464 134.58 30.992C135.108 31.52 135.372 32.156 135.372 32.9C135.372 33.644 135.108 34.268 134.58 34.772C134.076 35.276 133.464 35.528 132.744 35.528Z" fill="#E6A600"/>
<path d="M66.6411 64.935C82.4152 64.1986 91.3236 64.6201 107.141 64.6201C122.958 64.6201 131.867 64.1986 147.641 64.935C149.986 65.0445 154.64 65.25 153.641 65.25C152.642 65.25 149.986 65.4555 147.641 65.565C131.867 66.3014 122.958 65.8799 107.141 65.8799C91.3236 65.8799 82.4152 66.3014 66.6411 65.565C64.2962 65.4555 62.6411 65.25 60.6411 65.25C58.6411 65.25 64.2962 65.0445 66.6411 64.935Z" fill="url(#paint2_radial_1283_12719)"/>
<path d="M100.282 72.96C100.142 72.84 99.9385 72.75 99.6718 72.69L99.7218 72.33H102.142L102.082 72.69C101.735 72.7367 101.449 72.8267 101.222 72.96L102.792 77.47L104.222 72.96C103.955 72.82 103.652 72.73 103.312 72.69L103.362 72.33H105.562L105.502 72.69C105.275 72.73 105.069 72.8167 104.882 72.95L102.922 79H102.442L100.282 72.96ZM105.968 78.63C106.355 78.5833 106.662 78.4933 106.888 78.36V72.96C106.628 72.8267 106.302 72.7367 105.908 72.69L105.958 72.33H108.728L108.678 72.69C108.318 72.7367 108.015 72.8267 107.768 72.96V78.36C107.988 78.4867 108.312 78.5767 108.738 78.63L108.688 79H105.908L105.968 78.63ZM109.406 78.63C109.786 78.5833 110.089 78.4933 110.316 78.36V72.96C110.056 72.8267 109.729 72.7367 109.336 72.69L109.386 72.33H111.956C112.709 72.33 113.266 72.49 113.626 72.81C113.993 73.1233 114.176 73.58 114.176 74.18C114.176 74.8733 113.949 75.3633 113.496 75.65C113.043 75.93 112.383 76.07 111.516 76.07H111.196V78.36C111.416 78.4867 111.739 78.5767 112.166 78.63L112.126 79H109.346L109.406 78.63ZM111.516 75.62C112.076 75.62 112.509 75.5033 112.816 75.27C113.123 75.03 113.276 74.66 113.276 74.16C113.276 73.22 112.803 72.75 111.856 72.75C111.649 72.75 111.429 72.77 111.196 72.81V75.62H111.516Z" fill="#E6A600"/>
</g>
<defs>
<linearGradient id="paint0_linear_1283_12719" x1="106.5" y1="0" x2="106.5" y2="105" gradientUnits="userSpaceOnUse">
<stop stop-color="#080808"/>
<stop offset="1" stop-color="#595959"/>
</linearGradient>
<linearGradient id="paint1_linear_1283_12719" x1="218.467" y1="75.6916" x2="30.6709" y2="68.9725" gradientUnits="userSpaceOnUse">
<stop stop-color="#080808"/>
<stop offset="1" stop-color="#595959"/>
</linearGradient>
<radialGradient id="paint2_radial_1283_12719" cx="0" cy="0" r="1" gradientUnits="userSpaceOnUse" gradientTransform="translate(107 65.25) scale(46.7796 0.75)">
<stop stop-color="#E6A600"/>
<stop offset="1" stop-color="#FFFEFC"/>
</radialGradient>
<clipPath id="clip0_1283_12719">
<rect width="213" height="105" rx="4" fill="white"/>
</clipPath>
</defs>
</svg>
