<svg width="20" height="20" viewBox="0 0 20 20" fill="none" xmlns="http://www.w3.org/2000/svg">
<g clip-path="url(#clip0_961_53574)">
<path d="M0.000371744 10.0269C0.00371744 10.023 0.00947947 10.0195 0.0100371 10.0152C0.0139404 9.98883 0.0180296 9.96225 0.0195165 9.93568C0.0215611 9.89831 0.0211894 9.86077 0.0223046 9.82341C0.0236057 9.7788 0.0234199 9.73419 0.0297395 9.68995C0.03197 9.67415 0.0314123 9.65798 0.03197 9.64181C0.0336428 9.60092 0.0334569 9.55984 0.0405201 9.51914C0.042007 9.5104 0.0418212 9.50129 0.0423788 9.49237C0.0468397 9.39423 0.0615236 9.29739 0.081226 9.2013C0.127136 8.97602 0.184013 8.75334 0.24312 8.53141C0.255016 8.48643 0.269143 8.44257 0.2868 8.39963C0.299254 8.36915 0.312079 8.35874 0.348882 8.37509C0.379736 8.38885 0.402227 8.4093 0.419885 8.43736C0.4552 8.4935 0.481594 8.5539 0.504456 8.6158C0.539958 8.71097 0.573972 8.80669 0.608545 8.90223C0.664864 9.05817 0.720997 9.21412 0.777316 9.36988C0.820996 9.49088 0.854081 9.61449 0.878802 9.7407C0.894973 9.82285 0.906683 9.90575 0.918207 9.98865C0.924527 10.0346 0.927872 10.0808 0.932333 10.1269C0.938095 10.1872 0.943486 10.2476 0.949062 10.308C0.949805 10.3169 0.950549 10.3258 0.951106 10.3346C0.953895 10.3844 0.956311 10.4342 0.960586 10.484C0.967649 10.5639 0.969136 10.6442 0.975456 10.7241C0.98066 10.7881 0.983262 10.8522 0.991998 10.9158C0.992928 10.9228 0.993857 10.9299 0.994043 10.9372C0.997203 11.005 1.00891 11.0717 1.01969 11.1386C1.03605 11.2407 1.05947 11.3414 1.08624 11.4412C1.12824 11.5981 1.18084 11.7515 1.24237 11.9016C1.32489 12.1033 1.42099 12.2981 1.52805 12.4877C1.62638 12.6617 1.73251 12.8306 1.84701 12.9946C1.93065 13.1145 2.01968 13.2304 2.11206 13.344C2.28567 13.5574 2.47433 13.7568 2.67451 13.9453C2.77191 14.0369 2.87246 14.1252 2.97562 14.2104C3.09681 14.3102 3.22079 14.4061 3.34867 14.4973C3.49978 14.605 3.6548 14.7066 3.81409 14.8016C3.95498 14.8858 4.09903 14.9641 4.24569 15.0379C4.44977 15.1405 4.65888 15.2314 4.87189 15.3133C5.03824 15.3773 5.20683 15.4347 5.3769 15.488C5.59474 15.5563 5.81537 15.6133 6.03768 15.6644C6.14009 15.688 6.24306 15.7089 6.34641 15.7282C6.44083 15.746 6.536 15.7603 6.63098 15.776C6.68897 15.7854 6.74715 15.7944 6.80514 15.8031C6.83693 15.8079 6.86871 15.812 6.90049 15.8157C6.94287 15.8208 6.98562 15.8248 7.028 15.8295C7.0741 15.8347 7.12001 15.8401 7.16592 15.8455C7.16945 15.8458 7.17298 15.8466 7.17651 15.847C7.23506 15.8516 7.2938 15.8563 7.35235 15.8609C7.3754 15.8628 7.39844 15.865 7.42149 15.867C7.42856 15.8676 7.43562 15.8689 7.44287 15.8691C7.54268 15.8715 7.64212 15.8832 7.74194 15.8834C7.78469 15.8834 7.82744 15.8871 7.87019 15.8892C7.88078 15.8897 7.89156 15.8901 7.90234 15.8901C8.03245 15.8901 8.16275 15.8929 8.29286 15.8892C8.38542 15.8865 8.47836 15.8864 8.57074 15.8787C8.6436 15.8728 8.71702 15.8747 8.78932 15.8633C8.79453 15.8626 8.79992 15.8626 8.80531 15.8622C8.86572 15.8576 8.92631 15.8542 8.98653 15.8481C9.06441 15.8401 9.14229 15.83 9.21999 15.8204C9.28542 15.8124 9.35084 15.8042 9.41608 15.7951C9.46553 15.7882 9.51478 15.7802 9.56385 15.7715C9.63393 15.7592 9.704 15.746 9.77407 15.7328C9.91236 15.707 10.0497 15.6763 10.1863 15.6421C10.4198 15.5838 10.6499 15.5139 10.8765 15.4328C11.0795 15.3603 11.2828 15.2882 11.4858 15.2156C11.5261 15.2012 11.5653 15.1843 11.6038 15.1656C11.8185 15.0609 12.0337 14.9574 12.2486 14.8529C12.303 14.8263 12.3568 14.7981 12.4103 14.7698C12.4876 14.7291 12.5644 14.6875 12.6415 14.6464C12.8114 14.5559 12.9813 14.4654 13.1512 14.3747C13.1668 14.3663 13.1822 14.3572 13.1969 14.3472C13.3871 14.2178 13.577 14.0881 13.767 13.9583C13.7861 13.9451 13.8058 13.9336 13.8278 13.9252C13.846 13.9182 13.864 13.9096 13.88 13.8988C13.914 13.876 13.9476 13.8526 13.9798 13.8269C14.016 13.7979 14.0506 13.7671 14.085 13.736C14.2021 13.6312 14.3129 13.52 14.4211 13.4065C14.5292 13.2929 14.637 13.1788 14.7413 13.0613C14.8158 12.9773 14.8908 12.8935 14.9664 12.8104C15.0075 12.7654 15.0413 12.7152 15.0759 12.6654C15.1967 12.4909 15.3168 12.316 15.4372 12.1414C15.5142 12.0299 15.5917 11.9187 15.6684 11.807C15.6815 11.7881 15.6933 11.7678 15.7036 11.7472C15.8664 11.4199 16.0288 11.0925 16.1913 10.7652C16.2158 10.7158 16.2402 10.6662 16.264 10.6163C16.2731 10.597 16.2814 10.5773 16.2885 10.5572C16.3368 10.4212 16.3852 10.2851 16.4327 10.1489C16.5151 9.91337 16.5971 9.67768 16.6788 9.442C16.7116 9.34776 16.74 9.25204 16.763 9.15483C16.782 9.07509 16.7989 8.99498 16.8127 8.91412C16.8236 8.84907 16.8339 8.78401 16.843 8.71877C16.8491 8.67472 16.8528 8.6303 16.8575 8.58587C16.863 8.53457 16.8686 8.48309 16.8742 8.43179C16.8746 8.42825 16.8749 8.42472 16.8751 8.42119C16.8796 8.34833 16.884 8.27528 16.8887 8.20242C16.8906 8.17212 16.8932 8.14201 16.8952 8.11171C16.8961 8.0974 16.8967 8.08328 16.8972 8.06896C16.9002 7.99238 16.8989 7.91562 16.9065 7.83923C16.909 7.8145 16.908 7.78941 16.9086 7.76432C16.9095 7.71265 16.9099 7.66079 16.9116 7.60912C16.9132 7.55391 16.9166 7.49871 16.9184 7.4435C16.9203 7.38997 16.919 7.33626 16.9236 7.2831C16.9316 7.19221 16.9326 7.10131 16.9292 7.01042C16.9249 6.89611 16.9088 6.78347 16.8692 6.67511C16.8463 6.61266 16.8158 6.55467 16.7805 6.49872C16.7385 6.43236 16.6917 6.36954 16.6426 6.3082C16.5868 6.2385 16.5305 6.16935 16.4757 6.09909C16.413 6.0188 16.3571 5.93404 16.3142 5.84129C16.2742 5.75504 16.2469 5.66545 16.2327 5.57103C16.2227 5.50337 16.2209 5.43572 16.2264 5.36825C16.2359 5.25133 16.2677 5.14074 16.3303 5.04018C16.3998 4.92866 16.4965 4.85059 16.6186 4.80375C16.6822 4.7794 16.7478 4.76342 16.816 4.76007C16.8249 4.7597 16.8339 4.75877 16.8426 4.75728C16.871 4.75264 16.8998 4.75189 16.9279 4.75524C16.9738 4.76063 17.0201 4.76267 17.066 4.77048C17.1705 4.78832 17.2703 4.81974 17.3664 4.86323C17.5138 4.92959 17.6478 5.01658 17.7697 5.12271C17.9517 5.28089 18.0917 5.46973 18.1907 5.68925C18.2283 5.77233 18.2563 5.85876 18.2751 5.94798C18.2909 6.02344 18.2937 6.09984 18.2922 6.17679C18.2911 6.23422 18.2825 6.29036 18.2677 6.34556C18.2372 6.45783 18.1827 6.55708 18.1019 6.64091C18.0482 6.69667 17.9846 6.73942 17.9125 6.7686C17.9026 6.77269 17.8926 6.77622 17.8824 6.77976C17.8694 6.7844 17.8614 6.79221 17.8619 6.80708C17.8623 6.81953 17.8621 6.83199 17.8621 6.84444C17.861 7.02288 17.8632 7.20131 17.858 7.37957C17.8532 7.54722 17.8539 7.71488 17.8472 7.88235C17.8428 7.99108 17.8426 8.09982 17.8363 8.20837C17.8303 8.30818 17.8322 8.40818 17.826 8.50781C17.8195 8.61468 17.8194 8.72175 17.8154 8.82862C17.8141 8.86245 17.8117 8.89628 17.8089 8.92992C17.808 8.94219 17.8047 8.95446 17.8017 8.96654C17.7744 9.07899 17.7469 9.19144 17.7192 9.3039C17.6714 9.49758 17.6234 9.69125 17.5759 9.88512C17.5448 10.0115 17.5149 10.1379 17.4839 10.2643C17.4695 10.3232 17.4498 10.3807 17.4288 10.4375C17.3794 10.5714 17.3255 10.7033 17.2697 10.8346C17.1881 11.0266 17.1043 11.2174 17.0186 11.4076C16.9703 11.5148 16.921 11.6217 16.8722 11.7288C16.8476 11.7823 16.8229 11.8357 16.798 11.889C16.7919 11.9022 16.7876 11.9154 16.79 11.9303C16.7939 11.9539 16.7887 11.9765 16.7801 11.9983C16.7718 12.0199 16.763 12.0414 16.7534 12.0624C16.7194 12.1353 16.6794 12.2048 16.6378 12.2734C16.5415 12.4319 16.4381 12.5858 16.3322 12.7381C16.2335 12.8801 16.1331 13.021 16.0303 13.16C16.0229 13.17 16.0155 13.1801 16.0086 13.1905C16.0047 13.1964 16.0008 13.2027 15.9991 13.2094C15.9915 13.2435 15.9725 13.2715 15.953 13.2992C15.9129 13.3561 15.8681 13.4094 15.8225 13.4619C15.735 13.563 15.6437 13.6607 15.5519 13.7579C15.3266 13.9968 15.0934 14.2276 14.8601 14.4585C14.8461 14.4722 14.8311 14.4849 14.8153 14.4966C14.6692 14.605 14.5231 14.7131 14.3768 14.8211C14.361 14.8328 14.3447 14.8436 14.3277 14.8537C14.1008 14.9884 13.8738 15.123 13.6469 15.2576C13.4291 15.3866 13.211 15.5154 12.9934 15.6445C12.9595 15.6646 12.9244 15.6817 12.8876 15.6955C12.6841 15.7719 12.4806 15.8483 12.2772 15.925C12.0755 16.001 11.8739 16.0774 11.672 16.1536C11.527 16.2085 11.3819 16.2629 11.2369 16.3181C11.2118 16.3278 11.1856 16.3334 11.1596 16.3388C11.0268 16.3657 10.8941 16.3916 10.7614 16.4183C10.6497 16.4408 10.5382 16.4644 10.4265 16.4871C10.3287 16.507 10.2308 16.5261 10.133 16.5458C10.0352 16.5655 9.93764 16.5858 9.83987 16.6055C9.74378 16.6248 9.64787 16.644 9.55177 16.6633C9.49582 16.6745 9.43987 16.6851 9.3843 16.6973C9.36311 16.702 9.34211 16.7035 9.32073 16.7038C9.27965 16.7046 9.23876 16.7049 9.19768 16.7061C9.13356 16.7077 9.06943 16.7079 9.00531 16.7122C8.94304 16.7165 8.88059 16.7152 8.81813 16.7167C8.75215 16.7183 8.68616 16.7163 8.62037 16.7235C8.60791 16.7248 8.59546 16.7245 8.58301 16.7246C8.50624 16.7259 8.42966 16.7269 8.3529 16.7289C8.27799 16.731 8.20327 16.7347 8.12836 16.7367C8.05532 16.7386 7.9819 16.7365 7.90903 16.7412C7.7897 16.7486 7.67019 16.7475 7.55086 16.7509C7.54194 16.751 7.53302 16.7505 7.52409 16.7516C7.45997 16.7594 7.39603 16.7572 7.33209 16.749C7.28971 16.7436 7.24696 16.7401 7.20477 16.7341C7.1412 16.7252 7.07782 16.7155 7.01462 16.7053C6.92317 16.6906 6.83172 16.6756 6.74046 16.66C6.66314 16.6468 6.58618 16.6328 6.50905 16.6189C6.44604 16.6075 6.38284 16.5957 6.31983 16.5839C6.22875 16.567 6.13768 16.5501 6.04678 16.5328C5.96816 16.5178 5.88954 16.502 5.81091 16.4864C5.76723 16.4778 5.72374 16.4683 5.67987 16.4605C5.62894 16.4514 5.57894 16.4386 5.52987 16.4222C5.41147 16.3828 5.29512 16.338 5.17913 16.2919C4.93415 16.1944 4.69085 16.0921 4.44884 15.9875C4.24271 15.8984 4.03732 15.8077 3.83156 15.7178C3.81521 15.7107 3.79904 15.7033 3.78231 15.697C3.72041 15.6735 3.66223 15.6427 3.60499 15.6098C3.48603 15.5412 3.37172 15.465 3.25908 15.3866C3.08938 15.2683 2.92284 15.1457 2.7589 15.0193C2.6615 14.9442 2.5641 14.8691 2.46726 14.7931C2.38455 14.7282 2.30258 14.662 2.22043 14.5964C2.20797 14.5864 2.19608 14.5752 2.18102 14.5693C2.15221 14.5579 2.12916 14.538 2.10704 14.5174C2.04831 14.4626 1.99292 14.4046 1.94032 14.3438C1.784 14.163 1.63642 13.975 1.49106 13.7855C1.34348 13.5929 1.19832 13.3988 1.05612 13.2024C1.04572 13.1881 1.03438 13.1739 1.02192 13.1615C0.956125 13.0953 0.902408 13.02 0.85278 12.9414C0.785309 12.834 0.72806 12.7212 0.673786 12.6067C0.598136 12.4472 0.531779 12.2836 0.470628 12.118C0.451483 12.0661 0.433639 12.0139 0.415052 11.9619C0.409104 11.9449 0.401669 11.9292 0.390703 11.9145C0.369327 11.8858 0.353157 11.8541 0.338844 11.8212C0.306874 11.7474 0.281038 11.6715 0.258362 11.5946C0.206504 11.4186 0.163381 11.2401 0.126393 11.0604C0.103531 10.9487 0.0804825 10.8372 0.0578062 10.7254C0.049256 10.6836 0.0401483 10.6418 0.0336428 10.5996C0.0252786 10.5468 0.0198883 10.4935 0.0200742 10.4399C0.0200742 10.4167 0.0182154 10.3937 0.0128252 10.371C0.0117099 10.3658 0.010223 10.3606 0.00780662 10.3559C0.00631964 10.3531 0.00260221 10.3515 0 10.3492C0.000371744 10.2411 0.000371744 10.134 0.000371744 10.0269ZM17.4277 6.27158C17.4857 6.27214 17.5091 6.27028 17.5493 6.2582C17.6565 6.22604 17.727 6.15727 17.7563 6.04798C17.771 5.99352 17.7697 5.93831 17.7612 5.88367C17.7528 5.83069 17.7348 5.78032 17.7115 5.73181C17.6623 5.62865 17.5905 5.54296 17.5032 5.47066C17.4071 5.39111 17.2985 5.33497 17.1746 5.31323C17.1089 5.3017 17.0432 5.30115 16.9787 5.31992C16.9041 5.34148 16.8433 5.38311 16.8036 5.45133C16.7643 5.51843 16.7534 5.59185 16.7629 5.66787C16.771 5.73367 16.7906 5.79668 16.8212 5.8556C16.9091 6.02474 17.0417 6.14723 17.2158 6.22344C17.2844 6.25355 17.3565 6.27344 17.4277 6.27158Z" fill="#39629C"/>
<path d="M12.4144 19.2308C12.4118 19.2284 12.4096 19.2247 12.4068 19.2239C12.3878 19.2193 12.3687 19.2143 12.3493 19.2113C12.2662 19.1988 12.1861 19.1754 12.107 19.1475C11.9726 19.1001 11.8404 19.047 11.7094 18.9905C11.4441 18.8762 11.1861 18.7466 10.9293 18.615C10.7596 18.528 10.5904 18.4401 10.4205 18.3533C10.2555 18.2691 10.0888 18.1883 9.9198 18.1119C9.68765 18.0068 9.45122 17.9122 9.20773 17.8358C9.08356 17.797 8.95829 17.7624 8.83134 17.7351C8.74268 17.716 8.65346 17.6987 8.56331 17.6871C8.50141 17.6792 8.43989 17.6706 8.37762 17.6658C8.32261 17.6615 8.26777 17.6546 8.21276 17.649C8.19863 17.6476 8.18432 17.6476 8.17 17.6468C8.13971 17.6451 8.10941 17.6448 8.07949 17.6396C8.06369 17.6368 8.04752 17.6373 8.03153 17.6366C7.98878 17.6347 7.94603 17.6344 7.90346 17.6282C7.88599 17.6256 7.86796 17.6264 7.85012 17.6256C7.80737 17.624 7.76462 17.6238 7.72205 17.6176C7.70272 17.6148 7.68283 17.6158 7.66332 17.6148C7.62243 17.6132 7.58135 17.6132 7.54064 17.6069C7.52484 17.6044 7.50867 17.605 7.4925 17.6042C7.45161 17.6024 7.41053 17.6024 7.36983 17.5959C7.35403 17.5933 7.33786 17.594 7.32187 17.5933C7.2899 17.5916 7.25756 17.5918 7.22596 17.5853C7.22243 17.5845 7.2189 17.5844 7.21537 17.5842C7.15849 17.5795 7.10161 17.5758 7.04492 17.5702C6.99883 17.5658 6.95292 17.5593 6.90701 17.5537C6.87169 17.5492 6.83637 17.5451 6.80106 17.5401C6.74474 17.5321 6.68805 17.5247 6.6321 17.5148C6.56723 17.5033 6.50273 17.4899 6.43824 17.4767C6.31612 17.4516 6.1953 17.4215 6.07467 17.3898C5.84215 17.3282 5.61259 17.2574 5.38602 17.1767C5.19457 17.1087 5.00572 17.0344 4.81948 16.9535C4.61335 16.8641 4.41112 16.7667 4.21186 16.6632C3.90964 16.5059 3.61373 16.3379 3.32637 16.155C3.12321 16.0256 2.92489 15.8894 2.73325 15.7437C2.58567 15.6314 2.44218 15.5139 2.30445 15.3896C2.1985 15.2939 2.09646 15.194 1.99887 15.0901C1.8459 14.9273 1.70687 14.7533 1.58828 14.5638C1.56375 14.5245 1.54107 14.484 1.51784 14.4439C1.51431 14.4379 1.51245 14.4309 1.51003 14.4244C1.50966 14.4231 1.51003 14.4204 1.51096 14.4199C1.51393 14.4182 1.51765 14.4154 1.52025 14.4164C1.53196 14.4201 1.54404 14.4238 1.55483 14.4296C1.5894 14.4485 1.62025 14.4729 1.64925 14.4993C1.66635 14.5149 1.68308 14.531 1.69962 14.5472C1.81133 14.6576 1.92843 14.7619 2.04683 14.8649C2.14906 14.9539 2.25389 15.0398 2.36021 15.1238C2.48902 15.2255 2.62061 15.3232 2.75481 15.4177C2.95909 15.5613 3.16894 15.6963 3.38473 15.8219C3.48325 15.8794 3.58343 15.934 3.68324 15.9892C3.79086 16.0487 3.90053 16.1043 4.01131 16.1578C4.2745 16.2851 4.54216 16.4017 4.81576 16.5052C4.98899 16.5706 5.16371 16.632 5.34029 16.6883C5.59995 16.7712 5.86278 16.8425 6.12802 16.9046C6.2546 16.9342 6.38155 16.9621 6.50943 16.9851C6.59697 17.0009 6.68433 17.0184 6.77188 17.0338C6.82801 17.0437 6.88451 17.0511 6.94083 17.0596C7.00236 17.0689 7.06388 17.0788 7.12559 17.0877C7.16444 17.0933 7.20347 17.097 7.24232 17.1018C7.28823 17.1074 7.33414 17.1134 7.38005 17.1191C7.38358 17.1195 7.38711 17.1202 7.39064 17.1206C7.44213 17.1253 7.49362 17.1297 7.54492 17.1346C7.60161 17.1399 7.6583 17.1459 7.71499 17.1515C7.71685 17.1517 7.71852 17.1518 7.72038 17.152C7.77912 17.1561 7.83767 17.1608 7.8964 17.1643C7.94622 17.1673 7.99621 17.1665 8.04584 17.1734C8.05997 17.1754 8.07428 17.1747 8.08859 17.1751C8.15811 17.1777 8.22762 17.1769 8.29696 17.1832C8.3306 17.1864 8.36461 17.1855 8.39863 17.1855C8.54138 17.1857 8.68394 17.186 8.82669 17.1857C8.88543 17.1855 8.94435 17.1855 9.00308 17.1797C9.03487 17.1766 9.06721 17.1777 9.09936 17.1767C9.14918 17.1751 9.19918 17.1758 9.24881 17.1691C9.26999 17.1663 9.29156 17.1671 9.31293 17.1661C9.35029 17.1645 9.38784 17.1648 9.42483 17.1583C9.43877 17.1559 9.45326 17.1563 9.46758 17.1557C9.49955 17.1543 9.5317 17.1543 9.56349 17.1477C9.56702 17.147 9.57055 17.147 9.57408 17.1466C9.63449 17.1418 9.6949 17.1379 9.75531 17.1321C9.80308 17.1277 9.85084 17.1208 9.89861 17.1158C9.93765 17.1117 9.97649 17.1076 10.0153 17.1028C10.0666 17.0964 10.1178 17.0903 10.1689 17.0827C10.2306 17.0734 10.2925 17.0663 10.3542 17.0574C10.4034 17.0504 10.4527 17.0425 10.502 17.0342C10.5546 17.0253 10.6072 17.0158 10.6596 17.0059C10.7611 16.987 10.8627 16.9688 10.9638 16.9481C11.086 16.9232 11.2075 16.8957 11.3285 16.8665C11.4774 16.8306 11.6254 16.7916 11.7728 16.75C11.9493 16.7002 12.1246 16.6461 12.2984 16.5875C12.5365 16.5072 12.7713 16.4184 13.0029 16.3208C13.2575 16.2134 13.5069 16.0948 13.7514 15.9662C13.9739 15.8491 14.191 15.7225 14.4032 15.5877C14.6186 15.4509 14.8276 15.305 15.0302 15.1502C15.135 15.0701 15.238 14.9875 15.3391 14.9026C15.5071 14.7615 15.6694 14.6139 15.8257 14.46C15.916 14.3712 16.0045 14.2807 16.0906 14.1879C16.1986 14.0716 16.3023 13.9515 16.403 13.8288C16.6242 13.5599 16.8262 13.2772 17.014 12.9842C17.1266 12.8086 17.2324 12.6288 17.3333 12.4463C17.4352 12.2621 17.5309 12.0749 17.6221 11.8853C17.7049 11.7134 17.7876 11.5417 17.8692 11.3692C17.9591 11.179 18.0463 10.9878 18.127 10.7933C18.2 10.6171 18.2688 10.4394 18.3257 10.2571C18.3575 10.1549 18.3852 10.0517 18.4037 9.94633C18.4153 9.88127 18.4214 9.81566 18.4186 9.74949C18.4175 9.72068 18.4115 9.6928 18.4041 9.66529C18.3941 9.62811 18.3744 9.59689 18.3435 9.5731C18.311 9.548 18.2812 9.51975 18.253 9.49001C18.1664 9.39875 18.0954 9.29689 18.0471 9.17998C18.021 9.11697 18.0021 9.05191 17.9939 8.98463C17.9839 8.90247 17.9881 8.82087 18.0177 8.74206C18.0584 8.63389 18.1329 8.55935 18.2409 8.51883C18.2742 8.50638 18.3086 8.49746 18.3446 8.49448C18.3712 8.49225 18.3978 8.48686 18.4246 8.48946C18.4777 8.49467 18.5307 8.50043 18.5825 8.51493C18.7011 8.54801 18.8071 8.60545 18.9037 8.68017C19.0034 8.7573 19.0864 8.84987 19.153 8.95693C19.187 9.01158 19.2156 9.06883 19.2372 9.12961C19.2521 9.17161 19.2664 9.21399 19.2658 9.25934C19.2658 9.26678 19.2684 9.2731 19.2745 9.27775C19.2745 9.33128 19.2745 9.38481 19.2745 9.43834C19.2688 9.44336 19.2667 9.44986 19.2658 9.45711C19.2638 9.47477 19.2638 9.49317 19.2586 9.5099C19.2277 9.60785 19.1695 9.68369 19.0753 9.72849C19.0593 9.73611 19.0426 9.7428 19.0262 9.74949C19.0015 9.75971 18.9768 9.76975 18.9519 9.77941C18.9301 9.78778 18.9099 9.79875 18.8905 9.81157C18.8511 9.83778 18.8203 9.87124 18.7998 9.91454C18.7837 9.94856 18.7718 9.98406 18.763 10.0203C18.7487 10.0792 18.7385 10.1389 18.7298 10.1989C18.7212 10.2571 18.7147 10.3155 18.7056 10.3736C18.6998 10.4106 18.693 10.4474 18.6833 10.4835C18.6394 10.6487 18.5933 10.8134 18.5415 10.9764C18.4963 11.1192 18.4485 11.261 18.3978 11.4017C18.319 11.6197 18.2327 11.8346 18.1398 12.0469C18.0589 12.2314 17.9721 12.413 17.8803 12.5924C17.8632 12.6257 17.8448 12.6584 17.8246 12.6898C17.7775 12.7634 17.729 12.8361 17.6811 12.9089C17.6643 12.9342 17.6482 12.9599 17.6309 12.9848C17.6123 13.0117 17.6011 13.0413 17.5963 13.0736C17.5945 13.0859 17.5933 13.0985 17.5911 13.1106C17.5749 13.1946 17.558 13.2783 17.5424 13.3623C17.5158 13.5041 17.4846 13.645 17.4515 13.7853C17.3978 14.0125 17.3366 14.2376 17.266 14.46C17.1779 14.7372 17.0757 15.0087 16.9545 15.2732C16.8259 15.5541 16.6785 15.8247 16.5097 16.0834C16.3623 16.3093 16.2008 16.5241 16.0263 16.7295C15.898 16.8805 15.7644 17.0264 15.6261 17.168C15.5326 17.2637 15.4367 17.3569 15.3391 17.4483C15.248 17.5336 15.1553 17.6173 15.0612 17.6992C14.9456 17.7998 14.8276 17.8977 14.7077 17.9935C14.5322 18.1338 14.3527 18.2687 14.1703 18.4C14.0545 18.4832 13.9393 18.5671 13.8239 18.6509C13.7071 18.7358 13.5902 18.8208 13.4688 18.899C13.3594 18.9697 13.2471 19.0353 13.1283 19.0892C13.0029 19.1461 12.8737 19.1907 12.7371 19.2113C12.7177 19.2143 12.6988 19.2193 12.6796 19.2239C12.6767 19.2247 12.6744 19.2284 12.6718 19.2308C12.5856 19.2308 12.5001 19.2308 12.4144 19.2308ZM18.5355 8.8376C18.4878 8.83742 18.4666 8.84039 18.437 8.85303C18.3889 8.87385 18.3536 8.90823 18.3359 8.95768C18.3214 8.99857 18.3188 9.04076 18.3281 9.08407C18.3404 9.14076 18.3636 9.19206 18.397 9.23927C18.4379 9.29689 18.4891 9.34355 18.5495 9.37942C18.6166 9.41938 18.6881 9.44373 18.7679 9.43871C18.795 9.43704 18.8206 9.43072 18.8452 9.41957C18.8822 9.40284 18.9108 9.37626 18.929 9.3402C18.9506 9.29782 18.9575 9.2521 18.9493 9.20488C18.9405 9.15526 18.9233 9.10879 18.8969 9.06567C18.8389 8.97143 18.7582 8.90377 18.6562 8.86195C18.6164 8.84559 18.5747 8.83574 18.5355 8.8376Z" fill="#39629C"/>
<path d="M16.6844 0.769287C16.6902 0.777651 16.6991 0.778023 16.708 0.779324C16.734 0.783227 16.7545 0.796424 16.7707 0.81687C16.7809 0.829695 16.7868 0.844565 16.7909 0.860178C16.8013 0.900327 16.8028 0.940847 16.7972 0.98211C16.7859 1.06575 16.7602 1.14531 16.7298 1.22337C16.6926 1.31817 16.6472 1.40906 16.5976 1.4979C16.5322 1.61482 16.4612 1.72801 16.3781 1.83322C16.3582 1.85831 16.337 1.88266 16.3149 1.90571C16.2069 2.01853 16.0833 2.11184 15.9511 2.19418C15.8132 2.28024 15.6679 2.35199 15.5197 2.41853C15.3409 2.49882 15.1577 2.56853 14.9764 2.64288C14.8149 2.70923 14.6538 2.77615 14.4928 2.84399C14.3549 2.90198 14.2173 2.96109 14.0802 3.02075C13.9805 3.06406 13.8811 3.10811 13.7822 3.15328C13.5941 3.23915 13.4062 3.32503 13.2188 3.41238C12.8231 3.59714 12.4318 3.79101 12.0436 3.99082C11.8058 4.11312 11.5696 4.2384 11.3348 4.36628C11.1172 4.48468 10.9008 4.60531 10.6858 4.72836C10.4321 4.87352 10.1798 5.02148 9.92964 5.17278C9.67946 5.32408 9.43094 5.47798 9.18448 5.63541C8.86143 5.84173 8.54155 6.05307 8.22519 6.26961C8.00308 6.42184 7.78226 6.57574 7.56386 6.73336C7.31517 6.91291 7.06981 7.09692 6.83004 7.28819C6.68357 7.40491 6.53896 7.52387 6.39733 7.64617C6.29473 7.73465 6.1925 7.82387 6.0938 7.9168C6.01852 7.98781 5.9438 8.05918 5.86852 8.13018C5.75291 8.23911 5.64381 8.35435 5.53544 8.47033C5.38935 8.62683 5.24976 8.78891 5.11686 8.95676C4.97838 9.13166 4.84753 9.31196 4.72634 9.49932C4.63824 9.63556 4.55534 9.77515 4.4782 9.9179C4.36687 10.1235 4.26873 10.3352 4.18415 10.5532C4.13583 10.6779 4.09122 10.8038 4.05609 10.9329C4.03174 11.0224 4.01259 11.1129 4.00033 11.2049C3.98694 11.3045 3.98583 11.4043 3.99364 11.5038C4.00088 11.5963 4.02077 11.687 4.05869 11.7727C4.08862 11.8402 4.12858 11.901 4.17932 11.9545C4.22988 12.0078 4.28731 12.053 4.34772 12.0943C4.39921 12.1294 4.45125 12.164 4.5033 12.1984C4.55553 12.2327 4.6059 12.2694 4.65608 12.3065C4.75757 12.3816 4.80645 12.4846 4.81742 12.6077C4.82188 12.6575 4.82095 12.7077 4.81482 12.7573C4.80998 12.7961 4.80218 12.8348 4.79288 12.8727C4.76779 12.9731 4.73731 13.0718 4.69809 13.1677C4.66408 13.2504 4.623 13.3294 4.56798 13.4004C4.5046 13.482 4.42727 13.5463 4.33192 13.5883C4.27393 13.6138 4.21334 13.6283 4.1507 13.6292C4.09717 13.6299 4.04438 13.6197 3.99456 13.5978C3.93341 13.5708 3.88025 13.5324 3.83174 13.487C3.78732 13.4454 3.74791 13.3993 3.71185 13.3506C3.62821 13.2379 3.56632 13.114 3.52319 12.9805C3.49791 12.9024 3.47896 12.8229 3.46594 12.7417C3.45293 12.6604 3.44438 12.5792 3.44494 12.4969C3.44531 12.4363 3.44476 12.3755 3.4481 12.3151C3.45089 12.2617 3.45814 12.2088 3.46409 12.1556C3.4678 12.1238 3.47338 12.0922 3.47728 12.0603C3.48732 11.9807 3.50331 11.9021 3.51725 11.8231C3.53342 11.7318 3.54884 11.6406 3.56557 11.5495C3.5797 11.4723 3.59401 11.3954 3.61 11.3186C3.63713 11.1896 3.66799 11.0614 3.70237 10.9342C3.75126 10.7536 3.80646 10.575 3.8691 10.3984C3.91092 10.2807 3.95423 10.1638 4.002 10.0486C4.03824 9.96139 4.07468 9.87422 4.11315 9.78798C4.18787 9.62013 4.26928 9.45564 4.35478 9.293C4.45701 9.09895 4.56686 8.90917 4.68322 8.72312C4.77969 8.56884 4.8808 8.41773 4.98582 8.26922C5.10441 8.10175 5.22838 7.93855 5.35682 7.7787C5.46295 7.64655 5.57299 7.51792 5.68488 7.3906C5.72131 7.34915 5.75867 7.30826 5.79603 7.26755C5.98284 7.06365 6.17744 6.86719 6.37726 6.67611C6.51517 6.54433 6.65662 6.41607 6.8003 6.29043C6.92651 6.18002 7.0542 6.07147 7.18431 5.96571C7.30606 5.86664 7.42929 5.76961 7.55308 5.67314C7.72892 5.53616 7.9081 5.40363 8.08969 5.27445C8.22482 5.17835 8.36125 5.08412 8.49768 4.98988C8.67798 4.86516 8.86162 4.74509 9.046 4.62631C9.32017 4.44955 9.59693 4.27669 9.87685 4.10903C10.0711 3.99268 10.2653 3.87632 10.4605 3.76164C10.6341 3.65959 10.8088 3.55922 10.9837 3.45922C11.1354 3.37242 11.2876 3.28674 11.4398 3.20123C11.5378 3.14622 11.6359 3.09176 11.7348 3.03841C11.9356 2.92986 12.1361 2.82131 12.3376 2.71425C12.7562 2.49176 13.1792 2.27764 13.6058 2.07058C13.819 1.96723 14.0333 1.86575 14.2482 1.76575C14.429 1.68155 14.6112 1.59995 14.7935 1.51872C14.9872 1.43248 15.1818 1.34846 15.3774 1.26631C15.5746 1.1836 15.7721 1.102 15.9708 1.02319C16.0123 1.00683 16.0526 0.987872 16.0928 0.968728C16.1716 0.930996 16.2506 0.894193 16.3314 0.860922C16.4023 0.83174 16.4742 0.805532 16.5489 0.787874C16.5699 0.782856 16.5909 0.780625 16.6121 0.778395C16.6194 0.777651 16.6259 0.775421 16.6309 0.769659C16.6487 0.769287 16.6666 0.769287 16.6844 0.769287Z" fill="#39629C"/>
<path d="M13.7363 8.44691C13.774 8.44523 13.8153 8.44542 13.856 8.44115C13.9038 8.43613 13.9512 8.42776 13.9982 8.41717C14.122 8.38892 14.2408 8.34617 14.3554 8.29208C14.4506 8.2471 14.5424 8.19579 14.6313 8.13948C14.711 8.08892 14.7902 8.03725 14.8703 7.98706C14.9489 7.9378 15.0296 7.89245 15.1157 7.85714C15.195 7.82461 15.2768 7.80082 15.3621 7.78874C15.4203 7.78056 15.4787 7.77368 15.537 7.76755C15.6008 7.76085 15.6643 7.75342 15.727 7.73892C15.7463 7.73446 15.7647 7.72833 15.782 7.71903C15.8054 7.70621 15.8292 7.69375 15.8513 7.67888C15.909 7.63985 15.9656 7.59989 16.0225 7.55974C16.0939 7.50937 16.1653 7.45918 16.2413 7.41569C16.2738 7.3971 16.3078 7.3813 16.3431 7.36904C16.3707 7.35937 16.3989 7.35807 16.4275 7.36142C16.4385 7.36272 16.4478 7.36774 16.4563 7.37461C16.4785 7.39264 16.4887 7.41718 16.4911 7.4445C16.4939 7.4748 16.4931 7.50491 16.4866 7.53502C16.4749 7.58929 16.4567 7.64134 16.4339 7.69171C16.3978 7.77145 16.3562 7.84821 16.3099 7.92238C16.2013 8.09672 16.0814 8.26308 15.9484 8.4194C15.8777 8.50248 15.7997 8.57813 15.7101 8.64114C15.6396 8.69077 15.5645 8.73073 15.4814 8.7549C15.4472 8.76493 15.4123 8.77107 15.377 8.77646C15.322 8.78482 15.267 8.78501 15.2116 8.78538C15.167 8.78575 15.1223 8.78575 15.0777 8.7865C15.0313 8.78724 14.9857 8.79486 14.94 8.80304C14.8701 8.81549 14.808 8.84523 14.7495 8.88371C14.6911 8.922 14.6387 8.96772 14.5874 9.01475C14.5021 9.09318 14.421 9.17608 14.3396 9.2588C14.2521 9.34783 14.1651 9.43723 14.0755 9.52441C13.9757 9.62143 13.8694 9.71121 13.7521 9.78704C13.6664 9.84243 13.5764 9.8889 13.4798 9.92217C13.3969 9.95061 13.3123 9.97124 13.2244 9.97533C13.1978 9.97663 13.1711 9.98109 13.1445 9.98072C13.0857 9.98035 13.0272 9.9744 12.969 9.96548C12.8963 9.95451 12.8261 9.93574 12.7577 9.90991C12.566 9.8376 12.4073 9.72125 12.2852 9.55582C12.2181 9.46474 12.1653 9.36604 12.1252 9.26065C12.083 9.15025 12.0545 9.03668 12.0378 8.91958C12.0255 8.83296 12.0174 8.74616 12.0179 8.65862C12.0181 8.60694 12.0183 8.55509 12.0196 8.50341C12.0203 8.47683 12.0235 8.45007 12.0255 8.42349C12.0263 8.41457 12.0272 8.40564 12.0276 8.39691C12.0305 8.32925 12.0387 8.26197 12.0484 8.19487C12.0607 8.11029 12.0714 8.02535 12.0848 7.94096C12.0962 7.86885 12.1097 7.7971 12.1227 7.72517C12.1372 7.6445 12.1516 7.56383 12.1672 7.48353C12.1884 7.37517 12.2101 7.26699 12.2326 7.15882C12.2638 7.00882 12.2988 6.85975 12.3352 6.71086C12.3878 6.49637 12.4452 6.28299 12.5064 6.07072C12.5887 5.78466 12.6804 5.50158 12.7783 5.22073C12.8118 5.12482 12.8473 5.02965 12.8798 4.93337C12.9082 4.84899 12.933 4.7633 12.9608 4.67873C12.982 4.61442 13.0049 4.55066 13.0283 4.48728C13.0512 4.42538 13.0798 4.3659 13.1118 4.3081C13.1352 4.26591 13.1616 4.22576 13.1943 4.19007C13.2002 4.18356 13.2071 4.17743 13.2146 4.17297C13.2181 4.17092 13.225 4.17204 13.2292 4.1739C13.2339 4.17594 13.2378 4.1804 13.2409 4.18449C13.2612 4.21033 13.2737 4.23951 13.2798 4.27148C13.2835 4.29081 13.2876 4.31014 13.2887 4.32966C13.2928 4.40791 13.3064 4.48579 13.2949 4.56442C13.2934 4.57501 13.2935 4.58579 13.2934 4.59639C13.2911 4.67315 13.2792 4.74899 13.2646 4.82408C13.2374 4.96404 13.2028 5.10233 13.1694 5.2408C13.119 5.45028 13.067 5.65957 13.0172 5.86924C12.9789 6.03039 12.9423 6.19191 12.9094 6.35436C12.8885 6.45734 12.8701 6.56087 12.8521 6.6644C12.8378 6.74692 12.825 6.82964 12.8129 6.91235C12.8064 6.9564 12.8047 7.0012 12.7975 7.04506C12.7863 7.11216 12.7867 7.18019 12.7817 7.24748C12.7757 7.32554 12.7752 7.40417 12.7841 7.4826C12.7856 7.49506 12.7859 7.50751 12.7867 7.51996C12.7965 7.66327 12.8257 7.80212 12.8839 7.93409C12.9638 8.11531 13.0898 8.25323 13.2675 8.34263C13.359 8.38854 13.4554 8.41791 13.5566 8.43427C13.6157 8.44375 13.6742 8.44412 13.7363 8.44691Z" fill="#39629C"/>
<path d="M7.34901 15.4203C7.29901 15.4194 7.24901 15.4203 7.19957 15.412C7.19083 15.4105 7.18173 15.4107 7.1728 15.4103C7.10868 15.4075 7.04511 15.3993 6.98135 15.3912C6.94957 15.3871 6.9176 15.3837 6.88582 15.3796C6.81686 15.3709 6.74846 15.3586 6.67987 15.3477C6.58136 15.3319 6.48359 15.3118 6.38638 15.2902C6.20906 15.2508 6.03359 15.2034 5.85999 15.1497C5.58917 15.0659 5.32356 14.9681 5.06204 14.8586C4.82022 14.7575 4.58193 14.6492 4.34736 14.5322C4.13324 14.4256 3.92599 14.307 3.73027 14.1694C3.62228 14.0936 3.51763 14.0133 3.41596 13.9289C3.23176 13.7761 3.05964 13.6105 2.89571 13.4363C2.79794 13.3324 2.70351 13.2254 2.61169 13.1163C2.48865 12.9704 2.37062 12.8205 2.25482 12.6689C2.18344 12.5752 2.11597 12.4789 2.05668 12.3771C1.99646 12.2735 1.94497 12.1661 1.90259 12.054C1.86709 11.9605 1.83791 11.8652 1.81579 11.7678C1.81114 11.747 1.80668 11.7259 1.80241 11.7051C1.80203 11.7029 1.80445 11.7001 1.80557 11.6975C1.80724 11.6983 1.80928 11.6984 1.81021 11.6997C1.81969 11.7126 1.82954 11.7252 1.83847 11.7386C1.95315 11.9107 2.06802 12.0828 2.18214 12.2551C2.2669 12.383 2.35203 12.5105 2.43456 12.6397C2.49236 12.7302 2.55891 12.8137 2.62749 12.8958C2.76838 13.0644 2.92284 13.2204 3.08306 13.3702C3.18474 13.4652 3.28938 13.5568 3.39551 13.6466C3.51392 13.7467 3.63529 13.8432 3.76038 13.9352C3.93287 14.062 4.11168 14.1795 4.29551 14.2889C4.44569 14.3783 4.59904 14.462 4.75573 14.5391C4.99717 14.6583 5.2442 14.7646 5.49735 14.8566C5.62635 14.9034 5.75627 14.9475 5.88713 14.988C6.0572 15.0408 6.22932 15.0869 6.40255 15.1278C6.52207 15.156 6.64232 15.1813 6.76314 15.2044C6.8453 15.2202 6.92782 15.2341 7.01054 15.2473C7.07206 15.2571 7.13433 15.2631 7.19566 15.2731C7.24845 15.2819 7.30198 15.2848 7.35477 15.2923C7.38154 15.296 7.40719 15.3021 7.43209 15.3125C7.45905 15.3237 7.48191 15.3404 7.49975 15.3635C7.50514 15.3703 7.50886 15.3787 7.51183 15.3869C7.51592 15.3978 7.50756 15.414 7.49678 15.4177C7.47447 15.4254 7.4518 15.4276 7.42838 15.4257C7.40235 15.4237 7.37559 15.4222 7.34901 15.4203Z" fill="#39629C"/>
<path d="M7.29788 3.7456C7.29323 3.43501 7.54564 3.14783 7.89545 3.14746C8.22891 3.14709 8.49508 3.41289 8.49471 3.74485C8.49452 4.10823 8.19638 4.34745 7.8936 4.34578C7.55958 4.34392 7.29137 4.06585 7.29788 3.7456Z" fill="#39629C"/>
<path d="M15.6259 9.91123C15.4452 9.9155 15.2926 9.76067 15.2945 9.57815C15.2965 9.37833 15.4623 9.24172 15.6333 9.24544C15.8038 9.24897 15.959 9.38019 15.9631 9.58279C15.9556 9.78967 15.7872 9.91885 15.6259 9.91123Z" fill="#39629C"/>
<path d="M14.354 7.05437C14.3593 7.20177 14.2538 7.34415 14.0965 7.37835C14.0006 7.39916 13.909 7.38374 13.8274 7.32444C13.7499 7.26812 13.704 7.19173 13.6911 7.09768C13.6779 7.00121 13.7041 6.91422 13.7666 6.83913C13.8188 6.77668 13.8857 6.73783 13.9659 6.72426C14.0497 6.71014 14.129 6.72575 14.201 6.77166C14.2748 6.81869 14.3218 6.8856 14.3452 6.96961C14.3532 6.99749 14.3532 7.02593 14.354 7.05437Z" fill="#39629C"/>
</g>
<defs>
<clipPath id="clip0_961_53574">
<rect width="20" height="20" fill="white"/>
</clipPath>
</defs>
</svg>
