<svg width="20" height="20" viewBox="0 0 20 20" fill="none" xmlns="http://www.w3.org/2000/svg">
<path d="M18.3333 20C12.75 20 7.16667 20 1.58333 20C1.58333 20 1.5 20 1.5 19.9167C0.833333 19.75 0.333333 19.3333 0.0833333 18.6667C0.0833333 18.5833 0 18.5 0 18.3333C0 12.8333 0 7.16667 0 1.58333C0 1.58333 0 1.5 0.0833333 1.5C0.25 0.916667 0.5 0.5 1.08333 0.25C1.16667 0.0833333 1.41667 0.0833333 1.58333 0C5.91667 0 10.25 0 14.6667 0C15.75 0.25 16.25 0.916667 16.25 2C16.25 4.33333 16.25 6.75 16.25 9.08333C16.25 9.16667 16.25 9.25 16.25 9.33333C16.9167 9.33333 17.5 9.33333 18.1667 9.33333C19 9.33333 19.6667 9.83333 19.9167 10.5833C19.9167 10.6667 20 10.75 20 10.9167C20 11.3333 20 11.6667 20 12.0833V12.1667C19.8333 12.8333 19.4167 13.3333 18.75 13.5833C18.75 13.5833 18.6667 13.5833 18.6667 13.6667C18.8333 14.3333 18.8333 15 18.6667 15.6667C18.75 15.6667 18.75 15.6667 18.8333 15.75C19.4167 16 19.75 16.3333 19.9167 16.9167C19.9167 17 20 17.0833 20 17.25C20 17.6667 20 18 20 18.4167C20 18.4167 20 18.5 19.9167 18.5C19.8333 19 19.5833 19.3333 19.1667 19.5833C18.9167 19.8333 18.6667 19.9167 18.3333 20ZM12.5833 18.75C12.5 18.0833 12.4167 17.4167 12.5833 16.75C12.5 16.75 12.4167 16.75 12.25 16.75C12.1667 16.75 12.0833 16.8333 12 16.8333C11.6667 16.8333 11.4167 16.8333 11.0833 16.8333C10.8333 16.8333 10.5833 16.5833 10.5 16.25C10.5 15.9167 10.6667 15.6667 10.9167 15.5833C11 15.5833 11.0833 15.5833 11.1667 15.5C11.1667 15.0833 11.0833 14.6667 11.0833 14.25H11C10.6667 14.1667 10.5 13.9167 10.5 13.5833C10.5 13.25 10.8333 13 11.1667 13C11.25 13 11.4167 13 11.5 13C11.5833 13 11.5833 13 11.6667 13C11.9167 12.8333 12.25 12.5833 12.5 12.4167C12.5 12.25 12.4167 12 12.4167 11.75C12 11.75 11.6667 11.75 11.25 11.75C10.8333 11.75 10.5833 11.5 10.5833 11.1667C10.5833 10.8333 10.8333 10.5833 11.25 10.5C11.6667 10.5 12 10.5 12.4167 10.5C12.5 10.5 12.5833 10.5 12.6667 10.3333C12.9167 9.75 13.4167 9.33333 14.0833 9.25C14.3333 9.25 14.6667 9.25 15 9.25C15 9.16667 15 9.08333 15 9C15 6.58333 15 4.25 15 1.83333C15 1.25 14.75 1.08333 14.25 1.08333C10.1667 1.08333 6.08333 1.08333 2.08333 1.08333C1.5 1.08333 1.33333 1.33333 1.33333 1.83333C1.33333 7.16667 1.33333 12.5 1.33333 17.8333C1.33333 18.3333 1.58333 18.5833 2.08333 18.5833C5.5 18.5833 9 18.5833 12.4167 18.5833C12.4167 18.75 12.5 18.75 12.5833 18.75ZM16.25 10.6667C15.6667 10.6667 15 10.6667 14.4167 10.6667C14.0833 10.6667 13.75 10.9167 13.75 11.3333C13.75 11.5 13.75 11.75 13.75 11.9167C13.75 12.25 14 12.5833 14.4167 12.5833C15.6667 12.5833 16.9167 12.5833 18.1667 12.5833C18.5 12.5833 18.8333 12.3333 18.8333 11.9167C18.8333 11.75 18.8333 11.5 18.8333 11.3333C18.8333 10.9167 18.5833 10.6667 18.1667 10.6667C17.5 10.5833 16.8333 10.6667 16.25 10.6667ZM16.25 16.9167C15.6667 16.9167 15 16.9167 14.4167 16.9167C14.0833 16.9167 13.75 17.1667 13.75 17.5833C13.75 17.75 13.75 18 13.75 18.1667C13.75 18.5 14 18.75 14.3333 18.8333C15.5833 18.8333 16.8333 18.8333 18.0833 18.8333C18.4167 18.8333 18.6667 18.5833 18.6667 18.25C18.6667 18.0833 18.6667 17.8333 18.6667 17.6667C18.6667 17.25 18.4167 17 18 17C17.5 16.8333 16.8333 16.9167 16.25 16.9167ZM15 15.5833C15.5833 15.5833 16.25 15.5833 16.8333 15.5833C17.25 15.5833 17.5 15.3333 17.5 14.9167C17.5 14.75 17.5 14.5 17.5 14.3333C17.5 14 17.25 13.6667 16.8333 13.6667C15.5833 13.6667 14.3333 13.6667 13.0833 13.6667C12.75 13.6667 12.4167 13.9167 12.4167 14.3333C12.4167 14.5 12.4167 14.75 12.4167 14.9167C12.4167 15.3333 12.6667 15.5833 13.0833 15.5833C13.75 15.6667 14.4167 15.5833 15 15.5833Z" fill="#39629C"/>
<path d="M8.16671 9.33325C6.75004 9.33325 5.33337 9.33325 3.91671 9.33325C3.08337 9.33325 2.58337 8.83325 2.58337 7.99992C2.58337 6.83325 2.58337 5.58325 2.58337 4.41659C2.58337 3.58325 3.08337 3.08325 3.91671 3.08325C6.75004 3.08325 9.66671 3.08325 12.5 3.08325C13.3334 3.08325 13.8334 3.58325 13.8334 4.41659C13.8334 5.58325 13.8334 6.83325 13.8334 7.99992C13.8334 8.74992 13.3334 9.33325 12.5 9.33325C11 9.41659 9.58337 9.33325 8.16671 9.33325ZM12.5 8.08325C12.5 6.83325 12.5 5.58325 12.5 4.33325C9.58337 4.33325 6.66671 4.33325 3.75004 4.33325C3.75004 5.58325 3.75004 6.83325 3.75004 8.08325C6.66671 8.08325 9.58337 8.08325 12.5 8.08325Z" fill="#39629C"/>
<path d="M4.33329 11.8334C4.16663 11.8334 3.91663 11.8334 3.74996 11.8334C3.41663 11.8334 3.16663 11.5834 3.16663 11.2501C3.16663 10.9167 3.41663 10.6667 3.74996 10.6667C4.16663 10.6667 4.58329 10.6667 4.99996 10.6667C5.33329 10.6667 5.58329 10.9167 5.58329 11.2501C5.58329 11.5834 5.33329 11.8334 4.99996 11.9167C4.83329 11.9167 4.58329 11.8334 4.33329 11.8334Z" fill="#39629C"/>
<path d="M8.16663 10.6667C8.33329 10.6667 8.58329 10.6667 8.74996 10.6667C9.08329 10.6667 9.33329 10.9167 9.33329 11.3333C9.33329 11.6667 9.08329 11.9167 8.74996 11.9167C8.33329 11.9167 7.91663 11.9167 7.49996 11.9167C7.16663 11.9167 6.91663 11.6667 6.91663 11.3333C6.91663 11 7.16663 10.75 7.49996 10.6667C7.66663 10.5833 7.91663 10.6667 8.16663 10.6667Z" fill="#39629C"/>
<path d="M4.41663 14.3333C4.24996 14.3333 3.99996 14.3333 3.83329 14.3333C3.49996 14.3333 3.16663 14.0833 3.16663 13.6666C3.16663 13.3333 3.41663 13.0833 3.83329 13.0833C4.24996 13.0833 4.66663 13.0833 5.08329 13.0833C5.41663 13.0833 5.66663 13.3333 5.66663 13.6666C5.66663 13.9999 5.41663 14.2499 5.08329 14.3333C4.83329 14.4166 4.58329 14.3333 4.41663 14.3333Z" fill="#39629C"/>
<path d="M8.16663 13.1667C8.33329 13.1667 8.58329 13.1667 8.74996 13.1667C9.08329 13.1667 9.33329 13.4167 9.33329 13.8333C9.33329 14.1667 9.08329 14.4167 8.74996 14.4167C8.33329 14.4167 7.91663 14.4167 7.49996 14.4167C7.16663 14.4167 6.91663 14.1667 6.91663 13.8333C6.91663 13.5 7.16663 13.25 7.49996 13.1667C7.66663 13.0833 7.91663 13.1667 8.16663 13.1667Z" fill="#39629C"/>
<path d="M4.33337 16.8333C4.16671 16.8333 3.91671 16.8333 3.75004 16.8333C3.41671 16.8333 3.08337 16.5833 3.08337 16.1666C3.08337 15.8333 3.33337 15.5833 3.75004 15.5833C4.16671 15.5833 4.58337 15.5833 5.00004 15.5833C5.33337 15.5833 5.66671 15.8333 5.66671 16.1666C5.66671 16.4999 5.41671 16.7499 5.00004 16.8333C4.75004 16.9166 4.58337 16.8333 4.33337 16.8333Z" fill="#39629C"/>
<path d="M8.16663 16.8333C7.99996 16.8333 7.74996 16.8333 7.58329 16.8333C7.24996 16.8333 6.99996 16.5833 6.91663 16.2499C6.91663 15.9166 7.16663 15.5833 7.58329 15.5833C7.99996 15.5833 8.41663 15.5833 8.83329 15.5833C9.16663 15.5833 9.49996 15.8333 9.49996 16.2499C9.49996 16.5833 9.24996 16.8333 8.83329 16.8333C8.49996 16.9166 8.33329 16.8333 8.16663 16.8333Z" fill="#39629C"/>
</svg>
