<svg width="997" height="270" viewBox="0 0 997 270" fill="none" xmlns="http://www.w3.org/2000/svg">
<g clip-path="url(#clip0_1291_9861)">
<path d="M969.003 140.326C969.712 138.692 973.4 133.363 977.94 127.182C977.727 127.04 977.443 126.969 977.23 126.827L967.584 139.473L952.618 115.033C951.909 114.678 951.128 114.323 950.419 114.039L966.591 139.758L912.117 143.665L933.892 106.65C933.538 106.508 933.183 106.366 932.757 106.152L911.549 142.386L892.54 103.524L918.713 99.2609C918.217 98.9767 917.791 98.6214 917.366 98.3373L893.108 102.671L901.619 60.4693L924.955 82.0675C925.523 81.9965 926.09 81.9254 926.657 81.8544L902.683 59.9009L931.41 57.6985C931.126 57.6274 930.913 57.5564 930.63 57.4854C924.246 58.0537 918.217 58.48 913.536 58.48C909.28 58.48 906.513 58.1248 905.095 57.4143L904.244 56.988L909.847 52.0148C909.634 51.9437 909.351 51.8727 909.067 51.8016L902.116 58.1958L901.406 49.8123C901.052 49.7413 900.697 49.5992 900.343 49.5281L900.91 57.9116L899.988 57.6985C893.817 55.9934 888.143 52.8673 882.681 49.8833C881.05 48.9597 879.418 48.1072 877.787 47.2546C876.014 46.331 873.744 45.4784 871.332 44.4838C867.005 42.7787 862.253 40.9315 859.132 38.4448C856.295 37.6633 853.529 36.9528 850.833 36.1713L805.084 54.6435L786.642 20.1858C786.004 20.0437 785.436 19.9727 784.798 19.8306L803.807 54.5724L730.182 49.386L729.614 50.2386L803.24 55.5671L755.22 97.2005L727.345 53.5067L726.281 54.9987L753.943 101.534L696.206 112.547L714.719 70.4869C714.364 70.4869 713.868 70.558 713.23 70.629L694.717 112.547L664.785 74.4655C664.217 74.5366 663.721 74.5366 663.153 74.6076L694.079 112.76L630.525 123.701L650.173 75.6023C649.676 75.6733 649.109 75.6733 648.612 75.7444L629.532 122.848L576.548 90.4511L610.452 78.6573C608.182 78.7994 605.913 79.0125 603.643 79.1546L573.711 89.3143L577.257 81.0729C576.761 81.1439 576.264 81.1439 575.838 81.1439L572.505 88.6749L569.171 81.5702C568.745 81.5702 568.391 81.6413 567.965 81.6413L571.583 89.3854L549.665 82.9911C548.672 83.0622 547.75 83.1332 546.757 83.2043L570.306 90.0248L500.511 130.45L511.576 85.6909C511.292 85.6909 511.079 85.6909 510.796 85.762C507.391 101.89 502.781 123.843 498.312 129.456L497.816 130.024L497.319 129.527C495.191 127.395 492.07 124.482 488.382 121.072C484.977 117.946 481.218 114.465 477.53 110.913L497.816 131.303L452.35 135.424L456.393 89.3854C456.038 89.3854 455.754 89.4564 455.4 89.4564L451.428 135.353L405.11 133.647L455.187 89.4564C454.477 89.5275 453.768 89.5274 453.059 89.5985L403.692 133.079L398.372 92.7246C398.088 92.7246 397.734 92.7246 397.45 92.7956L402.77 133.008L352.622 108.639L372.483 93.9323C371.49 94.0034 370.567 94.0034 369.645 94.0744L351.771 107.076L352.835 94.6428C352.48 94.6428 352.197 94.6428 351.842 94.6428L350.778 107.431L328.435 95.0691C327.726 95.0691 327.017 95.0691 326.307 95.0691L349.43 107.715L308.858 125.335L301.269 81.286L322.406 92.8666L323.541 92.2983L302.333 80.5045L312.76 72.3341C310.774 73.1867 308.788 74.1103 306.872 74.8918L300.985 79.5098L300.276 77.7337C300.063 77.8047 299.779 77.9468 299.567 78.0179L299.921 78.8704L295.878 79.6519C293.183 80.7887 290.63 81.9254 288.218 82.9911L300.418 80.5045L307.795 124.269L249.277 92.9377C248.213 92.7956 247.15 92.5825 246.015 92.4404L307.085 125.903L248.072 137.839L244.312 92.2272C244.1 92.2272 243.816 92.1562 243.603 92.1562L247.008 136.774C247.646 137.413 248.284 138.123 248.923 138.834L307.156 126.685L286.374 165.974L249.277 139.118C250.412 140.326 251.476 141.605 252.54 142.884L284.955 166.329L271.337 177.341C271.478 177.839 271.691 178.336 271.833 178.762L285.664 167.75L282.685 216.701L280.487 216.346C280.628 217.198 280.699 218.122 280.77 218.975L282.898 217.767L290.062 240.786H291.268L283.537 217.27L357.304 202.137L320.987 240.502H323.257L357.942 204.552L353.757 240.147H355.388L359.29 202.492L405.82 226.008L391.705 239.72H393.549L406.316 227.287L405.749 239.578H406.671L407.238 227.429L420.431 239.436H421.566C420.431 238.299 419.367 237.234 418.303 236.168C415.253 233.113 412.558 230.413 410.501 228.424L409.295 227.287L476.608 227.145L468.734 238.939H470.153L477.104 228.566L480.296 238.797H481.856L478.523 227.856L509.093 238.513L512.569 238.441L480.154 227.074L548.389 194.677L536.969 238.228H538.175L549.382 195.032L583.499 237.731H584.847L550.162 194.25L593.429 188.354L590.308 237.66H591.372L594.28 189.135L632.511 208.105L598.82 237.589H601.373L633.504 209.454L634.994 237.234H635.987L634.71 209.028L688.475 216.914L661.025 237.021H662.728L688.972 217.767L688.546 236.736H689.752L690.036 217.909L725.784 236.31H728.621L691.383 217.056L753.376 199.65C753.376 199.082 753.376 198.442 753.376 197.874L691.667 215.707L725.359 161.214L753.447 195.458C753.447 194.748 753.518 194.037 753.518 193.327L726.706 160.574L760.469 158.159C760.611 157.732 760.753 157.377 760.965 156.951L726.919 159.509L754.582 102.458L771.676 137.626C768.626 131.374 765.647 124.269 762.88 117.875C760.54 112.333 758.27 107.076 756.497 103.453L755.929 102.245L802.885 111.41L800.686 115.957C801.183 115.744 801.679 115.602 802.247 115.388L803.665 112.476L804.233 112.76C804.587 112.902 805.226 113.399 806.148 114.11C806.502 113.968 806.857 113.896 807.212 113.754C806.502 112.76 805.935 111.836 805.509 111.055L805.226 110.415L848.351 90.1669L851.046 111.694C851.472 111.765 851.968 111.836 852.394 111.907L849.84 90.2379L890.98 103.311L880.766 121.854C881.121 122.067 881.475 122.28 881.83 122.493L891.264 105.158L910.06 143.168L904.882 145.228C905.166 145.654 905.449 146.081 905.733 146.578L910.344 144.873L909.563 153.398C909.847 153.967 910.131 154.535 910.415 155.104L911.337 145.583L962.832 192.19L921.622 194.89C921.692 195.316 921.692 195.671 921.763 196.098L962.903 193.824L943.752 223.309C944.886 222.314 946.021 221.319 947.156 220.254L963.399 195.387L963.967 196.169C964.392 196.808 964.889 197.732 965.456 198.868C965.811 198.442 966.094 198.016 966.449 197.519L965.102 193.611L971.769 189.917C972.194 189.348 972.549 188.709 972.975 188.14L965.456 192.261L967.726 141.534L990.707 157.519C990.849 157.235 990.991 156.88 991.204 156.596L968.79 140.894L969.003 140.326ZM630.242 125.335L693.724 113.612L669.962 162.564L669.324 162.208C664.288 159.153 653.365 147.786 644.64 138.692C638.824 132.582 633.292 126.827 632.015 126.259L630.242 125.335L668.898 163.984L595.983 187.004L629.603 124.696L630.242 125.335ZM628.185 124.056L578.25 145.228L572.718 91.1615L628.185 124.056ZM571.441 91.0194L577.399 145.015L501.22 131.587L571.441 91.0194ZM498.738 132.084L485.828 176.986L452.775 136.56L498.738 132.084ZM451.711 137.413L484.906 177.981L437.809 181.036L451.711 137.413ZM403.763 134.287L411.565 145.512C408.515 140.823 406.245 137.058 405.678 135.353L405.394 134.429L450.364 136.205L437.596 179.473L436.816 178.904C434.546 177.27 428.446 169.526 422.204 160.929L435.468 180.112L363.12 154.819L403.763 134.287ZM402.06 133.861L360.992 153.683L351.771 109.705L402.06 133.861ZM350.849 108.568L360.07 152.901L310.277 126.543L350.849 108.568ZM308.291 126.756L359.006 153.896L287.58 166.258L308.291 126.756ZM283.466 216.772L286.657 167.892L357.445 201.142L283.466 216.772ZM358.722 199.934L288.643 167.608L360.212 154.819L358.722 199.934ZM361.276 155.175L435.539 181.391L359.644 200.929L361.276 155.175ZM407.167 225.369L360.354 201.568L435.61 182.315L407.167 225.369ZM408.444 225.866L436.745 182.457L476.537 225.795L408.444 225.866ZM477.813 225.227L438.022 181.959L484.977 178.975L477.813 225.227ZM478.948 225.866L485.899 179.331L546.544 193.682L478.948 225.866ZM486.396 178.265L499.447 133.008L547.679 192.616L486.396 178.265ZM549.736 192.687L500.724 132.724L576.69 146.01L549.736 192.687ZM551.084 193.256L577.541 147.36L593.571 187.856L551.084 193.256ZM578.534 146.365L627.901 125.406L594.422 186.435L578.534 146.365ZM634.426 207.465L595.415 188.14L667.48 165.192L634.426 207.465ZM635.987 208.176L669.04 165.476L689.113 215.778L635.987 208.176ZM690.603 214.712L670.388 164.624L724.507 160.503L690.603 214.712ZM670.884 163.558L694.575 114.891L724.862 159.437L670.884 163.558ZM725.642 158.94L695.71 113.47L753.305 102.245L725.642 158.94ZM803.665 109.065L803.169 109.207C802.601 109.349 801.75 109.421 800.686 109.421C791.394 109.421 763.873 103.311 757.277 101.108L756.213 100.753L804.162 56.1355L803.665 109.065ZM805.155 109.989L804.942 56.1355L847.925 88.3196L805.155 109.989ZM848.989 87.7513L806.502 55.9223L853.245 36.8818L848.989 87.7513ZM854.167 37.6633L899.633 58.6931L850.053 87.9644L854.167 37.6633ZM851.259 89.2433L900.555 60.1851L891.76 102.6L851.259 89.2433ZM964.179 192.119L912.188 144.518L967.158 140.965L964.179 192.119Z" fill="#E4E5E7"/>
<path d="M28.9698 233.113C29.3954 233.184 29.821 233.255 30.2466 233.255L45.2837 204.765L70.6057 237.376C71.1731 237.447 71.6696 237.447 72.2371 237.518L46.7732 204.268L103.73 190.627L76.4928 237.873C76.9184 237.873 77.344 237.944 77.7696 238.015L104.652 191.551L108.057 200.147C108.057 198.939 108.057 197.732 108.128 196.524L105.645 189.988L108.624 189.49C108.624 189.348 108.695 189.135 108.695 188.993L106.142 189.419L106.354 188.425C107.276 184.73 110.397 175.92 114.015 166.542C114.157 166.116 114.369 165.69 114.511 165.263C119.547 152.475 125.364 139.118 127.917 136.347L128.484 135.708L130.754 139.402L130.967 139.189L128.555 135.566L133.591 136.56C134.017 136.134 134.443 135.779 134.868 135.353L127.775 133.932L130.116 133.15C132.102 132.511 138.202 127.822 144.656 122.919C155.083 114.962 166.928 105.939 172.106 104.874L172.532 104.802L178.986 115.317C179.27 115.246 179.554 115.246 179.838 115.175L172.674 103.524L239.49 91.7299C237.716 91.5167 235.943 91.3036 233.957 91.0905L172.532 102.671L173.95 91.3036C173.596 91.3746 173.241 91.4457 172.887 91.4457L171.539 102.387L149.48 96.7031C148.841 96.8452 148.203 97.0584 147.565 97.2005L169.978 102.884L127.562 133.292L121.108 105.513C120.682 105.655 120.257 105.797 119.831 105.939L126.569 133.292L86.423 125.193L94.4381 115.602C93.4451 116.028 92.523 116.383 91.53 116.809L85.2172 124.482L83.5858 120.149C83.373 120.22 83.1603 120.362 82.9475 120.433L84.2951 124.198L78.1952 122.493C77.5568 122.777 76.9894 122.99 76.351 123.275L83.444 125.264L55.4976 154.89L43.6523 138.905C43.2977 139.118 42.943 139.26 42.5884 139.473L54.2918 155.459L33.6512 153.256C43.2977 154.535 49.3976 155.885 51.9511 157.306L52.9441 157.874L52.0221 158.443C44.2907 163.416 19.5362 181.036 7.97461 191.195C8.1874 191.124 8.40019 191.124 8.61298 191.053L53.7244 157.874L45.2128 202.989L15.9897 200.929L16.4862 201.852L44.5744 203.7L28.9698 233.113ZM126.427 134.074L105.503 188.14L85.9975 126.259L126.427 134.074ZM85.0754 126.685L104.155 188.069L55.7813 155.885L85.0754 126.685ZM55.5685 157.093L103.375 189.064L46.5604 202.705L55.5685 157.093Z" fill="#E4E5E7"/>
<path d="M726.139 10.0261C725.643 9.95503 725.146 9.88399 724.65 9.81294L685.071 23.1697L695.001 6.33165C694.504 6.2606 693.937 6.18955 693.44 6.18955L683.297 23.4539L648.258 2.49512C647.478 2.42407 646.698 2.42407 645.917 2.35303L682.304 24.1644L679.609 27.9299C680.106 27.9299 680.531 28.0009 681.028 28.0009L682.872 25.3722L688.05 28.4272C689.114 28.4982 690.178 28.5693 691.242 28.6403L685.213 25.0169L726.139 10.0261Z" fill="#E4E5E7"/>
<path d="M641.804 2.13989L646.982 26.3668C647.407 26.3668 647.904 26.4379 648.329 26.4379L643.506 2.28199C642.939 2.21094 642.371 2.13989 641.804 2.13989Z" fill="#E4E5E7"/>
<path d="M95.4309 239.436L115.149 236.523C115.008 236.239 114.937 235.955 114.795 235.671L90.4658 239.081C92.1681 239.152 93.8705 239.294 95.4309 239.436Z" fill="#E4E5E7"/>
<path d="M764.37 15.8519L739.616 35.8161L736.92 39.6526L765.931 16.1361C765.434 15.994 764.867 15.923 764.37 15.8519Z" fill="#E4E5E7"/>
<path d="M976.238 69.4211L981.132 75.6733C981.699 75.6022 982.267 75.5312 982.834 75.5312L978.508 70.0606C977.798 69.8474 977.018 69.6343 976.238 69.4211Z" fill="#E4E5E7"/>
<path d="M241.476 91.8009L221.615 119.58C222.112 119.793 222.608 120.006 223.034 120.22L243.178 92.0851C242.61 91.943 242.043 91.872 241.476 91.8009Z" fill="#E4E5E7"/>
<path d="M354.467 76.2417L356.524 53.0804C356.098 53.2936 355.673 53.4357 355.318 53.6488L353.332 76.8101L354.467 76.2417Z" fill="#E4E5E7"/>
<path d="M368.866 47.7518C368.653 47.8229 368.369 47.965 368.156 48.036C372.483 52.0857 377.59 57.2011 382.129 61.9612L382.342 61.8191L368.866 47.7518Z" fill="#E4E5E7"/>
<path d="M430.503 33.3294L436.674 33.7557L438.306 32.9031L431.567 32.4058L432.064 31.4821C434.05 27.7877 440.575 20.8962 447.952 13.6494C447.314 13.8626 446.746 14.0757 446.108 14.2888L429.581 31.4821L427.595 22.104C427.312 22.2461 427.028 22.3882 426.744 22.4592L428.517 30.5585L421.07 24.9459C420.573 25.159 420.006 25.3721 419.509 25.6563L427.099 31.4821L402.344 33.1873C401.138 33.7556 399.862 34.253 398.585 34.8213L427.737 33.1873L421.141 41.7839L423.836 40.363L429.085 33.5425L430.716 36.8817L431.709 36.3844C431.355 35.5318 431.142 34.8213 430.929 34.253L430.503 33.3294Z" fill="#E4E5E7"/>
<path d="M639.959 2.06885C639.25 2.06885 638.541 1.9978 637.832 1.9978L609.389 25.159C610.24 25.159 611.162 25.2301 612.013 25.2301L639.959 2.06885Z" fill="#E4E5E7"/>
<path d="M465.968 99.0476C462.422 95.14 459.726 91.7298 458.662 89.2432C457.882 89.3142 457.173 89.3142 456.393 89.3853L465.968 99.0476Z" fill="#E4E5E7"/>
<path d="M923.608 228.069L926.303 232.616C926.729 232.544 927.154 232.545 927.58 232.473L923.608 225.653C923.608 226.434 923.608 227.216 923.608 228.069Z" fill="#E4E5E7"/>
<path d="M969.003 140.326C969.712 138.692 973.4 133.363 977.94 127.182C977.727 127.04 977.443 126.969 977.23 126.827L967.584 139.473L952.618 115.033C951.909 114.678 951.128 114.323 950.419 114.039L966.591 139.758L912.117 143.665L933.892 106.65C933.538 106.508 933.183 106.366 932.757 106.152L911.549 142.386L892.54 103.524L918.713 99.2609C918.217 98.9767 917.791 98.6214 917.366 98.3373L893.108 102.671L901.619 60.4693L924.955 82.0675C925.523 81.9965 926.09 81.9254 926.657 81.8544L902.683 59.9009L931.41 57.6985C931.126 57.6274 930.913 57.5564 930.63 57.4854C924.246 58.0537 918.217 58.48 913.536 58.48C909.28 58.48 906.513 58.1248 905.095 57.4143L904.244 56.988L909.847 52.0148C909.634 51.9437 909.351 51.8727 909.067 51.8016L902.116 58.1958L901.406 49.8123C901.052 49.7413 900.697 49.5992 900.343 49.5281L900.91 57.9116L899.988 57.6985C893.817 55.9934 888.143 52.8673 882.681 49.8833C881.05 48.9597 879.418 48.1072 877.787 47.2546C876.014 46.331 873.744 45.4784 871.332 44.4838C867.005 42.7787 862.253 40.9315 859.132 38.4448C856.295 37.6633 853.529 36.9528 850.833 36.1713L805.084 54.6435L786.642 20.1858C786.004 20.0437 785.436 19.9727 784.798 19.8306L803.807 54.5724L730.182 49.386L729.614 50.2386L803.24 55.5671L755.22 97.2005L727.345 53.5067L726.281 54.9987L753.943 101.534L696.206 112.547L714.719 70.4869C714.364 70.4869 713.868 70.558 713.23 70.629L694.717 112.547L664.785 74.4655C664.217 74.5366 663.721 74.5366 663.153 74.6076L694.079 112.76L630.525 123.701L650.173 75.6023C649.676 75.6733 649.109 75.6733 648.612 75.7444L629.532 122.848L576.548 90.4511L610.452 78.6573C608.182 78.7994 605.913 79.0125 603.643 79.1546L573.711 89.3143L577.257 81.0729C576.761 81.1439 576.264 81.1439 575.838 81.1439L572.505 88.6749L569.171 81.5702C568.745 81.5702 568.391 81.6413 567.965 81.6413L571.583 89.3854L549.665 82.9911C548.672 83.0622 547.75 83.1332 546.757 83.2043L570.306 90.0248L500.511 130.45L511.576 85.6909C511.292 85.6909 511.079 85.6909 510.796 85.762C507.391 101.89 502.781 123.843 498.312 129.456L497.816 130.024L497.319 129.527C495.191 127.395 492.07 124.482 488.382 121.072C484.977 117.946 481.218 114.465 477.53 110.913L497.816 131.303L452.35 135.424L456.393 89.3854C456.038 89.3854 455.754 89.4564 455.4 89.4564L451.428 135.353L405.11 133.647L455.187 89.4564C454.477 89.5275 453.768 89.5274 453.059 89.5985L403.692 133.079L398.372 92.7246C398.088 92.7246 397.734 92.7246 397.45 92.7956L402.77 133.008L352.622 108.639L372.483 93.9323C371.49 94.0034 370.567 94.0034 369.645 94.0744L351.771 107.076L352.835 94.6428C352.48 94.6428 352.197 94.6428 351.842 94.6428L350.778 107.431L328.435 95.0691C327.726 95.0691 327.017 95.0691 326.307 95.0691L349.43 107.715L308.858 125.335L301.269 81.286L322.406 92.8666L323.541 92.2983L302.333 80.5045L312.76 72.3341C310.774 73.1867 308.788 74.1103 306.872 74.8918L300.985 79.5098L300.276 77.7337C300.063 77.8047 299.779 77.9468 299.567 78.0179L299.921 78.8704L295.878 79.6519C293.183 80.7887 290.63 81.9254 288.218 82.9911L300.418 80.5045L307.795 124.269L249.277 92.9377C248.213 92.7956 247.15 92.5825 246.015 92.4404L307.085 125.903L248.072 137.839L244.312 92.2272C244.1 92.2272 243.816 92.1562 243.603 92.1562L247.008 136.774C247.646 137.413 248.284 138.123 248.923 138.834L307.156 126.685L286.374 165.974L249.277 139.118C250.412 140.326 251.476 141.605 252.54 142.884L284.955 166.329L271.337 177.341C271.478 177.839 271.691 178.336 271.833 178.762L285.664 167.75L282.685 216.701L280.487 216.346C280.628 217.198 280.699 218.122 280.77 218.975L282.898 217.767L290.062 240.786H291.268L283.537 217.27L357.304 202.137L320.987 240.502H323.257L357.942 204.552L353.757 240.147H355.388L359.29 202.492L405.82 226.008L391.705 239.72H393.549L406.316 227.287L405.749 239.578H406.671L407.238 227.429L420.431 239.436H421.566C420.431 238.299 419.367 237.234 418.303 236.168C415.253 233.113 412.558 230.413 410.501 228.424L409.295 227.287L476.608 227.145L468.734 238.939H470.153L477.104 228.566L480.296 238.797H481.856L478.523 227.856L509.093 238.513L512.569 238.441L480.154 227.074L548.389 194.677L536.969 238.228H538.175L549.382 195.032L583.499 237.731H584.847L550.162 194.25L593.429 188.354L590.308 237.66H591.372L594.28 189.135L632.511 208.105L598.82 237.589H601.373L633.504 209.454L634.994 237.234H635.987L634.71 209.028L688.475 216.914L661.025 237.021H662.728L688.972 217.767L688.546 236.736H689.752L690.036 217.909L725.784 236.31H728.621L691.383 217.056L753.376 199.65C753.376 199.082 753.376 198.442 753.376 197.874L691.667 215.707L725.359 161.214L753.447 195.458C753.447 194.748 753.518 194.037 753.518 193.327L726.706 160.574L760.469 158.159C760.611 157.732 760.753 157.377 760.965 156.951L726.919 159.509L754.582 102.458L771.676 137.626C768.626 131.374 765.647 124.269 762.88 117.875C760.54 112.333 758.27 107.076 756.497 103.453L755.929 102.245L802.885 111.41L800.686 115.957C801.183 115.744 801.679 115.602 802.247 115.388L803.665 112.476L804.233 112.76C804.587 112.902 805.226 113.399 806.148 114.11C806.502 113.968 806.857 113.896 807.212 113.754C806.502 112.76 805.935 111.836 805.509 111.055L805.226 110.415L848.351 90.1669L851.046 111.694C851.472 111.765 851.968 111.836 852.394 111.907L849.84 90.2379L890.98 103.311L880.766 121.854C881.121 122.067 881.475 122.28 881.83 122.493L891.264 105.158L910.06 143.168L904.882 145.228C905.166 145.654 905.449 146.081 905.733 146.578L910.344 144.873L909.563 153.398C909.847 153.967 910.131 154.535 910.415 155.104L911.337 145.583L962.832 192.19L921.622 194.89C921.692 195.316 921.692 195.671 921.763 196.098L962.903 193.824L943.752 223.309C944.886 222.314 946.021 221.319 947.156 220.254L963.399 195.387L963.967 196.169C964.392 196.808 964.889 197.732 965.456 198.868C965.811 198.442 966.094 198.016 966.449 197.519L965.102 193.611L971.769 189.917C972.194 189.348 972.549 188.709 972.975 188.14L965.456 192.261L967.726 141.534L990.707 157.519C990.849 157.235 990.991 156.88 991.204 156.596L968.79 140.894L969.003 140.326ZM630.242 125.335L693.724 113.612L669.962 162.564L669.324 162.208C664.288 159.153 653.365 147.786 644.64 138.692C638.824 132.582 633.292 126.827 632.015 126.259L630.242 125.335L668.898 163.984L595.983 187.004L629.603 124.696L630.242 125.335ZM628.185 124.056L578.25 145.228L572.718 91.1615L628.185 124.056ZM571.441 91.0194L577.399 145.015L501.22 131.587L571.441 91.0194ZM498.738 132.084L485.828 176.986L452.775 136.56L498.738 132.084ZM451.711 137.413L484.906 177.981L437.809 181.036L451.711 137.413ZM403.763 134.287L411.565 145.512C408.515 140.823 406.245 137.058 405.678 135.353L405.394 134.429L450.364 136.205L437.596 179.473L436.816 178.904C434.546 177.27 428.446 169.526 422.204 160.929L435.468 180.112L363.12 154.819L403.763 134.287ZM402.06 133.861L360.992 153.683L351.771 109.705L402.06 133.861ZM350.849 108.568L360.07 152.901L310.277 126.543L350.849 108.568ZM308.291 126.756L359.006 153.896L287.58 166.258L308.291 126.756ZM283.466 216.772L286.657 167.892L357.445 201.142L283.466 216.772ZM358.722 199.934L288.643 167.608L360.212 154.819L358.722 199.934ZM361.276 155.175L435.539 181.391L359.644 200.929L361.276 155.175ZM407.167 225.369L360.354 201.568L435.61 182.315L407.167 225.369ZM408.444 225.866L436.745 182.457L476.537 225.795L408.444 225.866ZM477.813 225.227L438.022 181.959L484.977 178.975L477.813 225.227ZM478.948 225.866L485.899 179.331L546.544 193.682L478.948 225.866ZM486.396 178.265L499.447 133.008L547.679 192.616L486.396 178.265ZM549.736 192.687L500.724 132.724L576.69 146.01L549.736 192.687ZM551.084 193.256L577.541 147.36L593.571 187.856L551.084 193.256ZM578.534 146.365L627.901 125.406L594.422 186.435L578.534 146.365ZM634.426 207.465L595.415 188.14L667.48 165.192L634.426 207.465ZM635.987 208.176L669.04 165.476L689.113 215.778L635.987 208.176ZM690.603 214.712L670.388 164.624L724.507 160.503L690.603 214.712ZM670.884 163.558L694.575 114.891L724.862 159.437L670.884 163.558ZM725.642 158.94L695.71 113.47L753.305 102.245L725.642 158.94ZM803.665 109.065L803.169 109.207C802.601 109.349 801.75 109.421 800.686 109.421C791.394 109.421 763.873 103.311 757.277 101.108L756.213 100.753L804.162 56.1355L803.665 109.065ZM805.155 109.989L804.942 56.1355L847.925 88.3196L805.155 109.989ZM848.989 87.7513L806.502 55.9223L853.245 36.8818L848.989 87.7513ZM854.167 37.6633L899.633 58.6931L850.053 87.9644L854.167 37.6633ZM851.259 89.2433L900.555 60.1851L891.76 102.6L851.259 89.2433ZM964.179 192.119L912.188 144.518L967.158 140.965L964.179 192.119Z" fill="#E4E5E7"/>
<path d="M958.718 64.8031L949.852 79.0125C950.278 78.9414 950.774 78.9414 951.2 78.8704L959.711 65.0873C959.428 65.0162 959.073 64.8741 958.718 64.8031Z" fill="#E4E5E7"/>
<path d="M727.7 31.198C728.196 31.2691 728.622 31.2691 729.118 31.3401L734.083 11.1628C733.587 11.0918 733.09 11.0208 732.594 10.9497L727.7 31.198Z" fill="#E4E5E7"/>
<path d="M749.83 236.026L753.943 213.291C753.802 211.657 753.66 210.023 753.589 208.389L748.269 236.026H749.83Z" fill="#E4E5E7"/>
<path d="M594.99 0.932129C594.635 0.932129 594.352 0.932129 594.068 0.932129L595.416 24.8038C595.699 24.8038 595.983 24.8038 596.338 24.8038L594.99 0.932129Z" fill="#E4E5E7"/>
<path d="M572.292 0.932129C572.008 0.932129 571.654 0.932129 571.37 0.932129L550.8 24.4486C551.155 24.4486 551.51 24.4486 551.793 24.4486C555.978 18.8359 563.426 10.5234 572.292 0.932129Z" fill="#E4E5E7"/>
<path d="M542.289 1.28735C541.792 1.28735 541.296 1.28735 540.87 1.28735L543.707 24.4486C544.204 24.4486 544.7 24.4486 545.268 24.4486L542.289 1.28735Z" fill="#E4E5E7"/>
<path d="M479.019 25.8695L477.104 6.26062C476.75 6.33167 476.466 6.40271 476.111 6.47376L478.168 25.9406C478.381 25.9406 478.736 25.8695 479.019 25.8695Z" fill="#E4E5E7"/>
<path d="M515.052 2.28199L490.794 25.4432C491.22 25.4432 491.716 25.4432 492.142 25.3722L516.471 2.13989C516.045 2.21094 515.549 2.28199 515.052 2.28199Z" fill="#E4E5E7"/>
<path d="M95.4309 239.436L115.149 236.523C115.008 236.239 114.937 235.955 114.795 235.671L90.4658 239.081C92.1681 239.152 93.8705 239.294 95.4309 239.436Z" fill="#E4E5E7"/>
<path d="M241.476 91.8009L221.615 119.58C222.112 119.793 222.608 120.006 223.034 120.22L243.178 92.0851C242.61 91.943 242.043 91.872 241.476 91.8009Z" fill="#E4E5E7"/>
<path d="M354.467 76.2417L356.524 53.0804C356.098 53.2936 355.673 53.4357 355.318 53.6488L353.332 76.8101L354.467 76.2417Z" fill="#E4E5E7"/>
<path d="M28.9698 233.113C29.3954 233.184 29.821 233.255 30.2466 233.255L45.2837 204.765L70.6057 237.376C71.1731 237.447 71.6696 237.447 72.2371 237.518L46.7732 204.268L103.73 190.627L76.4928 237.873C76.9184 237.873 77.344 237.944 77.7696 238.015L104.652 191.551L108.057 200.147C108.057 198.939 108.057 197.732 108.128 196.524L105.645 189.988L108.624 189.49C108.624 189.348 108.695 189.135 108.695 188.993L106.142 189.419L106.354 188.425C107.276 184.73 110.397 175.92 114.015 166.542C114.157 166.116 114.369 165.69 114.511 165.263C119.547 152.475 125.364 139.118 127.917 136.347L128.484 135.708L130.754 139.402L130.967 139.189L128.555 135.566L133.591 136.56C134.017 136.134 134.443 135.779 134.868 135.353L127.775 133.932L130.116 133.15C132.102 132.511 138.202 127.822 144.656 122.919C155.083 114.962 166.928 105.939 172.106 104.874L172.532 104.802L178.986 115.317C179.27 115.246 179.554 115.246 179.838 115.175L172.674 103.524L239.49 91.7299C237.716 91.5167 235.943 91.3036 233.957 91.0905L172.532 102.671L173.95 91.3036C173.596 91.3746 173.241 91.4457 172.887 91.4457L171.539 102.387L149.48 96.7031C148.841 96.8452 148.203 97.0584 147.565 97.2005L169.978 102.884L127.562 133.292L121.108 105.513C120.682 105.655 120.257 105.797 119.831 105.939L126.569 133.292L86.423 125.193L94.4381 115.602C93.4451 116.028 92.523 116.383 91.53 116.809L85.2172 124.482L83.5858 120.149C83.373 120.22 83.1603 120.362 82.9475 120.433L84.2951 124.198L78.1952 122.493C77.5568 122.777 76.9894 122.99 76.351 123.275L83.444 125.264L55.4976 154.89L43.6523 138.905C43.2977 139.118 42.943 139.26 42.5884 139.473L54.2918 155.459L33.6512 153.256C43.2977 154.535 49.3976 155.885 51.9511 157.306L52.9441 157.874L52.0221 158.443C44.2907 163.416 19.5362 181.036 7.97461 191.195C8.1874 191.124 8.40019 191.124 8.61298 191.053L53.7244 157.874L45.2128 202.989L15.9897 200.929L16.4862 201.852L44.5744 203.7L28.9698 233.113ZM126.427 134.074L105.503 188.14L85.9975 126.259L126.427 134.074ZM85.0754 126.685L104.155 188.069L55.7813 155.885L85.0754 126.685ZM55.5685 157.093L103.375 189.064L46.5604 202.705L55.5685 157.093Z" fill="#E4E5E7"/>
<path d="M726.139 10.0261C725.643 9.95503 725.146 9.88399 724.65 9.81294L685.071 23.1697L695.001 6.33165C694.504 6.2606 693.937 6.18955 693.44 6.18955L683.297 23.4539L648.258 2.49512C647.478 2.42407 646.698 2.42407 645.917 2.35303L682.304 24.1644L679.609 27.9299C680.106 27.9299 680.531 28.0009 681.028 28.0009L682.872 25.3722L688.05 28.4272C689.114 28.4982 690.178 28.5693 691.242 28.6403L685.213 25.0169L726.139 10.0261Z" fill="#E4E5E7"/>
<path d="M639.959 2.06885C639.25 2.06885 638.541 1.9978 637.832 1.9978L609.389 25.159C610.24 25.159 611.162 25.2301 612.013 25.2301L639.959 2.06885Z" fill="#E4E5E7"/>
<path d="M641.804 2.13989L646.982 26.3668C647.407 26.3668 647.904 26.4379 648.329 26.4379L643.506 2.28199C642.939 2.21094 642.371 2.13989 641.804 2.13989Z" fill="#E4E5E7"/>
<path d="M764.37 15.8519L739.616 35.8161L736.92 39.6526L765.931 16.1361C765.434 15.994 764.867 15.923 764.37 15.8519Z" fill="#E4E5E7"/>
<path d="M976.238 69.4211L981.132 75.6733C981.699 75.6022 982.267 75.5312 982.834 75.5312L978.508 70.0606C977.798 69.8474 977.018 69.6343 976.238 69.4211Z" fill="#E4E5E7"/>
<path d="M368.866 47.7518C368.653 47.8229 368.369 47.965 368.156 48.036C372.483 52.0857 377.59 57.2011 382.129 61.9612L382.342 61.8191L368.866 47.7518Z" fill="#E4E5E7"/>
<path d="M430.503 33.3294L436.674 33.7557L438.306 32.9031L431.567 32.4058L432.064 31.4821C434.05 27.7877 440.575 20.8962 447.952 13.6494C447.314 13.8626 446.746 14.0757 446.108 14.2888L429.581 31.4821L427.595 22.104C427.312 22.2461 427.028 22.3882 426.744 22.4592L428.517 30.5585L421.07 24.9459C420.573 25.159 420.006 25.3721 419.509 25.6563L427.099 31.4821L402.344 33.1873C401.138 33.7556 399.862 34.253 398.585 34.8213L427.737 33.1873L421.141 41.7839L423.836 40.363L429.085 33.5425L430.716 36.8817L431.709 36.3844C431.355 35.5318 431.142 34.8213 430.929 34.253L430.503 33.3294Z" fill="#E4E5E7"/>
<path d="M749.83 236.026L753.943 213.291C753.802 211.657 753.66 210.023 753.589 208.389L748.269 236.026H749.83Z" fill="#E4E5E7"/>
<path d="M923.608 228.069L926.303 232.616C926.729 232.544 927.154 232.545 927.58 232.473L923.608 225.653C923.608 226.434 923.608 227.216 923.608 228.069Z" fill="#E4E5E7"/>
<path d="M958.718 64.8031L949.852 79.0125C950.278 78.9414 950.774 78.9414 951.2 78.8704L959.711 65.0873C959.428 65.0162 959.073 64.8741 958.718 64.8031Z" fill="#E4E5E7"/>
<path d="M727.7 31.198C728.196 31.2691 728.622 31.2691 729.118 31.3401L734.083 11.1628C733.587 11.0918 733.09 11.0208 732.594 10.9497L727.7 31.198Z" fill="#E4E5E7"/>
<path d="M465.968 99.0476C462.422 95.14 459.726 91.7298 458.662 89.2432C457.882 89.3142 457.173 89.3142 456.393 89.3853L465.968 99.0476Z" fill="#E4E5E7"/>
<path d="M594.99 0.932129C594.635 0.932129 594.352 0.932129 594.068 0.932129L595.416 24.8038C595.699 24.8038 595.983 24.8038 596.338 24.8038L594.99 0.932129Z" fill="#E4E5E7"/>
<path d="M515.052 2.28199L490.794 25.4432C491.22 25.4432 491.716 25.4432 492.142 25.3722L516.471 2.13989C516.045 2.21094 515.549 2.28199 515.052 2.28199Z" fill="#E4E5E7"/>
<path d="M542.289 1.28735C541.792 1.28735 541.296 1.28735 540.87 1.28735L543.707 24.4486C544.204 24.4486 544.7 24.4486 545.268 24.4486L542.289 1.28735Z" fill="#E4E5E7"/>
<path d="M572.292 0.932129C572.008 0.932129 571.654 0.932129 571.37 0.932129L550.8 24.4486C551.155 24.4486 551.51 24.4486 551.793 24.4486C555.978 18.8359 563.426 10.5234 572.292 0.932129Z" fill="#E4E5E7"/>
<path d="M479.019 25.8695L477.104 6.26062C476.75 6.33167 476.466 6.40271 476.111 6.47376L478.168 25.9406C478.381 25.9406 478.736 25.8695 479.019 25.8695Z" fill="#E4E5E7"/>
<path d="M640.03 17.5571L669.891 27.3615C671.877 27.4326 673.864 27.5747 675.85 27.6457L639.463 14.7862L647.407 2.42411C647.052 2.42411 646.626 2.35306 646.272 2.35306L638.966 14.0047L635.49 1.78469C634.852 1.78469 634.285 1.71364 633.646 1.71364L637.406 15.2125L590.095 1.99783L590.45 0.932129C589.599 0.932129 588.819 0.932129 587.967 0.932129C587.613 0.932129 587.187 0.932129 586.833 0.932129L587.258 2.06888L577.825 0.932129C574.775 0.932129 571.795 0.932129 568.816 1.00318L586.549 3.13458L569.597 24.5197C570.093 24.5197 570.59 24.5197 571.086 24.5197L587.329 4.20028L598.962 24.8749C599.529 24.8749 600.096 24.8749 600.735 24.8749L589.102 4.27133L637.477 16.3493L634.568 25.7985C634.923 25.7985 635.349 25.7985 635.703 25.8695L637.973 18.5517L642.016 26.0827C642.654 26.0827 643.293 26.1537 643.931 26.1537C642.016 21.8909 640.739 18.978 640.668 18.907L640.03 17.5571Z" fill="#E4E5E7"/>
<path d="M532.571 1.57147L543.353 24.5196C543.849 24.5196 544.346 24.5196 544.842 24.5196L533.99 1.57147C533.493 1.50043 532.997 1.50043 532.571 1.57147Z" fill="#E4E5E7"/>
<path d="M443.058 15.4967C442.562 15.7098 442.065 15.923 441.64 16.0651L472.281 26.1537C473.062 26.0827 473.842 26.0827 474.693 26.0827L443.058 15.4967Z" fill="#E4E5E7"/>
<path d="M479.374 5.9054C478.949 5.97644 478.594 6.04749 478.168 6.11854L476.537 26.0116C476.963 26.0116 477.317 26.0116 477.743 25.9406L479.374 5.9054Z" fill="#E4E5E7"/>
<path d="M363.971 49.8123L370.993 67.645L371.703 67.2898L364.751 49.457C364.468 49.5991 364.255 49.7412 363.971 49.8123Z" fill="#E4E5E7"/>
<path d="M680.177 4.91064L686.135 28.3561C686.631 28.3561 687.128 28.4271 687.624 28.4271L681.879 5.05274C681.312 4.98169 680.744 4.91064 680.177 4.91064Z" fill="#E4E5E7"/>
<path d="M406.458 49.386L375.958 44.6259C375.391 44.839 374.823 45.1232 374.256 45.3363L404.046 50.6648L406.458 49.386Z" fill="#E4E5E7"/>
<path d="M328.01 65.5846C327.513 65.7977 327.017 66.0109 326.591 66.224L353.332 76.881L354.892 76.0995L328.01 65.5846Z" fill="#E4E5E7"/>
<path d="M320.633 68.8528C320.137 69.0659 319.569 69.2791 319.073 69.5633L324.038 92.014L325.315 91.3746L320.633 68.8528Z" fill="#E4E5E7"/>
<path d="M182.888 114.607C183.171 114.607 183.526 114.536 183.81 114.536L184.519 89.6694C184.093 89.7405 183.668 89.7405 183.242 89.8115L182.888 114.607Z" fill="#E4E5E7"/>
<path d="M711.102 8.10779L690.532 28.5693C691.171 28.6403 691.809 28.6403 692.518 28.7113C696.065 24.3065 703.583 16.2782 711.527 8.17884C711.386 8.17884 711.244 8.17883 711.102 8.10779Z" fill="#E4E5E7"/>
<path d="M536.26 226.577L534.416 225.724L546.899 238.228H548.034C542.502 232.402 537.466 227.145 536.26 226.577Z" fill="#E4E5E7"/>
<path d="M115.363 237.021C115.15 236.452 114.937 235.884 114.724 235.315L110.965 240.573C111.603 240.644 112.171 240.644 112.738 240.715L115.363 237.021Z" fill="#E4E5E7"/>
<path d="M137.563 100.042L136.925 133.505C137.138 133.292 137.421 133.079 137.634 132.937C137.776 128.319 137.918 123.772 138.131 119.296C138.343 114.678 138.556 109.847 138.698 105.229C138.769 103.381 138.769 101.605 138.769 99.7581C138.343 99.8291 137.918 99.9712 137.563 100.042Z" fill="#E4E5E7"/>
<path d="M974.89 69.0659L974.323 76.3837C974.748 76.3127 975.174 76.3127 975.6 76.2416L976.167 69.3501C975.741 69.2791 975.316 69.137 974.89 69.0659Z" fill="#E4E5E7"/>
<path d="M970.067 123.346L958.931 174.286L917.508 140.823L968.294 122.493C967.939 122.28 967.584 122.138 967.159 121.925L916.444 139.686L916.373 97.4846C916.089 97.2715 915.806 96.9873 915.522 96.7742L916.018 139.189L865.233 107.147L915.309 74.4655L915.451 84.1278C915.735 83.9857 916.089 83.8437 916.444 83.7726V74.6076L925.097 82.0675C925.594 81.9964 926.09 81.9254 926.658 81.8543L917.224 73.8261L945.88 61.4639C945.171 61.2508 944.461 61.1087 943.752 60.8956L917.224 72.5472L919.991 54.5724C919.636 54.5013 919.21 54.3593 918.856 54.2882L915.948 72.7604L868.212 52.9383L880.128 43.9154C879.348 43.7022 878.638 43.4891 877.858 43.347L866.651 51.8726L865.942 40.1499C865.658 40.0789 865.375 40.0078 865.02 39.9368L865.8 51.7305L797.14 29.7771L807.992 24.6617C807.425 24.5196 806.786 24.3775 806.219 24.2354L796.573 28.8535L797.495 22.2461C797.069 22.1751 796.644 22.033 796.218 21.9619L795.438 27.8588L786.004 19.9016C785.011 19.6884 784.018 19.5463 783.025 19.3332L794.303 29.0666L742.311 34.8924L741.318 12.2285C741.105 12.1575 740.822 12.1575 740.609 12.0864L741.318 32.3348C741.602 32.3348 741.815 32.4058 742.098 32.4058L741.318 33.4715L741.389 34.8924L740.396 34.8214L739.9 35.4608H740.68L735.36 42.0682L726.423 54.9276L741.105 36.5265L754.582 83.8437L713.514 70.9842L714.081 70.2737C712.379 70.4158 709.4 70.629 705.357 70.9842L710.889 71.3394L683.439 104.305L668.26 73.8971C667.835 73.9682 667.338 73.9682 666.913 74.0392L681.95 105.229L640.456 106.152L660.671 74.5365C660.174 74.6076 659.678 74.6076 659.181 74.6786L639.25 105.442L627.83 77.0942C627.334 77.1653 626.767 77.1653 626.27 77.2363L638.541 106.863L589.386 123.417L616.127 78.0178C615.56 78.0889 614.992 78.0889 614.354 78.1599L587.542 123.701L547.892 99.9713L592.933 79.723C591.514 79.794 590.096 79.9361 588.748 80.0071L548.247 98.6924L549.949 82.849C549.524 82.849 549.027 82.92 548.602 82.92L546.829 97.2005L546.403 97.3425C546.261 97.4136 546.048 97.4136 545.765 97.4136C542.218 97.4136 527.11 90.8773 515.265 85.3356C514.839 85.3356 514.343 85.4067 513.917 85.4067L545.41 99.474L501.221 135.495L498.525 86.4724C498.171 86.4724 497.887 86.5434 497.532 86.5434L500.37 136.134L452.492 131.658L452.563 131.019C452.846 126.827 467.103 111.268 484.41 92.8666C486.325 90.8062 488.17 88.8169 489.801 87.0408C489.163 87.1118 488.524 87.1118 487.957 87.1829L450.364 130.166L445.257 89.9537C444.76 89.9537 444.335 90.0247 443.838 90.0247L448.945 131.232L385.392 136.347L433.341 90.6642C432.844 90.6642 432.348 90.7352 431.851 90.7352L384.399 135.992L380.214 93.435C379.86 93.435 379.505 93.435 379.079 93.506L383.548 136.347L335.883 132.582L336.38 131.658C339.359 126.116 352.906 113.115 363.759 102.671C367.092 99.4739 370.426 96.2768 372.979 93.7192C372.057 93.7902 371.206 93.7902 370.284 93.8613L333.897 131.658L326.237 94.8559C325.811 94.8559 325.315 94.8559 324.889 94.8559L332.904 130.735L281.906 92.3693L300.418 77.5915C298.716 78.302 297.014 79.0835 295.382 79.794L281.196 91.0904L280.416 86.3303C280.132 86.4724 279.849 86.6145 279.565 86.6855L280.132 89.9537L277.011 87.8223C276.444 88.0354 275.947 88.3196 275.38 88.5327L280.132 91.8009L262.613 134.358L242.681 91.6588C242.114 91.5878 241.546 91.5167 240.979 91.4457L260.272 133.434L198.634 88.6038H198.279C197.783 88.6038 197.215 88.6038 196.719 88.6038L258.995 134.784L256.796 134.713C252.682 134.5 248.639 134.145 244.596 133.718C245.022 134.145 245.448 134.5 245.873 134.926L259.917 136.631L252.611 142.386C252.966 142.812 253.321 143.239 253.604 143.665L261.123 137.768L259.846 152.617C260.201 153.185 260.556 153.754 260.91 154.322L262.116 140.823L262.613 140.681H262.754H262.825C266.727 140.681 295.879 171.089 298.432 175.778L298.716 176.276L276.302 192.545C276.444 193.114 276.586 193.682 276.728 194.179L299.851 177.057L307.227 233.042L281.267 220.396C281.338 220.893 281.338 221.319 281.409 221.816L306.589 233.894L292.616 240.644H295.808L308.291 234.392L312.547 240.502H312.902C311.554 238.228 310.561 236.452 310.277 235.457L309.994 234.534L354.963 236.31L353.828 240.076H355.46L356.24 237.518L358.297 240.004H359.999L357.233 236.665L403.196 232.189L401.068 239.578H401.99L403.834 233.113L409.012 239.507H410.572L405.111 232.829L441.214 239.152L447.456 239.081L405.678 231.692L475.899 191.124L481.147 238.726H481.999L477.104 191.337L532.572 224.232L498.809 238.584H501.717L532.288 225.582L525.337 238.299H526.755L533.99 224.871L534.629 225.511L598.111 213.788L586.549 237.589H587.968L598.962 214.996L614.141 237.305H615.631L600.026 213.646L657.621 202.421L640.74 237.092H642.229L658.898 202.705L675.424 236.736C672.587 230.768 669.75 224.09 667.196 218.051C664.856 212.509 662.586 207.252 660.813 203.629L660.245 202.421L707.201 211.586L695.143 236.523H696.207L707.91 212.722L708.478 213.007C709.258 213.362 711.882 215.564 715.429 218.761C712.733 215.778 710.677 213.22 709.754 211.302L709.471 210.662L752.596 190.414L753.518 197.661C753.66 192.19 754.086 186.506 754.866 180.751L758.412 137.839L768.272 142.386C768.413 142.102 768.626 141.889 768.768 141.605C764.938 139.757 761.604 137.626 760.398 134.713C757.206 131.658 756.497 113.754 756.072 95.7085C756.001 91.943 755.93 88.959 755.788 87.2539L755.717 86.1172L799.977 105.939L799.481 106.579C795.58 111.765 787.635 116.312 779.975 120.717C772.669 124.909 765.718 128.887 762.455 133.221C768.059 131.445 776.145 125.406 783.947 119.58C790.26 114.891 796.289 110.415 800.97 108.142L801.892 107.715L802.389 115.104C802.602 115.033 802.743 114.962 802.956 114.891L802.318 107.076H861.828L856.154 112.333C856.721 112.476 857.288 112.547 857.856 112.689L863.247 107.857L864.169 114.323C864.594 114.465 865.091 114.607 865.516 114.749L864.665 108L915.38 139.757L903.96 143.381C904.173 143.665 904.315 143.949 904.528 144.162L915.238 140.681L911.905 157.661C912.188 158.372 912.543 159.082 912.827 159.722L916.444 141.178L958.08 174.499L921.267 190.769C921.338 191.266 921.409 191.764 921.48 192.261L958.222 176.133L945.171 218.335L923.111 207.465C923.111 207.891 923.182 208.318 923.182 208.744L944.461 218.833L939.709 226.221C940.702 225.511 941.766 224.729 942.759 223.877L945.171 220.111L945.88 221.177C946.164 220.893 946.447 220.609 946.731 220.396L946.093 219.543L947.866 219.33C948.221 218.975 948.504 218.69 948.859 218.335L946.164 218.761L959.286 176.702L972.195 188.922C972.408 188.638 972.62 188.353 972.762 188.069L960.279 176.133L979.997 176.844C980.21 176.489 980.423 176.133 980.706 175.707L961.201 174.855L983.047 162.137V160.929L960.562 174.073L971.131 123.488C970.705 123.701 970.351 123.559 970.067 123.346ZM863.034 52.0147L823.455 65.6557L797.424 31.6953L863.034 52.0147ZM712.237 71.4815L753.093 84.9094L685.496 104.589L712.237 71.4815ZM681.95 106.863L708.123 154.677L629.816 149.136L681.95 106.863ZM639.179 107.502L681.099 106.081L629.32 147.786L639.179 107.502ZM637.548 107.715L627.76 148.567L589.386 125.335L637.548 107.715ZM625.561 148.425L560.731 162.35L586.975 125.69L625.561 148.425ZM586.407 124.482L559.525 161.995L547.467 101.108L586.407 124.482ZM545.623 101.108L558.745 162.066L502.285 137.058L545.623 101.108ZM447.952 132.44L418.516 172.652L417.949 172.013C417.24 171.16 389.151 141.392 385.889 137.981L384.896 136.987L447.952 132.44ZM383.477 138.408L416.956 172.723L361.702 187.714L383.477 138.408ZM382.91 137.2L360.921 186.222L360.212 185.583C355.673 181.391 337.798 142.67 335.032 134.642L334.677 133.647L382.91 137.2ZM333.188 133.932L359.077 187.43L300.844 176.418L333.188 133.932ZM280.629 93.1508L331.273 131.729L262.684 136.418L280.629 93.1508ZM262.684 137.271L331.911 133.434L299.78 175.991L262.684 137.271ZM307.795 233.397L300.489 177.483L358.652 188.496L307.795 233.397ZM355.531 235.671L309.213 233.965L359.503 189.561L355.531 235.671ZM402.557 229.774L402.061 230.342L401.564 229.845C399.436 227.713 396.315 224.8 392.627 221.39C389.222 218.264 385.463 214.783 381.775 211.231L401.99 231.692L356.524 235.813L360.567 189.703L370.213 199.437C366.454 195.316 363.688 191.693 362.766 189.206L362.482 188.496L417.736 174.215L417.452 175.281C416.814 177.981 416.034 181.746 415.112 186.08C411.636 202.137 407.026 224.161 402.557 229.774ZM404.685 230.768L418.729 174.215L474.48 190.343L404.685 230.768ZM419.509 173.292L448.945 132.866L475.686 189.774L419.509 173.292ZM476.608 188.993L449.938 132.795L499.731 136.916L476.608 188.993ZM500.511 137.555L557.326 162.492L477.885 189.49L500.511 137.555ZM533.777 223.095L480.793 190.698L557.823 163.842L533.777 223.095ZM534.77 223.948L559.028 164.482L598.324 213.007L534.77 223.948ZM598.962 212.722L560.092 163.345L626.554 150.201L598.962 212.722ZM600.522 212.722L627.83 150.699L658.188 201.781L600.522 212.722ZM659.465 197.376L629.249 150.059L707.485 155.743L659.465 197.376ZM707.839 209.454L707.343 209.596C706.775 209.739 705.924 209.81 704.86 209.81C695.568 209.81 668.048 203.7 661.451 201.497L660.387 201.142L708.336 156.525L707.839 209.454ZM683.865 107.218L755.93 136.063L709.329 154.819L683.865 107.218ZM709.329 210.378L709.116 156.525L752.1 188.709L709.329 210.378ZM753.164 188.14L710.676 156.311L757.419 137.271L753.164 188.14ZM757.774 135.566L684.362 106.01L753.944 85.7619L757.774 135.566ZM755.504 83.8437L742.24 35.3898L793.806 30.3454L755.504 83.8437ZM795.296 30.6296L821.894 66.0109L756.71 84.1989L795.296 30.6296ZM802.034 106.152L756.781 85.3356L821.611 67.0056L802.034 106.152ZM803.098 106.365L822.462 67.2187L862.537 105.655L803.098 106.365ZM823.313 66.6503L865.871 53.1515L863.459 104.874L823.313 66.6503ZM864.452 105.087L866.509 53.2225L914.103 72.9025L913.536 73.6129C910.202 77.8757 872.397 102.316 865.375 104.802L864.452 105.087Z" fill="#E4E5E7"/>
<path d="M20.2454 231.692C21.8768 232.047 24.2175 232.402 26.9837 232.829L17.4082 230.91C18.2594 231.195 19.1815 231.479 20.2454 231.692Z" fill="#E4E5E7"/>
<path d="M408.657 48.2493L409.437 29.9902C409.153 30.1323 408.87 30.2744 408.586 30.3455L407.806 48.6755L408.657 48.2493Z" fill="#E4E5E7"/>
<path d="M158.984 94.2165L174.731 115.815C175.298 115.744 175.795 115.602 176.362 115.53L161.183 93.7191C160.474 93.8612 159.694 94.0033 158.984 94.2165Z" fill="#E4E5E7"/>
<path d="M481.218 25.7985L521.152 1.9978C520.229 2.06885 519.307 2.06885 518.385 2.1399L478.665 25.9406C479.516 25.8695 480.367 25.7985 481.218 25.7985Z" fill="#E4E5E7"/>
<path d="M127.065 143.665L84.3656 148.638L103.588 111.978C103.091 112.191 102.595 112.333 102.098 112.547L83.3016 147.928L73.3005 124.553L73.0168 124.696C77.1307 134.855 80.6772 144.304 81.3865 147.786L81.5993 148.709L35.353 143.381C34.9274 143.665 34.4309 143.878 34.0054 144.162L81.1028 149.349L21.5217 187.927L20.8124 152.049C20.4578 152.262 20.174 152.475 19.8194 152.688L20.3159 188.282L0.739258 186.009C0.810188 186.648 0.952049 187.217 1.09391 187.785L18.9682 188.993L13.4357 195.671L14.2869 197.305L20.1031 190.343L30.7426 233.326C31.0972 233.397 31.381 233.397 31.7356 233.468L21.5217 189.419L74.2226 203.273L31.9484 233.539C32.4449 233.61 32.8705 233.681 33.367 233.681L34.36 233.326C36.346 232.687 42.446 227.998 48.9006 223.095C59.3273 215.138 71.1726 206.115 76.3505 205.049L76.7761 204.978L98.2678 239.72C98.5515 239.72 98.8352 239.791 99.048 239.791L76.9179 203.771L108.056 198.3C108.056 197.874 108.056 197.447 108.056 197.021L76.847 202.918L83.3725 150.201L113.092 169.1C113.234 168.745 113.305 168.389 113.447 168.105L85.1458 150.201L126.143 144.802C126.498 144.375 126.782 144.02 127.065 143.665ZM75.9249 202.563L22.231 188.709L82.2377 150.201L75.9249 202.563Z" fill="#E4E5E7"/>
<path d="M111.177 109.065C117.206 115.815 127.278 129.669 132.456 137.626C132.739 137.342 133.023 137.058 133.307 136.844L112.028 108.781C111.744 108.852 111.46 108.994 111.177 109.065Z" fill="#E4E5E7"/>
<path d="M241.476 91.8009L221.615 119.58C222.112 119.793 222.608 120.006 223.034 120.22L243.178 92.0851C242.61 91.943 242.043 91.872 241.476 91.8009Z" fill="#E4E5E7"/>
<path d="M764.37 15.8519L739.616 35.8161L736.92 39.6526L765.931 16.1361C765.434 15.994 764.867 15.923 764.37 15.8519Z" fill="#E4E5E7"/>
<path d="M976.238 69.4211L981.132 75.6733C981.699 75.6022 982.267 75.5312 982.834 75.5312L978.508 70.0606C977.798 69.8474 977.018 69.6343 976.238 69.4211Z" fill="#E4E5E7"/>
<path d="M368.866 47.7518C368.653 47.8229 368.369 47.965 368.156 48.036C372.483 52.0857 377.59 57.2011 382.129 61.9612L382.342 61.8191L368.866 47.7518Z" fill="#E4E5E7"/>
<path d="M354.467 76.2417L356.524 53.0804C356.098 53.2936 355.673 53.4357 355.318 53.6488L353.332 76.8101L354.467 76.2417Z" fill="#E4E5E7"/>
<path d="M95.4309 239.436L115.149 236.523C115.008 236.239 114.937 235.955 114.795 235.671L90.4658 239.081C92.1681 239.152 93.8705 239.294 95.4309 239.436Z" fill="#E4E5E7"/>
<path d="M727.7 31.198C728.196 31.2691 728.622 31.2691 729.118 31.3401L734.083 11.1628C733.587 11.0918 733.09 11.0208 732.594 10.9497L727.7 31.198Z" fill="#E4E5E7"/>
<path d="M923.608 228.069L926.303 232.616C926.729 232.544 927.154 232.545 927.58 232.473L923.608 225.653C923.608 226.434 923.608 227.216 923.608 228.069Z" fill="#E4E5E7"/>
<path d="M465.968 99.0476C462.422 95.14 459.726 91.7298 458.662 89.2432C457.882 89.3142 457.173 89.3142 456.393 89.3853L465.968 99.0476Z" fill="#E4E5E7"/>
<path d="M958.718 64.8031L949.852 79.0125C950.277 78.9414 950.774 78.9414 951.199 78.8704L959.711 65.0873C959.427 65.0162 959.072 64.8741 958.718 64.8031Z" fill="#E4E5E7"/>
<path d="M934.894 96.0846L919.038 90.6898C919.204 91.088 919.317 91.5715 919.483 91.9697L934.843 97.1162C934.848 96.8238 934.905 96.4461 934.894 96.0846Z" fill="#E4E5E7"/>
<path d="M946.639 106.103L949.301 89.5674C948.936 89.7979 948.479 89.9905 948.114 90.221L945.614 106.226C945.903 106.182 946.285 106.175 946.639 106.103Z" fill="#E4E5E7"/>
<path d="M987.426 92.5357L990.088 76C989.723 76.2305 989.265 76.4231 988.901 76.6536L986.4 92.6589C986.689 92.6143 987.071 92.6078 987.426 92.5357Z" fill="#E4E5E7"/>
<path d="M749.83 236.026L753.943 213.291C753.802 211.657 753.66 210.023 753.589 208.389L748.269 236.026H749.83Z" fill="#E4E5E7"/>
<path d="M572.292 0.932129C572.008 0.932129 571.654 0.932129 571.37 0.932129L550.8 24.4486C551.155 24.4486 551.51 24.4486 551.793 24.4486C555.978 18.8359 563.426 10.5234 572.292 0.932129Z" fill="#E4E5E7"/>
<path d="M515.052 2.28199L490.794 25.4432C491.22 25.4432 491.716 25.4432 492.142 25.3722L516.471 2.13989C516.045 2.21094 515.549 2.28199 515.052 2.28199Z" fill="#E4E5E7"/>
<path d="M594.99 0.932129C594.635 0.932129 594.352 0.932129 594.068 0.932129L595.416 24.8038C595.699 24.8038 595.983 24.8038 596.338 24.8038L594.99 0.932129Z" fill="#E4E5E7"/>
<path d="M255.662 94.0033L239.348 129.811C239.56 129.953 239.773 130.166 239.986 130.308L256.655 94.1454C256.371 94.1454 256.016 94.0743 255.662 94.0033Z" fill="#E4E5E7"/>
<path d="M988.934 74.8918L991.133 73.3287C990.565 73.1867 989.927 73.0446 989.289 72.8314L986.026 75.176C987.019 75.0339 988.012 74.9628 988.934 74.8918Z" fill="#E4E5E7"/>
<path d="M983.614 75.3891L979.784 70.2737C979.146 70.1316 978.436 69.9185 977.727 69.7053L982.054 75.4601C982.621 75.5312 983.118 75.4601 983.614 75.3891Z" fill="#E4E5E7"/>
<path d="M968.081 128.319L969.712 123.204C969.429 123.061 969.216 122.919 968.932 122.848L967.372 127.893L949.923 113.825C948.221 113.044 946.589 112.262 944.887 111.552L964.747 127.253L922.899 125.761L913.962 95.4243C913.11 94.5007 912.472 93.6481 911.976 92.7955L921.338 125.548L880.341 121.569C881.05 121.996 881.688 122.351 882.398 122.777L920.771 126.33L903.109 142.457C903.322 142.741 903.464 142.955 903.677 143.239L921.551 126.827L945.242 177.128L915.025 165.903C915.238 166.4 915.38 166.968 915.593 167.466L943.894 178.336L920.629 187.572C920.7 187.998 920.771 188.353 920.842 188.78L944.887 179.615L934.247 225.511L933.538 225.227C931.268 224.374 927.793 223.308 923.679 222.172C923.679 222.456 923.679 222.669 923.679 222.953L933.325 225.866L924.317 232.687C924.885 232.687 925.452 232.687 926.02 232.687L933.68 226.861L934.602 229.916C935.028 229.703 935.453 229.418 935.879 229.205L935.099 226.648L939.425 226.861C939.851 226.506 940.347 226.15 940.844 225.795L935.028 225.44L946.022 180.325L962.761 202.563C962.974 202.279 963.258 201.923 963.471 201.639L947.086 179.615L983.26 171.8C983.402 171.586 983.473 171.373 983.615 171.16C969.429 174.357 952.406 177.483 948.079 177.341H947.086L967.585 129.669L992.836 153.612C992.977 153.327 993.119 153.114 993.19 152.83L969.216 130.024L978.153 127.395C977.373 126.969 976.522 126.614 975.671 126.188L968.081 128.319ZM946.235 176.702L922.473 126.614L967.017 129.314L946.235 176.702Z" fill="#E4E5E7"/>
<path d="M985.104 75.247L985.742 71.9078C985.317 71.7658 984.891 71.6947 984.466 71.5526L983.686 75.3891C984.182 75.3181 984.679 75.3181 985.104 75.247Z" fill="#E4E5E7"/>
<path d="M442.845 30.6297C442.491 24.3065 442.278 18.9069 442.278 15.7809C441.923 15.923 441.498 16.1361 441.143 16.2782L442.349 30.9138L442.845 30.6297Z" fill="#E4E5E7"/>
<path d="M117.064 241.07C116.284 239.294 115.504 237.518 114.865 235.742L116.284 240.999C116.78 241.07 117.064 241.07 117.064 241.07Z" fill="#E4E5E7"/>
<path d="M746.496 236.097L755.93 227.358C755.859 226.932 755.788 226.506 755.646 226.079L745.006 236.097H746.496Z" fill="#E4E5E7"/>
<path d="M471.288 26.2247L446.25 14.2178C445.824 14.3599 445.399 14.573 444.973 14.7151L469.444 26.2957C470.082 26.2957 470.65 26.2247 471.288 26.2247Z" fill="#E4E5E7"/>
<path d="M489.801 25.5142L495.759 3.77393C495.404 3.84497 495.05 3.84497 494.695 3.91602L488.879 25.5853C489.234 25.5142 489.517 25.5142 489.801 25.5142Z" fill="#E4E5E7"/>
<path d="M508.172 24.9459C509.023 24.9459 509.874 24.8749 510.725 24.8749L561.582 3.70295L556.475 24.3776C556.972 24.3776 557.468 24.3776 557.965 24.3776L563.072 3.41876L612.652 19.4043L602.296 24.8749C603.218 24.8749 604.211 24.9459 605.133 24.9459C608.041 23.525 610.453 22.3172 611.8 21.5357L613.29 20.6831L611.871 25.088C612.226 25.088 612.581 25.088 612.935 25.088L614.425 20.541L619.106 25.3012C619.603 25.3012 620.099 25.3012 620.596 25.3722C618.822 23.3829 617.546 21.8909 617.049 21.1094L616.411 20.2568L677.198 10.3813L668.261 27.2905C668.686 27.2905 669.041 27.3615 669.466 27.3615L677.978 10.8076L702.307 29.3508C703.087 29.4219 703.867 29.4219 704.718 29.4929L678.971 10.0972L686.773 5.55017C686.135 5.47912 685.496 5.40807 684.858 5.33703L679.184 8.67622L678.9 4.76865C678.404 4.69761 677.907 4.69761 677.481 4.62656L677.765 8.81832L670.743 4.05819C670.034 3.98714 669.395 3.91609 668.686 3.91609L676.772 9.38669L615.205 19.0491L614.638 1.14527C614.141 1.14527 613.715 1.14527 613.219 1.14527L613.715 18.6938L564.419 3.06353L567.044 1.07422C566.334 1.07422 565.554 1.07422 564.845 1.07422L563.497 1.99783L562.93 1.00317C562.433 1.00317 561.866 1.00317 561.369 1.00317L561.795 1.78469L558.958 1.00317C557.539 1.00317 556.191 1.00317 554.844 1.07422L561.227 2.85039L508.172 24.9459Z" fill="#E4E5E7"/>
<path d="M281.48 226.932L285.877 241.07H287.083L281.054 221.817C281.196 223.522 281.338 225.227 281.48 226.932Z" fill="#E4E5E7"/>
<path d="M242.894 91.9429C241.83 91.8008 240.695 91.6588 239.489 91.5167L197.002 105.229L207.216 89.03C206.791 89.03 206.294 89.03 205.868 88.959L196.293 104.092L194.094 88.959C193.669 88.959 193.172 89.03 192.746 89.03L194.803 104.447L178.49 90.451C177.922 90.522 177.426 90.5931 176.858 90.6641L193.527 105.016L128.555 106.365L128.98 102.884C128.697 102.955 128.342 103.097 128.058 103.168L127.704 106.223L123.448 104.731C123.022 104.873 122.597 105.016 122.171 105.158L126.782 106.721L60.746 163.061L72.4494 124.98C72.0948 125.122 71.7401 125.335 71.3855 125.477L59.8239 162.99L47.1984 136.987C46.8437 137.129 46.4891 137.342 46.2054 137.484L58.9018 163.558L17.9043 176.489L31.6647 145.512C31.0973 145.796 30.6008 146.152 30.1043 146.436L17.1241 175.849L9.53462 159.722C9.10904 160.077 8.68346 160.361 8.25788 160.716L15.7764 176.631L0.242805 174.855C0.242805 175.21 0.171875 175.494 0.171875 175.849L16.6985 177.554L13.8613 196.595L14.4288 197.661L17.195 178.478L73.868 226.861L11.0241 221.106L11.8753 214.996C11.5207 215.351 11.166 215.706 10.8823 216.062L10.3148 219.969L9.39276 219.117C9.03811 220.396 9.03811 221.816 9.39276 223.166L9.81834 222.74L11.7334 227.287C12.5137 228.14 13.5776 228.921 14.7834 229.632L12.0172 222.811L73.7261 228.637L68.2645 237.091C68.761 237.163 69.2576 237.163 69.7541 237.234L74.2936 230.2L75.2157 237.731C75.6412 237.802 76.2087 237.873 76.7761 237.873L75.9959 229.205L87.2028 238.726C87.983 238.797 88.7633 238.868 89.4726 238.939L75.9959 227.642L101.956 189.277L109.546 216.559C109.049 213.504 108.624 210.449 108.411 207.394L108.127 206.257L104.084 188.424L108.765 188.567C108.836 187.998 108.907 187.359 108.978 186.79C107.914 186.648 106.992 186.506 106.425 186.364L105.077 186.009L109.617 182.528C109.688 182.101 109.759 181.675 109.829 181.249L104.084 185.725L127.987 108.213L146.429 126.543C146.855 126.259 147.28 126.045 147.706 125.761L129.903 108.213L193.881 106.436L186.646 114.323C187.214 114.323 187.852 114.252 188.491 114.252L195.371 106.721L211.401 116.312C212.465 116.596 213.529 116.88 214.593 117.165L196.789 106.436L242.894 91.9429ZM17.9753 177.554L59.5402 164.766L74.4354 225.724L17.9753 177.554ZM76.2087 225.724L60.4623 165.263L102.169 187.359L76.2087 225.724ZM102.666 186.506L61.9518 164.34L126.924 109.136L102.666 186.506Z" fill="#E4E5E7"/>
<path d="M910.983 89.2432C910.983 88.5328 911.195 87.8223 911.55 87.1829L910.841 84.6962L912.543 86.0461C912.969 85.6909 913.394 85.2646 913.962 84.9804L911.195 82.7069L930.701 81.357C940.489 80.0782 953.824 78.6573 965.811 77.3784L910.983 81.7123L925.098 55.9933C924.672 55.8513 924.317 55.7802 923.892 55.6381L910.273 80.2913L892.115 47.1125C891.548 46.9704 890.98 46.8283 890.413 46.6152L908.926 80.9308L858.282 67.7161L867.361 40.5052C867.148 40.4341 866.935 40.3631 866.722 40.292L857.431 67.4319L810.475 46.7573L811.184 46.0468C813.312 44.0575 825.086 38.2317 837.854 32.4058C837.712 32.3348 837.499 32.3348 837.357 32.2637L809.34 44.5548L811.752 25.4432C811.255 25.3011 810.759 25.2301 810.262 25.088L807.922 44.9101L776.5 17.9833C775.01 17.6991 773.45 17.415 771.96 17.1308L807.354 46.0468L775.507 69.3501L775.152 68.7107C771.534 62.0323 769.478 20.2568 769.336 16.6334C768.555 16.4914 767.846 16.3493 767.066 16.2072L773.804 69.5633L736.424 53.7909L766.073 16.0651C765.647 15.994 765.222 15.923 764.867 15.8519L736.495 51.8726L735.077 42.5655L733.729 44.4838L734.793 51.9437L730.679 48.8176L729.828 50.0254L733.019 52.5121L727.842 52.8673L726.565 54.6435L733.09 54.2882L719.188 65.3715L716.351 69.4922L734.438 55.1408L735.573 97.6978L683.723 95.4953L715.429 70.2738C714.932 70.3448 714.081 70.4158 712.875 70.4869L681.95 95.0691L665.636 74.2524C665.211 74.2524 664.785 74.3234 664.289 74.3234L680.744 95.3533L642.229 120.717L650.032 75.4602C649.535 75.5312 649.039 75.5312 648.542 75.6023L641.52 120.504L600.168 79.2967C599.671 79.3677 599.104 79.3677 598.607 79.4388L639.96 120.504L555.908 117.094L592.578 79.8651C592.082 79.9361 591.585 79.9361 591.089 80.0072L554.986 116.17L552.432 82.849C552.077 82.849 551.723 82.9201 551.368 82.9201L553.851 116.596L513.279 85.6199C512.711 85.6909 512.144 85.6909 511.576 85.7619L552.432 116.738L472.849 129.385L502.923 86.4014C502.498 86.4014 502.143 86.4724 501.717 86.4724C500.724 87.9644 499.731 89.5985 498.596 91.3036C489.659 105.087 477.459 124.056 471.217 127.68L470.579 128.035L470.295 127.324C469.09 124.625 467.174 120.717 464.976 116.17C462.919 111.978 460.72 107.431 458.521 102.813L470.012 129.172L426.035 116.667L438.802 90.5221C438.448 90.5221 438.093 90.5931 437.739 90.5931L425.255 116.312L382.626 97.9109L396.386 92.7956C394.897 92.8666 393.478 92.9377 392.06 93.0087L381.562 96.9163L382.413 93.506C382.129 93.506 381.775 93.506 381.491 93.5771L380.782 96.5611L378.157 93.7192C377.661 93.7192 377.235 93.7902 376.739 93.7902L379.86 97.1294L334.394 100.895L335.316 95.0691C335.032 95.0691 334.748 95.0691 334.536 95.0691L333.755 99.8292L329.641 95.0691C329.074 95.0691 328.507 95.0691 327.939 95.0691L332.479 100.327L274.954 88.888C274.174 89.2432 273.394 89.5985 272.614 89.8827L333.259 101.605L315.668 143.168L266.514 92.5114C266.088 92.7245 265.734 92.8666 265.379 93.0087L314.108 143.807L242.54 132.298C242.894 132.582 243.178 132.866 243.462 133.15L313.54 144.802L267.152 166.968C267.365 167.466 267.578 167.963 267.791 168.46L313.257 147.288L279.707 211.088C279.991 213.078 280.274 215.138 280.558 217.127L328.223 234.605L323.045 240.573H325.031L329.003 236.097L331.06 240.502H332.479C331.769 238.37 331.273 236.665 331.202 235.742L331.131 234.96L376.881 238.868L376.455 240.004H377.59L377.803 239.507L378.299 240.004H379.647L378.512 238.939L415.892 212.58L414.119 239.649H415.467L417.453 212.438L449.087 239.294H450.861L419.226 212.367L494.553 206.684L471.217 239.081H472.636L495.334 207.323L505.264 238.726H506.328L496.256 206.897L538.743 216.914L528.883 238.512H529.947L539.31 217.98L557.894 238.228H559.809L540.658 217.412L616.198 221.888L589.528 237.873H592.507L617.546 222.669L617.758 237.589H619.39L619.106 222.385L667.977 237.092L671.452 237.021L620.028 221.603L659.607 184.73L671.878 237.092H674.786L720.039 194.748L723.586 236.594C722.806 228.921 722.522 220.04 722.238 212.154C722.025 206.115 721.813 200.431 721.458 196.453L721.316 195.103L754.086 215.635C754.086 215.351 754.015 215.067 754.015 214.783C743.375 208.957 727.274 198.158 722.947 194.606L722.096 193.895L754.937 180.751C755.079 179.899 755.221 179.117 755.362 178.265L722.664 190.059L711.457 134.997L760.682 158.159C760.824 157.874 760.895 157.519 761.037 157.235L712.166 134.358L776.003 113.683L778.273 130.45C778.698 130.024 779.124 129.669 779.55 129.243L777.705 114.678L786.997 123.346C787.352 123.133 787.706 122.848 788.061 122.635L778.556 113.754L802.034 115.744C802.885 115.459 803.737 115.104 804.659 114.82L780.188 112.76L817.001 91.5167L840.833 110.912C841.542 110.984 842.181 110.984 842.89 111.055L818.277 91.5167L856.367 69.2791L852.536 112.191C852.891 112.262 853.246 112.333 853.6 112.404L857.998 68.5686L907.933 82.4227L860.268 113.825C860.764 113.968 861.332 114.11 861.828 114.252L909.209 83.2753L910.983 89.2432ZM772.457 70.5579L736.495 96.7031L735.786 54.7856L772.457 70.5579ZM680.673 96.7742L708.549 131.871L643.08 121.57L680.673 96.7742ZM639.747 121.783L596.125 168.46L558.248 119.154L639.747 121.783ZM554.347 118.586L594.352 169.242L540.161 171.089L554.347 118.586ZM470.579 130.166L442.42 167.395L426.035 117.804L470.579 130.166ZM441.214 168.034L396.174 153.967L424.758 118.23L441.214 168.034ZM381.207 98.1241L384.47 111.339C383.264 105.868 382.555 101.534 382.626 99.7582L382.697 98.7635L424.049 116.525L396.67 152.333L396.174 151.551C394.684 149.207 391.705 139.757 388.939 129.456L394.471 152.12L335.954 102.529L381.207 98.1241ZM334.039 102.316L393.975 153.47L316.165 144.376L334.039 102.316ZM393.691 154.393L351.772 184.304L316.59 145.299L393.691 154.393ZM315.172 145.939L350.14 184.588L280.345 214.499L315.172 145.939ZM280.842 215.778L350.211 186.009L329.145 234.25L280.842 215.778ZM375.604 236.878C374.895 237.163 374.682 237.305 374.54 237.376C374.185 237.589 374.043 237.589 373.547 237.589C373.192 237.589 372.554 237.589 371.277 237.66L354.538 236.381C351.984 236.168 349.431 235.955 346.948 235.813C341.841 235.457 336.593 235.102 331.131 234.25L330.28 234.108L351.062 186.506L376.313 236.665L375.604 236.878ZM378.37 237.518L377.945 237.092C372.554 230.982 364.255 212.296 358.155 198.584C356.382 194.606 354.822 191.124 353.616 188.496L352.906 187.004L415.821 211.088L378.37 237.518ZM352.694 185.227L394.613 154.89L416.247 209.668L352.694 185.227ZM396.032 154.89L440.93 169.029L417.736 209.596L396.032 154.89ZM418.587 210.591L441.782 169.668L493.206 204.836L418.587 210.591ZM442.562 168.816L470.934 131.232L494.624 204.197L442.562 168.816ZM472.21 131.445L538.317 171.16L496.398 205.049L472.21 131.445ZM497.532 206.115L538.672 172.794L539.097 216.346L497.532 206.115ZM473.133 130.664L553.212 118.017L539.452 170.592L473.133 130.664ZM540.516 215.28L540.019 172.155L593.642 170.379L540.516 215.28ZM619.532 220.253L619.106 219.685C615.489 214.996 609.389 200.502 604.495 188.851C601.232 181.036 598.182 173.718 597.189 172.723L595.77 171.231L617.971 221.106L541.651 216.346L595.345 170.308L595.699 171.16L659.111 183.096L619.532 220.253ZM596.763 169.668L640.74 122.848L660.033 182.243L596.763 169.668ZM642.087 122.209L708.832 133.861L660.671 182.315L642.087 122.209ZM672.8 236.878L661.168 183.664L718.975 193.895L672.8 236.878ZM719.898 193.327L662.09 182.812L709.826 134.713L719.898 193.327ZM710.535 132.724L683.014 97.2715L734.296 98.1951L710.535 132.724ZM712.308 132.511L735.928 98.4793L775.577 112.191L712.308 132.511ZM737.417 97.8399L773.166 71.4815L776.5 111.836L737.417 97.8399ZM778.202 111.552L774.301 71.5526L815.653 90.5931L778.202 111.552ZM775.294 70.9842L806.787 47.4677L816.362 89.5274L775.294 70.9842ZM817.923 89.8116L808.56 47.3256L856.296 67.7871L817.923 89.8116Z" fill="#E4E5E7"/>
<path d="M389.932 57.9115L391.066 57.3432L394.755 42.0681L406.529 49.3859L407.735 48.7465L395.535 41.1445L423.694 23.738C421.141 24.8037 418.516 26.0115 415.679 27.2193L394.542 40.363L393.123 37.0238C392.84 37.1659 392.627 37.2369 392.343 37.379C392.698 38.4447 392.911 39.2973 392.982 39.7946L393.052 40.363L373.76 45.4783C370.497 46.8993 367.234 48.3202 363.971 49.7412L393.833 41.4997L389.932 57.9115Z" fill="#E4E5E7"/>
<path d="M326.024 90.9483L310.561 73.2577C310.206 73.3998 309.781 73.6129 309.426 73.755L324.818 91.5878L326.024 90.9483Z" fill="#E4E5E7"/>
<path d="M336.805 85.3356L340.919 59.9009C340.635 60.043 340.423 60.114 340.139 60.2561L335.954 85.7619L336.805 85.3356Z" fill="#E4E5E7"/>
<path d="M733.161 31.6243L730.04 10.5234C729.543 10.4524 728.976 10.3813 728.479 10.3103L731.6 31.4822C732.097 31.5533 732.664 31.5533 733.161 31.6243Z" fill="#E4E5E7"/>
<path d="M359.361 73.684L344.891 58.1958C344.465 58.4089 344.04 58.551 343.614 58.7642L358.226 74.3234L359.361 73.684Z" fill="#E4E5E7"/>
<path d="M507.604 2.7793H507.321C506.257 9.67083 504.838 17.6281 503.349 25.088H503.561L507.604 2.7793Z" fill="#E4E5E7"/>
<path d="M339.288 60.6824C338.862 60.8245 338.508 61.0376 338.082 61.1797L351.842 77.5915L352.835 77.0942L339.288 60.6824Z" fill="#E4E5E7"/>
<path d="M521.79 1.92676L534.416 24.5196C534.912 24.5196 535.409 24.5196 535.905 24.5196L523.209 1.85571C522.783 1.92676 522.287 1.92676 521.79 1.92676Z" fill="#E4E5E7"/>
<path d="M558.39 1.07422C557.965 1.07422 557.61 1.07422 557.255 1.07422L546.048 24.4486C546.403 24.4486 546.758 24.4486 547.041 24.4486L558.39 1.07422Z" fill="#E4E5E7"/>
<path d="M484.978 5.05273C484.41 5.12378 483.772 5.19483 483.204 5.33692L460.081 26.5089L459.939 9.95496C459.443 10.0971 458.875 10.2391 458.379 10.3812V25.5142L449.087 13.2231C448.591 13.3652 448.165 13.5783 447.668 13.7204L457.599 26.9351C458.804 26.8641 460.081 26.793 461.5 26.722L484.978 5.05273Z" fill="#E4E5E7"/>
<path d="M116.851 240.644L116.426 241.07C116.851 241.07 117.064 241.141 117.064 241.141C116.993 240.928 116.922 240.786 116.851 240.644Z" fill="#E4E5E7"/>
<path d="M446.462 28.9245L451.073 26.58L419.084 30.4165L418.871 29.9192C418.587 29.2797 418.374 27.9299 418.091 26.0116C417.665 26.1537 417.31 26.3668 416.885 26.5089L417.098 29.635L414.544 27.5036C414.189 27.6457 413.835 27.8588 413.409 28.0009L415.821 29.9902L401.635 33.2584C399.081 34.3951 396.528 35.5319 393.833 36.6686L415.75 31.7664L394.684 55.7091L400.287 52.7962L418.516 33.1873L420.148 42.5655L421.992 41.6419L420.644 32.4058L446.462 28.9245Z" fill="#E4E5E7"/>
<path d="M974.322 68.9238C973.542 68.7107 972.833 68.4976 972.053 68.3555L968.364 77.0232C968.719 76.9521 969.145 76.9521 969.499 76.8811L972.833 69.208L977.443 76.0996C977.94 76.0285 978.507 75.9575 979.004 75.9575L974.322 68.9238Z" fill="#E4E5E7"/>
<path d="M577.257 24.5197C577.47 24.5197 577.612 24.5197 577.825 24.5197C575.909 18.8359 573.923 12.5838 571.796 6.04749C571.228 4.27133 570.661 2.5662 570.164 0.932129C569.739 0.932129 569.313 0.932129 568.816 0.932129L577.257 24.5197Z" fill="#E4E5E7"/>
<path d="M328.648 65.3004C328.222 65.5136 327.797 65.6556 327.371 65.8688L323.257 92.3692L324.889 91.5167L328.648 65.3004Z" fill="#E4E5E7"/>
<path d="M711.102 26.8642L712.024 26.58L717.982 8.9604C717.485 8.88935 716.989 8.81831 716.492 8.74726L710.676 25.3012L695.497 6.33167C694.859 6.26062 694.22 6.18958 693.582 6.11853L709.399 25.7985L703.158 29.3508C704.292 29.4219 705.427 29.4929 706.562 29.564L709.825 27.6457L709.612 29.7771C709.967 29.7771 710.321 29.8481 710.747 29.8481L710.889 28.5693L711.74 29.9192C712.237 29.9192 712.662 29.9902 713.159 29.9902L711.102 26.8642Z" fill="#E4E5E7"/>
<path d="M176.787 115.388L170.474 91.7299C170.049 91.8009 169.694 91.8719 169.269 91.943L175.439 115.602C175.865 115.531 176.291 115.459 176.787 115.388Z" fill="#E4E5E7"/>
<path d="M281.977 238.157C281.977 238.726 281.977 239.294 281.977 239.791L283.111 240.999H284.672L281.977 238.157Z" fill="#E4E5E7"/>
<path d="M175.156 115.673L150.685 96.2769C150.047 96.4189 149.408 96.6321 148.841 96.7742L173.312 116.028C173.95 115.886 174.517 115.815 175.156 115.673Z" fill="#E4E5E7"/>
<path d="M920.983 190.556C921.125 191.266 921.196 192.048 921.338 192.758L946.234 221.106C946.518 220.822 946.873 220.538 947.156 220.182L920.983 190.556Z" fill="#E4E5E7"/>
<path d="M181.256 114.82C182.887 114.607 184.519 114.465 186.15 114.394L224.027 100.753L217.572 118.088C217.927 118.23 218.281 118.301 218.707 118.443L225.232 100.753L244.383 134.145C245.164 134.855 245.873 135.566 246.582 136.347L226.722 100.398L275.947 109.563L251.193 141.392C251.547 141.818 251.973 142.315 252.328 142.741L276.444 110.202L300.985 172.368L255.236 146.507C255.803 147.217 256.3 147.999 256.796 148.709L300.915 173.363L276.515 195.387C276.657 195.884 276.727 196.311 276.869 196.808L301.34 174.713L314.746 218.051L280.132 214.783C280.203 215.138 280.203 215.422 280.274 215.778L315.101 219.046L310.632 240.786H311.98L315.952 219.472L356.524 239.649L355.176 240.289L359.999 240.218L359.574 240.076L408.515 215.067L411.069 239.72H411.92L409.65 215.28L498.241 222.101L461.713 239.152L465.472 239.081L498.809 223.948L497.674 225.795C494.908 230.271 491.929 234.605 488.879 238.868H490.155L500.866 224.09L503.206 238.726H504.838L502.426 223.522L524.698 238.513H526.684L505.618 224.161L505.831 223.664L505.902 223.522L505.973 223.451C507.888 220.04 548.602 209.241 553.85 209.312H554.418L557.893 238.086H559.525L555.695 208.673L608.183 229.419L596.408 237.66H598.394L608.608 230.413L608.183 237.518H609.459L609.814 229.134L623.362 227.784C617.758 228.211 613.361 228.282 611.658 227.998L610.736 227.784L634.072 189.277L665.636 221.461L664.785 221.888C662.302 223.024 652.514 224.658 641.945 225.937L665.068 223.664L649.96 237.163H651.805L666.274 224.303L662.941 237.021H663.934L667.196 224.658L673.509 236.878H674.715L667.835 223.806L725.004 210.023L710.322 236.523H712.095L726.423 210.591L739.474 236.168H740.821L727.841 210.875L754.298 216.346C754.227 215.849 754.227 215.422 754.156 214.925L727.983 209.241L754.369 185.725C754.44 185.156 754.511 184.588 754.582 183.949L728.125 207.465L733.019 131.942L760.54 158.443C760.682 158.017 760.824 157.661 760.966 157.235L733.729 131.232L788.983 121.925C789.763 121.427 790.614 120.93 791.465 120.433L733.374 130.237L749.262 89.5274L794.728 118.728C795.083 118.515 795.508 118.372 795.863 118.159L750.326 89.1722L785.436 64.8742L796.714 117.733C797.211 117.52 797.778 117.236 798.275 117.023L786.926 64.7321L827.852 84.6962L800.261 116.241C800.828 116.028 801.467 115.815 802.034 115.602L828.065 85.6199L836.648 110.628C837.073 110.628 837.57 110.628 837.995 110.628L829.271 85.5488L872.538 99.6871L864.594 114.962C864.949 115.104 865.303 115.175 865.658 115.317L873.248 100.682L904.882 134.997L897.86 136.276C898.073 136.56 898.286 136.774 898.57 137.058C900.839 136.774 902.967 136.56 904.811 136.56H905.379L907.649 150.272C908.145 151.125 908.571 151.907 908.996 152.759L906.443 136.56L949.497 161.214L918.714 179.615C918.855 180.112 918.926 180.609 919.068 181.036L949.781 162.492L950.916 216.559C951.483 215.92 952.122 215.28 952.689 214.641L951.199 162.564L979.501 178.052C979.784 177.625 979.997 177.199 980.281 176.844L952.831 162.208L992.622 153.896C992.906 153.327 993.19 152.83 993.403 152.262L951.483 161L951.696 119.722L996.878 141.392C996.878 140.894 996.878 140.397 996.807 139.971L953.256 119.083L958.434 118.088C957.725 117.733 957.016 117.449 956.306 117.094L951.909 117.946L952.973 115.531C952.689 115.388 952.476 115.317 952.192 115.175L951.199 117.591L948.008 113.257C947.44 112.973 946.802 112.689 946.234 112.476L950.348 117.875L907.081 134.5L914.316 96.0637C913.819 95.5664 913.394 95.0691 912.968 94.5718L905.804 134.074L874.028 99.7582L916.515 75.0339L914.812 84.6252C915.38 84.341 915.947 84.1279 916.657 83.9147L918.288 75.3891L923.679 82.4938C924.104 82.4228 924.601 82.3517 925.097 82.2807L919.565 74.8208L971.485 68.4265C970.351 68.1424 969.145 67.7871 967.868 67.5029L918.004 73.3288V72.6183C917.791 66.2951 916.515 59.9009 915.167 53.5778C914.742 53.4357 914.245 53.3646 913.819 53.2225L917.721 72.4762L870.41 48.0361L876.652 43.276C876.085 43.1339 875.517 42.9918 874.95 42.8497L870.127 46.5441L870.481 41.713C869.985 41.5709 869.559 41.4288 869.063 41.3577L868.637 46.6862L850.976 36.4555C849.415 36.0292 847.855 35.6029 846.294 35.1767L867.928 47.894L829.058 83.7726L822.178 28.5693C821.823 28.4983 821.469 28.4272 821.185 28.2851L828.065 83.7016L787.21 63.3112L815.369 26.4379C814.943 26.3669 814.518 26.2248 814.163 26.1537L787.068 61.8192L767.704 16.4203C767.136 16.3493 766.64 16.2072 766.073 16.1361L785.72 62.8138L749.901 87.6092L764.37 15.8519C764.086 15.7809 763.874 15.7809 763.59 15.7098L749.12 86.5435L727.699 52.9383L726.848 54.1461L747.844 87.6092L705.144 82.0675L706.35 71.0553C705.995 71.0553 705.64 71.1263 705.215 71.1263L704.08 81.7123L683.439 72.8315C682.73 72.9025 682.021 72.9735 681.311 72.9735L703.441 82.2807L654.713 142.457L653.649 75.176C653.152 75.247 652.727 75.247 652.23 75.3181L653.365 142.599L610.878 102.884L637.406 76.4548C636.909 76.5259 636.342 76.5259 635.845 76.5969L610.452 101.676L600.097 79.2967C599.671 79.2967 599.246 79.3677 598.891 79.3677L609.388 102.245L608.537 102.387C607.473 102.6 567.753 112.76 563.284 113.968L561.936 114.323L577.47 81.0018C577.186 81.0018 576.832 81.0729 576.548 81.0729L561.653 113.896L553.638 82.7069C553.354 82.7069 552.999 82.778 552.716 82.778L560.943 114.607L515.548 94.856L519.875 85.1225C519.591 85.1225 519.379 85.1936 519.095 85.1936L515.406 93.7902L512.144 85.6199C511.718 85.6199 511.292 85.6909 510.867 85.6909L514.555 94.6428L469.231 88.5328L469.302 88.4617C468.238 88.5328 467.245 88.6038 466.181 88.6749L468.238 89.1722L464.55 133.861L432.986 90.7352C432.56 90.7352 432.135 90.8063 431.709 90.8063L463.344 134.429L394.045 130.664L415.253 91.8009C414.899 91.8009 414.473 91.872 414.119 91.872L393.194 129.953L392.556 129.243C388.158 124.482 372.412 103.95 366.808 94.1455C366.383 94.1455 365.886 94.2165 365.461 94.2165L391.563 129.598L322.052 117.023L356.736 94.5718C355.814 94.5718 354.821 94.6428 353.899 94.6428L321.555 115.744L324.534 94.998C324.038 94.998 323.47 94.998 322.974 94.998L319.711 116.099L278.501 108.994L310.703 73.2577C309.426 73.8261 308.22 74.3234 307.015 74.8918L277.508 107.858L277.082 107.005C275.593 104.092 273.394 97.5557 271.337 90.5931C271.124 90.7352 270.84 90.8063 270.627 90.9484C272.259 97.2715 274.174 103.168 276.444 106.223L277.011 107.005L276.018 107.218C266.726 109.421 237.645 101.961 228.07 99.0477L226.864 98.6925L236.156 91.2326C235.375 91.1615 234.524 91.0194 233.744 90.9484L226.013 96.9873L227.218 90.3089C226.722 90.2379 226.154 90.2379 225.658 90.1669L224.31 97.4136L220.054 89.7406C219.416 89.6695 218.707 89.6695 217.998 89.5985L222.608 97.982L199.91 89.0301C199.272 89.0301 198.705 89.0301 198.066 89.0301C197.641 89.0301 197.144 89.0301 196.719 89.0301L222.821 99.9003L181.256 114.82ZM950.987 118.87L950.419 160.077L907.649 135.708L950.987 118.87ZM917.082 73.1867L874.311 98.3372L869.346 48.6755L917.082 73.1867ZM868.212 48.4624L872.822 98.5504L829.697 84.4121L868.212 48.4624ZM303.113 174.926L359.219 180.823L316.377 217.696L303.113 174.926ZM316.874 218.833L359.928 181.675L357.162 239.152L316.874 218.833ZM409.083 213.007L408.728 213.717L408.09 213.22C404.543 210.52 399.152 207.181 393.478 203.557C391.208 202.137 388.868 200.645 386.598 199.153L408.16 214.072L358.297 238.939L361.063 181.391L371.986 188.922C368.227 186.009 365.319 183.167 363.9 180.68L363.404 179.828L424.262 168.318L424.333 169.029C424.545 171.658 423.198 176.844 421.212 182.812L426.602 167.963L470.011 183.309L410.076 213.22L417.24 193.682C414.19 201.852 410.856 209.454 409.083 213.007ZM412.203 214.215L471.643 184.446L500.298 220.467L412.203 214.215ZM502.072 221.035L472.99 184.304L531.295 158.727L502.072 221.035ZM502.852 221.532L533.139 159.082L554.631 207.891L502.852 221.532ZM555.482 207.039L534.132 158.088L593.358 161.356L555.482 207.039ZM556.333 207.891L594.209 162.279L608.608 228.637L556.333 207.891ZM609.743 227.713L595.486 162.137L633.788 187.998L609.743 227.713ZM667.125 222.03L635.774 188.709L687.34 179.331L667.125 222.03ZM667.977 222.385L688.192 179.828L725.075 208.531L667.977 222.385ZM726.21 207.82L688.972 179.117L730.962 133.008L726.21 207.82ZM748.695 89.0301L732.735 128.816L705.569 83.3464L748.695 89.0301ZM704.009 83.4885L731.601 129.74L655.493 143.523L704.009 83.4885ZM730.537 131.516L688.262 178.194L655.067 144.802L730.537 131.516ZM653.932 144.944L686.773 178.052L635.491 187.359L653.932 144.944ZM610.24 103.737L611.091 104.447C613.148 106.366 616.056 108.852 619.39 111.765C631.802 122.564 648.755 137.342 651.521 143.949L651.805 144.66L651.095 144.873C648.258 145.725 644.144 147.075 639.321 148.567C634.923 149.988 630.029 151.622 625.206 153.114L652.869 145.37L634.356 187.217L596.054 161.285L609.247 157.59C603.856 158.869 599.387 159.509 596.692 159.153L595.983 159.011L610.24 103.737ZM608.679 103.666L594.919 159.295L562.504 116.241L608.679 103.666ZM561.156 116.241L593.216 159.295L592.365 159.58C586.549 161.498 544.062 158.372 535.621 156.88L534.628 156.738L561.156 116.241ZM517.18 96.8453L560.731 115.46L534.345 155.317L533.777 154.464C530.373 149.207 525.62 131.019 521.79 116.383C519.52 107.715 517.18 98.8346 516.399 97.911L517.18 96.8453ZM468.947 89.3853L513.279 95.2822L466.252 134.287L468.947 89.3853ZM514.201 96.419L532.571 156.667L465.968 135.921L514.201 96.419ZM531.295 157.093L473.061 183.096L465.401 137.484L531.295 157.093ZM463.911 137.058L471.572 183.096L427.808 167.679L463.911 137.058ZM462.847 136.205L426.815 166.897L394.755 132.156L462.847 136.205ZM392.84 131.729L425.326 167.182L362.411 179.97L392.84 131.729ZM392.059 131.161L360.779 179.615L321.484 118.941L392.059 131.161ZM319.711 118.799L359.432 179.402L302.333 173.505L319.711 118.799ZM319.285 117.591L302.12 171.942L277.65 110.273L319.285 117.591Z" fill="#E4E5E7"/>
<path d="M130.754 139.402L126.64 103.595C126.214 103.737 125.718 103.879 125.292 104.021L129.406 140.823C129.832 140.326 130.328 139.899 130.754 139.402Z" fill="#E4E5E7"/>
<path d="M634.001 1.71364C633.434 1.71364 632.795 1.6426 632.228 1.6426L619.106 11.5891L617.191 1.14527C616.552 1.14527 615.985 1.14527 615.347 1.07422L617.262 11.9444L594.493 0.861084C593.784 0.861084 593.075 0.861084 592.365 0.861084L617.474 13.0101L609.247 25.088C609.601 25.088 609.885 25.088 610.24 25.088L617.829 13.7205L626.695 25.5143C627.121 25.5143 627.617 25.5143 628.043 25.5854L618.751 13.3653L634.001 1.71364Z" fill="#E4E5E7"/>
<path d="M753.447 14.0046C746.709 16.136 738.126 18.4095 730.678 20.3988C722.521 22.5303 714.861 24.5906 713.726 25.3721L712.095 26.5799L754.865 14.2888C754.369 14.1467 753.872 14.0757 753.447 14.0046Z" fill="#E4E5E7"/>
<path d="M664.572 3.56079C664.076 3.48975 663.508 3.48975 663.012 3.4187L658.756 26.7931C659.323 26.7931 659.962 26.8641 660.529 26.8641L664.572 3.56079Z" fill="#E4E5E7"/>
<path d="M9.60537 191.053C10.3856 190.982 10.8821 190.911 10.8821 190.911L11.024 191.195L28.7564 162.563L57.9086 196.524L10.2437 217.127C9.81816 217.767 9.53444 218.477 9.39258 219.259L57.7667 198.158L42.304 234.747C42.6587 234.818 43.0133 234.818 43.4389 234.889L59.3272 198.584L74.4353 237.802C74.9318 237.873 75.4283 237.873 75.9248 237.944L60.1074 196.95L103.871 190.414L93.7991 239.436C94.2247 239.436 94.5793 239.507 95.0049 239.507L104.935 190.059L108.553 192.048C108.553 191.764 108.623 191.48 108.623 191.195L104.864 189.206L110.255 180.112C110.397 179.331 110.609 178.478 110.822 177.696L104.58 188.638L78.9038 143.736L126.852 144.376C127.207 143.949 127.562 143.523 127.916 143.097L79.3294 142.386L98.0549 114.394C97.4875 114.607 96.92 114.82 96.3526 115.104L78.3364 142.599L64.576 128.816C64.0795 129.029 63.583 129.243 63.1574 129.456L77.1306 143.239L29.6076 160.29L32.8704 145.086C32.0901 145.228 31.6646 145.512 31.239 145.725L27.9053 161.143L13.2228 157.022C12.7972 157.377 12.3716 157.661 12.017 157.945L27.7634 162.421L9.60537 191.053ZM78.5492 144.731L103.446 188.851L59.6109 195.529L78.5492 144.731ZM77.0597 144.66L58.4051 195.316L30.1041 161.569L77.0597 144.66Z" fill="#E4E5E7"/>
<path d="M161.75 119.154L178.135 90.451C177.497 90.5221 176.858 90.6642 176.149 90.7352L159.126 120.078C160.048 119.793 160.899 119.509 161.75 119.154Z" fill="#E4E5E7"/>
<path d="M944.674 79.5809L967.442 67.0767C966.804 66.9346 966.094 66.7214 965.385 66.5083L940.772 80.0072C942.049 79.8651 943.326 79.723 944.674 79.5809Z" fill="#E4E5E7"/>
<path d="M917.304 85.7776L934.668 105.097C934.661 104.443 934.707 103.704 934.753 102.965L916 82.0762C916.429 83.287 916.858 84.4978 917.304 85.7776Z" fill="#E4E5E7"/>
<path d="M964.304 82.7776L981.668 102.097C981.661 101.443 981.707 100.704 981.753 99.965L963 79.0762C963.429 80.287 963.858 81.4978 964.304 82.7776Z" fill="#E4E5E7"/>
<path d="M956.152 91.9058L940.014 112.261C940.658 112.144 941.394 112.066 942.131 111.987L959.583 90C958.461 90.6261 957.339 91.2522 956.152 91.9058Z" fill="#E4E5E7"/>
<path d="M621.234 25.4433L618.255 1.21631C617.758 1.21631 617.262 1.21631 616.765 1.14526L619.531 25.3722C620.099 25.3722 620.666 25.3722 621.234 25.4433Z" fill="#E4E5E7"/>
<path d="M987.232 75.0339C987.516 74.1813 987.799 73.3288 988.154 72.4762C987.941 72.4052 987.657 72.3341 987.445 72.2631L986.452 75.1049C986.664 75.1049 986.948 75.1049 987.232 75.0339Z" fill="#E4E5E7"/>
<path d="M424.687 23.3828C424.191 23.596 423.623 23.8801 423.056 24.0933L443.554 30.2744L445.044 29.4928L424.687 23.3828Z" fill="#E4E5E7"/>
<path d="M720.039 9.24451C719.755 9.24451 719.472 9.17346 719.259 9.17346L721.245 30.7006C721.529 30.7006 721.812 30.7717 722.096 30.7717L720.039 9.24451Z" fill="#E4E5E7"/>
<path d="M695.852 6.40271C695.498 6.40271 695.214 6.33167 694.859 6.33167C692.519 7.82365 690.107 9.24458 687.837 10.6655C680.673 15.0704 673.864 19.2622 673.084 20.3989L671.878 22.033L695.852 6.40271Z" fill="#E4E5E7"/>
<path d="M55.497 236.026L109.758 181.746C109.9 180.965 110.042 180.183 110.255 179.401L54.7168 235.955C54.9296 235.955 55.2133 235.955 55.497 236.026Z" fill="#E4E5E7"/>
<path d="M113.163 168.887L100.538 113.115C100.041 113.328 99.6156 113.47 99.1191 113.683L112.383 171.16C112.667 170.45 112.88 169.668 113.163 168.887Z" fill="#E4E5E7"/>
<path d="M410.288 29.635C409.934 29.7771 409.579 29.9192 409.153 30.1323L413.835 45.6205L415.041 44.9811L410.288 29.635Z" fill="#E4E5E7"/>
<path d="M9.53516 218.548L17.1956 212.296C13.2235 213.291 10.5282 215.706 9.53516 218.548Z" fill="#E4E5E7"/>
<path d="M154.728 122.067L143.947 98.1951C143.521 98.3372 143.167 98.4082 142.741 98.5503L153.593 122.635C153.948 122.422 154.303 122.209 154.728 122.067Z" fill="#E4E5E7"/>
<path d="M149.409 124.767L105.219 111.339C104.652 111.552 104.084 111.765 103.588 111.978L148.132 125.548C148.486 125.264 148.912 125.051 149.409 124.767Z" fill="#E4E5E7"/>
<path d="M117.064 241.07C116.923 240.715 116.781 240.36 116.568 240.004L73.0879 237.589C95.9273 239.578 117.064 241.07 117.064 241.07Z" fill="#E4E5E7"/>
<path d="M20.5998 209.596L38.1194 195.316L51.9508 235.671C52.5182 235.742 53.0147 235.742 53.5822 235.813L39.0415 194.179L110.61 177.839C110.752 177.199 110.893 176.631 111.035 175.991L38.6869 193.043L54.2205 151.196L111.106 175.565C111.248 175.068 111.39 174.641 111.461 174.144L55.2135 150.272L94.4378 115.602C93.0901 116.17 91.6715 116.738 90.3238 117.307L54.788 149.065L54.3624 148.78C52.1636 147.43 48.8299 143.239 45.3543 138.194L53.2984 150.557L1.30685 168.673C1.16499 169.242 1.02314 169.81 0.881276 170.308L53.2275 151.622L36.9136 192.9L0.526625 171.8C0.455695 172.155 0.384766 172.51 0.384766 172.936L37.3392 193.895L19.8905 208.318L20.5998 209.596Z" fill="#E4E5E7"/>
<path d="M677.268 27.7878L671.098 22.5303L671.878 22.033L672.445 4.2713C671.949 4.20025 671.452 4.20025 670.956 4.12921L670.246 21.2515L642.371 2.1399C641.52 2.06885 640.598 2.06885 639.747 1.9978L669.182 22.033L664.43 27.0773C665.281 27.1484 666.133 27.1484 666.984 27.2194L670.246 23.6671L670.956 27.4325C671.31 27.4325 671.736 27.5036 672.091 27.5036L671.452 24.2354L675.424 27.6457C675.992 27.7167 676.63 27.7878 677.268 27.7878Z" fill="#E4E5E7"/>
<path d="M457.031 10.7366L462.422 26.6511C462.847 26.6511 463.273 26.58 463.699 26.58L458.237 10.3813C457.882 10.5234 457.457 10.5945 457.031 10.7366Z" fill="#E4E5E7"/>
<path d="M382.981 61.535L365.816 49.0308C365.177 49.3149 364.468 49.5991 363.83 49.8833L370.497 67.9292L371.135 67.574C368.582 60.3272 366.667 54.5014 366.17 52.37L365.745 50.5938L381.633 62.1744L382.981 61.535Z" fill="#E4E5E7"/>
<path d="M281.692 230.058C281.763 230.697 281.763 231.266 281.763 231.905L288.998 240.999H290.346L281.692 230.058Z" fill="#E4E5E7"/>
<path d="M218.281 118.301L219.629 118.088V118.728C220.054 118.87 220.409 119.012 220.834 119.154L220.905 117.591L279.493 102.103L245.731 135.282C245.944 135.495 246.156 135.637 246.369 135.85C246.937 135.211 247.575 134.571 248.142 133.932C258.569 123.062 270.414 110.77 279.139 104.66L280.699 103.595L264.173 160.787C264.456 161.356 264.811 161.995 265.095 162.563L282.118 101.392L312.83 155.033L272.4 180.183C272.471 180.396 272.542 180.609 272.613 180.823L311.554 157.874L281.267 222.953C281.338 223.948 281.479 225.014 281.55 226.008L313.469 157.874L322.548 221.817L281.621 226.932C281.692 227.429 281.692 227.927 281.692 228.424L322.69 223.38L322.477 240.431H323.186L323.399 224.374L342.408 240.218H344.252L325.101 224.09L396.173 215.209L389.151 239.791H390.428L397.095 215.564L437.312 239.294H439.795L399.01 215.422L465.33 199.437L439.795 239.294H441.284L466.606 199.934L485.828 238.797H487.46L468.167 200.005L536.898 199.508L491.716 238.797H493.489L537.394 201.142L532.004 238.37H533.28L539.168 200.858L571.015 237.944H572.505L539.877 199.65L597.543 185.512L575.555 237.873H576.831L598.607 186.222L627.121 237.376H628.61L599.742 185.654L643.931 199.224L634.284 237.234H635.136L644.569 200.36L684.077 221.959L683.368 222.598C681.311 224.445 672.445 228.85 662.727 233.113L684.219 224.161L676.559 236.807H677.977L685.567 224.445L686.063 236.736H686.985L686.489 224.587L698.263 236.594H699.753L686.843 223.522L737.487 193.682L728.337 236.239H729.898L738.906 193.824L753.518 209.028C753.518 208.46 753.447 207.82 753.447 207.252L740.396 193.682L753.588 192.474C753.588 191.977 753.659 191.48 753.659 190.982L739.97 192.119L760.114 159.011C760.965 156.738 761.887 154.535 762.88 152.333L739.544 190.414L722.308 116.738L769.406 140.681C769.619 140.326 769.902 140.042 770.115 139.686L722.876 115.815L779.478 87.5381L770.895 138.621C771.321 138.052 771.676 137.555 772.101 137.058L780.896 87.9644L801.041 115.886C801.395 115.744 801.75 115.602 802.175 115.46L781.535 87.1118L836.647 95.9927L830.264 110.557C830.618 110.557 831.044 110.557 831.399 110.557L837.215 97.1294L842.322 110.841C842.747 110.841 843.244 110.913 843.669 110.984L838.279 96.9163L908.996 113.044L891.405 129.811C891.689 130.095 892.044 130.379 892.327 130.664L908.641 114.678L912.968 161.569C913.535 162.99 914.032 164.34 914.528 165.761L910.556 114.181L957.866 143.452L919.635 184.375C919.706 184.801 919.848 185.298 919.919 185.725L958.505 144.66L975.102 184.73C975.457 184.162 975.812 183.593 976.166 183.025L959.711 144.376L993.473 151.622C993.615 151.338 993.757 151.054 993.828 150.77L960.42 143.523L984.607 130.735C984.252 130.521 983.898 130.379 983.543 130.166L960.491 142.315L968.435 122.706C968.08 122.493 967.655 122.351 967.3 122.138L959.64 140.681L950.774 114.323C950.064 113.968 949.355 113.683 948.646 113.328L957.937 141.818L911.053 112.973L921.621 101.25C921.196 101.037 920.77 100.753 920.416 100.54L909.847 112.191L889.561 70.2738L935.169 80.7176C936.588 80.5755 938.077 80.3624 939.567 80.2203L932.97 58.1958C932.615 58.1248 932.261 57.9827 931.906 57.9116L938.361 80.3624L890.341 69.4922L911.833 52.5831C911.195 52.441 910.627 52.2279 909.989 52.0858L889.419 68.1424L887.008 45.9047C886.511 45.7626 886.015 45.6205 885.518 45.4784L888.142 68.0713L847.783 44.5548L854.664 37.166C854.309 37.0949 853.954 36.9528 853.6 36.8818L847.712 43.276L843.953 34.182C843.386 34.0399 842.747 33.8268 842.18 33.6847L846.365 43.9154L800.97 42.9918L811.184 25.3722C810.829 25.3012 810.474 25.1591 810.12 25.088L800.118 42.0682L790.614 20.7542C790.188 20.6831 789.763 20.6121 789.408 20.541L799.267 42.7787L754.227 35.1767L761.604 15.3546C761.249 15.2836 760.894 15.2125 760.54 15.1415L753.659 33.7557L734.65 11.1628C733.941 11.0918 733.232 10.9497 732.451 10.8787L752.595 35.1056L725.5 69.2791L724.365 57.2722L723.514 58.48L724.436 68.4976L719.471 64.2348L718.62 65.5136L723.585 69.7764L681.098 76.9522L680.318 72.9735C679.963 72.9735 679.609 73.0446 679.183 73.0446L679.892 76.9522L658.968 74.6787C657.195 74.8207 655.422 74.9628 653.577 75.1049L679.467 77.7337L650.315 149.491L627.05 77.1653C626.553 77.2363 626.057 77.2363 625.56 77.3074L649.038 150.059L596.834 124.411L622.368 77.5916C622.014 77.5916 621.659 77.6626 621.233 77.6626L596.479 123.417L563.213 86.1172L588.96 80.1493C586.761 80.2914 584.563 80.5045 582.293 80.6466L563.355 85.1225L564.277 81.9965C563.851 81.9965 563.496 82.0675 563.071 82.0675L562.858 82.6359L562.22 82.4228C562.007 82.3517 561.794 82.2807 561.581 82.1386C560.801 82.2096 560.092 82.2807 559.312 82.2807L560.872 84.4121L546.473 83.2043C543.352 83.4174 540.302 83.6305 537.182 83.8437L561.581 86.0461L553.212 149.349L514.271 85.4778C513.917 85.4778 513.562 85.5488 513.136 85.5488L552.715 150.272L503.561 144.589L510.654 85.6909C510.228 85.6909 509.874 85.762 509.448 85.762L503.064 143.594L475.544 109.207L504.412 86.1172C503.632 86.1882 502.851 86.1882 502.071 86.2593L475.118 107.929L472.777 88.1775C472.635 88.1775 472.564 88.1775 472.423 88.1775C473.274 96.5611 473.841 103.737 473.983 107.218L474.054 108.142L431.07 96.9873L434.83 90.5221C434.404 90.5221 433.908 90.5931 433.482 90.5931L430.716 95.2822L429.368 90.8773C428.801 90.8773 428.233 90.9484 427.737 90.9484L428.943 94.7849L423.907 91.1615C423.197 91.2326 422.417 91.2326 421.708 91.3036L428.801 96.49L389.647 113.825L389.293 113.399C387.945 111.765 384.54 103.453 380.71 93.435C380.497 93.435 380.285 93.435 380.072 93.435L387.59 113.612L347.87 97.0584L348.721 94.5718C348.153 94.5718 347.515 94.5718 346.948 94.6428L346.522 95.7795L345.671 94.7138C345.316 94.7138 344.962 94.7138 344.607 94.7138L345.174 95.4954L337.798 97.0584C336.024 97.2005 333.897 97.2715 331.981 97.2715C331.201 97.2715 330.421 97.2715 329.712 97.2715L283.607 99.2608L295.665 79.723C294.885 80.0782 294.105 80.4334 293.325 80.7887L281.55 99.0477L269.705 91.0905C269.067 91.3746 268.499 91.6588 267.932 91.872L279.848 100.042L221.26 116.028L233.389 90.7352C233.034 90.7352 232.751 90.6642 232.396 90.6642L220.267 116.312L219.629 115.886C214.309 112.262 199.201 98.2662 190.547 89.1722C190.193 89.1722 189.838 89.2432 189.483 89.2432L218.21 117.378L216.153 117.662C216.862 117.875 217.572 118.088 218.281 118.301ZM314.32 157.661L355.034 184.091L324.037 221.106L314.32 157.661ZM324.888 222.243L356.169 185.085L395.038 214.001L324.888 222.243ZM396.811 213.859L396.031 213.362C389.364 209.383 360.637 188.709 358.013 183.735L357.729 183.167L409.082 156.098L396.811 213.859ZM397.804 214.286L409.933 155.885L465.188 197.732L397.804 214.286ZM411.636 155.885L456.747 152.972L466.181 196.808L411.636 155.885ZM468.025 196.666L457.527 152.901L501.646 145.654L468.025 196.666ZM685.709 222.101L646.059 199.366L692.66 175.352L685.709 222.101ZM686.631 222.172L693.582 175.565L737.204 192.261L686.631 222.172ZM738.126 191.266L694.149 174.641L720.89 118.301L738.126 191.266ZM888.852 70.629L909.421 112.12L839.697 95.7085L840.832 94.8559C844.379 92.1562 850.691 89.1722 856.295 86.4724C859.132 85.1225 861.827 83.8437 863.884 82.7069L866.367 81.3571C873.247 77.5916 881.83 72.9025 888.284 70.8421L888.852 70.629ZM887.859 69.2791L838.633 94.6428L847.641 45.6916L887.859 69.2791ZM846.719 44.9811L837.499 93.9323L801.253 44.1285L846.719 44.9811ZM836.435 94.7849L781.393 86.2593L800.048 44.4838L836.435 94.7849ZM799.622 43.7023L781.251 84.341L754.652 36.5265L799.622 43.7023ZM753.163 37.0949L779.903 85.4067L726.564 70.5579L753.163 37.0949ZM779.336 86.4014L722.308 114.891L725.642 71.2684L779.336 86.4014ZM725.146 71.0553L721.457 113.825L682.233 78.231L725.146 71.0553ZM680.744 78.7994L720.606 115.033L651.733 150.415L680.744 78.7994ZM720.039 116.951L693.156 173.931L651.662 151.622L720.039 116.951ZM691.809 174.286L645.42 198.158L650.74 152.191L691.809 174.286ZM597.968 125.974C600.522 127.182 603.997 128.745 608.04 130.521C623.078 137.2 643.576 146.436 648.116 151.978L648.612 152.546L647.974 152.972C645.491 154.606 641.945 157.093 637.831 159.935C634.072 162.564 629.816 165.547 625.631 168.389L649.818 152.901L644.286 198.3L600.096 184.659L611.658 177.27C606.835 180.041 602.792 182.03 600.096 182.386L599.387 182.528L597.046 125.406L597.968 125.974ZM598.394 183.167L554.914 151.48L595.415 125.974L598.394 183.167ZM562.574 87.0408L595.628 124.34L594.848 124.767C593.925 125.264 558.886 146.578 554.914 148.994L553.708 149.775L562.574 87.0408ZM553.637 151.693L596.834 183.522L596.053 184.091C591.017 187.643 549.452 197.021 541.012 198.016L540.019 198.158L553.637 151.693ZM505.901 146.081L552.999 151.125L539.309 196.95L538.529 196.311C533.777 192.261 523.918 176.276 515.973 163.416C511.292 155.814 506.469 147.928 505.405 147.288L505.901 146.081ZM538.033 198.726L468.238 198.3L502.922 146.436L538.033 198.726ZM474.55 110.415L502.639 144.731L457.527 152.12L474.55 110.415ZM473.274 108.994L456.96 151.48L430.929 97.982L473.274 108.994ZM456.109 151.978L410.501 154.535L429.936 99.474L456.109 151.978ZM428.872 98.3372L409.792 153.683L391.633 115.246L428.872 98.3372ZM389.86 116.667L408.657 153.683L357.8 182.457L389.86 116.667ZM356.027 183.664L315.313 156.738L386.81 116.17L356.027 183.664ZM386.456 114.465L315.809 154.535L346.097 98.3372L386.456 114.465ZM345.6 97.5557L313.894 154.89L282.898 100.398L345.6 97.5557Z" fill="#E4E5E7"/>
<path d="M920.842 189.774L970.776 191.337C970.989 191.053 971.131 190.769 971.344 190.556L920.629 188.425C920.7 188.922 920.771 189.348 920.842 189.774Z" fill="#E4E5E7"/>
<path d="M947.44 219.898L921.409 193.54C921.551 194.321 921.622 195.103 921.693 195.884L946.447 220.822C946.802 220.538 947.157 220.254 947.44 219.898Z" fill="#E4E5E7"/>
<path d="M512.498 2.42407C512.072 2.42407 511.576 2.49512 511.15 2.49512L518.243 24.7328C518.74 24.7328 519.236 24.7328 519.733 24.7328L512.498 2.42407Z" fill="#E4E5E7"/>
<path d="M559.312 1.00318L571.228 24.4486C571.867 24.4486 572.576 24.4486 573.214 24.4486L561.014 0.932129C560.447 1.00318 559.879 1.00318 559.312 1.00318Z" fill="#E4E5E7"/>
<path d="M603.146 0.932129L585.981 24.6617C586.478 24.6617 586.904 24.6617 587.4 24.6617L604.494 0.932129C603.998 0.932129 603.572 0.932129 603.146 0.932129Z" fill="#E4E5E7"/>
<path d="M324.25 67.2188C323.896 67.3608 323.541 67.5029 323.187 67.645L336.947 85.1936L337.798 84.7673L324.25 67.2188Z" fill="#E4E5E7"/>
<path d="M363.617 50.0254C363.191 50.1675 362.837 50.3806 362.411 50.5227L353.119 76.9521L354.892 76.0285L363.617 50.0254Z" fill="#E4E5E7"/>
<path d="M539.026 1.3584C538.813 1.3584 538.53 1.3584 538.317 1.3584C531.153 11.3049 522.783 21.962 520.584 24.0223L519.875 24.7328C520.584 24.7328 521.223 24.7328 521.932 24.7328L539.026 1.3584Z" fill="#E4E5E7"/>
<path d="M481.573 5.55017C481.148 5.62122 480.722 5.69226 480.296 5.76331L470.65 26.2958C471.075 26.2958 471.43 26.2248 471.856 26.2248L481.573 5.55017Z" fill="#E4E5E7"/>
<path d="M260.626 195.818C260.626 156.458 228.779 124.487 189.413 124.487C150.118 124.487 118.199 156.387 118.199 195.818C118.199 235.178 150.047 267.149 189.413 267.149C228.708 267.149 260.626 235.249 260.626 195.818Z" fill="#E4E5E7"/>
<path d="M263.109 195.818C263.109 155.037 230.127 122 189.413 122C148.699 122 115.717 155.037 115.717 195.818C115.717 236.598 148.699 269.635 189.413 269.635C230.127 269.635 263.109 236.598 263.109 195.818Z" fill="url(#paint0_radial_1291_9861)"/>
<path d="M189.342 140.617C219.778 140.617 244.451 165.33 244.451 195.818C244.451 226.305 219.778 251.018 189.342 251.018C158.907 251.018 134.233 226.305 134.233 195.818C134.233 165.33 158.907 140.617 189.342 140.617Z" fill="url(#paint1_radial_1291_9861)" stroke="#F3F2F2"/>
<path d="M203.103 195.818C203.103 188.216 197.003 182.106 189.413 182.106C181.824 182.106 175.724 188.216 175.724 195.818C175.724 203.42 181.824 209.53 189.413 209.53C196.932 209.53 203.103 203.42 203.103 195.818Z" fill="url(#paint2_radial_1291_9861)"/>
<path d="M910.91 189.818C910.91 150.458 879.062 118.487 839.696 118.487C800.401 118.487 768.482 150.387 768.482 189.818C768.482 229.178 800.33 261.149 839.696 261.149C878.991 261.149 910.91 229.249 910.91 189.818Z" fill="#E4E5E7"/>
<path d="M913.392 189.818C913.392 149.037 880.41 116 839.696 116C798.982 116 766 149.037 766 189.818C766 230.598 798.982 263.635 839.696 263.635C880.41 263.635 913.392 230.598 913.392 189.818Z" fill="url(#paint3_radial_1291_9861)"/>
<path d="M839.626 134.617C870.061 134.617 894.735 159.33 894.735 189.818C894.735 220.305 870.061 245.018 839.626 245.018C809.19 245.018 784.517 220.305 784.517 189.818C784.517 159.33 809.19 134.617 839.626 134.617Z" fill="url(#paint4_radial_1291_9861)" stroke="#F3F2F2"/>
<path d="M853.386 189.818C853.386 182.216 847.286 176.106 839.696 176.106C832.107 176.106 826.007 182.216 826.007 189.818C826.007 197.42 832.107 203.53 839.696 203.53C847.215 203.53 853.386 197.42 853.386 189.818Z" fill="url(#paint5_radial_1291_9861)"/>
<path d="M319.285 96.2768L441.214 90.4509L376.1 83.0621L450.364 28.6403L319.285 96.2768Z" fill="#E4E5E7"/>
<path d="M329.216 94.5007L451.144 88.6748L385.96 81.2149L460.294 26.7931L329.216 94.5007Z" fill="#E4E5E7"/>
</g>
<defs>
<radialGradient id="paint0_radial_1291_9861" cx="0" cy="0" r="1" gradientUnits="userSpaceOnUse" gradientTransform="translate(189.39 195.826) scale(73.7117 73.8332)">
<stop offset="0.773" stop-color="#F3F2F2"/>
<stop offset="1" stop-color="white"/>
</radialGradient>
<radialGradient id="paint1_radial_1291_9861" cx="0" cy="0" r="1" gradientUnits="userSpaceOnUse" gradientTransform="translate(189.39 195.826) scale(55.5821 55.6737)">
<stop stop-color="#F3F2F2"/>
<stop offset="1" stop-color="white"/>
</radialGradient>
<radialGradient id="paint2_radial_1291_9861" cx="0" cy="0" r="1" gradientUnits="userSpaceOnUse" gradientTransform="translate(189.39 195.826) scale(13.6965 13.7191)">
<stop stop-color="#F3F2F2"/>
<stop offset="1" stop-color="white"/>
</radialGradient>
<radialGradient id="paint3_radial_1291_9861" cx="0" cy="0" r="1" gradientUnits="userSpaceOnUse" gradientTransform="translate(839.673 189.826) scale(73.7117 73.8332)">
<stop offset="0.773" stop-color="#F3F2F2"/>
<stop offset="1" stop-color="white"/>
</radialGradient>
<radialGradient id="paint4_radial_1291_9861" cx="0" cy="0" r="1" gradientUnits="userSpaceOnUse" gradientTransform="translate(839.673 189.826) scale(55.5821 55.6737)">
<stop stop-color="#F3F2F2"/>
<stop offset="1" stop-color="white"/>
</radialGradient>
<radialGradient id="paint5_radial_1291_9861" cx="0" cy="0" r="1" gradientUnits="userSpaceOnUse" gradientTransform="translate(839.674 189.826) scale(13.6965 13.7191)">
<stop stop-color="#F3F2F2"/>
<stop offset="1" stop-color="white"/>
</radialGradient>
<clipPath id="clip0_1291_9861">
<rect width="997" height="270" fill="white"/>
</clipPath>
</defs>
</svg>
