<svg width="21" height="22" viewBox="0 0 21 22" fill="none" xmlns="http://www.w3.org/2000/svg">
<path d="M20.0086 15.0378C20.0091 14.0395 19.8375 13.0486 19.5011 12.1087L18.3588 8.90954C18.1934 8.44852 17.8898 8.04975 17.4894 7.76766C17.089 7.48557 16.6113 7.3339 16.1215 7.33333H10.4373C9.94756 7.3339 9.46988 7.48557 9.06948 7.76766C8.66908 8.04975 8.36548 8.44852 8.2001 8.90954L7.05772 12.1095C6.72133 13.0491 6.54966 14.0398 6.55026 15.0378V18.4167H8.1336V20H11.3003V18.4167H15.2586V20H18.4253V18.4167H20.0086V15.0378ZM10.4373 8.91667H16.1215C16.2849 8.91664 16.4442 8.96715 16.5777 9.06126C16.7112 9.15537 16.8124 9.28848 16.8673 9.44233L17.8109 12.0833H8.74793L9.6916 9.44233C9.74648 9.28848 9.84762 9.15537 9.98113 9.06126C10.1146 8.96715 10.274 8.91664 10.4373 8.91667ZM18.4253 16.8333H8.1336V15.0378C8.13333 14.5775 8.17788 14.1183 8.2666 13.6667H9.71693V14.4583C9.71693 14.6683 9.80034 14.8697 9.9488 15.0181C10.0973 15.1666 10.2986 15.25 10.5086 15.25C10.7186 15.25 10.9199 15.1666 11.0684 15.0181C11.2169 14.8697 11.3003 14.6683 11.3003 14.4583V13.6667H15.2586V14.4583C15.2586 14.6683 15.342 14.8697 15.4905 15.0181C15.6389 15.1666 15.8403 15.25 16.0503 15.25C16.2602 15.25 16.4616 15.1666 16.6101 15.0181C16.7585 14.8697 16.8419 14.6683 16.8419 14.4583V13.6667H18.2923C18.381 14.1183 18.4255 14.5775 18.4253 15.0378V16.8333ZM4.17527 8.125V7.33333H2.72968C2.63978 7.7849 2.59365 8.24408 2.59193 8.7045V10.5H5.7586V13.6667H2.59193V12.0833H1.0086C1.0561 10.2625 0.79564 7.48296 1.51606 5.77612L2.65843 2.57621C2.82317 2.11493 3.12651 1.71587 3.52688 1.43369C3.92725 1.15152 4.40507 1.00004 4.89489 1H10.5806C11.0705 1.00004 11.5483 1.15152 11.9487 1.43369C12.349 1.71587 12.6524 2.11493 12.8171 2.57621L13.9508 5.75H12.2693L11.3256 3.109C11.2708 2.95528 11.1697 2.82226 11.0364 2.72816C10.903 2.63406 10.7439 2.58347 10.5806 2.58333H4.89568C4.73233 2.58331 4.57298 2.63382 4.43946 2.72793C4.30595 2.82204 4.20482 2.95515 4.14993 3.109L3.20626 5.75H10.4373C9.82359 5.7511 9.21847 5.89469 8.66965 6.16944C8.12082 6.4442 7.64329 6.84262 7.27464 7.33333H5.7586V8.125C5.7586 8.33496 5.67519 8.53633 5.52672 8.68479C5.37826 8.83326 5.17689 8.91667 4.96693 8.91667C4.75697 8.91667 4.55561 8.83326 4.40714 8.68479C4.25867 8.53633 4.17527 8.33496 4.17527 8.125Z" fill="#39629C"/>
</svg>
