<svg width="23" height="20" viewBox="0 0 23 20" fill="none" xmlns="http://www.w3.org/2000/svg">
<g clip-path="url(#clip0_16_1093)">
<path d="M14.8039 4.10125C16.6238 4.10125 18.4053 4.08843 20.1804 4.10766C21.7696 4.12047 22.9872 5.35085 22.9936 6.94008C23.0064 10.3428 23 13.752 22.9936 17.1548C22.9872 18.7824 21.7504 20 20.1163 20C14.695 20 9.26722 20 3.84588 20C2.19256 19.9936 0.962188 18.776 0.95578 17.1163C0.949371 12.3742 0.949371 7.63217 0.95578 2.8901C0.962188 1.21756 2.18615 0 3.8651 0C6.54373 0 9.21595 0 11.8946 0C13.5671 0 14.7911 1.22397 14.8039 2.89651C14.8039 3.29382 14.8039 3.69112 14.8039 4.10125ZM13.2339 18.4492C13.2403 18.3723 13.2467 18.3146 13.2467 18.2634C13.2531 13.1432 13.2595 8.02307 13.2595 2.90932C13.2595 2.07626 12.7148 1.54438 11.8818 1.54438C9.20314 1.54438 6.53092 1.54438 3.85229 1.54438C3.74976 1.54438 3.64082 1.54438 3.54469 1.5636C2.88465 1.68536 2.49375 2.19801 2.49375 2.93496C2.49375 7.64499 2.49375 12.355 2.49375 17.065C2.49375 17.1291 2.49375 17.1932 2.50016 17.2573C2.5322 17.7892 2.89106 18.289 3.41012 18.398C3.76898 18.4748 4.14706 18.4556 4.53797 18.4813C4.53797 18.3339 4.53797 18.2377 4.53797 18.1416C4.53797 17.001 4.53797 15.8667 4.53797 14.726C4.53797 13.8609 5.06985 13.3291 5.92854 13.3291C7.22941 13.3291 8.52387 13.3227 9.82473 13.3291C10.6706 13.3291 11.2025 13.8674 11.2089 14.7132C11.2089 15.8731 11.2089 17.0394 11.2089 18.1993C11.2089 18.2826 11.2089 18.3659 11.2089 18.4556C11.901 18.4492 12.5546 18.4492 13.2339 18.4492ZM14.8103 18.4556C14.9257 18.4556 15.0026 18.4556 15.0795 18.4556C16.7264 18.4556 18.3797 18.4556 20.0266 18.4556C20.943 18.4556 21.4556 17.943 21.4556 17.0266C21.4556 13.7007 21.4556 10.3813 21.4556 7.05543C21.462 6.15187 20.943 5.63922 20.0266 5.63922C18.431 5.63922 16.8417 5.63922 15.2461 5.63922C14.8616 5.63922 14.8167 5.68408 14.8167 6.06216C14.8167 10.1057 14.8167 14.1493 14.8167 18.1929C14.8103 18.2698 14.8103 18.3467 14.8103 18.4556ZM9.65171 18.4492C9.65171 17.2445 9.65171 16.0654 9.65171 14.8798C8.45338 14.8798 7.27427 14.8798 6.08875 14.8798C6.08875 16.0782 6.08875 17.2573 6.08875 18.4492C7.28708 18.4492 8.45978 18.4492 9.65171 18.4492Z" fill="#39629C"/>
<path d="M9.94008 5.38266C9.37616 5.38906 8.91477 4.93408 8.90195 4.37657C8.89554 3.80624 9.35693 3.33203 9.92726 3.33203C10.4848 3.33203 10.9526 3.79983 10.9526 4.35734C10.959 4.90845 10.4976 5.37625 9.94008 5.38266Z" fill="#39629C"/>
<path d="M9.92726 8.45895C9.36334 8.45895 8.90195 8.00397 8.90195 7.44005C8.89554 6.86972 9.36975 6.39551 9.94008 6.40192C10.4976 6.40833 10.959 6.87613 10.959 7.43364C10.9526 7.99756 10.4848 8.45895 9.92726 8.45895Z" fill="#39629C"/>
<path d="M9.92726 11.5346C9.36334 11.5346 8.90195 11.0797 8.90195 10.5157C8.89554 9.9454 9.36975 9.4712 9.93367 9.4776C10.4912 9.48401 10.9526 9.95181 10.9526 10.5093C10.9526 11.0732 10.4912 11.5346 9.92726 11.5346Z" fill="#39629C"/>
<path d="M6.84492 4.351C6.84492 4.92133 6.39635 5.37631 5.83243 5.38272C5.2685 5.38272 4.80711 4.92774 4.80711 4.36382C4.80711 3.79349 5.25569 3.33851 5.81961 3.3321C6.38353 3.32569 6.84492 3.78708 6.84492 4.351Z" fill="#39629C"/>
<path d="M6.84492 7.43358C6.84492 8.00391 6.38994 8.45889 5.82602 8.45889C5.2621 8.45889 4.80711 8.00391 4.80711 7.43358C4.80711 6.86325 5.2621 6.40826 5.82602 6.40186C6.38994 6.40826 6.84492 6.86325 6.84492 7.43358Z" fill="#39629C"/>
<path d="M4.80711 10.5221C4.8007 9.95175 5.24927 9.49036 5.81319 9.48395C6.37712 9.47755 6.83851 9.93253 6.84491 10.5029C6.85132 11.0732 6.39634 11.5346 5.83242 11.5346C5.2685 11.541 4.80711 11.086 4.80711 10.5221Z" fill="#39629C"/>
<path d="M18.1362 8.2089C18.4694 8.2089 18.809 8.20249 19.1423 8.2089C19.5908 8.21531 19.9112 8.52931 19.9176 8.95225C19.9241 9.3816 19.6229 9.72765 19.1807 9.74046C18.4758 9.75969 17.7709 9.75969 17.0724 9.74046C16.6302 9.72765 16.3291 9.3752 16.3419 8.94585C16.3547 8.5229 16.6687 8.21531 17.1237 8.2089C17.4633 8.20249 17.7965 8.2089 18.1362 8.2089Z" fill="#39629C"/>
<path d="M18.1554 11.2851C18.4822 11.2851 18.809 11.2787 19.1358 11.2851C19.5844 11.2915 19.9048 11.6055 19.9176 12.0284C19.9241 12.4578 19.6293 12.8038 19.1807 12.8166C18.4758 12.8359 17.7709 12.8359 17.0724 12.8166C16.6302 12.8038 16.3291 12.4514 16.3419 12.0284C16.3547 11.6055 16.6687 11.2979 17.1237 11.2915C17.4697 11.2787 17.8093 11.2851 18.1554 11.2851Z" fill="#39629C"/>
<path d="M18.1298 14.3608C18.463 14.3608 18.8026 14.3544 19.1358 14.3608C19.5844 14.3672 19.9112 14.6748 19.9176 15.0977C19.9305 15.5335 19.6165 15.8795 19.1615 15.8923C18.4758 15.9115 17.7837 15.9051 17.098 15.8923C16.6431 15.8795 16.3291 15.5399 16.3419 15.1041C16.3483 14.6812 16.6687 14.3736 17.1173 14.3608C17.1301 14.3608 17.1493 14.3608 17.1621 14.3608C17.4889 14.3608 17.8093 14.3608 18.1298 14.3608Z" fill="#39629C"/>
</g>
<defs>
<clipPath id="clip0_16_1093">
<rect width="22.0442" height="20" fill="white" transform="translate(0.95578)"/>
</clipPath>
</defs>
</svg>
