<svg width="34" height="28" viewBox="0 0 34 28" fill="none" xmlns="http://www.w3.org/2000/svg">
<g clip-path="url(#clip0_476_1625)">
<path d="M19.8261 8.10125C21.646 8.10125 23.4275 8.08843 25.2026 8.10766C26.7918 8.12047 28.0094 9.35085 28.0158 10.9401C28.0286 14.3428 28.0222 17.752 28.0158 21.1548C28.0094 22.7824 26.7726 24 25.1385 24C19.7171 24 14.2894 24 8.86805 24C7.21473 23.9936 5.98436 22.776 5.97795 21.1163C5.97154 16.3742 5.97154 11.6322 5.97795 6.8901C5.98436 5.21756 7.20833 4 8.88727 4C11.5659 4 14.2381 4 16.9168 4C18.5893 4 19.8133 5.22397 19.8261 6.89651C19.8261 7.29382 19.8261 7.69112 19.8261 8.10125ZM18.2561 22.4492C18.2625 22.3723 18.2689 22.3146 18.2689 22.2634C18.2753 17.1432 18.2817 12.0231 18.2817 6.90932C18.2817 6.07626 17.737 5.54438 16.9039 5.54438C14.2253 5.54438 11.5531 5.54438 8.87446 5.54438C8.77193 5.54438 8.66299 5.54438 8.56686 5.5636C7.90682 5.68536 7.51592 6.19801 7.51592 6.93496C7.51592 11.645 7.51592 16.355 7.51592 21.065C7.51592 21.1291 7.51592 21.1932 7.52233 21.2573C7.55437 21.7892 7.91323 22.289 8.43229 22.398C8.79115 22.4748 9.16924 22.4556 9.56014 22.4813C9.56014 22.3339 9.56014 22.2377 9.56014 22.1416C9.56014 21.001 9.56014 19.8667 9.56014 18.726C9.56014 17.8609 10.092 17.3291 10.9507 17.3291C12.2516 17.3291 13.546 17.3227 14.8469 17.3291C15.6928 17.3291 16.2247 17.8674 16.2311 18.7132C16.2311 19.8731 16.2311 21.0394 16.2311 22.1993C16.2311 22.2826 16.2311 22.3659 16.2311 22.4556C16.9232 22.4492 17.5768 22.4492 18.2561 22.4492ZM19.8325 22.4556C19.9478 22.4556 20.0247 22.4556 20.1016 22.4556C21.7485 22.4556 23.4019 22.4556 25.0488 22.4556C25.9651 22.4556 26.4778 21.943 26.4778 21.0266C26.4778 17.7007 26.4778 14.3813 26.4778 11.0554C26.4842 10.1519 25.9651 9.63922 25.0488 9.63922C23.4531 9.63922 21.8639 9.63922 20.2682 9.63922C19.8837 9.63922 19.8389 9.68408 19.8389 10.0622C19.8389 14.1057 19.8389 18.1493 19.8389 22.1929C19.8325 22.2698 19.8325 22.3467 19.8325 22.4556ZM14.6739 22.4492C14.6739 21.2445 14.6739 20.0654 14.6739 18.8798C13.4755 18.8798 12.2964 18.8798 11.1109 18.8798C11.1109 20.0782 11.1109 21.2573 11.1109 22.4492C12.3093 22.4492 13.482 22.4492 14.6739 22.4492Z" fill="#39629C"/>
<path d="M14.962 9.3829C14.3981 9.38931 13.9367 8.93433 13.9239 8.37681C13.9175 7.80648 14.3789 7.33228 14.9492 7.33228C15.5067 7.33228 15.9745 7.80007 15.9745 8.35759C15.9809 8.90869 15.5195 9.37649 14.962 9.3829Z" fill="#39629C"/>
<path d="M14.9492 12.4588C14.3853 12.4588 13.9239 12.0038 13.9239 11.4399C13.9175 10.8696 14.3917 10.3954 14.962 10.4018C15.5195 10.4082 15.9809 10.876 15.9809 11.4335C15.9745 11.9974 15.5067 12.4588 14.9492 12.4588Z" fill="#39629C"/>
<path d="M14.9492 15.5348C14.3853 15.5348 13.9239 15.0798 13.9239 14.5159C13.9175 13.9455 14.3917 13.4713 14.9556 13.4777C15.5131 13.4841 15.9745 13.9519 15.9745 14.5094C15.9745 15.0734 15.5131 15.5348 14.9492 15.5348Z" fill="#39629C"/>
<path d="M11.8669 8.35118C11.8669 8.92151 11.4183 9.3765 10.8544 9.38291C10.2905 9.38291 9.8291 8.92792 9.8291 8.364C9.8291 7.79367 10.2777 7.33869 10.8416 7.33228C11.4055 7.32587 11.8669 7.78726 11.8669 8.35118Z" fill="#39629C"/>
<path d="M11.8669 11.4335C11.8669 12.0038 11.4119 12.4588 10.848 12.4588C10.2841 12.4588 9.8291 12.0038 9.8291 11.4335C9.8291 10.8632 10.2841 10.4082 10.848 10.4018C11.4119 10.4082 11.8669 10.8632 11.8669 11.4335Z" fill="#39629C"/>
<path d="M9.82917 14.5223C9.82276 13.9519 10.2713 13.4905 10.8353 13.4841C11.3992 13.4777 11.8606 13.9327 11.867 14.503C11.8734 15.0734 11.4184 15.5348 10.8545 15.5348C10.2906 15.5412 9.82917 15.0862 9.82917 14.5223Z" fill="#39629C"/>
<path d="M23.1585 12.2089C23.4917 12.2089 23.8313 12.2025 24.1645 12.2089C24.6131 12.2153 24.9335 12.5293 24.9399 12.9523C24.9463 13.3816 24.6452 13.7276 24.203 13.7405C23.4981 13.7597 22.7932 13.7597 22.0947 13.7405C21.6525 13.7276 21.3513 13.3752 21.3642 12.9458C21.377 12.5229 21.691 12.2153 22.146 12.2089C22.4856 12.2025 22.8188 12.2089 23.1585 12.2089Z" fill="#39629C"/>
<path d="M23.1777 15.2848C23.5045 15.2848 23.8313 15.2784 24.1581 15.2848C24.6067 15.2912 24.9271 15.6052 24.9399 16.0282C24.9463 16.4575 24.6516 16.8036 24.203 16.8164C23.4981 16.8356 22.7932 16.8356 22.0947 16.8164C21.6525 16.8036 21.3513 16.4511 21.3642 16.0282C21.377 15.6052 21.691 15.2976 22.146 15.2912C22.492 15.2784 22.8316 15.2848 23.1777 15.2848Z" fill="#39629C"/>
<path d="M23.152 18.3608C23.4853 18.3608 23.8249 18.3544 24.1581 18.3608C24.6067 18.3672 24.9335 18.6748 24.9399 19.0977C24.9527 19.5335 24.6387 19.8795 24.1838 19.8923C23.4981 19.9116 22.806 19.9052 22.1203 19.8923C21.6653 19.8795 21.3513 19.5399 21.3641 19.1041C21.3706 18.6812 21.691 18.3736 22.1395 18.3608C22.1524 18.3608 22.1716 18.3608 22.1844 18.3608C22.5112 18.3608 22.8316 18.3608 23.152 18.3608Z" fill="#39629C"/>
</g>
<defs>
<clipPath id="clip0_476_1625">
<rect width="22.0442" height="20" fill="white" transform="translate(5.97803 4)"/>
</clipPath>
</defs>
</svg>
