<svg width="45" height="65" viewBox="0 0 45 65" fill="none" xmlns="http://www.w3.org/2000/svg">
<g clip-path="url(#clip0_514_1196)">
<path d="M0 31.9596C0 24.0504 0 16.1412 0 8.31274C0 3.38966 3.51011 0 8.52456 0C15.2105 0 21.8964 0 28.5823 0C29.4181 0 30.421 0.403531 31.006 0.968474C35.4354 5.08449 39.6977 9.28121 44.0435 13.5586C44.545 14.0429 44.9629 14.9306 44.9629 15.657C45.0464 24.2119 44.9629 32.7667 44.9629 41.3216C44.9629 41.6444 45.0464 42.1286 44.8793 42.3707C44.6286 42.6936 44.2107 43.0971 43.7928 43.1778C43.5421 43.1778 43.0406 42.7743 42.8735 42.3707C42.7064 41.9672 42.7064 41.4023 42.7064 40.918C42.7064 34.1387 42.7064 27.3594 42.7064 20.5801C42.7064 19.3695 42.7899 18.1589 42.8735 16.9483C42.8735 16.0605 42.4556 15.657 41.5363 15.657C39.447 15.657 37.274 15.7377 35.1847 15.4149C31.2567 14.7692 28.9166 11.8638 28.7495 8.07062C28.6659 6.5372 28.6659 4.92308 28.7495 3.38966C28.7495 2.34048 28.3316 1.93695 27.2451 1.93695C20.8935 1.93695 14.5419 1.93695 8.19026 2.01765C4.59657 2.09836 2.34007 4.60025 2.2565 8.63556C2.17293 11.6217 2.2565 14.5271 2.2565 17.5132C2.2565 29.7806 2.2565 42.1286 2.2565 54.396C2.2565 55.1223 2.34007 55.9294 2.42365 56.6557C2.84152 59.884 5.18159 61.9016 8.52456 61.9823C12.7868 62.0631 17.0491 61.9823 21.3114 61.9823C21.7293 61.9823 22.2307 61.9016 22.565 62.0631C22.9829 62.3052 23.3172 62.7087 23.6515 63.0315C23.3172 63.3544 22.8993 63.9193 22.4814 63.9193C21.5621 64.0807 20.6428 64 19.7235 64C15.9626 64 12.2018 64 8.44098 64C3.76083 64 0.167148 60.5296 0.167148 56.0101C0 47.9395 0 39.9496 0 31.9596ZM30.6717 4.11601C30.5045 6.86003 30.0031 9.60404 32.2596 11.9445C34.5997 14.285 37.5248 13.9622 40.4499 13.7201C37.1905 10.4918 34.0147 7.34426 30.6717 4.11601Z" fill="#39629C"/>
<path d="M17.6748 53.1992C17.6748 51.8272 17.6748 50.4552 17.6748 49.0025C17.6748 48.034 18.0783 47.6305 19.0468 47.6305C19.8539 47.6305 20.6609 47.6305 21.468 47.6305C24.9384 47.6305 27.1174 50.2131 26.6332 53.6835C26.4718 54.7326 26.0682 55.8625 25.584 56.831C25.0998 57.9609 24.0506 58.6065 22.84 58.6065C21.5487 58.6872 20.2574 58.6065 18.9661 58.6065C18.0783 58.6065 17.6748 58.203 17.6748 57.2345C17.6748 55.9432 17.6748 54.5712 17.6748 53.1992ZM24.2927 53.0378C24.212 50.4552 23.3242 49.4867 21.2259 49.5674C20.4995 49.5674 20.0153 49.8096 20.0153 50.6973C20.0153 52.3115 20.0153 53.9256 20.0153 55.5397C20.0153 55.8625 20.1767 56.3468 20.4995 56.5889C21.5487 57.2345 23.4857 56.5082 23.8892 55.3783C24.1313 54.5712 24.212 53.7642 24.2927 53.0378Z" fill="#39629C"/>
<path d="M6.69873 53.28C6.69873 51.908 6.69873 50.536 6.69873 49.0832C6.69873 48.1955 7.10226 47.6305 8.07074 47.6305C9.28133 47.6305 10.5726 47.5498 11.7832 47.6305C14.043 47.8727 14.6886 48.6797 14.6886 50.8588C14.6886 52.8764 13.6395 54.2484 11.7025 54.5713C10.8147 54.7327 9.68486 54.5713 9.20062 55.0555C8.71638 55.5397 8.9585 56.6696 8.9585 57.4767C8.8778 58.203 8.79709 59.0101 7.90932 59.0101C6.94085 59.0101 6.69873 58.203 6.69873 57.396C6.69873 56.024 6.69873 54.652 6.69873 53.28ZM10.2498 52.5536C11.7832 52.5536 12.4289 52.0694 12.3482 51.0202C12.3482 49.7289 11.3797 49.5675 10.4112 49.4868C9.20062 49.4061 9.03921 50.0517 9.03921 51.1009C9.03921 51.9887 9.20062 52.715 10.2498 52.5536Z" fill="#39629C"/>
<path d="M33.0893 47.4691C34.0578 47.5498 34.9456 47.5498 35.8334 47.6305C36.2369 47.7112 36.5597 48.1148 36.8825 48.3569C36.5597 48.6797 36.3176 49.2447 35.9948 49.3254C35.107 49.4868 34.1385 49.4868 33.1701 49.5675C32.4437 49.5675 31.7981 49.5675 31.7981 50.536C31.7981 51.5044 32.2823 51.908 33.2508 51.8273C33.8157 51.8273 34.3806 51.7465 34.8649 51.908C35.3491 52.0694 35.7527 52.6343 36.1562 52.9571C35.7527 53.28 35.3491 53.6835 34.8649 53.8449C34.2999 54.0063 33.6543 53.9256 33.0086 53.9256C32.2016 53.9256 31.8788 54.3291 31.8788 55.0555C31.8788 55.9433 31.9595 56.831 31.7981 57.7188C31.7173 58.1223 31.0717 58.768 30.7489 58.6873C30.3453 58.6873 29.6997 58.0416 29.6997 57.6381C29.619 54.5713 29.619 51.5851 29.6997 48.5183C29.6997 48.1955 30.2646 47.6305 30.6682 47.5498C31.3945 47.4691 32.2823 47.5498 33.0893 47.4691Z" fill="#39629C"/>
<path d="M14.7694 8.79696C12.5903 8.79696 10.492 8.87767 8.31292 8.71625C7.82869 8.71625 7.42516 8.15131 6.94092 7.82849C7.34445 7.50566 7.74798 6.94072 8.23222 6.94072C12.6711 6.86001 17.1099 6.86001 21.468 6.94072C21.8716 6.94072 22.2751 7.50566 22.5979 7.74778C22.1944 8.0706 21.7909 8.63555 21.3873 8.63555C19.289 8.87767 17.0292 8.79696 14.7694 8.79696Z" fill="#39629C"/>
<path d="M9.472 40.088C9.04533 40.088 8.69333 40.0347 8.416 39.928C8.144 39.816 7.928 39.6453 7.768 39.416C7.608 39.1867 7.496 38.896 7.432 38.544C7.37333 38.1867 7.344 37.7627 7.344 37.272C7.344 36.776 7.37333 36.352 7.432 36C7.496 35.6427 7.608 35.3493 7.768 35.12C7.928 34.8907 8.14667 34.72 8.424 34.608C8.70667 34.496 9.06667 34.44 9.504 34.44C9.68 34.44 9.864 34.4507 10.056 34.472C10.248 34.4933 10.432 34.52 10.608 34.552C10.7893 34.5787 10.944 34.608 11.072 34.64L11.04 35.52C10.9333 35.4987 10.8 35.48 10.64 35.464C10.48 35.4427 10.3173 35.4267 10.152 35.416C9.98667 35.4053 9.832 35.4 9.688 35.4C9.432 35.4 9.224 35.432 9.064 35.496C8.904 35.56 8.77867 35.6667 8.688 35.816C8.60267 35.9653 8.544 36.16 8.512 36.4C8.48 36.6347 8.464 36.9253 8.464 37.272C8.464 37.6133 8.48 37.904 8.512 38.144C8.544 38.3787 8.60267 38.5707 8.688 38.72C8.77333 38.864 8.896 38.9707 9.056 39.04C9.22133 39.104 9.43467 39.136 9.696 39.136C9.90933 39.136 10.144 39.1253 10.4 39.104C10.6613 39.0773 10.8773 39.0533 11.048 39.032L11.072 39.904C10.944 39.9307 10.792 39.96 10.616 39.992C10.44 40.0187 10.2533 40.04 10.056 40.056C9.85867 40.0773 9.664 40.088 9.472 40.088ZM13.6483 40.088C13.195 40.088 12.8296 40.0133 12.5523 39.864C12.2803 39.7147 12.083 39.4853 11.9603 39.176C11.8376 38.8613 11.7763 38.456 11.7763 37.96C11.7763 37.48 11.8403 37.0907 11.9683 36.792C12.0963 36.488 12.299 36.264 12.5763 36.12C12.8536 35.9707 13.211 35.896 13.6483 35.896C14.091 35.896 14.4483 35.9707 14.7203 36.12C14.9976 36.264 15.2003 36.488 15.3283 36.792C15.4616 37.0907 15.5283 37.48 15.5283 37.96C15.5283 38.456 15.467 38.8613 15.3443 39.176C15.2216 39.4853 15.0216 39.7147 14.7443 39.864C14.4723 40.0133 14.107 40.088 13.6483 40.088ZM13.6483 39.208C13.8723 39.208 14.0403 39.168 14.1523 39.088C14.2643 39.0027 14.339 38.8693 14.3763 38.688C14.419 38.5013 14.4403 38.2587 14.4403 37.96C14.4403 37.6667 14.4163 37.4347 14.3683 37.264C14.3203 37.088 14.2403 36.9627 14.1283 36.888C14.0163 36.8133 13.8563 36.776 13.6483 36.776C13.4456 36.776 13.2856 36.8133 13.1683 36.888C13.0563 36.9627 12.9763 37.088 12.9283 37.264C12.8803 37.4347 12.8563 37.6667 12.8563 37.96C12.8563 38.2587 12.875 38.5013 12.9123 38.688C12.955 38.8693 13.0323 39.0027 13.1443 39.088C13.2563 39.168 13.4243 39.208 13.6483 39.208ZM16.4162 40V35.984H17.4802V36.24C17.5656 36.1867 17.6696 36.136 17.7922 36.088C17.9149 36.0347 18.0429 35.9893 18.1762 35.952C18.3149 35.9147 18.4482 35.896 18.5762 35.896C18.9496 35.896 19.2376 35.9627 19.4402 36.096C19.6482 36.224 19.7949 36.4373 19.8802 36.736C19.9656 37.0293 20.0082 37.424 20.0082 37.92V40H18.9362V37.976C18.9362 37.6987 18.9202 37.4773 18.8882 37.312C18.8562 37.1413 18.7949 37.0187 18.7042 36.944C18.6136 36.8693 18.4802 36.832 18.3042 36.832C18.2082 36.832 18.1069 36.8427 18.0002 36.864C17.8989 36.88 17.8002 36.904 17.7042 36.936C17.6136 36.968 17.5389 37 17.4802 37.032V40H16.4162ZM22.4061 40.096C22.1128 40.096 21.8755 40.0533 21.6941 39.968C21.5128 39.8827 21.3821 39.736 21.3021 39.528C21.2275 39.3147 21.1901 39.0187 21.1901 38.64V36.872H20.7181V35.984H21.1901V34.92H22.2541V35.984H23.2781V36.872H22.2541V38.36C22.2541 38.568 22.2621 38.7307 22.2781 38.848C22.2995 38.9653 22.3421 39.048 22.4061 39.096C22.4701 39.144 22.5688 39.168 22.7021 39.168C22.7395 39.168 22.7955 39.1653 22.8701 39.16C22.9448 39.1547 23.0195 39.1493 23.0941 39.144C23.1688 39.1387 23.2301 39.1333 23.2781 39.128L23.3101 39.984C23.1821 40.0053 23.0275 40.0293 22.8461 40.056C22.6701 40.0827 22.5235 40.096 22.4061 40.096ZM24.0331 40V35.984H25.0971V36.456C25.1878 36.3867 25.2998 36.3147 25.4331 36.24C25.5665 36.16 25.7105 36.088 25.8651 36.024C26.0251 35.9547 26.1771 35.9093 26.3211 35.888V36.92C26.1825 36.9413 26.0358 36.9787 25.8811 37.032C25.7265 37.08 25.5798 37.1333 25.4411 37.192C25.3078 37.2507 25.1931 37.304 25.0971 37.352V40H24.0331ZM28.0849 40.088C27.6689 40.088 27.3542 39.984 27.1409 39.776C26.9329 39.5627 26.8289 39.2427 26.8289 38.816C26.8289 38.5173 26.8822 38.2853 26.9889 38.12C27.0955 37.9493 27.2529 37.8267 27.4609 37.752C27.6742 37.672 27.9329 37.624 28.2369 37.608L29.2129 37.52V37.28C29.2129 37.088 29.1649 36.9547 29.0689 36.88C28.9729 36.8 28.8315 36.76 28.6449 36.76C28.4955 36.76 28.3222 36.7653 28.1249 36.776C27.9329 36.7867 27.7409 36.8 27.5489 36.816C27.3622 36.832 27.1995 36.848 27.0609 36.864L27.0289 36.112C27.1675 36.08 27.3329 36.048 27.5249 36.016C27.7222 35.9787 27.9275 35.9493 28.1409 35.928C28.3542 35.9067 28.5515 35.896 28.7329 35.896C29.0742 35.896 29.3595 35.9387 29.5889 36.024C29.8182 36.1093 29.9915 36.2507 30.1089 36.448C30.2262 36.64 30.2849 36.9013 30.2849 37.232V39.064C30.2955 39.1387 30.3355 39.1973 30.4049 39.24C30.4742 39.2773 30.5542 39.304 30.6449 39.32L30.6209 40.056C30.4929 40.0613 30.3675 40.064 30.2449 40.064C30.1222 40.064 30.0182 40.056 29.9329 40.04C29.8102 40.024 29.7035 39.992 29.6129 39.944C29.5275 39.896 29.4582 39.8453 29.4049 39.792C29.3195 39.8293 29.2049 39.872 29.0609 39.92C28.9169 39.968 28.7595 40.008 28.5889 40.04C28.4235 40.072 28.2555 40.088 28.0849 40.088ZM28.3409 39.296C28.4422 39.296 28.5489 39.2853 28.6609 39.264C28.7729 39.2427 28.8769 39.2187 28.9729 39.192C29.0742 39.16 29.1542 39.1307 29.2129 39.104V38.184L28.3969 38.256C28.2209 38.272 28.0929 38.3253 28.0129 38.416C27.9382 38.5013 27.9009 38.624 27.9009 38.784C27.9009 38.944 27.9355 39.0693 28.0049 39.16C28.0795 39.2507 28.1915 39.296 28.3409 39.296ZM33.0244 40.088C32.5657 40.088 32.2057 40.0187 31.9444 39.88C31.6884 39.736 31.507 39.5067 31.4004 39.192C31.299 38.8773 31.2484 38.464 31.2484 37.952C31.2484 37.4453 31.307 37.0427 31.4244 36.744C31.5417 36.44 31.731 36.224 31.9924 36.096C32.259 35.9627 32.6057 35.896 33.0324 35.896C33.1444 35.896 33.275 35.904 33.4244 35.92C33.5737 35.936 33.723 35.9573 33.8724 35.984C34.027 36.0053 34.1577 36.0267 34.2644 36.048L34.2244 36.904C34.123 36.8933 34.0084 36.8853 33.8804 36.88C33.7524 36.8693 33.627 36.8613 33.5044 36.856C33.387 36.8453 33.291 36.84 33.2164 36.84C32.987 36.84 32.8057 36.8773 32.6724 36.952C32.5444 37.0213 32.4537 37.1387 32.4004 37.304C32.3524 37.464 32.3284 37.68 32.3284 37.952C32.3284 38.2453 32.3524 38.48 32.4004 38.656C32.4484 38.832 32.5337 38.9573 32.6564 39.032C32.7844 39.1067 32.971 39.144 33.2164 39.144C33.291 39.144 33.3897 39.1413 33.5124 39.136C33.635 39.1253 33.7604 39.1147 33.8884 39.104C34.0217 39.0933 34.139 39.0853 34.2404 39.08L34.2724 39.936C34.1657 39.9573 34.0377 39.9787 33.8884 40C33.739 40.0267 33.587 40.048 33.4324 40.064C33.283 40.08 33.147 40.088 33.0244 40.088ZM36.5305 40.096C36.2372 40.096 35.9998 40.0533 35.8185 39.968C35.6372 39.8827 35.5065 39.736 35.4265 39.528C35.3518 39.3147 35.3145 39.0187 35.3145 38.64V36.872H34.8425V35.984H35.3145V34.92H36.3785V35.984H37.4025V36.872H36.3785V38.36C36.3785 38.568 36.3865 38.7307 36.4025 38.848C36.4238 38.9653 36.4665 39.048 36.5305 39.096C36.5945 39.144 36.6932 39.168 36.8265 39.168C36.8638 39.168 36.9198 39.1653 36.9945 39.16C37.0692 39.1547 37.1438 39.1493 37.2185 39.144C37.2932 39.1387 37.3545 39.1333 37.4025 39.128L37.4345 39.984C37.3065 40.0053 37.1518 40.0293 36.9705 40.056C36.7945 40.0827 36.6478 40.096 36.5305 40.096Z" fill="#39629C"/>
<path d="M16.352 27V25.608H17.612V27H16.352ZM11.48 27V25.608H15.836L14.744 26.556V24.54C14.744 23.972 14.684 23.532 14.564 23.22C14.452 22.908 14.26 22.688 13.988 22.56C13.724 22.432 13.36 22.368 12.896 22.368H11.924V20.976H12.896C13.632 20.976 14.256 21.096 14.768 21.336C15.288 21.576 15.68 21.96 15.944 22.488C16.216 23.008 16.352 23.692 16.352 24.54V27H11.48ZM17.612 27V25.608C17.708 25.608 17.772 25.672 17.804 25.8C17.836 25.92 17.852 26.088 17.852 26.304C17.852 26.512 17.836 26.68 17.804 26.808C17.772 26.936 17.708 27 17.612 27ZM24.5694 27V25.608H25.8294V27H24.5694ZM17.8494 27V25.608H23.4534L22.9614 26.028V22.02L23.3694 22.368H21.8574C21.5054 22.368 21.2294 22.412 21.0294 22.5C20.8294 22.588 20.6894 22.752 20.6094 22.992C20.5294 23.224 20.4894 23.556 20.4894 23.988C20.4894 24.46 20.5294 24.812 20.6094 25.044C20.6894 25.268 20.8294 25.42 21.0294 25.5C21.2294 25.572 21.5054 25.608 21.8574 25.608V26.856C21.1774 26.856 20.6174 26.76 20.1774 26.568C19.7374 26.376 19.4094 26.072 19.1934 25.656C18.9854 25.232 18.8814 24.676 18.8814 23.988C18.8814 23.332 18.9854 22.78 19.1934 22.332C19.4094 21.884 19.7374 21.548 20.1774 21.324C20.6174 21.092 21.1774 20.976 21.8574 20.976H24.5694V27H17.8494ZM17.8494 27C17.7534 27 17.6894 26.936 17.6574 26.808C17.6254 26.68 17.6094 26.512 17.6094 26.304C17.6094 26.088 17.6254 25.92 17.6574 25.8C17.6894 25.672 17.7534 25.608 17.8494 25.608V27ZM25.8294 27V25.608C25.9254 25.608 25.9894 25.672 26.0214 25.8C26.0534 25.92 26.0694 26.088 26.0694 26.304C26.0694 26.512 26.0534 26.68 26.0214 26.808C25.9894 26.936 25.9254 27 25.8294 27ZM20.6334 20.256V18.888H22.2414V20.256H20.6334ZM22.2774 20.256V18.888H23.8854V20.256H22.2774ZM28.3258 26.808C27.9178 26.424 27.6098 26.016 27.4018 25.584C27.2018 25.152 27.1018 24.692 27.1018 24.204C27.1018 23.732 27.1898 23.3 27.3658 22.908C27.5418 22.508 27.7818 22.164 28.0858 21.876C28.3898 21.588 28.7418 21.368 29.1418 21.216C29.5498 21.056 29.9778 20.976 30.4258 20.976C30.6658 20.976 30.9178 21 31.1818 21.048C31.4458 21.096 31.6978 21.16 31.9378 21.24L31.4578 22.548C31.2898 22.492 31.1218 22.448 30.9538 22.416C30.7938 22.384 30.6378 22.368 30.4858 22.368C30.1338 22.368 29.8218 22.448 29.5498 22.608C29.2778 22.76 29.0658 22.972 28.9138 23.244C28.7698 23.516 28.6978 23.828 28.6978 24.18C28.6978 24.836 28.9538 25.388 29.4658 25.836L28.3258 26.808ZM26.0698 27V25.608H32.0458V27H26.0698ZM26.0698 27C25.9738 27 25.9098 26.936 25.8778 26.808C25.8458 26.68 25.8298 26.512 25.8298 26.304C25.8298 26.088 25.8458 25.92 25.8778 25.8C25.9098 25.672 25.9738 25.608 26.0698 25.608V27Z" fill="#39629C"/>
</g>
<defs>
<clipPath id="clip0_514_1196">
<rect width="45" height="65" fill="white"/>
</clipPath>
</defs>
</svg>
