<svg width="20" height="20" viewBox="0 0 20 20" fill="none" xmlns="http://www.w3.org/2000/svg">
<g clip-path="url(#clip0_192_11153)">
<path d="M15.8515 8.21927C15.995 7.97107 16.138 7.72338 16.2815 7.47517C16.4648 7.15803 16.566 7.12892 16.9194 7.30766C17.1078 7.03342 17.2151 6.66009 17.6384 6.62741C17.9188 6.60596 18.1231 6.76683 18.3366 6.90114C18.549 7.03495 18.6619 7.24791 18.6098 7.48998C18.5628 7.70806 18.4469 7.9108 18.3539 8.1396C18.475 8.21059 18.6118 8.28872 18.7467 8.37044C19.2109 8.6503 19.3534 9.1559 19.0858 9.62523C18.6062 10.4674 18.1185 11.3054 17.6323 12.144C17.5189 12.3396 17.3473 12.3963 17.1859 12.3013C17.0246 12.2063 16.9914 12.0337 17.1063 11.8345C17.5766 11.0164 18.0485 10.1993 18.5219 9.38265C18.6129 9.22586 18.6568 9.07878 18.4806 8.93527C18.4346 9.01035 18.3907 9.07878 18.3498 9.14926C17.8202 10.066 17.2906 10.9822 16.7636 11.9004C16.6773 12.0511 16.5869 12.1777 16.3882 12.1813C16.3489 12.1818 16.2999 12.2436 16.2733 12.288C16.1324 12.523 15.9894 12.7579 15.8637 13.001C15.8198 13.0863 15.806 13.195 15.8055 13.2931C15.8025 15.0995 15.8035 16.9063 15.803 18.7127C15.803 19.1309 15.6222 19.3955 15.2795 19.4787C15.2065 19.4966 15.1278 19.4992 15.0517 19.4992C10.6147 19.5002 6.17827 19.5002 1.74128 19.4997C1.28216 19.4997 1.00077 19.2203 1.00077 18.7597C0.999745 12.9188 0.999745 7.07734 1.00077 1.23643C1.00077 0.777822 1.2837 0.502554 1.74639 0.502043C5.4878 0.501532 9.22869 0.502554 12.9696 0.5C13.2081 0.5 13.4006 0.576095 13.5686 0.745137C14.2203 1.40241 14.8735 2.05815 15.5333 2.70726C15.7248 2.89571 15.806 3.10867 15.8055 3.37372C15.8014 4.9186 15.8035 6.46347 15.8035 8.00835C15.8035 8.07576 15.8035 8.14317 15.8035 8.21059C15.8193 8.21365 15.8357 8.2162 15.8515 8.21927ZM13.1248 13.4049C13.0038 13.4049 12.9277 13.4049 12.8516 13.4049C9.71744 13.4049 6.58274 13.4049 3.44856 13.4049C3.39136 13.4049 3.33365 13.4065 3.27646 13.4044C3.06554 13.3963 2.93224 13.2783 2.92918 13.1001C2.92611 12.9136 3.06196 12.7967 3.28718 12.7926C3.34438 12.7916 3.40209 12.7926 3.45929 12.7926C6.71502 12.7926 9.97074 12.7926 13.2265 12.7926C13.2709 12.7926 13.3204 12.8049 13.3593 12.7895C13.4231 12.765 13.5053 12.7375 13.536 12.6854C13.8327 12.1864 14.1212 11.6834 14.4072 11.1783C14.4307 11.1369 14.4414 11.0644 14.421 11.0261C14.3444 10.8811 14.3842 10.7585 14.4598 10.6303C14.6758 10.2616 14.8924 9.89335 15.0972 9.5185C15.1493 9.42299 15.186 9.30502 15.1865 9.19726C15.1917 7.33984 15.1906 5.4819 15.1901 3.62448C15.1901 3.55707 15.1845 3.49016 15.1809 3.41356C14.6038 3.41356 14.0492 3.41407 13.4941 3.41356C13.0666 3.41305 12.8935 3.23992 12.8925 2.80735C12.8909 2.31606 12.892 1.82425 12.892 1.33296C12.892 1.26452 12.892 1.1966 12.892 1.11591C12.8154 1.11591 12.7648 1.11591 12.7147 1.11591C9.08263 1.11591 5.45001 1.11795 1.81789 1.11131C1.61208 1.1108 1.61157 1.2063 1.61157 1.35543C1.61361 7.11973 1.61412 12.884 1.60901 18.6488C1.60901 18.8439 1.66162 18.8935 1.85517 18.8935C6.22168 18.8878 10.5882 18.8884 14.9542 18.893C15.1329 18.893 15.1952 18.8526 15.1942 18.6626C15.1865 17.2454 15.1901 15.8282 15.1896 14.411C15.1896 14.3569 15.182 14.3028 15.1748 14.2057C15.1181 14.2956 15.0829 14.3467 15.0522 14.3998C14.6978 15.0121 14.348 15.628 13.9854 16.2358C13.921 16.3435 13.8143 16.4426 13.7045 16.5039C13.3986 16.6745 13.0768 16.8169 12.7694 16.9845C12.6754 17.0355 12.5866 17.1208 12.5304 17.2122C12.3159 17.5621 12.2638 17.585 11.8869 17.4405C11.7858 17.4017 11.6821 17.3695 11.5784 17.3384C11.1183 17.1989 10.6852 17.2434 10.2823 17.5217C10.1566 17.6085 10.0259 17.6902 9.89005 17.7597C9.50396 17.9584 9.1194 17.9609 8.74455 17.726C8.53925 17.5973 8.3365 17.464 8.12864 17.3399C7.84469 17.1709 7.55819 17.0994 7.25074 17.4257C7.11796 17.5672 6.92645 17.5585 6.80694 17.4354C6.68591 17.3108 6.69357 17.1351 6.82635 16.9901C7.18895 16.5938 7.66748 16.4717 8.16541 16.6852C8.42127 16.7945 8.6705 16.9359 8.89316 17.1024C9.20776 17.3374 9.48507 17.3185 9.80375 17.1096C10.0514 16.9472 10.3231 16.8042 10.604 16.7143C11.0371 16.5754 11.4763 16.6556 11.9002 16.7986C12.0238 16.8404 12.0958 16.8149 12.0902 16.6847C12.0723 16.2848 12.0437 15.8859 12.0187 15.4702C11.9201 15.4702 11.8384 15.4702 11.7567 15.4702C8.96721 15.4702 6.17725 15.4702 3.38779 15.4702C3.07728 15.4702 2.92918 15.3701 2.92867 15.1612C2.92765 14.9529 3.07166 14.8574 3.38677 14.8574C6.08072 14.8574 8.77468 14.8574 11.4686 14.8574C11.6985 14.8574 11.9283 14.8615 12.1581 14.8543C12.2143 14.8528 12.2965 14.8324 12.32 14.793C12.5861 14.3441 12.844 13.8916 13.1248 13.4049ZM12.6872 16.3318C12.9058 16.222 13.108 16.1306 13.2985 16.0197C13.3868 15.9687 13.4757 15.8931 13.5257 15.8063C14.2571 14.5515 14.9818 13.2931 15.7075 12.0352C15.7381 11.9816 15.7662 11.927 15.8019 11.8611C15.5241 11.7012 15.2626 11.5511 14.9961 11.3979C14.9496 11.4755 14.9164 11.5291 14.8847 11.5838C14.2632 12.6593 13.6595 13.7456 13.0125 14.8053C12.7388 15.2537 12.5641 15.6939 12.6764 16.2189C12.6826 16.2439 12.6821 16.2695 12.6872 16.3318ZM16.735 7.91642C16.1834 8.87246 15.6452 9.80602 15.1008 10.7493C15.519 10.9898 15.9128 11.2166 16.3152 11.4484C16.8662 10.4929 17.405 9.55935 17.9484 8.61711C17.5342 8.3781 17.1446 8.15288 16.735 7.91642ZM13.5155 2.7859C13.9205 2.7859 14.3148 2.7859 14.6575 2.7859C14.2852 2.41258 13.8945 2.02087 13.5155 1.64142C13.5155 1.99993 13.5155 2.39062 13.5155 2.7859ZM17.4546 7.62021C17.571 7.68814 17.6778 7.75044 17.7947 7.81888C17.8713 7.68354 17.9418 7.55944 18.0204 7.42002C17.8999 7.3521 17.7947 7.29234 17.6808 7.22851C17.6001 7.36895 17.5317 7.48743 17.4546 7.62021Z" fill="#39629C" stroke="#39629C" stroke-width="0.3"/>
<path d="M8.39878 8.67586C8.25936 8.61764 8.14037 8.5538 8.0132 8.51907C7.93047 8.4966 7.8365 8.51294 7.74764 8.51907C7.71802 8.52112 7.69095 8.5492 7.66031 8.55635C7.37125 8.62326 7.19455 8.78924 7.11028 9.08544C7.08474 9.17482 6.92898 9.2744 6.8248 9.28411C6.54034 9.31168 6.25128 9.29483 5.96426 9.2933C5.77377 9.29228 5.66091 9.17686 5.63231 9.00628C5.56336 8.59415 5.17931 8.61202 4.91477 8.47771C4.85042 8.44502 4.71815 8.54052 4.61907 8.5824C4.36679 8.69016 4.29937 8.67994 4.10888 8.49098C3.94137 8.3245 3.77846 8.1529 3.60686 7.99101C3.45978 7.85261 3.41484 7.68612 3.52872 7.52831C3.77795 7.18154 3.49655 6.91649 3.40309 6.62845C3.38215 6.5641 3.23149 6.53806 3.13753 6.50129C2.86379 6.39404 2.82753 6.34348 2.82702 6.0488C2.82651 5.81899 2.83366 5.58917 2.82498 5.35936C2.81732 5.15814 2.89494 5.01106 3.09258 4.97684C3.50625 4.90483 3.50727 4.52589 3.64057 4.25266C3.67121 4.18985 3.5849 4.06677 3.54507 3.97433C3.42812 3.70366 3.43833 3.63471 3.64006 3.43197C3.80246 3.26905 3.96895 3.11073 4.12625 2.94322C4.26311 2.79818 4.42399 2.74456 4.58639 2.86304C4.92958 3.11329 5.19821 2.83751 5.48574 2.74252C5.55519 2.71954 5.58277 2.5602 5.6226 2.46061C5.72474 2.20526 5.79062 2.15674 6.06283 2.15572C6.29265 2.1547 6.52246 2.15878 6.75228 2.1547C6.94941 2.15061 7.10517 2.22569 7.13837 2.42282C7.20834 2.83649 7.58421 2.84313 7.85693 2.97693C7.91923 3.00757 8.04282 2.92228 8.13526 2.88245C8.4187 2.76039 8.47743 2.76907 8.69193 2.98306C8.85484 3.14546 9.01367 3.31144 9.18016 3.46976C9.32009 3.60254 9.36656 3.76545 9.25676 3.91611C9.00703 4.25828 9.27872 4.52589 9.36759 4.81597C9.38444 4.8701 9.5019 4.8987 9.57748 4.92832C9.94774 5.07438 9.95694 5.08511 9.95694 5.48703C9.95694 5.69744 9.95336 5.90836 9.95796 6.11877C9.96204 6.29547 9.88799 6.43949 9.71946 6.46452C9.29455 6.52784 9.27566 6.90474 9.14134 7.18563C9.11274 7.24589 9.18629 7.3608 9.22357 7.4466C9.35992 7.7617 9.35278 7.80869 9.11121 8.05076C8.95341 8.20908 8.79917 8.37097 8.63524 8.52265C8.56987 8.58546 8.48101 8.62377 8.39878 8.67586ZM8.29051 7.96547C8.42994 7.96292 8.64698 7.633 8.57906 7.51605C8.44628 7.28726 8.45343 7.08093 8.60357 6.85776C8.68682 6.73417 8.73789 6.58096 8.7716 6.43387C8.82215 6.21683 8.94064 6.08302 9.15513 6.03195C9.28434 6.0008 9.36861 5.94513 9.34869 5.78579C9.32979 5.63667 9.39516 5.4615 9.15922 5.42013C8.93145 5.3803 8.82011 5.2276 8.76802 5.00493C8.73176 4.85223 8.6715 4.69698 8.58672 4.56572C8.45241 4.35787 8.44117 4.16329 8.57549 3.96105C8.66384 3.82776 8.60306 3.74145 8.50041 3.65565C8.39878 3.57037 8.32984 3.42328 8.15365 3.54483C7.95447 3.6817 7.75632 3.66382 7.54846 3.53002C7.41159 3.44218 7.2497 3.3809 7.09087 3.3431C6.88864 3.2951 6.75687 3.19194 6.70683 2.99174C6.66699 2.83138 6.59651 2.74967 6.405 2.76039C6.23238 2.77009 6.11747 2.79308 6.07764 2.98459C6.03576 3.18376 5.904 3.29254 5.70023 3.34157C5.53527 3.38141 5.36878 3.44626 5.22477 3.53513C5.02968 3.65463 4.84378 3.68578 4.6538 3.55658C4.48527 3.44167 4.39896 3.54483 4.28661 3.64901C4.17323 3.75422 4.12982 3.84921 4.22021 3.98812C4.34534 4.18117 4.32133 4.364 4.2003 4.55858C4.1145 4.69698 4.05219 4.85734 4.01236 5.01616C3.95874 5.22964 3.85047 5.37059 3.63291 5.42115C3.49451 5.45333 3.41279 5.51921 3.43629 5.68518C3.45671 5.8292 3.3939 5.99467 3.62525 6.03297C3.85149 6.07025 3.96384 6.22806 4.01542 6.44971C4.04964 6.59679 4.10377 6.74796 4.18651 6.87257C4.32644 7.084 4.34687 7.28675 4.20745 7.4946C4.08896 7.67029 4.23809 7.7377 4.32287 7.83882C4.40917 7.94198 4.49191 7.99816 4.62673 7.91032C4.82846 7.77907 5.02508 7.78928 5.23294 7.92513C5.36368 8.01041 5.51944 8.07425 5.67265 8.10643C5.90094 8.15494 6.04189 8.27598 6.08734 8.49813C6.12309 8.67228 6.23289 8.68863 6.381 8.68607C6.52808 8.68352 6.6578 8.69118 6.6961 8.50171C6.74053 8.27955 6.87893 8.15852 7.10773 8.10694C7.27881 8.06812 7.44479 7.98743 7.59851 7.89908C7.77164 7.79949 7.92996 7.7857 8.10258 7.88478C8.16233 7.91849 8.23025 7.93994 8.29051 7.96547Z" fill="#39629C" stroke="#39629C" stroke-width="0.3"/>
<path d="M8.42648 10.7273C10.0919 10.7273 11.7573 10.7273 13.4227 10.7273C13.4799 10.7273 13.5381 10.7222 13.5948 10.7298C13.7618 10.7523 13.8629 10.8468 13.8711 11.0184C13.8792 11.191 13.7837 11.2931 13.6224 11.3325C13.5677 11.3457 13.508 11.3396 13.4508 11.3396C10.0817 11.3401 6.71205 11.3401 3.34294 11.3396C3.28575 11.3396 3.22599 11.3442 3.17186 11.3299C3.01048 11.2865 2.91957 11.1782 2.93234 11.0082C2.9446 10.8483 3.04163 10.7538 3.20046 10.7309C3.26327 10.7217 3.32762 10.7273 3.39146 10.7273C5.07014 10.7273 6.74831 10.7273 8.42648 10.7273Z" fill="#39629C" stroke="#39629C" stroke-width="0.3"/>
<path d="M12.3736 7.20955C12.0044 7.20955 11.6351 7.21108 11.2659 7.20903C11.0356 7.20801 10.9043 7.0977 10.9023 6.91078C10.8997 6.72233 11.032 6.59875 11.2562 6.59823C12.0135 6.59568 12.7714 6.59517 13.5288 6.59874C13.7438 6.59977 13.87 6.71774 13.8725 6.90108C13.8756 7.09259 13.7474 7.20801 13.5196 7.20955C13.1376 7.21108 12.7556 7.20955 12.3736 7.20955Z" fill="#39629C" stroke="#39629C" stroke-width="0.3"/>
<path d="M12.3987 8.66217C12.768 8.66217 13.1372 8.66064 13.5064 8.66268C13.7378 8.66422 13.868 8.77299 13.8721 8.96144C13.8767 9.15857 13.7434 9.27399 13.5029 9.2745C12.7577 9.27553 12.0131 9.27604 11.268 9.2745C11.0362 9.27399 10.9059 9.16573 10.9018 8.97728C10.8972 8.78219 11.0336 8.6637 11.2711 8.66268C11.6475 8.66064 12.0233 8.66217 12.3987 8.66217Z" fill="#39629C" stroke="#39629C" stroke-width="0.3"/>
<path d="M12.3705 5.14584C12.0003 5.14584 11.63 5.14788 11.2597 5.14532C11.0299 5.14379 10.9002 5.0294 10.9022 4.83993C10.9043 4.65148 11.0345 4.53555 11.2654 4.53452C12.012 4.53146 12.7592 4.53146 13.5058 4.53452C13.7469 4.53555 13.8791 4.65658 13.8725 4.85474C13.8664 5.04267 13.7392 5.1443 13.5002 5.14532C13.1238 5.14737 12.7469 5.14584 12.3705 5.14584Z" fill="#39629C" stroke="#39629C" stroke-width="0.3"/>
<path d="M4.55017 5.73094C4.54864 4.70953 5.38109 3.87504 6.39738 3.88015C7.40806 3.88475 8.23387 4.71311 8.23489 5.72328C8.23591 6.74366 7.39938 7.58121 6.38615 7.57406C5.36934 7.56589 4.55171 6.74519 4.55017 5.73094ZM5.16302 5.7294C5.16404 6.40813 5.71151 6.95764 6.38921 6.96071C7.06181 6.96377 7.6195 6.40864 7.62205 5.734C7.6246 5.04915 7.06385 4.48789 6.38411 4.49299C5.70691 4.49759 5.16199 5.04966 5.16302 5.7294Z" fill="#39629C"/>
</g>
<defs>
<clipPath id="clip0_192_11153">
<rect width="20" height="20" fill="white"/>
</clipPath>
</defs>
</svg>
