<svg width="28" height="28" viewBox="0 0 28 28" fill="none" xmlns="http://www.w3.org/2000/svg">
<g filter="url(#filter0_d_649_5996)">
<rect x="2" y="1" width="24" height="24" rx="8" fill="white"/>
<g clip-path="url(#clip0_649_5996)">
<path d="M9.05835 4C12.4811 4 15.8992 4 19.322 4C19.3782 4.05158 19.4345 4.09846 19.4861 4.15004C20.0909 4.75488 20.6958 5.35973 21.3006 5.95989C21.4038 6.06304 21.4459 6.17557 21.4459 6.32092C21.4459 10.7986 21.4459 15.2717 21.4459 19.7494C21.4459 20.0307 21.3569 20.1198 21.0802 20.1198C20.6254 20.1198 20.1659 20.1245 19.7111 20.1151C19.5939 20.1151 19.5658 20.148 19.5658 20.2605C19.5705 20.7059 19.5611 21.1513 19.5705 21.5968C19.5751 21.7703 19.5283 21.9015 19.3923 22C15.3272 22 11.262 22 7.19224 22C7.04689 21.9156 7 21.789 7 21.6202C7.00469 16.4954 7 11.3754 7.00469 6.25059C7.00469 5.97395 7.09377 5.88487 7.3751 5.88487C7.8299 5.88487 8.2894 5.88018 8.7442 5.88955C8.86142 5.88955 8.88955 5.85673 8.88487 5.7442C8.88018 5.29878 8.88955 4.85335 8.88018 4.40792C8.87549 4.23444 8.91769 4.09846 9.05835 4ZM7.56734 13.9307C7.56734 16.3782 7.56734 18.8257 7.56734 21.2732C7.56734 21.3811 7.57202 21.4374 7.71269 21.4374C11.4308 21.4327 15.149 21.4327 18.8718 21.4374C18.9891 21.4374 19.0125 21.4045 19.0125 21.292C19.0078 17.0393 19.0078 12.7867 19.0125 8.53399C19.0125 8.40271 18.9656 8.38395 18.8531 8.38864C18.3795 8.39333 17.906 8.39333 17.4277 8.38864C17.1605 8.38864 17.0667 8.29487 17.0667 8.0323C17.0667 7.56812 17.062 7.10862 17.0714 6.64444C17.0761 6.48971 17.0386 6.43813 16.8744 6.43813C13.8408 6.44282 10.8072 6.44282 7.77364 6.43813C7.61891 6.43813 7.57202 6.47096 7.57202 6.63506C7.56734 9.0732 7.56734 11.502 7.56734 13.9307ZM19.5658 13.7713C19.5658 15.6468 19.5658 17.5223 19.5611 19.3931C19.5611 19.5244 19.5939 19.5619 19.7252 19.5572C20.0393 19.5478 20.3582 19.5431 20.6723 19.5572C20.8364 19.5666 20.888 19.5244 20.8833 19.3509C20.8786 17.0253 20.8786 14.6997 20.8786 12.3741C20.8786 10.4892 20.8739 8.59964 20.8833 6.71477C20.8833 6.52722 20.8317 6.4944 20.6582 6.49909C20.2128 6.51315 19.7674 6.50378 19.322 6.50378C19.0125 6.50378 18.9328 6.41938 18.9328 6.10524C18.9328 5.65043 18.9234 5.19094 18.9375 4.73613C18.9422 4.5814 18.8906 4.55796 18.7546 4.56265C17.6387 4.56734 16.5181 4.56265 15.4022 4.56265C13.4751 4.56265 11.5481 4.56265 9.621 4.55796C9.47564 4.55796 9.43813 4.59547 9.44282 4.74082C9.45689 5.05496 9.45689 5.3738 9.44282 5.68794C9.43345 5.85204 9.48502 5.88487 9.64444 5.88487C12.167 5.88018 14.6942 5.88018 17.2167 5.88018C17.3855 5.88018 17.5121 5.93175 17.634 6.05366C18.2154 6.64444 18.8062 7.23522 19.397 7.81662C19.5189 7.93853 19.5705 8.06512 19.5705 8.23392C19.5658 10.0813 19.5658 11.9239 19.5658 13.7713ZM20.391 5.94113C20.0956 5.64574 19.7861 5.33629 19.5001 5.05496C19.5001 5.28471 19.5001 5.55666 19.5001 5.83329C19.5001 5.89424 19.4954 5.94582 19.5845 5.94582C19.8705 5.94113 20.1519 5.94113 20.391 5.94113ZM17.6246 6.88825C17.6246 7.17426 17.6246 7.45559 17.6246 7.7416C17.6246 7.79786 17.634 7.83069 17.6997 7.83069C17.9904 7.83069 18.2764 7.83069 18.5577 7.83069C18.2482 7.51654 17.9435 7.21177 17.6246 6.88825Z" fill="#39629C" stroke="#39629C" stroke-width="0.3"/>
<path d="M13.2969 16.9737C14.4409 16.9737 15.5803 16.9737 16.7244 16.9737C17.0244 16.9737 17.1135 17.0581 17.1135 17.3582C17.1135 17.9958 17.1135 18.6335 17.1135 19.2759C17.1135 19.5431 17.0197 19.6369 16.7572 19.6369C14.4456 19.6369 12.1294 19.6369 9.81787 19.6369C9.54592 19.6369 9.45215 19.5384 9.45215 19.2618C9.45215 18.6241 9.45215 17.9865 9.45215 17.3441C9.45215 17.0722 9.55061 16.9737 9.82256 16.9737C10.9807 16.9737 12.1388 16.9737 13.2969 16.9737ZM13.2547 19.0742C14.305 19.0742 15.3506 19.0742 16.4008 19.0742C16.5087 19.0742 16.5556 19.0555 16.5509 18.9336C16.5415 18.5116 16.5415 18.0896 16.5509 17.6676C16.5509 17.5551 16.5181 17.5317 16.4149 17.5363C14.3237 17.541 12.2326 17.541 10.1414 17.5363C10.0289 17.5363 10.0054 17.5692 10.0101 17.677C10.0148 18.0849 10.0195 18.4975 10.0101 18.9054C10.0054 19.0461 10.0476 19.0789 10.1836 19.0789C11.2057 19.0696 12.2326 19.0742 13.2547 19.0742Z" fill="#39629C" stroke="#39629C" stroke-width="0.3"/>
<path d="M13.2923 10.6955C14.427 10.6955 15.5617 10.6955 16.701 10.6955C16.7714 10.6955 16.8417 10.6955 16.912 10.7096C17.048 10.7424 17.1183 10.8408 17.1136 10.9815C17.1136 11.1222 17.0386 11.2159 16.9026 11.2441C16.837 11.2581 16.762 11.2581 16.6916 11.2581C14.4223 11.2581 12.1483 11.2581 9.87893 11.2581C9.59292 11.2581 9.45695 11.1691 9.45226 10.9815C9.44757 10.7893 9.59292 10.6955 9.88831 10.6955C11.0183 10.6955 12.1577 10.6955 13.2923 10.6955Z" fill="#39629C" stroke="#39629C" stroke-width="0.3"/>
<path d="M13.2781 15.4452C12.1435 15.4452 11.0088 15.4452 9.86944 15.4452C9.81318 15.4452 9.75223 15.4452 9.69596 15.4358C9.54123 15.4123 9.45215 15.3092 9.45215 15.1591C9.45215 15.0091 9.53655 14.906 9.69596 14.8872C9.74754 14.8825 9.79911 14.8825 9.85538 14.8825C12.1388 14.8825 14.4222 14.8825 16.7056 14.8825C16.7712 14.8825 16.8369 14.8825 16.8978 14.8966C17.0338 14.9247 17.1088 15.0185 17.1135 15.1591C17.1182 15.2998 17.0479 15.3936 16.9119 15.4311C16.8463 15.4498 16.7712 15.4498 16.7009 15.4498C15.5616 15.4452 14.4175 15.4452 13.2781 15.4452Z" fill="#39629C" stroke="#39629C" stroke-width="0.3"/>
<path d="M13.2738 13.3493C12.1438 13.3493 11.0138 13.3493 9.8838 13.3493C9.83692 13.3493 9.79003 13.3493 9.74314 13.3493C9.56966 13.34 9.44775 13.2181 9.44775 13.0633C9.45244 12.9133 9.56966 12.7961 9.73377 12.7867C9.77596 12.782 9.81347 12.7867 9.85567 12.7867C12.1391 12.7867 14.4225 12.7867 16.7059 12.7867C16.7387 12.7867 16.7762 12.7867 16.809 12.7867C16.9919 12.7961 17.1044 12.8992 17.1044 13.0633C17.1044 13.2368 16.9919 13.3446 16.7997 13.3493C16.7575 13.3493 16.72 13.3493 16.6778 13.3493C15.5478 13.3493 14.4084 13.3493 13.2738 13.3493Z" fill="#39629C" stroke="#39629C" stroke-width="0.3"/>
<path d="M12.27 9.16696C11.4448 9.16696 10.6196 9.16696 9.7944 9.16696C9.55997 9.16696 9.40993 9.01223 9.45682 8.82937C9.49901 8.66995 9.60685 8.60431 9.77096 8.60431C10.3758 8.609 10.976 8.60431 11.5808 8.60431C12.6451 8.60431 13.7095 8.60431 14.7785 8.60431C14.9379 8.60431 15.0551 8.6512 15.102 8.81061C15.1583 9.00754 15.0176 9.16696 14.7879 9.16696C14.2534 9.17164 13.7236 9.16696 13.189 9.16696C12.8796 9.16696 12.5748 9.16696 12.27 9.16696Z" fill="#39629C" stroke="#39629C" stroke-width="0.3"/>
</g>
</g>
<defs>
<filter id="filter0_d_649_5996" x="0" y="0" width="28" height="28" filterUnits="userSpaceOnUse" color-interpolation-filters="sRGB">
<feFlood flood-opacity="0" result="BackgroundImageFix"/>
<feColorMatrix in="SourceAlpha" type="matrix" values="0 0 0 0 0 0 0 0 0 0 0 0 0 0 0 0 0 0 127 0" result="hardAlpha"/>
<feOffset dy="1"/>
<feGaussianBlur stdDeviation="1"/>
<feComposite in2="hardAlpha" operator="out"/>
<feColorMatrix type="matrix" values="0 0 0 0 0.223529 0 0 0 0 0.384314 0 0 0 0 0.611765 0 0 0 0.1 0"/>
<feBlend mode="normal" in2="BackgroundImageFix" result="effect1_dropShadow_649_5996"/>
<feBlend mode="normal" in="SourceGraphic" in2="effect1_dropShadow_649_5996" result="shape"/>
</filter>
<clipPath id="clip0_649_5996">
<rect width="14.4459" height="18" fill="white" transform="translate(7 4)"/>
</clipPath>
</defs>
</svg>
