<svg width="41" height="40" viewBox="0 0 41 40" fill="none" xmlns="http://www.w3.org/2000/svg">
<g clip-path="url(#clip0_1346_37553)">
<path d="M16.3175 32.1536C15.4393 32.2883 14.588 32.253 13.6421 32.2883C8.32833 32.4871 9.50627 33.3758 5.27703 36.4439C5.07425 36.5909 4.90902 36.6398 4.62526 36.829C4.3415 37.0182 3.89958 37.3966 3.89958 37.3966C3.89958 37.3966 3.61582 37.8696 3.89958 36.829C4.18334 35.7884 4.27793 35.41 4.27793 35.41C4.27793 35.41 4.37843 35.1698 5.41298 32.9505C5.52885 32.7021 5.64147 32.5159 5.60215 32.1536C4.23862 32.1536 2.53724 32.0915 1.17577 32.1288C0.612975 32.1432 0.418479 31.9921 0.420549 31.398C0.43917 24.2515 0.406065 17.1071 0.443309 9.96063C0.464 5.78289 3.31108 3.03361 7.50101 3.02533C10.4391 3.01912 13.3793 3.00877 16.3175 3.00049C22.4585 3.00877 28.5976 3.01912 34.7387 3.02533C35.7836 3.0274 36.3258 3.00056 37.437 3.02536C40.0852 3.08446 40.0563 3.00049 40.0852 5.55576C40.0852 7.40761 40.0563 9.15531 40.0563 10.0331C40.0563 15.2232 39.9694 20.4133 40.0852 25.5992C40.1701 29.3712 37.5092 31.8306 34.1138 32.0294C30.9688 32.2136 27.8237 32.0811 24.6787 32.1184C21.8895 32.1577 19.1025 32.1453 16.3175 32.1536ZM31.8378 9.67908C31.5709 9.43893 31.246 9.54658 30.9481 9.54658C25.0449 9.54037 19.1438 9.54244 13.2407 9.54244C11.7965 9.54244 10.3543 9.53416 8.91007 9.55072C8.71558 9.55279 8.35762 9.36026 8.36797 9.82193C8.37831 10.1573 8.39487 10.4927 8.39694 10.8281C8.399 15.4757 8.40935 20.1214 8.38452 24.769C8.38245 25.3446 8.52729 25.5081 9.11284 25.5061C16.5699 25.4854 24.0249 25.4874 31.4819 25.5061C32.0447 25.5081 32.1544 25.3218 32.1523 24.8022C32.1337 19.9744 32.144 15.1466 32.1357 10.3188C32.1357 10.1055 32.2454 9.84677 31.9806 9.68943C31.9371 9.67701 31.8874 9.67287 31.8378 9.67908Z" fill="#FBEF5A"/>
<path d="M31.9848 9.68896C32.2496 9.84423 32.14 10.1051 32.14 10.3183C32.1462 15.1461 32.1379 19.9739 32.1565 24.8017C32.1586 25.3213 32.0489 25.5077 31.4861 25.5056C24.0291 25.487 16.5741 25.487 9.11707 25.5056C8.53152 25.5077 8.38461 25.3441 8.38875 24.7686C8.41151 20.1209 8.40323 15.4753 8.40117 10.8276C8.40117 10.4922 8.38254 10.1568 8.37427 9.82146C8.46117 9.81318 8.55014 9.80697 8.63704 9.79869C12.318 12.2581 16.0093 14.7114 19.684 17.1853C20.075 17.4482 20.3647 17.5124 20.7827 17.2308C24.4574 14.7548 28.1445 12.2975 31.8275 9.83388C31.8813 9.7842 31.9331 9.73658 31.9848 9.68896Z" fill="#5F79B9"/>
<path d="M31.8295 9.68714C31.8295 9.73476 31.8295 9.78444 31.8274 9.83206C28.1444 12.2956 24.4552 14.7509 20.7826 17.229C20.3646 17.5106 20.0749 17.4464 19.6839 17.1835C16.0071 14.7095 12.3179 12.2563 8.63074 9.79686C8.8542 9.60433 9.12318 9.68714 9.37148 9.68714C16.8596 9.68507 24.3435 9.68714 31.8295 9.68714Z" fill="#FBBC40"/>
</g>
<defs>
<clipPath id="clip0_1346_37553">
<rect width="40" height="34.8148" fill="white" transform="translate(0.399902 2.96289)"/>
</clipPath>
</defs>
</svg>
