<svg width="20" height="20" viewBox="0 0 20 20" fill="none" xmlns="http://www.w3.org/2000/svg">
<g clip-path="url(#clip0_249_13886)">
<path d="M12.8894 0.67334C12.9154 0.684703 12.9405 0.700328 12.9675 0.706484C13.7596 0.877412 14.2975 1.52987 14.3093 2.33859C14.3127 2.58054 14.3098 2.82296 14.3098 3.09474C14.3856 3.09474 14.4533 3.09474 14.5205 3.09474C15.574 3.09474 16.6275 3.09427 17.681 3.09474C18.3283 3.09521 18.7066 3.47306 18.7071 4.11984C18.7075 6.81254 18.7071 9.50525 18.7071 12.198C18.7071 12.2216 18.7075 12.2453 18.7071 12.269C18.7023 12.5043 18.5844 12.6445 18.3946 12.6402C18.2085 12.6359 18.1024 12.5067 18.102 12.2728C18.1005 11.2254 18.1015 10.1776 18.1015 9.13025C18.1015 7.54408 18.1015 5.9579 18.1015 4.3722C18.1015 4.3097 18.1015 4.24673 18.1015 4.18423C18.0745 4.16434 18.0475 4.14446 18.0205 4.12457C17.9912 4.18281 17.9746 4.25383 17.931 4.29787C16.5816 5.65156 15.2279 7.00146 13.8799 8.35705C13.7397 8.49768 13.5944 8.56396 13.3946 8.55781C12.9997 8.54597 12.6038 8.55449 12.2052 8.55449C12.1862 8.7027 12.1824 8.83906 12.1498 8.96832C12.0338 9.43092 11.6327 9.75809 11.1583 9.76141C10.182 9.76851 9.20517 9.76898 8.22885 9.76188C7.68623 9.75762 7.25252 9.34427 7.19807 8.80307C7.1905 8.72684 7.18576 8.65061 7.17819 8.55449C6.82733 8.55449 6.47932 8.54645 6.13226 8.55781C5.94002 8.56396 5.79798 8.50336 5.66161 8.36605C4.3136 7.01093 2.95991 5.66103 1.60858 4.30876C1.56313 4.2633 1.52478 4.21075 1.48311 4.1615C1.46512 4.16766 1.44712 4.17381 1.42913 4.17997C1.42913 4.24484 1.42913 4.3097 1.42913 4.37457C1.42913 6.97258 1.42913 9.57059 1.42913 12.1691C1.42913 12.2339 1.4315 12.2998 1.42534 12.3642C1.41019 12.5214 1.30082 12.6298 1.15167 12.6407C1.00489 12.6516 0.873261 12.5583 0.838223 12.4082C0.823545 12.3457 0.823545 12.2794 0.823545 12.2145C0.823071 9.50999 0.822598 6.80544 0.823545 4.1009C0.823545 3.4759 1.20517 3.09616 1.83159 3.09521C2.8851 3.09427 3.9386 3.09474 4.99211 3.09474C5.06171 3.09474 5.13131 3.09474 5.22032 3.09474C5.22032 2.87362 5.22032 2.66813 5.22032 2.46264C5.2208 1.52656 5.68907 0.928548 6.59769 0.700802C6.6119 0.697014 6.62515 0.68281 6.63936 0.67334C8.72269 0.67334 10.806 0.67334 12.8894 0.67334ZM12.1843 7.94891C12.5641 7.94891 12.913 7.95696 13.261 7.9437C13.3548 7.93991 13.4694 7.89588 13.5352 7.83054C14.8657 6.50904 16.191 5.18186 17.5167 3.85563C17.556 3.81633 17.592 3.77324 17.6469 3.71311C12.3808 3.71311 7.14551 3.71311 1.8922 3.71311C1.91682 3.74815 1.92724 3.76851 1.94286 3.78414C3.30603 5.14824 4.66966 6.51188 6.03472 7.87457C6.06644 7.90629 6.11142 7.94417 6.15072 7.94465C6.49163 7.95033 6.83254 7.94796 7.1957 7.94796C7.1957 7.75241 7.18387 7.58054 7.19807 7.41103C7.24305 6.85753 7.6744 6.43849 8.22743 6.43281C9.20328 6.42287 10.1796 6.42145 11.1559 6.43328C11.7307 6.44039 12.1682 6.89493 12.1848 7.46785C12.1881 7.62031 12.1843 7.77277 12.1843 7.94891ZM13.7047 3.08432C13.7047 2.85137 13.7056 2.62789 13.7047 2.4044C13.7014 1.72921 13.2544 1.28035 12.5806 1.27845C12.0068 1.27703 11.4329 1.27798 10.8586 1.27798C9.54514 1.27798 8.23122 1.27656 6.91777 1.27893C6.41777 1.27987 5.97837 1.57107 5.88036 2.03271C5.80792 2.3722 5.82639 2.7311 5.80413 3.08432C8.4618 3.08432 11.0745 3.08432 13.7047 3.08432ZM9.69334 9.15913C10.1488 9.15913 10.6048 9.16056 11.0603 9.15866C11.3993 9.15724 11.5769 8.98252 11.5792 8.64777C11.5816 8.28082 11.5816 7.91387 11.5792 7.54692C11.5769 7.21264 11.3993 7.03603 11.0603 7.03508C10.1488 7.03319 9.23737 7.03319 8.32591 7.03508C7.97506 7.03556 7.80034 7.20743 7.79656 7.55592C7.79277 7.91671 7.79277 8.27798 7.79656 8.63878C7.80034 8.98821 7.97459 9.15771 8.32591 9.15866C8.78188 9.16056 9.23784 9.15913 9.69334 9.15913Z" fill="#39629C" stroke="#39629C" stroke-width="0.7"/>
<path d="M0.673462 18.1804C0.714182 17.9915 0.743538 17.7988 0.798462 17.6136C1.1924 16.2845 2.05036 15.3953 3.38937 15.0426C4.73028 14.6894 5.9121 15.0459 6.90784 16.0123C6.94572 16.0492 6.97744 16.0918 7.02621 16.1482C7.77573 15.3518 8.68056 14.9176 9.76484 14.9181C10.8449 14.9181 11.7473 15.3452 12.4665 16.1155C12.7549 15.8916 13.0167 15.6487 13.3146 15.4635C15.5513 14.0715 18.4817 15.4687 18.824 18.0828C18.8283 18.1165 18.8453 18.1482 18.8562 18.1804C18.8562 18.4053 18.8562 18.6302 18.8562 18.8551C12.7956 18.8551 6.73501 18.8551 0.674409 18.8551C0.673462 18.6302 0.673462 18.4053 0.673462 18.1804ZM7.31077 18.2429C7.22081 16.8887 5.97507 15.4233 4.13132 15.5279C2.646 15.6122 1.17062 17.053 1.32592 18.2429C3.31645 18.2429 5.30746 18.2429 7.31077 18.2429ZM7.93435 18.2367C9.56219 18.2367 11.1659 18.2367 12.7862 18.2367C12.5934 17.0118 11.958 16.1345 10.8037 15.714C9.61286 15.2803 8.53662 15.5506 7.61522 16.4185C7.40026 16.6207 7.405 16.6283 7.53852 16.8835C7.76011 17.3068 7.88369 17.759 7.93435 18.2367ZM13.3898 18.2415C15.0087 18.2415 16.6091 18.2415 18.2255 18.2415C18.2175 18.1629 18.2161 18.0928 18.2033 18.0251C17.9452 16.6363 16.8207 15.6184 15.4074 15.5298C14.4353 15.4692 13.6138 15.8224 12.9571 16.5435C12.9183 16.5862 12.8946 16.6903 12.9197 16.7353C13.1782 17.2022 13.3335 17.6993 13.3898 18.2415Z" fill="#39629C" stroke="#39629C" stroke-width="0.7"/>
<path d="M15.2126 14.4576C14.1312 14.4543 13.2491 13.5731 13.2477 12.4945C13.2463 11.4121 14.1459 10.5139 15.225 10.5205C16.314 10.5272 17.1923 11.4164 17.1866 12.5068C17.1809 13.5859 16.296 14.4609 15.2126 14.4576ZM15.2188 13.852C15.9731 13.8525 16.5843 13.2402 16.582 12.4869C16.5801 11.7436 15.9735 11.1351 15.2273 11.1276C14.4816 11.12 13.8566 11.7388 13.8533 12.4874C13.8504 13.2379 14.4645 13.8515 15.2188 13.852Z" fill="#39629C" stroke="#39629C" stroke-width="0.7"/>
<path d="M4.30113 14.4571C3.21069 14.4524 2.33427 13.5651 2.34185 12.4742C2.34942 11.397 3.24668 10.5097 4.31817 10.5201C5.40719 10.5305 6.29118 11.4268 6.28029 12.5087C6.2694 13.5907 5.38399 14.4619 4.30113 14.4571ZM4.31107 13.852C5.06486 13.8511 5.67897 13.2355 5.67471 12.4855C5.67044 11.7365 5.04497 11.1186 4.29923 11.1276C3.55302 11.1361 2.94743 11.7455 2.94601 12.4884C2.94507 13.2412 3.55728 13.853 4.31107 13.852Z" fill="#39629C" stroke="#39629C" stroke-width="0.7"/>
<path d="M11.7307 12.4841C11.7378 13.5674 10.8624 14.4509 9.77572 14.4571C8.68859 14.4632 7.80981 13.5967 7.79797 12.5073C7.78613 11.4201 8.67297 10.5229 9.76151 10.5205C10.8425 10.5181 11.7236 11.3974 11.7307 12.4841ZM11.1237 12.4973C11.1261 11.7412 10.5196 11.1289 9.76577 11.1275C9.0134 11.1261 8.40403 11.7383 8.40498 12.4945C8.40592 13.2435 9.00678 13.8482 9.75393 13.852C10.5125 13.8557 11.1209 13.2539 11.1237 12.4973Z" fill="#39629C" stroke="#39629C" stroke-width="0.7"/>
</g>
<defs>
<clipPath id="clip0_249_13886">
<rect width="20" height="20" fill="white"/>
</clipPath>
</defs>
</svg>
