<svg width="17" height="16" viewBox="0 0 17 16" fill="none" xmlns="http://www.w3.org/2000/svg">
<g clip-path="url(#clip0_1283_12071)">
<path d="M13.7614 15.3334H2.57328C2.15435 15.3334 1.83398 15.0161 1.83398 14.6012V1.3988C1.83398 0.983936 2.15435 0.666687 2.57328 0.666687H8.7834C9.20234 0.666687 9.5227 0.983936 9.5227 1.3988V5.59625H13.7614C14.1803 5.59625 14.5007 5.9135 14.5007 6.32836V14.6012C14.5007 14.9917 14.1803 15.3334 13.7614 15.3334ZM3.31258 13.8691H13.0221V7.06048H8.7834C8.36446 7.06048 8.0441 6.74323 8.0441 6.32836V2.13091H3.31258V13.8691Z" fill="#C32222"/>
<path d="M13.7622 7.06048C13.565 7.06048 13.3925 6.98726 13.2447 6.84084L8.26671 1.91128C7.97099 1.61843 7.97099 1.15476 8.26671 0.886321C8.56243 0.593476 9.03065 0.593476 9.30173 0.886321L14.2797 5.79148C14.5754 6.08432 14.5754 6.548 14.2797 6.81644C14.1318 6.98726 13.9593 7.06048 13.7622 7.06048Z" fill="#C32222"/>
</g>
<defs>
<clipPath id="clip0_1283_12071">
<rect width="12.6667" height="14.6667" fill="white" transform="translate(1.83398 0.666687)"/>
</clipPath>
</defs>
</svg>
