<svg width="24" height="24" viewBox="0 0 24 24" fill="none" xmlns="http://www.w3.org/2000/svg">
<path d="M10 6C10 6.26667 9.9 6.5 9.7 6.7L4.4 12L9.7 17.3C10.1 17.7 10.1 18.3333 9.7 18.7C9.3 19.1 8.66667 19.1 8.3 18.7L2.3 12.7C1.9 12.3 1.9 11.6667 2.3 11.3L8.3 5.3C8.7 4.9 9.33333 4.9 9.7 5.3C9.9 5.5 10 5.73333 10 6Z" fill="#4A4A4A"/>
<path d="M22 5.06667V18.9333C22 20.6333 20.6334 22 18.9334 22H14.9333C14.3667 22 13.9333 21.5667 13.9333 21C13.9333 20.4333 14.3667 20 14.9333 20H18.9334C19.5334 20 20 19.5333 20 18.9333V5.06667C20 4.46667 19.5334 4 18.9334 4H14.9333C14.3667 4 13.9333 3.56667 13.9333 3C13.9333 2.43333 14.3667 2 14.9333 2H18.9334C20.6334 2 22 3.36667 22 5.06667Z" fill="#4A4A4A"/>
<path d="M16.9 12C16.9 12.5667 16.4667 13 15.9 13H4.06665C3.49998 13 3.06665 12.5667 3.06665 12C3.06665 11.4333 3.49998 11 4.06665 11H15.9C16.4667 11 16.9 11.4333 16.9 12Z" fill="#4A4A4A"/>
</svg>
