<svg width="16" height="16" viewBox="0 0 16 16" fill="none" xmlns="http://www.w3.org/2000/svg">
<g clip-path="url(#clip0_1490_11456)">
<path d="M12.1623 15.3788H3.83837C3.19944 15.3788 2.66699 14.6455 2.66699 13.7655V8.90105C2.66699 7.99661 3.19944 7.28772 3.83837 7.28772H12.1623C12.8012 7.28772 13.3337 8.02105 13.3337 8.90105V13.7655C13.3159 14.6455 12.8012 15.3788 12.1623 15.3788ZM3.83837 8.75439C3.78513 8.75439 3.73188 8.82772 3.73188 8.90105V13.7655C3.73188 13.8388 3.78513 13.9122 3.83837 13.9122H12.1623C12.2155 13.9122 12.2688 13.8388 12.2688 13.7655V8.90105C12.2688 8.82772 12.2155 8.75439 12.1623 8.75439H3.83837Z" fill="#666666"/>
<path d="M11.2512 8.11886C10.8356 8.11886 10.5178 7.80108 10.5178 7.38552V4.67219C10.5178 3.27886 9.3934 2.15441 8.00007 2.15441C6.60674 2.15441 5.48229 3.27886 5.48229 4.67219V7.38552C5.48229 7.80108 5.16451 8.11886 4.74896 8.11886C4.3334 8.11886 4.01562 7.80108 4.01562 7.38552V4.67219C4.01562 2.47219 5.80007 0.687744 8.00007 0.687744C10.2001 0.687744 11.9845 2.47219 11.9845 4.67219V7.38552C11.9845 7.77663 11.6667 8.11886 11.2512 8.11886Z" fill="#666666"/>
</g>
<defs>
<clipPath id="clip0_1490_11456">
<rect width="14.6667" height="14.6911" fill="white" transform="translate(0.666992 0.687744)"/>
</clipPath>
</defs>
</svg>
