<svg width="15" height="15" viewBox="0 0 15 15" fill="none" xmlns="http://www.w3.org/2000/svg">
<g clip-path="url(#clip0_1012_1097)">
<path d="M14.25 14.9999H0.75C0.325 14.9999 0 14.676 0 14.2524V4.63447C0 4.21088 0.325 3.88696 0.75 3.88696H14.25C14.675 3.88696 15 4.21088 15 4.63447V14.2773C15 14.676 14.675 14.9999 14.25 14.9999ZM1.5 13.5049H13.5V5.38198H1.5V13.5049Z" fill="#FF9626"/>
<path d="M14.25 15C13.825 15 13.5 14.6761 13.5 14.2525V2.24258H1.5V14.2525C1.5 14.6761 1.175 15 0.75 15C0.325 15 0 14.6761 0 14.2525V1.49507C0 1.07148 0.325 0.747559 0.75 0.747559H14.25C14.675 0.747559 15 1.07148 15 1.49507V14.2525C15 14.6761 14.675 15 14.25 15Z" fill="#FF9626"/>
<path d="M11.1252 3.26412C10.7502 3.26412 10.4502 2.96512 10.4502 2.59136V0.672757C10.4502 0.299003 10.7502 0 11.1252 0C11.5002 0 11.8002 0.299003 11.8002 0.672757V2.61628C11.7752 2.96512 11.5002 3.26412 11.1252 3.26412Z" fill="#FF9626"/>
<path d="M7.5002 3.26412C7.1252 3.26412 6.8252 2.96512 6.8252 2.59136V0.672757C6.8502 0.299003 7.1502 0 7.5002 0C7.8502 0 8.1752 0.299003 8.1752 0.672757V2.61628C8.1752 2.96512 7.8752 3.26412 7.5002 3.26412Z" fill="#FF9626"/>
<path d="M3.9001 3.26412C3.5251 3.26412 3.2251 2.96512 3.2251 2.59136V0.672757C3.2251 0.299003 3.5251 0 3.9001 0C4.2751 0 4.5751 0.299003 4.5751 0.672757V2.61628C4.5501 2.96512 4.2501 3.26412 3.9001 3.26412Z" fill="#FF9626"/>
</g>
<defs>
<clipPath id="clip0_1012_1097">
<rect width="15" height="15" fill="white"/>
</clipPath>
</defs>
</svg>
