<svg width="32" height="33" viewBox="0 0 32 33" fill="none" xmlns="http://www.w3.org/2000/svg">
<path d="M9.49756 13.4837C9.49756 12.8251 9.46322 12.2085 9.50367 11.5965C9.64942 9.39718 11.5488 7.43979 13.7405 7.20093C16.5556 6.89416 18.9129 8.73938 19.267 11.5538C19.3318 12.0681 19.2906 12.5954 19.2975 13.1166C19.299 13.228 19.2975 13.3394 19.2975 13.4837C19.4761 13.4837 19.6249 13.4837 19.7745 13.4837C20.6551 13.4837 21.2671 14.1453 21.0969 15.2221C21.0588 15.464 20.8726 15.5929 20.6177 15.5723C20.3773 15.5525 20.2453 15.406 20.2064 15.1732C20.2003 15.1358 20.2033 15.0977 20.2026 15.0595C20.1858 14.436 20.1423 14.3941 19.5066 14.3941C16.0733 14.3941 12.6401 14.3941 9.20682 14.3941C8.63982 14.3941 8.57572 14.4597 8.57495 15.0343C8.57495 17.7556 8.57495 20.4776 8.57495 23.1989C8.57495 23.7232 8.63753 23.785 9.16866 23.785C12.6492 23.785 16.1298 23.7873 19.6104 23.7781C19.7951 23.7774 19.9912 23.7049 20.1614 23.6232C20.3956 23.5103 20.6215 23.5278 20.7749 23.7194C20.9283 23.9094 20.9336 24.1742 20.7253 24.3291C20.52 24.4825 20.2697 24.5832 20.027 24.6755C19.9095 24.7206 19.7645 24.7007 19.6318 24.7007C16.1321 24.7015 12.6324 24.7 9.13279 24.7038C8.72071 24.7045 8.34144 24.6397 8.03543 24.3337C7.77216 24.0704 7.65693 23.7522 7.65693 23.3843C7.65769 20.5204 7.65311 17.6572 7.66074 14.7932C7.66303 14.014 8.1934 13.502 8.97178 13.4844C9.1244 13.4806 9.27473 13.4837 9.49756 13.4837ZM18.3841 13.4707C18.3841 12.9823 18.3871 12.5199 18.3833 12.0566C18.3711 10.3786 17.3317 8.89811 15.762 8.31508C14.2052 7.73741 12.4798 8.19375 11.3634 9.45289C10.3286 10.6197 10.321 12.0193 10.4072 13.4654C10.7697 13.4654 11.1238 13.4654 11.5091 13.4654C11.5091 12.996 11.4962 12.5428 11.5114 12.0902C11.5526 10.8967 12.0899 9.99623 13.1727 9.4796C14.2151 8.98281 15.2263 9.11254 16.1413 9.81003C16.8426 10.345 17.218 11.073 17.247 11.9605C17.263 12.4596 17.2501 12.9594 17.2501 13.4699C17.6446 13.4707 17.9933 13.4707 18.3841 13.4707ZM16.3397 13.4669C16.3397 12.9815 16.3473 12.5099 16.3381 12.0383C16.3183 11.0417 15.5758 10.2328 14.586 10.1176C13.6482 10.0084 12.6935 10.638 12.5065 11.5904C12.3882 12.194 12.4272 12.8282 12.3944 13.4669C13.742 13.4669 15.0256 13.4669 16.3397 13.4669Z" fill="#FF9626" stroke="#FF9626" stroke-width="0.3"/>
<path d="M26.5853 12.6092C26.7738 12.365 26.9257 12.1597 27.0875 11.962C27.2813 11.7247 27.5537 11.6827 27.7605 11.8483C27.9628 12.0101 27.9941 12.268 27.8155 12.5069C27.4706 12.9709 27.1157 13.428 26.7601 13.8836C26.609 14.0774 26.4129 14.1331 26.1786 14.0347C25.6459 13.8111 25.1095 13.5966 24.5799 13.3669C24.3128 13.2517 24.2113 13.0029 24.3082 12.7641C24.4028 12.5298 24.6554 12.4291 24.9278 12.529C25.1644 12.616 25.3964 12.7168 25.6299 12.8114C25.6559 12.7931 25.6826 12.7755 25.7085 12.7572C25.4109 12.1093 25.1575 11.4363 24.808 10.8174C22.917 7.46804 20.0729 5.40305 16.2764 4.77806C10.0662 3.75777 4.16192 7.76719 2.80128 13.9026C2.06716 17.2115 2.67079 20.3006 4.54042 23.1341C4.79302 23.5171 4.80141 23.7827 4.55492 23.9575C4.29165 24.1444 4.04974 24.049 3.77883 23.6408C2.14424 21.1797 1.41546 18.4768 1.63906 15.5266C2.05343 10.0527 5.88427 5.48699 11.2154 4.10346C17.6149 2.44292 24.3311 6.0517 26.4693 12.2993C26.4991 12.3871 26.5342 12.4733 26.5853 12.6092Z" fill="#FF9626" stroke="#FF9626" stroke-width="0.3"/>
<path d="M23.5474 16.0363C25.3209 16.0363 27.0952 16.0355 28.8686 16.0363C29.5738 16.0363 29.9347 16.398 29.9362 17.1046C29.9378 18.205 29.9378 19.3047 29.9362 20.4051C29.9347 21.0973 29.5791 21.4559 28.8839 21.4567C26.7212 21.459 24.5586 21.4536 22.3959 21.4651C22.225 21.4658 22.0243 21.5383 21.8892 21.6436C21.268 22.1267 20.6667 22.6349 20.0546 23.1294C19.6326 23.4705 19.287 23.3408 19.1786 22.8066C19.103 22.435 19.0153 22.0664 18.9558 21.6925C18.9245 21.4979 18.8375 21.4414 18.6536 21.4544C18.4651 21.4674 18.2743 21.462 18.085 21.4552C17.5387 21.4368 17.1533 21.095 17.1449 20.5547C17.1266 19.3505 17.1258 18.1455 17.1449 16.9413C17.154 16.3812 17.5593 16.037 18.1415 16.0363C19.9425 16.0347 21.7449 16.0363 23.5474 16.0363ZM29.0136 16.9688C25.3514 16.9688 21.7152 16.9688 18.0705 16.9688C18.0705 18.1646 18.0705 19.3421 18.0705 20.5409C18.4429 20.5409 18.7932 20.5387 19.1435 20.5417C19.5388 20.5448 19.6693 20.6546 19.7479 21.0362C19.8135 21.3544 19.8814 21.6726 19.9554 22.029C20.4934 21.5902 20.9986 21.1904 21.4878 20.7729C21.6892 20.6012 21.9014 20.5371 22.1624 20.5379C24.3342 20.544 26.506 20.5417 28.6779 20.5409C28.787 20.5409 28.8961 20.5318 29.0129 20.5264C29.0136 19.3283 29.0136 18.1646 29.0136 16.9688Z" fill="#FF9626" stroke="#FF9626" stroke-width="0.3"/>
<path d="M13.094 20.351C13.094 20.2183 13.0856 20.0855 13.0956 19.9535C13.1284 19.5032 13.0467 19.1323 12.7323 18.7447C12.0669 17.9243 12.2645 16.6927 13.078 16.0165C13.9014 15.332 15.127 15.4015 15.8611 16.173C16.6036 16.9529 16.625 18.1716 15.8908 18.9538C15.7268 19.1285 15.665 19.2972 15.6703 19.5292C15.6833 20.1068 15.6787 20.6853 15.6734 21.263C15.6657 22.0848 15.1308 22.6465 14.3715 22.6396C13.6328 22.6335 13.1001 22.0589 13.0948 21.2614C13.0925 20.9577 13.094 20.6548 13.094 20.351ZM14.7576 20.1519C14.7576 19.8108 14.7668 19.4689 14.7546 19.1278C14.7446 18.8485 14.8324 18.6424 15.0682 18.4745C15.4025 18.2372 15.5413 17.8869 15.5047 17.4817C15.4589 16.9697 15.0819 16.5614 14.6019 16.479C14.0693 16.3882 13.5771 16.6408 13.3596 17.1177C13.1413 17.5954 13.2604 18.1472 13.6954 18.4677C13.9411 18.6485 14.0159 18.8569 14.0105 19.1453C13.9976 19.8565 14.0029 20.5678 14.0082 21.279C14.0105 21.5629 14.1502 21.7201 14.3791 21.7239C14.6126 21.7269 14.7507 21.5758 14.7553 21.2897C14.7614 20.9104 14.7569 20.5311 14.7576 20.1519Z" fill="#FF9626" stroke="#FF9626" stroke-width="0.3"/>
<path d="M20.1781 27.8609C20.0591 27.7563 19.8698 27.6663 19.8248 27.5297C19.779 27.39 19.8523 27.1947 19.9187 27.0428C19.953 26.9634 20.0805 26.9207 20.1705 26.8703C21.0069 26.3995 21.7784 25.8401 22.4789 25.1838C22.5339 25.132 22.5881 25.0778 22.6476 25.032C22.8674 24.8626 23.1139 24.8771 23.2848 25.0648C23.4481 25.2441 23.4504 25.5211 23.2543 25.702C22.8918 26.034 22.5301 26.372 22.134 26.6605C21.6227 27.0329 21.0802 27.361 20.5467 27.7021C20.4544 27.7609 20.3437 27.7907 20.1781 27.8609Z" fill="#FF9626" stroke="#FF9626" stroke-width="0.3"/>
<path d="M8.74678 27.1176C8.74754 27.5816 8.36064 27.7975 8.02869 27.5877C7.47008 27.2344 6.9214 26.8635 6.39104 26.4697C6.05069 26.2171 5.74392 25.9172 5.43333 25.6265C5.18913 25.3968 5.17539 25.1282 5.37304 24.929C5.5684 24.7313 5.83167 24.7435 6.07358 24.9793C6.79549 25.6822 7.596 26.2805 8.45985 26.7986C8.59797 26.881 8.68649 27.0482 8.74678 27.1176Z" fill="#FF9626" stroke="#FF9626" stroke-width="0.3"/>
<path d="M15.4453 29.3C15.2736 29.226 15.0645 29.1886 14.9431 29.065C14.8569 28.9765 14.8195 28.7224 14.8844 28.6308C14.9843 28.4904 15.1805 28.3736 15.3545 28.3393C15.9741 28.2156 16.6029 28.1401 17.2249 28.0272C17.4927 27.9783 17.7529 27.8829 18.0162 27.8074C18.3573 27.7089 18.5977 27.8089 18.6816 28.0859C18.7625 28.353 18.6282 28.5652 18.3009 28.6728C17.3813 28.9757 16.4373 29.1573 15.4453 29.3Z" fill="#FF9626" stroke="#FF9626" stroke-width="0.3"/>
<path d="M13.1029 29.2253C12.0697 29.1146 11.0723 28.9032 10.1092 28.5492C9.85128 28.4545 9.73376 28.2157 9.80626 27.986C9.88333 27.7395 10.1245 27.6021 10.3977 27.6945C11.3157 28.0035 12.2536 28.2134 13.2151 28.324C13.4753 28.3538 13.6333 28.5881 13.5989 28.833C13.5646 29.0742 13.3578 29.2329 13.1029 29.2253Z" fill="#FF9626" stroke="#FF9626" stroke-width="0.3"/>
<path d="M25.4008 22.8951C25.3832 22.947 25.3695 23.0455 25.3214 23.1218C25.1459 23.4026 24.9666 23.6812 24.7735 23.9505C24.5965 24.197 24.3187 24.2459 24.1065 24.0879C23.9028 23.936 23.8684 23.6796 24.0279 23.4316C24.2073 23.1531 24.3881 22.8753 24.5804 22.6059C24.7002 22.438 24.8704 22.3648 25.0787 22.4327C25.281 22.4983 25.387 22.641 25.4008 22.8951Z" fill="#FF9626" stroke="#FF9626" stroke-width="0.3"/>
<path d="M23.0555 17.9059C23.1303 17.3175 23.2227 17.1718 23.5142 17.1588C23.8217 17.1451 23.927 17.2954 24.0316 17.9128C24.346 17.7685 24.6825 17.5381 24.9313 17.9868C25.077 18.2501 24.9656 18.4294 24.4795 18.7476C24.7741 18.9491 25.1686 19.1185 24.8954 19.5756C24.7527 19.8137 24.5574 19.8091 24.011 19.5825C23.9949 19.9373 24.0094 20.3326 23.5111 20.3418C23.2242 20.3471 23.1181 20.1548 23.0601 19.5741C22.7289 19.7351 22.3718 19.9709 22.1306 19.481C22.0093 19.2352 22.1123 19.0811 22.5855 18.7476C22.3077 18.55 21.9254 18.392 22.1619 17.9456C22.2947 17.6945 22.4878 17.6907 23.0555 17.9059Z" fill="#FF9626"/>
<path d="M20.9338 18.7385C21.4168 19.1308 21.5114 19.3078 21.3451 19.5528C21.0704 19.958 20.7544 19.7207 20.4522 19.5696C20.3881 20.1633 20.2721 20.3472 19.9715 20.3464C19.6807 20.3456 19.5777 20.1831 19.4884 19.5734C19.1855 19.7237 18.868 19.9557 18.5963 19.5482C18.4353 19.3063 18.5315 19.13 18.997 18.75C18.5299 18.3638 18.4368 18.1952 18.594 17.954C18.8627 17.5435 19.1816 17.7755 19.4854 17.9243C19.5876 17.2939 19.6754 17.1589 19.9715 17.1581C20.2721 17.1581 20.3645 17.3001 20.4576 17.906C21.0406 17.6915 21.2352 17.7068 21.368 17.9785C21.4969 18.2433 21.3932 18.4287 20.9338 18.7385Z" fill="#FF9626"/>
<path d="M27.5837 17.9251C27.8973 17.7732 28.2316 17.5374 28.4918 17.9754C28.6429 18.2295 28.5162 18.4409 28.0499 18.7431C28.3338 18.9499 28.7421 19.1331 28.4575 19.5696C28.2026 19.9603 27.879 19.7199 27.5852 19.5696C27.4891 20.1907 27.3914 20.3449 27.1029 20.3472C26.8106 20.3495 26.6992 20.1778 26.6138 19.5932C26.0376 19.8077 25.8377 19.8084 25.7293 19.539C25.6744 19.4024 25.6843 19.1949 25.753 19.0667C25.8247 18.9324 26.0017 18.8538 26.1345 18.7485C25.6606 18.3875 25.5675 18.2021 25.7247 17.9441C25.8804 17.6885 26.0697 17.6801 26.6222 17.9159C26.6527 17.5733 26.613 17.1688 27.1205 17.1612C27.4097 17.1566 27.4952 17.3077 27.5837 17.9251Z" fill="#FF9626"/>
</svg>
