<svg width="24" height="24" viewBox="0 0 24 24" fill="none" xmlns="http://www.w3.org/2000/svg">
<g clip-path="url(#clip0_686_9707)">
<path d="M11.2999 24.0002C10.8624 23.9377 10.4187 23.8877 9.98117 23.8189C8.79367 23.6252 7.66867 23.2502 6.59367 22.7002C6.44367 22.6252 6.33742 22.6064 6.18117 22.7189C5.27492 23.3877 4.07492 23.4064 3.13117 22.7752C2.21242 22.1627 1.76867 21.0252 2.02492 19.9439C2.28117 18.8689 3.18117 18.0564 4.28117 17.9064C6.14367 17.6564 7.66867 19.3814 7.21242 21.2314C7.19992 21.2814 7.18742 21.3377 7.16867 21.3814C10.2874 23.1064 15.0749 23.2064 18.8124 20.1002C22.4249 17.0939 23.8812 11.5752 21.2249 6.78145C21.6187 6.55645 22.0187 6.33145 22.4624 6.0752C22.7062 6.60645 22.9687 7.11895 23.1749 7.6502C23.6124 8.7502 23.8749 9.89395 23.9562 11.0814C23.9624 11.1502 23.9812 11.2189 23.9937 11.2877C23.9937 11.7564 23.9937 12.2252 23.9937 12.6939C23.9812 12.7627 23.9562 12.8314 23.9499 12.9002C23.8312 14.4877 23.4249 16.0064 22.6874 17.4189C20.8374 20.9377 17.9437 23.0627 14.0374 23.8127C13.5937 23.9002 13.1437 23.9377 12.6999 23.9939C12.2374 24.0002 11.7687 24.0002 11.2999 24.0002ZM3.36867 20.5689C3.36867 21.2689 3.93742 21.8377 4.63117 21.8314C5.32492 21.8252 5.89992 21.2502 5.89367 20.5627C5.89367 19.8689 5.32492 19.3064 4.62492 19.3064C3.91867 19.3064 3.36242 19.8627 3.36867 20.5689Z" fill="#4A4A4A"/>
<path d="M12.7063 0C13.1438 0.0625 13.5875 0.1125 14.025 0.18125C14.9937 0.3375 15.925 0.61875 16.8188 1.01875C16.9688 1.0875 17.0625 1.0625 17.1875 0.9625C18.0312 0.29375 18.9688 0.14375 19.9562 0.575C20.95 1.0125 21.4812 1.81875 21.5562 2.9C21.6437 4.26875 20.5688 5.51875 19.1938 5.66875C17.8 5.81875 16.5 4.86875 16.2687 3.50625C16.2375 3.3125 16.225 3.11875 16.225 2.925C16.225 2.73125 16.2625 2.5375 16.2812 2.34375C13.5813 1.0125 9.21875 0.85625 5.6 3.55625C2.175 6.1125 -0.00625014 11.4563 2.475 16.6562C2.06875 16.8563 1.65625 17.0562 1.2 17.2812C0.9875 16.725 0.75625 16.1938 0.575 15.65C0.28125 14.7562 0.1 13.8375 0.0375 12.9C0.03125 12.8312 0.0125 12.7625 0 12.7C0 12.2312 0 11.7625 0 11.2937C0.0125 11.2188 0.0375 11.1438 0.04375 11.0688C0.11875 10.0375 0.3125 9.025 0.675 8.05625C2.31875 3.7125 5.425 1.0875 9.98125 0.18125C10.4125 0.09375 10.8625 0.0625 11.3 0C11.7688 0 12.2375 0 12.7063 0ZM18.8875 4.275C19.5875 4.275 20.15 3.7 20.15 3.00625C20.1437 2.3125 19.5625 1.74375 18.875 1.74375C18.1812 1.75 17.6187 2.31875 17.6187 3.01875C17.625 3.725 18.1813 4.275 18.8875 4.275Z" fill="#4A4A4A"/>
<path d="M4.7937 10.0375C5.18745 9.95625 5.5687 9.875 5.9562 9.8125C6.1062 9.7875 6.1687 9.71875 6.2437 9.5875C6.4187 9.28125 6.37495 9.0375 6.1562 8.76875C5.96245 8.5375 5.81245 8.26875 5.6562 8.03125C6.5062 7.175 7.34995 6.33125 8.2062 5.46875C8.52495 5.68125 8.8562 5.9 9.17495 6.13125C9.2937 6.21875 9.3937 6.2125 9.53745 6.175C9.87495 6.0875 10.0062 5.875 10.0375 5.55C10.0625 5.29375 10.1187 5.04375 10.1875 4.79375C10.2062 4.73125 10.2937 4.6375 10.3562 4.6375C11.4625 4.63125 12.575 4.63125 13.6812 4.6375C13.7375 4.6375 13.825 4.725 13.8375 4.78125C13.9187 5.125 13.9812 5.46875 14.0437 5.8125C14.0687 5.94375 14.1062 6.04375 14.2625 6.075C14.35 6.09375 14.4375 6.1375 14.5187 6.18125C14.6375 6.25 14.725 6.23125 14.8375 6.15625C15.1625 5.925 15.4937 5.7125 15.8 5.50625C16.6562 6.35625 17.5 7.19375 18.3687 8.0625C18.175 8.35 17.9562 8.675 17.7375 9C17.5562 9.26875 17.7625 9.75 18.075 9.80625C18.4562 9.88125 18.8375 9.95625 19.225 10.0375C19.225 11.2438 19.225 12.4375 19.225 13.6438C18.8375 13.7188 18.4562 13.8062 18.075 13.8687C17.9125 13.8937 17.85 13.9688 17.775 14.1062C17.6 14.4062 17.65 14.6437 17.8625 14.9C18.0625 15.1375 18.2125 15.4125 18.3687 15.6438C17.5125 16.5063 16.6687 17.35 15.8125 18.2062C15.5 17.9937 15.1687 17.775 14.8437 17.55C14.7312 17.4687 14.6375 17.475 14.5062 17.5125C14.1625 17.6 14.025 17.8125 13.9937 18.15C13.975 18.4062 13.9125 18.6562 13.8437 18.9062C13.825 18.9688 13.7312 19.0562 13.6687 19.0562C12.5687 19.0625 11.4687 19.0625 10.3625 19.0562C10.3062 19.0562 10.2062 18.9625 10.1937 18.9C10.1187 18.575 10.0562 18.2438 9.99995 17.9125C9.97495 17.75 9.91245 17.6375 9.7437 17.6C9.6687 17.5813 9.5937 17.55 9.5312 17.5125C9.4062 17.4375 9.3062 17.4625 9.1937 17.5438C8.8687 17.775 8.53745 17.9875 8.22495 18.2C7.3687 17.3438 6.5187 16.5062 5.66245 15.65C5.8687 15.3375 6.08745 15.0063 6.3187 14.6875C6.4062 14.5625 6.39995 14.4688 6.3562 14.325C6.2687 14.0062 6.0812 13.8625 5.74995 13.8313C5.4437 13.8063 5.13745 13.7188 4.8187 13.6562C4.7937 12.4437 4.7937 11.25 4.7937 10.0375ZM7.42495 15.5C7.7062 15.7688 7.9687 16.0375 8.2437 16.2875C8.28745 16.3313 8.41245 16.3312 8.47495 16.3C8.69995 16.1687 8.91245 16.025 9.1187 15.875C9.22495 15.8 9.29995 15.8125 9.41245 15.8625C9.92495 16.0875 10.4375 16.3063 10.9625 16.5063C11.1062 16.5625 11.175 16.625 11.2 16.775C11.2437 17.0625 11.3125 17.35 11.3687 17.65C11.7687 17.65 12.1437 17.6562 12.5187 17.6437C12.575 17.6437 12.6562 17.5625 12.675 17.5C12.7375 17.2563 12.7812 17.0125 12.8187 16.7687C12.8437 16.6312 12.9062 16.5687 13.0437 16.5187C13.5687 16.3187 14.0812 16.1062 14.5937 15.875C14.7187 15.8188 14.8 15.8188 14.9062 15.8938C15.15 16.0688 15.4062 16.2313 15.6375 16.3875C15.95 16.075 16.2437 15.775 16.55 15.4688C16.3937 15.2312 16.225 14.9812 16.05 14.7312C15.975 14.6312 15.9812 14.55 16.0375 14.4375C16.2687 13.9187 16.4875 13.3937 16.6937 12.8687C16.7437 12.7437 16.7875 12.6812 16.925 12.6562C17.225 12.6125 17.5187 12.5438 17.8125 12.4875C17.8125 12.0438 17.8125 11.6312 17.8125 11.2C17.5 11.1375 17.2 11.0938 16.9062 11.0188C16.8312 11 16.7375 10.9187 16.7062 10.8375C16.475 10.3125 16.2562 9.78125 16.0437 9.24375C16.0125 9.16875 16.0125 9.04375 16.0562 8.975C16.2187 8.70625 16.4 8.45625 16.5875 8.18125C16.3062 7.90625 16.0375 7.63125 15.7562 7.375C15.7187 7.3375 15.6 7.34375 15.5437 7.375C15.3187 7.5125 15.1062 7.675 14.8812 7.8125C14.8187 7.85 14.7 7.85625 14.6375 7.81875C14.1312 7.51875 13.5937 7.3 13.025 7.14375C12.95 7.125 12.8687 7.025 12.8437 6.95C12.775 6.69375 12.7375 6.43125 12.6812 6.175C12.6687 6.125 12.6062 6.04375 12.5625 6.04375C12.1687 6.03125 11.7687 6.0375 11.375 6.0375C11.3125 6.35625 11.25 6.64375 11.2 6.9375C11.1812 7.075 11.1062 7.11875 10.9875 7.16875C10.4687 7.375 9.94995 7.58125 9.43745 7.8125C9.31245 7.86875 9.2312 7.86875 9.12495 7.79375C8.8812 7.61875 8.62495 7.45625 8.38745 7.29375C8.07495 7.60625 7.7812 7.90625 7.47495 8.2125C7.6312 8.44375 7.78745 8.69375 7.96245 8.9375C8.04995 9.05625 8.0437 9.14375 7.9812 9.275C7.7562 9.7875 7.53745 10.3 7.33745 10.825C7.28745 10.95 7.2437 11.0188 7.1062 11.0375C6.8062 11.0875 6.51245 11.15 6.2187 11.2125C6.2187 11.65 6.2187 12.0687 6.2187 12.4937C6.5187 12.5562 6.8062 12.6188 7.09995 12.6625C7.23745 12.6813 7.28745 12.75 7.33745 12.875C7.53745 13.3938 7.7562 13.9125 7.9812 14.425C8.03745 14.5437 8.04995 14.6312 7.9687 14.7437C7.7687 14.9688 7.6062 15.225 7.42495 15.5Z" fill="#4A4A4A"/>
<path d="M12.0564 15.3809C10.1001 15.3809 8.50637 13.7934 8.50637 11.8371C8.50012 9.88088 10.0939 8.28713 12.0501 8.28713C14.0189 8.28088 15.6189 9.87463 15.6126 11.8434C15.6064 13.7996 14.0126 15.3809 12.0564 15.3809ZM12.0564 13.9746C13.2439 13.9746 14.2001 13.0121 14.2001 11.8309C14.2001 10.6496 13.2376 9.69338 12.0501 9.69338C10.8689 9.69338 9.90012 10.6559 9.90637 11.8371C9.91262 13.0184 10.8751 13.9809 12.0564 13.9746Z" fill="#4A4A4A"/>
</g>
<defs>
<clipPath id="clip0_686_9707">
<rect width="24" height="24" fill="white"/>
</clipPath>
</defs>
</svg>
