<svg width="25" height="24" viewBox="0 0 25 24" fill="none" xmlns="http://www.w3.org/2000/svg">
<g clip-path="url(#clip0_686_9690)">
<path d="M11.9893 1.42229e-05C15.2967 0.00714223 17.9626 2.68014 17.9626 5.98754C17.9626 9.30206 15.2611 11.9822 11.9537 11.9751C8.66057 11.9608 5.98044 9.2593 5.98756 5.96616C5.99469 2.66589 8.68908 -0.00711378 11.9893 1.42229e-05ZM16.2519 5.98754C16.2519 3.62104 14.3487 1.71074 11.9751 1.71074C9.60859 1.71074 7.69116 3.62817 7.69828 5.98754C7.69828 8.33265 9.62285 10.2572 11.968 10.2572C14.3273 10.2715 16.2519 8.34691 16.2519 5.98754Z" fill="#4A4A4A"/>
<path d="M1.71079 22.239C1.85335 22.239 1.96027 22.239 2.06719 22.239C5.453 22.239 8.8388 22.239 12.2246 22.2461C12.4313 22.2461 12.6523 22.3031 12.8305 22.4029C13.137 22.574 13.2653 22.9589 13.1798 23.2868C13.0942 23.6432 12.802 23.9069 12.4242 23.9497C12.3244 23.964 12.2317 23.9568 12.1319 23.9568C8.44676 23.9568 4.75445 23.9568 1.06927 23.9568C0.313703 23.9568 7.07055e-05 23.6432 0.00719871 22.8805C0.0143267 21.8755 -0.0284413 20.8704 0.156887 19.8725C0.727127 16.836 3.32172 14.2841 6.37964 13.8066C6.81445 13.7353 7.26351 13.6996 7.70545 13.6925C9.21658 13.6782 10.7348 13.6854 12.246 13.6854C12.8162 13.6854 13.2011 14.0346 13.2011 14.5407C13.2011 15.0468 12.8091 15.3961 12.2389 15.3961C10.7491 15.3961 9.26648 15.3961 7.77673 15.3961C4.72594 15.3961 2.26678 17.4917 1.78207 20.4998C1.7393 20.7421 1.72505 20.9987 1.71792 21.2411C1.70366 21.5618 1.71079 21.8826 1.71079 22.239Z" fill="#4A4A4A"/>
<path d="M20.1795 13.7425C21.3627 13.7425 22.546 13.7354 23.7292 13.7425C24.1783 13.7425 24.5418 14.0775 24.5846 14.498C24.6274 14.9329 24.3423 15.332 23.9146 15.4247C23.8433 15.4389 23.772 15.4461 23.7007 15.4461C21.3485 15.4461 19.0034 15.4461 16.6511 15.4461C16.1807 15.4461 15.8172 15.1253 15.7673 14.6834C15.7174 14.2486 16.0096 13.8494 16.4373 13.7567C16.5371 13.7354 16.6511 13.7354 16.7581 13.7354C17.8985 13.7425 19.039 13.7425 20.1795 13.7425Z" fill="#4A4A4A"/>
<path d="M20.1795 18.0198C21.3627 18.0198 22.546 18.0198 23.7292 18.0198C24.0856 18.0198 24.3422 18.1908 24.499 18.4973C24.6559 18.8039 24.6131 19.1032 24.4135 19.3741C24.2424 19.6022 24.0072 19.7234 23.7221 19.7234C21.3556 19.7234 18.9891 19.7305 16.6226 19.7234C16.1236 19.7234 15.753 19.3313 15.7601 18.8537C15.7672 18.3762 16.1379 18.0198 16.6511 18.0198C17.8272 18.0126 19.0034 18.0198 20.1795 18.0198Z" fill="#4A4A4A"/>
<path d="M20.208 22.2894C21.3841 22.2894 22.5602 22.2894 23.7292 22.2894C24.1426 22.2894 24.4705 22.5531 24.5632 22.938C24.6487 23.2944 24.4848 23.7007 24.1498 23.8718C24.0072 23.9431 23.829 23.9929 23.6651 23.9929C21.3342 24.0001 19.0034 24.0001 16.6725 23.9929C16.1308 23.9929 15.753 23.6152 15.7601 23.1162C15.7672 22.6315 16.145 22.2822 16.6796 22.2822C17.8557 22.2822 19.0319 22.2894 20.208 22.2894Z" fill="#4A4A4A"/>
</g>
<defs>
<clipPath id="clip0_686_9690">
<rect width="24.5916" height="24" fill="white"/>
</clipPath>
</defs>
</svg>
