<svg width="33" height="34" viewBox="0 0 33 34" fill="none" xmlns="http://www.w3.org/2000/svg">
<g clip-path="url(#clip0_1346_37533)">
<path d="M13.824 16.9283C14.292 16.9823 14.778 17.0363 15.246 17.0723C18.09 17.3243 20.952 17.5943 23.796 17.8463C25.128 17.9723 26.46 18.0983 27.792 18.2423C27.882 18.2423 28.026 18.3683 28.044 18.4583C28.89 21.7703 29.718 25.0823 30.528 28.3943C30.762 29.3483 30.438 30.1943 29.664 30.8243C28.872 31.4543 27.972 31.5803 27.054 31.1483C25.812 30.5543 24.588 29.9243 23.346 29.3123C16.632 25.9643 9.91804 22.5983 3.20403 19.2503C2.46603 18.8903 1.92604 18.3683 1.69204 17.5763C1.36804 16.4063 1.89004 15.2363 3.02404 14.6603C5.67004 13.3283 8.33404 12.0143 10.98 10.6823C16.272 8.03628 21.564 5.39028 26.856 2.74428C28.44 1.95228 30.186 2.72628 30.528 4.40028C30.6 4.79628 30.564 5.22828 30.474 5.62428C29.7 8.82828 28.872 12.0323 28.098 15.2363C28.026 15.5063 27.918 15.5783 27.648 15.5963C24.804 15.8483 21.942 16.1183 19.098 16.3883C17.388 16.5503 15.678 16.6943 13.968 16.8563C13.914 16.8563 13.86 16.8743 13.806 16.8743C13.824 16.8923 13.824 16.9103 13.824 16.9283Z" stroke="#FF9626" stroke-width="1.5"/>
</g>
<defs>
<clipPath id="clip0_1346_37533">
<rect width="32.4" height="32.4" fill="white" transform="matrix(-1 0 0 -1 32.4 33.2002)"/>
</clipPath>
</defs>
</svg>
