<svg width="32" height="33" viewBox="0 0 32 33" fill="none" xmlns="http://www.w3.org/2000/svg">
<g clip-path="url(#clip0_719_26912)">
<path d="M30.8375 11.2544C30.3947 12.1906 29.9533 13.1277 29.5089 14.0632C29.1523 14.813 28.533 15.0344 27.7778 14.6793C26.9705 14.2994 26.1663 13.9148 25.3606 13.5317C24.6885 13.2124 24.4002 12.6358 24.6162 12.0282C24.8353 11.4105 25.5058 11.0889 26.1329 11.3196C26.157 11.3282 26.1873 11.3204 26.2409 11.3204C25.7941 10.402 25.2588 9.55975 24.5805 8.82161C21.4647 5.43082 17.6093 4.13092 13.1432 5.17286C8.60322 6.23112 5.75711 9.19145 4.50537 13.677C4.32356 14.3274 3.93973 14.6863 3.36942 14.6964C2.59709 14.7096 2.02911 14.029 2.20937 13.2761C2.92109 10.3025 4.44555 7.81929 6.76486 5.83253C8.70345 4.1721 10.9489 3.14337 13.4578 2.70437C19.2464 1.69117 25.1298 4.5132 27.9899 9.66231C28.1678 9.98321 28.3325 10.3119 28.5229 10.6732C28.5649 10.5963 28.5936 10.5442 28.6224 10.4914C28.8601 10.0469 29.2276 9.81615 29.735 9.84257C30.2439 9.86899 30.5788 10.1456 30.7707 10.6087C30.7886 10.6514 30.815 10.6903 30.8368 10.7307C30.8375 10.9047 30.8375 11.0795 30.8375 11.2544Z" fill="#70CC33"/>
<path d="M1 21.7437C1.42268 20.8308 1.85313 19.9209 2.26649 19.0041C2.61536 18.2294 3.29367 17.9582 4.05512 18.3172C4.90593 18.7181 5.75751 19.1183 6.60287 19.5301C7.11258 19.7787 7.37131 20.2923 7.2672 20.7973C7.11258 21.5464 6.36744 21.9434 5.65728 21.6544C5.55238 21.6116 5.44982 21.5635 5.27267 21.4865C5.35891 21.6645 5.41097 21.7826 5.47313 21.896C7.37287 25.3886 10.2804 27.481 14.2181 28.042C20.0137 28.8672 25.4293 25.2922 27.0097 19.6606C27.0571 19.4928 27.0967 19.3226 27.1473 19.1556C27.3392 18.5278 27.9444 18.1735 28.5513 18.332C29.1799 18.4959 29.559 19.1035 29.3889 19.7484C28.0866 24.6838 25.0626 28.1088 20.2289 29.7498C13.5818 32.0062 6.49953 29.0264 3.31543 22.774C3.28513 22.7142 3.25016 22.6567 3.2354 22.631C2.98832 22.795 2.76687 23.0032 2.50347 23.1042C1.98056 23.3055 1.37917 23.0296 1.12587 22.5254C1.08314 22.4407 1.04273 22.3544 1.00155 22.2697C1 22.0934 1 21.9185 1 21.7437Z" fill="#70CC33"/>
<path d="M11.2013 24.1923C11.0541 24.1433 10.8948 24.1065 10.7558 24.037C10.2777 23.8 9.98346 23.4118 9.9426 22.8765C9.88539 22.0551 9.85678 21.2337 9.82 20.4123C9.75053 18.9166 9.68515 17.4209 9.61568 15.9293C9.57072 14.9486 9.52577 13.9719 9.48491 12.9911C9.47265 12.6233 9.67289 12.4231 10.0448 12.4231C13.9229 12.4231 17.7969 12.4231 21.675 12.4231C22.0469 12.4231 22.2472 12.6233 22.2308 12.9911C22.1654 14.4623 22.096 15.9293 22.0306 17.4005C21.9734 18.6346 21.9202 19.8688 21.8671 21.1029C21.8426 21.6791 21.8263 22.2553 21.7813 22.8315C21.7241 23.5344 21.2664 24.0289 20.5758 24.1678C20.5553 24.1719 20.539 24.1842 20.5226 24.1923C17.4128 24.1923 14.307 24.1923 11.2013 24.1923ZM10.5065 13.408C10.5065 13.5632 10.5025 13.7063 10.5065 13.8493C10.5719 15.3245 10.6414 16.7998 10.7068 18.2709C10.7722 19.7339 10.8335 21.201 10.9029 22.664C10.9193 23.0358 11.1073 23.2116 11.4791 23.2116C14.401 23.2116 17.3229 23.2116 20.2448 23.2116C20.6125 23.2116 20.8005 23.0358 20.8169 22.664C20.8332 22.3575 20.8414 22.051 20.8577 21.7445C20.9109 20.5104 20.9681 19.2762 21.0253 18.0421C21.0907 16.5464 21.1601 15.0507 21.2296 13.5592C21.2337 13.5101 21.2296 13.4611 21.2296 13.408C17.6416 13.408 14.0782 13.408 10.5065 13.408Z" fill="#70CC33" stroke="#666666" stroke-width="0.2"/>
<path d="M18.0377 8.5C18.099 8.52043 18.1603 8.54087 18.2256 8.55721C18.855 8.74111 19.2841 9.29688 19.2963 9.95072C19.3004 10.1142 19.2963 10.2776 19.2963 10.4615C19.3576 10.4615 19.4107 10.4615 19.468 10.4615C20.3874 10.4615 21.3069 10.4615 22.2264 10.4615C22.4634 10.4615 22.6432 10.5964 22.7086 10.813C22.7699 11.0132 22.7004 11.2339 22.5165 11.3483C22.4389 11.3974 22.3408 11.4219 22.2468 11.4382C22.1569 11.4546 22.0629 11.4423 21.973 11.4423C17.8497 11.4423 13.7305 11.4423 9.60714 11.4423C9.53767 11.4423 9.46411 11.4464 9.39464 11.43C9.14944 11.381 8.97781 11.1481 9.00233 10.9029C9.02276 10.6495 9.23118 10.4615 9.50089 10.4615C10.2406 10.4575 10.9802 10.4615 11.724 10.4615C11.9528 10.4615 12.1817 10.4615 12.4309 10.4615C12.4309 10.3103 12.4309 10.1673 12.4309 10.0284C12.435 9.2601 12.8845 8.69615 13.6365 8.52861C13.6569 8.52452 13.6732 8.51226 13.6896 8.50409C15.1362 8.5 16.5869 8.5 18.0377 8.5ZM13.4076 10.4534C15.0504 10.4534 16.6768 10.4534 18.3115 10.4534C18.3115 10.2776 18.3196 10.106 18.3115 9.93846C18.2992 9.68918 18.0949 9.48486 17.8415 9.48486C16.5256 9.48077 15.2057 9.48077 13.8898 9.48486C13.6283 9.48486 13.424 9.69327 13.4158 9.95072C13.4035 10.1142 13.4076 10.2736 13.4076 10.4534Z" fill="#70CC33" stroke="#666666" stroke-width="0.2"/>
<path d="M18.0664 18.0461C18.1072 17.1553 18.144 16.2603 18.1849 15.3695C18.1972 15.0834 18.4137 14.8709 18.6835 14.8791C18.9613 14.8832 19.1738 15.112 19.1616 15.4062C19.133 16.1541 19.1003 16.906 19.0676 17.6538C19.0226 18.6796 18.9777 19.7053 18.9327 20.7269C18.9164 21.0497 18.7039 21.2622 18.4178 21.25C18.1318 21.2336 17.9397 21.0007 17.956 20.6779C17.9928 19.7993 18.0296 18.9207 18.0664 18.0461Z" fill="#70CC33" stroke="#666666" stroke-width="0.2"/>
<path d="M15.369 18.0461C15.369 17.1634 15.369 16.2807 15.369 15.394C15.369 15.018 15.7041 14.7769 16.0351 14.9077C16.2354 14.9853 16.3416 15.1406 16.3498 15.3572C16.3539 15.5247 16.3498 15.6923 16.3498 15.8639C16.3498 17.4618 16.3498 19.0596 16.3498 20.6615C16.3498 20.7269 16.3539 20.7964 16.3375 20.8577C16.2885 21.1029 16.0555 21.2745 15.8104 21.2459C15.557 21.2214 15.3731 21.013 15.369 20.7432C15.3649 19.9423 15.369 19.1413 15.369 18.3363C15.369 18.2423 15.369 18.1442 15.369 18.0461Z" fill="#70CC33" stroke="#666666" stroke-width="0.2"/>
<path d="M12.6726 18.0666C12.6358 17.2207 12.599 16.3748 12.5622 15.5248C12.5582 15.439 12.5541 15.3491 12.5704 15.2673C12.6195 15.0221 12.836 14.8587 13.0812 14.875C13.3223 14.8914 13.5185 15.0875 13.5308 15.3368C13.5635 16.0029 13.5921 16.6731 13.6207 17.3392C13.6697 18.4344 13.7187 19.5337 13.7596 20.6289C13.7637 20.7351 13.7555 20.8455 13.7228 20.9435C13.6493 21.1519 13.4204 21.2745 13.2079 21.2459C12.9709 21.2092 12.7993 21.0212 12.787 20.7719C12.7502 19.8688 12.7094 18.9697 12.6726 18.0666Z" fill="#70CC33" stroke="#666666" stroke-width="0.2"/>
</g>
<defs>
<clipPath id="clip0_719_26912">
<path d="M0 4.5C0 2.29086 1.79086 0.5 4 0.5H28C30.2091 0.5 32 2.29086 32 4.5V28.5C32 30.7091 30.2091 32.5 28 32.5H4C1.79086 32.5 0 30.7091 0 28.5V4.5Z" fill="white"/>
</clipPath>
</defs>
</svg>
