<svg width="32" height="33" viewBox="0 0 32 33" fill="none" xmlns="http://www.w3.org/2000/svg">
<g clip-path="url(#clip0_804_1186)">
<path d="M28.5308 16.8334C29.1581 16.8334 29.6717 17.3428 29.6183 17.9678C29.4141 20.3594 28.5671 22.6593 27.1573 24.6192C25.5257 26.8875 23.2228 28.5858 20.5737 29.4744C17.9247 30.363 15.0634 30.397 12.3941 29.5715C9.72469 28.746 7.3821 27.1027 5.69715 24.8738C4.01221 22.6449 3.07005 19.943 3.00376 17.1497C2.93746 14.3564 3.75037 11.6128 5.32768 9.30652C6.90499 7.00019 9.16698 5.24767 11.7942 4.29645C14.0643 3.47453 16.5079 3.28678 18.8646 3.74248C19.4805 3.86158 19.8306 4.49459 19.6595 5.09812C19.4885 5.70164 18.8609 6.04604 18.243 5.93774C16.3469 5.6054 14.3898 5.77261 12.5675 6.4324C10.3879 7.22156 8.51132 8.6755 7.20274 10.5889C5.89417 12.5023 5.21975 14.7784 5.27475 17.0958C5.32976 19.4132 6.11139 21.6548 7.50927 23.504C8.90715 25.3531 10.8506 26.7164 13.0652 27.4013C15.2798 28.0861 17.6536 28.0579 19.8513 27.3207C22.049 26.5835 23.9596 25.1745 25.3132 23.2927C26.4449 21.7194 27.1395 19.8821 27.3368 17.9672C27.4011 17.3432 27.9036 16.8334 28.5308 16.8334Z" fill="#70CC33" stroke="#70CC33" stroke-width="0.5"/>
<path d="M11.832 17.3333L14.3589 20.871C14.7557 21.4264 15.5799 21.4299 15.9814 20.8779L25.832 7.33331" stroke="#70CC33" stroke-width="3" stroke-linecap="round"/>
</g>
<defs>
<clipPath id="clip0_804_1186">
<path d="M0 4.5C0 2.29086 1.79086 0.5 4 0.5H28C30.2091 0.5 32 2.29086 32 4.5V28.5C32 30.7091 30.2091 32.5 28 32.5H4C1.79086 32.5 0 30.7091 0 28.5V4.5Z" fill="white"/>
</clipPath>
</defs>
</svg>
