<svg width="40" height="40" viewBox="0 0 40 40" fill="none" xmlns="http://www.w3.org/2000/svg">
<g filter="url(#filter0_d_1688_21710)">
<rect x="4" y="3" width="32" height="32" rx="8" fill="white" fill-opacity="0.32" shape-rendering="crispEdges"/>
<path fill-rule="evenodd" clip-rule="evenodd" d="M18 10C14.134 10 11 13.134 11 17C11 20.866 14.134 24 18 24C19.5723 24 21.0236 23.4816 22.1922 22.6064L26.293 26.7072C26.6835 27.0977 27.3167 27.0977 27.7072 26.7072C28.0977 26.3167 28.0977 25.6835 27.7072 25.293L23.6064 21.1922C24.4816 20.0236 25 18.5723 25 17C25 13.134 21.866 10 18 10ZM13 17C13 14.2386 15.2386 12 18 12C20.7614 12 23 14.2386 23 17C23 19.7614 20.7614 22 18 22C15.2386 22 13 19.7614 13 17Z" fill="#FF9626"/>
</g>
<defs>
<filter id="filter0_d_1688_21710" x="0" y="0" width="40" height="40" filterUnits="userSpaceOnUse" color-interpolation-filters="sRGB">
<feFlood flood-opacity="0" result="BackgroundImageFix"/>
<feColorMatrix in="SourceAlpha" type="matrix" values="0 0 0 0 0 0 0 0 0 0 0 0 0 0 0 0 0 0 127 0" result="hardAlpha"/>
<feOffset dy="1"/>
<feGaussianBlur stdDeviation="2"/>
<feComposite in2="hardAlpha" operator="out"/>
<feColorMatrix type="matrix" values="0 0 0 0 1 0 0 0 0 0.588235 0 0 0 0 0.14902 0 0 0 0.24 0"/>
<feBlend mode="normal" in2="BackgroundImageFix" result="effect1_dropShadow_1688_21710"/>
<feBlend mode="normal" in="SourceGraphic" in2="effect1_dropShadow_1688_21710" result="shape"/>
</filter>
</defs>
</svg>
