<svg width="20" height="20" viewBox="0 0 20 20" fill="none" xmlns="http://www.w3.org/2000/svg">
<path d="M13.6211 1C15.2734 1 16.9258 1 18.5781 1C18.7839 1.07547 18.9227 1.21797 19 1.42188C19 1.49219 19 1.5625 19 1.63281C18.8167 1.96938 18.6372 2.30781 18.4473 2.64109C18.3897 2.74281 18.385 2.82109 18.4441 2.92609C18.6358 3.265 18.8153 3.61047 18.9995 3.95359C18.9995 4.02391 18.9995 4.09422 18.9995 4.16453C18.8692 4.48281 18.6273 4.585 18.2917 4.58219C17.0219 4.57094 15.7516 4.5775 14.4817 4.5775C14.4137 4.5775 14.3458 4.5775 14.26 4.5775C14.26 4.83391 14.26 5.06687 14.26 5.29938C14.26 5.36266 14.26 5.42594 14.26 5.50094C14.4269 5.51594 14.5778 5.52391 14.7278 5.54359C16.6909 5.79953 18.3086 7.21187 18.8219 9.12766C18.9016 9.42484 18.9414 9.73234 18.9995 10.0352C18.9995 12.0625 18.9995 14.0898 18.9995 16.1172C18.8828 16.4303 18.6508 16.5348 18.3269 16.5334C16.2953 16.5269 14.2633 16.5302 12.2317 16.5302C12.1586 16.5302 12.0855 16.5302 11.9992 16.5302C11.9992 16.7383 12.0053 16.9197 11.9983 17.1002C11.9669 17.9031 11.4391 18.6189 10.682 18.8819C10.54 18.9311 10.3914 18.9611 10.2456 19C10.105 19 9.96438 19 9.82375 19C9.80828 18.9925 9.79328 18.9808 9.77641 18.9775C8.63969 18.7384 8.0575 18.0241 8.05703 16.8672C8.05703 16.7589 8.05703 16.6506 8.05703 16.5302C7.95203 16.5302 7.87656 16.5302 7.80109 16.5302C5.75828 16.5302 3.71547 16.5269 1.67266 16.5334C1.34875 16.5348 1.11719 16.4298 1 16.1172C1 13.9609 1 11.8047 1 9.64844C1.01125 9.59781 1.02719 9.54766 1.03328 9.49609C1.11203 8.82859 1.32109 8.20422 1.68813 7.64266C2.60219 6.24344 3.90297 5.51828 5.57359 5.50844C8.03922 5.49344 10.5048 5.50469 12.9705 5.50469C13.0445 5.50469 13.1186 5.50469 13.2072 5.50469C13.2072 5.41328 13.2072 5.34391 13.2072 5.275C13.2072 4.08625 13.2137 2.89703 13.203 1.70828C13.2002 1.37266 13.2986 1.12797 13.6211 1ZM17.9373 15.4698C17.9406 15.4113 17.9458 15.3658 17.9458 15.3198C17.9458 13.668 17.9528 12.0161 17.9434 10.3642C17.9341 8.72594 16.8602 7.25734 15.303 6.75344C14.9753 6.6475 14.6266 6.60484 14.2736 6.53031C14.2661 6.61234 14.2614 6.64094 14.2614 6.66906C14.2609 7.67078 14.2633 8.6725 14.2577 9.67422C14.2572 9.79187 14.3195 9.81953 14.403 9.85703C15.0794 10.1608 15.4764 10.8709 15.3719 11.5848C15.2537 12.3892 14.6097 12.9681 13.7852 13.0112C13.0309 13.0502 12.325 12.5087 12.1375 11.747C11.9481 10.9788 12.3288 10.1955 13.0666 9.86406C13.188 9.80969 13.2105 9.74266 13.21 9.62641C13.2063 8.66594 13.2081 7.705 13.2077 6.74453C13.2077 6.68781 13.2016 6.63109 13.1987 6.57297C11.6158 6.57297 10.0464 6.57297 8.48125 6.57297C8.70063 6.81812 8.93078 7.045 9.12625 7.29859C9.77172 8.13578 10.0605 9.09344 10.0581 10.1467C10.0544 11.8455 10.0572 13.5442 10.0577 15.243C10.0577 15.3166 10.0638 15.3902 10.0675 15.4713C12.6953 15.4698 15.3058 15.4698 17.9373 15.4698ZM9.00391 15.4689C9.00391 15.3963 9.00391 15.3386 9.00391 15.2814C9.00391 13.5588 9.00625 11.8366 9.00109 10.1139C9.00062 9.88047 8.97953 9.64516 8.9425 9.415C8.64766 7.57375 6.76937 6.26219 4.9375 6.61188C3.21625 6.94094 2.05656 8.33594 2.05422 10.0872C2.05187 11.8216 2.05375 13.5555 2.05422 15.2898C2.05422 15.3466 2.05938 15.4037 2.06219 15.4694C4.37359 15.4689 6.67422 15.4689 9.00391 15.4689ZM17.6045 2.06547C16.4514 2.06547 15.3658 2.06547 14.2703 2.06547C14.2703 2.55109 14.2703 3.02734 14.2703 3.51156C15.3686 3.51156 16.4566 3.51156 17.6036 3.51156C17.1625 3.02641 17.1494 2.55437 17.6045 2.06547ZM10.9623 16.5409C10.3286 16.5409 9.72906 16.5409 9.11312 16.5409C9.11312 16.7252 9.10609 16.8995 9.11453 17.0734C9.13656 17.5323 9.49422 17.8989 9.95219 17.9406C10.3947 17.9809 10.8236 17.6823 10.9141 17.2398C10.9586 17.0191 10.9469 16.7875 10.9623 16.5409ZM14.3289 11.3622C14.3289 11.0312 14.0711 10.7716 13.7411 10.7697C13.4134 10.7678 13.1458 11.0275 13.1397 11.3533C13.1336 11.68 13.4134 11.9627 13.7411 11.9594C14.0659 11.9561 14.3289 11.6889 14.3289 11.3622Z" fill="#39629C" stroke="#39629C" stroke-width="0.4"/>
<path d="M5.53663 11.0428C6.09867 11.0428 6.6607 11.0419 7.22273 11.0433C7.63945 11.0442 7.83773 11.2406 7.83913 11.6555C7.84101 12.3581 7.84101 13.0608 7.83913 13.7634C7.83773 14.1769 7.63804 14.3737 7.22085 14.3742C6.0907 14.3751 4.96101 14.3756 3.83085 14.3742C3.41742 14.3737 3.21585 14.1712 3.21539 13.7611C3.21492 13.0528 3.21445 12.3441 3.21539 11.6358C3.21585 11.2556 3.41976 11.0461 3.79757 11.0437C4.37742 11.0405 4.95726 11.0428 5.53663 11.0428ZM4.27476 13.3097C5.11898 13.3097 5.94632 13.3097 6.77414 13.3097C6.77414 12.9005 6.77414 12.5058 6.77414 12.1087C5.93367 12.1087 5.10679 12.1087 4.27476 12.1087C4.27476 12.5142 4.27476 12.9056 4.27476 13.3097Z" fill="#39629C" stroke="#39629C" stroke-width="0.4"/>
</svg>
