<svg width="48" height="48" viewBox="0 0 48 48" fill="none" xmlns="http://www.w3.org/2000/svg">
<g filter="url(#filter0_d_125_8649)">
<circle cx="24" cy="22" r="20" fill="#FF9626"/>
<path d="M28.3197 17.6599C29.0857 17.6599 29.8108 17.6599 30.5462 17.6599C31.0875 17.6599 31.3837 17.956 31.3837 18.5075C31.3837 22.2149 31.3837 25.9121 31.3837 29.6194C31.3837 29.7114 31.3837 29.8033 31.3837 29.9156C31.8943 29.9156 32.3845 29.9156 32.8952 29.9156C32.8952 25.5853 32.8952 21.2651 32.8952 16.9143C31.639 16.8428 30.6687 16.2709 30.1377 15.1066C29.6066 13.9423 29.8108 12.8495 30.6177 11.7771C30.4645 11.6443 30.2806 11.5115 30.1274 11.3583C29.7802 11.0111 29.7598 10.5515 30.0764 10.2349C30.393 9.91829 30.8526 9.92851 31.1998 10.2758C32.2007 11.2766 33.2016 12.2673 34.2025 13.2682C34.3659 13.4316 34.4476 13.6257 34.4476 13.8708C34.4476 19.4778 34.4476 25.0746 34.4476 30.6816C34.4476 31.1616 34.131 31.468 33.651 31.468C32.6501 31.468 31.6594 31.468 30.6585 31.468C30.1683 31.468 29.8517 31.1616 29.8517 30.6612C29.8517 26.9538 29.8517 23.2362 29.8517 19.5289C29.8517 19.4369 29.8517 19.3348 29.8517 19.2225C29.341 19.2225 28.8508 19.2225 28.3197 19.2225C28.3197 19.3144 28.3197 19.4063 28.3197 19.4982C28.3197 23.4303 28.3197 27.3623 28.3197 31.3046C28.3197 32.377 27.6967 33 26.6243 33C22.6412 33 18.6581 33 14.675 33C13.6332 32.9898 13 32.3566 13 31.3046C13 24.7682 13 18.2216 13 11.675C13 10.623 13.623 10 14.6852 10C18.6785 10 22.6616 10 26.655 10C27.6967 10 28.3197 10.6332 28.3197 11.6647C28.3197 13.5644 28.3197 15.464 28.3197 17.3637C28.3197 17.4556 28.3197 17.5373 28.3197 17.6599ZM26.7775 31.4476C26.7775 24.7988 26.7775 18.1705 26.7775 11.5524C22.6923 11.5524 18.6172 11.5524 14.5524 11.5524C14.5524 18.1909 14.5524 24.8091 14.5524 31.4476C18.6274 31.4476 22.6923 31.4476 26.7775 31.4476ZM31.7003 12.921C31.3122 13.4418 31.2917 14.0853 31.6083 14.6163C31.8943 15.0964 32.456 15.4028 32.9258 15.3313C32.9258 14.9738 32.9258 14.6163 32.9258 14.2589C32.9258 14.1976 32.8952 14.1159 32.8441 14.075C32.4663 13.6869 32.0884 13.3091 31.7003 12.921Z" fill="#F9FAFA"/>
<path d="M20.6706 19.1917C19.6697 19.1917 18.679 19.1917 17.6781 19.1917C16.7181 19.1917 16.0645 18.5381 16.0645 17.5883C16.0645 16.618 16.0645 15.6376 16.0645 14.6673C16.0645 13.7175 16.7181 13.0638 17.6781 13.0638C19.6697 13.0638 21.6613 13.0638 23.663 13.0638C24.6026 13.0638 25.2563 13.7175 25.2563 14.6571C25.2563 15.6376 25.2563 16.618 25.2563 17.5985C25.2563 18.5381 24.6026 19.1917 23.663 19.1917C22.6621 19.1917 21.6613 19.1917 20.6706 19.1917ZM23.7039 17.6495C23.7039 16.618 23.7039 15.6171 23.7039 14.6162C21.6613 14.6162 19.6288 14.6162 17.6066 14.6162C17.6066 15.6376 17.6066 16.6384 17.6066 17.6495C19.6493 17.6495 21.6715 17.6495 23.7039 17.6495Z" fill="#F9FAFA"/>
<path d="M19.1383 23.0217C19.1383 23.5426 19.1383 24.0328 19.1383 24.5537C19.2303 24.5537 19.312 24.5537 19.3937 24.5537C20.5477 24.5537 21.712 24.5537 22.8661 24.5537C23.3768 24.5537 23.724 24.8703 23.724 25.3197C23.724 25.7691 23.3768 26.0857 22.8661 26.0857C21.712 26.0857 20.5682 26.0857 19.4141 26.0857C19.3324 26.0857 19.2405 26.0857 19.1179 26.0857C19.1179 26.1878 19.1179 26.2695 19.1179 26.3512C19.1179 27.0048 19.1179 27.6585 19.1179 28.3121C19.1179 28.8024 18.8013 29.1496 18.3519 29.1496C17.9128 29.1496 17.5859 28.8024 17.5859 28.3223C17.5859 26.3001 17.5859 24.2881 17.5859 22.2659C17.5859 21.8166 17.9025 21.4897 18.3519 21.4897C19.8635 21.4897 21.3852 21.4897 22.8968 21.4897C23.3666 21.4897 23.7036 21.8166 23.7138 22.2455C23.7138 22.6949 23.3768 23.0217 22.8866 23.0217C21.6508 23.0217 20.415 23.0217 19.1383 23.0217Z" fill="#F9FAFA"/>
</g>
<defs>
<filter id="filter0_d_125_8649" x="0" y="0" width="48" height="48" filterUnits="userSpaceOnUse" color-interpolation-filters="sRGB">
<feFlood flood-opacity="0" result="BackgroundImageFix"/>
<feColorMatrix in="SourceAlpha" type="matrix" values="0 0 0 0 0 0 0 0 0 0 0 0 0 0 0 0 0 0 127 0" result="hardAlpha"/>
<feOffset dy="2"/>
<feGaussianBlur stdDeviation="2"/>
<feComposite in2="hardAlpha" operator="out"/>
<feColorMatrix type="matrix" values="0 0 0 0 0 0 0 0 0 0 0 0 0 0 0 0 0 0 0.1 0"/>
<feBlend mode="normal" in2="BackgroundImageFix" result="effect1_dropShadow_125_8649"/>
<feBlend mode="normal" in="SourceGraphic" in2="effect1_dropShadow_125_8649" result="shape"/>
</filter>
</defs>
</svg>
