<svg width="48" height="48" viewBox="0 0 48 48" fill="none" xmlns="http://www.w3.org/2000/svg">
<g filter="url(#filter0_d_172_25633)">
<circle cx="24" cy="22" r="20" fill="#FF9626"/>
<path d="M12 31.435C12 30.555 12 29.685 12 28.805C12.18 28.375 12.51 28.195 12.97 28.235C13.14 28.255 13.32 28.235 13.5 28.235C13.5 27.965 13.5 27.725 13.5 27.495C13.5 27.255 13.5 27.015 13.5 26.765C13.51 26.295 13.82 25.985 14.28 25.985C14.51 25.985 14.74 25.985 14.98 25.985C14.98 23.975 14.98 21.985 14.98 19.985C14.76 19.985 14.55 19.985 14.34 19.985C13.8 19.985 13.5 19.685 13.5 19.145C13.5 18.455 13.51 17.765 13.5 17.085C13.5 16.705 13.66 16.455 13.99 16.275C17.17 14.565 20.35 12.855 23.53 11.135C23.86 10.955 24.15 10.955 24.48 11.135C25.51 11.705 26.55 12.255 27.59 12.815C29.71 13.955 31.83 15.105 33.96 16.235C34.34 16.435 34.52 16.715 34.51 17.155C34.49 17.825 34.51 18.495 34.5 19.175C34.5 19.685 34.19 19.985 33.68 19.995C33.46 19.995 33.23 19.995 33 19.995C33 20.705 33.01 21.385 33 22.065C33 22.235 33.05 22.325 33.19 22.415C34.49 23.245 35.37 24.405 35.78 25.905C35.88 26.255 35.93 26.625 36 26.975C36 27.315 36 27.665 36 28.005C35.99 28.065 35.96 28.125 35.96 28.185C35.69 30.585 33.97 32.605 31.64 33.255C31.27 33.355 30.9 33.415 30.52 33.485C30.18 33.485 29.83 33.485 29.49 33.485C29.44 33.475 29.39 33.455 29.33 33.445C28.17 33.315 27.13 32.875 26.23 32.135C26.09 32.015 25.95 31.975 25.77 31.975C21.51 31.975 17.24 31.975 12.98 31.985C12.51 32.005 12.18 31.855 12 31.435ZM15 18.475C21.01 18.475 27 18.475 33 18.475C33 18.185 32.99 17.915 33 17.635C33.01 17.475 32.94 17.405 32.81 17.335C29.92 15.785 27.04 14.235 24.16 12.675C24.03 12.605 23.94 12.625 23.82 12.685C22.85 13.215 21.87 13.735 20.9 14.265C18.98 15.295 17.07 16.325 15.17 17.355C15.09 17.395 15.01 17.495 15.01 17.565C14.99 17.865 15 18.165 15 18.475ZM34.5 27.485C34.49 24.955 32.44 22.975 29.99 22.995C27.45 23.015 25.52 24.995 25.5 27.495C25.49 29.975 27.52 31.995 30 31.985C32.49 31.985 34.5 29.965 34.5 27.485ZM19.52 20.005C19.52 22.005 19.52 23.995 19.52 25.975C20.27 25.975 21.01 25.975 21.74 25.975C21.74 23.975 21.74 21.995 21.74 20.005C20.99 20.005 20.26 20.005 19.52 20.005ZM17.98 25.985C17.98 23.985 17.98 21.995 17.98 20.015C17.48 20.015 16.99 20.015 16.51 20.015C16.51 22.015 16.51 23.995 16.51 25.985C17 25.985 17.49 25.985 17.98 25.985ZM23.26 25.995C23.52 25.995 23.76 25.985 24 25.995C24.14 26.005 24.2 25.955 24.24 25.815C24.36 25.455 24.52 25.105 24.65 24.745C24.7 24.625 24.74 24.495 24.74 24.365C24.75 22.995 24.74 21.615 24.74 20.245C24.74 20.165 24.74 20.085 24.74 19.995C24.22 19.995 23.74 19.995 23.25 19.995C23.26 21.995 23.26 23.975 23.26 25.995ZM24.79 30.485C24.7 30.295 24.61 30.145 24.54 29.975C24.48 29.795 24.38 29.735 24.18 29.735C20.71 29.745 17.23 29.745 13.76 29.745C13.68 29.745 13.59 29.745 13.52 29.745C13.52 30.015 13.52 30.255 13.52 30.485C17.28 30.485 21.02 30.485 24.79 30.485ZM15.01 28.235C18.02 28.235 21.03 28.235 24.04 28.235C24.02 27.985 24 27.745 23.99 27.515C20.99 27.515 18 27.515 15.01 27.515C15.01 27.755 15.01 27.985 15.01 28.235ZM26.26 22.785C26.36 22.715 26.44 22.645 26.52 22.605C27.03 22.335 27.53 22.055 28.06 21.825C28.48 21.645 28.5 21.675 28.5 21.215C28.5 20.815 28.5 20.415 28.5 20.015C27.73 20.015 26.99 20.015 26.26 20.015C26.26 20.935 26.26 21.845 26.26 22.785ZM30.01 20.005C30.01 20.505 30.01 20.995 30.01 21.465C30.51 21.525 30.99 21.595 31.48 21.655C31.48 21.115 31.48 20.565 31.48 20.005C31 20.005 30.52 20.005 30.01 20.005Z" fill="#F9FAFA"/>
<path d="M30.7497 28.245C30.7497 28.745 30.7497 29.205 30.7497 29.665C30.7497 30.165 30.4397 30.505 29.9997 30.495C29.5597 30.495 29.2597 30.155 29.2597 29.655C29.2597 29.195 29.2597 28.735 29.2597 28.245C28.7997 28.245 28.3597 28.245 27.9197 28.245C27.8197 28.245 27.7197 28.245 27.6197 28.225C27.2397 28.155 26.9797 27.805 27.0197 27.425C27.0597 27.045 27.3697 26.755 27.7597 26.745C28.2497 26.735 28.7397 26.745 29.2697 26.745C29.2697 26.395 29.2697 26.055 29.2697 25.715C29.2697 25.565 29.2697 25.415 29.2697 25.265C29.2797 24.825 29.5997 24.495 30.0097 24.495C30.4397 24.495 30.7597 24.825 30.7697 25.275C30.7697 25.755 30.7697 26.225 30.7697 26.745C30.8697 26.745 30.9697 26.745 31.0697 26.745C31.4697 26.745 31.8697 26.735 32.2597 26.745C32.6797 26.755 32.9997 27.085 32.9997 27.505C32.9897 27.915 32.6697 28.235 32.2497 28.245C31.7597 28.245 31.2697 28.245 30.7497 28.245Z" fill="#F9FAFA"/>
</g>
<defs>
<filter id="filter0_d_172_25633" x="0" y="0" width="48" height="48" filterUnits="userSpaceOnUse" color-interpolation-filters="sRGB">
<feFlood flood-opacity="0" result="BackgroundImageFix"/>
<feColorMatrix in="SourceAlpha" type="matrix" values="0 0 0 0 0 0 0 0 0 0 0 0 0 0 0 0 0 0 127 0" result="hardAlpha"/>
<feOffset dy="2"/>
<feGaussianBlur stdDeviation="2"/>
<feComposite in2="hardAlpha" operator="out"/>
<feColorMatrix type="matrix" values="0 0 0 0 0 0 0 0 0 0 0 0 0 0 0 0 0 0 0.1 0"/>
<feBlend mode="normal" in2="BackgroundImageFix" result="effect1_dropShadow_172_25633"/>
<feBlend mode="normal" in="SourceGraphic" in2="effect1_dropShadow_172_25633" result="shape"/>
</filter>
</defs>
</svg>
