<svg width="48" height="48" viewBox="0 0 48 48" fill="none" xmlns="http://www.w3.org/2000/svg">
<g filter="url(#filter0_d_133_14052)">
<circle cx="24" cy="22" r="20" fill="#FF9626"/>
<g clip-path="url(#clip0_133_14052)">
<path d="M19.3605 16.219C17.4009 14.8752 17.4147 12.3665 18.7722 11.0031C20.1197 9.65065 22.3016 9.66949 23.6077 11.0372C24.9298 12.4223 24.9262 14.8657 22.9833 16.2168C25.4021 16.9354 27.0589 18.469 27.9535 20.8154C29.3147 20.2134 30.5651 20.9233 30.9367 22.1085C31.4416 22.1085 31.953 22.1078 32.4638 22.1085C33.3613 22.1107 33.8387 22.5844 33.8387 23.4784C33.8394 26.5318 33.8394 29.5852 33.8387 32.6386C33.8387 33.5195 33.3606 33.9984 32.4826 33.9984C30.1174 33.9991 27.7521 33.9991 25.3869 33.9984C24.5046 33.9984 24.0243 33.5217 24.0221 32.6466C24.0214 32.3119 24.0221 31.9772 24.0221 31.5977C23.8961 31.5977 23.7852 31.5977 23.6744 31.5977C20.647 31.5977 17.6204 31.5977 14.5931 31.5977C14.0715 31.5977 14.007 31.5346 14.007 31.0239C14.0077 28.3501 13.9853 25.6755 14.0172 23.0017C14.0541 19.8983 16.1737 17.1556 19.1497 16.2834C19.217 16.2653 19.2822 16.2436 19.3605 16.219ZM14.7408 30.8595C17.8508 30.8595 20.9267 30.8595 24.0228 30.8595C24.0228 30.7356 24.0228 30.6313 24.0228 30.5262C24.0228 28.1523 24.0214 25.7784 24.0236 23.4052C24.0243 22.617 24.5234 22.1179 25.3123 22.1092C25.718 22.1049 26.1251 22.0897 26.5293 22.1143C26.8198 22.1317 27.0176 22.0744 27.0821 21.7586C27.0987 21.6767 27.1509 21.5913 27.2095 21.5297C27.3486 21.3848 27.3247 21.2392 27.2624 21.0697C26.5503 19.1311 25.2275 17.7996 23.2919 17.0854C22.7638 16.8905 22.2154 16.7688 21.6286 16.7507C21.6388 16.8507 21.6409 16.9282 21.6547 17.0035C22.1712 19.8657 22.6906 22.7271 23.1999 25.5908C23.2252 25.7349 23.2093 25.9153 23.1427 26.0428C22.6175 27.0411 22.0814 28.0342 21.5323 29.0194C21.4649 29.1404 21.2983 29.2846 21.1831 29.2795C21.052 29.2737 20.8788 29.1404 20.8093 29.0151C20.2587 28.0306 19.7248 27.0367 19.196 26.0399C19.1388 25.932 19.1055 25.7835 19.1265 25.6647C19.5278 23.4001 19.94 21.137 20.3486 18.8732C20.4746 18.1742 20.5992 17.4744 20.7347 16.721C20.3732 16.7811 20.0501 16.8152 19.7364 16.8898C16.7468 17.6004 14.7401 20.1446 14.7285 23.2516C14.7191 25.6958 14.7264 28.14 14.7271 30.5849C14.7285 30.6704 14.7358 30.7566 14.7408 30.8595ZM30.9888 22.8423C30.9736 22.9293 30.9657 22.9894 30.9526 23.0488C30.8396 23.566 30.794 23.6131 30.276 23.7058C29.4169 23.8594 28.5548 23.8551 27.6942 23.7297C27.0581 23.637 27.0169 23.5878 26.8923 22.9495C26.8857 22.9177 26.8792 22.8858 26.8705 22.8416C26.3794 22.8416 25.9034 22.8416 25.4282 22.8416C24.8929 22.8423 24.7494 22.9821 24.7494 23.5117C24.7487 26.539 24.7487 29.5664 24.7494 32.5937C24.7494 33.1262 24.895 33.2725 25.4217 33.2725C27.7427 33.2725 30.0638 33.2725 32.3855 33.2725C32.9875 33.2725 33.1201 33.1414 33.1208 32.5459C33.1208 29.5541 33.1208 26.5622 33.1208 23.5696C33.1208 23.4813 33.1237 23.3922 33.1136 23.3052C33.081 23.0213 32.9107 22.8503 32.6275 22.8459C32.0892 22.8358 31.551 22.8423 30.9888 22.8423ZM21.1643 10.7192C19.7162 10.7228 18.5216 11.9275 18.5325 13.3727C18.5433 14.8114 19.7314 15.9951 21.1686 15.998C22.616 16.0009 23.8149 14.8027 23.8127 13.3553C23.8106 11.9036 22.616 10.7148 21.1643 10.7192ZM21.173 28.1733C21.6185 27.3497 22.0386 26.5782 22.4501 25.8016C22.4856 25.7349 22.4718 25.6321 22.4574 25.5495C22.169 23.9275 21.8785 22.3055 21.5866 20.6843C21.4613 19.9867 21.3316 19.2898 21.1903 18.5175C21.1483 18.6161 21.1302 18.6429 21.1244 18.6726C20.7064 20.9878 20.2892 23.3031 19.8748 25.6183C19.8632 25.682 19.8719 25.7617 19.9023 25.8182C20.3124 26.5861 20.7282 27.3518 21.173 28.1733ZM28.9177 23.1191C29.2821 23.0828 29.6487 23.035 30.0159 23.0147C30.2057 23.0046 30.2528 22.9082 30.2593 22.7503C30.2811 22.2229 30.0804 21.8013 29.6335 21.5224C29.1561 21.2247 28.6591 21.2327 28.1933 21.5449C27.7565 21.8376 27.5674 22.2635 27.6094 22.7923C27.6217 22.9445 27.6848 23.001 27.8362 23.0126C28.1955 23.0394 28.5533 23.0828 28.9177 23.1191Z" fill="#F9FAFA"/>
<path d="M31.6565 27.7883C31.6565 28.3084 31.6587 28.8293 31.6558 29.3494C31.6544 29.6761 31.5363 29.8022 31.2139 29.8072C30.7995 29.8138 30.3844 29.8145 29.9701 29.8072C29.6477 29.8014 29.5354 29.6783 29.5333 29.3458C29.5311 28.9314 29.5354 28.5171 29.5318 28.102C29.5282 27.689 29.2783 27.4101 28.924 27.4145C28.5792 27.4188 28.3343 27.6905 28.3285 28.0889C28.3227 28.512 28.3293 28.9358 28.3264 29.3588C28.3235 29.6754 28.2097 29.8014 27.904 29.8072C27.481 29.8152 27.0572 29.8152 26.6341 29.8072C26.3291 29.8014 26.2045 29.6703 26.2038 29.3624C26.2009 28.3215 26.2053 27.2812 26.2002 26.2402C26.1995 26.0316 26.2842 25.8947 26.4566 25.7853C27.1927 25.3173 27.9272 24.8457 28.6567 24.3676C28.8545 24.2379 29.0262 24.2473 29.2174 24.3727C29.9476 24.85 30.68 25.3245 31.416 25.7925C31.5921 25.9048 31.6616 26.0482 31.6587 26.254C31.6515 26.7654 31.6565 27.2768 31.6565 27.7883ZM27.6186 29.077C27.6186 28.6561 27.5947 28.2592 27.6237 27.8658C27.6708 27.2327 28.1974 26.7379 28.824 26.698C29.4833 26.6553 30.0838 27.0595 30.2055 27.6832C30.2722 28.0252 30.2454 28.3852 30.2606 28.7373C30.2656 28.8474 30.2707 28.9582 30.2758 29.0676C30.5054 29.0676 30.7039 29.0676 30.9241 29.0676C30.9241 28.178 30.9278 27.3058 30.9176 26.4343C30.9169 26.3691 30.8329 26.2866 30.7669 26.2438C30.207 25.8758 29.6455 25.51 29.0754 25.1579C29.0037 25.1137 28.8552 25.1166 28.7828 25.1615C28.2206 25.5093 27.6715 25.878 27.1108 26.2286C26.971 26.3155 26.9311 26.4148 26.9326 26.572C26.9398 27.3218 26.9355 28.0723 26.9362 28.822C26.9362 28.9061 26.9449 28.9894 26.9492 29.0778C27.1745 29.077 27.3672 29.077 27.6186 29.077Z" fill="#F9FAFA"/>
<path d="M28.9169 31.2078C28.1758 31.2078 27.4354 31.2086 26.6944 31.2071C26.385 31.2064 26.2097 31.0738 26.2061 30.8456C26.2025 30.616 26.3792 30.4754 26.6842 30.4747C28.183 30.4733 29.6826 30.4733 31.1814 30.4747C31.4878 30.4747 31.6603 30.6145 31.6552 30.8478C31.6501 31.0782 31.4792 31.2057 31.1662 31.2064C30.4157 31.2093 29.6659 31.2078 28.9169 31.2078Z" fill="#F9FAFA"/>
<path d="M28.9226 32.5966C28.1736 32.5966 27.4238 32.5981 26.6748 32.5959C26.3785 32.5952 26.2133 32.4691 26.2053 32.2482C26.1974 32.0164 26.3683 31.8765 26.6791 31.8765C28.1866 31.8744 29.6934 31.8744 31.2009 31.8773C31.5233 31.878 31.7124 32.0692 31.6457 32.3184C31.5892 32.53 31.4328 32.5995 31.2234 32.5981C30.4562 32.5937 29.6891 32.5966 28.9226 32.5966Z" fill="#F9FAFA"/>
</g>
</g>
<defs>
<filter id="filter0_d_133_14052" x="0" y="0" width="48" height="48" filterUnits="userSpaceOnUse" color-interpolation-filters="sRGB">
<feFlood flood-opacity="0" result="BackgroundImageFix"/>
<feColorMatrix in="SourceAlpha" type="matrix" values="0 0 0 0 0 0 0 0 0 0 0 0 0 0 0 0 0 0 127 0" result="hardAlpha"/>
<feOffset dy="2"/>
<feGaussianBlur stdDeviation="2"/>
<feComposite in2="hardAlpha" operator="out"/>
<feColorMatrix type="matrix" values="0 0 0 0 0 0 0 0 0 0 0 0 0 0 0 0 0 0 0.1 0"/>
<feBlend mode="normal" in2="BackgroundImageFix" result="effect1_dropShadow_133_14052"/>
<feBlend mode="normal" in="SourceGraphic" in2="effect1_dropShadow_133_14052" result="shape"/>
</filter>
<clipPath id="clip0_133_14052">
<rect width="24" height="24" fill="white" transform="translate(12 10)"/>
</clipPath>
</defs>
</svg>
