<svg width="48" height="48" viewBox="0 0 48 48" fill="none" xmlns="http://www.w3.org/2000/svg">
<g filter="url(#filter0_d_194_13073)">
<circle cx="24" cy="22" r="20" fill="#FF9626"/>
<g clip-path="url(#clip0_194_13073)">
<path d="M23.0194 34C22.0127 33.7717 20.9634 33.6564 20.0064 33.2966C15.5659 31.6281 12.832 28.4388 12.1367 23.7411C11.19 17.3543 15.25 11.6501 21.5457 10.2641C27.9706 8.8504 34.5823 13.2678 35.7412 19.7469C36.9254 26.3655 32.757 32.4976 26.1949 33.789C25.7729 33.872 25.3463 33.9297 24.9219 33.9989C24.2877 34 23.6536 34 23.0194 34ZM34.1084 22.0162C34.1177 16.4192 29.5769 11.8657 23.9799 11.8611C18.3817 11.8565 13.8386 16.3949 13.8329 21.9977C13.8271 27.5947 18.369 32.1516 23.9614 32.1609C29.5469 32.1701 34.0992 27.6189 34.1084 22.0162Z" fill="#F9FAFA"/>
<path d="M23.0419 21.0925C23.0419 20.3592 23.0419 19.6846 23.0419 19.0089C23.0419 18.2029 23.0338 17.3958 23.0453 16.5898C23.0546 15.9556 23.4189 15.5647 23.9701 15.5647C24.5236 15.5635 24.8926 15.9521 24.8983 16.5863C24.9099 17.9112 24.9018 19.2361 24.9018 20.5621C24.9018 20.7189 24.9018 20.8757 24.9018 21.0937C25.0909 21.0937 25.2442 21.0937 25.3976 21.0937C26.7086 21.0937 28.0185 21.0914 29.3296 21.0948C30.0018 21.0971 30.4146 21.4396 30.4284 21.9896C30.4423 22.5569 30.011 22.9294 29.3273 22.9305C27.8744 22.9328 26.4215 22.9317 24.9029 22.9317C24.9029 23.1092 24.9029 23.2603 24.9029 23.4113C24.9029 24.6936 24.9052 25.9746 24.8995 27.2568C24.8983 27.4563 24.8914 27.6673 24.828 27.853C24.6942 28.2473 24.3887 28.4583 23.9747 28.4595C23.5596 28.4606 23.2529 28.2496 23.1203 27.8553C23.0534 27.6569 23.0488 27.4309 23.0476 27.2165C23.0419 25.8074 23.0442 24.3972 23.0442 22.9317C22.8608 22.9317 22.7075 22.9317 22.5541 22.9317C21.2004 22.9317 19.8467 22.9363 18.493 22.9282C17.9753 22.9247 17.6259 22.6307 17.5383 22.1637C17.4599 21.7452 17.6986 21.2978 18.1044 21.1617C18.2762 21.104 18.4723 21.0971 18.6568 21.096C19.939 21.0902 21.22 21.0937 22.5022 21.0937C22.6556 21.0925 22.8113 21.0925 23.0419 21.0925Z" fill="#F9FAFA"/>
</g>
</g>
<defs>
<filter id="filter0_d_194_13073" x="0" y="0" width="48" height="48" filterUnits="userSpaceOnUse" color-interpolation-filters="sRGB">
<feFlood flood-opacity="0" result="BackgroundImageFix"/>
<feColorMatrix in="SourceAlpha" type="matrix" values="0 0 0 0 0 0 0 0 0 0 0 0 0 0 0 0 0 0 127 0" result="hardAlpha"/>
<feOffset dy="2"/>
<feGaussianBlur stdDeviation="2"/>
<feComposite in2="hardAlpha" operator="out"/>
<feColorMatrix type="matrix" values="0 0 0 0 0 0 0 0 0 0 0 0 0 0 0 0 0 0 0.1 0"/>
<feBlend mode="normal" in2="BackgroundImageFix" result="effect1_dropShadow_194_13073"/>
<feBlend mode="normal" in="SourceGraphic" in2="effect1_dropShadow_194_13073" result="shape"/>
</filter>
<clipPath id="clip0_194_13073">
<rect width="24" height="24" fill="white" transform="translate(12 10)"/>
</clipPath>
</defs>
</svg>
