<svg width="48" height="48" viewBox="0 0 48 48" fill="none" xmlns="http://www.w3.org/2000/svg">
<g filter="url(#filter0_d_169_12679)">
<circle cx="24" cy="22" r="20" fill="#FF9626"/>
<path d="M14 20.9214C13.9891 15.6062 17.1898 11.4823 21.7778 10.3168C27.5952 8.83855 33.5184 12.691 34.4576 18.6051C35.0352 22.2429 33.9413 25.3618 31.2795 27.8921C30.2603 28.861 29.1269 29.7107 28.0368 30.6035C26.9003 31.535 25.816 32.5175 24.9012 33.6753C24.5744 34.0885 24.0509 34.113 23.7395 33.7153C22.5766 32.2287 21.1242 31.0561 19.6698 29.8776C18.7196 29.1079 17.7584 28.3369 16.9036 27.4673C14.9715 25.501 14.0342 23.0958 14 20.9214ZM24.3223 32.1604C24.3713 32.0837 24.3958 32.0314 24.4325 31.9902C25.2906 31.0225 26.2692 30.1845 27.2632 29.3619C28.3856 28.433 29.5698 27.5607 30.5858 26.5248C32.9014 24.164 33.6782 21.2985 32.8621 18.0946C31.5386 12.8999 25.9913 10.1259 21.0023 12.0992C16.3846 13.9256 14.1773 19.3446 16.1925 23.8862C16.8733 25.4205 17.9615 26.6189 19.2353 27.6735C20.9598 29.0995 22.8022 30.3908 24.3223 32.1604Z" fill="#F9FAFA"/>
<path d="M24.3085 12.3893C28.6684 12.3938 32.2301 15.9568 32.2295 20.3134C32.2288 24.6829 28.6568 28.246 24.286 28.2363C19.9255 28.2266 16.3683 24.6578 16.3779 20.3025C16.387 15.9414 19.9513 12.3848 24.3085 12.3893ZM24.148 13.843C20.5237 13.9616 17.7124 16.9457 17.8323 20.5474C17.9509 24.1092 20.9595 26.8948 24.567 26.7813C28.0688 26.6717 30.8828 23.6495 30.7745 20.1162C30.6655 16.5718 27.6621 13.7282 24.148 13.843Z" fill="#F9FAFA"/>
<path d="M23.578 19.5856C23.578 18.9307 23.5767 18.3118 23.5786 17.6923C23.5799 17.2043 23.8758 16.8736 24.3064 16.8755C24.7371 16.8768 25.0278 17.2069 25.0291 17.6974C25.0304 18.3163 25.0297 18.9345 25.0297 19.585C25.2276 19.585 25.4094 19.585 25.5919 19.585C26.0509 19.585 26.5099 19.5811 26.9689 19.5863C27.4195 19.5914 27.7392 19.8977 27.7392 20.3122C27.7392 20.7312 27.4234 21.0323 26.9708 21.0348C26.3358 21.0381 25.7002 21.0355 25.042 21.0355C25.0375 21.1257 25.0297 21.2024 25.0297 21.2798C25.0284 21.8432 25.0317 22.4073 25.0284 22.9707C25.0259 23.4265 24.7306 23.7424 24.3116 23.7456C23.8822 23.7495 23.5812 23.4304 23.5793 22.9624C23.5767 22.4067 23.5786 21.851 23.5786 21.2953C23.5786 21.2173 23.5786 21.1386 23.5786 21.0348C22.9043 21.0348 22.2545 21.0393 21.6047 21.0335C21.156 21.0297 20.8395 20.688 20.8691 20.2567C20.8955 19.8764 21.2056 19.5921 21.6208 19.5869C22.1765 19.5798 22.7322 19.585 23.2879 19.585C23.3743 19.5856 23.4613 19.5856 23.578 19.5856Z" fill="#F9FAFA"/>
</g>
<defs>
<filter id="filter0_d_169_12679" x="0" y="0" width="48" height="48" filterUnits="userSpaceOnUse" color-interpolation-filters="sRGB">
<feFlood flood-opacity="0" result="BackgroundImageFix"/>
<feColorMatrix in="SourceAlpha" type="matrix" values="0 0 0 0 0 0 0 0 0 0 0 0 0 0 0 0 0 0 127 0" result="hardAlpha"/>
<feOffset dy="2"/>
<feGaussianBlur stdDeviation="2"/>
<feComposite in2="hardAlpha" operator="out"/>
<feColorMatrix type="matrix" values="0 0 0 0 0 0 0 0 0 0 0 0 0 0 0 0 0 0 0.1 0"/>
<feBlend mode="normal" in2="BackgroundImageFix" result="effect1_dropShadow_169_12679"/>
<feBlend mode="normal" in="SourceGraphic" in2="effect1_dropShadow_169_12679" result="shape"/>
</filter>
</defs>
</svg>
