<svg width="48" height="48" viewBox="0 0 48 48" fill="none" xmlns="http://www.w3.org/2000/svg">
<g filter="url(#filter0_d_883_33364)">
<circle cx="24" cy="22" r="20" fill="#FF9626"/>
<g clip-path="url(#clip0_883_33364)">
<path d="M35.9999 21.2795C36.0103 26.9031 32.9694 31.3636 28.3881 33.1645C21.4023 35.9107 13.6406 31.6214 12.2119 24.2254C11.2155 19.0664 13.8041 13.7536 18.4855 11.3492C23.1483 8.95514 28.7641 9.80162 32.4234 13.4505C32.4803 13.5074 32.5429 13.561 32.5895 13.6256C32.7122 13.7995 32.709 13.9797 32.5585 14.1303C32.4085 14.2809 32.2289 14.2944 32.0564 14.1626C31.9607 14.0896 31.878 13.9998 31.7908 13.9164C29.9919 12.195 27.8615 11.1637 25.3879 10.8613C19.7772 10.1764 14.5323 13.7478 13.1314 19.2008C11.6471 24.9788 14.9529 30.9094 20.6638 32.7135C26.8573 34.6707 33.5225 30.848 34.9344 24.5084C35.6704 21.2046 35.0359 18.1611 33.0806 15.3961C33.0482 15.3503 33.0121 15.3063 32.9823 15.2585C32.8576 15.0576 32.8867 14.8476 33.056 14.719C33.2298 14.5871 33.4702 14.6143 33.6078 14.8133C33.8921 15.2236 34.1816 15.6326 34.4298 16.0649C35.4824 17.8994 35.9935 19.8825 35.9999 21.2795Z" fill="#F9FAFA"/>
<path d="M34.4535 22.0058C34.4457 27.7651 29.7565 32.4505 24.0017 32.4479C18.2379 32.4453 13.5376 27.7341 13.5557 21.9761C13.5732 16.2142 18.2682 11.534 24.0191 11.5469C29.7797 11.5592 34.4606 16.2517 34.4535 22.0058ZM24.0159 31.6738C29.3494 31.6647 33.6897 27.3128 33.6793 21.9851C33.669 16.6491 29.3216 12.3113 23.9926 12.321C18.6598 12.3301 14.3208 16.6801 14.3292 22.009C14.3382 27.3419 18.6895 31.6828 24.0159 31.6738Z" fill="#F9FAFA"/>
<path d="M27.883 25.0938C27.883 25.3691 27.883 25.6088 27.883 25.8563C28.4168 25.9106 28.8058 26.162 28.9764 26.6757C29.2232 27.4194 28.674 28.1774 27.8811 28.1883C27.1154 28.1987 26.3497 28.1942 25.5833 28.1896C24.9527 28.1864 24.4519 27.7412 24.395 27.1435C24.3362 26.5303 24.7504 25.9985 25.3798 25.8796C25.427 25.8705 25.4754 25.8673 25.5375 25.8596C25.5375 25.614 25.5375 25.3685 25.5375 25.0945C25.4399 25.0945 25.3462 25.0945 25.2525 25.0945C22.8339 25.0945 20.4159 25.0945 17.9973 25.0945C17.5334 25.0945 17.4248 24.9879 17.4248 24.5297C17.4248 22.8368 17.4248 21.1432 17.4248 19.4502C17.4248 19.0179 17.5392 18.9023 17.9644 18.9016C18.2868 18.901 18.6092 18.8977 18.9317 18.9029C19.1934 18.9074 19.3627 19.0683 19.3581 19.2958C19.3536 19.5142 19.1901 19.6673 18.9407 19.6738C18.701 19.6796 18.4613 19.6751 18.2105 19.6751C18.2105 21.2278 18.2105 22.7567 18.2105 24.3029C20.6485 24.3029 23.0852 24.3029 25.5375 24.3029C25.5375 22.7683 25.5375 21.2336 25.5375 19.6757C25.4425 19.6757 25.3559 19.6757 25.2693 19.6757C23.7456 19.6757 22.222 19.6757 20.6983 19.6757C20.6175 19.6757 20.5348 19.6835 20.4573 19.6667C20.2615 19.6247 20.1413 19.4993 20.1387 19.2971C20.1355 19.0825 20.257 18.9514 20.465 18.9094C20.5426 18.8939 20.6259 18.9016 20.706 18.9016C22.2213 18.9016 23.7372 18.9016 25.2525 18.9016C25.3404 18.9016 25.4283 18.9016 25.5342 18.9016C25.5342 18.6457 25.5342 18.4002 25.5342 18.1449C25.447 18.1262 25.3539 18.1101 25.2628 18.0868C24.7065 17.9427 24.3407 17.4212 24.395 16.8526C24.45 16.282 24.9313 15.8187 25.511 15.8097C26.2844 15.7981 27.0585 15.8039 27.8326 15.8065C28.4775 15.809 28.9815 16.2588 29.0313 16.8675C29.0817 17.4813 28.6643 18.0034 28.031 18.1185C27.9851 18.1269 27.9386 18.1307 27.8837 18.1378C27.8837 18.3873 27.8837 18.627 27.8837 18.9023C27.9625 18.9023 28.0394 18.9023 28.1163 18.9023C28.6643 18.9023 29.2129 18.899 29.7608 18.9035C30.0471 18.9061 30.1944 19.0515 30.195 19.3378C30.1976 21.1115 30.1976 22.8852 30.195 24.659C30.1944 24.9523 30.0425 25.0926 29.7369 25.0945C29.125 25.0958 28.5137 25.0938 27.883 25.0938ZM26.7361 16.5786V16.5793C26.3413 16.5793 25.9458 16.5728 25.551 16.5819C25.321 16.587 25.1659 16.7537 25.1659 16.9657C25.1659 17.1763 25.3216 17.3334 25.551 17.3508C25.6234 17.356 25.6958 17.3527 25.7688 17.3527C26.2127 17.3534 26.3245 17.4652 26.3245 17.9097C26.3245 20.5707 26.3193 23.2309 26.3284 25.8919C26.3303 26.4754 26.2954 26.6886 25.5988 26.6466C25.3346 26.6304 25.1659 26.801 25.1659 27.0291C25.1659 27.2566 25.3339 27.4117 25.5995 27.4149C25.9458 27.4194 26.2928 27.4162 26.6392 27.4162C27.0501 27.4162 27.4617 27.422 27.8727 27.4123C28.1027 27.4071 28.2585 27.2385 28.2578 27.0285C28.2578 26.8172 28.1021 26.6608 27.8721 26.644C27.7997 26.6388 27.7273 26.6427 27.6543 26.6421C27.211 26.6414 27.0992 26.5296 27.0992 26.0844C27.0992 23.4157 27.1044 20.7471 27.0954 18.0784C27.0934 17.5111 27.138 17.3159 27.8003 17.3489C28.0834 17.3631 28.2585 17.199 28.2578 16.965C28.2578 16.7305 28.084 16.5812 27.7997 16.5793C27.4456 16.576 27.0908 16.5786 26.7361 16.5786ZM27.8902 19.6861C27.8902 21.2388 27.8902 22.7728 27.8902 24.3003C28.409 24.3003 28.9117 24.3003 29.4087 24.3003C29.4087 22.7528 29.4087 21.2252 29.4087 19.6861C28.9001 19.6861 28.4039 19.6861 27.8902 19.6861Z" fill="#F9FAFA"/>
<path d="M19.5529 22.7715C19.5768 22.7715 19.6014 22.7709 19.6253 22.7715C19.9516 22.7735 20.1313 22.9104 20.1313 23.1586C20.1313 23.4061 19.951 23.5437 19.6253 23.5456C19.5445 23.5463 19.4638 23.5489 19.3836 23.5443C19.1368 23.5321 18.9746 23.3776 18.9746 23.1579C18.9746 22.9382 19.1362 22.7844 19.3836 22.7722C19.4399 22.7696 19.4967 22.7722 19.5529 22.7715Z" fill="#F9FAFA"/>
<path d="M21.0957 23.5456C21.0556 23.5456 21.0149 23.5463 20.9748 23.5456C20.6924 23.5392 20.5193 23.3886 20.5225 23.1534C20.5257 22.9182 20.697 22.7767 20.9852 22.7722C21.0821 22.7709 21.179 22.7683 21.2753 22.7735C21.5208 22.7857 21.683 22.944 21.6798 23.1637C21.6766 23.3821 21.5131 23.5333 21.2656 23.545C21.2087 23.5476 21.1519 23.545 21.0957 23.5456Z" fill="#F9FAFA"/>
<path d="M22.6342 23.5424C22.5618 23.5424 22.4875 23.5521 22.417 23.5405C22.2083 23.5062 22.0849 23.3815 22.072 23.1676C22.0597 22.9673 22.2116 22.7967 22.4216 22.776C22.5495 22.7638 22.6794 22.7676 22.808 22.7722C23.058 22.7806 23.2215 22.9298 23.2267 23.1482C23.2325 23.375 23.0626 23.534 22.8028 23.5443C22.7466 23.5463 22.6897 23.545 22.6335 23.545C22.6342 23.5443 22.6342 23.543 22.6342 23.5424Z" fill="#F9FAFA"/>
<path d="M24.1898 23.5456C24.1413 23.5456 24.0929 23.5476 24.0451 23.5456C23.7827 23.5353 23.6147 23.3789 23.6192 23.1515C23.6238 22.9324 23.7866 22.7832 24.036 22.7735C24.1407 22.7696 24.2454 22.7696 24.35 22.7735C24.6117 22.7825 24.781 22.9395 24.7759 23.167C24.7713 23.3847 24.6079 23.5346 24.3591 23.5463C24.3022 23.5476 24.246 23.545 24.1898 23.5456Z" fill="#F9FAFA"/>
</g>
</g>
<defs>
<filter id="filter0_d_883_33364" x="0" y="0" width="48" height="48" filterUnits="userSpaceOnUse" color-interpolation-filters="sRGB">
<feFlood flood-opacity="0" result="BackgroundImageFix"/>
<feColorMatrix in="SourceAlpha" type="matrix" values="0 0 0 0 0 0 0 0 0 0 0 0 0 0 0 0 0 0 127 0" result="hardAlpha"/>
<feOffset dy="2"/>
<feGaussianBlur stdDeviation="2"/>
<feComposite in2="hardAlpha" operator="out"/>
<feColorMatrix type="matrix" values="0 0 0 0 0 0 0 0 0 0 0 0 0 0 0 0 0 0 0.1 0"/>
<feBlend mode="normal" in2="BackgroundImageFix" result="effect1_dropShadow_883_33364"/>
<feBlend mode="normal" in="SourceGraphic" in2="effect1_dropShadow_883_33364" result="shape"/>
</filter>
<clipPath id="clip0_883_33364">
<rect width="24" height="24" fill="white" transform="translate(12 10)"/>
</clipPath>
</defs>
</svg>
