<svg width="48" height="48" viewBox="0 0 48 48" fill="none" xmlns="http://www.w3.org/2000/svg">
<g filter="url(#filter0_d_152_29065)">
<circle cx="24" cy="22" r="20" fill="#FF9626"/>
<g clip-path="url(#clip0_152_29065)">
<path d="M23.2244 10.9229C23.6305 11.0336 23.8398 11.329 23.9998 11.6982C24.7013 13.3475 25.4152 14.9721 26.1167 16.6213C26.1782 16.7567 26.2398 16.8182 26.3998 16.8305C28.369 16.9536 30.3382 17.0767 32.3075 17.1998C32.7629 17.2244 33.0582 17.4336 33.1813 17.8029C33.3044 18.1721 33.1813 18.5044 32.8367 18.7998C31.4336 19.9567 30.0182 21.1259 28.6152 22.2829C28.1967 22.6275 28.1967 22.6275 28.3813 23.1444C28.8736 23.0829 29.3536 22.9721 29.8336 22.9475C32.2705 22.7998 34.5967 24.6829 34.9905 27.0952C35.0152 27.2675 35.0521 27.4521 35.0767 27.6244C35.0767 27.8705 35.0767 28.1167 35.0767 28.3629C35.0644 28.4244 35.0398 28.4859 35.0398 28.5475C34.8182 30.6521 33.3044 32.3875 31.249 32.9044C30.9536 32.9782 30.6582 33.0152 30.3629 33.0767C30.1167 33.0767 29.8705 33.0767 29.6244 33.0767C29.2675 33.0029 28.9105 32.9536 28.5659 32.8552C26.3505 32.2398 24.7998 30.0736 24.9475 27.7721C24.9721 27.4521 24.8982 27.2675 24.6029 27.1075C24.1352 26.8613 23.6798 26.5659 23.2367 26.2829C23.1136 26.209 23.0275 26.209 22.9044 26.2829C21.3167 27.2552 19.7167 28.2275 18.129 29.1998C17.7844 29.409 17.4398 29.4459 17.0952 29.2121C16.7629 28.9782 16.6767 28.6459 16.7505 28.2644C17.1198 26.4552 17.4767 24.6459 17.8459 22.849C17.8829 22.6521 17.8459 22.5413 17.6859 22.4182C16.2952 21.249 14.8921 20.0921 13.4767 18.9352C13.2429 18.7382 13.0336 18.529 12.9229 18.2336C12.9229 18.1229 12.9229 17.9998 12.9229 17.889C12.9352 17.8644 12.9598 17.8275 12.9721 17.8029C13.1198 17.4213 13.4029 17.2121 13.809 17.1998C14.1782 17.1752 14.5598 17.1505 14.929 17.1259C16.529 17.0275 18.129 16.9167 19.7413 16.8305C19.9136 16.8182 19.9875 16.7567 20.049 16.609C20.7505 14.9721 21.4644 13.3475 22.1536 11.7105C22.3136 11.3413 22.5229 11.0459 22.9167 10.9229C23.0152 10.9229 23.1259 10.9229 23.2244 10.9229ZM17.649 28.4244C17.7844 28.3382 17.8705 28.3013 17.9444 28.2521C19.5321 27.2798 21.1198 26.3198 22.6952 25.3475C22.9659 25.1752 23.1875 25.1752 23.4459 25.3475C23.9382 25.6675 24.4552 25.9629 24.9598 26.2705C25.0213 26.3075 25.0952 26.3444 25.169 26.3813C25.1936 26.3321 25.2059 26.3075 25.2182 26.2829C25.6367 25.1505 26.3629 24.2644 27.3967 23.6244C27.4582 23.5875 27.4952 23.4767 27.4829 23.4029C27.4459 23.1567 27.3967 22.9105 27.3352 22.6644C27.249 22.3444 27.3475 22.1229 27.6059 21.9136C29.0829 20.7075 30.5598 19.489 32.0244 18.2705C32.0859 18.2213 32.1352 18.1721 32.2336 18.0859C32.0244 18.0736 31.8644 18.049 31.7044 18.049C31.1259 18.0121 30.5475 17.9875 29.9813 17.9505C28.6644 17.8644 27.3475 17.7782 26.0305 17.7044C25.7229 17.6921 25.5382 17.5813 25.4152 17.2982C24.6767 15.5752 23.9382 13.8644 23.1875 12.1536C23.1505 12.0798 23.1136 12.0059 23.0644 11.9075C23.0152 12.0305 22.9782 12.1044 22.9413 12.1782C22.2029 13.9013 21.4521 15.6121 20.7136 17.3352C20.6152 17.569 20.4675 17.6921 20.209 17.7044C18.5105 17.8152 16.7998 17.9136 15.089 18.0244C14.7075 18.0367 14.3382 18.0736 13.9075 18.0982C14.0429 18.209 14.1167 18.2829 14.2029 18.3444C15.6675 19.5629 17.1321 20.769 18.609 21.9752C18.7936 22.1352 18.8798 22.3198 18.8305 22.5659C18.5229 24.0798 18.2152 25.5936 17.9075 27.1198C17.8213 27.5382 17.7475 27.9567 17.649 28.4244ZM25.8459 27.9936C25.8336 30.2952 27.7044 32.1659 29.9936 32.1659C32.2705 32.1659 34.1536 30.3075 34.1659 28.0182C34.1782 25.7167 32.3198 23.8582 30.0182 23.8336C27.7167 23.8213 25.8459 25.6798 25.8459 27.9936Z" fill="#F9FAFA" stroke="#F9FAFA" stroke-width="0.5"/>
<path d="M29.5503 28.4487C29.0949 28.4487 28.6641 28.4487 28.2456 28.4487C27.901 28.4487 27.7041 28.2764 27.7041 27.9933C27.7041 27.7102 27.9133 27.5502 28.2456 27.5502C28.6641 27.5502 29.0949 27.5502 29.5379 27.5502C29.5379 27.0825 29.5379 26.6394 29.5379 26.1964C29.5379 25.901 29.7349 25.7041 30.0056 25.7164C30.2518 25.7287 30.4364 25.9133 30.4364 26.1841C30.4364 26.6271 30.4364 27.0702 30.4364 27.5625C30.7072 27.5625 30.9533 27.5625 31.1995 27.5625C31.3964 27.5625 31.5933 27.5625 31.7779 27.5625C32.0733 27.5625 32.2826 27.7594 32.2826 28.0179C32.2826 28.2764 32.0856 28.461 31.7779 28.4733C31.3841 28.4733 31.0026 28.4733 30.6087 28.4733C30.4733 28.4733 30.4118 28.5102 30.4241 28.6579C30.4364 29.0518 30.4241 29.4333 30.4241 29.8271C30.4241 30.1225 30.2395 30.3318 29.981 30.3318C29.7226 30.3318 29.5256 30.1225 29.5256 29.8271C29.5379 29.3594 29.5503 28.9164 29.5503 28.4487Z" fill="#F9FAFA" stroke="#F9FAFA" stroke-width="0.5"/>
</g>
</g>
<defs>
<filter id="filter0_d_152_29065" x="0" y="0" width="48" height="48" filterUnits="userSpaceOnUse" color-interpolation-filters="sRGB">
<feFlood flood-opacity="0" result="BackgroundImageFix"/>
<feColorMatrix in="SourceAlpha" type="matrix" values="0 0 0 0 0 0 0 0 0 0 0 0 0 0 0 0 0 0 127 0" result="hardAlpha"/>
<feOffset dy="2"/>
<feGaussianBlur stdDeviation="2"/>
<feComposite in2="hardAlpha" operator="out"/>
<feColorMatrix type="matrix" values="0 0 0 0 0 0 0 0 0 0 0 0 0 0 0 0 0 0 0.1 0"/>
<feBlend mode="normal" in2="BackgroundImageFix" result="effect1_dropShadow_152_29065"/>
<feBlend mode="normal" in="SourceGraphic" in2="effect1_dropShadow_152_29065" result="shape"/>
</filter>
<clipPath id="clip0_152_29065">
<rect width="24" height="24" fill="white" transform="translate(12 10)"/>
</clipPath>
</defs>
</svg>
