<svg width="48" height="48" viewBox="0 0 48 48" fill="none" xmlns="http://www.w3.org/2000/svg">
<g filter="url(#filter0_d_106_5021)">
<circle cx="24" cy="22" r="20" fill="#FF9626"/>
<g clip-path="url(#clip0_106_5021)">
<path d="M24.6413 11C25.0566 11.0611 25.4842 11.0855 25.8873 11.171C29.442 11.8429 32.0683 13.7851 33.7662 16.9611C34.4014 18.1338 34.7557 19.4042 34.9023 20.7357C34.9267 20.9922 34.8412 21.1632 34.6457 21.261C34.3526 21.3953 34.0472 21.2121 33.9861 20.8701C33.925 20.5158 33.864 20.1494 33.8029 19.7951C33.7907 19.734 33.7662 19.673 33.754 19.5997C33.0944 19.6852 32.4348 19.7463 31.7873 19.844C31.0056 19.9539 30.236 20.0028 29.4786 19.7218C28.4647 19.3554 27.7562 18.6469 27.2798 17.6941C26.4614 16.0328 26.2782 14.3104 26.7912 12.5269C26.8034 12.4781 26.8157 12.417 26.8401 12.3437C25.2643 11.8917 23.6885 11.8062 22.0883 12.1116C22.0883 12.1238 22.0761 12.1483 22.0516 12.1727C22.1127 12.1971 22.186 12.2215 22.2349 12.2704C23.4198 13.3454 24.0305 14.6768 24.0428 16.2649C24.055 16.9245 24.1038 17.5841 23.9328 18.2315C23.5053 19.7829 22.5158 20.7846 20.9645 21.1755C20.0239 21.4198 19.352 21.9206 19.0833 22.8734C18.9856 23.2154 18.9978 23.5819 18.9367 23.9361C18.668 25.4997 17.422 26.5625 15.834 26.5747C15.5775 26.5747 15.3087 26.5747 14.9911 26.5747C15.2354 26.9656 15.4309 27.332 15.663 27.6741C17.4098 30.1538 19.7796 31.5952 22.7968 31.9983C23.151 32.0472 23.3587 32.2671 23.2854 32.5602C23.2243 32.8168 23.0289 32.9389 22.7357 32.9145C21.5264 32.7801 20.3781 32.4625 19.2909 31.9373C16.799 30.7401 15.0033 28.8712 13.9039 26.3548C13.4153 25.2432 13.1344 24.0827 13.0489 22.8734C13.0489 22.8001 13.0244 22.7268 13.0122 22.6413C13 22.1893 13 21.7496 13 21.3098C13.0489 20.9311 13.0855 20.5403 13.1588 20.1616C13.5497 17.8895 14.5514 15.9228 16.176 14.286C17.8251 12.6247 19.804 11.5741 22.1127 11.171C22.5036 11.0977 22.9067 11.0611 23.3098 11C23.7496 11 24.1893 11 24.6413 11ZM13.9162 21.4931C13.9284 23.191 14.1238 24.3515 14.5269 25.4631C14.5758 25.6219 14.6491 25.6585 14.8079 25.6585C15.1377 25.6463 15.4675 25.6707 15.7973 25.6463C16.0539 25.6341 16.3348 25.6097 16.5791 25.5242C17.4708 25.231 18.045 24.437 18.0816 23.4597C18.1183 22.3848 18.558 21.5175 19.4253 20.8701C19.8406 20.5525 20.3293 20.4059 20.8301 20.2593C22.0272 19.9173 22.809 19.1355 23.0533 17.9139C23.1632 17.3398 23.1632 16.729 23.1388 16.1427C23.0655 14.5791 22.3448 13.3576 21.0133 12.5025C20.94 12.4536 20.7934 12.4414 20.7079 12.4781C20.0972 12.7468 19.4742 12.9667 18.9001 13.3087C15.663 15.2998 14.0505 18.2315 13.9162 21.4931ZM27.744 12.6247C27.7196 12.6857 27.7074 12.7102 27.6952 12.7468C27.2188 14.4692 27.402 16.1183 28.3304 17.633C28.9167 18.598 29.8084 19.0622 30.9567 18.9767C31.5308 18.94 32.1049 18.8423 32.6791 18.7812C32.9478 18.7446 33.2288 18.7079 33.5219 18.6713C32.4592 15.8129 30.5536 13.8218 27.744 12.6247Z" fill="#F9FAFA" stroke="#F9FAFA" stroke-width="0.4"/>
<path d="M28.5502 32.9876C28.1348 32.9021 27.7195 32.8411 27.3164 32.7311C25.1054 32.1081 23.3953 30.0682 23.1387 27.7961C22.7723 24.6445 24.7267 21.9082 27.805 21.212C31.0421 20.479 34.3891 22.7633 34.9022 26.0493C34.9266 26.2203 34.9633 26.3913 34.9877 26.5501C34.9877 26.8799 34.9877 27.2097 34.9877 27.5396C34.9755 27.5884 34.9511 27.6373 34.9511 27.6861C34.5968 30.1781 33.2287 31.8516 30.8711 32.6945C30.4436 32.8411 29.9794 32.9021 29.5396 32.9999C29.2098 32.9876 28.88 32.9876 28.5502 32.9876ZM34.0715 26.9166C33.9738 24.0582 31.6407 21.8838 28.7945 21.9938C26.046 22.1037 23.8961 24.4735 23.9938 27.2708C24.0915 29.9582 26.4735 32.1692 29.1487 32.0715C31.9583 31.9615 34.1693 29.6528 34.0715 26.9166Z" fill="#F9FAFA" stroke="#F9FAFA" stroke-width="0.4"/>
<path d="M29.4908 27.4907C29.4908 28.1992 29.4908 28.871 29.4908 29.5551C29.4908 29.6284 29.4908 29.7139 29.4908 29.7872C29.4786 30.0437 29.2831 30.2391 29.0266 30.2391C28.7823 30.2391 28.5869 30.0559 28.5746 29.7872C28.5624 29.1153 28.5746 28.4435 28.5746 27.7716C28.5746 27.6861 28.5746 27.6006 28.5746 27.4907C28.4769 27.4907 28.4036 27.4907 28.3303 27.4907C27.6707 27.4907 27.0111 27.4907 26.3514 27.4907C26.0216 27.4907 25.8262 27.3074 25.8262 27.0265C25.8262 26.7455 26.0216 26.5867 26.3392 26.5867C26.9989 26.5867 27.6585 26.5867 28.3181 26.5867C28.3914 26.5867 28.4647 26.5867 28.5746 26.5867C28.5746 26.489 28.5746 26.4035 28.5746 26.3302C28.5746 25.6828 28.5746 25.0232 28.5746 24.3757C28.5746 24.0337 28.7457 23.8383 29.0266 23.8383C29.3198 23.8383 29.4908 24.0337 29.4908 24.388C29.4908 25.1087 29.4908 25.8294 29.4908 26.5867C29.5763 26.5867 29.6496 26.5867 29.7229 26.5867C30.407 26.5867 31.091 26.5867 31.7873 26.5867C32.056 26.5867 32.2393 26.7944 32.2393 27.0387C32.2393 27.283 32.056 27.4785 31.7873 27.4907C31.7262 27.4907 31.6774 27.4907 31.6163 27.4907C30.9811 27.4907 30.3581 27.4907 29.7229 27.4907C29.6618 27.4907 29.5885 27.4907 29.4908 27.4907Z" fill="#F9FAFA"/>
</g>
</g>
<defs>
<filter id="filter0_d_106_5021" x="0" y="0" width="48" height="48" filterUnits="userSpaceOnUse" color-interpolation-filters="sRGB">
<feFlood flood-opacity="0" result="BackgroundImageFix"/>
<feColorMatrix in="SourceAlpha" type="matrix" values="0 0 0 0 0 0 0 0 0 0 0 0 0 0 0 0 0 0 127 0" result="hardAlpha"/>
<feOffset dy="2"/>
<feGaussianBlur stdDeviation="2"/>
<feComposite in2="hardAlpha" operator="out"/>
<feColorMatrix type="matrix" values="0 0 0 0 0 0 0 0 0 0 0 0 0 0 0 0 0 0 0.1 0"/>
<feBlend mode="normal" in2="BackgroundImageFix" result="effect1_dropShadow_106_5021"/>
<feBlend mode="normal" in="SourceGraphic" in2="effect1_dropShadow_106_5021" result="shape"/>
</filter>
<clipPath id="clip0_106_5021">
<rect width="24" height="24" fill="white" transform="translate(12 10)"/>
</clipPath>
</defs>
</svg>
