<svg width="48" height="48" viewBox="0 0 48 48" fill="none" xmlns="http://www.w3.org/2000/svg">
<g filter="url(#filter0_d_133_15784)">
<circle cx="24" cy="22" r="20" fill="#FF9626"/>
<g clip-path="url(#clip0_133_15784)">
<path d="M18.1082 13.1268C17.0813 12.7275 16.1213 12.3537 15.1607 11.9799C15.1148 11.9622 15.0675 11.9471 15.0236 11.9261C14.8118 11.8265 14.7266 11.6448 14.7974 11.4468C14.8656 11.256 15.0636 11.1622 15.2839 11.237C15.5469 11.3268 15.8039 11.4343 16.0636 11.5353C16.8721 11.8494 17.6833 12.1576 18.4872 12.4822C18.6459 12.5465 18.7351 12.5137 18.8485 12.4048C19.4059 11.8724 19.9705 11.3478 20.5325 10.8212C21.701 9.7268 23.2774 9.72615 24.4433 10.8199C25.0413 11.3806 25.6393 11.9412 26.238 12.5019C26.2971 12.5576 26.36 12.6094 26.423 12.6645C27.8177 10.1557 30.8092 9.48615 32.9285 10.4009C34.9771 11.2848 36.2669 13.4586 36.0348 15.616C35.7705 18.0763 33.7226 20.1904 30.9784 20.2501C30.9784 20.3452 30.9784 20.4416 30.9784 20.538C30.9784 24.0966 30.981 27.6547 30.9771 31.2134C30.9757 32.5498 30.1298 33.6239 28.8452 33.9229C28.6164 33.976 28.3751 33.9963 28.139 33.997C24.3764 34.0016 20.6131 34.0016 16.8505 33.9996C15.1784 33.9983 14.0033 32.8225 14.0026 31.1511C14.0013 26.8461 14.0053 22.5412 14 18.237C13.9987 17.3648 14.3095 16.6455 14.9462 16.054C15.9312 15.1393 16.9095 14.2166 17.8912 13.298C17.9449 13.2481 18.0059 13.2068 18.1082 13.1268ZM19.442 12.8461C19.9534 13.0448 20.4275 13.2193 20.8925 13.4153C21.059 13.4855 21.1561 13.475 21.2898 13.3386C21.8302 12.7845 22.6571 12.675 23.3246 13.0468C23.9921 13.4186 24.339 14.1989 24.1626 14.9301C23.9449 15.8304 23.1161 16.3832 22.1974 16.2409C21.3318 16.1071 20.7108 15.3019 20.7895 14.3963C20.8039 14.2284 20.7685 14.1484 20.6066 14.0888C20.0839 13.898 19.5652 13.6973 19.0505 13.4861C18.8971 13.4232 18.8026 13.4488 18.6846 13.5602C17.6184 14.5688 16.5502 15.5747 15.4741 16.5714C14.9744 17.0337 14.7377 17.5865 14.7384 18.2704C14.7462 22.5491 14.7416 26.8278 14.7423 31.1065C14.7423 32.4252 15.5738 33.2593 16.8879 33.2599C20.6249 33.2606 24.362 33.2606 28.099 33.2599C29.3961 33.2593 30.238 32.418 30.2387 31.1222C30.2393 27.5648 30.2387 24.0075 30.2387 20.4501C30.2387 20.3622 30.2387 20.275 30.2387 20.1871C30.1502 20.1668 30.0872 20.1491 30.0236 20.1373C28.8275 19.913 27.8197 19.3471 27.0459 18.4114C25.8748 16.9957 25.5534 15.3891 26.0531 13.6173C26.0787 13.5268 26.0708 13.376 26.0138 13.3209C25.2675 12.6075 24.5239 11.8901 23.7508 11.2061C23.0767 10.6101 22.042 10.5602 21.3423 11.1216C20.6872 11.6475 20.0938 12.2488 19.442 12.8461ZM35.3089 15.117C35.3102 12.713 33.3548 10.7471 30.9541 10.7406C28.5449 10.734 26.5679 12.7045 26.5672 15.1137C26.5666 17.5137 28.5285 19.4829 30.9259 19.4888C33.3397 19.4953 35.3075 17.5327 35.3089 15.117ZM21.5541 14.4652C21.4675 14.9006 21.7469 15.3314 22.1921 15.4763C22.6551 15.6271 23.1574 15.4094 23.3698 14.9668C23.5843 14.5189 23.4269 13.9806 23.0052 13.717C22.6472 13.4934 22.162 13.5314 21.9318 13.8094C22.0787 13.8678 22.2236 13.9222 22.3659 13.9825C22.6052 14.0842 22.6977 14.2586 22.6256 14.4639C22.5502 14.6776 22.3502 14.7602 22.1043 14.6724C21.92 14.6081 21.739 14.5353 21.5541 14.4652Z" fill="#F9FAFA"/>
<path d="M22.4881 31.3456C21.0212 31.3456 19.555 31.3462 18.0881 31.3456C17.0835 31.3449 16.4206 30.6866 16.4199 29.6879C16.4186 27.1554 16.4186 24.623 16.4199 22.0911C16.4206 21.1049 17.0822 20.4354 18.0671 20.4341C21.0166 20.4308 23.9668 20.4308 26.9163 20.4341C27.8986 20.4354 28.5616 21.1069 28.5622 22.0944C28.5648 24.6269 28.5648 27.1593 28.5622 29.6911C28.5616 30.6787 27.8953 31.3443 26.9124 31.3456C25.4376 31.3469 23.9629 31.3456 22.4881 31.3456ZM22.4816 30.6052C23.9485 30.6052 25.416 30.6059 26.8829 30.6052C27.4947 30.6046 27.8219 30.2767 27.8226 29.661C27.8239 27.1443 27.8239 24.6275 27.8226 22.1108C27.8226 21.5023 27.4888 21.1731 26.875 21.1731C23.9491 21.1718 21.0226 21.1718 18.0967 21.1731C17.4848 21.1731 17.1596 21.503 17.1596 22.1193C17.1589 24.6361 17.1589 27.1528 17.1596 29.6695C17.1596 30.282 17.4868 30.6046 18.1052 30.6052C19.5635 30.6059 21.0226 30.6052 22.4816 30.6052Z" fill="#F9FAFA"/>
<path d="M28.905 16.8612C28.9397 16.6526 28.9961 16.3713 29.0276 16.0874C29.0374 15.9989 29.0033 15.8795 28.945 15.8139C28.7778 15.6238 28.5843 15.4572 28.4073 15.2756C28.1686 15.0303 28.1043 14.7366 28.2079 14.4146C28.3161 14.0782 28.5646 13.8959 28.9063 13.8382C29.124 13.8015 29.3424 13.7562 29.562 13.7471C29.7404 13.7392 29.8217 13.65 29.886 13.5044C29.9653 13.3248 30.0604 13.153 30.1423 12.9746C30.3017 12.6303 30.566 12.431 30.9469 12.4316C31.3187 12.433 31.5751 12.6297 31.7319 12.9641C31.8289 13.1713 31.9253 13.3805 32.0414 13.5766C32.0833 13.6474 32.1778 13.7116 32.2591 13.7287C32.4905 13.7779 32.7279 13.8002 32.962 13.8362C33.3063 13.8893 33.5542 14.071 33.6709 14.4028C33.7922 14.7464 33.7004 15.0474 33.4505 15.3031C33.3076 15.4493 33.1686 15.6028 33.0086 15.7287C32.842 15.8605 32.8164 16.0093 32.8623 16.2021C32.9096 16.4008 32.9371 16.6041 32.9692 16.8061C33.0217 17.1333 32.9201 17.4093 32.6637 17.6133C32.3994 17.8238 32.0991 17.8677 31.7883 17.7228C31.5515 17.612 31.3273 17.4743 31.0879 17.3693C31.0066 17.3339 30.884 17.3313 30.8033 17.3661C30.5568 17.4736 30.3266 17.6205 30.0794 17.7267C29.505 17.9746 28.8971 17.5608 28.905 16.8612ZM30.9542 13.0848C30.8702 13.2185 30.8184 13.288 30.7797 13.3634C30.6499 13.6185 30.5194 13.8736 30.3987 14.1333C30.3148 14.3149 30.1843 14.4074 29.985 14.4303C29.6846 14.4657 29.3856 14.5156 29.0866 14.5654C29.0276 14.5752 28.9732 14.6146 28.9168 14.6402C28.9456 14.7025 28.9607 14.7779 29.006 14.8244C29.2119 15.0356 29.423 15.2421 29.6387 15.4428C29.7889 15.5831 29.8558 15.7359 29.8092 15.9464C29.7509 16.21 29.7122 16.4775 29.6748 16.7451C29.6617 16.8362 29.6787 16.932 29.6827 17.0257C29.7725 17.0061 29.865 16.993 29.9522 16.9654C30.0138 16.9457 30.0683 16.9057 30.1266 16.8769C31.126 16.3759 30.7463 16.3634 31.7633 16.8762C31.8964 16.9431 32.0433 16.9825 32.1843 17.0349C32.1823 16.8802 32.1981 16.7228 32.1764 16.5707C32.0184 15.4716 31.8899 15.8146 32.6689 15.0271C32.7804 14.9143 32.8715 14.7818 32.9719 14.6585C32.8151 14.6113 32.6617 14.5477 32.501 14.5195C31.4401 14.3307 31.7128 14.5634 31.2224 13.6008C31.143 13.4474 31.0623 13.2933 30.9542 13.0848Z" fill="#F9FAFA"/>
<path d="M22.4932 24.1668C21.4526 24.1668 20.4113 24.1668 19.3706 24.1668C19.305 24.1668 19.2382 24.1727 19.1739 24.1628C18.9647 24.1327 18.8473 24.0002 18.8467 23.7969C18.846 23.6041 18.9621 23.4769 19.1542 23.4363C19.2172 23.4232 19.2847 23.4291 19.3503 23.4291C21.4401 23.4291 23.53 23.4291 25.6198 23.4291C25.669 23.4291 25.7182 23.4264 25.7673 23.4304C25.9909 23.4494 26.1411 23.6074 26.1326 23.814C26.1247 24.012 25.9791 24.153 25.7627 24.1655C25.6565 24.1714 25.5496 24.1668 25.4434 24.1668C24.4598 24.1668 23.4762 24.1668 22.4932 24.1668Z" fill="#F9FAFA"/>
<path d="M22.4923 28.3505C21.4595 28.3505 20.4267 28.3505 19.3939 28.3505C19.3205 28.3505 19.2451 28.3557 19.1729 28.3452C18.9631 28.3157 18.847 28.1826 18.8457 27.9793C18.8444 27.7859 18.9618 27.66 19.1539 27.6187C19.2169 27.6056 19.2844 27.6102 19.35 27.6102C21.4398 27.6095 23.5296 27.6102 25.6201 27.6102C25.6693 27.6102 25.7185 27.6075 25.7677 27.6121C25.9919 27.6324 26.1415 27.7911 26.1329 27.9964C26.1244 28.1944 25.9808 28.3334 25.7631 28.3479C25.6733 28.3538 25.5828 28.3498 25.4929 28.3498C24.4923 28.3505 23.4923 28.3505 22.4923 28.3505Z" fill="#F9FAFA"/>
<path d="M22.4806 26.2638C21.4563 26.2638 20.4321 26.2644 19.4078 26.2631C19.318 26.2631 19.2262 26.2644 19.139 26.2461C18.9436 26.2048 18.8386 26.0684 18.8472 25.8762C18.8557 25.6854 18.9665 25.5562 19.1672 25.5313C19.2478 25.5215 19.3304 25.5215 19.4124 25.5215C21.4609 25.5208 23.5095 25.5208 25.558 25.5215C25.9573 25.5215 26.135 25.6376 26.1324 25.8939C26.1298 26.1497 25.9508 26.2644 25.5527 26.2644C24.5291 26.2638 23.5049 26.2638 22.4806 26.2638Z" fill="#F9FAFA"/>
</g>
</g>
<defs>
<filter id="filter0_d_133_15784" x="0" y="0" width="48" height="48" filterUnits="userSpaceOnUse" color-interpolation-filters="sRGB">
<feFlood flood-opacity="0" result="BackgroundImageFix"/>
<feColorMatrix in="SourceAlpha" type="matrix" values="0 0 0 0 0 0 0 0 0 0 0 0 0 0 0 0 0 0 127 0" result="hardAlpha"/>
<feOffset dy="2"/>
<feGaussianBlur stdDeviation="2"/>
<feComposite in2="hardAlpha" operator="out"/>
<feColorMatrix type="matrix" values="0 0 0 0 0 0 0 0 0 0 0 0 0 0 0 0 0 0 0.1 0"/>
<feBlend mode="normal" in2="BackgroundImageFix" result="effect1_dropShadow_133_15784"/>
<feBlend mode="normal" in="SourceGraphic" in2="effect1_dropShadow_133_15784" result="shape"/>
</filter>
<clipPath id="clip0_133_15784">
<rect width="24" height="24" fill="white" transform="translate(13 10)"/>
</clipPath>
</defs>
</svg>
