<svg width="48" height="48" viewBox="0 0 48 48" fill="none" xmlns="http://www.w3.org/2000/svg">
<g filter="url(#filter0_d_113_9579)">
<circle cx="24" cy="22" r="20" fill="#FF9626"/>
<path d="M21.1181 31.0795C21.1181 30.8337 21.1158 30.6139 21.1187 30.3942C21.1235 30.0893 21.2328 29.9794 21.5341 29.9776C21.8354 29.9758 22.1367 29.977 22.4635 29.977C22.4635 29.6202 22.4623 29.2822 22.4635 28.9437C22.4652 28.5472 22.5473 28.4675 22.9473 28.4669C23.1837 28.4663 23.42 28.4651 23.6563 28.4639C23.6699 28.4639 23.6841 28.4568 23.7148 28.448C23.7148 27.8229 23.7148 27.193 23.7148 26.5354C23.6173 26.5354 23.5234 26.5354 23.4295 26.5354C20.9474 26.5354 18.4653 26.5354 15.9832 26.5354C15.5171 26.5354 15.445 26.4634 15.445 25.9972C15.445 21.1743 15.445 16.3513 15.445 11.5278C15.445 11.077 15.5212 11.0008 15.972 11.0008C17.6045 11.0008 19.2369 10.9967 20.8694 11.0073C21.0266 11.0085 21.205 11.064 21.3356 11.1509C21.914 11.5337 22.4747 11.9438 23.0525 12.3284C23.1772 12.4117 23.3467 12.469 23.4956 12.469C26.3842 12.4773 29.2722 12.4749 32.1607 12.4749C32.5956 12.4749 32.6777 12.557 32.6777 12.9907C32.6777 16.115 32.6777 19.2393 32.6777 22.3636C32.6777 22.4516 32.6777 22.5397 32.6777 22.6466C33.688 22.7731 34.5288 23.2044 35.1533 24.0067C35.7736 24.8037 35.9982 25.7101 35.8723 26.7121C35.6655 28.357 34.2446 29.6385 32.4969 29.7301C30.8579 29.8157 29.0689 28.6453 28.8013 26.5177C27.3567 26.5177 25.9109 26.5177 24.4463 26.5177C24.4463 27.1464 24.4463 27.7756 24.4463 28.4285C24.6903 28.4285 24.9325 28.4279 25.1742 28.4285C25.5742 28.4291 25.664 28.52 25.6652 28.9283C25.6657 29.2533 25.6652 29.5776 25.6652 29.9392C25.9517 29.9392 26.2288 29.9386 26.5059 29.9392C26.9112 29.9398 27.0034 30.0308 27.004 30.4314C27.0046 30.6234 27.004 30.8148 27.004 31.0417C27.0967 31.0417 27.1818 31.0417 27.2669 31.0417C29.0471 31.0417 30.8272 31.0417 32.608 31.0417C32.6818 31.0417 32.7569 31.0364 32.8289 31.0476C33.0156 31.0771 33.1179 31.1924 33.1196 31.3802C33.1214 31.5658 33.031 31.691 32.839 31.7194C32.7521 31.7324 32.6623 31.7306 32.5737 31.7312C30.8231 31.7318 29.0725 31.7318 27.3212 31.7318C27.2255 31.7318 27.1304 31.7318 27.0034 31.7318C27.0034 32.016 27.0046 32.2866 27.0034 32.5572C27.0016 32.8928 26.9012 32.9991 26.5715 32.9991C24.9018 33.0003 23.2327 33.0003 21.563 32.9991C21.2198 32.9991 21.1211 32.8951 21.1187 32.5454C21.117 32.309 21.117 32.0727 21.1146 31.8364C21.1146 31.8222 21.1063 31.808 21.0921 31.7619C21.0165 31.7619 20.9308 31.7619 20.8446 31.7619C19.0792 31.7619 17.3138 31.7619 15.5478 31.7619C15.4669 31.7619 15.3847 31.7649 15.3044 31.756C15.1147 31.7359 14.996 31.5994 15.0001 31.4133C15.0042 31.2272 15.126 31.0996 15.3186 31.0836C15.3918 31.0777 15.4663 31.0807 15.5401 31.0807C17.2984 31.0807 19.0561 31.0807 20.8144 31.0807C20.9025 31.0795 20.9905 31.0795 21.1181 31.0795ZM31.9711 15.1756C26.6826 15.1756 21.42 15.1756 16.1552 15.1756C16.1552 18.7395 16.1552 22.2868 16.1552 25.84C20.3849 25.84 24.5987 25.84 28.8048 25.84C29.1304 24.0451 30.1614 22.9657 31.9711 22.633C31.9711 20.1557 31.9711 17.6718 31.9711 15.1756ZM31.9728 13.1656C31.8494 13.1656 31.7536 13.1656 31.6579 13.1656C28.8887 13.1656 26.1189 13.1691 23.3497 13.1579C23.1648 13.1573 22.9562 13.0864 22.8002 12.9848C22.2135 12.6013 21.6475 12.1872 21.0661 11.7949C20.9698 11.7299 20.8381 11.6873 20.7223 11.6867C19.2747 11.6797 17.8272 11.682 16.3797 11.6826C16.3076 11.6826 16.2355 11.6885 16.1569 11.6921C16.1569 12.6238 16.1569 13.5408 16.1569 14.4565C21.4372 14.4565 26.6997 14.4565 31.9728 14.4565C31.9728 14.0264 31.9728 13.6099 31.9728 13.1656ZM29.515 26.1999C29.5203 27.788 30.7912 29.0506 32.3811 29.0459C33.9533 29.0412 35.2177 27.7673 35.2153 26.191C35.2129 24.6288 33.9267 23.3391 32.3687 23.3373C30.79 23.3355 29.5103 24.6188 29.515 26.1999ZM21.8596 32.3013C23.358 32.3013 24.8439 32.3013 26.3298 32.3013C26.3298 31.7501 26.3298 31.2154 26.3298 30.66C26.0061 30.66 25.6971 30.6653 25.3881 30.6583C25.134 30.6529 25.0466 30.5554 25.0448 30.3026C25.0442 30.2287 25.0454 30.1549 25.0454 30.081C25.0454 29.7744 25.0454 29.4677 25.0454 29.1617C24.4061 29.1617 23.8046 29.1617 23.1878 29.1617C23.1878 29.5091 23.1884 29.8411 23.1878 30.1726C23.1872 30.5661 23.0962 30.6588 22.7098 30.6606C22.431 30.6618 22.1515 30.6606 21.859 30.6606C21.8596 31.2213 21.8596 31.756 21.8596 32.3013Z" fill="#F9FAFA" stroke="#F9FAFA" stroke-width="0.2"/>
<path d="M18.589 19.9447C18.2753 18.8044 18.3917 18.2544 19.0268 17.8378C19.545 17.4981 20.212 17.5271 20.703 17.9105C21.2844 18.3649 21.3925 19.0118 21.0244 20.0227C21.1207 19.9932 21.1887 19.9867 21.2401 19.9542C21.4292 19.8349 21.6017 19.6836 21.8014 19.5891C22.0596 19.4668 22.3384 19.3882 22.6037 19.2919C22.5139 19.0248 22.4076 18.7743 22.3461 18.5126C22.1695 17.7569 22.4613 17.0272 23.0841 16.6172C23.6861 16.2208 24.4495 16.2308 25.0421 16.6426C25.6512 17.0662 25.9283 17.8089 25.7345 18.5557C25.6683 18.8098 25.5573 19.0526 25.4562 19.3273C25.7168 19.4189 25.9974 19.5004 26.2627 19.6174C26.4471 19.6984 26.6072 19.8331 26.7832 19.9341C26.8547 19.9755 26.941 19.9908 27.0379 19.9908C26.8553 19.5075 26.7336 19.0502 26.9239 18.5675C27.0385 18.278 27.224 18.044 27.4846 17.8721C28.0063 17.5283 28.6904 17.5631 29.1785 17.9578C29.7468 18.4175 29.852 19.075 29.4987 20.0074C29.6836 20.0759 29.8697 20.1433 30.0547 20.2136C30.4812 20.3766 30.7111 20.7004 30.717 21.1624C30.7223 21.5979 30.7211 22.0339 30.717 22.4699C30.714 22.7854 30.6059 22.89 30.2839 22.8906C28.9988 22.8918 27.7132 22.8912 26.4282 22.8912C23.5845 22.8912 20.7402 22.8912 17.8966 22.8912C17.4428 22.8912 17.3772 22.8239 17.3772 22.363C17.3772 21.9494 17.3761 21.5358 17.3784 21.1223C17.3808 20.7057 17.5557 20.4026 17.9533 20.2384C18.1695 20.1486 18.3793 20.0422 18.589 19.9447ZM26.3821 22.1993C26.3821 21.6883 26.3874 21.202 26.3791 20.7158C26.3762 20.532 26.2828 20.4009 26.0937 20.3394C25.7788 20.2366 25.4663 20.1267 25.1567 20.0086C25.0149 19.9548 24.9062 19.9613 24.7715 20.0511C24.3603 20.3252 23.8929 20.3967 23.4787 20.1267C23.1556 19.9164 22.8956 19.94 22.5949 20.0972C22.5494 20.1208 22.4986 20.1338 22.4507 20.1527C21.6489 20.4735 21.7021 20.2898 21.7039 21.2469C21.7045 21.5613 21.7039 21.8762 21.7039 22.1993C23.2773 22.1993 24.8158 22.1993 26.3821 22.1993ZM21.0197 22.1993C21.0197 21.7545 21.0203 21.3344 21.0197 20.9137C21.0191 20.6886 20.6764 20.4989 20.4815 20.6254C20.049 20.9048 19.6236 20.8859 19.1893 20.6313C19.1302 20.5964 19.0339 20.5858 18.9683 20.6065C18.7297 20.6821 18.4927 20.7666 18.2641 20.867C18.1861 20.9013 18.0809 20.9899 18.078 21.0579C18.0597 21.4366 18.0691 21.8165 18.0691 22.1999C19.0611 22.1993 20.0259 22.1993 21.0197 22.1993ZM30.0233 22.1999C30.0233 21.8236 30.0369 21.4691 30.0139 21.1175C30.008 21.0277 29.9058 20.9096 29.8177 20.8664C29.6003 20.7613 29.3681 20.6845 29.1359 20.613C29.0638 20.5905 28.9575 20.5958 28.896 20.6348C28.4689 20.9025 28.0506 20.883 27.6234 20.6366C27.559 20.5994 27.4615 20.5994 27.3829 20.6106C27.1318 20.6472 27.042 20.7873 27.0615 21.0514C27.0893 21.4295 27.0686 21.8118 27.0686 22.1993C28.0671 22.1999 29.0302 22.1999 30.0233 22.1999ZM25.1035 18.2337C25.1147 17.5732 24.7106 17.1164 24.1351 17.0515C23.6199 16.9936 23.1018 17.3652 23.009 17.9017C22.9056 18.499 23.1532 18.9846 23.591 19.3716C23.8876 19.6334 24.209 19.6233 24.5109 19.3634C24.8808 19.0461 25.0681 18.6319 25.1035 18.2337ZM19.8516 18.3217C19.4912 18.3188 19.2011 18.5368 19.1444 18.8931C19.0723 19.3492 19.2218 19.7391 19.5852 20.0286C19.8138 20.2112 20.0815 20.1917 20.241 19.9447C20.3964 19.7043 20.5323 19.4295 20.589 19.1519C20.6764 18.7205 20.2954 18.3253 19.8516 18.3217ZM27.5478 19.1129C27.5726 19.4573 27.6949 19.7959 28.0133 20.0328C28.2414 20.2023 28.4718 20.1746 28.6615 19.9619C28.8683 19.7309 28.9923 19.4597 29.0266 19.1507C29.0727 18.7347 28.7395 18.3471 28.32 18.3223C27.8899 18.2975 27.5442 18.6343 27.5478 19.1129Z" fill="#F9FAFA" stroke="#F9FAFA" stroke-width="0.2"/>
<path d="M17.9325 13.3654C17.5998 13.3654 17.2678 13.3684 16.9352 13.3642C16.6923 13.3613 16.5399 13.2165 16.5482 13.0074C16.5564 12.8012 16.6912 12.6889 16.9434 12.6883C17.6081 12.6866 18.2728 12.6866 18.9381 12.6883C19.1951 12.6889 19.3357 12.8148 19.3333 13.0304C19.331 13.2449 19.1921 13.3631 18.9298 13.3648C18.5978 13.3672 18.2651 13.3654 17.9325 13.3654Z" fill="#F9FAFA"/>
<path d="M20.634 12.6874C20.7374 12.6874 20.8402 12.6839 20.9436 12.688C21.1687 12.6969 21.2916 12.8204 21.2898 13.0295C21.288 13.2304 21.171 13.3551 20.9577 13.3622C20.7368 13.3699 20.5158 13.3704 20.2948 13.3622C20.0827 13.3545 19.9498 13.2074 19.9563 13.0071C19.9628 12.8109 20.0845 12.6963 20.3025 12.688C20.413 12.6839 20.5235 12.6874 20.634 12.6874Z" fill="#F9FAFA"/>
<path d="M32.6768 26.5454C32.6768 26.9708 32.6762 27.3826 32.6768 27.7939C32.6774 27.9522 32.6354 28.0881 32.4777 28.1566C32.2313 28.263 31.9985 28.1135 31.9885 27.8287C31.9767 27.4896 31.9849 27.1499 31.9844 26.8101C31.9844 26.7298 31.9844 26.6494 31.9844 26.5348C31.7474 26.5348 31.5288 26.5348 31.3108 26.5348C31.104 26.5348 30.8972 26.5395 30.6904 26.5318C30.4659 26.5236 30.3353 26.393 30.3359 26.1927C30.3365 25.9918 30.4695 25.8583 30.6922 25.8542C31.0319 25.8483 31.3717 25.8518 31.7114 25.8518C31.7912 25.8518 31.8715 25.8518 31.9849 25.8518C31.9849 25.5203 31.9849 25.2066 31.9849 24.8923C31.9849 24.7741 31.9784 24.6554 31.9897 24.5384C32.0103 24.321 32.151 24.1987 32.3554 24.2069C32.5492 24.2152 32.6709 24.3381 32.6744 24.5567C32.6809 24.9768 32.6762 25.3975 32.6762 25.8518C32.9049 25.8518 33.1235 25.8518 33.3415 25.8518C33.5406 25.8518 33.7403 25.8494 33.9394 25.853C34.1876 25.8577 34.3169 25.9723 34.3211 26.185C34.3252 26.4107 34.1994 26.5295 33.9341 26.533C33.5944 26.5378 33.2546 26.5342 32.9149 26.5348C32.844 26.5354 32.7713 26.5413 32.6768 26.5454Z" fill="#F9FAFA" stroke="#F9FAFA" stroke-width="0.2"/>
</g>
<defs>
<filter id="filter0_d_113_9579" x="0" y="0" width="48" height="48" filterUnits="userSpaceOnUse" color-interpolation-filters="sRGB">
<feFlood flood-opacity="0" result="BackgroundImageFix"/>
<feColorMatrix in="SourceAlpha" type="matrix" values="0 0 0 0 0 0 0 0 0 0 0 0 0 0 0 0 0 0 127 0" result="hardAlpha"/>
<feOffset dy="2"/>
<feGaussianBlur stdDeviation="2"/>
<feComposite in2="hardAlpha" operator="out"/>
<feColorMatrix type="matrix" values="0 0 0 0 0 0 0 0 0 0 0 0 0 0 0 0 0 0 0.1 0"/>
<feBlend mode="normal" in2="BackgroundImageFix" result="effect1_dropShadow_113_9579"/>
<feBlend mode="normal" in="SourceGraphic" in2="effect1_dropShadow_113_9579" result="shape"/>
</filter>
</defs>
</svg>
