<svg width="48" height="48" viewBox="0 0 48 48" fill="none" xmlns="http://www.w3.org/2000/svg">
<g filter="url(#filter0_d_196_16564)">
<circle cx="24" cy="22" r="20" fill="#FF9626"/>
<path d="M26.8805 34.0001C26.5938 33.8734 26.4871 33.6534 26.5005 33.3467C26.5138 32.9001 26.5005 32.4534 26.5071 32.0134C26.5205 31.4001 26.7938 30.9467 27.3338 30.6667C27.4538 30.6067 27.5071 30.5401 27.5005 30.4001C27.4871 30.1001 27.5005 29.7934 27.5005 29.4801C25.5405 29.2467 23.9938 28.3467 22.9338 26.6934C22.1338 25.4467 21.8338 24.0734 22.0671 22.6134C22.5738 19.4734 25.2271 17.3334 28.3738 17.5001C31.3605 17.6601 33.8071 20.1001 33.9871 23.1267C34.1805 26.3734 31.7738 29.1734 28.5005 29.4801C28.5005 29.8201 28.4938 30.1734 28.5071 30.5201C28.5071 30.5601 28.5738 30.6134 28.6271 30.6401C29.2205 30.9467 29.5005 31.4334 29.5005 32.1001C29.4938 32.5134 29.4871 32.9267 29.5005 33.3401C29.5138 33.6467 29.4071 33.8734 29.1205 33.9934C28.3805 34.0001 27.6338 34.0001 26.8805 34.0001ZM28.1405 28.5001C30.9405 28.3801 33.1271 26.0667 33.0071 23.3534C32.8805 20.5534 30.5738 18.3934 27.8471 18.5067C25.0671 18.6201 22.9405 20.8801 23.0138 23.6267C23.0871 26.4867 25.4471 28.5601 28.1405 28.5001ZM27.5071 32.9867C27.8605 32.9867 28.1738 32.9867 28.5005 32.9867C28.5005 32.6334 28.5138 32.3001 28.4938 31.9667C28.4738 31.6867 28.2605 31.5067 27.9938 31.5134C27.7338 31.5134 27.5271 31.6867 27.5071 31.9534C27.4938 32.2867 27.5071 32.6334 27.5071 32.9867Z" fill="#F9FAFA"/>
<path d="M29.7394 10C29.966 10.1 30.2127 10.1733 30.4127 10.3133C30.7927 10.58 30.9994 10.9667 30.9994 11.4333C31.0127 13.0933 31.006 14.76 31.006 16.42C31.006 16.4333 30.9994 16.4533 30.9927 16.48C30.6794 16.48 30.366 16.48 30.026 16.48C30.026 16 30.026 15.52 30.026 15.0067C29.5127 15.0067 29.026 15.0067 28.5327 15.0067C28.5327 14.6533 28.5327 14.34 28.5327 14C29.0194 14 29.506 14 29.9927 14C30.006 13.9267 30.0194 13.8733 30.0194 13.82C30.0194 13.08 30.026 12.3333 30.0194 11.5933C30.0194 11.18 29.826 10.9933 29.4127 10.9933C25.486 10.9933 21.5594 10.9933 17.626 10.9933C17.1994 10.9933 17.0127 11.1867 17.0127 11.6133C17.0127 12.0667 17.0127 12.52 17.0127 12.9867C16.6794 12.9867 16.366 12.9867 16.066 12.9867C16.0527 12.3667 15.9994 11.74 16.066 11.1267C16.126 10.62 16.4994 10.28 16.986 10.0933C17.066 10.06 17.146 10.0333 17.226 10C21.3927 10 25.566 10 29.7394 10Z" fill="#F9FAFA"/>
<path d="M17.2741 34C17.0541 33.9 16.8208 33.8267 16.6208 33.7C16.2541 33.46 16.0275 33.0934 16.0208 32.66C16.0008 31.2867 16.0141 29.9134 16.0141 28.52C16.3408 28.52 16.6541 28.52 16.9941 28.52C16.9941 29 16.9941 29.48 16.9941 29.9934C19.8408 29.9934 22.6608 29.9934 25.5008 29.9934C25.5008 30.34 25.5008 30.66 25.5008 30.9934C22.6741 30.9934 19.8541 30.9934 17.0208 30.9934C17.0208 31.5334 17.0075 32.0534 17.0275 32.5734C17.0341 32.8067 17.2075 32.9467 17.4408 32.9867C17.5341 33 17.6275 33 17.7208 33C20.0475 33 22.3741 33 24.7075 33C24.8008 33 24.8941 33 25.0141 33C25.0141 33.3467 25.0141 33.6734 25.0141 33.9934C22.4275 34 19.8475 34 17.2741 34Z" fill="#F9FAFA"/>
<path d="M21 25.9933C21 26.34 21 26.6466 21 26.9866C20.9133 26.9933 20.8333 27 20.7533 27C19.0533 27 17.3467 27 15.6467 27C14.6267 27 14 26.3733 14 25.3666C14 22.1266 14 18.88 14 15.64C14 14.6133 14.6267 14 15.6533 13.9933C18.8667 13.9933 22.0733 14.0066 25.2867 13.9866C26.3467 13.98 27.1667 14.6866 26.9867 15.9866C26.6733 15.9866 26.3533 15.9866 26 15.9866C26 15.86 26 15.7333 26 15.6066C26 15.1733 25.8267 15.0066 25.4 15.0066C23.8867 15.0066 22.3667 15.0066 20.8533 15.0066C19.12 15.0066 17.3867 15.0066 15.6533 15.0066C15.1667 15.0066 15.0067 15.16 15.0067 15.6533C15.0067 18.8866 15.0067 22.12 15.0067 25.3533C15.0067 25.84 15.16 26 15.6533 26C17.3333 26 19.0133 26 20.6933 26C20.7867 25.9933 20.88 25.9933 21 25.9933Z" fill="#F9FAFA"/>
<path d="M18.0473 16.0134C18.3607 16.0134 18.654 16.0134 18.9607 16.0134C18.9607 16.8534 18.9607 17.6734 18.9607 18.5134C19.9873 18.5134 21.0007 18.5134 22.034 18.5134C22.034 17.6868 22.034 16.8534 22.034 16.0134C22.354 16.0134 22.6473 16.0134 22.954 16.0134C22.9607 16.0934 22.9673 16.1734 22.9673 16.2468C22.9673 17.1134 22.9673 17.9801 22.9673 18.8468C22.9673 19.3068 22.8073 19.4668 22.3473 19.4668C21.114 19.4668 19.8807 19.4668 18.6473 19.4668C18.1873 19.4668 18.034 19.3068 18.0273 18.8468C18.0273 17.9801 18.0273 17.1134 18.0273 16.2468C18.0407 16.1734 18.0473 16.0934 18.0473 16.0134Z" fill="#F9FAFA"/>
<path d="M17.9936 24.4933C17.6803 24.4933 17.367 24.4999 17.0536 24.4933C16.7003 24.4866 16.5136 24.3133 16.507 23.9599C16.5003 23.3199 16.5003 22.6799 16.507 22.0399C16.507 21.6933 16.7003 21.4999 17.0403 21.4933C17.6803 21.4866 18.3203 21.4866 18.9603 21.4933C19.3003 21.4999 19.4936 21.6933 19.5003 22.0399C19.507 22.6733 19.507 23.3066 19.5003 23.9399C19.4936 24.2999 19.307 24.4866 18.947 24.4933C18.6336 24.4999 18.3136 24.4933 17.9936 24.4933ZM18.4936 22.5199C18.1536 22.5199 17.8403 22.5199 17.5203 22.5199C17.5203 22.8533 17.5203 23.1666 17.5203 23.4799C17.8536 23.4799 18.1736 23.4799 18.4936 23.4799C18.4936 23.1533 18.4936 22.8466 18.4936 22.5199Z" fill="#F9FAFA"/>
<path d="M24.487 12.02C24.487 12.34 24.487 12.6534 24.487 12.98C23.167 12.98 21.847 12.98 20.5137 12.98C20.5137 12.6667 20.5137 12.3534 20.5137 12.02C21.8337 12.02 23.147 12.02 24.487 12.02Z" fill="#F9FAFA"/>
<path d="M26.4929 12.02C26.4929 12.3467 26.4929 12.6534 26.4929 12.98C26.1729 12.98 25.8529 12.98 25.5195 12.98C25.5195 12.6667 25.5195 12.3467 25.5195 12.02C25.8395 12.02 26.1595 12.02 26.4929 12.02Z" fill="#F9FAFA"/>
<path d="M27.9926 20.0133C27.9926 20.3466 27.9926 20.6666 27.9926 20.98C26.3059 21.3133 25.7726 21.84 25.4859 23.4866C25.1726 23.4866 24.8526 23.4866 24.5392 23.4866C24.3926 21.9133 25.8859 19.9733 27.9926 20.0133Z" fill="#F9FAFA"/>
</g>
<defs>
<filter id="filter0_d_196_16564" x="0" y="0" width="48" height="48" filterUnits="userSpaceOnUse" color-interpolation-filters="sRGB">
<feFlood flood-opacity="0" result="BackgroundImageFix"/>
<feColorMatrix in="SourceAlpha" type="matrix" values="0 0 0 0 0 0 0 0 0 0 0 0 0 0 0 0 0 0 127 0" result="hardAlpha"/>
<feOffset dy="2"/>
<feGaussianBlur stdDeviation="2"/>
<feComposite in2="hardAlpha" operator="out"/>
<feColorMatrix type="matrix" values="0 0 0 0 0 0 0 0 0 0 0 0 0 0 0 0 0 0 0.1 0"/>
<feBlend mode="normal" in2="BackgroundImageFix" result="effect1_dropShadow_196_16564"/>
<feBlend mode="normal" in="SourceGraphic" in2="effect1_dropShadow_196_16564" result="shape"/>
</filter>
</defs>
</svg>
