<svg width="48" height="48" viewBox="0 0 48 48" fill="none" xmlns="http://www.w3.org/2000/svg">
<g filter="url(#filter0_d_653_26805)">
<circle cx="24" cy="22" r="20" fill="#FF9626"/>
<g clip-path="url(#clip0_653_26805)">
<path d="M24.8972 22.005C24.895 25.8465 21.7742 28.9579 17.9327 28.9485C14.107 28.9383 10.9964 25.8175 11 21.9934C11.0036 18.167 14.1172 15.0534 17.9428 15.0513C21.7866 15.0491 24.8994 18.1612 24.8972 22.005ZM20.9491 19.9537C20.0565 19.9537 19.1849 19.9537 18.3097 19.9537C18.3097 21.3299 18.3097 22.6887 18.3097 24.0505C19.1972 24.0505 20.063 24.0505 20.9505 24.0505C21.1883 22.6793 21.1941 21.3197 20.9491 19.9537ZM14.9496 24.0418C15.8545 24.0418 16.7261 24.0418 17.5991 24.0418C17.5991 22.6684 17.5991 21.3161 17.5991 19.95C16.7116 19.95 15.8393 19.95 14.9496 19.95C14.719 21.319 14.7169 22.6742 14.9496 24.0418ZM21.6887 24.0621C22.3608 24.0621 23.0555 24.065 23.7501 24.0563C23.8059 24.0555 23.8937 23.9808 23.9118 23.9236C24.3186 22.6467 24.3222 21.3661 23.9154 20.0885C23.8966 20.0283 23.8154 19.945 23.7624 19.9442C23.0605 19.9348 22.3579 19.9377 21.6872 19.9377C21.7285 20.6425 21.7982 21.3183 21.7982 21.9934C21.7996 22.6684 21.73 23.3435 21.6887 24.0621ZM14.2615 24.0621C14.0331 22.6735 14.036 21.3176 14.2579 19.9486C13.5045 19.9486 12.7743 19.9486 12.0463 19.9486C11.562 21.1508 11.5924 22.7757 11.9956 23.9359C12.0144 23.991 12.1065 24.0555 12.1652 24.0563C12.8505 24.065 13.5364 24.0621 14.2615 24.0621ZM18.301 19.2242C19.1385 19.2242 19.9521 19.2242 20.8454 19.2242C20.6162 18.6514 20.4263 18.1184 20.1921 17.6051C19.931 17.0337 19.5707 16.521 19.058 16.1447C18.8427 15.9866 18.5867 15.883 18.3017 15.7285C18.301 16.9496 18.301 18.0749 18.301 19.2242ZM20.7692 24.7654C19.939 24.7654 19.1305 24.7654 18.3148 24.7654C18.3148 25.9183 18.3148 27.0553 18.3148 28.1958C19.4807 28.016 20.5082 26.1583 20.7692 24.7654ZM15.1367 19.2315C15.9539 19.2315 16.7696 19.2315 17.5998 19.2315C17.5998 18.08 17.5998 16.9467 17.5998 15.8126C16.6398 15.8663 15.2745 17.7588 15.1367 19.2315ZM17.5984 28.2176C17.5984 27.0487 17.5984 25.9154 17.5984 24.7669C16.7667 24.7669 15.951 24.7669 15.0983 24.7669C15.1831 25.0395 15.252 25.2904 15.339 25.534C15.5993 26.2606 15.9357 26.9458 16.468 27.5179C16.7732 27.8456 17.122 28.1067 17.5984 28.2176ZM20.0304 16.0853C20.224 16.3644 20.3922 16.5863 20.5379 16.8212C20.9578 17.5021 21.2398 18.2417 21.4458 19.0125C21.469 19.0995 21.5545 19.2344 21.614 19.2358C22.2513 19.2518 22.8894 19.246 23.5841 19.246C22.7944 17.7175 21.6379 16.6951 20.0304 16.0853ZM12.3639 24.7516C12.6996 25.9053 14.7285 27.7151 15.8234 27.8485C15.6718 27.6274 15.5166 27.4193 15.3796 27.1988C14.9511 26.5114 14.6654 25.7639 14.4573 24.9829C14.4341 24.8966 14.3478 24.7625 14.2876 24.7611C13.6495 24.7458 13.0107 24.7516 12.3639 24.7516ZM15.7922 16.1534C14.7154 16.2941 12.6844 18.1076 12.3646 19.2489C12.957 19.2489 13.5422 19.2394 14.1266 19.2539C14.3362 19.259 14.4101 19.1901 14.4761 18.9915C14.6646 18.4186 14.8619 17.8458 15.1113 17.2983C15.2948 16.893 15.5652 16.5276 15.7922 16.1534ZM23.5862 24.7502C22.9416 24.7502 22.3645 24.7618 21.788 24.7444C21.5647 24.7378 21.4784 24.8082 21.424 25.0243C21.1659 26.0495 20.7518 27.0031 20.0753 27.8297C20.0688 27.8376 20.0797 27.8594 20.0862 27.8942C21.6386 27.3032 22.7908 26.2809 23.5862 24.7502Z" fill="#F9FAFA"/>
<path d="M27.8869 22.3349C27.288 22.3349 26.7289 22.3349 26.1691 22.3349C26.0879 22.3349 26.0045 22.3407 25.9255 22.3269C25.7377 22.2957 25.6376 22.1768 25.6449 21.9883C25.6529 21.7846 25.7732 21.6707 25.9748 21.6678C26.4817 21.6613 26.9885 21.6649 27.4946 21.6642C27.6106 21.6642 27.7274 21.6642 27.8862 21.6642C27.8862 21.5416 27.8862 21.438 27.8862 21.3335C27.8862 18.2483 27.8862 15.1637 27.8862 12.0784C27.8862 11.6136 27.9739 11.5266 28.4394 11.5266C29.4169 11.5266 30.3943 11.5251 31.371 11.5273C31.6625 11.528 31.822 11.66 31.8126 11.8841C31.8039 12.0958 31.6545 12.2125 31.3681 12.2133C30.5444 12.2162 29.7214 12.2147 28.8977 12.2147C28.8005 12.2147 28.7026 12.2147 28.5902 12.2147C28.5902 15.3696 28.5902 18.4955 28.5902 21.6642C28.6889 21.6642 28.7838 21.6642 28.8796 21.6642C29.7214 21.6642 30.5625 21.662 31.4043 21.6656C31.6893 21.6671 31.8445 21.8194 31.8046 22.0507C31.764 22.2878 31.5929 22.3371 31.3819 22.3364C30.5313 22.3335 29.6808 22.3349 28.8303 22.3356C28.7592 22.3356 28.6889 22.3356 28.596 22.3356C28.596 25.4891 28.596 28.6215 28.596 31.7851C28.699 31.7851 28.7962 31.7851 28.8926 31.7851C29.7069 31.7851 30.5212 31.7836 31.3355 31.7858C31.6574 31.7865 31.8169 31.9076 31.8119 32.1375C31.8068 32.3565 31.6494 32.4725 31.3478 32.4725C30.3522 32.4739 29.3574 32.4739 28.3618 32.4725C27.9942 32.4718 27.8855 32.3594 27.8855 31.9801C27.8847 28.8862 27.8847 25.7922 27.8847 22.6982C27.8869 22.5901 27.8869 22.4821 27.8869 22.3349Z" fill="#F9FAFA"/>
<path d="M32.8756 11.8682C32.8756 11.3984 32.8742 10.9292 32.8764 10.4593C32.8778 10.1099 32.9822 10.0018 33.323 10.0011C34.2715 9.99964 35.2199 9.99964 36.1683 10.0011C36.5055 10.0018 36.6179 10.1157 36.6186 10.4593C36.6208 11.3984 36.6208 12.3381 36.6186 13.2771C36.6179 13.6258 36.499 13.7419 36.1408 13.7426C35.2105 13.7448 34.2802 13.7448 33.3491 13.7426C32.9895 13.7419 32.8771 13.6295 32.8756 13.2764C32.8742 12.8079 32.8756 12.3381 32.8756 11.8682ZM33.5754 13.0342C34.3635 13.0342 35.135 13.0342 35.9095 13.0342C35.9095 12.2445 35.9095 11.473 35.9095 10.6928C35.1234 10.6928 34.3585 10.6928 33.5754 10.6928C33.5754 11.473 33.5754 12.2387 33.5754 13.0342Z" fill="#F9FAFA"/>
<path d="M34.7375 33.9989C34.2589 33.9989 33.7797 34.0011 33.3011 33.9982C32.9929 33.996 32.8776 33.8814 32.8769 33.5718C32.8747 32.6053 32.874 31.6387 32.8769 30.6729C32.8776 30.385 33.0002 30.2589 33.2902 30.2574C34.2568 30.2531 35.2233 30.2531 36.1899 30.2574C36.4922 30.2589 36.617 30.3858 36.6177 30.6896C36.6213 31.6467 36.6206 32.6046 36.6177 33.5617C36.617 33.8836 36.4981 33.9975 36.1732 33.9989C35.6946 34.0004 35.2161 33.9989 34.7375 33.9989ZM35.9064 33.3079C35.9064 32.503 35.9064 31.7315 35.9064 30.9637C35.1175 30.9637 34.3518 30.9637 33.5774 30.9637C33.5774 31.7511 33.5774 32.5226 33.5774 33.3079C34.3634 33.3079 35.1283 33.3079 35.9064 33.3079Z" fill="#F9FAFA"/>
<path d="M32.8759 21.9789C32.8759 21.4996 32.873 21.0203 32.8774 20.541C32.8796 20.2582 32.9891 20.1357 33.2675 20.1342C34.2536 20.1284 35.2398 20.1284 36.2259 20.1342C36.5007 20.1357 36.6174 20.2611 36.6182 20.5417C36.6225 21.5097 36.6218 22.4777 36.6182 23.445C36.6174 23.7409 36.5014 23.8649 36.2114 23.867C35.2347 23.8728 34.2573 23.8728 33.2806 23.867C32.9854 23.8656 32.8796 23.7467 32.8774 23.445C32.8738 22.9556 32.8759 22.4669 32.8759 21.9789ZM35.9148 20.8245C35.1201 20.8245 34.3559 20.8245 33.5822 20.8245C33.5822 21.6171 33.5822 22.3944 33.5822 23.1753C34.3711 23.1753 35.1354 23.1753 35.9148 23.1753C35.9148 22.3886 35.9148 21.6163 35.9148 20.8245Z" fill="#F9FAFA"/>
</g>
</g>
<defs>
<filter id="filter0_d_653_26805" x="0" y="0" width="48" height="48" filterUnits="userSpaceOnUse" color-interpolation-filters="sRGB">
<feFlood flood-opacity="0" result="BackgroundImageFix"/>
<feColorMatrix in="SourceAlpha" type="matrix" values="0 0 0 0 0 0 0 0 0 0 0 0 0 0 0 0 0 0 127 0" result="hardAlpha"/>
<feOffset dy="2"/>
<feGaussianBlur stdDeviation="2"/>
<feComposite in2="hardAlpha" operator="out"/>
<feColorMatrix type="matrix" values="0 0 0 0 0 0 0 0 0 0 0 0 0 0 0 0 0 0 0.1 0"/>
<feBlend mode="normal" in2="BackgroundImageFix" result="effect1_dropShadow_653_26805"/>
<feBlend mode="normal" in="SourceGraphic" in2="effect1_dropShadow_653_26805" result="shape"/>
</filter>
<clipPath id="clip0_653_26805">
<rect width="26" height="26" fill="white" transform="translate(11 9)"/>
</clipPath>
</defs>
</svg>
