<svg width="48" height="48" viewBox="0 0 48 48" fill="none" xmlns="http://www.w3.org/2000/svg">
<g filter="url(#filter0_d_129_10494)">
<circle cx="24" cy="22" r="20" fill="#FF9626"/>
<path d="M23.4299 10C26.3986 10 29.368 10 32.3367 10C32.6349 10.1069 32.9567 10.1738 33.2274 10.3288C34.1211 10.8406 34.5092 11.6388 34.508 12.6631C34.5017 18.8875 34.5049 25.1119 34.5042 31.3363C34.5042 31.43 34.5024 31.5238 34.4986 31.6175C34.4574 32.665 33.7392 33.5925 32.7374 33.8906C32.6049 33.93 32.4699 33.9638 32.3361 34C27.1167 34 21.898 34 16.6786 34C16.5305 33.9581 16.3799 33.9225 16.2342 33.8738C15.1517 33.5119 14.5124 32.5913 14.5117 31.3838C14.5099 27.3075 14.5192 23.2312 14.5024 19.155C14.4999 18.5431 14.6961 18.0644 15.1299 17.6569C15.3549 17.445 15.5674 17.22 15.7842 17.0025C15.2686 16.4819 14.7642 15.9713 14.2586 15.4619C13.9167 15.1175 13.913 14.8856 14.2524 14.5462C15.1792 13.6181 16.1074 12.6906 17.0355 11.7631C17.3999 11.3987 17.7611 11.0312 18.1299 10.6712C18.368 10.4387 18.6349 10.4406 18.8786 10.6637C18.9592 10.7375 19.0336 10.8181 19.1111 10.895C19.5755 11.355 20.0405 11.815 20.5192 12.2887C20.9849 11.8212 21.4561 11.365 21.9074 10.89C22.3317 10.4437 22.7511 10.0044 23.4299 10ZM33.5086 22.0106C33.5086 18.9019 33.5086 15.7931 33.5086 12.6844C33.5086 11.6025 32.9067 10.9975 31.8311 10.9962C29.9717 10.9937 28.113 10.9869 26.2536 10.99C25.3086 10.9913 24.3636 11.0006 23.4192 11.0281C23.2755 11.0325 23.1024 11.12 22.9974 11.2244C21.0399 13.1662 19.0886 15.1144 17.1399 17.065C16.6374 17.5675 16.1424 18.0775 15.6555 18.5956C15.5742 18.6819 15.513 18.8263 15.513 18.9431C15.5061 23.0675 15.5074 27.1912 15.5074 31.3156C15.5074 32.3969 16.1099 33.0031 17.1855 33.0031C22.068 33.0037 26.9499 33.0037 31.8324 33.0031C32.8974 33.0031 33.5086 32.395 33.5086 31.3363C33.5086 28.2281 33.5086 25.1194 33.5086 22.0106ZM16.7192 16.0662C16.2586 15.4969 16.2086 15.3106 16.4442 15.0694C16.6836 14.8244 16.8736 14.8744 17.4236 15.3125C17.5449 15.2025 17.6636 15.095 17.7805 14.9887C17.3474 14.5087 17.2836 14.2962 17.5211 14.0538C17.5974 13.9756 17.7136 13.9162 17.8211 13.8937C18.1449 13.8262 18.293 14.1119 18.4911 14.2656C18.6149 14.1556 18.7292 14.0538 18.8442 13.9519C18.7124 13.7912 18.5674 13.655 18.473 13.49C18.3605 13.2925 18.4099 13.0787 18.5824 12.9375C19.0255 12.5756 19.2824 12.96 19.5474 13.2069C19.6336 13.1313 19.7074 13.0662 19.7467 13.0319C19.3167 12.6019 18.8942 12.18 18.4861 11.7725C17.4211 12.8375 16.3342 13.9244 15.2592 14.9994C15.6717 15.4125 16.0955 15.8369 16.533 16.275C16.5855 16.2162 16.6467 16.1475 16.7192 16.0662Z" fill="#F9FAFA"/>
<path d="M23.4765 31.9962C21.3827 31.9962 19.289 31.9962 17.1952 31.9962C16.6509 31.9962 16.504 31.8474 16.5034 31.2968C16.5021 27.6174 16.5146 23.9374 16.4884 20.258C16.4834 19.5712 16.6784 19.0774 17.1827 18.5887C19.2577 16.5762 21.2852 14.5155 23.3302 12.473C23.3802 12.4237 23.439 12.3812 23.4809 12.3255C23.794 11.9105 24.234 11.9612 24.6528 12.0443C24.7934 12.0724 24.9371 12.2555 25.0146 12.4018C26.0296 14.3187 27.034 16.2412 28.039 18.163C28.8271 19.6699 29.6159 21.1774 30.3953 22.6887C30.4665 22.8268 30.5027 22.9993 30.5034 23.1562C30.5096 25.8824 30.5084 28.6093 30.5077 31.3355C30.5077 31.8374 30.3515 31.9955 29.8515 31.9955C27.7271 31.9962 25.6021 31.9962 23.4765 31.9962ZM29.5127 30.9874C29.5127 30.9012 29.5127 30.8324 29.5127 30.7637C29.5127 28.2799 29.5146 25.7968 29.5077 23.313C29.5071 23.1805 29.4584 23.0374 29.3959 22.9187C27.7102 19.6893 26.0202 16.463 24.3309 13.2362C24.2934 13.1643 24.2509 13.0949 24.2052 13.0137C24.1534 13.0618 24.119 13.0924 24.0859 13.1249C21.9377 15.273 19.7884 17.4205 17.6465 19.5749C17.5665 19.6555 17.5184 19.8049 17.5177 19.9224C17.5109 23.5305 17.5121 27.1387 17.5121 30.7468C17.5121 30.823 17.5121 30.8987 17.5121 30.9874C21.5152 30.9874 25.4959 30.9874 29.5127 30.9874Z" fill="#F9FAFA"/>
<path d="M32.5122 17.2507C32.5122 18.7895 32.5128 20.3282 32.5116 21.867C32.5109 22.2513 32.3284 22.4745 32.0178 22.4795C31.7641 22.4838 31.6253 22.3332 31.5153 22.1251C30.7484 20.6688 29.9741 19.2163 29.2078 17.7595C28.3653 16.1582 27.5278 14.5538 26.6903 12.9495C26.6366 12.8463 26.5909 12.7376 26.5509 12.6276C26.4416 12.3288 26.5853 12.0751 26.9034 12.0282C27.1034 11.9988 27.3084 11.9907 27.5109 11.9907C28.9872 11.9926 30.4634 11.9976 31.9391 12.0051C32.3328 12.007 32.5103 12.1957 32.5109 12.6107C32.5134 14.1576 32.5122 15.7038 32.5122 17.2507ZM31.4497 19.8888C31.4616 19.8863 31.4741 19.8832 31.4859 19.8807C31.4859 17.592 31.4859 15.3038 31.4859 13.0145C30.2709 13.0145 29.0741 13.0145 27.8453 13.0145C29.0559 15.322 30.2528 17.6057 31.4497 19.8888Z" fill="#F9FAFA"/>
<path d="M20.5133 23.9007C20.484 23.1351 20.854 22.4357 21.4302 21.8388C21.9883 21.2613 22.5727 20.7088 23.1533 20.1526C23.3608 19.9538 23.6321 19.9369 23.8296 20.1294C24.5208 20.8051 25.2515 21.4501 25.8683 22.1888C26.649 23.1232 26.7233 24.2182 26.1965 25.3063C25.6683 26.3976 24.7502 26.9632 23.5402 26.9982C21.8858 27.0463 20.5002 25.6557 20.5133 23.9007ZM23.444 21.1407C23.0158 21.6007 22.5971 22.0513 22.1771 22.5019C22.1133 22.5707 22.044 22.6344 21.984 22.7057C21.6915 23.0501 21.5302 23.4501 21.5108 23.9007C21.4721 24.7988 22.0177 25.6001 22.854 25.8882C23.6865 26.1751 24.6083 25.8844 25.124 25.1732C25.654 24.4419 25.6602 23.4676 25.0615 22.7694C24.5858 22.2151 24.0327 21.7282 23.444 21.1407Z" fill="#F9FAFA"/>
<path d="M25.0071 24.0724C24.9734 24.8162 24.3827 25.4337 23.6427 25.4993C23.3102 25.5287 23.0496 25.3543 23.0121 25.0768C22.9715 24.7768 23.1677 24.5493 23.514 24.4955C23.8527 24.443 23.9377 24.3512 24.0109 23.9555C24.0659 23.6568 24.2946 23.4712 24.5665 23.5043C24.8396 23.538 25.0209 23.7718 25.0071 24.0724Z" fill="#F9FAFA"/>
</g>
<defs>
<filter id="filter0_d_129_10494" x="0" y="0" width="48" height="48" filterUnits="userSpaceOnUse" color-interpolation-filters="sRGB">
<feFlood flood-opacity="0" result="BackgroundImageFix"/>
<feColorMatrix in="SourceAlpha" type="matrix" values="0 0 0 0 0 0 0 0 0 0 0 0 0 0 0 0 0 0 127 0" result="hardAlpha"/>
<feOffset dy="2"/>
<feGaussianBlur stdDeviation="2"/>
<feComposite in2="hardAlpha" operator="out"/>
<feColorMatrix type="matrix" values="0 0 0 0 0 0 0 0 0 0 0 0 0 0 0 0 0 0 0.1 0"/>
<feBlend mode="normal" in2="BackgroundImageFix" result="effect1_dropShadow_129_10494"/>
<feBlend mode="normal" in="SourceGraphic" in2="effect1_dropShadow_129_10494" result="shape"/>
</filter>
</defs>
</svg>
