<svg width="48" height="48" viewBox="0 0 48 48" fill="none" xmlns="http://www.w3.org/2000/svg">
<g filter="url(#filter0_d_109_7550)">
<circle cx="24" cy="22" r="20" fill="#FF9626"/>
<g clip-path="url(#clip0_109_7550)">
<path d="M28.999 15.8462C29.2211 15.8462 29.416 15.8462 29.611 15.8462C30.7214 15.8462 31.8263 15.8462 32.9367 15.8462C33.825 15.8462 34.3395 16.3608 34.3395 17.2491C34.3395 17.9749 34.3341 18.7061 34.3449 19.4319C34.3504 19.6702 34.2637 19.8273 34.0579 19.9519C33.9821 19.9952 33.9225 20.136 33.9225 20.2281C33.9116 21.0297 33.9171 21.8368 33.9171 22.6384C33.9171 22.7305 33.9171 22.828 33.9008 22.9146C33.8521 23.1313 33.7112 23.2558 33.4837 23.245C33.2617 23.2288 33.1208 23.0988 33.11 22.8713C33.0992 22.4651 33.1046 22.0588 33.1046 21.6526C33.1046 21.2301 33.1046 20.8131 33.1046 20.3527C32.8771 20.4502 32.693 20.526 32.5088 20.6072C30.3422 21.5389 28.1757 22.4705 26.0091 23.3913C25.8575 23.4563 25.7979 23.5375 25.7762 23.7C25.6842 24.3608 25.2075 24.7724 24.5467 24.7833C23.9726 24.7887 23.393 24.7887 22.8189 24.7833C22.131 24.7779 21.6706 24.3608 21.5514 23.6729C21.5352 23.5808 21.454 23.4563 21.3727 23.4183C19.0545 22.4163 16.7309 21.4197 14.4127 20.4231C14.3747 20.4068 14.3314 20.396 14.2556 20.3689C14.2502 20.461 14.2393 20.5368 14.2393 20.6181C14.2393 23.96 14.2393 27.3073 14.2393 30.6492C14.2393 31.1042 14.3747 31.2396 14.8297 31.2396C18.7403 31.2396 22.651 31.2396 26.5616 31.2396C26.6808 31.2396 26.7999 31.2396 26.9137 31.2721C27.1195 31.3317 27.2116 31.4942 27.1845 31.7C27.1628 31.9004 27.0382 32.0196 26.8378 32.0412C26.762 32.0521 26.6862 32.0466 26.6104 32.0466C22.6835 32.0466 18.7566 32.0466 14.8297 32.0466C13.9252 32.0466 13.4323 31.5537 13.4323 30.6492C13.4323 27.1936 13.4323 23.7379 13.4323 20.2877C13.4323 20.1089 13.416 19.9789 13.2265 19.8814C13.1181 19.8273 13.0206 19.6431 13.0152 19.5185C12.999 18.6953 12.9936 17.8774 13.0098 17.0541C13.0206 16.3662 13.5839 15.8517 14.3152 15.8462C15.5447 15.8408 16.7688 15.8462 17.9983 15.8462C18.1012 15.8462 18.1987 15.8462 18.3449 15.8462C18.3449 15.7379 18.3449 15.6404 18.3449 15.5429C18.3558 14.9579 18.3233 14.373 18.3883 13.7934C18.502 12.8131 19.3253 12.0764 20.3111 12.0169C20.6686 11.9952 21.0261 12.0006 21.3781 12.0006C23.1655 12.0006 24.9529 12.0006 26.7349 12.0006C28.1053 12.0006 28.9936 12.8889 28.999 14.2538C28.999 14.7738 28.999 15.2883 28.999 15.8462ZM25.8033 22.6005C28.349 21.5064 30.8622 20.4285 33.3808 19.3506C33.5108 19.2965 33.5271 19.2152 33.5271 19.0961C33.5217 18.4948 33.5271 17.8936 33.5271 17.2924C33.5271 16.7941 33.3917 16.6587 32.8988 16.6587C31.1276 16.6587 29.3619 16.6587 27.5907 16.6587C23.2089 16.6587 18.8216 16.6587 14.4397 16.6587C13.9577 16.6587 13.8169 16.7995 13.8169 17.2762C13.8169 17.8611 13.8277 18.4461 13.8114 19.0257C13.806 19.2315 13.8818 19.3127 14.0606 19.3886C16.0592 20.2389 18.0525 21.0947 20.0457 21.9559C20.5386 22.1672 21.0315 22.3784 21.5352 22.5896C21.5514 22.5301 21.5623 22.4976 21.5731 22.4651C21.7085 21.788 22.1418 21.4143 22.8297 21.4089C23.4364 21.4034 24.0484 21.398 24.655 21.4143C25.1858 21.4305 25.6408 21.8259 25.7546 22.3459C25.7708 22.4217 25.7816 22.4976 25.8033 22.6005ZM20.6794 15.83C22.6889 15.83 24.6767 15.83 26.6591 15.83C26.6591 15.2504 26.6591 14.6925 26.6591 14.1238C24.655 14.1238 22.6726 14.1238 20.6794 14.1238C20.6794 14.698 20.6794 15.2558 20.6794 15.83ZM28.1865 15.83C28.1865 15.2613 28.1919 14.7142 28.1865 14.1617C28.1757 13.3709 27.634 12.8293 26.8433 12.8131C26.4099 12.8076 25.9821 12.8131 25.5487 12.8131C23.8805 12.8131 22.2177 12.8131 20.5494 12.8131C19.8074 12.8131 19.2495 13.241 19.1899 13.9397C19.1357 14.5571 19.1791 15.1854 19.1791 15.8246C19.4011 15.8246 19.6178 15.8246 19.8561 15.8246C19.8561 15.2504 19.8507 14.6925 19.8561 14.1401C19.8615 13.6309 20.1919 13.2897 20.6957 13.2897C22.6835 13.2843 24.6713 13.2843 26.6591 13.2897C27.0491 13.2897 27.3632 13.5226 27.4607 13.8747C27.4932 14.0047 27.4932 14.1401 27.4986 14.2755C27.5041 14.79 27.4986 15.3046 27.4986 15.83C27.7315 15.83 27.9374 15.83 28.1865 15.83ZM23.6476 23.9708C23.9347 23.9708 24.2217 23.9762 24.5088 23.9708C24.8229 23.9654 24.9746 23.8246 24.98 23.505C24.9854 23.2288 24.9909 22.9471 24.98 22.6709C24.9692 22.3784 24.8229 22.2322 24.5359 22.2322C23.9617 22.2267 23.3876 22.2267 22.8135 22.2322C22.5264 22.2376 22.3802 22.3784 22.3693 22.6709C22.3585 22.9579 22.3585 23.245 22.3693 23.5321C22.3802 23.83 22.5318 23.9708 22.8351 23.9762C23.106 23.9762 23.3768 23.9708 23.6476 23.9708Z" fill="#F9FAFA" stroke="#F9FAFA" stroke-width="0.4"/>
<path d="M31.2737 32.5719C29.0313 32.5719 26.8485 31.0445 26.7889 28.0601C26.7402 25.6444 28.8255 23.6187 31.2683 23.6187C33.7165 23.6187 35.7855 25.6335 35.753 28.0547C35.7097 30.9199 33.6244 32.5665 31.2737 32.5719ZM31.2629 24.4636C29.1613 24.4744 27.5851 26.0614 27.596 28.163C27.6014 30.1508 29.2805 31.7974 31.2845 31.792C33.2886 31.7866 34.9568 30.1291 34.946 28.1413C34.9406 26.0289 33.359 24.4528 31.2629 24.4636Z" fill="#F9FAFA" stroke="#F9FAFA" stroke-width="0.4"/>
<path d="M30.8673 28.5206C30.342 28.5206 29.8436 28.5206 29.3453 28.5206C29.237 28.5206 29.1233 28.526 29.0149 28.5098C28.7712 28.4773 28.6304 28.3094 28.6412 28.0819C28.652 27.8652 28.8091 27.7136 29.0474 27.7136C29.5728 27.7027 30.0982 27.7081 30.6182 27.7081C30.6832 27.7081 30.7536 27.7027 30.8511 27.6973C30.8565 27.6052 30.8673 27.5132 30.8673 27.4265C30.8673 26.9336 30.8673 26.4461 30.8673 25.9532C30.8673 25.6662 31.019 25.4928 31.2573 25.4874C31.5065 25.482 31.669 25.6553 31.6744 25.9587C31.6798 26.4407 31.6744 26.9228 31.6744 27.4048C31.6744 27.4969 31.6744 27.589 31.6744 27.7081C32.0481 27.7081 32.3893 27.7081 32.736 27.7081C32.996 27.7081 33.2614 27.7027 33.5214 27.719C33.7326 27.7298 33.8626 27.8652 33.8789 28.0765C33.8951 28.3039 33.7868 28.4502 33.5647 28.4989C33.478 28.5206 33.3805 28.5206 33.2885 28.5206C32.7631 28.5206 32.2431 28.5206 31.6906 28.5206C31.6852 28.6235 31.6798 28.7156 31.6798 28.8023C31.6798 29.2843 31.6852 29.7664 31.6798 30.2484C31.6744 30.568 31.5173 30.7413 31.2573 30.7359C31.0082 30.7305 30.8728 30.5626 30.8728 30.243C30.8673 29.7718 30.8728 29.2951 30.8728 28.8239C30.8673 28.7318 30.8673 28.6398 30.8673 28.5206Z" fill="#F9FAFA" stroke="#F9FAFA" stroke-width="0.4"/>
</g>
</g>
<defs>
<filter id="filter0_d_109_7550" x="0" y="0" width="48" height="48" filterUnits="userSpaceOnUse" color-interpolation-filters="sRGB">
<feFlood flood-opacity="0" result="BackgroundImageFix"/>
<feColorMatrix in="SourceAlpha" type="matrix" values="0 0 0 0 0 0 0 0 0 0 0 0 0 0 0 0 0 0 127 0" result="hardAlpha"/>
<feOffset dy="2"/>
<feGaussianBlur stdDeviation="2"/>
<feComposite in2="hardAlpha" operator="out"/>
<feColorMatrix type="matrix" values="0 0 0 0 0 0 0 0 0 0 0 0 0 0 0 0 0 0 0.1 0"/>
<feBlend mode="normal" in2="BackgroundImageFix" result="effect1_dropShadow_109_7550"/>
<feBlend mode="normal" in="SourceGraphic" in2="effect1_dropShadow_109_7550" result="shape"/>
</filter>
<clipPath id="clip0_109_7550">
<rect width="23.9969" height="24" fill="white" transform="translate(12 10)"/>
</clipPath>
</defs>
</svg>
