<svg width="48" height="48" viewBox="0 0 48 48" fill="none" xmlns="http://www.w3.org/2000/svg">
<g filter="url(#filter0_d_133_17637)">
<circle cx="24" cy="22" r="20" fill="#FF9626"/>
<g clip-path="url(#clip0_133_17637)">
<path d="M21.4281 30.1213C20.9263 29.4579 20.4612 28.8436 19.9962 28.2286C19.8534 28.0397 19.7099 27.8508 19.5657 27.6626C19.3177 27.3382 19.074 27.0418 18.6803 26.8392C18.0329 26.5076 17.7459 25.8969 17.8021 25.1694C17.8569 24.4664 18.2326 23.9653 18.8714 23.6545C19.0207 23.5817 19.1677 23.4685 19.2687 23.338C19.9825 22.4144 20.684 21.4814 21.4101 20.5253C20.7417 20.1533 21.028 19.5051 20.94 18.9211C20.6566 18.9211 20.3704 18.9102 20.0863 18.9304C20.033 18.934 19.9659 19.0516 19.9428 19.1287C19.6429 20.1266 19.0034 20.7633 17.9658 20.9413C16.7451 21.1512 15.5857 20.4078 15.2599 19.2102C15.1928 18.9636 15.0868 18.9088 14.851 18.9139C14.0695 18.929 13.2879 18.9211 12.5063 18.9189C12.0622 18.9175 11.9381 18.7624 12.0268 18.3277C12.1004 17.9672 12.1775 17.6067 12.2518 17.2462C12.6253 15.435 13.7284 14.3599 15.541 14.0376C16.836 13.8069 18.1374 13.6108 19.4388 13.414C19.8195 13.3563 20.1389 13.207 20.4201 12.9504C20.7633 12.636 21.1195 12.3361 21.4613 12.0202C22.253 11.2877 23.1968 10.9395 24.2646 10.9301C25.6785 10.9178 27.0924 10.925 28.5063 10.9243C29.5799 10.9236 30.4415 11.3504 31.1019 12.1955C31.3456 12.5069 31.5872 12.8213 31.8568 13.1083C32.0378 13.3008 32.2484 13.4846 32.4805 13.605C32.8994 13.8228 33.3328 14.0275 33.7812 14.171C34.8837 14.5243 35.3314 15.3564 35.4381 16.4119C35.5088 17.1084 35.4893 17.8143 35.4951 18.5159C35.4972 18.7971 35.3465 18.916 35.0243 18.9182C34.4092 18.9225 33.7949 18.9196 33.1799 18.9196C33.0847 18.9196 32.9888 18.9196 32.8937 18.9196C32.9131 18.9384 32.9333 18.9571 32.9528 18.9759C32.7401 19.3623 32.58 19.792 32.3032 20.1252C31.6917 20.8613 30.8705 21.1302 29.9368 20.9132C28.9951 20.694 28.3895 20.0826 28.1328 19.1496C28.0831 18.9679 28.0203 18.8987 27.8365 18.9167C27.6714 18.9326 27.5034 18.9232 27.3368 18.9268C27.321 18.9268 27.3058 18.9391 27.2763 18.9513C27.158 19.4784 27.4875 20.1439 26.8011 20.5188C27.3635 21.2622 27.9122 21.9875 28.4609 22.7129C28.546 22.8246 28.6318 22.9357 28.7154 23.0489C28.9288 23.3358 29.153 23.581 29.497 23.7547C30.1358 24.0778 30.4429 24.6625 30.4127 25.3813C30.3817 26.1211 29.9988 26.6446 29.3319 26.9712C29.1898 27.0404 29.0485 27.1457 28.9526 27.2697C28.2352 28.2012 27.5293 29.1414 26.7852 30.1234C26.9172 30.1299 27.0059 30.1371 27.0946 30.1379C27.6743 30.1422 28.2547 30.1227 28.8329 30.1523C30.1704 30.2193 31.2195 31.3009 31.2656 32.6333C31.2757 32.9188 31.1503 33.0601 30.8691 33.0767C30.8078 33.0803 30.7465 33.0782 30.6845 33.0782C26.3014 33.0782 21.9191 33.0782 17.5361 33.0782C17.4748 33.0782 17.4128 33.0796 17.3515 33.0767C17.0617 33.0616 16.947 32.9383 16.9477 32.6434C16.9513 31.3953 18.0112 30.241 19.2629 30.1609C19.8751 30.122 20.4915 30.1444 21.1065 30.1379C21.1938 30.135 21.2796 30.1285 21.4281 30.1213ZM34.782 18.19C34.8065 17.4134 34.8317 16.6607 34.6133 15.9231C34.4698 15.4386 34.1936 15.0968 33.7034 14.913C33.1785 14.7161 32.6716 14.4739 32.1553 14.2525C31.8179 14.1076 31.5446 13.892 31.3175 13.5964C31.0024 13.1861 30.6607 12.7961 30.3225 12.4045C29.8964 11.9114 29.3484 11.6641 28.701 11.6561C27.3404 11.6396 25.9799 11.6504 24.6193 11.6194C23.3828 11.5912 22.3654 12.0448 21.511 12.9157C21.3272 13.1032 21.1174 13.2662 20.9285 13.45C20.5009 13.8646 19.9861 14.0578 19.4014 14.1436C18.0999 14.3347 16.7992 14.5351 15.5072 14.7781C14.6045 14.9476 13.8416 15.378 13.3773 16.2194C13.042 16.8272 12.9057 17.4963 12.7803 18.1813C13.5907 18.1813 14.3845 18.1813 15.1741 18.1813C15.4942 16.9419 16.358 16.1783 17.4575 16.138C18.012 16.1178 18.5188 16.2569 18.9716 16.5756C19.5282 16.9678 19.8534 17.5136 19.9825 18.1827C22.687 18.1827 25.3771 18.1827 28.0622 18.1827C28.502 16.8532 29.2641 16.1791 30.3492 16.138C30.8748 16.1185 31.3594 16.2396 31.7984 16.528C32.4012 16.9231 32.7459 17.4942 32.885 18.1907C33.5209 18.19 34.1338 18.19 34.782 18.19ZM24.1088 29.8877C25.0599 28.6317 25.9835 27.416 26.8992 26.1939C26.9431 26.1348 26.9424 26.0129 26.9172 25.9358C26.7831 25.5299 26.76 25.1232 26.915 24.7238C26.9756 24.5688 26.9446 24.4678 26.8516 24.3452C25.9784 23.2003 25.1096 22.0517 24.2393 20.9053C24.1997 20.8534 24.1514 20.8094 24.0951 20.7488C23.1571 21.9875 22.2328 23.2032 21.3171 24.4253C21.2724 24.4844 21.2717 24.6063 21.2976 24.6834C21.4353 25.0987 21.4303 25.5068 21.3048 25.925C21.276 26.0202 21.2991 26.1672 21.3575 26.2473C21.7872 26.8356 22.232 27.4132 22.6726 27.9936C23.1427 28.6144 23.6142 29.2352 24.1088 29.8877ZM30.5086 32.36C30.4898 32.2685 30.4826 32.2086 30.4646 32.1517C30.2173 31.3665 29.502 30.8481 28.6505 30.8473C25.6208 30.8452 22.5918 30.8459 19.5621 30.8488C19.4057 30.8488 19.2456 30.8682 19.0928 30.9021C18.3818 31.06 17.756 31.7327 17.7322 32.3607C21.9804 32.36 26.2293 32.36 30.5086 32.36ZM30.4703 20.2621C31.4199 20.2665 32.1827 19.5109 32.1856 18.5642C32.1885 17.6189 31.4286 16.8496 30.4855 16.8438C29.5503 16.8381 28.7687 17.6117 28.7637 18.5483C28.7587 19.4878 29.5258 20.2578 30.4703 20.2621ZM17.5808 20.2621C18.5289 20.2629 19.2896 19.5029 19.2889 18.557C19.2882 17.6124 18.5232 16.8453 17.5822 16.8445C16.642 16.8438 15.8749 17.6124 15.8742 18.5562C15.8734 19.5022 16.6327 20.2621 17.5808 20.2621ZM21.6949 19.8512C23.3229 19.8512 24.9221 19.8512 26.5257 19.8512C26.5257 19.5332 26.5257 19.239 26.5257 18.934C24.9099 18.934 23.31 18.934 21.6949 18.934C21.6949 19.2441 21.6949 19.5383 21.6949 19.8512ZM20.6927 25.3186C20.697 24.7202 20.2161 24.2256 19.6169 24.2133C19.0142 24.2003 18.5095 24.7021 18.5109 25.3121C18.5123 25.9106 19.0041 26.4052 19.5975 26.4059C20.1916 26.4066 20.6884 25.9142 20.6927 25.3186ZM29.7061 25.3193C29.7104 24.7195 29.2316 24.2263 28.6325 24.2133C28.0297 24.2003 27.525 24.7007 27.5264 25.3114C27.5272 25.9113 28.0167 26.4045 28.6116 26.4059C29.2071 26.4073 29.7025 25.9163 29.7061 25.3193ZM24.8162 30.1364C25.1341 30.1364 25.3937 30.127 25.6525 30.14C25.8205 30.1487 25.9244 30.0874 26.0239 29.954C26.6966 29.0549 27.3772 28.1623 28.0542 27.2668C28.0989 27.2077 28.1379 27.1435 28.171 27.0937C27.9143 26.9611 27.675 26.8378 27.4161 26.7044C26.5675 27.8241 25.7117 28.954 24.8162 30.1364ZM20.7987 26.7015C20.5362 26.8378 20.2925 26.9647 20.0344 27.0981C20.7792 28.0808 21.5197 29.0599 22.2638 30.0369C22.2969 30.0809 22.3597 30.1285 22.4094 30.1292C22.7209 30.1379 23.0324 30.1335 23.3986 30.1335C22.5031 28.9511 21.6459 27.8198 20.7987 26.7015ZM28.1833 23.5204C27.4594 22.5658 26.7398 21.6162 26.0188 20.6681C25.9936 20.6349 25.9546 20.5895 25.9207 20.5888C25.5963 20.583 25.2711 20.5852 24.8926 20.5852C25.7679 21.7388 26.6014 22.8376 27.4169 23.9134C27.6894 23.7735 27.9223 23.6538 28.1833 23.5204ZM23.3273 20.5801C22.9538 20.5801 22.6574 20.5693 22.3625 20.5873C22.2854 20.5924 22.1967 20.6731 22.1426 20.7423C21.8355 21.136 21.537 21.5369 21.2349 21.9349C20.8333 22.4648 20.4324 22.9948 20.0344 23.5204C20.2976 23.6567 20.542 23.7829 20.7994 23.9155C21.625 22.8268 22.4541 21.7323 23.3273 20.5801Z" fill="#F9FAFA"/>
</g>
</g>
<defs>
<filter id="filter0_d_133_17637" x="0" y="0" width="48" height="48" filterUnits="userSpaceOnUse" color-interpolation-filters="sRGB">
<feFlood flood-opacity="0" result="BackgroundImageFix"/>
<feColorMatrix in="SourceAlpha" type="matrix" values="0 0 0 0 0 0 0 0 0 0 0 0 0 0 0 0 0 0 127 0" result="hardAlpha"/>
<feOffset dy="2"/>
<feGaussianBlur stdDeviation="2"/>
<feComposite in2="hardAlpha" operator="out"/>
<feColorMatrix type="matrix" values="0 0 0 0 0 0 0 0 0 0 0 0 0 0 0 0 0 0 0.1 0"/>
<feBlend mode="normal" in2="BackgroundImageFix" result="effect1_dropShadow_133_17637"/>
<feBlend mode="normal" in="SourceGraphic" in2="effect1_dropShadow_133_17637" result="shape"/>
</filter>
<clipPath id="clip0_133_17637">
<rect width="24" height="24" fill="white" transform="translate(12 10)"/>
</clipPath>
</defs>
</svg>
