<svg width="48" height="48" viewBox="0 0 48 48" fill="none" xmlns="http://www.w3.org/2000/svg">
<g filter="url(#filter0_d_1027_37394)">
<circle cx="24" cy="22" r="20" fill="#FF9626"/>
<path d="M23.7347 10C23.9138 10.1666 24.1211 10.3112 24.2676 10.5022C24.9853 11.4378 25.6879 12.3847 26.3949 13.3284C26.7375 13.7855 26.688 14.1487 26.2384 14.4944C25.7073 14.9027 25.5188 15.5458 25.7555 16.142C25.9835 16.7169 26.5753 17.0813 27.189 17.0262C27.8227 16.9692 28.3324 16.4983 28.447 15.8539C28.4683 15.7331 28.4614 15.6053 28.4552 15.4813C28.437 15.1482 28.5679 14.8996 28.8723 14.7631C30.2813 14.1306 31.6915 13.5018 33.103 12.8762C33.3886 12.7497 33.6604 12.7992 33.8814 13.0184C34.1175 13.2526 34.1425 13.5319 34.0204 13.8394C33.4099 15.3674 32.8043 16.8972 32.1969 18.4265C32.0077 18.9036 31.8193 19.3808 31.617 19.8912C32.1681 19.8912 32.6878 19.8912 33.2076 19.8912C33.8501 19.8912 34.0949 20.1373 34.0949 20.7842C34.0949 24.901 34.0949 29.0178 34.0949 33.1346C34.0949 33.7451 33.8395 34 33.2264 34C26.7738 34 20.3212 34 13.8686 34C13.2555 34 13 33.7451 13 33.1339C13 29.009 13 24.8847 13 20.7598C13 20.1454 13.2536 19.8912 13.8642 19.8906C14.3871 19.8906 14.91 19.8906 15.4698 19.8906C15.4323 19.7866 15.4053 19.7027 15.3728 19.6207C14.6182 17.722 13.8604 15.8245 13.1127 13.9233C13.0463 13.7555 12.9962 13.5551 13.0219 13.3822C13.0908 12.9169 13.5724 12.694 14.0345 12.8969C15.0415 13.339 16.0447 13.7893 17.0492 14.2364C17.4199 14.4011 17.7912 14.5633 18.1601 14.7324C18.5346 14.904 18.6598 15.1206 18.6335 15.5289C18.5903 16.2002 19.0155 16.8058 19.6524 16.9793C20.3061 17.1577 20.9887 16.8528 21.2899 16.2485C21.5874 15.6529 21.4227 14.9353 20.8942 14.5207C20.3869 14.1224 20.3431 13.8049 20.7276 13.2921C21.4252 12.3609 22.1178 11.4259 22.8261 10.5029C22.9726 10.3119 23.1799 10.1666 23.359 10.0006C23.4842 10 23.6095 10 23.7347 10ZM14.4153 32.576C20.5184 32.576 26.5984 32.576 32.6753 32.576C32.6753 28.8117 32.6753 25.065 32.6753 21.3108C26.5834 21.3108 20.5034 21.3108 14.4153 21.3108C14.4153 25.0713 14.4153 28.8174 14.4153 32.576ZM14.9939 14.8595C15.6746 16.5722 16.3328 18.2286 16.9903 19.8831C17.0523 19.8862 17.0986 19.8899 17.145 19.8899C21.402 19.8899 25.6591 19.8893 29.9155 19.8943C30.0708 19.8943 30.1259 19.8342 30.1779 19.7014C30.7872 18.1566 31.4028 16.6142 32.0165 15.0705C32.0378 15.016 32.0516 14.9591 32.0791 14.8701C31.3552 15.1926 30.6639 15.4957 29.9794 15.8139C29.9099 15.8464 29.8705 15.9648 29.8379 16.0518C29.7095 16.3925 29.6369 16.7638 29.4571 17.0732C28.7777 18.243 27.3699 18.7214 26.0843 18.2555C24.8406 17.8052 24.0892 16.5252 24.2852 15.202C24.3666 14.6547 24.6033 14.1819 24.9565 13.7555C24.4862 13.1292 24.0247 12.5143 23.5456 11.8762C23.0609 12.5218 22.5994 13.138 22.1366 13.7548C22.1698 13.7987 22.193 13.83 22.2161 13.8607C22.2399 13.892 22.265 13.9214 22.2875 13.9533C22.94 14.8958 23.0484 15.8959 22.5167 16.9141C21.9869 17.9299 21.1102 18.4421 19.9636 18.4315C18.6097 18.4189 17.465 17.3976 17.2527 16.0618C17.2383 15.9698 17.1757 15.8445 17.1005 15.8095C16.4229 15.492 15.7372 15.1914 14.9939 14.8595Z" fill="#F9FAFA"/>
<path d="M18.9726 26.9327C19.0916 26.9603 19.2118 26.9853 19.3302 27.0154C20.5325 27.3191 21.4124 28.425 21.4356 29.6618C21.4406 29.9198 21.4424 30.1778 21.4356 30.4352C21.4243 30.8354 21.135 31.136 20.7367 31.1378C19.3308 31.1441 17.9243 31.1428 16.5184 31.1385C16.1646 31.1372 15.8521 30.8967 15.8296 30.5573C15.7851 29.8879 15.7588 29.2116 16.0632 28.5803C16.4928 27.6892 17.191 27.1463 18.166 26.9628C18.203 26.9559 18.2387 26.944 18.2819 26.9152C17.6807 26.7756 17.1898 26.4756 16.8572 25.9565C16.5247 25.4379 16.4295 24.8731 16.5898 24.2738C16.8554 23.2794 17.7966 22.6187 18.8104 22.7095C19.8349 22.8016 20.6603 23.6401 20.7298 24.6596C20.8024 25.7404 20.1055 26.6303 18.9726 26.9327ZM17.228 29.7194C18.1704 29.7194 19.0954 29.7194 20.0209 29.7194C20.0172 28.9461 19.3909 28.3292 18.6244 28.3292C17.8579 28.3292 17.2298 28.9479 17.228 29.7194ZM19.3271 24.8098C19.3252 24.431 19.0071 24.1122 18.6276 24.1104C18.2487 24.1085 17.9275 24.4247 17.9224 24.8036C17.9174 25.1918 18.2456 25.52 18.6332 25.515C19.0127 25.51 19.3283 25.1887 19.3271 24.8098Z" fill="#F9FAFA"/>
<path d="M27.0375 26.922C25.8902 26.922 24.743 26.9246 23.5964 26.9208C23.0278 26.9189 22.6771 26.3904 22.9219 25.9082C23.0685 25.6195 23.3183 25.5137 23.6346 25.5137C25.6091 25.5168 27.5829 25.5156 29.5574 25.5156C29.8774 25.5156 30.1974 25.5137 30.5174 25.5162C30.9676 25.5193 31.2851 25.8161 31.2801 26.2263C31.2751 26.6277 30.9626 26.9202 30.5255 26.9208C29.3626 26.9239 28.2004 26.922 27.0375 26.922Z" fill="#F9FAFA"/>
<path d="M27.0883 28.328C28.2356 28.328 29.3828 28.3255 30.5294 28.3292C31.0874 28.3311 31.4393 28.8415 31.2133 29.3212C31.0711 29.623 30.8162 29.7363 30.4894 29.7363C28.6401 29.7332 26.7903 29.7345 24.941 29.7345C24.4964 29.7345 24.0512 29.7363 23.6065 29.7338C23.1569 29.7313 22.8394 29.4326 22.8438 29.0231C22.8482 28.6235 23.1625 28.3298 23.599 28.3292C24.7625 28.3261 25.9254 28.328 27.0883 28.328Z" fill="#F9FAFA"/>
<path d="M24.9518 23.3964C24.9569 23.7758 24.6444 24.0996 24.2649 24.1077C23.8766 24.1165 23.5466 23.7915 23.5479 23.4026C23.5491 23.0231 23.8672 22.7044 24.2467 22.7031C24.6262 22.7019 24.9468 23.0169 24.9518 23.3964Z" fill="#F9FAFA"/>
<path d="M27.7644 23.4026C27.7657 23.7827 27.4507 24.1034 27.0712 24.1078C26.6829 24.1128 26.3554 23.7852 26.3604 23.3964C26.3648 23.0169 26.686 22.7013 27.0655 22.7031C27.445 22.705 27.7631 23.0231 27.7644 23.4026Z" fill="#F9FAFA"/>
<path d="M29.872 22.7031C30.2515 22.7019 30.5721 23.0175 30.5765 23.397C30.5809 23.7859 30.254 24.1128 29.8651 24.1077C29.4856 24.1027 29.1706 23.7815 29.1719 23.402C29.1744 23.0225 29.4925 22.705 29.872 22.7031Z" fill="#F9FAFA"/>
</g>
<defs>
<filter id="filter0_d_1027_37394" x="0" y="0" width="48" height="48" filterUnits="userSpaceOnUse" color-interpolation-filters="sRGB">
<feFlood flood-opacity="0" result="BackgroundImageFix"/>
<feColorMatrix in="SourceAlpha" type="matrix" values="0 0 0 0 0 0 0 0 0 0 0 0 0 0 0 0 0 0 127 0" result="hardAlpha"/>
<feOffset dy="2"/>
<feGaussianBlur stdDeviation="2"/>
<feComposite in2="hardAlpha" operator="out"/>
<feColorMatrix type="matrix" values="0 0 0 0 0 0 0 0 0 0 0 0 0 0 0 0 0 0 0.1 0"/>
<feBlend mode="normal" in2="BackgroundImageFix" result="effect1_dropShadow_1027_37394"/>
<feBlend mode="normal" in="SourceGraphic" in2="effect1_dropShadow_1027_37394" result="shape"/>
</filter>
</defs>
</svg>
