<svg width="48" height="48" viewBox="0 0 48 48" fill="none" xmlns="http://www.w3.org/2000/svg">
<g filter="url(#filter0_d_173_12363)">
<circle cx="24" cy="22" r="20" fill="#FF9626"/>
<g clip-path="url(#clip0_173_12363)">
<path d="M35.9997 22.6067C35.9663 22.66 35.9397 22.72 35.9063 22.7667C35.773 22.9533 35.5863 23.02 35.373 22.9667C35.153 22.9133 35.033 22.76 35.013 22.5267C35.0063 22.44 35.013 22.3533 35.013 22.2667C35.013 18.6133 35.013 14.9533 35.013 11.3C35.013 10.98 35.013 10.98 34.6997 10.98C27.5663 10.98 20.433 10.98 13.2997 10.98C12.9863 10.98 12.9863 10.98 12.9863 11.3C12.9863 14.76 12.9863 18.22 12.9863 21.68C12.9863 21.7733 12.9863 21.8667 12.9863 22C13.0997 22 13.1997 22 13.293 22C18.9663 22 24.6397 22 30.3063 22C30.4197 22 30.5463 22 30.653 22.0333C30.8863 22.1067 31.0063 22.32 30.973 22.5667C30.9463 22.7933 30.7663 22.96 30.533 22.9733C30.4397 22.98 30.3463 22.98 30.253 22.98C24.6063 22.98 18.953 22.98 13.3063 22.98C12.9797 22.98 12.9797 22.98 12.9797 23.3133C12.9797 23.6933 12.9797 24.0733 12.9797 24.48C13.1063 24.4867 13.213 24.5 13.313 24.5C17.2997 24.5 21.2797 24.5 25.2663 24.5C25.3797 24.5 25.4997 24.5 25.613 24.5267C25.833 24.5733 25.973 24.7667 25.9797 24.9867C25.9863 25.2133 25.8397 25.4133 25.6063 25.4667C25.493 25.4933 25.373 25.4933 25.2597 25.4933C21.2863 25.4933 17.3063 25.4933 13.333 25.4933C13.2263 25.4933 13.1197 25.4933 12.9797 25.4933C12.9797 25.98 12.9797 26.44 12.9863 26.9C12.9863 26.94 13.053 26.9933 13.0997 27.0067C13.1663 27.0267 13.2397 27.0133 13.3063 27.0133C16.6397 27.0133 19.9797 27.0133 23.313 27.0133C23.7463 27.0133 23.973 27.18 23.9797 27.4933C23.9863 27.8133 23.7463 27.9933 23.3063 27.9933C19.9797 27.9933 16.653 27.9933 13.3197 27.9933C13.2197 27.9933 13.1197 27.9933 12.993 27.9933C12.993 28.4933 12.993 28.98 12.993 29.5067C13.0863 29.5067 13.1863 29.5067 13.2863 29.5067C16.2863 29.5067 19.2863 29.5067 22.2863 29.5067C22.3663 29.5067 22.4463 29.5 22.5197 29.5067C22.793 29.5333 22.9863 29.7467 22.973 30.0067C22.9663 30.2733 22.7663 30.4667 22.493 30.48C22.4063 30.4867 22.3197 30.48 22.233 30.48C19.2397 30.48 16.2463 30.48 13.2597 30.4733C13.0397 30.4733 12.9597 30.5267 12.973 30.7533C12.993 31.1533 12.9797 31.56 12.9797 31.9933C13.113 31.9933 13.2063 31.9933 13.3063 31.9933C16.2997 31.9933 19.293 31.9933 22.2797 31.9933C22.3863 31.9933 22.4997 31.9933 22.6063 32.02C22.833 32.0667 22.9797 32.2667 22.9797 32.5C22.973 32.72 22.833 32.9133 22.613 32.96C22.4997 32.9867 22.3797 32.9867 22.2663 32.9867C19.1663 32.9867 16.0663 32.9867 12.9597 32.9867C12.8663 32.9867 12.773 32.98 12.6797 32.9867C12.3597 33.0333 12.133 32.92 11.9863 32.6267C11.9997 25.22 11.9997 17.8 11.9997 10.3733C12.1263 10.2533 12.253 10.1267 12.373 10C20.1263 10 27.873 10 35.6263 10C35.753 10.1267 35.8797 10.2533 35.9997 10.3733C35.9997 14.4533 35.9997 18.5333 35.9997 22.6067Z" fill="#F9FAFA"/>
<path d="M36 26.78C35.96 26.9266 35.9267 27.08 35.8867 27.2266C35.74 27.7266 35.4867 28.1533 35.12 28.52C34.42 29.22 33.7267 29.9333 33.0134 30.62C32.18 31.4266 31.1734 31.7066 30.06 31.38C28.9467 31.0533 28.2467 30.2933 27.9734 29.1533C27.9 28.8466 28.0534 28.5733 28.3267 28.5133C28.6067 28.4533 28.8467 28.6133 28.9267 28.9266C29.36 30.5533 31.18 31.0533 32.3734 29.8666C33.0667 29.18 33.7667 28.4933 34.44 27.7933C35.5267 26.6666 35.0067 24.8333 33.5 24.4466C32.82 24.2733 32.2134 24.4333 31.6867 24.8866C31.42 25.1133 31.1867 25.38 30.9334 25.6266C30.68 25.8733 30.4 25.8933 30.1867 25.68C29.98 25.4733 29.9867 25.1733 30.2334 24.9333C30.7067 24.4666 31.1334 23.96 31.76 23.6733C33.5334 22.86 35.6134 23.9466 35.9467 25.8666C35.9534 25.92 35.98 25.9666 35.9934 26.02C36 26.28 36 26.5333 36 26.78Z" fill="#F9FAFA"/>
<path d="M26.6721 34.0001C26.4521 33.9401 26.2188 33.8867 26.0054 33.8134C24.0121 33.1201 23.3454 30.5934 24.7588 29.0401C25.5121 28.2067 26.3121 27.4134 27.1454 26.6534C28.8188 25.1267 31.5454 26.0134 32.0388 28.2267C32.1121 28.5534 31.9654 28.8267 31.6854 28.8867C31.4054 28.9467 31.1721 28.7801 31.0854 28.4667C30.6654 26.8601 28.8521 26.3467 27.6721 27.5001C26.9521 28.2067 26.2321 28.9067 25.5388 29.6401C24.4854 30.7601 25.0254 32.5667 26.5188 32.9467C27.2121 33.1201 27.8321 32.9467 28.3654 32.4734C28.6121 32.2467 28.8454 32.0001 29.0854 31.7667C29.3321 31.5267 29.6254 31.5067 29.8321 31.7201C30.0254 31.9201 30.0188 32.2267 29.7921 32.4534C29.3121 32.9201 28.8921 33.4601 28.2454 33.7201C27.9521 33.8401 27.6388 33.9134 27.3388 34.0067C27.1054 34.0001 26.8921 34.0001 26.6721 34.0001Z" fill="#F9FAFA"/>
<path d="M23.9669 20.9934C21.4269 20.9468 19.4536 18.9068 19.5069 16.3868C19.5602 13.9068 21.6202 11.9668 24.1469 12.0201C26.5736 12.0668 28.5336 14.1401 28.4869 16.5935C28.4469 19.0401 26.3869 21.0401 23.9669 20.9934ZM23.9802 20.0068C25.9136 20.0201 27.4936 18.4668 27.5136 16.5334C27.5336 14.6201 25.9669 13.0134 24.0736 12.9934C22.1002 12.9801 20.5136 14.5201 20.4936 16.4668C20.4669 18.4068 22.0336 19.9868 23.9802 20.0068Z" fill="#F9FAFA"/>
<path d="M14.9933 18.56C15.6933 18.78 16.1667 19.22 16.4067 19.9C16.4267 19.96 16.5733 20 16.6533 20C17.7333 20.0067 18.8067 20 19.8867 20.0067C20.2667 20.0067 20.4733 20.18 20.48 20.4867C20.4867 20.74 20.3333 20.94 20.0733 20.9734C19.9133 21 19.7467 20.9934 19.58 20.9934C18.4333 20.9934 17.2867 20.9934 16.1333 20.9934C15.6933 20.9934 15.5533 20.8667 15.5 20.4267C15.4333 19.8934 15.0867 19.5534 14.5467 19.5C14.14 19.46 14 19.3 14 18.8934C14 17.3 14 15.7067 14 14.1134C14 13.7 14.1267 13.56 14.5467 13.5134C15.0867 13.4467 15.44 13.0934 15.5 12.5534C15.5467 12.1534 15.6933 12.02 16.0867 12.02C17.3667 12.02 18.6467 12.02 19.9267 12.02C20.14 12.02 20.34 12.0734 20.4067 12.28C20.4533 12.4267 20.4467 12.62 20.3933 12.7667C20.3133 12.96 20.1067 13.0067 19.9 13.0067C18.82 13.0067 17.7467 13.0067 16.6667 13C16.4933 13 16.4067 13.0334 16.3467 13.2134C16.1467 13.78 15.7333 14.1667 15.16 14.3734C15.06 14.4134 14.9867 14.44 14.9867 14.58C14.9933 15.9 14.9933 17.22 14.9933 18.56Z" fill="#F9FAFA"/>
<path d="M33.9863 16.4933C33.9863 17.3 33.9863 18.1 33.9863 18.9066C33.9863 19.3 33.8396 19.46 33.4463 19.5C32.8863 19.56 32.5396 19.9066 32.4863 20.4666C32.453 20.8333 32.293 20.9933 31.933 20.9933C30.6463 21 29.353 20.9933 28.0663 20.9933C27.8263 20.9933 27.633 20.9133 27.5463 20.6733C27.473 20.4866 27.493 20.28 27.6596 20.16C27.7863 20.0666 27.973 20.0066 28.133 20.0066C29.193 19.9933 30.2596 19.9933 31.3196 20.0066C31.4996 20.0066 31.5863 19.96 31.653 19.78C31.8596 19.2133 32.2663 18.8266 32.833 18.6266C32.9663 18.58 33.0063 18.52 33.0063 18.38C32.9996 17.12 32.9996 15.8666 33.0063 14.6066C33.0063 14.48 32.973 14.4133 32.8463 14.3733C32.2596 14.1666 31.8463 13.7733 31.6396 13.1866C31.5863 13.04 31.5196 12.9866 31.3596 12.9933C30.2663 13 29.173 13 28.0796 13C27.7463 13 27.533 12.82 27.5196 12.5333C27.5063 12.2333 27.7063 12.0266 28.033 12.0266C28.6996 12.02 29.3596 12.0266 30.0263 12.0266C30.6596 12.0266 31.293 12.0266 31.9263 12.0266C32.3063 12.0266 32.4596 12.1733 32.4996 12.5533C32.5596 13.1066 32.913 13.4666 33.4663 13.5266C33.8596 13.5666 33.993 13.72 33.9996 14.12C33.9863 14.9 33.9863 15.6933 33.9863 16.4933Z" fill="#F9FAFA"/>
<path d="M17.5003 16.9868C17.2203 16.9868 17.0137 16.7801 17.0137 16.5068C17.0137 16.2401 17.227 16.0134 17.4937 16.0134C17.7537 16.0134 17.987 16.2401 17.987 16.5001C17.9937 16.7601 17.7737 16.9801 17.5003 16.9868Z" fill="#F9FAFA"/>
<path d="M30.9872 16.5067C30.9805 16.7801 30.7738 16.9867 30.4938 16.9801C30.2272 16.9734 30.0072 16.7534 30.0138 16.4867C30.0205 16.2267 30.2538 16.0001 30.5138 16.0067C30.7805 16.0134 30.9872 16.2334 30.9872 16.5067Z" fill="#F9FAFA"/>
</g>
</g>
<defs>
<filter id="filter0_d_173_12363" x="0" y="0" width="48" height="48" filterUnits="userSpaceOnUse" color-interpolation-filters="sRGB">
<feFlood flood-opacity="0" result="BackgroundImageFix"/>
<feColorMatrix in="SourceAlpha" type="matrix" values="0 0 0 0 0 0 0 0 0 0 0 0 0 0 0 0 0 0 127 0" result="hardAlpha"/>
<feOffset dy="2"/>
<feGaussianBlur stdDeviation="2"/>
<feComposite in2="hardAlpha" operator="out"/>
<feColorMatrix type="matrix" values="0 0 0 0 0 0 0 0 0 0 0 0 0 0 0 0 0 0 0.1 0"/>
<feBlend mode="normal" in2="BackgroundImageFix" result="effect1_dropShadow_173_12363"/>
<feBlend mode="normal" in="SourceGraphic" in2="effect1_dropShadow_173_12363" result="shape"/>
</filter>
<clipPath id="clip0_173_12363">
<rect width="24" height="24" fill="white" transform="translate(12 10)"/>
</clipPath>
</defs>
</svg>
