<svg width="48" height="48" viewBox="0 0 48 48" fill="none" xmlns="http://www.w3.org/2000/svg">
<g filter="url(#filter0_d_613_29331)">
<circle cx="24" cy="22" r="20" fill="#FF9626"/>
<g clip-path="url(#clip0_613_29331)">
<path d="M24.0704 19.9641C21.5746 19.9557 19.5424 17.9113 19.5587 15.4252C19.575 12.9354 21.6037 10.9177 24.085 10.9231C26.5784 10.9286 28.6124 12.9759 28.5967 15.4621C28.5804 17.9519 26.5493 19.972 24.0704 19.9641ZM24.088 11.4557C21.8802 11.4527 20.0931 13.2301 20.0901 15.433C20.087 17.6396 21.8669 19.4304 24.0668 19.4346C26.2697 19.4388 28.0629 17.6535 28.0647 15.4536C28.0672 13.2446 26.2915 11.4593 24.088 11.4557Z" fill="#F9FAFA" stroke="#F9FAFA" stroke-width="0.5"/>
<path d="M23.8103 23.4392C23.7014 23.4392 23.6203 23.4392 23.5392 23.4392C21.5995 23.4392 19.6599 23.4386 17.7202 23.4392C16.879 23.4392 16.4674 23.8513 16.4668 24.6889C16.4668 24.7869 16.4965 24.9007 16.4571 24.9794C16.4069 25.0792 16.304 25.2118 16.2175 25.216C16.1316 25.2203 15.979 25.0986 15.9573 25.0072C15.6934 23.9124 16.4844 22.9217 17.6125 22.9199C19.5824 22.9175 21.5523 22.9193 23.5222 22.9193C23.6106 22.9193 23.6995 22.9193 23.8109 22.9193C23.8109 22.4963 23.8109 22.098 23.8109 21.6998C23.8109 21.6242 23.8067 21.5485 23.8127 21.4735C23.826 21.3101 23.9041 21.1981 24.0808 21.2005C24.2581 21.203 24.3386 21.3179 24.3417 21.4801C24.3477 21.8499 24.3441 22.2203 24.3441 22.5901C24.3441 22.6881 24.3441 22.7855 24.3441 22.9193C24.4433 22.9193 24.5305 22.9193 24.617 22.9193C26.5791 22.9193 28.5417 22.9187 30.5038 22.9199C31.6597 22.9205 32.4307 23.8549 32.2007 24.9927C32.182 25.0859 32.047 25.2027 31.949 25.2227C31.7989 25.2523 31.699 25.1355 31.6906 24.9764C31.6821 24.8184 31.6906 24.6592 31.6857 24.5007C31.6688 23.9512 31.2857 23.5269 30.7428 23.4555C30.6533 23.444 30.5625 23.4392 30.4723 23.4392C28.5103 23.4386 26.5476 23.4386 24.5856 23.4392C24.5117 23.4392 24.4385 23.4452 24.3441 23.4495C24.3441 23.8949 24.3441 24.324 24.3441 24.7524C24.3441 24.8281 24.3459 24.9037 24.3429 24.9788C24.3362 25.1446 24.2533 25.2626 24.0851 25.2656C23.9041 25.2687 23.8139 25.1482 23.8121 24.9715C23.8085 24.5636 23.8109 24.1563 23.8103 23.7484C23.8103 23.6588 23.8103 23.5693 23.8103 23.4392Z" fill="#F9FAFA" stroke="#F9FAFA" stroke-width="0.5"/>
<path d="M12.9238 29.7798C12.9287 27.9515 14.3969 26.4972 16.2312 26.5045C18.0269 26.5117 19.4933 27.9872 19.4939 29.7871C19.4945 31.6045 18.0099 33.083 16.1901 33.0769C14.3799 33.0709 12.919 31.596 12.9238 29.7798ZM16.1974 27.0316C14.6777 27.0358 13.4455 28.2674 13.4431 29.7847C13.4407 31.3122 14.6801 32.5474 16.2119 32.5444C17.7436 32.5413 18.9661 31.3079 18.9607 29.7695C18.9558 28.2529 17.7194 27.0274 16.1974 27.0316Z" fill="#F9FAFA" stroke="#F9FAFA" stroke-width="0.5"/>
<path d="M35.2322 29.7956C35.2285 31.6215 33.7549 33.0842 31.9272 33.077C30.1243 33.0697 28.6525 31.5791 28.6622 29.7714C28.6718 27.9606 30.1467 26.5009 31.9629 26.5045C33.7767 26.5082 35.2358 27.977 35.2322 29.7956ZM31.9623 27.0317C30.4396 27.0262 29.2014 28.2499 29.1953 29.7665C29.1893 31.3062 30.4075 32.5395 31.9399 32.545C33.4711 32.5498 34.7123 31.3164 34.7129 29.7889C34.7129 28.2717 33.4813 27.0371 31.9623 27.0317Z" fill="#F9FAFA" stroke="#F9FAFA" stroke-width="0.5"/>
<path d="M27.3636 29.7774C27.3733 31.576 25.9093 33.0642 24.1179 33.0763C22.2793 33.089 20.7924 31.6184 20.793 29.7889C20.7936 27.9836 22.2533 26.5111 24.0495 26.5045C25.8815 26.4972 27.3533 27.9509 27.3636 29.7774ZM24.0828 27.0316C22.565 27.028 21.3237 28.2583 21.3177 29.7732C21.3116 31.3037 22.5426 32.5425 24.0731 32.5456C25.5946 32.5486 26.8316 31.3231 26.8383 29.8058C26.8455 28.2771 25.6122 27.0352 24.0828 27.0316Z" fill="#F9FAFA" stroke="#F9FAFA" stroke-width="0.5"/>
<path d="M21.3993 15.2957C21.4483 13.9328 22.6085 12.7962 23.9853 12.7629C24.2092 12.7575 24.3478 12.8501 24.3381 13.0153C24.3266 13.212 24.1965 13.2701 24.0143 13.2834C22.833 13.3705 22.025 14.1609 21.9191 15.3247C21.8937 15.6007 21.8078 15.7175 21.6377 15.7072C21.4634 15.6963 21.3896 15.5692 21.3993 15.2957Z" fill="#F9FAFA"/>
<path d="M14.3691 29.6588C14.4248 28.7401 15.1801 27.9872 16.0812 27.9521C16.3324 27.9425 16.4643 28.0217 16.4625 28.196C16.4607 28.4145 16.3094 28.4557 16.1266 28.475C15.4191 28.5519 14.9501 29.0131 14.8902 29.6951C14.8733 29.8876 14.8394 30.0473 14.6046 30.0443C14.4266 30.0419 14.354 29.9148 14.3691 29.6588Z" fill="#F9FAFA"/>
<path d="M30.1058 29.6981C30.1324 28.7619 30.9464 27.9606 31.8772 27.9485C32.0503 27.9461 32.1871 27.9915 32.2034 28.1797C32.2209 28.3776 32.0969 28.4502 31.9105 28.4714C31.1292 28.5598 30.7225 28.9701 30.6371 29.7472C30.6172 29.9269 30.547 30.0546 30.3436 30.0443C30.1808 30.0364 30.0997 29.9124 30.1058 29.6981Z" fill="#F9FAFA"/>
<path d="M22.2328 29.7054C22.2715 28.7534 23.0673 27.9661 24.0005 27.9485C24.1857 27.9449 24.3261 28 24.3364 28.1954C24.3461 28.377 24.222 28.4502 24.0459 28.4708C23.2471 28.5646 22.8434 28.9743 22.7629 29.7629C22.7448 29.9378 22.6655 30.0552 22.4785 30.0425C22.2739 30.0298 22.2279 29.8815 22.2328 29.7054Z" fill="#F9FAFA"/>
</g>
</g>
<defs>
<filter id="filter0_d_613_29331" x="0" y="0" width="48" height="48" filterUnits="userSpaceOnUse" color-interpolation-filters="sRGB">
<feFlood flood-opacity="0" result="BackgroundImageFix"/>
<feColorMatrix in="SourceAlpha" type="matrix" values="0 0 0 0 0 0 0 0 0 0 0 0 0 0 0 0 0 0 127 0" result="hardAlpha"/>
<feOffset dy="2"/>
<feGaussianBlur stdDeviation="2"/>
<feComposite in2="hardAlpha" operator="out"/>
<feColorMatrix type="matrix" values="0 0 0 0 0 0 0 0 0 0 0 0 0 0 0 0 0 0 0.1 0"/>
<feBlend mode="normal" in2="BackgroundImageFix" result="effect1_dropShadow_613_29331"/>
<feBlend mode="normal" in="SourceGraphic" in2="effect1_dropShadow_613_29331" result="shape"/>
</filter>
<clipPath id="clip0_613_29331">
<rect width="24" height="24" fill="white" transform="translate(12 10)"/>
</clipPath>
</defs>
</svg>
