<svg width="48" height="48" viewBox="0 0 48 48" fill="none" xmlns="http://www.w3.org/2000/svg">
<g filter="url(#filter0_d_169_12576)">
<circle cx="24" cy="22" r="20" fill="#FF9626"/>
<path d="M25.3984 30.6165C25.4221 30.7391 25.4433 30.8469 25.4709 30.9868C23.9133 31.2711 22.3969 31.1594 20.9177 30.6512C18.6953 29.8875 16.9901 28.475 15.8433 26.424C13.5831 22.3829 14.7132 17.3535 18.3404 14.6369C18.4161 14.7351 18.4918 14.834 18.5765 14.9443C18.4719 15.0329 18.3789 15.1189 18.2781 15.1933C18.1363 15.2979 18.1684 15.4077 18.2884 15.4808C18.3936 15.545 18.5246 15.597 18.6459 15.5996C18.9898 15.6073 19.3345 15.5887 19.6791 15.5771C20.3234 15.5566 20.9626 15.5822 21.5812 15.7844C21.7314 15.8338 21.8816 15.9012 22.0125 15.9891C22.3616 16.2246 22.472 16.5834 22.2345 16.9267C21.9149 17.3888 21.9727 17.804 22.248 18.2416C22.5426 18.7095 22.5483 19.1613 22.2089 19.6272C22.0677 19.821 21.9849 20.0713 21.9303 20.3087C21.9047 20.421 21.9714 20.6065 22.0613 20.6835C22.3834 20.9601 22.968 20.8818 23.2247 20.541C23.3685 20.3498 23.4872 20.1387 23.6111 19.9327C24.0796 19.1516 24.5814 18.9322 25.4683 19.1241C25.6011 19.1529 25.7346 19.1831 25.87 19.1966C26.2962 19.2402 26.5272 19.0766 26.6138 18.6594C26.6613 18.4322 26.6819 18.1999 26.7178 17.9702C26.7601 17.7 26.8346 17.4407 27.1298 17.3458C27.4205 17.2514 27.6701 17.3625 27.8742 17.5659C28.3427 18.0324 28.5166 18.6286 28.5757 19.2627C28.6122 19.6554 28.6899 19.9988 29.0794 20.2067C29.2848 20.3164 29.2707 20.5244 29.1808 20.7162C29.073 20.9485 28.9459 21.1725 28.849 21.4093C28.7772 21.5852 28.7123 21.7745 28.7008 21.9606C28.6944 22.0639 28.7804 22.2173 28.8702 22.2667C28.9382 22.3046 29.1192 22.2468 29.1763 22.1736C29.3535 21.949 29.5267 21.7109 29.6435 21.4517C29.8438 21.0069 30.001 20.5436 30.1736 20.0867C30.352 19.6144 30.4233 19.5765 30.8988 19.7125C31.2954 19.8261 31.9095 19.6375 32.1444 19.3159C32.1797 19.2678 32.1714 19.1658 32.1483 19.101C31.665 17.7116 30.8898 16.5083 29.8033 15.5161C28.0597 13.9246 25.9997 13.1571 23.64 13.1904C23.5687 13.1917 23.4975 13.1904 23.4109 13.1904C23.4006 13.1205 23.389 13.0602 23.3839 12.9992C23.3794 12.9446 23.3833 12.8888 23.3833 12.7906C26.1723 12.7027 28.5596 13.6108 30.481 15.6201C32.43 17.6583 33.2219 20.1188 32.9838 22.9405C32.8369 22.9271 32.7271 22.9168 32.5827 22.9033C32.6867 21.8335 32.6155 20.7785 32.3421 19.7549C32.0642 19.8788 31.8062 20.045 31.5258 20.1046C31.2466 20.1643 30.945 20.1175 30.6017 20.1175C30.5702 20.199 30.5202 20.3389 30.463 20.4756C30.2538 20.9774 30.06 21.487 29.8239 21.976C29.7225 22.1858 29.5498 22.37 29.3798 22.5362C29.1969 22.7153 28.9613 22.7756 28.7136 22.6607C28.4621 22.5433 28.2817 22.3431 28.3048 22.0633C28.3286 21.7745 28.4062 21.4844 28.4986 21.2078C28.5763 20.9749 28.7085 20.7599 28.8253 20.5186C28.2901 20.2413 28.2047 19.7389 28.1592 19.2139C28.1232 18.8006 28.0032 18.4117 27.7677 18.0665C27.7054 17.9747 27.6304 17.8868 27.5444 17.8175C27.3217 17.6384 27.1875 17.6904 27.133 17.9728C27.0971 18.1614 27.0752 18.3527 27.0489 18.5433C26.9321 19.3788 26.4476 19.7267 25.6159 19.5707C25.4426 19.538 25.2706 19.4988 25.0967 19.4732C24.7168 19.4173 24.3934 19.5277 24.1662 19.8447C23.9987 20.079 23.8543 20.3299 23.7003 20.5731C23.3107 21.1879 22.8602 21.365 22.162 21.177C21.646 21.0378 21.3951 20.6489 21.5453 20.1367C21.6319 19.8415 21.7763 19.5566 21.9361 19.2922C22.0818 19.0515 22.103 18.8346 21.9733 18.5927C21.8938 18.4444 21.82 18.293 21.7462 18.1422C21.5312 17.7045 21.5446 17.2803 21.8103 16.8632C22.0247 16.5269 21.9836 16.3478 21.5998 16.231C21.1981 16.1085 20.7752 16.0289 20.3568 15.9923C19.9685 15.9583 19.5725 16.0058 19.1804 16.0167C19.0444 16.0206 18.9077 16.0295 18.7716 16.0238C18.4071 16.009 18.0715 15.9243 17.8366 15.5893C17.2308 16.1534 16.7347 16.7862 16.3176 17.4831C16.2188 17.648 16.1373 17.8232 16.0359 17.9862C15.9614 18.1062 15.9903 18.1743 16.0911 18.2673C16.6359 18.7692 16.8432 19.3788 16.6834 20.1156C16.6243 20.387 16.6057 20.6713 16.6012 20.9498C16.5929 21.4703 16.8432 21.8476 17.3245 22.035C18.0606 22.3213 18.805 22.3642 19.5437 22.0216C19.7612 21.9208 19.9788 21.8104 20.2079 21.745C21.0556 21.5024 21.854 22.1929 21.75 23.0657C21.691 23.5605 21.2841 23.9397 20.7495 23.9738C20.326 24.0007 19.8992 23.9821 19.4776 24.0238C18.746 24.0963 18.3096 24.4891 18.162 25.1591C18.0997 25.4421 18.1575 25.5383 18.4386 25.6115C18.5701 25.6462 18.7043 25.6712 18.8358 25.7071C19.2761 25.8278 19.4468 26.0614 19.4147 26.5151C19.3973 26.7628 19.355 27.0092 19.3434 27.257C19.3255 27.6491 19.4378 27.8422 19.81 27.9744C20.1097 28.081 20.428 28.1361 20.7386 28.2106C21.073 28.2915 21.4112 28.3588 21.7436 28.448C22.8262 28.7394 23.5411 29.4325 23.9088 30.4817C23.9788 30.6807 24.0725 30.7417 24.2702 30.7192C24.636 30.6775 25.0037 30.6512 25.3984 30.6165ZM15.7676 18.5182C14.6773 21.4177 14.8416 24.1695 16.5172 26.7397C18.1543 29.2509 20.539 30.5312 23.5386 30.7365C23.5315 30.6659 23.5353 30.6326 23.5244 30.6043C23.2453 29.8592 22.7896 29.2701 22.0253 28.9794C21.7121 28.8607 21.3855 28.776 21.0601 28.6919C20.5955 28.5725 20.1155 28.5045 19.6643 28.3492C19.0874 28.1509 18.8679 27.7274 18.9423 27.1222C18.968 26.9155 18.9866 26.7083 19.0123 26.5016C19.0405 26.2706 18.9456 26.1352 18.7145 26.0909C18.5656 26.062 18.4161 26.0293 18.2704 25.9869C17.8655 25.8695 17.6864 25.607 17.75 25.1937C17.8604 24.4782 18.2236 23.9327 18.9417 23.7447C19.3916 23.6266 19.8729 23.6298 20.3407 23.5836C20.4915 23.5688 20.6468 23.5855 20.7944 23.5566C21.2385 23.4693 21.4484 23.1068 21.3181 22.6755C21.1962 22.2706 20.7649 22.0164 20.3523 22.13C20.1456 22.1865 19.948 22.2815 19.7535 22.3739C18.9122 22.775 18.0606 22.7461 17.209 22.4271C16.7161 22.2423 16.3747 21.9003 16.2438 21.3734C16.1257 20.8998 16.1989 20.4332 16.2926 19.9686C16.4074 19.4039 16.2335 18.945 15.7676 18.5182Z" fill="#F9FAFA" stroke="#F9FAFA" stroke-width="0.5"/>
<path d="M30.1675 24.1085C31.2501 24.1085 32.3327 24.1072 33.4154 24.1092C33.8915 24.1098 34.0462 24.2645 34.0468 24.7464C34.0481 26.7269 34.0481 28.7079 34.0468 30.6884C34.0468 31.1832 33.8915 31.3378 33.4025 31.3378C31.2296 31.3385 29.056 31.3385 26.883 31.3378C26.4434 31.3378 26.2785 31.171 26.2778 30.7237C26.2772 28.7189 26.2772 26.714 26.2778 24.7092C26.2778 24.2773 26.4428 24.113 26.8714 24.1124C27.9701 24.1111 29.0688 24.1117 30.1675 24.1117C30.1675 24.1105 30.1675 24.1092 30.1675 24.1085ZM26.6937 26.2764C26.6847 26.3566 26.677 26.3938 26.677 26.431C26.6764 27.8576 26.6796 29.2842 26.6725 30.7102C26.6712 30.9258 26.7822 30.9342 26.944 30.9342C29.0836 30.9316 31.2238 30.9297 33.3634 30.9367C33.5816 30.9374 33.6509 30.8796 33.649 30.6544C33.6387 29.2759 33.6438 27.8974 33.6432 26.5189C33.6432 26.4509 33.6361 26.3829 33.631 26.277C32.456 27.0099 31.3104 27.7248 30.1623 28.441C29.0091 27.7216 27.8649 27.0073 26.6937 26.2764ZM30.1508 24.5064C30.1508 24.5071 30.1508 24.5077 30.1508 24.509C29.0848 24.509 28.0195 24.516 26.9536 24.5038C26.7226 24.5013 26.6616 24.5809 26.6725 24.7939C26.6866 25.0654 26.6635 25.3394 26.6828 25.6109C26.6892 25.7033 26.7521 25.8265 26.8278 25.8746C27.8886 26.5485 28.9552 27.214 30.0263 27.8724C30.0937 27.9135 30.2297 27.9141 30.2971 27.873C31.3682 27.2146 32.4341 26.5491 33.4956 25.8753C33.57 25.8278 33.631 25.7046 33.6374 25.6128C33.656 25.3336 33.631 25.0513 33.6483 24.7721C33.6612 24.5552 33.5797 24.5013 33.3724 24.5032C32.2981 24.5109 31.2244 24.5064 30.1508 24.5064Z" fill="#F9FAFA" stroke="#F9FAFA" stroke-width="0.5"/>
<path d="M20.9082 10.9238C21.4049 10.9238 21.9016 10.9225 22.3983 10.9244C22.7513 10.9257 22.8296 10.9989 22.8302 11.3422C22.8322 12.2637 22.8328 13.1847 22.8302 14.1062C22.8296 14.4335 22.7385 14.5266 22.4195 14.5272C21.41 14.5298 20.4006 14.5298 19.3917 14.5272C19.0696 14.5266 18.9701 14.4284 18.9695 14.1133C18.9669 13.184 18.9675 12.2548 18.9695 11.3255C18.9701 11.0175 19.0632 10.9257 19.3712 10.9244C19.8827 10.9218 20.3954 10.9238 20.9082 10.9238ZM22.5023 12.1482C22.1609 12.3594 21.8573 12.5474 21.5538 12.7354C21.3427 12.8657 21.1315 13.098 20.9204 13.0974C20.7003 13.0967 20.4789 12.8753 20.262 12.7431C19.9513 12.5538 19.6446 12.3581 19.3141 12.1514C19.3141 12.8612 19.3141 13.5261 19.3141 14.1864C20.3865 14.1864 21.4383 14.1864 22.5023 14.1864C22.5023 13.5139 22.5023 12.8606 22.5023 12.1482ZM22.4863 11.2581C21.4299 11.2581 20.371 11.2581 19.3244 11.2581C19.2178 11.6072 19.3263 11.8209 19.6433 11.9852C20.0328 12.1867 20.3903 12.4499 20.7702 12.6713C20.8389 12.711 20.9704 12.711 21.0385 12.6713C21.4319 12.4415 21.815 12.1938 22.202 11.9519C22.5639 11.7247 22.5639 11.7247 22.4863 11.2581Z" fill="#F9FAFA" stroke="#F9FAFA" stroke-width="0.5"/>
<path d="M15.9707 15.2094C15.868 15.1138 15.7807 15.0329 15.6787 14.9379C15.7994 14.8109 15.9129 14.6921 16.0426 14.5548C16.1465 14.6549 16.2357 14.7409 16.3346 14.8365C16.2011 14.9732 16.0907 15.0862 15.9707 15.2094Z" fill="#F9FAFA" stroke="#F9FAFA" stroke-width="0.3"/>
<path d="M17.0979 14.1486C16.9664 14.2622 16.8528 14.3603 16.7174 14.4771C16.6275 14.3822 16.5434 14.2923 16.4414 14.1845C16.5762 14.0683 16.7 13.9618 16.8419 13.8392C16.9285 13.9432 17.0036 14.0337 17.0979 14.1486Z" fill="#F9FAFA" stroke="#F9FAFA" stroke-width="0.3"/>
<path d="M14.1719 27.4867C14.3009 27.4155 14.4042 27.359 14.5261 27.2916C14.6108 27.4354 14.6911 27.5708 14.7835 27.7267C14.6699 27.7979 14.5659 27.864 14.4427 27.9417C14.3509 27.7877 14.2707 27.6523 14.1719 27.4867Z" fill="#F9FAFA" stroke="#F9FAFA" stroke-width="0.3"/>
<path d="M15.0037 16.439C14.9049 16.5936 14.8215 16.7246 14.7291 16.8696C14.6104 16.7977 14.5102 16.7374 14.3857 16.6617C14.4762 16.5173 14.5622 16.3799 14.6662 16.215C14.7753 16.2875 14.8767 16.3549 15.0037 16.439Z" fill="#F9FAFA" stroke="#F9FAFA" stroke-width="0.3"/>
<path d="M18.0475 31.0407C18.2015 31.1338 18.3292 31.2114 18.4736 31.2987C18.4063 31.4168 18.3453 31.5227 18.2734 31.6484C18.1188 31.5554 17.9801 31.472 17.8223 31.3763C17.9044 31.2544 17.975 31.1485 18.0475 31.0407Z" fill="#F9FAFA" stroke="#F9FAFA" stroke-width="0.3"/>
<path d="M18.941 31.558C19.1027 31.6343 19.2388 31.6985 19.3992 31.7736C19.344 31.8942 19.2933 32.0065 19.2337 32.1368C19.0707 32.0592 18.923 31.9886 18.7568 31.9096C18.821 31.7877 18.8749 31.685 18.941 31.558Z" fill="#F9FAFA" stroke="#F9FAFA" stroke-width="0.3"/>
<path d="M13.2848 19.1343C13.4177 19.1709 13.53 19.2023 13.6705 19.2409C13.6275 19.4026 13.5884 19.5521 13.5402 19.7337C13.4112 19.7016 13.2919 19.6721 13.1494 19.6362C13.195 19.4661 13.2373 19.3095 13.2848 19.1343Z" fill="#F9FAFA" stroke="#F9FAFA" stroke-width="0.3"/>
<path d="M22.8965 33.0539C22.9035 32.9178 22.9093 32.8017 22.917 32.6566C23.0832 32.665 23.2379 32.6727 23.4092 32.6817C23.4092 32.8087 23.4092 32.9236 23.4092 33.0545C23.243 33.0539 23.082 33.0539 22.8965 33.0539Z" fill="#F9FAFA" stroke="#F9FAFA" stroke-width="0.3"/>
<path d="M23.9766 33.077C23.9766 32.9326 23.9766 32.8171 23.9766 32.6842C24.1312 32.6714 24.2788 32.6586 24.4515 32.6438C24.4688 32.7831 24.4835 32.9056 24.5015 33.052C24.3231 33.0603 24.1659 33.068 23.9766 33.077Z" fill="#F9FAFA" stroke="#F9FAFA" stroke-width="0.3"/>
<path d="M13.8794 25.8631C13.7433 25.9144 13.6336 25.9555 13.5001 26.0049C13.4417 25.838 13.3878 25.684 13.3262 25.5069C13.4526 25.4665 13.5636 25.4312 13.701 25.3869C13.7568 25.5383 13.8113 25.6827 13.8794 25.8631Z" fill="#F9FAFA" stroke="#F9FAFA" stroke-width="0.3"/>
<path d="M15.6252 15.6098C15.5155 15.7478 15.4186 15.8704 15.3101 16.0077C15.1998 15.9249 15.1061 15.855 14.9893 15.7677C15.0984 15.6278 15.1985 15.4988 15.3127 15.3531C15.4192 15.4404 15.5142 15.5181 15.6252 15.6098Z" fill="#F9FAFA" stroke="#F9FAFA" stroke-width="0.3"/>
<path d="M15.0718 28.1747C15.1751 28.3146 15.2675 28.4391 15.3721 28.5809C15.2617 28.6643 15.1635 28.7394 15.0532 28.8235C14.9486 28.681 14.8555 28.5552 14.7451 28.405C14.8549 28.3274 14.9537 28.2574 15.0718 28.1747Z" fill="#F9FAFA" stroke="#F9FAFA" stroke-width="0.3"/>
<path d="M15.7482 29.6488C15.625 29.5108 15.5204 29.3933 15.3984 29.2573C15.4992 29.1713 15.5916 29.0924 15.7039 28.9967C15.8175 29.1232 15.9215 29.238 16.0286 29.3568C15.9337 29.4549 15.8483 29.5441 15.7482 29.6488Z" fill="#F9FAFA" stroke="#F9FAFA" stroke-width="0.3"/>
<path d="M17.5977 30.7391C17.5194 30.8507 17.4488 30.9515 17.3673 31.067C17.2203 30.9566 17.0894 30.8584 16.9463 30.7513C17.0316 30.6415 17.1074 30.544 17.1921 30.4349C17.3333 30.5401 17.4578 30.6338 17.5977 30.7391Z" fill="#F9FAFA" stroke="#F9FAFA" stroke-width="0.3"/>
<path d="M13.2288 21.7924C13.0844 21.7809 12.9753 21.7719 12.8457 21.761C12.854 21.5877 12.8611 21.4311 12.8707 21.2386C13.0151 21.2566 13.1364 21.2707 13.2827 21.2887C13.2635 21.4652 13.2468 21.6249 13.2288 21.7924Z" fill="#F9FAFA" stroke="#F9FAFA" stroke-width="0.3"/>
<path d="M14.2826 26.8199C14.1549 26.8822 14.0496 26.9341 13.9251 26.9951C13.85 26.8366 13.7807 26.6896 13.6992 26.517C13.8301 26.4625 13.9431 26.4156 14.0708 26.3624C14.1414 26.5151 14.2043 26.6505 14.2826 26.8199Z" fill="#F9FAFA" stroke="#F9FAFA" stroke-width="0.3"/>
<path d="M20.3692 32.149C20.3185 32.2934 20.2794 32.4038 20.2357 32.5289C20.0715 32.4712 19.9226 32.4192 19.7461 32.3569C19.7936 32.2286 19.8366 32.1144 19.8866 31.9796C20.0509 32.0373 20.1979 32.0887 20.3692 32.149Z" fill="#F9FAFA" stroke="#F9FAFA" stroke-width="0.3"/>
<path d="M20.7754 32.6926C20.8075 32.5584 20.8351 32.4461 20.8697 32.3024C21.0391 32.3447 21.1951 32.3839 21.3652 32.4269C21.3356 32.5604 21.31 32.6746 21.2779 32.8184C21.1078 32.776 20.9525 32.7369 20.7754 32.6926Z" fill="#F9FAFA" stroke="#F9FAFA" stroke-width="0.3"/>
<path d="M22.3894 32.622C22.3708 32.7497 22.3541 32.8646 22.3348 33.0013C22.1577 32.9762 22.0024 32.9544 21.8503 32.9332C21.8458 32.493 21.8471 32.4923 22.3894 32.622Z" fill="#F9FAFA" stroke="#F9FAFA" stroke-width="0.3"/>
<path d="M13.3469 23.8544C13.207 23.8788 13.0934 23.8987 12.9586 23.9218C12.9349 23.7459 12.9131 23.5855 12.8887 23.4065C13.0254 23.3866 13.1396 23.3705 13.2853 23.3493C13.3071 23.5239 13.3263 23.683 13.3469 23.8544Z" fill="#F9FAFA" stroke="#F9FAFA" stroke-width="0.3"/>
<path d="M14.4651 17.3291C14.3823 17.4908 14.3111 17.6294 14.2328 17.7828C14.1096 17.7225 14.0043 17.6705 13.876 17.6076C13.9543 17.4497 14.0268 17.3034 14.1083 17.1385C14.2321 17.2046 14.34 17.2617 14.4651 17.3291Z" fill="#F9FAFA" stroke="#F9FAFA" stroke-width="0.3"/>
<path d="M14.0225 18.2609C13.9525 18.4393 13.898 18.5786 13.8351 18.7396C13.7087 18.6934 13.5938 18.6517 13.4629 18.6042C13.5219 18.4457 13.5746 18.3058 13.6413 18.1281C13.7632 18.1711 13.882 18.2121 14.0225 18.2609Z" fill="#F9FAFA" stroke="#F9FAFA" stroke-width="0.3"/>
<path d="M13.4227 20.251C13.3919 20.4294 13.3662 20.577 13.3361 20.7502C13.2045 20.731 13.0839 20.713 12.9414 20.6918C12.9722 20.5128 12.9998 20.353 13.0306 20.1759C13.1686 20.2022 13.2828 20.224 13.4227 20.251Z" fill="#F9FAFA" stroke="#F9FAFA" stroke-width="0.3"/>
<path d="M13.0566 24.4641C13.194 24.4384 13.3146 24.4166 13.45 24.3915C13.4898 24.5597 13.5245 24.7053 13.5636 24.8709C13.4385 24.9049 13.3198 24.937 13.1741 24.9768C13.1343 24.8003 13.0977 24.6425 13.0566 24.4641Z" fill="#F9FAFA" stroke="#F9FAFA" stroke-width="0.3"/>
<path d="M16.7897 30.0986C16.6928 30.2064 16.6139 30.2944 16.5215 30.3983C16.3938 30.2809 16.2776 30.1743 16.1396 30.0473C16.2295 29.9497 16.3129 29.8592 16.4118 29.7527C16.5388 29.8682 16.6537 29.9735 16.7897 30.0986Z" fill="#F9FAFA" stroke="#F9FAFA" stroke-width="0.3"/>
<path d="M25.5688 32.9165C25.3801 32.9429 25.2203 32.9653 25.0464 32.9897C25.0265 32.8485 25.0105 32.7349 24.9912 32.6014C25.1587 32.5758 25.3127 32.552 25.4886 32.5251C25.5149 32.6521 25.538 32.7657 25.5688 32.9165Z" fill="#F9FAFA" stroke="#F9FAFA" stroke-width="0.3"/>
<path d="M12.8525 22.8545C12.8525 22.6672 12.8525 22.5112 12.8525 22.3373C12.9751 22.3373 13.09 22.3373 13.2228 22.3373C13.2228 22.4894 13.2228 22.6376 13.2228 22.816C13.1176 22.827 13.0027 22.8391 12.8525 22.8545Z" fill="#F9FAFA" stroke="#F9FAFA" stroke-width="0.3"/>
</g>
<defs>
<filter id="filter0_d_169_12576" x="0" y="0" width="48" height="48" filterUnits="userSpaceOnUse" color-interpolation-filters="sRGB">
<feFlood flood-opacity="0" result="BackgroundImageFix"/>
<feColorMatrix in="SourceAlpha" type="matrix" values="0 0 0 0 0 0 0 0 0 0 0 0 0 0 0 0 0 0 127 0" result="hardAlpha"/>
<feOffset dy="2"/>
<feGaussianBlur stdDeviation="2"/>
<feComposite in2="hardAlpha" operator="out"/>
<feColorMatrix type="matrix" values="0 0 0 0 0 0 0 0 0 0 0 0 0 0 0 0 0 0 0.1 0"/>
<feBlend mode="normal" in2="BackgroundImageFix" result="effect1_dropShadow_169_12576"/>
<feBlend mode="normal" in="SourceGraphic" in2="effect1_dropShadow_169_12576" result="shape"/>
</filter>
</defs>
</svg>
