<svg width="48" height="48" viewBox="0 0 48 48" fill="none" xmlns="http://www.w3.org/2000/svg">
<g filter="url(#filter0_d_249_36489)">
<circle cx="24" cy="22" r="20" fill="#FF9626"/>
<g clip-path="url(#clip0_249_36489)">
<path d="M30.8814 33.9997C30.6095 33.9392 30.3353 33.887 30.0659 33.8153C29.7476 33.7308 29.6009 33.5053 29.6654 33.2317C29.7253 32.9781 29.9684 32.8354 30.2731 32.9118C31.1068 33.1202 31.9224 33.1108 32.7314 32.7902C34.2186 32.2002 35.2056 30.5961 35.0376 29.0209C34.8545 27.307 33.5827 25.9431 31.9376 25.6965C29.8175 25.3783 27.9293 26.7956 27.658 28.9222C27.5923 29.4371 27.6404 29.9515 27.796 30.4511C27.8283 30.555 27.8647 30.6601 27.8765 30.7676C27.8988 30.9783 27.7631 31.1721 27.5653 31.2373C27.3604 31.3048 27.1478 31.2373 27.0369 31.0488C26.967 30.9296 26.9235 30.7952 26.8678 30.666C26.3969 30.8151 25.9378 30.9954 25.4628 31.1057C21.222 32.088 17.5964 30.9971 14.6526 27.7902C13.1173 26.1181 12.2595 24.1007 12.0534 21.8426C11.7375 18.3745 12.8225 15.3942 15.336 12.9653C16.8214 11.5298 18.5952 10.615 20.6207 10.2158C23.254 9.69615 25.7417 10.1201 28.0796 11.4341C28.3673 11.5961 28.4648 11.848 28.3391 12.094C28.2099 12.3464 27.934 12.4204 27.6328 12.2531C26.7545 11.7646 25.8344 11.3888 24.851 11.1728C23.1924 10.8082 21.5425 10.8516 19.9221 11.3548C17.2224 12.1932 15.2145 13.8765 13.9392 16.4035C12.0821 20.0842 12.8307 24.6873 15.7429 27.6041C15.7593 27.6206 15.7787 27.6341 15.8492 27.6928C15.8492 27.4726 15.8509 27.2941 15.8492 27.1162C15.8421 26.3982 15.9948 25.7218 16.3776 25.1065C17.0023 24.1025 17.9282 23.5794 19.0784 23.4073C19.4488 23.3516 19.8158 23.2758 20.1839 23.2089C20.5374 23.1449 20.7834 22.9541 20.8855 22.6024C20.9319 22.4409 20.909 22.3194 20.7393 22.2125C19.7494 21.5896 19.1793 20.6848 19.0003 19.5341C18.9656 19.3115 18.9674 19.0826 18.9674 18.8559C18.9656 18.1138 18.9562 17.3711 18.9762 16.6295C19.032 14.5347 21.0112 12.8302 23.0955 13.0704C25.0459 13.2947 26.4333 14.7772 26.5055 16.7634C26.5372 17.6365 26.5337 18.5148 26.4732 19.3861C26.3916 20.5627 25.8062 21.4786 24.8398 22.1479C24.521 22.3687 24.4817 22.5401 24.7077 22.8648C24.8569 23.0785 25.0735 23.169 25.3195 23.2153C25.8791 23.321 26.4433 23.4091 26.9952 23.5459C27.8565 23.759 28.5276 24.2598 29.0237 24.9949C29.0672 25.0595 29.1077 25.1264 29.1505 25.1916C29.1587 25.2034 29.174 25.2104 29.137 25.1822C29.6819 25.0331 30.1868 24.8757 30.7011 24.763C30.9642 24.7055 31.2442 24.7196 31.5172 24.7172C31.6364 24.716 31.6934 24.6838 31.7403 24.5698C32.3979 22.987 32.6381 21.3465 32.4484 19.6415C32.2858 18.1837 31.822 16.8303 31.0546 15.5809C30.9389 15.3925 30.8655 15.1987 30.9918 14.9891C31.0886 14.8288 31.2454 14.7255 31.4239 14.7789C31.5671 14.8218 31.7339 14.9145 31.8102 15.0355C32.7343 16.4998 33.2657 18.0991 33.4154 19.8253C33.561 21.5045 33.3103 23.1243 32.7038 24.6926C32.6815 24.7495 32.6651 24.8088 32.6551 24.8393C33.0708 25.0513 33.4941 25.221 33.8687 25.4658C35.0588 26.2437 35.7492 27.3517 35.9495 28.7619C35.9559 28.806 35.9776 28.8477 35.9923 28.8899C35.9923 29.187 35.9923 29.4835 35.9923 29.7806C35.9776 29.8329 35.9571 29.8839 35.9483 29.9368C35.65 31.8121 34.6085 33.0844 32.8324 33.7449C32.5083 33.8652 32.1578 33.9163 31.8196 33.9997C31.5067 33.9997 31.1943 33.9997 30.8814 33.9997ZM21.4462 23.5189C21.1239 23.8841 20.7346 24.0637 20.2919 24.143C19.8463 24.2223 19.4013 24.3045 18.9568 24.3884C17.7385 24.6192 16.8666 25.6108 16.8115 26.7769C16.7862 27.3147 16.7868 27.8542 16.7921 28.3926C16.7927 28.4731 16.8666 28.5788 16.9377 28.6281C19.9285 30.7059 23.1225 31.0858 26.5196 29.7683C26.6693 29.7101 26.711 29.635 26.7063 29.4765C26.6746 28.4443 26.9535 27.499 27.5647 26.6653C27.8031 26.3406 28.0896 26.0518 28.3937 25.7012C28.207 25.4828 28.0191 25.2239 27.7931 25.0049C27.3028 24.5299 26.6629 24.4131 26.0205 24.2904C25.3254 24.1571 24.5715 24.1641 24.0314 23.5183C23.8329 23.7291 23.6615 23.9328 23.4665 24.1101C23.3321 24.2328 23.3092 24.3456 23.3562 24.5188C23.6615 25.6478 23.9533 26.781 24.2551 27.9112C24.3191 28.1507 24.2827 28.3492 24.1112 28.5365C23.7889 28.8876 23.4824 29.2528 23.1642 29.6074C22.8759 29.9286 22.6029 29.9244 22.314 29.5998C22.0128 29.2616 21.7228 28.9122 21.4128 28.5823C21.2085 28.365 21.1638 28.1455 21.2431 27.8566C21.5502 26.7358 21.8408 25.6102 22.1279 24.4847C22.1508 24.3955 22.139 24.2598 22.0844 24.1953C21.8895 23.9628 21.6688 23.7508 21.4462 23.5189ZM19.9068 18.0733C19.9068 18.452 19.8986 18.7855 19.908 19.1184C19.9497 20.5351 21.0323 21.6982 22.4455 21.8509C23.8505 22.0029 25.1962 21.0659 25.4816 19.6673C25.5925 19.1248 25.5544 18.5506 25.5702 17.9905C25.572 17.93 25.4915 17.8472 25.4281 17.8091C24.9948 17.546 24.551 17.3 24.1212 17.0317C23.9691 16.9372 23.8775 16.9466 23.7425 17.0669C23.0556 17.6787 22.2483 18.0228 21.3276 18.0692C20.8632 18.0927 20.3959 18.0733 19.9068 18.0733ZM19.9156 17.1779C20.4845 17.1527 21.0399 17.1644 21.5854 17.094C22.2882 17.0035 22.8782 16.6571 23.3638 16.1369C23.6844 15.7935 23.827 15.7764 24.238 16.0172C24.5275 16.1868 24.8163 16.3577 25.1064 16.5268C25.2526 16.6125 25.4 16.6959 25.5779 16.798C25.5062 15.6655 25.0189 14.8235 24.0478 14.3204C23.0056 13.7802 21.9711 13.8689 21.0288 14.5728C20.1822 15.2058 19.8404 16.0823 19.9156 17.1779ZM22.7608 25.9337C22.7479 25.9326 22.7356 25.932 22.7227 25.9308C22.5465 26.6066 22.3692 27.2818 22.1966 27.9587C22.1872 27.9957 22.2066 28.0527 22.2324 28.0832C22.3968 28.277 22.5671 28.4666 22.7426 28.6656C22.9146 28.4719 23.0749 28.3016 23.2211 28.1202C23.2634 28.068 23.2957 27.9746 23.2798 27.9135C23.1125 27.2524 22.9352 26.5937 22.7608 25.9337ZM22.6986 23.4467C22.9475 23.1989 23.1865 22.9617 23.3785 22.7709C22.9763 22.7709 22.5037 22.7709 22.0281 22.7709C22.2712 23.0151 22.5054 23.2512 22.6986 23.4467Z" fill="#F9FAFA"/>
<path d="M30.8758 29.8229C30.4789 29.8229 30.1207 29.8282 29.762 29.8211C29.4532 29.8152 29.2582 29.6514 29.2365 29.3972C29.2118 29.1072 29.4027 28.8958 29.7168 28.8882C30.0902 28.8794 30.4642 28.8858 30.8752 28.8858C30.8752 28.594 30.8752 28.3169 30.8752 28.0392C30.8752 27.93 30.8711 27.8202 30.8775 27.7116C30.8934 27.4409 31.0631 27.2589 31.3079 27.2442C31.5668 27.2284 31.7741 27.3898 31.7993 27.6699C31.824 27.9406 31.8099 28.2153 31.8122 28.4883C31.8134 28.6116 31.8122 28.7349 31.8122 28.8858C32.2144 28.8858 32.5943 28.88 32.9736 28.8882C33.2255 28.8935 33.3981 29.0391 33.4403 29.2669C33.4809 29.4847 33.3928 29.6585 33.2014 29.753C33.0951 29.8053 32.9612 29.8158 32.8391 29.8188C32.5056 29.827 32.1721 29.8217 31.8122 29.8217C31.8122 30.1605 31.8134 30.4781 31.8111 30.7952C31.8105 30.8879 31.8093 30.983 31.7905 31.074C31.7406 31.3189 31.5357 31.4792 31.3091 31.4616C31.0742 31.4434 30.891 31.2655 30.8805 31.0147C30.8675 30.7112 30.8752 30.4065 30.874 30.1024C30.8758 30.0196 30.8758 29.9356 30.8758 29.8229Z" fill="#F9FAFA"/>
<path d="M27.9688 32.3458C27.9699 32.0915 28.1772 31.886 28.4302 31.8872C28.6839 31.8884 28.9099 32.115 28.9082 32.3663C28.907 32.61 28.6874 32.8254 28.4402 32.826C28.186 32.8272 27.9676 32.6047 27.9688 32.3458Z" fill="#F9FAFA"/>
<path d="M30.4627 13.4855C30.4668 13.7368 30.2642 13.9493 30.0141 13.9563C29.7522 13.9634 29.5197 13.735 29.5215 13.4731C29.5233 13.2254 29.7364 13.0117 29.9818 13.0105C30.2307 13.0099 30.4585 13.2348 30.4627 13.4855Z" fill="#F9FAFA"/>
<path d="M22.7547 21.0265C22.4288 21.0289 22.1564 20.9279 21.928 20.7177C21.7184 20.5245 21.6885 20.2738 21.8458 20.0689C22.0026 19.8646 22.2539 19.8235 22.4899 19.9879C22.6619 20.1077 22.8069 20.1112 22.9801 19.9903C23.2179 19.8247 23.4663 19.8634 23.6248 20.066C23.7845 20.2709 23.7481 20.5439 23.532 20.7318C23.3048 20.9291 23.0406 21.0301 22.7547 21.0265Z" fill="#F9FAFA"/>
<path d="M21.3322 18.4643C21.5835 18.4661 21.792 18.678 21.7896 18.9293C21.7873 19.183 21.5788 19.3861 21.3229 19.3838C21.0721 19.3814 20.8578 19.1665 20.8614 18.9205C20.8655 18.6733 21.0827 18.4626 21.3322 18.4643Z" fill="#F9FAFA"/>
<path d="M23.6973 18.9352C23.6927 18.678 23.8911 18.4696 24.1459 18.4643C24.3978 18.459 24.6109 18.6628 24.6168 18.9146C24.6227 19.1683 24.4207 19.3791 24.1665 19.3838C23.9093 19.389 23.7026 19.1912 23.6973 18.9352Z" fill="#F9FAFA"/>
</g>
</g>
<defs>
<filter id="filter0_d_249_36489" x="0" y="0" width="48" height="48" filterUnits="userSpaceOnUse" color-interpolation-filters="sRGB">
<feFlood flood-opacity="0" result="BackgroundImageFix"/>
<feColorMatrix in="SourceAlpha" type="matrix" values="0 0 0 0 0 0 0 0 0 0 0 0 0 0 0 0 0 0 127 0" result="hardAlpha"/>
<feOffset dy="2"/>
<feGaussianBlur stdDeviation="2"/>
<feComposite in2="hardAlpha" operator="out"/>
<feColorMatrix type="matrix" values="0 0 0 0 0 0 0 0 0 0 0 0 0 0 0 0 0 0 0.1 0"/>
<feBlend mode="normal" in2="BackgroundImageFix" result="effect1_dropShadow_249_36489"/>
<feBlend mode="normal" in="SourceGraphic" in2="effect1_dropShadow_249_36489" result="shape"/>
</filter>
<clipPath id="clip0_249_36489">
<rect width="24" height="24" fill="white" transform="translate(12 10)"/>
</clipPath>
</defs>
</svg>
