<svg width="48" height="48" viewBox="0 0 48 48" fill="none" xmlns="http://www.w3.org/2000/svg">
<g filter="url(#filter0_d_173_10695)">
<circle cx="24" cy="22" r="20" fill="#FF9626"/>
<path d="M35.4266 29.3473C35.3835 29.4852 35.3464 29.6255 35.2957 29.7605C35.0127 30.5181 34.3165 31.0062 33.5106 31.0157C33.3714 31.0174 33.2323 31.021 33.0938 31.0133C32.8945 31.0021 32.7565 30.8571 32.7624 30.6767C32.7677 30.5034 32.901 30.3701 33.0908 30.3583C33.1999 30.3513 33.3101 30.3566 33.4198 30.3566C34.2516 30.3542 34.8011 29.7741 34.758 28.9246C31.6559 28.9246 28.5531 28.9246 25.435 28.9246C25.435 29.3891 25.435 29.859 25.435 30.3566C25.5205 30.3566 25.6054 30.3566 25.6909 30.3566C27.5556 30.3566 29.4197 30.3566 31.2845 30.3566C31.3576 30.3566 31.4324 30.3489 31.5032 30.3619C31.6736 30.3943 31.7791 30.4998 31.7826 30.6767C31.7862 30.8642 31.68 30.9762 31.4991 31.0098C31.4283 31.0227 31.3534 31.0157 31.2803 31.0157C29.4233 31.0157 27.5662 31.0157 25.7086 31.0157C25.6219 31.0157 25.5352 31.0157 25.4321 31.0157C25.4268 31.0699 25.4215 31.1112 25.4197 31.1519C25.3949 31.65 25.0919 31.9442 24.589 31.9454C23.3533 31.9477 22.1177 31.9466 20.882 31.9466C18.8203 31.9466 16.7581 31.9466 14.6965 31.9466C14.0698 31.9466 13.7909 31.6653 13.7904 31.0351C13.7898 30.399 13.7898 29.7629 13.7904 29.1268C13.7909 28.5408 14.0822 28.2472 14.6623 28.2466C15.7588 28.246 16.856 28.2466 17.9525 28.2466C18.0327 28.2466 18.1123 28.2466 18.2108 28.2466C18.2108 26.9985 18.2108 25.7605 18.2108 24.4953C18.1259 24.4953 18.0404 24.4953 17.9543 24.4953C16.9745 24.4953 15.9947 24.5 15.0148 24.4941C14.0191 24.4883 13.2592 23.9382 13.0298 23.0545C12.9827 22.8729 12.9626 22.6795 12.9621 22.4915C12.9585 19.9547 12.9579 17.4173 12.9609 14.8805C12.9621 13.7226 13.7921 12.8837 14.9482 12.8825C19.3497 12.879 23.7519 12.8796 28.1534 12.8819C29.3225 12.8825 30.1519 13.7179 30.1555 14.8899C30.1596 16.2936 30.1567 17.6979 30.1567 19.1016C30.1567 19.1883 30.1567 19.2749 30.1567 19.3917C30.2492 19.3917 30.3264 19.3917 30.4037 19.3917C31.3617 19.3917 32.3191 19.3917 33.2771 19.3917C34.435 19.3917 35.1047 19.9057 35.4001 21.02C35.4036 21.0324 35.4172 21.0424 35.4266 21.0536C35.4266 23.8185 35.4266 26.5829 35.4266 29.3473ZM29.4952 18.3582C29.4952 18.255 29.4952 18.1831 29.4952 18.1112C29.4952 17.0512 29.4964 15.9906 29.4946 14.9306C29.4934 14.0669 28.9652 13.5428 28.0962 13.5428C23.7383 13.5422 19.3804 13.5422 15.0231 13.5428C14.14 13.5428 13.6206 14.0634 13.62 14.9465C13.6194 17.4397 13.6194 19.9329 13.62 22.4266C13.62 23.2938 14.1394 23.8262 15.0054 23.8321C16.0436 23.8386 17.0818 23.8297 18.12 23.838C18.2821 23.8392 18.3275 23.7737 18.3629 23.634C18.5468 22.9053 18.7419 22.179 18.9306 21.4509C19.4311 19.519 20.9291 18.3594 22.9259 18.3588C25.017 18.3582 27.1081 18.3588 29.1992 18.3588C29.2918 18.3582 29.3844 18.3582 29.4952 18.3582ZM30.1567 20.0555C30.1567 20.872 30.1649 21.6537 30.1519 22.4355C30.1478 22.6807 30.1266 22.9389 30.0446 23.1671C29.665 24.2235 28.8042 24.6003 27.7684 24.4776C27.6723 24.4664 27.5544 24.3474 27.5108 24.2501C27.4218 24.0496 27.5975 23.8498 27.8527 23.8344C28.0785 23.8209 28.3114 23.8445 28.5295 23.7979C29.1031 23.6765 29.4922 23.1411 29.4946 22.4962C29.4987 21.3996 29.4958 20.3025 29.4952 19.2059C29.4952 19.1499 29.4852 19.0939 29.4799 19.0362C29.4292 19.0297 29.3932 19.0214 29.3572 19.0214C27.1347 19.0226 24.9115 19.0037 22.6889 19.0326C21.2227 19.0515 20.0377 20.0065 19.6298 21.4197C19.5024 21.8612 19.3934 22.3087 19.2772 22.7532C19.1859 23.1028 19.0951 23.453 18.9966 23.8321C19.1181 23.8321 19.2041 23.8321 19.2902 23.8321C21.5128 23.8321 23.7359 23.8321 25.9585 23.8321C26.0387 23.8321 26.1201 23.828 26.1996 23.8374C26.3895 23.8604 26.5168 23.9989 26.5151 24.1699C26.5127 24.3415 26.3824 24.4735 26.1914 24.4912C26.1189 24.4977 26.0452 24.4947 25.9721 24.4947C23.713 24.4947 21.4532 24.4947 19.1941 24.4947C19.101 24.4947 19.0078 24.4947 18.9088 24.4947C18.9088 25.0436 18.9088 25.5642 18.9088 26.0824C24.2011 26.0824 29.4769 26.0824 34.7669 26.0824C34.7669 26.0028 34.7669 25.9379 34.7669 25.8731C34.7669 24.3963 34.7675 22.9189 34.7663 21.4421C34.7657 20.5926 34.2316 20.0567 33.3844 20.0555C32.4848 20.0543 31.5857 20.0549 30.6861 20.0549C30.5192 20.0555 30.3524 20.0555 30.1567 20.0555ZM18.9023 28.2295C24.2046 28.2295 29.4793 28.2295 34.7521 28.2295C34.7521 27.7325 34.7521 27.2532 34.7521 26.7716C29.4628 26.7716 24.1875 26.7716 18.9023 26.7716C18.9023 27.2632 18.9023 27.7419 18.9023 28.2295ZM19.6068 28.9069C17.9773 28.9069 16.3472 28.9104 14.7177 28.9027C14.5037 28.9016 14.443 28.9688 14.4465 29.1775C14.4583 29.8059 14.456 30.4344 14.4477 31.0628C14.4453 31.2379 14.5084 31.2886 14.6776 31.2886C17.959 31.2851 21.2404 31.2851 24.5218 31.2892C24.704 31.2892 24.7647 31.2297 24.7623 31.0487C24.7541 30.4273 24.7594 29.8065 24.7594 29.1851C24.7594 28.9098 24.7564 28.9069 24.4746 28.9069C22.8516 28.9069 21.2292 28.9069 19.6068 28.9069Z" fill="#F9FAFA" stroke="#F9FAFA" stroke-width="0.4"/>
<path d="M17.267 17.6667C16.9085 17.6667 16.5501 17.6708 16.1922 17.6661C15.4306 17.6555 14.9283 17.1585 14.9147 16.4009C14.9094 16.1162 14.9041 15.8297 14.9277 15.5461C14.9784 14.9424 15.4748 14.4767 16.0826 14.4678C16.872 14.4572 17.662 14.4566 18.452 14.4684C19.0486 14.4773 19.5391 14.9377 19.5939 15.5349C19.621 15.8326 19.6181 16.1339 19.6086 16.4334C19.5851 17.1585 19.0898 17.6472 18.3647 17.6649C17.9986 17.6738 17.6325 17.6667 17.267 17.6667ZM17.257 15.1252C16.8914 15.1252 16.5259 15.121 16.1604 15.1263C15.802 15.1311 15.5903 15.3392 15.5797 15.6988C15.5726 15.947 15.5715 16.1958 15.5815 16.444C15.5939 16.7712 15.7896 16.9893 16.1156 16.9952C16.8826 17.0082 17.6508 17.0082 18.4178 16.994C18.7326 16.9881 18.9271 16.7723 18.9419 16.4564C18.9537 16.2011 18.9531 15.9446 18.9442 15.6894C18.9313 15.3315 18.7178 15.1305 18.3541 15.1263C17.988 15.1216 17.6225 15.1246 17.257 15.1252Z" fill="#F9FAFA"/>
<path d="M26.4232 22.9047C26.3341 22.9979 26.2593 23.137 26.152 23.17C26.0529 23.2007 25.9167 23.1235 25.8018 23.0804C25.7699 23.0686 25.7417 23.0109 25.7363 22.9714C25.6915 22.6017 25.4486 22.5534 25.1444 22.597C25.1014 22.6029 25.056 22.6029 25.0136 22.597C24.7164 22.5557 24.503 22.6117 24.4293 22.9625C24.3851 23.1736 24.1752 23.249 24.0001 23.1777C23.8192 23.104 23.7455 22.933 23.8245 22.7226C24.1216 21.9314 24.4152 21.1391 24.7347 20.3567C24.7813 20.2418 24.9469 20.1392 25.0772 20.1044C25.2341 20.0631 25.3785 20.1693 25.4386 20.3267C25.7517 21.1426 26.0576 21.9615 26.3654 22.7798C26.3754 22.8069 26.3789 22.8364 26.3854 22.8641C26.3972 22.8776 26.4102 22.8912 26.4232 22.9047ZM25.0878 21.2593C24.9941 21.5063 24.9186 21.7062 24.8373 21.9214C25.0147 21.9214 25.1663 21.9214 25.336 21.9214C25.2553 21.7068 25.1822 21.5116 25.0878 21.2593Z" fill="#F9FAFA"/>
<path d="M22.3527 22.1554C22.3527 22.3848 22.3551 22.6023 22.3521 22.8192C22.3486 23.0545 22.2189 23.2019 22.0238 23.2019C21.828 23.2013 21.6948 23.0533 21.6936 22.8192C21.6907 22.0381 21.6907 21.257 21.6936 20.4764C21.6948 20.2229 21.818 20.0991 22.0686 20.0932C22.2873 20.0879 22.5066 20.0861 22.7253 20.0938C23.2807 20.1138 23.7104 20.5324 23.7411 21.076C23.77 21.5942 23.375 22.0523 22.8261 22.1271C22.6764 22.1478 22.5243 22.146 22.3527 22.1554ZM22.3686 20.7623C22.3686 21.0129 22.3686 21.2357 22.3686 21.4751C22.6115 21.4668 22.8709 21.547 23.0112 21.2935C23.0631 21.1992 23.0625 21.0247 23.0083 20.9315C22.8644 20.6869 22.6092 20.7541 22.3686 20.7623Z" fill="#F9FAFA"/>
<path d="M27.322 21.0129C27.4889 20.7576 27.6339 20.5306 27.7848 20.3066C27.9269 20.0949 28.1132 20.0442 28.2836 20.1627C28.4433 20.2742 28.4669 20.4634 28.3372 20.6668C28.145 20.9686 27.9416 21.2628 27.7565 21.5688C27.6999 21.6625 27.664 21.7816 27.6592 21.8913C27.6457 22.1973 27.6569 22.505 27.6516 22.8116C27.6475 23.0503 27.5201 23.1971 27.3262 23.2024C27.1245 23.2077 26.9966 23.055 26.9919 22.8039C26.9919 22.7968 26.9907 22.7892 26.9919 22.7821C27.118 22.018 26.874 21.3672 26.3852 20.7906C26.3475 20.7464 26.3198 20.6939 26.2897 20.6438C26.1671 20.441 26.1966 20.2524 26.367 20.1468C26.5315 20.0448 26.7077 20.0896 26.8362 20.2771C26.996 20.5112 27.1493 20.7499 27.322 21.0129Z" fill="#F9FAFA"/>
<path d="M20.8813 29.6114C21.1819 29.3632 21.3382 29.3349 21.4932 29.4952C21.6441 29.6509 21.6153 29.8077 21.4048 30.0594C21.4673 30.2227 21.5404 30.3677 21.5728 30.5216C21.5852 30.5794 21.5186 30.6719 21.4637 30.7226C21.3164 30.8588 21.1513 30.8164 20.9208 30.6142C20.7592 30.679 20.616 30.7533 20.4639 30.7881C20.4067 30.8011 20.3135 30.7356 20.2623 30.682C20.1237 30.5369 20.1632 30.3754 20.3849 30.1131C20.1567 29.731 20.1402 29.6043 20.3012 29.471C20.4621 29.3378 20.6054 29.3708 20.8813 29.6114Z" fill="#F9FAFA"/>
<path d="M15.7568 30.5818C15.4827 30.8235 15.3188 30.8571 15.1626 30.7091C15.0022 30.5576 15.0323 30.3884 15.2693 30.1072C15.0311 29.7588 15.0093 29.6279 15.1649 29.4835C15.3247 29.3349 15.4739 29.3656 15.7509 29.6043C16.1047 29.3656 16.2314 29.3443 16.3753 29.4994C16.5215 29.6568 16.4926 29.8024 16.2745 30.0683C16.3411 30.2204 16.4195 30.3566 16.4566 30.5034C16.4714 30.5606 16.4077 30.6555 16.3552 30.7091C16.2102 30.8583 16.0498 30.8223 15.7568 30.5818Z" fill="#F9FAFA"/>
<path d="M18.8168 30.0977C19.0485 30.4043 19.0756 30.5546 18.9265 30.7032C18.7744 30.8547 18.6246 30.8264 18.3228 30.59C18.0168 30.8264 17.8671 30.8547 17.7161 30.7032C17.5623 30.5493 17.587 30.4119 17.8264 30.0977C17.5864 29.7758 17.5623 29.6449 17.7156 29.4917C17.8688 29.3378 18.0091 29.3637 18.321 29.6031C18.6347 29.3637 18.772 29.3384 18.9259 29.4905C19.0774 29.6396 19.0503 29.7911 18.8168 30.0977Z" fill="#F9FAFA"/>
<path d="M23.4358 30.5835C23.1663 30.8259 22.996 30.8577 22.8403 30.7038C22.6864 30.5517 22.7142 30.4002 22.9512 30.1001C22.7136 29.7812 22.6876 29.645 22.8368 29.4935C22.9918 29.3361 23.1369 29.3626 23.4411 29.6025C23.7641 29.3661 23.8968 29.3408 24.0477 29.4888C24.2045 29.6426 24.1786 29.7871 23.9392 30.0942C24.1762 30.4138 24.201 30.5476 24.0512 30.7003C23.8997 30.8547 23.7506 30.8276 23.4358 30.5835Z" fill="#F9FAFA"/>
</g>
<defs>
<filter id="filter0_d_173_10695" x="0" y="0" width="48" height="48" filterUnits="userSpaceOnUse" color-interpolation-filters="sRGB">
<feFlood flood-opacity="0" result="BackgroundImageFix"/>
<feColorMatrix in="SourceAlpha" type="matrix" values="0 0 0 0 0 0 0 0 0 0 0 0 0 0 0 0 0 0 127 0" result="hardAlpha"/>
<feOffset dy="2"/>
<feGaussianBlur stdDeviation="2"/>
<feComposite in2="hardAlpha" operator="out"/>
<feColorMatrix type="matrix" values="0 0 0 0 0 0 0 0 0 0 0 0 0 0 0 0 0 0 0.1 0"/>
<feBlend mode="normal" in2="BackgroundImageFix" result="effect1_dropShadow_173_10695"/>
<feBlend mode="normal" in="SourceGraphic" in2="effect1_dropShadow_173_10695" result="shape"/>
</filter>
</defs>
</svg>
