<svg width="48" height="48" viewBox="0 0 48 48" fill="none" xmlns="http://www.w3.org/2000/svg">
<g filter="url(#filter0_d_131_12243)">
<circle cx="24" cy="22" r="20" fill="#FF9626"/>
<path d="M22.6298 11C23.8577 11 25.0856 11 26.314 11C26.7129 11.1503 26.8603 11.445 26.8477 11.8607C26.8315 12.392 26.8441 12.9239 26.8441 13.4551C26.8441 13.5336 26.8441 13.6121 26.8441 13.6875C27.1987 13.6875 27.5167 13.6875 27.851 13.6875C27.851 13.2611 27.8486 12.8508 27.8516 12.4399C27.8551 11.9476 28.1271 11.6768 28.6182 11.6756C29.4418 11.6744 30.2654 11.675 31.0889 11.675C31.6675 11.675 31.9173 11.9272 31.9173 12.5136C31.9179 13.7636 31.9179 15.0142 31.9173 16.2642C31.9167 16.8345 31.6651 17.0884 31.0967 17.089C30.2953 17.0902 29.4945 17.0902 28.6931 17.089C28.0959 17.0884 27.851 16.841 27.8504 16.2415C27.8504 15.854 27.8504 15.467 27.8504 15.0669C27.5071 15.0669 27.1891 15.0669 26.8615 15.0669C26.8549 15.1196 26.8447 15.1628 26.8447 15.2053C26.8435 16.3733 26.8417 17.5412 26.8489 18.7086C26.8495 18.7918 26.9046 18.8925 26.9657 18.9548C27.506 19.5052 28.051 20.0509 28.5996 20.5923C28.7871 20.7774 28.8782 20.9888 28.874 21.2536C28.8668 21.7028 28.8722 22.152 28.8722 22.6012C28.8722 22.8983 28.8722 23.196 28.8722 23.5051C29.2148 23.5051 29.5334 23.5051 29.873 23.5051C29.8772 23.4146 29.8832 23.3343 29.8838 23.2547C29.885 22.5737 29.8802 21.8921 29.8862 21.211C29.8898 20.7403 30.1593 20.4749 30.6283 20.4737C31.4818 20.4707 32.3354 20.4713 33.1889 20.4737C33.6806 20.4749 33.9472 20.7451 33.9472 21.2422C33.9483 23.211 33.9483 25.1797 33.9472 27.1491C33.9466 27.6319 33.68 27.9062 33.2014 27.9086C32.3479 27.9134 31.4944 27.9128 30.6409 27.9092C30.1563 27.9068 29.8892 27.6427 29.8862 27.1599C29.8814 26.4861 29.885 25.8122 29.885 25.1384C29.885 25.0582 29.885 24.9785 29.885 24.8892C29.5352 24.8892 29.2118 24.8892 28.8734 24.8892C28.8734 25.6379 28.874 26.3711 28.8734 27.1036C28.8728 27.6558 28.6188 27.9092 28.0618 27.9104C27.1855 27.9116 26.3098 27.911 25.4336 27.911C25.3455 27.911 25.2575 27.911 25.17 27.911C25.17 29.1706 25.17 30.4033 25.17 31.6994C25.3653 31.4928 25.5162 31.3268 25.6749 31.1681C25.8379 31.0052 26.0367 30.9285 26.2673 30.9675C26.5326 31.013 26.7195 31.1639 26.804 31.4209C26.8914 31.6868 26.8249 31.9264 26.6309 32.1229C26.1523 32.6074 25.6725 33.092 25.1844 33.567C25.0215 33.7257 24.8316 33.8562 24.6537 34C24.5339 34 24.4141 34 24.2943 34C24.1805 33.9197 24.053 33.8533 23.9547 33.7568C23.4151 33.2267 22.8814 32.6913 22.3489 32.1546C22.0405 31.8438 22.0255 31.4353 22.3058 31.1549C22.5861 30.874 22.991 30.8896 23.3055 31.1981C23.4576 31.3472 23.6019 31.5035 23.7882 31.697C23.7882 30.3973 23.7882 29.167 23.7882 27.9098C23.69 27.9098 23.6019 27.9098 23.5139 27.9098C22.6304 27.9098 21.747 27.911 20.8635 27.9092C20.3376 27.908 20.0759 27.6462 20.0753 27.1246C20.0741 26.4585 20.0753 25.7919 20.0753 25.1258C20.0753 25.0468 20.0753 24.9671 20.0753 24.8857C19.7261 24.8857 19.4074 24.8857 19.0636 24.8857C19.0636 24.9785 19.0636 25.0587 19.0636 25.139C19.0636 25.8128 19.0672 26.4867 19.0618 27.1605C19.0582 27.6445 18.7929 27.9068 18.3065 27.9092C17.453 27.9128 16.5995 27.9134 15.746 27.9086C15.268 27.9062 15.0009 27.6313 15.0009 27.1485C14.9997 25.1797 14.9997 23.2104 15.0009 21.2416C15.0009 20.7457 15.2686 20.4743 15.7598 20.4731C16.5983 20.4707 17.4369 20.4713 18.2754 20.4725C18.8049 20.4731 19.0606 20.7265 19.063 21.256C19.066 21.922 19.0636 22.5886 19.0642 23.2547C19.0642 23.3343 19.0708 23.414 19.075 23.5051C19.4146 23.5051 19.7333 23.5051 20.0753 23.5051C20.0753 23.4122 20.0753 23.332 20.0753 23.2517C20.0753 22.5857 20.0795 21.919 20.0729 21.253C20.0705 20.9888 20.1597 20.7774 20.3478 20.5923C20.8863 20.0616 21.4163 19.5226 21.9554 18.9919C22.0578 18.8907 22.1075 18.7901 22.1069 18.6415C22.101 17.5262 22.1039 16.4104 22.1033 15.2951C22.1033 15.2227 22.0968 15.1502 22.0926 15.0669C21.7577 15.0669 21.4397 15.0669 21.1282 15.0669C21.1157 15.0933 21.1037 15.1059 21.1037 15.119C21.1007 15.5233 21.1007 15.927 21.0959 16.3313C21.0905 16.8111 20.824 17.0848 20.343 17.0878C19.4895 17.0932 18.636 17.0932 17.7825 17.0878C17.3027 17.0848 17.0332 16.8111 17.0308 16.3313C17.0272 15.5677 17.0296 14.804 17.0296 14.0403C17.0296 13.4941 17.0248 12.9472 17.0314 12.401C17.0362 11.9895 17.2985 11.6846 17.6782 11.6798C18.5988 11.6684 19.52 11.6696 20.4406 11.6792C20.8138 11.6834 21.0827 11.9787 21.0935 12.3722C21.1031 12.7388 21.0953 13.1059 21.0965 13.4725C21.0965 13.5444 21.1037 13.6163 21.1079 13.6881C21.4475 13.6881 21.7655 13.6881 22.1033 13.6881C22.1033 13.0688 22.1159 12.4639 22.0992 11.8595C22.0842 11.4438 22.2321 11.1503 22.6298 11ZM23.454 12.3572C23.454 12.4651 23.454 12.5531 23.454 12.6411C23.454 14.7519 23.451 16.8626 23.4576 18.9727C23.4582 19.2704 23.3648 19.5028 23.1509 19.7101C22.6143 20.2317 22.086 20.7618 21.5649 21.2997C21.4876 21.3793 21.4301 21.5159 21.4295 21.6267C21.4211 23.1912 21.4235 24.7551 21.4235 26.3196C21.4235 26.3914 21.4235 26.4633 21.4235 26.5352C23.4708 26.5352 25.4869 26.5352 27.5024 26.5352C27.5101 26.4957 27.5179 26.4741 27.5179 26.4525C27.5191 24.821 27.5209 23.1894 27.5143 21.5578C27.5137 21.4752 27.4562 21.3752 27.3951 21.3129C26.8764 20.784 26.3577 20.2545 25.8229 19.7412C25.5833 19.5112 25.4827 19.2578 25.4845 18.926C25.4935 16.8303 25.4893 14.7345 25.4887 12.6393C25.4887 12.5465 25.4803 12.4531 25.4755 12.3566C24.7963 12.3572 24.1458 12.3572 23.454 12.3572ZM17.6872 26.543C17.6872 24.9581 17.6872 23.4002 17.6872 21.8429C17.235 21.8429 16.7996 21.8429 16.3659 21.8429C16.3659 23.4194 16.3659 24.9779 16.3659 26.543C16.8127 26.543 17.2434 26.543 17.6872 26.543ZM32.5773 26.5424C32.5773 24.9665 32.5773 23.402 32.5773 21.8435C32.1239 21.8435 31.6873 21.8435 31.2572 21.8435C31.2572 23.4206 31.2572 24.9785 31.2572 26.5424C31.7052 26.5424 32.1359 26.5424 32.5773 26.5424ZM18.3964 13.0341C18.3964 13.9379 18.3964 14.8237 18.3964 15.7138C18.8468 15.7138 19.2829 15.7138 19.7201 15.7138C19.7201 14.8106 19.7201 13.9253 19.7201 13.0341C19.2757 13.0341 18.8504 13.0341 18.3964 13.0341ZM29.219 13.0395C29.219 13.9367 29.219 14.822 29.219 15.715C29.6688 15.715 30.1048 15.715 30.5439 15.715C30.5439 14.8124 30.5439 13.9265 30.5439 13.0395C30.0952 13.0395 29.6646 13.0395 29.219 13.0395Z" fill="#F9FAFA"/>
</g>
<defs>
<filter id="filter0_d_131_12243" x="0" y="0" width="48" height="48" filterUnits="userSpaceOnUse" color-interpolation-filters="sRGB">
<feFlood flood-opacity="0" result="BackgroundImageFix"/>
<feColorMatrix in="SourceAlpha" type="matrix" values="0 0 0 0 0 0 0 0 0 0 0 0 0 0 0 0 0 0 127 0" result="hardAlpha"/>
<feOffset dy="2"/>
<feGaussianBlur stdDeviation="2"/>
<feComposite in2="hardAlpha" operator="out"/>
<feColorMatrix type="matrix" values="0 0 0 0 0 0 0 0 0 0 0 0 0 0 0 0 0 0 0.1 0"/>
<feBlend mode="normal" in2="BackgroundImageFix" result="effect1_dropShadow_131_12243"/>
<feBlend mode="normal" in="SourceGraphic" in2="effect1_dropShadow_131_12243" result="shape"/>
</filter>
</defs>
</svg>
