<svg width="72" height="72" viewBox="0 0 72 72" fill="none" xmlns="http://www.w3.org/2000/svg">
<g filter="url(#filter0_d_324_4399)">
<circle cx="36" cy="34" r="32" fill="#FF9626"/>
<path d="M21.9132 51.6091C21.5282 51.4441 21.3999 51.1416 21.3999 50.7291C21.4091 46.705 21.3999 42.69 21.4091 38.6658C21.4182 36.1358 23.3066 34.2658 25.8274 34.2658C30.9332 34.2658 36.0482 34.2566 41.1541 34.2658C43.6657 34.2658 45.5541 36.1633 45.5632 38.6841C45.5632 38.8858 45.5632 39.0966 45.5632 39.2983C46.0491 39.4266 46.5349 39.5183 46.9932 39.6925C49.6974 40.7008 51.3199 43.35 50.9899 46.2008C50.6691 48.9508 48.4966 51.1508 45.6916 51.5541C45.6274 51.5633 45.5632 51.5908 45.4991 51.6091C37.6341 51.6091 29.7782 51.6091 21.9132 51.6091ZM36.4057 35.6408C36.4332 35.76 36.4516 35.815 36.4607 35.87C36.9832 37.8225 37.5057 39.7841 38.0466 41.7275C38.1749 42.1858 38.0741 42.5066 37.7074 42.8091C36.4882 43.8175 35.2874 44.8441 34.0774 45.8616C33.6099 46.2466 33.3441 46.2466 32.8766 45.8525C31.6574 44.8258 30.4474 43.7991 29.2191 42.7816C28.8799 42.5066 28.7974 42.2041 28.9074 41.7825C29.4391 39.8483 29.9524 37.9141 30.4657 35.9891C30.4932 35.8883 30.5116 35.7783 30.5299 35.6683C28.7791 35.6683 27.0741 35.6683 25.3691 35.6683C25.3049 35.6683 25.2316 35.6866 25.1674 35.6958C23.7191 35.9983 22.7841 37.1625 22.7749 38.7116C22.7657 42.4608 22.7749 46.2008 22.7749 49.95C22.7749 50.0416 22.7932 50.1241 22.7932 50.2158C28.8432 50.2158 34.8749 50.2158 40.8607 50.2158C40.4757 49.7483 40.0724 49.2991 39.7149 48.8133C39.5591 48.6025 39.4307 48.52 39.1649 48.52C35.4432 48.5291 31.7216 48.5291 27.9999 48.5291C27.8716 48.5291 27.7432 48.5383 27.6241 48.52C27.3124 48.4833 27.0741 48.2358 27.0374 47.9333C27.0007 47.5941 27.1657 47.31 27.4774 47.2091C27.6241 47.1633 27.7891 47.1541 27.9541 47.1541C31.4741 47.1541 34.9849 47.1541 38.5049 47.1541C38.6424 47.1541 38.7707 47.1541 38.9266 47.1541C38.4774 45.3025 38.7066 43.5883 39.7607 42.03C40.8149 40.4808 42.3091 39.61 44.1699 39.3441C44.1699 39.1516 44.1607 38.9958 44.1699 38.84C44.2616 37.0158 42.8224 35.5766 40.9982 35.65C39.7974 35.6958 38.5966 35.6591 37.3866 35.6591C37.0932 35.6408 36.7724 35.6408 36.4057 35.6408ZM40.0999 45.4766C40.1182 48.1258 42.2632 50.2525 44.9124 50.2341C47.5341 50.225 49.6607 48.0616 49.6516 45.44C49.6424 42.7908 47.4882 40.6641 44.8482 40.6825C42.2266 40.6916 40.0907 42.855 40.0999 45.4766ZM33.4816 44.56C34.5082 43.6891 35.5166 42.8458 36.5157 41.9933C36.5891 41.9291 36.6166 41.7641 36.5891 41.6725C36.0757 39.7383 35.5532 37.8041 35.0399 35.8791C34.9941 35.705 34.9116 35.6408 34.7282 35.6408C33.8941 35.65 33.0599 35.65 32.2166 35.6408C32.0424 35.6408 31.9599 35.6958 31.9141 35.87C31.4007 37.8133 30.8691 39.7566 30.3557 41.7C30.3282 41.7916 30.3832 41.9475 30.4474 42.0116C31.4557 42.8641 32.4549 43.6983 33.4816 44.56Z" fill="#FEFDFB"/>
<path d="M34.2238 16.4091C34.7463 16.5191 35.278 16.6016 35.7913 16.7483C39.238 17.7291 42.0063 21.13 41.6488 25.3283C41.3463 28.9308 38.6238 32.02 34.8838 32.68C29.5305 33.6333 24.7455 29.1325 25.3413 23.715C25.763 19.92 28.7055 16.9408 32.5188 16.4641C32.583 16.455 32.6472 16.4275 32.7113 16.4C33.2155 16.4091 33.7197 16.4091 34.2238 16.4091ZM40.3013 24.595C40.2922 20.8275 37.2305 17.775 33.4722 17.7841C29.7138 17.7933 26.6613 20.855 26.6613 24.6225C26.6705 28.3808 29.7322 31.4333 33.4997 31.4333C37.2672 31.415 40.3105 28.3533 40.3013 24.595Z" fill="#FEFDFB"/>
<path d="M25.7081 47.8417C25.699 48.2175 25.4056 48.5109 25.0298 48.5109C24.6631 48.5109 24.3515 48.1992 24.3423 47.8325C24.3423 47.4567 24.6723 47.1267 25.0481 47.145C25.424 47.1542 25.7173 47.4659 25.7081 47.8417Z" fill="#FEFDFB"/>
<path d="M44.1516 46.1458C43.6474 46.1458 43.1432 46.1641 42.6391 46.1366C42.0707 46.1091 41.7682 45.5775 42.0341 45.1191C42.1807 44.8625 42.4099 44.7708 42.6941 44.7708C43.1616 44.7708 43.6291 44.7616 44.1057 44.7616C44.1241 44.7616 44.1424 44.7433 44.1974 44.7158C44.1974 44.2666 44.1974 43.7991 44.1974 43.3316C44.1974 42.8275 44.4541 42.525 44.8849 42.5341C45.3157 42.5341 45.5632 42.8366 45.5724 43.3408C45.5724 43.79 45.5724 44.23 45.5816 44.6791C45.5816 44.6975 45.5999 44.7158 45.6274 44.78C46.1224 44.78 46.6357 44.7708 47.1491 44.78C47.4882 44.7891 47.7082 44.9633 47.7999 45.2933C47.8824 45.605 47.7816 45.88 47.5066 46.0266C47.3507 46.1183 47.1399 46.1366 46.9474 46.1458C46.5074 46.1641 46.0582 46.155 45.5816 46.155C45.5816 46.6591 45.5816 47.1266 45.5816 47.5941C45.5816 48.0983 45.3157 48.4008 44.8849 48.3916C44.4632 48.3916 44.2066 48.0891 44.2066 47.5758C44.2066 47.145 44.2066 46.705 44.1974 46.2741C44.1882 46.2466 44.1699 46.2283 44.1516 46.1458Z" fill="#FEFDFB"/>
</g>
<defs>
<filter id="filter0_d_324_4399" x="0" y="0" width="72" height="72" filterUnits="userSpaceOnUse" color-interpolation-filters="sRGB">
<feFlood flood-opacity="0" result="BackgroundImageFix"/>
<feColorMatrix in="SourceAlpha" type="matrix" values="0 0 0 0 0 0 0 0 0 0 0 0 0 0 0 0 0 0 127 0" result="hardAlpha"/>
<feOffset dy="2"/>
<feGaussianBlur stdDeviation="2"/>
<feComposite in2="hardAlpha" operator="out"/>
<feColorMatrix type="matrix" values="0 0 0 0 0 0 0 0 0 0 0 0 0 0 0 0 0 0 0.1 0"/>
<feBlend mode="normal" in2="BackgroundImageFix" result="effect1_dropShadow_324_4399"/>
<feBlend mode="normal" in="SourceGraphic" in2="effect1_dropShadow_324_4399" result="shape"/>
</filter>
</defs>
</svg>
