<svg width="48" height="48" viewBox="0 0 48 48" fill="none" xmlns="http://www.w3.org/2000/svg">
<g filter="url(#filter0_d_948_10512)">
<circle cx="24" cy="22" r="20" fill="#FF9626"/>
<g clip-path="url(#clip0_948_10512)">
<path d="M16.1369 29.8396C16.1369 29.6817 16.1369 29.5869 16.1369 29.4922C16.1369 24.1554 16.1369 18.8185 16.1369 13.5133C16.1369 13.4185 16.1369 13.3238 16.1369 13.229C16.1685 12.8817 16.4527 12.6606 16.8001 12.6922C17.0211 12.7238 17.2106 12.7554 17.4632 12.7869C17.4632 12.408 17.4632 12.029 17.4632 11.6817C17.4632 11.4922 17.4632 11.3027 17.4632 11.1133C17.4632 10.5764 17.8422 10.2606 18.3474 10.3238C18.8843 10.3869 19.4527 10.4501 19.9895 10.5133C21.6001 10.7027 23.2422 10.8922 24.8527 11.0817C25.4527 11.1448 26.0527 11.2396 26.6527 11.3027C27.1264 11.3659 27.379 11.6501 27.4106 12.1238C27.4106 12.6606 27.4106 13.1975 27.4106 13.7343C27.4106 13.9554 27.4737 14.0817 27.6948 14.0817C27.8843 14.0817 28.0737 14.1133 28.2632 14.1448C28.579 14.208 28.7369 14.3975 28.7685 14.7133C28.7685 14.7764 28.7685 14.8712 28.7685 14.9343C28.7685 18.6606 28.7685 22.3554 28.7685 26.0817C28.7685 26.1764 28.7685 26.2712 28.7685 26.3659C30.0001 26.0501 31.1053 26.2712 32.0843 27.0606C32.8422 27.6922 33.2527 28.5133 33.379 29.4922C33.6 31.3238 32.2737 33.0606 30.4106 33.3764C28.5158 33.7238 26.5579 32.4922 26.2106 30.2817C25.7369 30.2817 25.2316 30.2817 24.7579 30.2817C21.979 30.2817 19.2316 30.2817 16.4527 30.2817C15.9474 30.2817 15.4106 30.2817 14.9053 30.2501C14.7474 30.2501 14.5264 30.2817 14.5264 30.029C14.5264 29.7764 14.7158 29.7764 14.8737 29.7764C15.3158 29.8396 15.7264 29.8396 16.1369 29.8396ZM26.2106 29.808C26.2106 29.7448 26.2106 29.7133 26.2106 29.6817C26.3053 28.3238 26.9685 27.2817 28.2001 26.6185C28.2632 26.5869 28.3264 26.4606 28.3264 26.3659C28.3264 22.5448 28.3264 18.6922 28.3264 14.8712C28.3264 14.7133 28.2948 14.6185 28.1053 14.5869C26.6843 14.3975 25.2948 14.2396 23.8737 14.0501C22.2316 13.829 20.6211 13.608 18.979 13.4185C18.5685 13.3554 18.1579 13.3554 17.7474 13.2922C17.4316 13.2606 17.179 13.1975 16.8948 13.1659C16.6422 13.1027 16.6422 13.1343 16.6422 13.4185C16.6422 18.8185 16.6422 24.1869 16.6422 29.5869C16.6422 29.6817 16.6422 29.7448 16.6422 29.808C17.8106 29.808 18.9474 29.808 20.0843 29.808C20.0843 28.5764 20.0843 27.3764 20.0843 26.1764C20.0843 25.6712 20.2737 25.4501 20.779 25.4501C21.9158 25.4501 23.0527 25.4501 24.1579 25.4501C24.6632 25.4501 24.8527 25.6396 24.8527 26.1764C24.8527 27.3133 24.8527 28.4185 24.8527 29.5554C24.8527 29.6501 24.8527 29.7133 24.8527 29.808C25.3264 29.808 25.7685 29.808 26.2106 29.808ZM29.779 26.7448C27.8843 26.7764 26.5264 28.3869 26.6843 30.1554C26.8106 31.5764 28.0106 32.9975 29.8106 32.9659C31.5474 32.9659 32.9369 31.5133 32.9053 29.7764C32.9053 28.1027 31.4843 26.7133 29.779 26.7448ZM17.9685 12.8185C20.9685 13.1975 23.9369 13.608 26.9053 13.9869C26.9053 13.9554 26.9369 13.9554 26.9369 13.9238C26.9369 13.2922 26.9369 12.6922 26.9369 12.0606C26.9369 11.8712 26.8106 11.808 26.6527 11.7764C26.2737 11.7448 25.8632 11.6817 25.4843 11.6501C24.0001 11.4606 22.5158 11.3027 21.0316 11.1133C20.1474 11.0185 19.2316 10.8922 18.3474 10.7975C18.1579 10.7659 18.0001 10.8922 18.0001 11.0501C17.9685 11.6185 17.9685 12.2185 17.9685 12.8185ZM24.379 29.808C24.379 29.7448 24.379 29.6817 24.379 29.6185C24.379 28.4817 24.379 27.3133 24.379 26.1764C24.379 25.9554 24.3158 25.9238 24.1264 25.9238C23.0211 25.9238 21.8843 25.9238 20.779 25.9238C20.5895 25.9238 20.4948 25.9869 20.4948 26.1764C20.4948 27.3133 20.4948 28.4817 20.4948 29.6185C20.4948 29.6817 20.4948 29.7448 20.5264 29.808C21.8211 29.808 23.0843 29.808 24.379 29.808Z" fill="#FEFDFB" stroke="#FEFDFB" stroke-width="0.8"/>
<path d="M19.2631 18.1554C19.0737 18.1554 18.8842 18.1554 18.6947 18.1554C18.3474 18.1238 18.0947 17.8711 18.0947 17.5238C18.0947 17.208 18.0947 16.8922 18.0947 16.5764C18.0947 16.229 18.3158 15.9764 18.6947 15.9448C19.1053 15.9132 19.4842 15.9132 19.8947 15.9448C20.2421 15.9764 20.4631 16.1975 20.4947 16.5448C20.5263 16.8922 20.5263 17.208 20.4947 17.5554C20.4631 17.9027 20.2421 18.1238 19.8947 18.1554C19.6421 18.1869 19.4526 18.1554 19.2631 18.1554ZM19.2631 17.6817C19.421 17.6817 19.5789 17.6817 19.7368 17.6817C19.8947 17.6817 19.9579 17.6185 19.9579 17.4606C19.9579 17.208 19.9579 16.9238 19.9579 16.6711C19.9579 16.5132 19.8947 16.4501 19.7368 16.4501C19.421 16.4501 19.0737 16.4501 18.7579 16.4501C18.6 16.4501 18.5368 16.5132 18.5368 16.6711C18.5368 16.9238 18.5368 17.208 18.5368 17.4606C18.5368 17.6185 18.6 17.7132 18.7579 17.6817C18.9474 17.6817 19.1053 17.6817 19.2631 17.6817Z" fill="#FEFDFB" stroke="#FEFDFB" stroke-width="0.3"/>
<path d="M25.6738 18.1554C25.4843 18.1554 25.2633 18.1554 25.0738 18.1554C24.7264 18.1238 24.5054 17.8711 24.5054 17.5238C24.5054 17.208 24.5054 16.8922 24.5054 16.5764C24.5054 16.229 24.7264 15.9764 25.0738 15.9448C25.4843 15.9132 25.8633 15.9132 26.2738 15.9448C26.6212 15.9764 26.8422 16.1975 26.8422 16.5764C26.8422 16.8922 26.8422 17.208 26.8422 17.5238C26.8422 17.9027 26.5896 18.1238 26.2422 18.1554C26.0527 18.1869 25.8633 18.1554 25.6738 18.1554ZM25.6738 17.6817C25.8317 17.6817 25.9896 17.6817 26.1475 17.6817C26.3054 17.6817 26.4001 17.6185 26.4001 17.4606C26.4001 17.208 26.4001 16.9238 26.4001 16.6711C26.4001 16.5132 26.337 16.4501 26.1475 16.4501C25.8317 16.4501 25.5159 16.4501 25.1685 16.4501C25.0106 16.4501 24.9475 16.5132 24.9475 16.6711C24.9475 16.9554 24.9475 17.208 24.9475 17.4922C24.9475 17.6501 25.0106 17.7132 25.1685 17.7132C25.358 17.6817 25.5159 17.6817 25.6738 17.6817Z" fill="#FEFDFB" stroke="#FEFDFB" stroke-width="0.3"/>
<path d="M22.4527 15.9448C22.6422 15.9448 22.8316 15.9448 23.0211 15.9448C23.3685 15.9764 23.6211 16.1975 23.6211 16.5448C23.6211 16.8606 23.6211 17.208 23.6211 17.5238C23.6211 17.8711 23.3685 18.0922 23.0211 18.1238C22.6106 18.1554 22.2316 18.1554 21.8211 18.1238C21.5053 18.0922 21.2527 17.8711 21.2527 17.5554C21.2211 17.208 21.2211 16.8606 21.2527 16.5132C21.2843 16.1659 21.5053 15.9448 21.8527 15.9448C22.0737 15.9448 22.2632 15.9448 22.4527 15.9448ZM22.4527 17.6817C22.6106 17.6817 22.8001 17.6817 22.958 17.6817C23.1158 17.6817 23.179 17.6185 23.179 17.4606C23.179 17.1764 23.179 16.8922 23.179 16.608C23.179 16.5448 23.0527 16.4185 22.9895 16.4185C22.6422 16.3869 22.2948 16.3869 21.9474 16.4185C21.8843 16.4185 21.7895 16.5448 21.7895 16.608C21.758 16.8922 21.7895 17.1764 21.7895 17.4922C21.7895 17.6185 21.8527 17.6817 21.979 17.6817C22.1053 17.6817 22.2948 17.6817 22.4527 17.6817Z" fill="#FEFDFB" stroke="#FEFDFB" stroke-width="0.3"/>
<path d="M22.4525 19.1027C22.642 19.1027 22.863 19.1027 23.0525 19.1027C23.3999 19.1343 23.6209 19.3554 23.6525 19.7027C23.6525 20.0185 23.6525 20.3659 23.6525 20.6817C23.6525 21.0291 23.3999 21.2817 23.0841 21.2817C22.6736 21.3133 22.2946 21.3133 21.8841 21.2817C21.5367 21.2817 21.3157 21.0291 21.3157 20.7133C21.2841 20.3659 21.2841 20.0185 21.3157 19.6396C21.3473 19.3238 21.5683 19.1027 21.8841 19.0712C22.0736 19.0712 22.263 19.1027 22.4525 19.1027ZM22.4525 20.8396C22.6104 20.8396 22.7999 20.8396 22.9578 20.8396C23.0841 20.8396 23.1788 20.7764 23.1788 20.6501C23.1788 20.3659 23.1788 20.0817 23.1788 19.7659C23.1788 19.7027 23.0525 19.5764 22.9894 19.5764C22.642 19.5449 22.3262 19.5764 21.9788 19.5764C21.8209 19.5764 21.7578 19.6396 21.7578 19.7975C21.7578 20.0501 21.7578 20.3343 21.7578 20.587C21.7578 20.808 21.8525 20.8712 22.042 20.8712C22.1683 20.808 22.3262 20.8396 22.4525 20.8396Z" fill="#FEFDFB" stroke="#FEFDFB" stroke-width="0.3"/>
<path d="M22.4527 22.229C22.6422 22.229 22.8316 22.229 23.0211 22.229C23.3685 22.2606 23.6211 22.4816 23.6211 22.829C23.6211 23.1448 23.6211 23.4922 23.6211 23.808C23.6211 24.1553 23.3685 24.3764 23.0211 24.408C22.6106 24.4395 22.2316 24.4395 21.8211 24.408C21.4737 24.3764 21.2527 24.1553 21.2527 23.8395C21.2211 23.4922 21.2211 23.1448 21.2527 22.7974C21.2843 22.4501 21.5053 22.229 21.8527 22.229C22.0737 22.229 22.2632 22.229 22.4527 22.229ZM22.4843 22.7027C22.2948 22.7027 22.1369 22.7027 21.9474 22.7027C21.8211 22.7027 21.758 22.7658 21.758 22.8922C21.758 23.1764 21.758 23.4606 21.758 23.7764C21.758 23.9027 21.8211 23.9658 21.9474 23.9658C22.2948 23.9658 22.6106 23.9658 22.958 23.9658C23.1158 23.9658 23.179 23.9027 23.179 23.7448C23.179 23.4606 23.179 23.1764 23.179 22.8922C23.179 22.7658 23.1158 22.6711 22.958 22.6711C22.8001 22.7027 22.6422 22.7027 22.4843 22.7027Z" fill="#FEFDFB" stroke="#FEFDFB" stroke-width="0.3"/>
<path d="M19.263 19.1028C19.4525 19.1028 19.6419 19.1028 19.8314 19.1028C20.1788 19.1344 20.3998 19.3554 20.4314 19.7028C20.463 20.0501 20.463 20.3975 20.4314 20.7449C20.3998 21.0607 20.1788 21.3133 19.863 21.3133C19.4525 21.3449 19.0419 21.3449 18.6314 21.3133C18.284 21.2817 18.063 21.0291 18.063 20.7133C18.063 20.3975 18.063 20.0817 18.063 19.7344C18.063 19.387 18.3156 19.1344 18.663 19.1028C18.884 19.0712 19.0735 19.1028 19.263 19.1028ZM19.263 20.8396C19.4209 20.8396 19.6104 20.8396 19.7683 20.8396C19.9261 20.8396 19.9893 20.7765 19.9893 20.6186C19.9893 20.3344 19.9893 20.0817 19.9893 19.7975C19.9893 19.6396 19.9261 19.5765 19.7367 19.5765C19.4209 19.5765 19.1051 19.5765 18.7577 19.5765C18.5998 19.5765 18.5367 19.6396 18.5367 19.7975C18.5367 20.0817 18.5367 20.3344 18.5367 20.6186C18.5367 20.7765 18.5998 20.8396 18.7577 20.8396C18.9472 20.808 19.1051 20.8396 19.263 20.8396Z" fill="#FEFDFB" stroke="#FEFDFB" stroke-width="0.3"/>
<path d="M19.263 22.229C19.4525 22.229 19.6735 22.229 19.863 22.229C20.1788 22.2606 20.3998 22.4816 20.4314 22.7974C20.463 23.1448 20.463 23.4922 20.4314 23.8711C20.3998 24.1869 20.1788 24.408 19.863 24.4395C19.4525 24.4711 19.0419 24.4711 18.6314 24.4395C18.284 24.408 18.063 24.1553 18.063 23.8395C18.063 23.5237 18.063 23.208 18.063 22.8606C18.063 22.5132 18.3156 22.2606 18.663 22.2606C18.8525 22.229 19.0735 22.229 19.263 22.229ZM19.263 22.7027C19.1051 22.7027 18.9472 22.7027 18.7893 22.7027C18.6314 22.7027 18.5367 22.7658 18.5367 22.9237C18.5367 23.1764 18.5367 23.4606 18.5367 23.7132C18.5367 23.8711 18.5998 23.9343 18.7893 23.9343C19.1051 23.9343 19.4209 23.9343 19.7683 23.9343C19.9261 23.9343 19.9893 23.8711 19.9893 23.7132C19.9893 23.429 19.9893 23.1764 19.9893 22.8922C19.9893 22.7343 19.9261 22.6711 19.7683 22.6711C19.5788 22.7027 19.4209 22.7027 19.263 22.7027Z" fill="#FEFDFB" stroke="#FEFDFB" stroke-width="0.3"/>
<path d="M25.6736 19.1028C25.8631 19.1028 26.0526 19.1028 26.2421 19.1028C26.5894 19.1344 26.8421 19.3554 26.8421 19.7028C26.8421 20.0186 26.8421 20.3659 26.8421 20.6817C26.8421 20.9975 26.621 21.2501 26.2736 21.2817C25.8631 21.3133 25.4526 21.3133 25.0421 21.2817C24.7263 21.2501 24.5052 20.9975 24.4736 20.6817C24.4736 20.3659 24.4736 20.0186 24.4736 19.7028C24.4736 19.387 24.7263 19.1344 25.0421 19.1028C25.2631 19.0712 25.4526 19.1028 25.6736 19.1028ZM25.6421 20.8396C25.8315 20.8396 25.9894 20.8396 26.1789 20.8396C26.3052 20.8396 26.3999 20.7765 26.3999 20.6501C26.3999 20.3659 26.3999 20.0501 26.3999 19.7659C26.3999 19.7028 26.2736 19.608 26.2105 19.608C25.8631 19.5765 25.5157 19.5765 25.1684 19.608C25.1052 19.608 24.9789 19.7344 24.9789 19.7975C24.9473 20.0817 24.9789 20.3659 24.9789 20.6501C24.9789 20.808 25.0736 20.8712 25.1999 20.8712C25.3263 20.8396 25.4842 20.8396 25.6421 20.8396Z" fill="#FEFDFB" stroke="#FEFDFB" stroke-width="0.3"/>
<path d="M25.6738 22.229C25.8633 22.229 26.0843 22.229 26.2738 22.229C26.5896 22.2606 26.8422 22.4816 26.8422 22.829C26.8422 23.1764 26.8422 23.4922 26.8422 23.8395C26.8422 24.1553 26.6212 24.408 26.3054 24.408C25.8948 24.4395 25.4527 24.4395 25.0422 24.408C24.7264 24.3764 24.5054 24.1237 24.5054 23.808C24.5054 23.4922 24.5054 23.1764 24.5054 22.829C24.5054 22.4816 24.758 22.229 25.1054 22.229C25.2948 22.229 25.4843 22.229 25.6738 22.229ZM25.6422 23.9658C25.8001 23.9658 25.9896 23.9658 26.1475 23.9658C26.3054 23.9658 26.3685 23.9027 26.3685 23.7448C26.3685 23.4606 26.3685 23.208 26.3685 22.9237C26.3685 22.7658 26.3054 22.7027 26.1475 22.7027C25.9264 22.7027 25.7054 22.7027 25.5159 22.7027C24.9159 22.7027 24.9475 22.6395 24.9475 23.2711C24.9475 24.0922 24.8527 23.9658 25.6422 23.9658Z" fill="#FEFDFB" stroke="#FEFDFB" stroke-width="0.3"/>
<path d="M29.5895 29.5869C29.3053 29.5869 29.0526 29.5869 28.8 29.5869C28.6421 29.5869 28.4526 29.5869 28.4526 29.3659C28.4526 29.1132 28.6421 29.1132 28.8 29.1132C29.0526 29.1132 29.3053 29.1132 29.5895 29.1132C29.5895 28.8922 29.5895 28.6711 29.5895 28.4501C29.5895 28.2606 29.6211 28.1343 29.8421 28.1343C30.0316 28.1343 30.0632 28.2922 30.0632 28.4501C30.0632 28.6711 30.0632 28.8922 30.0632 29.1448C30.3474 29.1448 30.6 29.1448 30.8526 29.1448C31.0105 29.1448 31.2 29.1448 31.2 29.3659C31.2 29.5869 31.0421 29.6185 30.8526 29.6185C30.6 29.6185 30.3474 29.6185 30.0632 29.6185C30.0632 30.1553 30.0632 30.6922 30.0632 31.1974C30.0632 31.3869 30.0947 31.608 29.8421 31.6395C29.6842 31.6711 29.5895 31.5132 29.5895 31.1974C29.5895 30.6606 29.5895 30.1553 29.5895 29.5869Z" fill="#FEFDFB" stroke="#FEFDFB" stroke-width="0.8"/>
</g>
</g>
<defs>
<filter id="filter0_d_948_10512" x="0" y="0" width="48" height="48" filterUnits="userSpaceOnUse" color-interpolation-filters="sRGB">
<feFlood flood-opacity="0" result="BackgroundImageFix"/>
<feColorMatrix in="SourceAlpha" type="matrix" values="0 0 0 0 0 0 0 0 0 0 0 0 0 0 0 0 0 0 127 0" result="hardAlpha"/>
<feOffset dy="2"/>
<feGaussianBlur stdDeviation="2"/>
<feComposite in2="hardAlpha" operator="out"/>
<feColorMatrix type="matrix" values="0 0 0 0 0 0 0 0 0 0 0 0 0 0 0 0 0 0 0.25 0"/>
<feBlend mode="normal" in2="BackgroundImageFix" result="effect1_dropShadow_948_10512"/>
<feBlend mode="normal" in="SourceGraphic" in2="effect1_dropShadow_948_10512" result="shape"/>
</filter>
<clipPath id="clip0_948_10512">
<rect width="24" height="24" fill="white" transform="translate(12 10)"/>
</clipPath>
</defs>
</svg>
