<svg width="48" height="48" viewBox="0 0 48 48" fill="none" xmlns="http://www.w3.org/2000/svg">
<g filter="url(#filter0_d_260_16965)">
<circle cx="24" cy="22" r="20" fill="#FF9626"/>
<path d="M35.5085 28.7495C35.3637 28.9703 35.2557 29.2304 35.0668 29.3948C34.9098 29.5322 34.6546 29.6156 34.4411 29.623C33.6682 29.6499 32.8953 29.6352 32.1224 29.6328C32.093 29.6328 32.066 29.623 32.0243 29.6156C32.0243 29.3825 32.0243 29.1568 32.0243 28.8967C32.1077 28.8967 32.1887 28.8967 32.2721 28.8967C32.9444 28.8967 33.6191 28.8991 34.2914 28.8967C34.6546 28.8967 34.7748 28.7764 34.7748 28.4182C34.7748 24.5463 34.7748 20.6745 34.7748 16.8026C34.7748 16.4763 34.6546 16.3389 34.3454 16.3389C33.121 16.3364 31.8967 16.3364 30.6723 16.3389C30.6429 16.3389 30.6134 16.3462 30.5545 16.3511C30.5545 16.5744 30.5545 16.8002 30.5545 17.0234C30.2993 17.0234 30.0712 17.0234 29.816 17.0234C29.816 16.9253 29.816 16.8443 29.816 16.7634C29.816 15.4924 29.816 14.2238 29.816 12.9528C29.816 12.5774 29.6933 12.4523 29.3252 12.4523C25.6129 12.4498 21.9005 12.4498 18.1906 12.4498C17.8176 12.4498 17.6949 12.5725 17.6949 12.943C17.6949 17.5412 17.6949 22.1418 17.6949 26.7399C17.6949 27.1153 17.8127 27.2331 18.1881 27.2331C21.3631 27.2331 24.5406 27.2331 27.7156 27.2331C27.8064 27.2331 27.8948 27.2331 27.9954 27.2331C27.9954 27.4883 27.9954 27.7214 27.9954 27.9716C27.8948 27.9716 27.8113 27.9716 27.7279 27.9716C24.5603 27.9716 21.3926 27.9716 18.2225 27.9716C17.3833 27.9716 16.9588 27.5423 16.9588 26.6957C16.9588 23.3441 16.9588 19.9924 16.9588 16.6407C16.9588 16.5499 16.9588 16.4591 16.9588 16.3487C16.8705 16.3438 16.7993 16.334 16.7257 16.334C15.5701 16.334 14.4144 16.334 13.2587 16.334C12.8367 16.334 12.7336 16.4395 12.7336 16.8664C12.7336 20.7015 12.7336 24.5341 12.7336 28.3691C12.7336 28.7936 12.8367 28.8967 13.2612 28.8967C18.0605 28.8967 22.8574 28.8967 27.6568 28.8967C27.7549 28.8967 27.8531 28.8967 27.9708 28.8967C27.9708 29.1445 27.9708 29.3751 27.9708 29.6352C26.69 29.6352 25.4166 29.6352 24.1333 29.6352C24.1333 29.8904 24.1333 30.1161 24.1333 30.3689C24.2143 30.3713 24.2953 30.3787 24.3762 30.3787C25.2105 30.3787 26.0447 30.3787 26.879 30.3787C26.9624 30.3787 27.0483 30.3762 27.1317 30.391C27.3132 30.4228 27.4138 30.5455 27.4261 30.7246C27.4384 30.9038 27.3476 31.0387 27.1734 31.0878C27.0802 31.1148 26.9771 31.1172 26.879 31.1172C24.7983 31.1197 22.7151 31.1172 20.6344 31.1172C20.6123 31.1172 20.5878 31.1172 20.5657 31.1172C20.2615 31.1123 20.0848 30.9749 20.0848 30.7443C20.0848 30.5136 20.259 30.3787 20.5657 30.3787C21.4147 30.3762 22.2636 30.3787 23.115 30.3787C23.1985 30.3787 23.2794 30.3787 23.3751 30.3787C23.3751 30.1235 23.3751 29.8904 23.3751 29.6328C23.2672 29.6328 23.1715 29.6328 23.0733 29.6328C19.7903 29.6328 16.5074 29.6328 13.2244 29.6328C12.5791 29.6328 12.1472 29.3138 12.027 28.7519C12.0049 28.6513 12 28.5433 12 28.4354C12 24.5562 12 20.6769 12 16.7953C12 16.0469 12.449 15.5979 13.2023 15.5979C14.358 15.5954 15.5136 15.5979 16.6693 15.5979C16.7601 15.5979 16.8484 15.5979 16.9588 15.5979C16.9588 15.4875 16.9588 15.4065 16.9588 15.3231C16.9588 14.5035 16.9564 13.6865 16.9588 12.867C16.9613 12.1947 17.4275 11.7162 18.0949 11.7162C21.8686 11.7137 25.6399 11.7137 29.4136 11.7162C30.0712 11.7162 30.5447 12.1898 30.5496 12.8449C30.5545 13.6718 30.5521 14.4986 30.5521 15.3255C30.5521 15.4089 30.5521 15.4899 30.5521 15.6003C30.6625 15.6003 30.7533 15.6003 30.8416 15.6003C31.9433 15.6003 33.045 15.6003 34.1467 15.6003C34.949 15.6003 35.1993 15.7647 35.5085 16.4935C35.5085 20.5763 35.5085 24.6617 35.5085 28.7495Z" fill="#F9FAFA"/>
<path d="M30.3755 25.8764C30.3755 26.0433 30.3755 26.193 30.3755 26.3525C30.4736 26.3647 30.5644 26.3672 30.6527 26.3868C30.9987 26.458 31.2392 26.7254 31.2441 27.0763C31.2612 28.3694 31.2809 29.6624 31.2784 30.9555C31.276 31.6916 30.6871 32.2829 30.0001 32.2829C29.313 32.2829 28.7217 31.6916 28.7193 30.9555C28.7168 29.6624 28.7364 28.3694 28.7536 27.0763C28.7585 26.7009 29.0358 26.4212 29.4112 26.3696C29.4774 26.3598 29.5461 26.3574 29.6222 26.3525C29.6222 26.193 29.6222 26.0408 29.6222 25.8715C28.2874 25.6998 27.2348 25.0667 26.5306 23.9062C26.0104 23.0498 25.8387 22.1125 26.0227 21.1262C26.4104 19.0357 28.2064 17.6788 30.3755 17.8162C32.2942 17.9389 33.9259 19.6319 34.0363 21.6022C34.1467 23.6068 32.7531 25.5869 30.3755 25.8764ZM29.9878 25.1453C31.8059 25.1502 33.2978 23.6731 33.3051 21.8623C33.3125 20.0171 31.8354 18.5351 29.9902 18.5351C28.177 18.5351 26.6974 20.0171 26.695 21.8377C26.6901 23.6485 28.177 25.1403 29.9878 25.1453ZM29.5142 27.118C29.4995 27.1523 29.4897 27.1646 29.4897 27.1793C29.4774 28.4479 29.4578 29.7164 29.4553 30.985C29.4553 31.2794 29.7326 31.5395 29.9976 31.5419C30.2626 31.5444 30.5227 31.2867 30.5497 30.9899C30.5546 30.9432 30.5521 30.8991 30.5521 30.8525C30.5399 29.6747 30.53 28.4994 30.5178 27.3216C30.5178 27.2554 30.5055 27.1916 30.4982 27.1155C30.162 27.118 29.843 27.118 29.5142 27.118Z" fill="#F9FAFA"/>
<path d="M19.1626 24.2693C19.1626 23.9111 19.1577 23.5504 19.1626 23.1922C19.1675 22.7579 19.4546 22.4463 19.8889 22.4364C20.6225 22.4242 21.3562 22.4242 22.0898 22.4364C22.5388 22.4438 22.8284 22.753 22.8308 23.202C22.8382 23.9283 22.8382 24.6545 22.8308 25.3808C22.8259 25.8078 22.5168 26.1194 22.0898 26.1243C21.3635 26.1316 20.6373 26.1316 19.911 26.1243C19.4693 26.1194 19.1651 25.8078 19.1602 25.3661C19.1602 25.0054 19.1626 24.6374 19.1626 24.2693ZM19.911 23.1848C19.911 23.9307 19.911 24.6521 19.911 25.3784C20.6471 25.3784 21.3684 25.3784 22.0825 25.3784C22.0825 24.9465 22.0825 24.5343 22.0825 24.0853C21.8567 24.311 21.6604 24.5147 21.4592 24.711C21.2997 24.868 21.1231 24.8827 20.9415 24.7478C20.7648 24.6153 20.5857 24.4828 20.4164 24.338C20.2349 24.1834 20.2152 23.9773 20.3502 23.8105C20.4778 23.6535 20.6765 23.6314 20.863 23.7565C20.9611 23.8228 21.0544 23.8988 21.1501 23.97C21.1378 23.9454 21.1255 23.9234 21.1133 23.8988C21.3611 23.6584 21.6089 23.4179 21.8494 23.1848C21.2286 23.1848 20.5784 23.1848 19.911 23.1848Z" fill="#F9FAFA"/>
<path d="M20.9762 21.6902C20.6254 21.6902 20.272 21.6951 19.9212 21.6877C19.4623 21.6804 19.1654 21.3786 19.163 20.9173C19.1605 20.1984 19.1581 19.4795 19.163 18.7605C19.1654 18.3042 19.4722 18.0024 19.9285 17.9999C20.6401 17.9974 21.3492 17.995 22.0608 17.9999C22.5171 18.0024 22.8263 18.3017 22.8312 18.7605C22.8386 19.4868 22.8386 20.2131 22.8312 20.9394C22.8287 21.3712 22.5269 21.6706 22.0976 21.6877C22.0828 21.6877 22.0681 21.6877 22.0509 21.6877C21.6952 21.6902 21.3369 21.6902 20.9762 21.6902ZM19.9138 18.7483C19.9138 19.4942 19.9138 20.2156 19.9138 20.9345C20.6499 20.9345 21.3713 20.9345 22.0902 20.9345C22.0902 20.5075 22.0902 20.1002 22.0902 19.634C21.862 19.8671 21.6657 20.0659 21.4694 20.2646C21.3222 20.4143 21.148 20.4511 20.9738 20.3284C20.7726 20.1886 20.5787 20.0389 20.3947 19.8794C20.2377 19.7445 20.2254 19.5408 20.3407 19.3838C20.4585 19.2243 20.672 19.1899 20.8511 19.3077C20.9517 19.3739 21.0449 19.4525 21.0965 19.4917C21.3713 19.2365 21.6289 18.9961 21.8988 18.7434C21.2339 18.7483 20.5787 18.7483 19.9138 18.7483Z" fill="#F9FAFA"/>
<path d="M19.1623 15.4018C19.1623 15.0436 19.1574 14.6829 19.1623 14.3246C19.1672 13.883 19.4666 13.5689 19.9107 13.564C20.6296 13.5542 21.3485 13.5542 22.0675 13.564C22.5263 13.5689 22.8281 13.8756 22.833 14.332C22.8404 15.0583 22.8404 15.7846 22.833 16.5108C22.8305 16.9378 22.5263 17.2518 22.0945 17.2592C21.3608 17.2715 20.6272 17.2715 19.8935 17.2592C19.4666 17.2518 19.1697 16.9329 19.1623 16.5035C19.1599 16.1354 19.1623 15.7698 19.1623 15.4018ZM19.9033 16.5059C20.6468 16.5059 21.3682 16.5059 22.0822 16.5059C22.0822 16.0741 22.0822 15.6594 22.0822 15.1981C21.8515 15.4337 21.6577 15.6373 21.4565 15.8361C21.297 15.9931 21.1179 16.0029 20.9388 15.8704C20.7597 15.7379 20.583 15.6054 20.4137 15.4631C20.2419 15.3184 20.2174 15.1196 20.3352 14.9528C20.4603 14.781 20.6664 14.7516 20.8603 14.8841C20.9584 14.9503 21.0541 15.0239 21.0934 15.0534C21.3682 14.7908 21.6209 14.5528 21.8712 14.3148C21.221 14.3148 20.5634 14.3148 19.8984 14.3148C19.9033 15.0509 19.9033 15.7698 19.9033 16.5059Z" fill="#F9FAFA"/>
<path d="M25.9691 15.7819C26.6267 15.7819 27.2818 15.7819 27.9394 15.7819C28.1038 15.7819 28.2608 15.8334 28.3025 16.0003C28.332 16.1131 28.3246 16.2726 28.2608 16.3585C28.197 16.4468 28.0449 16.5155 27.932 16.5155C26.6193 16.5253 25.3042 16.5253 23.9914 16.5204C23.7363 16.5204 23.5792 16.3683 23.5743 16.1573C23.5694 15.9365 23.7314 15.7843 23.9988 15.7843C24.6564 15.777 25.3115 15.7819 25.9691 15.7819Z" fill="#F9FAFA"/>
<path d="M26.7755 25.3928C26.6627 25.3928 26.5817 25.3928 26.5007 25.3928C25.7057 25.3928 24.9108 25.3928 24.1158 25.3928C24.0471 25.3928 23.9784 25.3978 23.9097 25.3879C23.6987 25.3585 23.5588 25.1916 23.5711 24.9954C23.5858 24.804 23.7281 24.6617 23.9367 24.6592C24.631 24.6518 25.3279 24.6543 26.0223 24.6568C26.0713 24.6568 26.14 24.6666 26.1695 24.6985C26.3682 24.9144 26.5572 25.1401 26.7755 25.3928Z" fill="#F9FAFA"/>
<path d="M25.0495 15.0411C24.706 15.0411 24.3624 15.046 24.0189 15.0411C23.7343 15.0362 23.5675 14.8889 23.5724 14.6632C23.5773 14.4448 23.7417 14.3025 24.014 14.3001C24.7011 14.2952 25.3881 14.2952 26.0726 14.3001C26.3401 14.3025 26.5069 14.4522 26.5069 14.6706C26.5094 14.8914 26.3475 15.0362 26.0776 15.0411C25.7365 15.0435 25.393 15.0411 25.0495 15.0411Z" fill="#F9FAFA"/>
<path d="M26.285 18.7755C26.1378 19.0012 26.0078 19.2122 25.863 19.4159C25.836 19.4551 25.76 19.4723 25.706 19.4723C25.1245 19.4772 24.5429 19.4772 23.9614 19.4723C23.7283 19.4698 23.5737 19.3128 23.5762 19.1043C23.5762 18.9031 23.7234 18.7436 23.9418 18.7411C24.6828 18.7362 25.4263 18.7387 26.1697 18.7411C26.1992 18.7411 26.2335 18.7607 26.285 18.7755Z" fill="#F9FAFA"/>
<path d="M25.6869 23.9132C25.0907 23.9132 24.519 23.9206 23.9497 23.9108C23.7167 23.9059 23.5694 23.7366 23.5743 23.5304C23.5817 23.3268 23.7338 23.1796 23.9718 23.1771C24.4061 23.1698 24.8429 23.1698 25.2772 23.1796C25.3385 23.182 25.4268 23.2458 25.4538 23.3023C25.5373 23.4887 25.6011 23.685 25.6869 23.9132Z" fill="#F9FAFA"/>
<path d="M25.4856 20.213C25.4193 20.4633 25.3604 20.6964 25.2942 20.9442C24.8255 20.9442 24.3593 20.954 23.8956 20.9393C23.6919 20.9319 23.584 20.7847 23.5766 20.586C23.5668 20.3872 23.7189 20.2204 23.9373 20.2155C24.4452 20.2081 24.958 20.213 25.4856 20.213Z" fill="#F9FAFA"/>
</g>
<defs>
<filter id="filter0_d_260_16965" x="0" y="0" width="48" height="48" filterUnits="userSpaceOnUse" color-interpolation-filters="sRGB">
<feFlood flood-opacity="0" result="BackgroundImageFix"/>
<feColorMatrix in="SourceAlpha" type="matrix" values="0 0 0 0 0 0 0 0 0 0 0 0 0 0 0 0 0 0 127 0" result="hardAlpha"/>
<feOffset dy="2"/>
<feGaussianBlur stdDeviation="2"/>
<feComposite in2="hardAlpha" operator="out"/>
<feColorMatrix type="matrix" values="0 0 0 0 0 0 0 0 0 0 0 0 0 0 0 0 0 0 0.1 0"/>
<feBlend mode="normal" in2="BackgroundImageFix" result="effect1_dropShadow_260_16965"/>
<feBlend mode="normal" in="SourceGraphic" in2="effect1_dropShadow_260_16965" result="shape"/>
</filter>
</defs>
</svg>
