<svg width="48" height="48" viewBox="0 0 48 48" fill="none" xmlns="http://www.w3.org/2000/svg">
<g filter="url(#filter0_d_125_6855)">
<circle cx="24" cy="22" r="20" fill="#FF9626"/>
<path d="M25.5182 10C25.6635 10.1144 25.8187 10.2196 25.9535 10.3459C27.0779 11.4019 28.1958 12.4646 29.3215 13.5187C29.5234 13.7074 29.6076 13.9204 29.6069 14.1933C29.6023 16.3942 29.6043 18.5958 29.6043 20.7966C29.6043 20.8841 29.6043 20.9722 29.6043 21.0847C29.8884 21.0847 30.1488 21.0886 30.4085 21.084C30.9839 21.0735 31.4777 21.2701 31.8966 21.66C32.9329 22.6234 33.9692 23.5874 35.0029 24.5533C35.4383 24.9604 35.6875 25.4608 35.6888 26.0618C35.6908 27.1396 35.7033 28.218 35.6625 29.2944C35.6296 30.1703 34.8215 30.9633 33.9403 31.0232C33.5773 31.0475 33.3722 31.1336 33.1848 31.5084C32.2688 33.3431 29.8798 33.5147 28.6765 31.8596C28.5463 31.6807 28.4516 31.4716 28.3694 31.2645C28.3128 31.1211 28.2543 31.0574 28.0866 31.058C25.6004 31.0646 23.1147 31.0633 20.6285 31.0593C20.4891 31.0593 20.4194 31.0968 20.3668 31.2336C19.725 32.915 17.8608 33.5075 16.3687 32.502C15.9433 32.2153 15.629 31.8241 15.4527 31.3395C15.3804 31.1402 15.2982 31.056 15.0648 31.0534C14.0699 31.0422 13.3373 30.4767 13.0769 29.5495C13.0388 29.4141 13.0184 29.2694 13.0178 29.1287C13.0145 28.3541 12.9191 27.5716 13.2065 26.8187C13.6227 25.7284 14.6946 24.9472 15.8617 24.9216C16.6923 24.9032 17.5241 24.9143 18.3553 24.9157C18.6196 24.9157 18.8695 24.8598 19.0549 24.6664C19.6447 24.0516 20.2254 23.4276 20.8086 22.8081C20.5377 22.7404 20.2642 22.7148 20.0314 22.605C19.3745 22.2933 19.095 21.7343 19.095 21.0228C19.0944 18.2078 19.095 15.3927 19.095 12.5777C19.095 12.2634 19.0898 11.9484 19.0963 11.6341C19.1134 10.822 19.5935 10.2282 20.3806 10.0375C20.4161 10.0289 20.4509 10.0132 20.4858 10.0013C22.1639 10 23.8414 10 25.5182 10ZM24.7666 11.0469C24.6633 11.0469 24.5897 11.0469 24.5167 11.0469C23.2962 11.0469 22.0758 11.0462 20.856 11.0469C20.3477 11.0475 20.1511 11.2415 20.1504 11.7531C20.1491 14.8292 20.1491 17.906 20.1504 20.9821C20.1504 21.5193 20.3477 21.7139 20.8797 21.7139C23.1858 21.7139 25.4912 21.7139 27.7973 21.7139C28.3608 21.7139 28.5509 21.5252 28.5509 20.9604C28.5515 18.9469 28.5515 16.9334 28.5509 14.9199C28.5509 14.8417 28.5423 14.7634 28.5371 14.6727C28.4312 14.6727 28.3497 14.6727 28.2681 14.6727C27.4672 14.6727 26.6663 14.6766 25.8647 14.6707C25.3551 14.6668 24.9487 14.3709 24.8231 13.9073C24.781 13.7508 24.7705 13.5824 24.7692 13.4194C24.7633 12.6415 24.7666 11.8642 24.7666 11.0469ZM25.1269 25.9671C25.071 25.9612 25.0414 25.9559 25.0118 25.9559C22.0245 25.9553 19.0371 25.9454 16.0492 25.9605C14.8603 25.9665 14.0639 26.8049 14.058 27.9898C14.0567 28.3192 14.0561 28.6487 14.058 28.9781C14.0626 29.6225 14.4585 30.0072 15.0996 30.0085C15.2443 30.0085 15.2778 29.9461 15.3232 29.8257C15.4462 29.5002 15.5547 29.1576 15.7421 28.8696C16.7317 27.3434 19.0444 27.3388 20.0347 28.8624C20.2543 29.1997 20.3891 29.5916 20.5765 29.9868C22.0521 29.9868 23.5836 29.9868 25.1269 29.9868C25.1269 28.6428 25.1269 27.3138 25.1269 25.9671ZM34.6426 25.9776C31.8098 25.9776 29.0072 25.9776 26.2033 25.9776C26.2033 27.3237 26.2033 28.6533 26.2033 30.0033C26.8438 30.0033 27.4711 30.0072 28.0985 29.996C28.1524 29.9947 28.2379 29.8967 28.2523 29.831C28.3687 29.3036 28.6298 28.8637 29.0039 28.4784C29.8601 27.5972 31.3495 27.4756 32.3365 28.2061C32.8948 28.6191 33.2689 29.1504 33.4083 29.833C33.4379 29.9783 33.503 30.0079 33.6345 30.0066C34.2362 29.9993 34.6334 29.61 34.6413 29.009C34.6446 28.7848 34.6419 28.5599 34.6419 28.335C34.6426 27.5571 34.6426 26.7785 34.6426 25.9776ZM25.1243 22.7733C25.0815 22.7674 25.0519 22.7601 25.023 22.7601C24.1544 22.7595 23.2864 22.7555 22.4177 22.7654C22.3303 22.7661 22.2231 22.8312 22.1593 22.8989C21.6286 23.4578 21.1059 24.0246 20.5805 24.5895C20.4917 24.6848 20.4049 24.7822 20.2938 24.9045C21.9285 24.9045 23.5198 24.9045 25.1236 24.9045C25.1243 24.1904 25.1243 23.4835 25.1243 22.7733ZM16.3043 30.3728C16.3063 31.2395 17.0224 31.9576 17.8877 31.9609C18.7491 31.9641 19.4692 31.2481 19.4797 30.3781C19.4902 29.5114 18.7518 28.773 17.8818 28.7802C17.0132 28.7874 16.3023 29.5048 16.3043 30.3728ZM29.2479 30.3801C29.2551 31.2441 29.9831 31.9661 30.8418 31.9609C31.7019 31.9556 32.4272 31.2283 32.4292 30.3689C32.4312 29.5022 31.6848 28.7651 30.8201 28.7802C29.9495 28.7953 29.2407 29.5167 29.2479 30.3801ZM29.334 22.1341C29.3452 22.1861 29.3459 22.2091 29.3551 22.2282C29.7522 23.0817 30.1468 23.9372 30.5538 24.7861C30.5841 24.8492 30.6972 24.9078 30.7728 24.9084C31.7309 24.9163 32.689 24.9143 33.6477 24.913C33.6931 24.913 33.7384 24.9012 33.8114 24.8907C32.9007 24.0411 32.0209 23.2066 31.122 22.3939C30.972 22.2584 30.7425 22.165 30.5407 22.1453C30.1468 22.1065 29.7483 22.1341 29.334 22.1341ZM28.4411 22.7509C27.6724 22.7509 26.9425 22.7509 26.2053 22.7509C26.2053 23.4887 26.2053 24.1936 26.2053 24.8999C27.2844 24.8999 28.3483 24.8999 29.4373 24.8999C29.0947 24.1614 28.7626 23.4447 28.4411 22.7509ZM25.8331 13.6055C26.5223 13.6055 27.1858 13.6055 27.894 13.6055C27.1943 12.9492 26.5288 12.3258 25.8331 11.6742C25.8331 12.3534 25.8331 12.9729 25.8331 13.6055Z" fill="#F9FAFA"/>
<path d="M24.2562 18.7661C23.4329 18.7661 22.6103 18.7707 21.7871 18.7641C21.3596 18.7608 21.0979 18.4038 21.2531 18.0454C21.3537 17.8126 21.5477 17.7219 21.7943 17.7225C22.4374 17.7239 23.0812 17.7225 23.7243 17.7225C24.7343 17.7225 25.7443 17.7232 26.7543 17.7225C26.9917 17.7225 27.1818 17.81 27.2817 18.0316C27.3678 18.2229 27.3646 18.4393 27.2015 18.5695C27.068 18.676 26.872 18.7536 26.7024 18.7576C25.887 18.7766 25.0716 18.7661 24.2562 18.7661Z" fill="#F9FAFA"/>
<path d="M24.2841 20.7111C23.4759 20.7111 22.6678 20.7104 21.8596 20.7111C21.6347 20.7111 21.4269 20.6769 21.2948 20.4631C21.1093 20.1653 21.252 19.7872 21.5907 19.6944C21.6689 19.6727 21.7524 19.6616 21.8333 19.6616C23.4568 19.6596 25.081 19.6589 26.7046 19.6609C27.0748 19.6616 27.2997 19.8398 27.3247 20.1403C27.3483 20.4316 27.1649 20.6749 26.865 20.694C26.4922 20.7176 26.1174 20.7091 25.7439 20.7111C25.2573 20.713 24.7707 20.7111 24.2841 20.7111Z" fill="#F9FAFA"/>
<path d="M22.8217 15.8327C23.1584 15.8327 23.4951 15.8281 23.8311 15.834C24.1842 15.8399 24.4104 16.0477 24.4104 16.3548C24.4104 16.6619 24.1829 16.8723 23.8311 16.8749C23.1505 16.8795 22.4699 16.8795 21.7893 16.8749C21.4395 16.8723 21.2067 16.6573 21.2061 16.3541C21.2061 16.0517 21.4382 15.8393 21.7893 15.834C22.1339 15.8281 22.4778 15.8327 22.8217 15.8327Z" fill="#F9FAFA"/>
</g>
<defs>
<filter id="filter0_d_125_6855" x="0" y="0" width="48" height="48" filterUnits="userSpaceOnUse" color-interpolation-filters="sRGB">
<feFlood flood-opacity="0" result="BackgroundImageFix"/>
<feColorMatrix in="SourceAlpha" type="matrix" values="0 0 0 0 0 0 0 0 0 0 0 0 0 0 0 0 0 0 127 0" result="hardAlpha"/>
<feOffset dy="2"/>
<feGaussianBlur stdDeviation="2"/>
<feComposite in2="hardAlpha" operator="out"/>
<feColorMatrix type="matrix" values="0 0 0 0 0 0 0 0 0 0 0 0 0 0 0 0 0 0 0.1 0"/>
<feBlend mode="normal" in2="BackgroundImageFix" result="effect1_dropShadow_125_6855"/>
<feBlend mode="normal" in="SourceGraphic" in2="effect1_dropShadow_125_6855" result="shape"/>
</filter>
</defs>
</svg>
