<svg width="48" height="48" viewBox="0 0 48 48" fill="none" xmlns="http://www.w3.org/2000/svg">
<g filter="url(#filter0_d_1020_37538)">
<circle cx="24" cy="22" r="20" fill="#FF9626"/>
<g clip-path="url(#clip0_1020_37538)">
<path d="M29.2023 34.0002C28.8048 33.9238 28.4032 33.8657 28.011 33.7676C25.6671 33.1806 23.7494 31.059 23.4353 28.6594C23.0677 25.8533 24.1322 23.7035 26.5073 22.1976C27.0839 21.8316 27.728 21.6089 28.3991 21.475C28.4895 21.4567 28.5793 21.4344 28.6756 21.4121C28.6756 18.8163 28.6756 16.2305 28.6756 13.6495C28.1537 14.1759 27.627 14.7064 27.115 15.2229C26.6317 14.7382 26.2031 14.3087 25.798 13.9027C27.0651 12.6348 28.3586 11.3404 29.6356 10.0625C30.8927 11.3187 32.1839 12.6089 33.4592 13.8833C33.0464 14.2969 32.6137 14.73 32.1633 15.1812C31.6572 14.6724 31.1323 14.1442 30.5751 13.5831C30.5751 16.2153 30.5751 18.7969 30.5751 21.3903C30.8798 21.465 31.1957 21.5184 31.4946 21.6201C33.9583 22.4556 35.4414 24.1477 35.9117 26.7158C35.947 26.9068 35.9711 27.0995 35.9998 27.2916C35.9998 27.5261 35.9998 27.7605 35.9998 27.9955C35.9705 28.2023 35.9417 28.4092 35.9123 28.616C35.5647 31.0684 33.697 33.1647 31.3067 33.7717C30.9233 33.8692 30.5293 33.925 30.14 34.0002C29.8271 34.0002 29.5147 34.0002 29.2023 34.0002ZM29.6767 32.1236C32.1187 32.1171 34.1162 30.1166 34.1198 27.673C34.1233 25.2276 32.0976 23.2035 29.6574 23.2153C27.2119 23.2264 25.2179 25.2264 25.2173 27.6688C25.2173 30.1224 27.226 32.1295 29.6767 32.1236Z" fill="#F9FAFA"/>
<path d="M17.3414 34.0002C17.3414 33.1812 17.3414 32.3616 17.3414 31.5237C16.4847 31.5237 15.6439 31.5237 14.7843 31.5237C14.7843 30.8933 14.7843 30.2817 14.7843 29.6501C15.624 29.6501 16.4642 29.6501 17.3244 29.6501C17.3244 27.284 17.3244 24.9374 17.3244 22.5766C15.4355 22.2282 13.9564 21.2558 12.9395 19.6219C12.1656 18.378 11.8615 17.0073 12.0582 15.5578C12.4944 12.3363 15.0709 10.0278 18.2991 10.0002C21.3487 9.97438 23.944 12.1189 24.5282 15.1054C24.8734 16.8721 24.5223 18.5132 23.4795 19.9808C22.4379 21.4462 21 22.3005 19.2303 22.5919C19.2303 24.945 19.2303 27.2793 19.2303 29.633C20.0822 29.633 20.9225 29.633 21.7797 29.633C21.7797 30.264 21.7797 30.8763 21.7797 31.5067C20.936 31.5067 20.0952 31.5067 19.2174 31.5067C19.2174 32.3498 19.2174 33.1747 19.2174 33.9996C18.5915 34.0002 17.9667 34.0002 17.3414 34.0002ZM18.3249 11.8669C15.8847 11.8727 13.8836 13.8745 13.8766 16.3163C13.8696 18.7658 15.88 20.7764 18.3337 20.7734C20.7898 20.7705 22.7914 18.7593 22.7791 16.3069C22.7661 13.8622 20.7598 11.8616 18.3249 11.8669Z" fill="#F9FAFA"/>
</g>
</g>
<defs>
<filter id="filter0_d_1020_37538" x="0" y="0" width="48" height="48" filterUnits="userSpaceOnUse" color-interpolation-filters="sRGB">
<feFlood flood-opacity="0" result="BackgroundImageFix"/>
<feColorMatrix in="SourceAlpha" type="matrix" values="0 0 0 0 0 0 0 0 0 0 0 0 0 0 0 0 0 0 127 0" result="hardAlpha"/>
<feOffset dy="2"/>
<feGaussianBlur stdDeviation="2"/>
<feComposite in2="hardAlpha" operator="out"/>
<feColorMatrix type="matrix" values="0 0 0 0 0 0 0 0 0 0 0 0 0 0 0 0 0 0 0.1 0"/>
<feBlend mode="normal" in2="BackgroundImageFix" result="effect1_dropShadow_1020_37538"/>
<feBlend mode="normal" in="SourceGraphic" in2="effect1_dropShadow_1020_37538" result="shape"/>
</filter>
<clipPath id="clip0_1020_37538">
<rect width="24" height="24" fill="white" transform="translate(12 10)"/>
</clipPath>
</defs>
</svg>
