<svg width="48" height="48" viewBox="0 0 48 48" fill="none" xmlns="http://www.w3.org/2000/svg">
<g filter="url(#filter0_d_1082_37572)">
<circle cx="24" cy="22" r="20" fill="#FF9626"/>
<g clip-path="url(#clip0_1082_37572)">
<path d="M18.241 30.4055C17.714 30.4055 17.214 30.4539 16.73 30.3947C14.6921 30.1635 13.0467 28.3729 13.0252 26.335C12.9929 23.5765 12.9929 20.818 13.0252 18.0596C13.0467 15.8388 14.9663 13.9622 17.1978 13.9514C20.3757 13.9353 23.5536 13.946 26.7315 13.9514C26.9251 13.9514 27.0488 13.8869 27.1778 13.7471C28.6673 12.1339 30.4955 11.5478 32.6034 12.1608C34.6736 12.7685 35.9264 14.2257 36.2921 16.355C36.5771 18.0327 36.077 19.5221 34.9155 20.775C34.7972 20.9041 34.7488 21.0277 34.7542 21.1944C34.7596 22.8237 34.7596 24.4476 34.7596 26.0769C34.7542 28.5719 32.8776 30.4539 30.3826 30.4539C28.1834 30.4539 25.9895 30.4539 23.7902 30.4593C23.645 30.4593 23.4783 30.513 23.3601 30.5991C21.9082 31.696 20.4618 32.7983 19.0153 33.9006C18.8594 34.0189 18.7034 34.1319 18.4884 34.0297C18.2679 33.9275 18.2464 33.7339 18.2464 33.5242C18.2464 32.5994 18.2464 31.6799 18.241 30.755C18.241 30.669 18.241 30.5776 18.241 30.4055ZM33.9423 21.6031C31.7968 22.7538 29.7158 22.7538 27.85 21.216C25.7529 19.4845 25.4195 17.2476 26.4358 14.7634C26.3874 14.758 26.339 14.7526 26.2906 14.7526C23.2633 14.7526 20.2359 14.7419 17.2086 14.758C15.3642 14.7634 13.8264 16.3227 13.821 18.1779C13.8102 20.8503 13.8102 23.5281 13.821 26.2059C13.8264 27.803 14.9448 29.2225 16.5096 29.5344C17.1494 29.6634 17.827 29.6204 18.483 29.6419C18.9078 29.6581 19.0422 29.771 19.0422 30.1958C19.0476 30.9916 19.0476 31.7874 19.0476 32.5832C19.0476 32.6531 19.0583 32.723 19.0637 32.8145C19.1605 32.7446 19.225 32.6962 19.2949 32.6478C20.537 31.7068 21.7738 30.7604 23.0267 29.8248C23.1665 29.7172 23.3762 29.6473 23.5536 29.6473C25.8335 29.6366 28.1134 29.6419 30.3934 29.6366C32.4152 29.6366 33.9423 28.1041 33.9477 26.0876C33.9477 24.6681 33.9477 23.2539 33.9477 21.8343C33.9423 21.7698 33.9423 21.6999 33.9423 21.6031ZM26.6993 17.1562C26.6939 19.6028 28.6834 21.5924 31.1247 21.5924C33.5605 21.5924 35.5447 19.6136 35.5554 17.1831C35.5608 14.7365 33.582 12.7416 31.1408 12.7362C28.6942 12.7308 26.6993 14.715 26.6993 17.1562Z" fill="#F9FAFA" stroke="#F9FAFA" stroke-width="0.5"/>
<path d="M23.8064 25.6196C21.3813 25.6196 18.9616 25.6196 16.5365 25.6196C16.4451 25.6196 16.3483 25.6304 16.2622 25.6089C16.0472 25.5605 15.9235 25.4261 15.9342 25.2002C15.9396 24.9851 16.0687 24.8615 16.273 24.8238C16.3483 24.8077 16.4236 24.8185 16.4988 24.8185C21.3867 24.8185 26.2745 24.8185 31.1623 24.8185C31.2268 24.8185 31.2968 24.8131 31.3613 24.8238C31.5817 24.8507 31.7377 25.0174 31.7323 25.2271C31.7323 25.4368 31.5764 25.5981 31.3505 25.625C31.2752 25.6304 31.2 25.6304 31.1247 25.6304C28.6835 25.6196 26.2422 25.6196 23.8064 25.6196Z" fill="#F9FAFA"/>
<path d="M23.1021 21.5923C24.1398 21.5923 25.183 21.5923 26.2208 21.5923C26.5058 21.5923 26.6832 21.7375 26.694 21.9687C26.7101 22.2053 26.5327 22.3881 26.2692 22.3935C25.9519 22.3989 25.6293 22.3935 25.3121 22.3935C23.5322 22.3935 21.7578 22.3935 19.9779 22.3881C19.8489 22.3881 19.6768 22.3666 19.6069 22.2859C19.5155 22.1838 19.4617 22.001 19.4832 21.8665C19.5101 21.6729 19.6822 21.5869 19.8758 21.5869C20.5318 21.5869 21.1824 21.5869 21.8384 21.5869C22.2632 21.5923 22.6826 21.5923 23.1021 21.5923Z" fill="#F9FAFA"/>
<path d="M18.7249 19.1782C17.9721 19.1782 17.214 19.1782 16.4612 19.1782C16.1116 19.1782 15.9342 19.0437 15.9288 18.7802C15.9234 18.5168 16.1063 18.3716 16.445 18.3716C17.9775 18.3716 19.5154 18.3716 21.0479 18.3716C21.3651 18.3716 21.5533 18.5221 21.5587 18.7695C21.5641 19.0222 21.3705 19.1782 21.0371 19.1782C20.2628 19.1782 19.4939 19.1782 18.7249 19.1782Z" fill="#F9FAFA"/>
<path d="M17.2838 22.399C16.9826 22.399 16.6815 22.4044 16.3804 22.399C16.1008 22.3936 15.9341 22.243 15.9287 22.0011C15.9287 21.7591 16.0954 21.5978 16.3696 21.5978C16.9826 21.5924 17.5902 21.5924 18.2032 21.5978C18.4721 21.5978 18.6495 21.7699 18.6442 22.0064C18.6388 22.2323 18.4667 22.3936 18.2086 22.399C17.9021 22.4044 17.5902 22.399 17.2838 22.399Z" fill="#F9FAFA"/>
<path d="M23.6236 19.1778C23.3655 19.1778 23.1074 19.1778 22.8439 19.1778C22.5428 19.1724 22.3707 19.0272 22.3654 18.7853C22.36 18.5379 22.5374 18.3766 22.8278 18.3766C23.3547 18.3712 23.8817 18.3712 24.4087 18.3766C24.699 18.3766 24.8819 18.5379 24.8765 18.7853C24.8711 19.0272 24.6937 19.1778 24.3979 19.1832C24.1452 19.1832 23.8871 19.1778 23.6236 19.1778Z" fill="#F9FAFA"/>
<path d="M30.7215 17.5701C30.1354 17.5701 29.5708 17.5701 29.0115 17.5701C28.9255 17.5701 28.8448 17.5701 28.7588 17.5701C28.4846 17.5594 28.3071 17.4088 28.3071 17.1722C28.3071 16.9356 28.4792 16.769 28.7534 16.769C29.3073 16.7636 29.8611 16.769 30.415 16.769C30.5064 16.769 30.5978 16.769 30.7215 16.769C30.7215 16.5216 30.7215 16.2904 30.7215 16.0592C30.7215 15.6397 30.7161 15.2203 30.7215 14.8009C30.7268 14.5267 30.8882 14.3492 31.1248 14.3546C31.3613 14.3546 31.5227 14.5321 31.5227 14.8063C31.528 15.3601 31.5227 15.914 31.5227 16.4678C31.5227 16.5592 31.5227 16.6507 31.5227 16.769C32.0496 16.769 32.5605 16.769 33.0659 16.769C33.2003 16.769 33.3348 16.769 33.4692 16.769C33.7596 16.7743 33.9424 16.9356 33.937 17.1776C33.9316 17.4142 33.7542 17.5701 33.4746 17.5701C32.9153 17.5755 32.3507 17.5701 31.7915 17.5701C31.7109 17.5701 31.6302 17.5701 31.5227 17.5701C31.5227 18.1616 31.5227 18.7316 31.5227 19.2962C31.5227 19.3876 31.528 19.479 31.5227 19.5704C31.5065 19.8124 31.3506 19.9737 31.1301 19.9791C30.9043 19.9845 30.7268 19.8178 30.7215 19.5651C30.7161 18.9682 30.7161 18.3767 30.7161 17.7799C30.7215 17.7207 30.7215 17.6616 30.7215 17.5701Z" fill="#F9FAFA" stroke="#F9FAFA" stroke-width="0.3"/>
</g>
</g>
<defs>
<filter id="filter0_d_1082_37572" x="0" y="0" width="48" height="48" filterUnits="userSpaceOnUse" color-interpolation-filters="sRGB">
<feFlood flood-opacity="0" result="BackgroundImageFix"/>
<feColorMatrix in="SourceAlpha" type="matrix" values="0 0 0 0 0 0 0 0 0 0 0 0 0 0 0 0 0 0 127 0" result="hardAlpha"/>
<feOffset dy="2"/>
<feGaussianBlur stdDeviation="2"/>
<feComposite in2="hardAlpha" operator="out"/>
<feColorMatrix type="matrix" values="0 0 0 0 0 0 0 0 0 0 0 0 0 0 0 0 0 0 0.1 0"/>
<feBlend mode="normal" in2="BackgroundImageFix" result="effect1_dropShadow_1082_37572"/>
<feBlend mode="normal" in="SourceGraphic" in2="effect1_dropShadow_1082_37572" result="shape"/>
</filter>
<clipPath id="clip0_1082_37572">
<rect width="25" height="24" fill="white" transform="translate(12 11)"/>
</clipPath>
</defs>
</svg>
