<svg width="48" height="48" viewBox="0 0 48 48" fill="none" xmlns="http://www.w3.org/2000/svg">
<g filter="url(#filter0_d_359_5576)">
<circle cx="24" cy="22" r="20" fill="#FF9626"/>
<path d="M20.8783 32.5149C19.9083 32.5149 18.9383 32.5149 17.9733 32.5149C16.8033 32.5149 16.0033 31.7149 16.0033 30.5399C16.0033 28.9399 15.9933 27.3349 16.0083 25.7349C16.0133 25.0799 15.8483 24.4899 15.4733 23.9499C15.3133 23.7199 15.1633 23.4799 15.0133 23.2449C14.6783 22.7099 14.5083 22.1199 14.5083 21.4899C14.4983 20.1599 14.4983 18.8399 14.5033 17.5199C14.5083 16.5499 15.1733 15.7899 16.1333 15.6449C16.2033 15.6349 16.2733 15.6299 16.3433 15.6299C16.5783 15.6349 16.7433 15.7849 16.7483 15.9949C16.7533 16.1999 16.6083 16.3499 16.3833 16.3749C15.6133 16.4649 15.2533 16.8749 15.2533 17.6499C15.2533 18.8749 15.2583 20.1049 15.2483 21.3299C15.2433 21.9449 15.3983 22.4999 15.7483 23.0099C15.8883 23.2149 16.0233 23.4299 16.1583 23.6349C16.5633 24.2449 16.7583 24.9149 16.7533 25.6449C16.7483 27.2699 16.7533 28.8949 16.7533 30.5249C16.7533 31.3049 17.2133 31.7599 17.9933 31.7599C19.9133 31.7599 21.8383 31.7599 23.7583 31.7599C24.5533 31.7599 25.0033 31.3049 25.0033 30.5049C25.0033 28.9749 25.0233 27.4399 24.9983 25.9099C24.9833 24.9749 25.1983 24.1349 25.7583 23.3799C25.8833 23.2099 25.9933 23.0299 26.1033 22.8499C26.3733 22.4249 26.5083 21.9549 26.5083 21.4499C26.5083 20.6699 26.5083 19.8849 26.5083 19.1049C26.5083 18.8049 26.6433 18.6349 26.8733 18.6299C27.1133 18.6249 27.2583 18.7999 27.2583 19.1099C27.2583 19.8899 27.2583 20.6749 27.2583 21.4549C27.2583 22.1199 27.0783 22.7349 26.7233 23.2949C26.5533 23.5649 26.3733 23.8299 26.1983 24.0999C25.8983 24.5599 25.7583 25.0599 25.7583 25.6049C25.7583 27.2399 25.7583 28.8699 25.7583 30.5049C25.7583 31.7099 24.9683 32.5049 23.7633 32.5049C22.7983 32.5149 21.8383 32.5149 20.8783 32.5149Z" fill="#FEFDFB"/>
<path d="M24.2629 16.38C24.2629 16.765 24.2629 17.125 24.2629 17.505C24.3929 17.505 24.5179 17.5 24.6379 17.505C24.8579 17.52 25.0079 17.685 25.0029 17.89C24.9979 18.085 24.8529 18.235 24.6429 18.25C24.5829 18.255 24.5179 18.25 24.4579 18.25C22.0729 18.25 19.6929 18.25 17.3079 18.25C17.2629 18.25 17.2129 18.25 17.1679 18.25C16.9129 18.24 16.7529 18.09 16.7579 17.865C16.7629 17.655 16.9179 17.51 17.1629 17.5C17.2679 17.495 17.3779 17.5 17.5079 17.5C17.5079 17.395 17.5079 17.31 17.5079 17.225C17.5079 15.975 17.5079 14.725 17.5079 13.475C17.5029 12.295 18.2979 11.5 19.4879 11.5C21.1679 11.5 22.8479 11.5 24.5279 11.5C25.2929 11.5 25.7529 11.96 25.7529 12.725C25.7529 12.92 25.7529 13.115 25.7529 13.31C25.7529 14.605 25.8629 14.505 24.5729 14.5C24.4729 14.5 24.3729 14.5 24.2629 14.5C24.2629 14.88 24.2629 15.235 24.2629 15.625C24.6379 15.625 25.0179 15.615 25.3979 15.625C26.0429 15.64 26.5529 15.915 26.9229 16.445C27.1329 16.745 27.2429 17.085 27.2479 17.455C27.2529 17.695 27.1029 17.86 26.8929 17.87C26.6829 17.88 26.5229 17.725 26.4979 17.49C26.4229 16.76 25.9929 16.37 25.2579 16.37C24.9379 16.38 24.6129 16.38 24.2629 16.38ZM23.5229 17.495C23.5229 15.735 23.5229 14.005 23.5229 12.255C23.4679 12.255 23.3979 12.255 23.3279 12.255C22.0379 12.255 20.7479 12.255 19.4579 12.255C18.7129 12.255 18.2479 12.725 18.2479 13.475C18.2479 14.74 18.2479 16.005 18.2479 17.275C18.2479 17.35 18.2529 17.425 18.2579 17.5C20.0179 17.495 21.7479 17.495 23.5229 17.495ZM25.0029 13.74C25.0029 13.38 25.0029 13.045 25.0029 12.71C25.0029 12.68 25.0029 12.65 25.0029 12.615C24.9829 12.405 24.8429 12.255 24.6479 12.25C24.4429 12.245 24.2829 12.355 24.2679 12.555C24.2429 12.945 24.2629 13.34 24.2629 13.74C24.5179 13.74 24.7479 13.74 25.0029 13.74Z" fill="#FEFDFB"/>
<path d="M32.5081 28.3851C32.5081 29.6001 32.5081 30.7801 32.5081 31.9601C32.5081 32.4101 32.4031 32.5151 31.9581 32.5151C31.0581 32.5151 30.1631 32.5151 29.2631 32.5151C28.8781 32.5151 28.7581 32.3951 28.7581 32.0151C28.7581 30.9001 28.7581 29.7801 28.7581 28.6651C28.7581 28.5801 28.7581 28.4951 28.7581 28.3901C28.4031 28.3901 28.0681 28.3851 27.7381 28.3901C27.5531 28.3951 27.3981 28.3501 27.3081 28.1751C27.2231 28.0051 27.2831 27.8601 27.3831 27.7201C28.3531 26.3901 29.3181 25.0551 30.2931 23.7251C30.5031 23.4351 30.7681 23.4351 30.9781 23.7251C31.9531 25.0601 32.9281 26.4001 33.8931 27.7451C33.9681 27.8501 33.9881 28.0401 33.9581 28.1751C33.9131 28.3501 33.7381 28.3951 33.5631 28.3951C33.2131 28.3851 32.8731 28.3851 32.5081 28.3851ZM32.8831 27.6351C32.1131 26.5701 31.3781 25.5551 30.6331 24.5201C29.8781 25.5651 29.1431 26.5801 28.3831 27.6351C28.5131 27.6351 28.5981 27.6351 28.6831 27.6351C29.5081 27.6351 29.5081 27.6351 29.5081 28.4751C29.5081 29.4851 29.5081 30.4901 29.5081 31.5001C29.5081 31.5851 29.5081 31.6651 29.5081 31.7501C30.2731 31.7501 31.0081 31.7501 31.7581 31.7501C31.7581 31.6501 31.7581 31.5651 31.7581 31.4801C31.7581 30.3701 31.7581 29.2601 31.7581 28.1501C31.7581 27.7551 31.8781 27.6401 32.2781 27.6401C32.4631 27.6351 32.6481 27.6351 32.8831 27.6351Z" fill="#FEFDFB"/>
<path d="M20.873 22.0049C19.663 22.0049 18.453 22.0049 17.238 22.0049C16.458 22.0049 15.998 21.5499 15.998 20.7699C15.998 20.5749 15.998 20.3799 15.998 20.1849C16.003 19.4849 16.478 19.0049 17.173 19.0049C19.218 19.0049 21.268 19.0049 23.313 19.0049C23.743 19.0049 24.173 18.9999 24.603 19.0049C25.263 19.0099 25.738 19.4899 25.748 20.1449C25.753 20.3799 25.753 20.6149 25.748 20.8499C25.738 21.5199 25.263 22.0049 24.593 22.0049C23.358 22.0099 22.118 22.0049 20.873 22.0049ZM20.903 19.7549C19.678 19.7549 18.448 19.7549 17.223 19.7549C16.888 19.7549 16.758 19.8849 16.753 20.2249C16.753 20.3949 16.753 20.5699 16.753 20.7399C16.753 21.1399 16.868 21.2549 17.268 21.2549C18.798 21.2549 20.333 21.2549 21.863 21.2549C22.763 21.2549 23.658 21.2549 24.558 21.2549C24.863 21.2549 24.998 21.1149 25.003 20.8099C25.008 20.6299 25.003 20.4499 25.003 20.2699C25.003 19.8699 24.888 19.7549 24.488 19.7549C23.293 19.7549 22.098 19.7549 20.903 19.7549Z" fill="#FEFDFB"/>
<path d="M32.3285 16.1301C32.6535 16.4501 32.9685 16.7601 33.2835 17.0751C33.5785 17.3701 33.5785 17.5201 33.2735 17.8201C32.9835 18.1151 32.6885 18.4101 32.3935 18.7001C32.1485 18.9401 31.9685 18.9451 31.7285 18.7051C31.4035 18.3801 31.0835 18.0501 30.7035 17.6651C30.5435 17.8501 30.4035 18.0201 30.2635 18.1801C30.1485 18.3101 29.9885 18.4151 29.8335 18.3151C29.7135 18.2401 29.5885 18.0851 29.5635 17.9451C29.3885 16.9751 29.2385 16.0051 29.0835 15.0351C29.0785 14.9901 29.0735 14.9401 29.0685 14.8951C29.0335 14.5601 29.2285 14.3801 29.5635 14.4351C30.5585 14.6001 31.5485 14.7651 32.5435 14.9301C32.7285 14.9601 32.9035 15.0101 32.9635 15.2151C33.0235 15.4151 32.9185 15.5551 32.7785 15.6851C32.6335 15.8151 32.4935 15.9651 32.3285 16.1301ZM30.1935 17.1601C30.2535 17.1201 30.2835 17.1051 30.2985 17.0851C30.6385 16.6851 30.8485 16.7151 31.2135 17.1101C31.4885 17.4051 31.7835 17.6751 32.0485 17.9401C32.2435 17.7601 32.4185 17.5951 32.6085 17.4251C32.4335 17.2551 32.2685 17.1001 32.1085 16.9401C31.9435 16.7751 31.7785 16.6101 31.6135 16.4451C31.3785 16.2051 31.3785 16.0251 31.6185 15.7851C31.6785 15.7251 31.7635 15.6951 31.8385 15.6501C31.8185 15.6201 31.7985 15.5901 31.7785 15.5601C31.1535 15.4601 30.5285 15.3551 29.8785 15.2501C29.9885 15.8951 30.0835 16.5101 30.1935 17.1601Z" fill="#FEFDFB"/>
<path d="M22.0038 23.9001C22.0038 24.1251 22.0088 24.3551 22.0038 24.5801C21.9987 24.8601 21.8637 25.0051 21.5888 25.0101C21.1137 25.0151 20.6337 25.0151 20.1587 25.0101C19.8987 25.0051 19.7588 24.8601 19.7537 24.5951C19.7488 24.1201 19.7488 23.6401 19.7537 23.1651C19.7588 22.9051 19.8987 22.7651 20.1687 22.7601C20.6437 22.7551 21.1237 22.7551 21.5987 22.7601C21.8587 22.7651 21.9987 22.9101 22.0038 23.1751C22.0088 23.4151 22.0038 23.6551 22.0038 23.9001ZM21.2437 23.5201C20.9937 23.5201 20.7587 23.5201 20.5187 23.5201C20.5187 23.7701 20.5187 24.0051 20.5187 24.2401C20.7737 24.2401 21.0087 24.2401 21.2437 24.2401C21.2437 23.9901 21.2437 23.7601 21.2437 23.5201Z" fill="#FEFDFB"/>
<path d="M23.4979 22.76C24.1179 22.76 24.6279 23.265 24.6279 23.89C24.6279 24.5 24.1179 25.01 23.5079 25.005C22.8829 25.005 22.3779 24.495 22.3779 23.875C22.3829 23.265 22.8879 22.76 23.4979 22.76ZM23.8779 23.88C23.8779 23.68 23.7079 23.51 23.5079 23.51C23.3079 23.51 23.1379 23.675 23.1329 23.875C23.1279 24.085 23.3079 24.265 23.5179 24.255C23.7129 24.25 23.8779 24.08 23.8779 23.88Z" fill="#FEFDFB"/>
<path d="M19.3778 23.89C19.3778 24.5 18.8678 25.01 18.2628 25.01C17.6378 25.01 17.1278 24.505 17.1328 23.88C17.1328 23.27 17.6378 22.765 18.2478 22.76C18.8678 22.755 19.3728 23.265 19.3778 23.89ZM18.6228 23.875C18.6178 23.675 18.4478 23.51 18.2478 23.51C18.0478 23.51 17.8778 23.68 17.8778 23.88C17.8778 24.09 18.0578 24.265 18.2678 24.255C18.4678 24.245 18.6278 24.075 18.6228 23.875Z" fill="#FEFDFB"/>
<path d="M23.4931 31.01C23.3681 31.01 23.2431 31.015 23.1181 31.01C22.8981 30.995 22.7481 30.8349 22.7531 30.6299C22.7581 30.4349 22.9031 30.275 23.1131 30.27C23.3681 30.26 23.6281 30.26 23.8881 30.27C24.1081 30.28 24.2581 30.445 24.2531 30.65C24.2481 30.845 24.1031 30.995 23.8931 31.015C23.8781 31.015 23.8631 31.015 23.8481 31.015C23.7281 31.01 23.6131 31.01 23.4931 31.01Z" fill="#FEFDFB"/>
<path d="M18.2529 26.5051C18.1179 26.5051 17.9879 26.5151 17.8529 26.5051C17.6429 26.4901 17.5029 26.3301 17.5029 26.1351C17.5029 25.9401 17.6429 25.7751 17.8529 25.7651C18.1179 25.7501 18.3829 25.7551 18.6479 25.7651C18.8579 25.7751 18.9979 25.9351 18.9979 26.1351C18.9979 26.3301 18.8579 26.4901 18.6479 26.5051C18.5179 26.5151 18.3829 26.5051 18.2529 26.5051Z" fill="#FEFDFB"/>
<path d="M20.8979 25.7601C21.0229 25.7601 21.1479 25.7501 21.2729 25.7601C21.4829 25.7751 21.6229 25.9351 21.6229 26.1301C21.6229 26.3251 21.4829 26.4901 21.2729 26.5001C21.0079 26.5151 20.7429 26.5151 20.4779 26.5001C20.2679 26.4901 20.1279 26.3251 20.1279 26.1301C20.1279 25.9351 20.2679 25.7751 20.4779 25.7601C20.6179 25.7501 20.7579 25.7601 20.8979 25.7601Z" fill="#FEFDFB"/>
<path d="M23.4829 26.5051C23.3579 26.5051 23.2329 26.5151 23.1079 26.5051C22.8979 26.4901 22.7579 26.3301 22.7529 26.1351C22.7529 25.9401 22.8929 25.7751 23.0979 25.7651C23.3629 25.7501 23.6279 25.7551 23.8929 25.7651C24.1029 25.7751 24.2429 25.9351 24.2479 26.1301C24.2479 26.3251 24.1079 26.4851 23.9029 26.5051C23.7629 26.5151 23.6229 26.5051 23.4829 26.5051Z" fill="#FEFDFB"/>
<path d="M18.2529 28.01C18.1179 28.01 17.9879 28.02 17.8529 28.01C17.6429 27.995 17.5029 27.835 17.5029 27.64C17.5029 27.445 17.6429 27.28 17.8529 27.27C18.1179 27.255 18.3829 27.26 18.6479 27.27C18.8579 27.275 18.9979 27.44 18.9979 27.635C18.9979 27.83 18.8579 27.99 18.6479 28.005C18.5179 28.015 18.3829 28.01 18.2529 28.01Z" fill="#FEFDFB"/>
<path d="M20.8631 28.0101C20.7381 28.0101 20.6131 28.0201 20.4881 28.0101C20.2781 27.9951 20.1331 27.8401 20.1281 27.6451C20.1231 27.4401 20.2731 27.2751 20.4931 27.2651C20.7481 27.2551 21.0081 27.2551 21.2681 27.2651C21.4781 27.2751 21.6231 27.4301 21.6281 27.6251C21.6331 27.8301 21.4831 27.9901 21.2631 28.0051C21.1281 28.0151 20.9931 28.0101 20.8631 28.0101Z" fill="#FEFDFB"/>
<path d="M23.4881 28.0101C23.3631 28.0101 23.2381 28.0201 23.1131 28.0101C22.9031 27.9951 22.7581 27.8401 22.7531 27.6451C22.7481 27.4401 22.8981 27.2751 23.1181 27.2651C23.3731 27.2551 23.6331 27.2551 23.8931 27.2651C24.1031 27.2751 24.2481 27.4301 24.2531 27.6251C24.2581 27.8301 24.1081 27.9901 23.8881 28.0051C23.7531 28.0151 23.6231 28.0101 23.4881 28.0101Z" fill="#FEFDFB"/>
<path d="M18.2529 29.51C18.1179 29.51 17.9879 29.52 17.8529 29.51C17.6479 29.495 17.5029 29.335 17.5029 29.14C17.5029 28.945 17.6429 28.78 17.8529 28.77C18.1179 28.76 18.3829 28.76 18.6479 28.77C18.8579 28.775 18.9979 28.94 18.9979 29.135C18.9979 29.33 18.8529 29.4899 18.6479 29.5049C18.5179 29.5199 18.3829 29.51 18.2529 29.51Z" fill="#FEFDFB"/>
<path d="M20.8729 29.5101C20.7479 29.5101 20.6229 29.5151 20.4979 29.5101C20.2779 29.4951 20.1279 29.3351 20.1279 29.1301C20.1329 28.9351 20.2729 28.7751 20.4829 28.7651C20.7479 28.7551 21.0129 28.7551 21.2779 28.7651C21.4829 28.7751 21.6279 28.9451 21.6229 29.1401C21.6179 29.3351 21.4779 29.4901 21.2679 29.5051C21.1379 29.5151 21.0029 29.5101 20.8729 29.5101Z" fill="#FEFDFB"/>
<path d="M23.5029 29.51C23.3679 29.51 23.2379 29.52 23.1029 29.51C22.8979 29.49 22.7529 29.335 22.7529 29.14C22.7529 28.945 22.8979 28.78 23.1029 28.77C23.3679 28.76 23.6329 28.76 23.8979 28.77C24.1029 28.78 24.2479 28.945 24.2479 29.14C24.2479 29.335 24.1029 29.495 23.8979 29.51C23.7679 29.52 23.6329 29.51 23.5029 29.51Z" fill="#FEFDFB"/>
<path d="M18.2479 30.2649C18.3829 30.2649 18.5129 30.2549 18.6479 30.2649C18.8579 30.2799 18.9979 30.4399 18.9979 30.6349C18.9979 30.8299 18.8579 30.9949 18.6479 31.0049C18.3829 31.0199 18.1179 31.0199 17.8529 31.0049C17.6429 30.9949 17.5029 30.8299 17.5029 30.6349C17.5029 30.4399 17.6429 30.2799 17.8529 30.2649C17.9829 30.2549 18.1179 30.2649 18.2479 30.2649Z" fill="#FEFDFB"/>
<path d="M20.8634 31.0101C20.7384 31.0101 20.6134 31.0201 20.4884 31.0101C20.2684 30.9951 20.1184 30.8301 20.1284 30.6251C20.1334 30.4301 20.2784 30.2751 20.4884 30.2651C20.7434 30.2551 21.0034 30.2551 21.2634 30.2651C21.4734 30.2751 21.6184 30.4301 21.6234 30.6251C21.6284 30.8301 21.4784 30.9901 21.2584 31.0101C21.1334 31.0201 20.9984 31.0101 20.8634 31.0101Z" fill="#FEFDFB"/>
<path d="M20.858 16.7549C20.388 16.7549 19.918 16.7549 19.453 16.7549C19.173 16.7549 19.008 16.6099 19.003 16.3849C18.998 16.1549 19.168 16.0049 19.443 16.0049C20.398 16.0049 21.348 16.0049 22.303 16.0049C22.583 16.0049 22.748 16.1499 22.753 16.3749C22.758 16.6099 22.583 16.7549 22.293 16.7549C21.813 16.7549 21.333 16.7549 20.858 16.7549Z" fill="#FEFDFB"/>
<path d="M20.878 13C21.118 13 21.363 12.995 21.603 13C21.843 13.005 21.998 13.16 21.998 13.375C21.998 13.585 21.838 13.745 21.598 13.745C21.113 13.75 20.628 13.75 20.143 13.745C19.903 13.74 19.748 13.585 19.748 13.37C19.748 13.155 19.903 13.005 20.143 13C20.393 12.995 20.633 13 20.878 13Z" fill="#FEFDFB"/>
<path d="M19.7531 14.5049C19.8781 14.5049 20.0031 14.4999 20.1281 14.5049C20.3481 14.5199 20.4981 14.6749 20.4981 14.8799C20.4981 15.0749 20.3531 15.2399 20.1431 15.2499C19.8781 15.2599 19.6131 15.2649 19.3481 15.2499C19.1431 15.2399 18.9981 15.0749 19.0031 14.8749C19.0031 14.6799 19.1481 14.5249 19.3581 14.5049C19.4881 14.4949 19.6231 14.5049 19.7531 14.5049Z" fill="#FEFDFB"/>
<path d="M21.9978 14.505C22.1328 14.505 22.2628 14.495 22.3978 14.505C22.6078 14.52 22.7478 14.68 22.7528 14.875C22.7528 15.07 22.6128 15.235 22.4028 15.245C22.1378 15.26 21.8728 15.26 21.6078 15.245C21.3978 15.235 21.2578 15.075 21.2578 14.875C21.2578 14.68 21.3978 14.525 21.6028 14.5C21.6178 14.5 21.6328 14.5 21.6478 14.5C21.7628 14.505 21.8828 14.505 21.9978 14.505Z" fill="#FEFDFB"/>
</g>
<defs>
<filter id="filter0_d_359_5576" x="0" y="0" width="48" height="48" filterUnits="userSpaceOnUse" color-interpolation-filters="sRGB">
<feFlood flood-opacity="0" result="BackgroundImageFix"/>
<feColorMatrix in="SourceAlpha" type="matrix" values="0 0 0 0 0 0 0 0 0 0 0 0 0 0 0 0 0 0 127 0" result="hardAlpha"/>
<feOffset dy="2"/>
<feGaussianBlur stdDeviation="2"/>
<feComposite in2="hardAlpha" operator="out"/>
<feColorMatrix type="matrix" values="0 0 0 0 0 0 0 0 0 0 0 0 0 0 0 0 0 0 0.1 0"/>
<feBlend mode="normal" in2="BackgroundImageFix" result="effect1_dropShadow_359_5576"/>
<feBlend mode="normal" in="SourceGraphic" in2="effect1_dropShadow_359_5576" result="shape"/>
</filter>
</defs>
</svg>
