<svg width="48" height="48" viewBox="0 0 48 48" fill="none" xmlns="http://www.w3.org/2000/svg">
<g filter="url(#filter0_d_170_14362)">
<circle cx="24" cy="22" r="20" fill="#FF9626"/>
<g clip-path="url(#clip0_170_14362)">
<path d="M19.2085 19.5941C19.2085 17.9507 19.2085 16.3393 19.2085 14.7333C19.2085 14.5732 19.2085 14.4131 19.2299 14.2584C19.3953 13.2713 19.9502 12.6097 20.8946 12.2895C22.8475 11.6172 24.8004 10.9449 26.7586 10.294C27.1801 10.1499 27.6229 10.0112 28.0605 10.0005C29.3144 9.97382 30.3975 11.0303 30.4082 12.2842C30.4295 14.8293 30.4135 17.3691 30.4135 19.9142C30.4135 19.9462 30.4082 19.9783 30.4028 20.0103C29.8799 20.0103 29.3677 20.0103 28.8128 20.0103C28.8128 19.9302 28.8128 19.8342 28.8128 19.7382C28.8128 17.3371 28.8128 14.936 28.8128 12.535C28.8128 11.7719 28.3273 11.4358 27.6069 11.6812C25.5527 12.3856 23.4931 13.0845 21.4389 13.7888C20.996 13.9382 20.8092 14.1997 20.8092 14.6639C20.8092 20.5012 20.8092 26.3384 20.8092 32.1757C20.8092 32.2397 20.8092 32.3037 20.8092 32.4051C20.916 32.4051 21.0013 32.4051 21.092 32.4051C21.8924 32.4051 22.6928 32.4105 23.4931 32.3998C23.6478 32.3998 23.7439 32.4478 23.8559 32.5545C24.3575 33.0454 24.8751 33.5203 25.3873 34.0005C25.3446 34.0005 25.2699 34.0005 25.1899 34.0005C21.6363 34.0005 18.0827 34.0005 14.5291 34.0005C13.0298 34.0005 12 32.976 12 31.4767C12 28.3607 12 25.2393 12 22.1232C12 20.6185 13.0245 19.5994 14.5291 19.5941C15.9911 19.5941 17.4478 19.5941 18.9097 19.5941C19.0004 19.5941 19.0858 19.5941 19.2085 19.5941ZM19.1872 32.3891C19.1872 28.6488 19.1872 24.9298 19.1872 21.1948C19.0858 21.1948 19.0058 21.1948 18.9204 21.1948C17.4638 21.1948 16.0018 21.1948 14.5451 21.1948C13.8995 21.1948 13.6007 21.4936 13.6007 22.1446C13.6007 25.2446 13.6007 28.3446 13.6007 31.45C13.6007 31.5247 13.5954 31.5994 13.606 31.6741C13.6434 32.085 13.9849 32.3944 14.4064 32.3784C14.4064 31.7061 14.3957 31.0285 14.4064 30.3562C14.4331 29.0383 15.7083 28.1152 16.9729 28.4887C17.8052 28.7342 18.3868 29.4865 18.4028 30.3615C18.4135 31.0338 18.4028 31.7061 18.4028 32.3944C18.675 32.3891 18.9257 32.3891 19.1872 32.3891ZM16.8021 32.3891C16.8021 31.7221 16.8075 31.0819 16.8021 30.4416C16.8021 30.1695 16.6314 29.9987 16.3966 29.9987C16.1618 30.0041 16.0071 30.1748 16.0018 30.4523C15.9964 30.8951 16.0018 31.3326 16.0018 31.7755C16.0018 31.9783 16.0018 32.1864 16.0018 32.3944C16.2846 32.3891 16.53 32.3891 16.8021 32.3891Z" fill="#F9FAFA"/>
<path d="M23.21 27.5817C23.2207 24.0442 26.1073 21.1789 29.6448 21.1949C33.1718 21.2109 36.0317 24.0868 36.021 27.6191C36.0103 31.1567 33.1237 34.0219 29.5862 34.0059C26.0593 33.9846 23.1993 31.1086 23.21 27.5817ZM29.6182 22.7956C26.9663 22.7956 24.8107 24.9459 24.8107 27.5977C24.8107 30.2496 26.961 32.4052 29.6128 32.4052C32.2647 32.4052 34.4203 30.2549 34.4203 27.6031C34.4203 24.9512 32.27 22.7956 29.6182 22.7956Z" fill="#F9FAFA"/>
<path d="M24.8115 18.7937C24.422 18.7937 24.0271 18.799 23.6376 18.7937C23.1681 18.7883 22.8159 18.4469 22.8106 17.9987C22.8053 17.5398 23.1628 17.193 23.6483 17.193C24.422 17.1876 25.201 17.1876 25.9747 17.193C26.4602 17.193 26.8177 17.5451 26.8124 17.9987C26.807 18.4522 26.4549 18.7883 25.964 18.7937C25.5798 18.7937 25.1957 18.7937 24.8115 18.7937Z" fill="#F9FAFA"/>
<path d="M26.5561 20.5651C25.8091 20.9707 25.1475 21.3868 24.5553 21.9204C24.5286 21.9418 24.5019 21.9791 24.4752 21.9791C24.0537 21.9684 23.6215 22.0858 23.2213 21.8831C22.9012 21.723 22.7464 21.3495 22.8265 21.0133C22.9119 20.6665 23.2 20.3997 23.5521 20.3944C24.3952 20.3837 25.2329 20.3837 26.0759 20.3997C26.2413 20.4051 26.3961 20.5118 26.5561 20.5651Z" fill="#F9FAFA"/>
<path d="M30.419 28.3979C30.419 29.0595 30.419 29.6838 30.419 30.3081C30.419 30.8363 30.0882 31.1991 29.6133 31.1991C29.1438 31.1938 28.8183 30.831 28.8183 30.2974C28.8183 29.6731 28.8183 29.0489 28.8183 28.3979C28.3648 28.3979 27.9219 28.3979 27.4844 28.3979C27.2603 28.3979 27.0362 28.4032 26.8067 28.3979C26.3585 28.3819 26.0117 28.0351 26.0117 27.5975C26.0117 27.16 26.3532 26.8079 26.8067 26.7972C27.463 26.7865 28.1247 26.7972 28.8183 26.7972C28.8183 26.6905 28.8183 26.5944 28.8183 26.4984C28.8183 25.9488 28.8183 25.3992 28.8183 24.8497C28.8236 24.3588 29.1544 24.0013 29.608 24.0013C30.0722 23.9959 30.4137 24.3588 30.4137 24.8603C30.419 25.4953 30.4137 26.1249 30.4137 26.8025C30.499 26.8025 30.5791 26.8025 30.6591 26.8025C31.2247 26.8025 31.7903 26.8025 32.3612 26.8025C32.8628 26.8025 33.2256 27.1493 33.2203 27.6135C33.2149 28.0671 32.8574 28.3979 32.3665 28.4032C31.7263 28.4032 31.086 28.3979 30.419 28.3979Z" fill="#F9FAFA"/>
</g>
</g>
<defs>
<filter id="filter0_d_170_14362" x="0" y="0" width="48" height="48" filterUnits="userSpaceOnUse" color-interpolation-filters="sRGB">
<feFlood flood-opacity="0" result="BackgroundImageFix"/>
<feColorMatrix in="SourceAlpha" type="matrix" values="0 0 0 0 0 0 0 0 0 0 0 0 0 0 0 0 0 0 127 0" result="hardAlpha"/>
<feOffset dy="2"/>
<feGaussianBlur stdDeviation="2"/>
<feComposite in2="hardAlpha" operator="out"/>
<feColorMatrix type="matrix" values="0 0 0 0 0 0 0 0 0 0 0 0 0 0 0 0 0 0 0.1 0"/>
<feBlend mode="normal" in2="BackgroundImageFix" result="effect1_dropShadow_170_14362"/>
<feBlend mode="normal" in="SourceGraphic" in2="effect1_dropShadow_170_14362" result="shape"/>
</filter>
<clipPath id="clip0_170_14362">
<rect width="24" height="24" fill="white" transform="translate(12 10)"/>
</clipPath>
</defs>
</svg>
