<svg width="48" height="48" viewBox="0 0 48 48" fill="none" xmlns="http://www.w3.org/2000/svg">
<g filter="url(#filter0_d_154_30859)">
<circle cx="24" cy="22" r="20" fill="#FF9626"/>
<path d="M12.96 17.5446C13.2339 17.2997 13.5133 17.0584 13.78 16.8063C13.8471 16.7428 13.9033 16.6484 13.9251 16.5577C13.9922 16.2693 14.0285 15.9735 14.1047 15.6869C14.1337 15.5781 14.2263 15.4402 14.3224 15.4075C14.4022 15.3803 14.5492 15.4656 14.6254 15.5436C14.8231 15.7431 14.9918 15.9735 15.1896 16.1749C15.273 16.2602 15.3964 16.3291 15.5125 16.3582C15.7992 16.4307 16.0949 16.467 16.3815 16.5414C16.4704 16.565 16.5847 16.652 16.6065 16.7319C16.6282 16.8135 16.5774 16.9478 16.5103 17.0131C16.2872 17.2308 16.0386 17.4194 15.8137 17.6335C15.7411 17.7025 15.6849 17.8059 15.6613 17.9038C15.5905 18.1995 15.5524 18.5025 15.4762 18.7946C15.4508 18.8889 15.3583 19.0069 15.2712 19.0341C15.1969 19.0577 15.0608 18.9923 14.9955 18.9252C14.7887 18.713 14.6109 18.4735 14.4041 18.2612C14.3206 18.176 14.199 18.107 14.0829 18.0762C13.8253 18.0091 13.555 17.9873 13.2974 17.9183C13.1758 17.8857 13.0724 17.7877 12.96 17.7188C12.96 17.6607 12.96 17.6027 12.96 17.5446ZM14.531 16.2366C14.5238 16.7954 14.2752 17.1909 13.789 17.4721C14.0866 17.5446 14.3496 17.5555 14.5546 17.6734C14.7524 17.7859 14.8866 18.0091 15.0499 18.1832C15.068 18.1796 15.0862 18.1778 15.1025 18.1741C15.0644 17.6263 15.342 17.2525 15.7774 16.9514C15.2168 16.9459 14.8268 16.6974 14.531 16.2366Z" fill="#F9FAFA"/>
<path d="M35.0272 25.2691C35.0381 28.6816 32.5854 31.5916 29.2581 32.1358C27.4276 32.4352 25.7332 32.0451 24.2038 30.9911C24.0514 30.8859 23.9589 30.8895 23.812 30.9929C19.6938 33.8847 13.8847 31.4337 13.0865 26.4738C12.5948 23.4205 14.1188 20.4815 16.8981 19.1263C17.0178 19.0683 17.0813 19.0084 17.1067 18.8651C17.6038 16.1093 19.1495 14.2026 21.7946 13.2756C25.6914 11.9095 29.9584 14.3441 30.8129 18.3988C30.9109 18.8651 31.1013 19.1154 31.515 19.3531C33.5432 20.5178 34.6916 22.2939 34.991 24.6142C34.9964 24.6505 34.9964 24.6868 34.9982 24.7231C35.0073 24.9226 35.02 25.1258 35.0272 25.2691ZM24.4796 30.5466C26.3464 31.9072 29.0441 32.1503 31.2683 30.8804C33.5886 29.5561 34.8313 27.0416 34.4195 24.362C34.0929 22.2358 32.9065 20.6901 30.9889 19.6325C30.9889 19.7486 30.9943 19.8121 30.9889 19.8738C30.9417 20.3418 30.9363 20.8171 30.8365 21.2743C30.3321 23.5747 28.9987 25.2256 26.8725 26.2361C26.7564 26.2923 26.7001 26.3558 26.6784 26.4865C26.5151 27.4552 26.174 28.3605 25.6062 29.1624C25.2633 29.645 24.8606 30.0822 24.4796 30.5466ZM23.5598 30.5158C23.558 30.5085 23.5562 30.5012 23.5525 30.4958C23.5126 30.4541 23.4709 30.4142 23.4292 30.3743C22.3134 29.313 21.6041 28.0321 21.3428 26.51C21.3156 26.3558 21.2376 26.2851 21.1016 26.2198C18.9155 25.1567 17.5766 23.4368 17.1339 21.0403C17.0523 20.5976 17.0432 20.1404 17.0015 19.6905C15.4957 20.0588 13.7723 22.5152 13.5455 24.7213C13.2679 27.4298 14.7301 29.8699 17.0287 31.0328C19.3073 32.183 21.9343 31.7639 23.5598 30.5158ZM30.3466 18.7961C29.9893 16.0077 27.1936 13.0724 23.3457 13.4624C21.5841 13.6402 20.1382 14.4403 19.0098 15.8009C18.2878 16.6717 17.8342 17.6695 17.6437 18.8161C18.754 18.4478 19.8461 18.3589 20.9601 18.5294C22.083 18.7018 23.0935 19.1444 24.0024 19.8084C25.9545 18.4315 28.0608 18.1085 30.3466 18.7961ZM23.5707 20.1622C23.5471 20.135 23.5435 20.1277 23.538 20.1241C21.7238 18.8941 19.779 18.6546 17.7072 19.344C17.5693 19.3894 17.5621 19.4783 17.5603 19.5926C17.5058 21.9564 18.451 23.8232 20.365 25.202C20.6299 25.3925 20.9256 25.5431 21.2413 25.7318C21.1778 23.4858 21.9579 21.6517 23.5707 20.1622ZM26.78 25.6882C26.8271 25.6755 26.8562 25.6719 26.8797 25.661C29.191 24.5072 30.577 22.1088 30.4591 19.5762C30.4519 19.422 30.3775 19.3694 30.2487 19.3259C28.7121 18.807 27.1882 18.836 25.6914 19.4601C25.256 19.6415 24.8497 19.8919 24.4034 20.1241C26.0579 21.6517 26.8326 23.4912 26.78 25.6882ZM24.0115 20.4851C23.9462 20.5396 23.899 20.5758 23.8573 20.6139C22.3769 22.0036 21.6748 23.7089 21.771 25.7426C21.7783 25.9005 21.8363 25.9676 21.9814 26.013C23.3112 26.432 24.6392 26.4411 25.9745 26.0311C26.1795 25.9676 26.2448 25.8678 26.252 25.6701C26.2847 24.8065 26.1668 23.9666 25.8692 23.1556C25.4846 22.1088 24.8678 21.2253 24.0115 20.4851ZM26.1432 26.5264C24.7027 26.9672 23.2949 26.9581 21.8671 26.5264C22.1774 28.0158 22.8849 29.2168 24.0079 30.191C25.1327 29.2059 25.8402 28.0086 26.1432 26.5264Z" fill="#F9FAFA" stroke="#F9FAFA" stroke-width="0.5"/>
<path d="M16.0041 11.167C16.1275 11.2541 16.2128 11.294 16.2726 11.3593C16.4776 11.5843 16.6663 11.8219 16.8768 12.0432C16.9457 12.1158 17.0509 12.1702 17.1489 12.1938C17.4446 12.2628 17.7476 12.3009 18.0397 12.3789C18.134 12.4043 18.2501 12.5004 18.2755 12.5875C18.2973 12.6637 18.2302 12.7943 18.163 12.8633C18.007 13.0229 17.8383 13.1771 17.6569 13.3041C17.412 13.4746 17.2995 13.6996 17.2668 13.988C17.2414 14.2094 17.1979 14.4325 17.1344 14.6466C17.1072 14.7373 17.0219 14.8498 16.9403 14.8716C16.8604 14.8933 16.7262 14.8371 16.6609 14.77C16.445 14.5468 16.2545 14.3001 16.0422 14.0715C15.9787 14.0044 15.8844 13.9481 15.7937 13.9264C15.5198 13.8611 15.2367 13.8284 14.9664 13.754C14.8467 13.7214 14.707 13.647 14.6471 13.5472C14.5582 13.4039 14.6925 13.2968 14.7995 13.2061C15.0063 13.0265 15.224 12.8542 15.42 12.6619C15.5052 12.5766 15.5742 12.4551 15.6032 12.339C15.6758 12.0523 15.7084 11.7548 15.7846 11.47C15.81 11.3647 15.9153 11.2813 16.0041 11.167ZM16.2073 12.036C16.1366 12.3371 16.1293 12.6002 16.0132 12.8016C15.8971 13.0029 15.6722 13.1426 15.4853 13.3168C15.7411 13.3785 16.006 13.3894 16.2091 13.5073C16.4087 13.6216 16.5448 13.8447 16.7099 14.0207C16.728 14.0207 16.7461 14.0207 16.7643 14.0207C16.7153 13.4674 16.9983 13.0973 17.4301 12.7907C16.8822 12.7725 16.4831 12.5403 16.2073 12.036Z" fill="#F9FAFA"/>
<path d="M33.3336 12.3411C33.2484 12.4573 33.2048 12.5407 33.1395 12.6006C32.9146 12.8056 32.6769 12.9961 32.4556 13.2029C32.3885 13.2664 32.334 13.3643 32.3123 13.4551C32.2433 13.7508 32.2034 14.0537 32.1272 14.3458C32.1018 14.442 32.0129 14.5671 31.9295 14.5889C31.846 14.6107 31.7063 14.5454 31.6374 14.4746C31.4342 14.2696 31.2618 14.0338 31.0587 13.827C30.9752 13.7417 30.8555 13.6691 30.7394 13.6383C30.4527 13.5639 30.1552 13.5312 29.8704 13.4551C29.776 13.4297 29.6581 13.3371 29.6309 13.25C29.6073 13.1757 29.6726 13.0414 29.7416 12.9743C29.9484 12.7729 30.1842 12.6006 30.3892 12.3956C30.4836 12.3012 30.5598 12.1688 30.5942 12.0382C30.665 11.7733 30.6886 11.4957 30.7593 11.2309C30.7865 11.1275 30.8754 10.9896 30.9643 10.9642C31.0496 10.9406 31.1911 11.0204 31.2727 11.093C31.416 11.2236 31.5521 11.3706 31.6591 11.532C31.8496 11.8259 32.12 11.942 32.4519 11.9783C32.6588 12.0001 32.8692 12.04 33.067 12.1053C33.1595 12.1434 33.232 12.2504 33.3336 12.3411ZM31.1802 11.7987C31.1729 12.3557 30.9226 12.7511 30.469 13.0523C31.0278 13.0541 31.4124 13.3117 31.6991 13.7907C31.7698 13.4913 31.7807 13.2283 31.8968 13.0269C32.0129 12.8292 32.2361 12.6931 32.4665 12.479C31.8642 12.5099 31.4777 12.2541 31.1802 11.7987Z" fill="#F9FAFA"/>
<path d="M33.7577 19.0714C33.7105 19.037 33.6216 18.9898 33.5563 18.9209C33.3694 18.7195 33.1844 18.5145 33.0157 18.2968C32.9086 18.1607 32.7816 18.0972 32.6165 18.07C32.3535 18.0283 32.0868 17.9884 31.8292 17.9194C31.7258 17.8922 31.5915 17.7997 31.5698 17.7126C31.548 17.6237 31.6369 17.5004 31.6968 17.4024C31.733 17.3443 31.7984 17.299 31.8582 17.2609C32.368 16.9434 32.6165 16.4772 32.6474 15.8839C32.651 15.8132 32.6583 15.7333 32.6909 15.6735C32.7417 15.5791 32.8052 15.4413 32.885 15.4249C32.9794 15.4068 33.1209 15.4721 33.1971 15.5465C33.4021 15.7497 33.5744 15.9855 33.7758 16.1942C33.8538 16.2758 33.9699 16.3393 34.0806 16.3683C34.36 16.4391 34.6503 16.4717 34.9278 16.5479C35.0312 16.5751 35.1691 16.6658 35.1909 16.7529C35.2126 16.8418 35.1346 16.9833 35.0566 17.0595C34.8516 17.2627 34.6176 17.4369 34.409 17.6364C34.3328 17.7108 34.2693 17.8178 34.2439 17.9213C34.1749 18.2097 34.1278 18.5018 34.0715 18.7939C34.0407 18.9372 33.9754 19.0497 33.7577 19.0714ZM33.6416 18.2043C33.6506 17.6509 33.9028 17.2645 34.3545 16.9652C33.7958 16.9597 33.4093 16.6985 33.1082 16.254C33.1028 16.8128 32.8524 17.201 32.3952 17.5022C32.9485 17.5022 33.3404 17.7453 33.6416 18.2043Z" fill="#F9FAFA"/>
</g>
<defs>
<filter id="filter0_d_154_30859" x="0" y="0" width="48" height="48" filterUnits="userSpaceOnUse" color-interpolation-filters="sRGB">
<feFlood flood-opacity="0" result="BackgroundImageFix"/>
<feColorMatrix in="SourceAlpha" type="matrix" values="0 0 0 0 0 0 0 0 0 0 0 0 0 0 0 0 0 0 127 0" result="hardAlpha"/>
<feOffset dy="2"/>
<feGaussianBlur stdDeviation="2"/>
<feComposite in2="hardAlpha" operator="out"/>
<feColorMatrix type="matrix" values="0 0 0 0 0 0 0 0 0 0 0 0 0 0 0 0 0 0 0.1 0"/>
<feBlend mode="normal" in2="BackgroundImageFix" result="effect1_dropShadow_154_30859"/>
<feBlend mode="normal" in="SourceGraphic" in2="effect1_dropShadow_154_30859" result="shape"/>
</filter>
</defs>
</svg>
