<svg width="48" height="48" viewBox="0 0 48 48" fill="none" xmlns="http://www.w3.org/2000/svg">
<g filter="url(#filter0_d_196_14853)">
<circle cx="24" cy="22" r="20" fill="#FF9626"/>
<g clip-path="url(#clip0_196_14853)">
<path d="M23.5548 15.789C23.5508 18.9832 20.9552 21.5614 17.7537 21.5521C14.5736 21.5427 11.9947 18.9492 12 15.765C12.0053 12.5849 14.5969 9.99933 17.7777 10C20.9738 10.0007 23.5587 12.5916 23.5548 15.789ZM21.9543 15.7677C21.9503 13.4601 20.0747 11.5951 17.7624 11.6004C15.4688 11.6057 13.6017 13.4788 13.6004 15.7744C13.5991 18.082 15.4728 19.9543 17.7817 19.9523C20.0933 19.9503 21.9577 18.08 21.9543 15.7677Z" fill="#F9FAFA"/>
<path d="M23.5547 28.2123C23.5581 31.4091 20.9712 34.0007 17.7764 34C14.5962 34 12.004 31.4118 12 28.2323C11.996 25.0368 14.5842 22.4466 17.781 22.4473C20.9678 22.4486 23.5507 25.0275 23.5547 28.2123ZM21.9543 28.2083C21.9503 25.9 20.076 24.0423 17.7584 24.0483C15.4634 24.0543 13.6004 25.926 13.6011 28.2243C13.6017 30.5293 15.4814 32.4043 17.787 32.4003C20.094 32.3963 21.9583 30.5213 21.9543 28.2083Z" fill="#F9FAFA"/>
<path d="M30.2343 21.5521C27.0361 21.5554 24.4486 18.9698 24.4492 15.773C24.4506 12.5889 27.0315 10.0053 30.2169 10C33.4091 9.99468 36.0046 12.5876 36.004 15.781C36.0033 18.9625 33.4177 21.5488 30.2343 21.5521ZM30.2323 19.9523C32.5292 19.951 34.3989 18.084 34.4036 15.7884C34.4076 13.4801 32.5359 11.6011 30.2303 11.5997C27.92 11.5984 26.0496 13.4674 26.0496 15.7777C26.0496 18.0887 27.9193 19.9537 30.2323 19.9523Z" fill="#F9FAFA"/>
<path d="M24.4492 28.2203C24.4506 25.0235 27.0395 22.4426 30.2396 22.4479C33.4231 22.4532 36.0053 25.0408 36.004 28.2243C36.0026 31.4157 33.4017 34.0086 30.2109 34.0006C27.0268 33.992 24.4479 31.4044 24.4492 28.2203ZM26.0496 28.2169C26.0483 30.5272 27.9173 32.3996 30.2263 32.4002C32.5212 32.4002 34.3969 30.5325 34.4036 28.2403C34.4102 25.9286 32.5439 24.0509 30.2369 24.0483C27.9213 24.045 26.051 25.9066 26.0496 28.2169Z" fill="#F9FAFA"/>
<path d="M29.4244 29.0222C28.8744 29.0222 28.3599 29.0229 27.8446 29.0222C27.6613 29.0222 27.4773 29.0282 27.2947 29.0149C26.8621 28.9829 26.5502 28.6483 26.5488 28.227C26.5475 27.7924 26.8588 27.4465 27.3107 27.4305C27.8599 27.4111 28.4105 27.4238 28.9604 27.4231C29.1011 27.4231 29.2417 27.4231 29.4097 27.4231C29.415 27.3171 29.423 27.2292 29.423 27.1418C29.425 26.5419 29.4157 25.942 29.4284 25.3421C29.4377 24.9322 29.7036 24.6256 30.0709 24.5576C30.4489 24.4876 30.8221 24.6816 30.9581 25.0449C31.0088 25.1808 31.0194 25.3375 31.0208 25.4848C31.0274 26.1167 31.0234 26.7486 31.0234 27.4071C31.1314 27.4131 31.2194 27.4225 31.3067 27.4231C31.9066 27.4251 32.5065 27.4158 33.1064 27.4278C33.5103 27.4358 33.8176 27.7017 33.8923 28.0704C33.9603 28.407 33.793 28.7816 33.4723 28.9255C33.319 28.9942 33.1351 29.0162 32.9644 29.0195C32.3325 29.0302 31.7 29.0235 31.0388 29.0235C31.0328 29.1275 31.0241 29.2155 31.0241 29.3035C31.0228 29.8701 31.0261 30.4366 31.0228 31.0032C31.0194 31.5431 30.7028 31.9004 30.2316 31.903C29.7503 31.9064 29.4264 31.5438 29.4237 30.9905C29.4224 30.3486 29.4244 29.7081 29.4244 29.0222Z" fill="#F9FAFA"/>
</g>
</g>
<defs>
<filter id="filter0_d_196_14853" x="0" y="0" width="48" height="48" filterUnits="userSpaceOnUse" color-interpolation-filters="sRGB">
<feFlood flood-opacity="0" result="BackgroundImageFix"/>
<feColorMatrix in="SourceAlpha" type="matrix" values="0 0 0 0 0 0 0 0 0 0 0 0 0 0 0 0 0 0 127 0" result="hardAlpha"/>
<feOffset dy="2"/>
<feGaussianBlur stdDeviation="2"/>
<feComposite in2="hardAlpha" operator="out"/>
<feColorMatrix type="matrix" values="0 0 0 0 0 0 0 0 0 0 0 0 0 0 0 0 0 0 0.1 0"/>
<feBlend mode="normal" in2="BackgroundImageFix" result="effect1_dropShadow_196_14853"/>
<feBlend mode="normal" in="SourceGraphic" in2="effect1_dropShadow_196_14853" result="shape"/>
</filter>
<clipPath id="clip0_196_14853">
<rect width="24.0047" height="24" fill="white" transform="translate(12 10)"/>
</clipPath>
</defs>
</svg>
