<svg width="48" height="48" viewBox="0 0 48 48" fill="none" xmlns="http://www.w3.org/2000/svg">
<g filter="url(#filter0_d_71_7392)">
<circle cx="24" cy="22" r="20" fill="#FF9626"/>
<path d="M32.2433 11.0002C32.3731 11.0371 32.5035 11.0706 32.6321 11.1116C33.6042 11.4225 34.2445 12.2849 34.2635 13.3475C34.2791 14.2341 34.2687 15.1213 34.2664 16.008C34.2658 16.2583 34.1349 16.4072 33.9353 16.4049C33.7357 16.4026 33.6197 16.2578 33.6192 15.9987C33.6174 15.1554 33.6197 14.3114 33.618 13.468C33.6157 12.353 32.9079 11.6486 31.7888 11.6486C26.3518 11.648 20.9149 11.648 15.478 11.6486C14.36 11.6486 13.6493 12.3541 13.6493 13.4686C13.6482 18.372 13.6482 23.2753 13.6493 28.1781C13.6499 29.2522 14.3623 29.9767 15.4336 29.9802C17.5103 29.9865 19.587 29.9819 21.6637 29.9819C21.7202 29.9819 21.7762 29.9767 21.8454 29.9733C21.8454 29.7414 21.8454 29.521 21.8454 29.2654C21.7652 29.2654 21.6821 29.2654 21.5991 29.2654C19.955 29.2654 18.3109 29.2654 16.6669 29.2654C16.304 29.2654 16.2192 29.1864 16.1944 28.8328C16.15 28.189 15.6481 27.6525 15.0067 27.5637C14.9351 27.5539 14.8636 27.5452 14.7921 27.5389C14.5942 27.5216 14.4829 27.4051 14.4794 27.2164C14.4708 26.6615 14.4702 26.106 14.4794 25.551C14.4829 25.3445 14.6259 25.2245 14.8128 25.2303C14.9986 25.2361 15.118 25.3589 15.1209 25.5747C15.1267 26.0142 15.1226 26.4532 15.1226 26.8997C15.1849 26.9211 15.2374 26.9418 15.2911 26.9568C16.0744 27.1709 16.5705 27.6756 16.7898 28.4526C16.818 28.5524 16.8342 28.6199 16.9628 28.6194C18.405 28.6147 19.8471 28.6153 21.2893 28.6136C21.3014 28.6136 21.3141 28.6032 21.3504 28.5876C20.8174 27.8129 20.6588 26.9695 20.9276 26.0662C21.1151 25.4368 21.497 24.9413 22.034 24.5629C23.0458 23.8493 24.4718 23.9098 25.4329 24.7146C26.0103 25.198 26.3582 25.8129 26.4459 26.5634C26.5318 27.3001 26.3513 27.975 25.9002 28.6038C27.1173 28.6038 28.2953 28.6038 29.4675 28.6038C29.5575 28.3171 29.6186 28.0183 29.7421 27.7477C30.1776 26.789 30.9212 26.2046 31.9601 26.0125C32.1009 25.9866 32.1487 25.9375 32.1487 25.7922C32.1447 22.1579 32.1447 18.5237 32.1487 14.89C32.1487 14.7435 32.0945 14.7031 31.9607 14.6656C31.1998 14.4528 30.6997 13.9613 30.4891 13.1992C30.4441 13.0371 30.383 12.9996 30.2289 12.9996C28.0726 13.0037 25.9169 13.0025 23.7606 13.0025C21.5252 13.0025 19.2899 13.0043 17.0545 12.9991C16.8913 12.9985 16.8267 13.0377 16.7788 13.2073C16.5729 13.9411 16.0998 14.4372 15.362 14.6443C15.1555 14.702 15.1203 14.7948 15.1209 14.9852C15.1267 17.9272 15.1249 20.8692 15.1244 23.8112C15.1244 23.8977 15.1272 23.9848 15.118 24.0702C15.0995 24.2479 14.9859 24.346 14.8186 24.3558C14.649 24.3656 14.5302 24.2715 14.4915 24.1008C14.476 24.0316 14.476 23.9577 14.476 23.8862C14.4754 20.7786 14.4754 17.6705 14.4754 14.5629C14.4754 14.1897 14.5579 14.1014 14.9207 14.0755C15.5928 14.0282 16.1494 13.4698 16.1956 12.796C16.2198 12.4453 16.3144 12.3535 16.6657 12.3535C21.3095 12.353 25.9532 12.353 30.597 12.3535C30.954 12.3535 31.0498 12.4435 31.0729 12.7902C31.119 13.4755 31.6757 14.0299 32.3633 14.0766C32.7014 14.0991 32.7931 14.1949 32.7937 14.5358C32.7942 18.4077 32.7942 22.2802 32.7937 26.1521C32.7937 26.4959 32.6944 26.6032 32.3708 26.6176C31.1554 26.6736 30.2087 27.6104 30.132 28.8334C30.1095 29.1928 30.0311 29.2672 29.6665 29.2672C28.3397 29.2677 27.0129 29.2672 25.6861 29.2672C25.6013 29.2672 25.5171 29.2672 25.4208 29.2672C25.4208 29.5106 25.4208 29.731 25.4208 29.9842C25.4981 29.9842 25.5742 29.9842 25.6509 29.9842C27.6919 29.9842 29.7323 29.9854 31.7732 29.9836C32.9142 29.9825 33.6186 29.2752 33.6192 28.1331C33.6197 24.6794 33.6192 21.2251 33.6197 17.7714C33.6197 17.4311 33.7149 17.2817 33.9324 17.2765C34.1603 17.2707 34.2681 17.4317 34.2681 17.7766C34.2681 21.2447 34.2699 24.7134 34.2675 28.1815C34.267 29.3958 33.5309 30.3378 32.3939 30.5761C32.177 30.6216 31.9497 30.6309 31.7276 30.6315C29.7155 30.6355 27.704 30.6338 25.6919 30.6338C25.6065 30.6338 25.5212 30.6338 25.4092 30.6338C25.4092 30.8859 25.4092 31.1218 25.4092 31.3571C25.4092 31.8042 25.4017 32.2513 25.4127 32.6984C25.4173 32.8968 25.3654 33.0502 25.1923 33.1541C25.1202 33.1541 25.0481 33.1541 24.976 33.1541C24.5324 32.8385 24.0882 32.523 23.6365 32.2017C23.1826 32.5236 22.7378 32.8385 22.2936 33.1541C22.2215 33.1541 22.1494 33.1541 22.0773 33.1541C21.9071 33.0491 21.8512 32.8979 21.8569 32.6989C21.8685 32.2669 21.8604 31.8342 21.8604 31.4016C21.8604 31.1518 21.8604 30.9014 21.8604 30.6343C21.749 30.6343 21.6637 30.6343 21.5783 30.6343C19.5524 30.6343 17.527 30.6343 15.501 30.6343C15.1157 30.6343 14.7361 30.5922 14.386 30.4203C13.4503 29.9611 13.0021 29.1974 13.0021 28.1642C13.0009 24.2283 13.0015 20.2918 13.0015 16.3558C13.0015 15.3752 12.9975 14.3951 13.0026 13.4144C13.0067 12.3207 13.6164 11.46 14.615 11.1202C14.7494 11.0746 14.8873 11.04 15.0234 11.0002C20.7632 11.0002 26.5036 11.0002 32.2433 11.0002ZM25.8159 26.8986C25.8148 25.6918 24.8324 24.7123 23.6267 24.7157C22.4309 24.7186 21.4589 25.69 21.4508 26.8905C21.4427 28.0933 22.4251 29.0826 23.629 29.0849C24.8335 29.0866 25.8171 28.1031 25.8159 26.8986ZM22.5134 32.1953C22.7222 32.0488 22.8982 31.9265 23.0729 31.8031C23.685 31.3704 23.58 31.3687 24.1996 31.8042C24.3761 31.9282 24.5532 32.0523 24.7528 32.1919C24.7528 31.2741 24.7528 30.4036 24.7528 29.5071C24.0046 29.8088 23.2622 29.806 22.5134 29.5083C22.5134 30.4094 22.5134 31.2798 22.5134 32.1953Z" fill="#F9FAFA" stroke="#F9FAFA" stroke-width="0.2"/>
<path d="M25.6503 19.3222C25.6387 21.8154 23.6134 23.82 21.1184 23.8085C18.6414 23.7969 16.6373 21.7635 16.6564 19.2801C16.6754 16.7961 18.7031 14.7944 21.1819 14.8123C23.6491 14.8296 25.6618 16.8613 25.6503 19.3222ZM25.0013 19.3008C24.9897 17.1757 23.2545 15.4526 21.134 15.4607C19.0123 15.4693 17.2938 17.208 17.3054 19.3337C17.3169 21.4624 19.0429 23.167 21.1778 23.1589C23.2851 23.1514 25.0128 21.4081 25.0013 19.3008Z" fill="#F9FAFA" stroke="#F9FAFA" stroke-width="0.2"/>
<path d="M28.8138 18.8348C28.3535 18.8348 27.8932 18.8366 27.4328 18.8342C27.179 18.8331 27.04 18.7125 27.044 18.5054C27.0481 18.3081 27.1848 18.1876 27.4248 18.187C28.3599 18.1847 29.295 18.1847 30.23 18.187C30.4677 18.1876 30.6062 18.3116 30.6085 18.5083C30.6108 18.7143 30.4712 18.8331 30.2162 18.8342C29.7489 18.836 29.2817 18.8348 28.8138 18.8348Z" fill="#F9FAFA" stroke="#F9FAFA" stroke-width="0.2"/>
<path d="M28.8253 20.4355C28.3719 20.4355 27.9191 20.4366 27.4657 20.4349C27.1859 20.4343 27.0463 20.327 27.044 20.1165C27.0411 19.9042 27.1847 19.7871 27.4559 19.7871C28.3696 19.7859 29.2828 19.7859 30.1965 19.7871C30.4665 19.7877 30.6113 19.9065 30.6078 20.1176C30.6044 20.323 30.4671 20.4338 30.2064 20.4349C29.746 20.4366 29.2857 20.4355 28.8253 20.4355Z" fill="#F9FAFA" stroke="#F9FAFA" stroke-width="0.2"/>
<path d="M24.985 26.8904C24.9896 27.6415 24.3839 28.2558 23.6369 28.2581C22.8904 28.2605 22.2801 27.6478 22.2813 26.8979C22.2824 26.1561 22.88 25.5498 23.619 25.5411C24.366 25.533 24.9804 26.1399 24.985 26.8904ZM24.336 26.8898C24.332 26.5033 24.0188 26.1912 23.634 26.1901C23.2423 26.1889 22.9262 26.512 22.9302 26.9089C22.9343 27.2948 23.2487 27.608 23.6317 27.6092C24.0228 27.6098 24.3401 27.2856 24.336 26.8898Z" fill="#F9FAFA"/>
<path d="M21.1506 16.3468C22.7947 16.3474 24.118 17.673 24.1157 19.3176C24.1134 20.9565 22.7733 22.2925 21.1402 22.2839C19.5036 22.2752 18.1774 20.9357 18.1826 19.2963C18.1872 17.669 19.5186 16.3462 21.1506 16.3468ZM23.4684 19.549C23.4592 19.3419 23.4592 19.1492 23.4373 18.9594C23.4309 18.9069 23.364 18.8296 23.3138 18.8192C22.7283 18.7016 22.1445 18.57 21.5532 18.4898C20.7981 18.3877 20.0621 18.5643 19.3289 18.7217C18.8253 18.8296 18.8155 18.8429 18.8322 19.3667C18.8328 19.3811 18.8345 19.3955 18.8333 19.4099C18.8247 19.5207 18.876 19.5617 18.9856 19.5645C19.2158 19.5715 19.446 19.5911 19.6767 19.6032C20.3932 19.6413 20.7785 20.052 20.7739 20.7719C20.7722 21.0436 20.7739 21.3153 20.7739 21.6026C21.0375 21.6026 21.2833 21.6026 21.5279 21.6026C21.5279 21.2767 21.5256 20.9819 21.5284 20.6871C21.5342 20.0578 21.9513 19.6338 22.5812 19.6061C22.8668 19.594 23.1523 19.5697 23.4684 19.549ZM19.2291 18.0653C20.5224 17.7238 21.8076 17.7249 23.0952 18.0953C22.6366 17.3823 21.9974 17.0015 21.1592 16.9987C20.3309 16.9958 19.6917 17.3627 19.2291 18.0653ZM20.1238 21.3851C20.1238 21.1019 20.1301 20.8717 20.122 20.6421C20.1151 20.4477 20.0113 20.3018 19.8203 20.2718C19.5671 20.2326 19.3081 20.2297 19.015 20.2083C19.2521 20.7373 19.5965 21.1082 20.1238 21.3851ZM23.2827 20.2135C23.0046 20.2308 22.76 20.2383 22.5178 20.2637C22.3441 20.2816 22.2103 20.386 22.1964 20.5625C22.1763 20.8221 22.1913 21.084 22.1913 21.3834C22.7018 21.1048 23.049 20.7425 23.2827 20.2135Z" fill="#F9FAFA"/>
</g>
<defs>
<filter id="filter0_d_71_7392" x="0" y="0" width="48" height="48" filterUnits="userSpaceOnUse" color-interpolation-filters="sRGB">
<feFlood flood-opacity="0" result="BackgroundImageFix"/>
<feColorMatrix in="SourceAlpha" type="matrix" values="0 0 0 0 0 0 0 0 0 0 0 0 0 0 0 0 0 0 127 0" result="hardAlpha"/>
<feOffset dy="2"/>
<feGaussianBlur stdDeviation="2"/>
<feComposite in2="hardAlpha" operator="out"/>
<feColorMatrix type="matrix" values="0 0 0 0 0 0 0 0 0 0 0 0 0 0 0 0 0 0 0.1 0"/>
<feBlend mode="normal" in2="BackgroundImageFix" result="effect1_dropShadow_71_7392"/>
<feBlend mode="normal" in="SourceGraphic" in2="effect1_dropShadow_71_7392" result="shape"/>
</filter>
</defs>
</svg>
