<svg width="48" height="48" viewBox="0 0 48 48" fill="none" xmlns="http://www.w3.org/2000/svg">
<g filter="url(#filter0_d_149_27106)">
<circle cx="24" cy="22" r="20" fill="#FF9626"/>
<path d="M16.7828 29.8451C16.5175 30.5014 16.0745 30.9984 15.4072 31.2773C14.1719 31.7942 12.7492 31.224 12.2084 29.9982C11.669 28.7765 12.2119 27.3422 13.4288 26.7755C14.6402 26.2108 16.0936 26.7242 16.6672 27.9356C16.7622 28.1373 16.8675 28.1954 17.0849 28.1934C18.5726 28.1817 20.0595 28.1872 21.5471 28.1872C21.6387 28.1872 21.731 28.1872 21.8219 28.1872C21.8554 25.2742 24.3091 23.1549 26.9698 23.2656C29.4508 23.3688 31.6419 25.3617 31.711 28.1715C32.517 28.1715 33.3237 28.1715 34.1434 28.1715C34.1434 25.9968 34.1434 23.8289 34.1434 21.6235C34.0552 21.6235 33.9656 21.6235 33.8761 21.6235C28.2681 21.6235 22.6601 21.6248 17.0528 21.6187C16.8545 21.6187 16.7602 21.6734 16.6741 21.8573C16.1859 22.9081 15.0299 23.4611 13.9046 23.2007C12.7971 22.945 11.9999 21.9407 12.0006 20.8017C12.0013 19.6634 12.8012 18.6571 13.9073 18.4042C15.036 18.1457 16.1873 18.6974 16.6754 19.7503C16.7616 19.9362 16.858 19.9909 17.0548 19.9875C17.8219 19.9752 18.5896 19.9827 19.3711 19.9827C19.3711 18.3413 19.3711 16.7203 19.3711 15.0597C19.2952 15.0597 19.2138 15.0597 19.1331 15.0597C18.4406 15.0597 17.7481 15.0673 17.0562 15.055C16.8607 15.0515 16.7622 15.1035 16.6761 15.2908C16.1887 16.3436 15.0353 16.896 13.9087 16.6376C12.7916 16.3819 11.9917 15.366 12.0006 14.2154C12.0088 13.0888 12.8073 12.0941 13.9046 11.8404C15.0203 11.5834 16.1688 12.1296 16.67 13.1571C16.711 13.2405 16.7499 13.3253 16.7944 13.4183C17.3092 13.4183 17.8219 13.4183 18.334 13.4183C19.9836 13.4183 21.6339 13.4238 23.2836 13.4142C23.6186 13.4121 23.8914 13.5044 24.1532 13.7143C26.6718 15.7372 29.1972 17.7513 31.7164 19.7728C31.8983 19.9191 32.076 19.9923 32.3153 19.9882C33.1699 19.9738 34.0251 19.9813 34.8797 19.9827C35.4704 19.9834 35.7985 20.3115 35.7985 20.9043C35.7992 23.5712 35.7992 26.2374 35.7985 28.9044C35.7985 29.5005 35.4738 29.8273 34.8817 29.828C33.7961 29.8293 32.7105 29.8321 31.6248 29.8246C31.4621 29.8232 31.391 29.8758 31.3302 30.0262C30.5638 31.9104 28.7644 33.1177 26.7477 33.1102C24.7616 33.1033 22.9623 31.8823 22.2109 30.0303C22.1651 29.9168 22.1357 29.8239 21.973 29.8246C20.2632 29.8321 18.5534 29.83 16.8443 29.8314C16.8272 29.8321 16.8101 29.8389 16.7828 29.8451ZM26.7647 31.4701C28.5703 31.4728 30.049 30.003 30.0538 28.2009C30.0586 26.394 28.5921 24.9132 26.7907 24.9064C24.9722 24.8995 23.4887 26.3735 23.4894 28.1879C23.4894 29.9927 24.9613 31.4674 26.7647 31.4701ZM21.0364 19.9622C23.8018 19.9622 26.5432 19.9622 29.3216 19.9622C29.2443 19.8979 29.1992 19.8597 29.1534 19.8227C27.3007 18.3399 25.4432 16.8625 23.5988 15.3694C23.3246 15.1472 23.0594 15.0324 22.7011 15.0522C22.1508 15.0823 21.5977 15.0604 21.0364 15.0604C21.0364 16.7101 21.0364 18.3296 21.0364 19.9622ZM14.4734 15.0591C14.9184 15.0529 15.2842 14.6796 15.2815 14.2339C15.2787 13.7888 14.9075 13.4203 14.4624 13.4197C14.0044 13.4197 13.6332 13.7984 13.6421 14.2571C13.6509 14.7008 14.0283 15.0652 14.4734 15.0591ZM15.2815 20.8113C15.2856 20.3662 14.9205 19.9909 14.4761 19.9834C14.0276 19.9759 13.653 20.3341 13.6421 20.7812C13.6311 21.2372 14.0044 21.6214 14.4597 21.6228C14.9048 21.6242 15.2767 21.257 15.2815 20.8113ZM15.2815 29.0131C15.2835 28.568 14.9171 28.194 14.472 28.1893C14.0235 28.1838 13.6509 28.5441 13.6421 28.9912C13.6332 29.4472 14.0085 29.83 14.4638 29.8287C14.9089 29.8273 15.2787 29.4588 15.2815 29.0131Z" fill="#F9FAFA"/>
<path d="M18.9974 24.0856C19.3905 24.0856 19.7835 24.0815 20.1766 24.0863C20.6586 24.0925 21.021 24.4411 21.0257 24.8964C21.0305 25.3627 20.6655 25.7216 20.1691 25.725C19.3747 25.7298 18.5796 25.7291 17.7852 25.725C17.2875 25.7223 16.9218 25.3675 16.9238 24.9012C16.9259 24.4343 17.2896 24.0904 17.7921 24.0856C18.1941 24.0829 18.5954 24.0856 18.9974 24.0856Z" fill="#F9FAFA"/>
</g>
<defs>
<filter id="filter0_d_149_27106" x="0" y="0" width="48" height="48" filterUnits="userSpaceOnUse" color-interpolation-filters="sRGB">
<feFlood flood-opacity="0" result="BackgroundImageFix"/>
<feColorMatrix in="SourceAlpha" type="matrix" values="0 0 0 0 0 0 0 0 0 0 0 0 0 0 0 0 0 0 127 0" result="hardAlpha"/>
<feOffset dy="2"/>
<feGaussianBlur stdDeviation="2"/>
<feComposite in2="hardAlpha" operator="out"/>
<feColorMatrix type="matrix" values="0 0 0 0 0 0 0 0 0 0 0 0 0 0 0 0 0 0 0.1 0"/>
<feBlend mode="normal" in2="BackgroundImageFix" result="effect1_dropShadow_149_27106"/>
<feBlend mode="normal" in="SourceGraphic" in2="effect1_dropShadow_149_27106" result="shape"/>
</filter>
</defs>
</svg>
