<svg width="48" height="44" viewBox="0 0 48 44" fill="none" xmlns="http://www.w3.org/2000/svg">
<path d="M3.24314 21.1782C2.14395 21.1782 1.12095 21.1782 0 21.1782C1.91541 18.4466 3.7764 15.7911 5.69181 13.0486C7.59634 15.7694 9.46822 18.4357 11.3836 21.1782C10.2736 21.1782 9.25056 21.1782 8.22755 21.1782C7.66164 26.6415 10.8177 34.8473 19.3065 38.0578C27.4361 41.1377 36.654 37.4592 40.6045 29.5581C44.5115 21.755 41.7799 12.1453 34.2706 7.48741C30.1677 4.9299 25.7057 4.25515 21.026 5.4414C16.3354 6.62765 12.8202 9.42458 10.328 13.6145C9.31586 12.1562 8.3255 10.7523 7.33515 9.33752C12.2107 2.07855 22.419 -2.29642 32.5402 1.26233C42.7593 4.85372 48.8212 15.2579 46.8949 25.8579C44.8924 36.8606 35.4677 44.4135 24.3126 43.989C18.3052 43.7605 13.2011 41.3553 9.11996 36.9477C5.01707 32.5292 3.14519 27.2509 3.24314 21.1782Z" fill="#5EAB2B"/>
<path d="M16.2812 26.8484C16.2812 25.8254 16.2812 24.8132 16.2812 23.7902C16.2812 23.1264 16.5751 22.8217 17.2498 22.8217C19.3176 22.8217 21.3963 22.8217 23.464 22.8217C24.1279 22.8217 24.4326 23.1155 24.4326 23.7902C24.4326 25.858 24.4326 27.9367 24.4326 30.0044C24.4326 30.6683 24.1279 30.973 23.464 30.973C21.3963 30.973 19.3176 30.973 17.2498 30.973C16.586 30.973 16.2921 30.6683 16.2812 30.0044C16.2812 28.9597 16.2812 27.904 16.2812 26.8484Z" fill="#5EAB2B"/>
<path d="M24.4325 17.1407C24.4325 18.1637 24.4325 19.1758 24.4325 20.1988C24.4325 20.8953 24.1386 21.1892 23.4421 21.2001C21.3852 21.2001 19.3392 21.2001 17.2823 21.2001C16.5858 21.2001 16.292 20.9062 16.292 20.2097C16.292 18.1528 16.292 16.1068 16.292 14.0499C16.292 13.3534 16.5858 13.0596 17.2823 13.0596C19.3392 13.0596 21.3852 13.0596 23.4421 13.0596C24.1386 13.0596 24.4325 13.3534 24.4434 14.0499C24.4325 15.0729 24.4325 16.1068 24.4325 17.1407ZM18.7516 18.7187C19.8507 18.7187 20.9064 18.7187 21.9512 18.7187C21.9512 17.6304 21.9512 16.5639 21.9512 15.5191C20.8629 15.5191 19.8181 15.5191 18.7516 15.5191C18.7516 16.5965 18.7516 17.6413 18.7516 18.7187Z" fill="#5EAB2B"/>
<path d="M34.2049 17.1189C34.2049 18.1528 34.2049 19.1867 34.2049 20.2206C34.2049 20.8844 33.9002 21.1891 33.2472 21.1891C31.1794 21.2 29.1116 21.1891 27.033 21.1891C26.3691 21.1891 26.0644 20.8844 26.0644 20.2314C26.0535 18.1637 26.0644 16.085 26.0644 14.0172C26.0644 13.3534 26.3582 13.0487 27.0221 13.0487C29.0899 13.0378 31.1577 13.0487 33.2363 13.0487C33.9002 13.0487 34.2049 13.3425 34.2049 14.0064C34.2158 15.0511 34.2049 16.085 34.2049 17.1189ZM31.7236 18.7296C31.7236 17.6304 31.7236 16.5639 31.7236 15.5191C30.6462 15.5191 29.6014 15.5191 28.5348 15.5191C28.5348 16.5965 28.5348 17.6522 28.5348 18.7296C29.6014 18.7296 30.6462 18.7296 31.7236 18.7296Z" fill="#5EAB2B"/>
<path d="M15.4861 16.2809C14.8984 16.2809 14.3978 16.2809 13.8428 16.2809C13.8428 15.2253 13.8428 14.2023 13.8428 13.1684C13.8428 12.6786 13.8428 12.1889 13.8428 11.6992C13.8428 10.8612 14.104 10.6 14.9311 10.6C16.4547 10.6 17.9674 10.6 19.5237 10.6C19.5237 11.1441 19.5237 11.6447 19.5237 12.1998C18.2069 12.1998 16.8791 12.1998 15.497 12.1998C15.4861 13.5928 15.4861 14.9205 15.4861 16.2809Z" fill="#C32222"/>
<path d="M35.0111 16.2701C35.0111 14.9206 35.0111 13.6038 35.0111 12.2543C33.6616 12.2543 32.3448 12.2543 30.9844 12.2543C30.9844 11.7101 30.9844 11.1878 30.9844 10.6436C31.0932 10.6327 31.2238 10.611 31.3544 10.611C32.7801 10.611 34.2057 10.611 35.6205 10.611C36.3497 10.611 36.6435 10.8939 36.6435 11.6231C36.6435 13.1576 36.6435 14.703 36.6435 16.281C36.1103 16.2701 35.5988 16.2701 35.0111 16.2701Z" fill="#C32222"/>
<path d="M13.8435 27.7407C14.4095 27.7407 14.921 27.7407 15.4542 27.7407C15.4542 29.0793 15.4542 30.3962 15.4542 31.7674C16.8146 31.7674 18.1423 31.7674 19.5136 31.7674C19.5136 32.3334 19.5136 32.8449 19.5136 33.4217C18.8606 33.4217 18.2076 33.4217 17.5546 33.4217C16.6187 33.4217 15.6937 33.4325 14.7577 33.4217C14.2027 33.4108 13.8544 33.1278 13.8544 32.6054C13.8327 30.9947 13.8435 29.3841 13.8435 27.7407Z" fill="#C32222"/>
<path d="M30.9727 33.4108C30.9727 32.8449 30.9727 32.3442 30.9727 31.8001C32.3113 31.8001 33.6281 31.8001 34.9994 31.8001C34.9994 30.4397 34.9994 29.112 34.9994 27.7407C35.5653 27.7407 36.0768 27.7407 36.6536 27.7407C36.6536 28.4264 36.6536 29.112 36.6536 29.7976C36.6536 30.7009 36.6645 31.5933 36.6536 32.4966C36.6427 33.0299 36.3706 33.389 35.8918 33.3999C34.2593 33.4325 32.6378 33.4108 30.9727 33.4108Z" fill="#C32222"/>
<path d="M27.6868 24.4323C27.6868 25.5642 27.6868 26.6089 27.6868 27.6864C27.1426 27.6864 26.6203 27.6864 26.0652 27.6864C26.0652 26.3042 26.0543 24.933 26.0761 23.5726C26.087 23.1481 26.3808 22.8543 26.7944 22.8543C28.1656 22.8325 29.526 22.8434 30.919 22.8434C30.919 23.3876 30.919 23.8882 30.919 24.4432C29.8743 24.4323 28.8186 24.4323 27.6868 24.4323Z" fill="#C32222"/>
<path d="M29.3408 30.9731C29.3408 30.4072 29.3408 29.9065 29.3408 29.3515C30.4182 29.3515 31.4739 29.3515 32.5622 29.3515C32.5622 28.2523 32.5622 27.2076 32.5622 26.1193C33.1063 26.1193 33.6287 26.1193 34.2164 26.1193C34.2164 26.4349 34.2164 26.7614 34.2164 27.0987C34.2164 28.0782 34.2273 29.0686 34.2164 30.048C34.2055 30.6248 33.9117 30.9622 33.3567 30.9622C32.0289 30.984 30.7121 30.9731 29.3408 30.9731Z" fill="#C32222"/>
<path d="M32.6162 22.8434C33.1386 22.8434 33.6501 22.8434 34.1725 22.8434C34.1725 23.3767 34.1725 23.8882 34.1725 24.4323C33.6501 24.4323 33.1495 24.4323 32.6162 24.4323C32.6162 23.9208 32.6162 23.4093 32.6162 22.8434Z" fill="#C32222"/>
<path d="M30.908 27.6973C30.3638 27.6973 29.8632 27.6973 29.3408 27.6973C29.3408 27.1749 29.3408 26.6743 29.3408 26.1301C29.8414 26.1301 30.3638 26.1301 30.908 26.1301C30.908 26.6307 30.908 27.1422 30.908 27.6973Z" fill="#C32222"/>
<path d="M27.6541 30.9513C27.1208 30.9513 26.6202 30.9513 26.0869 30.9513C26.0869 30.4289 26.0869 29.9283 26.0869 29.3842C26.5875 29.3842 27.099 29.3842 27.6541 29.3842C27.6541 29.8848 27.6541 30.3963 27.6541 30.9513Z" fill="#C32222"/>
<path d="M21.1235 17.9242C20.5902 17.9242 20.1005 17.9242 19.5781 17.9242C19.5781 17.4019 19.5781 16.8904 19.5781 16.3353C20.0787 16.3353 20.6011 16.3353 21.1235 16.3353C21.1235 16.8686 21.1235 17.4019 21.1235 17.9242Z" fill="#C32222"/>
<path d="M30.9187 17.9134C30.3963 17.9134 29.8957 17.9134 29.3516 17.9134C29.3516 17.4019 29.3516 16.8795 29.3516 16.3353C29.8631 16.3353 30.3746 16.3353 30.9187 16.3353C30.9187 16.8577 30.9187 17.3583 30.9187 17.9134Z" fill="#C32222"/>
</svg>
