<svg width="32" height="32" viewBox="0 0 32 32" fill="none" xmlns="http://www.w3.org/2000/svg">
<g clip-path="url(#clip0_1384_14088)">
<path d="M28.5308 16.3333C29.1581 16.3333 29.6717 16.8428 29.6183 17.4678C29.4141 19.8594 28.5671 22.1592 27.1573 24.1191C25.5257 26.3874 23.2228 28.0858 20.5737 28.9744C17.9247 29.863 15.0634 29.8969 12.3941 29.0714C9.72469 28.2459 7.3821 26.6027 5.69715 24.3738C4.01221 22.1449 3.07005 19.443 3.00376 16.6497C2.93746 13.8563 3.75037 11.1128 5.32768 8.80646C6.90499 6.50013 9.16698 4.74761 11.7942 3.79639C14.0643 2.97447 16.5079 2.78672 18.8646 3.24242C19.4805 3.36152 19.8306 3.99453 19.6595 4.59805C19.4885 5.20158 18.8609 5.54598 18.243 5.43768C16.3469 5.10534 14.3898 5.27255 12.5675 5.93234C10.3879 6.72149 8.51132 8.17544 7.20274 10.0888C5.89417 12.0022 5.21975 14.2783 5.27475 16.5958C5.32976 18.9132 6.11139 21.1547 7.50927 23.0039C8.90715 24.8531 10.8506 26.2163 13.0652 26.9012C15.2798 27.5861 17.6536 27.5579 19.8513 26.8207C22.049 26.0835 23.9596 24.6744 25.3132 22.7926C26.4449 21.2193 27.1395 19.382 27.3368 17.4672C27.4011 16.8432 27.9036 16.3333 28.5308 16.3333Z" fill="#FF9626" stroke="#FF9626" stroke-width="0.5"/>
<path d="M11.832 16.8333L14.3589 20.3709C14.7557 20.9263 15.5799 20.9299 15.9814 20.3779L25.832 6.83325" stroke="#FF9626" stroke-width="3" stroke-linecap="round"/>
</g>
<defs>
<clipPath id="clip0_1384_14088">
<path d="M0 4C0 1.79086 1.79086 0 4 0H28C30.2091 0 32 1.79086 32 4V28C32 30.2091 30.2091 32 28 32H4C1.79086 32 0 30.2091 0 28V4Z" fill="white"/>
</clipPath>
</defs>
</svg>
