<svg width="177" height="128" viewBox="0 0 177 128" fill="none" xmlns="http://www.w3.org/2000/svg">
<g clip-path="url(#clip0_476_23368)">
<path d="M177 0H0V128H177V0Z" fill="white"/>
<path d="M107.866 46.7325H97.5653C96.3144 46.7325 95.3579 45.776 95.3579 44.5252C95.3579 43.2743 96.3144 42.3178 97.5653 42.3178H105.659V34.2242C105.659 32.9733 106.615 32.0168 107.866 32.0168C109.117 32.0168 110.074 32.9733 110.074 34.2242V44.5252C110.074 45.7024 109.117 46.7325 107.866 46.7325Z" fill="#5EAB2B"/>
<path d="M88 73C75.8595 73 66 63.1405 66 51C66 38.8595 75.8595 29 88 29C96.8294 29 104.85 34.2977 108.308 42.4649C108.749 43.5686 108.234 44.893 107.13 45.3344C106.027 45.7759 104.702 45.2609 104.261 44.1572C101.465 37.6087 95.0635 33.4147 88 33.4147C78.2876 33.4147 70.4147 41.2876 70.4147 51C70.4147 60.7124 78.2876 68.5853 88 68.5853C96.903 68.5853 104.408 61.9632 105.438 53.2074C105.585 52.0301 106.689 51.1472 107.866 51.2943C109.043 51.4415 109.926 52.5451 109.779 53.7224C108.455 64.6856 99.1104 73 88 73Z" fill="#5EAB2B"/>
<path d="M45.064 112V111.148H46.6V112H45.064ZM43.108 114.652C43.004 114.652 42.896 114.644 42.784 114.628C42.664 114.62 42.548 114.612 42.436 114.604L42.544 113.752C42.656 113.76 42.76 113.768 42.856 113.776C42.952 113.792 43.036 113.8 43.108 113.8C43.484 113.8 43.788 113.656 44.02 113.368C44.252 113.088 44.368 112.696 44.368 112.192V106H45.304V112.192C45.304 112.68 45.208 113.108 45.016 113.476C44.832 113.852 44.576 114.14 44.248 114.34C43.92 114.548 43.54 114.652 43.108 114.652ZM46.6 112V111.148C46.648 111.148 46.688 111.16 46.72 111.184C46.752 111.2 46.776 111.228 46.792 111.268C46.808 111.3 46.82 111.344 46.828 111.4C46.836 111.448 46.84 111.504 46.84 111.568C46.84 111.632 46.836 111.692 46.828 111.748C46.82 111.804 46.808 111.852 46.792 111.892C46.776 111.924 46.752 111.952 46.72 111.976C46.688 111.992 46.648 112 46.6 112ZM44.368 104.92V103.84H45.304V104.92H44.368ZM46.5977 112V111.148H53.1617L52.4657 111.64V109.06C52.4657 108.5 52.4017 108.06 52.2737 107.74C52.1457 107.42 51.9257 107.192 51.6137 107.056C51.3097 106.92 50.8937 106.852 50.3657 106.852C50.0297 106.852 49.6937 106.876 49.3577 106.924C49.0297 106.972 48.7737 107.036 48.5897 107.116L49.1537 106.54C49.1057 106.732 49.0577 106.976 49.0097 107.272C48.9617 107.56 48.9217 107.872 48.8897 108.208C48.8577 108.544 48.8417 108.88 48.8417 109.216C48.8417 109.56 48.8577 109.896 48.8897 110.224C48.9217 110.552 48.9577 110.836 48.9977 111.076C49.0377 111.316 49.0697 111.484 49.0937 111.58L48.2057 111.832C48.1737 111.728 48.1337 111.548 48.0857 111.292C48.0457 111.036 48.0057 110.728 47.9657 110.368C47.9337 110.008 47.9177 109.624 47.9177 109.216C47.9177 108.824 47.9337 108.444 47.9657 108.076C48.0057 107.7 48.0497 107.36 48.0977 107.056C48.1537 106.752 48.2057 106.508 48.2537 106.324C48.4297 106.252 48.7097 106.18 49.0937 106.108C49.4777 106.036 49.9017 106 50.3657 106C51.0377 106 51.5977 106.1 52.0457 106.3C52.5017 106.5 52.8417 106.824 53.0657 107.272C53.2897 107.712 53.4017 108.308 53.4017 109.06V112H46.5977ZM46.5977 112C46.5497 112 46.5097 111.992 46.4777 111.976C46.4457 111.952 46.4217 111.924 46.4057 111.892C46.3897 111.852 46.3777 111.804 46.3697 111.748C46.3617 111.692 46.3577 111.632 46.3577 111.568C46.3577 111.48 46.3657 111.408 46.3817 111.352C46.3897 111.288 46.4137 111.24 46.4537 111.208C46.4857 111.168 46.5337 111.148 46.5977 111.148V112ZM56.3609 112V111.148H57.8969V112H56.3609ZM54.4049 114.652C54.3009 114.652 54.1929 114.644 54.0809 114.628C53.9609 114.62 53.8449 114.612 53.7329 114.604L53.8409 113.752C53.9529 113.76 54.0569 113.768 54.1529 113.776C54.2489 113.792 54.3329 113.8 54.4049 113.8C54.7809 113.8 55.0849 113.656 55.3169 113.368C55.5489 113.088 55.6649 112.696 55.6649 112.192V106H56.6009V112.192C56.6009 112.68 56.5049 113.108 56.3129 113.476C56.1289 113.852 55.8729 114.14 55.5449 114.34C55.2169 114.548 54.8369 114.652 54.4049 114.652ZM57.8969 112V111.148C57.9449 111.148 57.9849 111.16 58.0169 111.184C58.0489 111.2 58.0729 111.228 58.0889 111.268C58.1049 111.3 58.1169 111.344 58.1249 111.4C58.1329 111.448 58.1369 111.504 58.1369 111.568C58.1369 111.632 58.1329 111.692 58.1249 111.748C58.1169 111.804 58.1049 111.852 58.0889 111.892C58.0729 111.924 58.0489 111.952 58.0169 111.976C57.9849 111.992 57.9449 112 57.8969 112ZM59.3465 112V103.396H60.2825V112H59.3465ZM57.8945 112V111.148H59.3465V112H57.8945ZM57.8945 112C57.8465 112 57.8065 111.992 57.7745 111.976C57.7425 111.952 57.7185 111.924 57.7025 111.892C57.6865 111.852 57.6745 111.804 57.6665 111.748C57.6585 111.692 57.6545 111.632 57.6545 111.568C57.6545 111.48 57.6625 111.408 57.6785 111.352C57.6865 111.288 57.7105 111.24 57.7505 111.208C57.7825 111.168 57.8305 111.148 57.8945 111.148V112ZM62.3512 112V103.396H63.2752V112H62.3512ZM74.1506 112V111.148H75.4466V112H74.1506ZM70.9106 114.976C70.2786 114.976 69.7066 114.86 69.1946 114.628C68.6826 114.396 68.2786 114.072 67.9826 113.656C67.6866 113.24 67.5386 112.764 67.5386 112.228C67.5386 112.06 67.5506 111.84 67.5746 111.568C67.6066 111.288 67.6426 110.98 67.6826 110.644C67.7306 110.3 67.7826 109.956 67.8386 109.612C67.8946 109.26 67.9466 108.928 67.9946 108.616L68.9186 108.76C68.8306 109.312 68.7506 109.824 68.6786 110.296C68.6146 110.76 68.5626 111.16 68.5226 111.496C68.4906 111.824 68.4746 112.068 68.4746 112.228C68.4746 112.596 68.5746 112.92 68.7746 113.2C68.9826 113.488 69.2706 113.712 69.6386 113.872C70.0066 114.04 70.4306 114.124 70.9106 114.124C71.3906 114.124 71.8026 114.048 72.1466 113.896C72.4906 113.744 72.7546 113.532 72.9386 113.26C73.1226 112.988 73.2146 112.668 73.2146 112.3V103.396H74.1506V112.3C74.1506 112.86 74.0026 113.34 73.7066 113.74C73.4186 114.14 73.0306 114.444 72.5426 114.652C72.0546 114.868 71.5106 114.976 70.9106 114.976ZM75.4466 112V111.148C75.4946 111.148 75.5346 111.16 75.5666 111.184C75.5986 111.2 75.6226 111.228 75.6386 111.268C75.6546 111.3 75.6666 111.344 75.6746 111.4C75.6826 111.448 75.6866 111.504 75.6866 111.568C75.6866 111.632 75.6826 111.692 75.6746 111.748C75.6666 111.804 75.6546 111.852 75.6386 111.892C75.6226 111.924 75.5986 111.952 75.5666 111.976C75.5346 111.992 75.4946 112 75.4466 112ZM77.6812 112V111.148H78.9772V112H77.6812ZM78.9772 112V111.148C79.0252 111.148 79.0652 111.16 79.0972 111.184C79.1292 111.2 79.1532 111.228 79.1692 111.268C79.1852 111.3 79.1972 111.344 79.2052 111.4C79.2132 111.448 79.2172 111.504 79.2172 111.568C79.2172 111.632 79.2132 111.692 79.2052 111.748C79.1972 111.804 79.1852 111.852 79.1692 111.892C79.1532 111.924 79.1292 111.952 79.0972 111.976C79.0652 111.992 79.0252 112 78.9772 112ZM75.4492 112C75.4012 112 75.3612 111.992 75.3292 111.976C75.2972 111.952 75.2732 111.924 75.2572 111.892C75.2412 111.852 75.2292 111.804 75.2212 111.748C75.2132 111.692 75.2092 111.632 75.2092 111.568C75.2092 111.48 75.2172 111.408 75.2332 111.352C75.2412 111.288 75.2652 111.24 75.3052 111.208C75.3372 111.168 75.3852 111.148 75.4492 111.148V112ZM75.4492 112V111.148H77.1772L76.7452 111.496V106H77.6812V112H75.4492ZM75.9292 114.16V113.08H76.8652V114.16H75.9292ZM77.5732 114.16V113.08H78.5092V114.16H77.5732ZM85.7806 112V111.148H87.0766V112H85.7806ZM78.9766 112C78.9286 112 78.8886 111.992 78.8566 111.976C78.8246 111.952 78.8006 111.924 78.7846 111.892C78.7686 111.852 78.7566 111.804 78.7486 111.748C78.7406 111.692 78.7366 111.632 78.7366 111.568C78.7366 111.48 78.7446 111.408 78.7606 111.352C78.7686 111.288 78.7926 111.24 78.8326 111.208C78.8646 111.168 78.9126 111.148 78.9766 111.148V112ZM78.9766 112V111.148H85.5406L84.8446 111.64V109.06C84.8446 108.5 84.7806 108.06 84.6526 107.74C84.5246 107.42 84.3046 107.192 83.9926 107.056C83.6886 106.92 83.2726 106.852 82.7446 106.852C82.4086 106.852 82.0726 106.876 81.7366 106.924C81.4086 106.972 81.1526 107.036 80.9686 107.116L81.5326 106.54C81.4846 106.732 81.4366 106.976 81.3886 107.272C81.3406 107.56 81.3006 107.872 81.2686 108.208C81.2366 108.544 81.2206 108.88 81.2206 109.216C81.2206 109.56 81.2366 109.896 81.2686 110.224C81.3006 110.552 81.3366 110.836 81.3766 111.076C81.4166 111.316 81.4486 111.484 81.4726 111.58L80.5846 111.832C80.5526 111.728 80.5126 111.548 80.4646 111.292C80.4246 111.036 80.3846 110.728 80.3446 110.368C80.3126 110.008 80.2966 109.624 80.2966 109.216C80.2966 108.824 80.3126 108.444 80.3446 108.076C80.3846 107.7 80.4286 107.36 80.4766 107.056C80.5326 106.752 80.5846 106.508 80.6326 106.324C80.8086 106.252 81.0886 106.18 81.4726 106.108C81.8566 106.036 82.2806 106 82.7446 106C83.4166 106 83.9766 106.1 84.4246 106.3C84.8806 106.5 85.2206 106.824 85.4446 107.272C85.6686 107.712 85.7806 108.308 85.7806 109.06V112H78.9766ZM87.0766 112V111.148C87.1246 111.148 87.1646 111.16 87.1966 111.184C87.2286 111.2 87.2526 111.228 87.2686 111.268C87.2846 111.3 87.2966 111.344 87.3046 111.4C87.3126 111.448 87.3166 111.504 87.3166 111.568C87.3166 111.632 87.3126 111.692 87.3046 111.748C87.2966 111.804 87.2846 111.852 87.2686 111.892C87.2526 111.924 87.2286 111.952 87.1966 111.976C87.1646 111.992 87.1246 112 87.0766 112ZM93.0142 112V111.148H94.3102V112H93.0142ZM87.0742 112C87.0262 112 86.9862 111.992 86.9542 111.976C86.9222 111.952 86.8982 111.924 86.8822 111.892C86.8662 111.852 86.8542 111.804 86.8462 111.748C86.8382 111.692 86.8342 111.632 86.8342 111.568C86.8342 111.48 86.8422 111.408 86.8582 111.352C86.8662 111.288 86.8902 111.24 86.9302 111.208C86.9622 111.168 87.0102 111.148 87.0742 111.148V112ZM87.0742 112V111.148H92.3662L92.0782 111.4V108.424C92.0782 107.904 91.9142 107.516 91.5862 107.26C91.2662 106.996 90.7742 106.864 90.1102 106.864C89.9022 106.864 89.6022 106.884 89.2102 106.924C88.8182 106.956 88.4062 107.004 87.9742 107.068L87.8662 106.3C88.1942 106.22 88.5542 106.152 88.9462 106.096C89.3382 106.032 89.7182 106 90.0862 106C90.6942 106 91.2142 106.096 91.6462 106.288C92.0862 106.472 92.4222 106.744 92.6542 107.104C92.8942 107.464 93.0142 107.904 93.0142 108.424V112H87.0742ZM94.3102 112V111.148C94.3582 111.148 94.3982 111.16 94.4302 111.184C94.4622 111.2 94.4862 111.228 94.5022 111.268C94.5182 111.3 94.5302 111.344 94.5382 111.4C94.5462 111.448 94.5502 111.504 94.5502 111.568C94.5502 111.632 94.5462 111.692 94.5382 111.748C94.5302 111.804 94.5182 111.852 94.5022 111.892C94.4862 111.924 94.4622 111.952 94.4302 111.976C94.3982 111.992 94.3582 112 94.3102 112ZM96.5367 112V111.148H97.8327V112H96.5367ZM97.8327 112V111.148C97.8807 111.148 97.9207 111.16 97.9527 111.184C97.9847 111.2 98.0087 111.228 98.0247 111.268C98.0407 111.3 98.0527 111.344 98.0607 111.4C98.0687 111.448 98.0727 111.504 98.0727 111.568C98.0727 111.632 98.0687 111.692 98.0607 111.748C98.0527 111.804 98.0407 111.852 98.0247 111.892C98.0087 111.924 97.9847 111.952 97.9527 111.976C97.9207 111.992 97.8807 112 97.8327 112ZM94.3047 112C94.2567 112 94.2167 111.992 94.1847 111.976C94.1527 111.952 94.1287 111.924 94.1127 111.892C94.0967 111.852 94.0847 111.804 94.0767 111.748C94.0687 111.692 94.0647 111.632 94.0647 111.568C94.0647 111.48 94.0727 111.408 94.0887 111.352C94.0967 111.288 94.1207 111.24 94.1607 111.208C94.1927 111.168 94.2407 111.148 94.3047 111.148V112ZM94.3047 112V111.148H96.0327L95.6007 111.496V106H96.5367V112H94.3047ZM94.7847 104.92V103.84H95.7207V104.92H94.7847ZM96.4287 104.92V103.84H97.3647V104.92H96.4287ZM99.284 112V103.396H100.22V112H99.284ZM97.832 112V111.148H99.284V112H97.832ZM97.832 112C97.784 112 97.744 111.992 97.712 111.976C97.68 111.952 97.656 111.924 97.64 111.892C97.624 111.852 97.612 111.804 97.604 111.748C97.596 111.692 97.592 111.632 97.592 111.568C97.592 111.48 97.6 111.408 97.616 111.352C97.624 111.288 97.648 111.24 97.688 111.208C97.72 111.168 97.768 111.148 97.832 111.148V112ZM112.029 112V111.148H113.337V112H112.029ZM104.013 112V111.148H111.969L111.105 111.928V109.108C111.105 108.604 111.033 108.188 110.889 107.86C110.753 107.524 110.545 107.272 110.265 107.104C109.993 106.936 109.649 106.852 109.233 106.852C108.881 106.852 108.553 106.912 108.249 107.032C107.953 107.144 107.677 107.296 107.421 107.488C107.165 107.672 106.925 107.88 106.701 108.112C106.485 108.336 106.285 108.564 106.101 108.796C105.917 109.028 105.749 109.24 105.597 109.432L105.285 108.58C105.533 108.268 105.785 107.96 106.041 107.656C106.297 107.352 106.577 107.076 106.881 106.828C107.185 106.58 107.529 106.38 107.913 106.228C108.297 106.076 108.737 106 109.233 106C109.801 106 110.265 106.096 110.625 106.288C110.993 106.48 111.277 106.736 111.477 107.056C111.685 107.368 111.829 107.704 111.909 108.064C111.989 108.424 112.029 108.772 112.029 109.108V112H104.013ZM104.805 111.148V103.396H105.741V111.148H104.805ZM113.337 112V111.148C113.385 111.148 113.425 111.16 113.457 111.184C113.489 111.2 113.513 111.228 113.529 111.268C113.545 111.3 113.557 111.344 113.565 111.4C113.573 111.448 113.577 111.504 113.577 111.568C113.577 111.632 113.573 111.692 113.565 111.748C113.557 111.804 113.545 111.852 113.529 111.892C113.513 111.924 113.489 111.952 113.457 111.976C113.425 111.992 113.385 112 113.337 112ZM113.336 112V111.148H114.944C115.424 111.148 115.884 111.072 116.324 110.92C116.764 110.76 117.168 110.552 117.536 110.296C117.904 110.032 118.224 109.744 118.496 109.432C118.768 109.112 118.98 108.788 119.132 108.46C119.284 108.132 119.36 107.824 119.36 107.536V106.816L119.864 107.572C119.4 107.332 118.944 107.152 118.496 107.032C118.048 106.912 117.612 106.852 117.188 106.852C116.764 106.852 116.328 106.912 115.88 107.032C115.432 107.152 114.98 107.332 114.524 107.572L115.028 106.816V107.536C115.028 107.824 115.104 108.132 115.256 108.46C115.408 108.788 115.616 109.112 115.88 109.432C116.152 109.744 116.472 110.032 116.84 110.296C117.208 110.552 117.612 110.76 118.052 110.92C118.492 111.072 118.952 111.148 119.432 111.148H120.968V112H119.432C118.808 112 118.224 111.9 117.68 111.7C117.136 111.5 116.644 111.236 116.204 110.908C115.764 110.572 115.384 110.208 115.064 109.816C114.752 109.416 114.512 109.02 114.344 108.628C114.176 108.228 114.092 107.864 114.092 107.536V106.816C114.436 106.632 114.784 106.48 115.136 106.36C115.488 106.24 115.836 106.152 116.18 106.096C116.532 106.032 116.868 106 117.188 106C117.516 106 117.852 106.032 118.196 106.096C118.54 106.152 118.888 106.24 119.24 106.36C119.592 106.48 119.94 106.632 120.284 106.816V107.536C120.284 107.864 120.2 108.228 120.032 108.628C119.864 109.02 119.62 109.416 119.3 109.816C118.988 110.208 118.612 110.572 118.172 110.908C117.732 111.236 117.24 111.5 116.696 111.7C116.152 111.9 115.568 112 114.944 112H113.336ZM113.336 112C113.288 112 113.248 111.992 113.216 111.976C113.184 111.952 113.16 111.924 113.144 111.892C113.128 111.852 113.116 111.804 113.108 111.748C113.1 111.692 113.096 111.632 113.096 111.568C113.096 111.48 113.104 111.408 113.12 111.352C113.128 111.288 113.152 111.24 113.192 111.208C113.224 111.168 113.272 111.148 113.336 111.148V112ZM120.968 112V111.148C121.016 111.148 121.056 111.16 121.088 111.184C121.12 111.2 121.144 111.228 121.16 111.268C121.176 111.3 121.188 111.344 121.196 111.4C121.204 111.448 121.208 111.504 121.208 111.568C121.208 111.632 121.204 111.692 121.196 111.748C121.188 111.804 121.176 111.852 121.16 111.892C121.144 111.924 121.12 111.952 121.088 111.976C121.056 111.992 121.016 112 120.968 112ZM116.708 104.92V103.84H117.644V104.92H116.708ZM120.965 112V111.148H129.833L128.969 111.928V109.108C128.969 108.604 128.897 108.188 128.753 107.86C128.617 107.524 128.409 107.272 128.129 107.104C127.857 106.936 127.513 106.852 127.097 106.852C126.745 106.852 126.417 106.912 126.113 107.032C125.817 107.144 125.541 107.296 125.285 107.488C125.029 107.672 124.789 107.88 124.565 108.112C124.349 108.336 124.149 108.564 123.965 108.796C123.781 109.028 123.613 109.24 123.461 109.432L123.161 108.58C123.361 108.332 123.561 108.084 123.761 107.836C123.969 107.588 124.185 107.356 124.409 107.14C124.633 106.916 124.877 106.72 125.141 106.552C125.413 106.384 125.709 106.252 126.029 106.156C126.349 106.052 126.709 106 127.109 106C127.677 106 128.141 106.096 128.501 106.288C128.869 106.48 129.153 106.736 129.353 107.056C129.561 107.368 129.705 107.704 129.785 108.064C129.865 108.424 129.905 108.772 129.905 109.108V112H120.965ZM122.669 111.148V106H123.605V111.148H122.669ZM120.965 112C120.917 112 120.877 111.992 120.845 111.976C120.813 111.952 120.789 111.924 120.773 111.892C120.757 111.852 120.745 111.804 120.737 111.748C120.729 111.692 120.725 111.632 120.725 111.568C120.725 111.48 120.733 111.408 120.749 111.352C120.757 111.288 120.781 111.24 120.821 111.208C120.853 111.168 120.901 111.148 120.965 111.148V112ZM125.945 104.932V103.852H126.881V104.932H125.945ZM131.961 112V103.396H132.885V112H131.961Z" fill="#504949"/>
</g>
<defs>
<clipPath id="clip0_476_23368">
<rect width="177" height="128" rx="12" fill="white"/>
</clipPath>
</defs>
</svg>
