<svg width="13" height="12" viewBox="0 0 13 12" fill="none" xmlns="http://www.w3.org/2000/svg">
<path d="M11.1953 2.30311C11.1953 3.41094 11.1953 4.51876 11.1953 5.63388C11.1953 5.83066 11.188 6.03474 11.1953 6.23152C11.2099 6.57407 11.465 6.83645 11.8002 6.85832C12.1282 6.88018 12.4124 6.65425 12.4707 6.30441C12.4853 6.22423 12.4853 6.14406 12.4853 6.0566C12.4853 4.3074 12.4853 2.5582 12.4853 0.809005C12.4853 0.247804 12.2448 0 11.6909 0C9.93441 0 8.17792 0 6.41414 0C6.08617 0 5.8165 0.0874605 5.67802 0.408147C5.48853 0.852735 5.80921 1.29732 6.31211 1.29732C7.50739 1.30461 8.69539 1.29732 9.89068 1.29732C9.98542 1.29732 10.0875 1.29732 10.2405 1.29732C10.1385 1.40665 10.0729 1.47953 10.0073 1.54513C6.95348 4.62809 3.88509 7.69648 0.809417 10.7722C0.605344 10.9762 0.445001 11.1803 0.517884 11.4937C0.627209 11.9529 1.14468 12.1496 1.52367 11.8727C1.61842 11.7998 1.69859 11.7123 1.78605 11.6322C4.83258 8.57836 7.88639 5.53184 10.9256 2.48532C10.9985 2.41244 11.0422 2.32498 11.1005 2.24481C11.137 2.26667 11.1661 2.28125 11.1953 2.30311Z" fill="#C32222"/>
</svg>
