<svg width="32" height="33" viewBox="0 0 32 33" fill="none" xmlns="http://www.w3.org/2000/svg">
<path d="M4.18183 16.5116C4.14479 9.98322 9.49712 4.68646 16.0023 4.68183C22.5029 4.6772 27.8321 9.99711 27.8182 16.4931C27.8043 23.0399 22.5353 28.3089 15.9977 28.3182C9.48323 28.3274 4.14942 22.9936 4.18183 16.5116ZM23.8178 22.5908C26.8505 18.8451 26.8505 12.6594 22.3547 8.87664C18.2664 5.43189 12.8122 6.21437 9.95549 8.66829C14.5716 13.3076 19.1878 17.9423 23.8178 22.5908ZM8.17293 10.4138C5.20507 14.0669 5.12636 20.0767 9.36748 23.8919C13.4558 27.5681 19.0304 26.8782 22.0353 24.341C17.4191 19.7017 12.803 15.067 8.17293 10.4138Z" fill="#C32222" stroke="#C32222" stroke-width="0.2"/>
</svg>
