<svg width="20" height="20" viewBox="0 0 20 20" fill="none" xmlns="http://www.w3.org/2000/svg">
<path d="M3.00256 10.0829C3.00256 7.724 3.00498 5.36506 3.00111 3.00612C3.00014 2.2482 3.3007 1.6621 3.95069 1.26426C4.28657 1.05857 4.65972 1.00485 5.04739 1.00485C7.89612 1.00679 10.7449 1.00921 13.5936 1.00001C13.8448 0.999042 14.0156 1.0697 14.1918 1.24829C15.1583 2.23175 16.1398 3.20068 17.1112 4.1793C17.1668 4.23544 17.2085 4.33466 17.2085 4.41403C17.2128 8.70261 17.2147 12.9907 17.2099 17.2793C17.2089 18.3508 16.3823 19.177 15.3103 19.1784C11.8445 19.1833 8.37865 19.1828 4.91285 19.1789C3.86357 19.1775 3.06064 18.406 3.00982 17.3587C2.99337 17.0145 3.00256 16.6695 3.00256 16.3244C3.00208 14.2442 3.00256 12.1636 3.00256 10.0829ZM13.6555 1.42301C13.5713 1.42301 13.5118 1.42301 13.4518 1.42301C10.6272 1.42301 7.80271 1.42253 4.97818 1.4235C4.03635 1.4235 3.41637 2.0488 3.41637 2.99741C3.41588 7.72738 3.41588 12.4569 3.41637 17.1868C3.41637 18.1543 4.0378 18.7753 5.00335 18.7753C8.40237 18.7758 11.8019 18.7753 15.2009 18.7753C16.1781 18.7753 16.8024 18.1553 16.8024 17.1791C16.8034 13.0483 16.8029 8.91702 16.8029 4.78622C16.8029 4.72136 16.8029 4.65651 16.8029 4.56794C16.7167 4.56794 16.6519 4.56794 16.5875 4.56794C16.013 4.56794 15.4376 4.54664 14.864 4.57326C14.0766 4.60956 13.6183 4.04814 13.6497 3.36814C13.6788 2.72928 13.6555 2.08801 13.6555 1.42301ZM16.4268 4.15268C15.637 3.36427 14.849 2.5778 14.063 1.79326C14.063 2.31887 14.0626 2.86674 14.0635 3.41509C14.0635 3.48139 14.064 3.54867 14.0742 3.61401C14.1235 3.9315 14.3621 4.14445 14.684 4.15123C14.9623 4.15704 15.2401 4.15316 15.5184 4.15316C15.8301 4.15268 16.1422 4.15268 16.4268 4.15268Z" fill="#39629C" stroke="#39629C" stroke-width="0.5"/>
<path d="M7.51147 11.0646C6.0479 11.0665 4.83843 9.86576 4.84279 8.40074C4.84666 6.97832 5.92497 5.81869 7.3203 5.73641C9.11394 5.63042 10.1927 7.08818 10.1787 8.39978C10.1632 9.87157 8.98278 11.0631 7.51147 11.0646ZM7.5105 6.13715C7.49598 6.16861 7.48727 6.17877 7.48727 6.18942C7.48582 6.85393 7.48195 7.51893 7.48872 8.18344C7.48921 8.23667 7.54971 8.3083 7.60149 8.33879C8.04385 8.59869 8.49057 8.85085 8.9368 9.10494C9.12362 9.21142 9.31141 9.31644 9.51516 9.43115C9.88444 8.64274 9.86315 7.89014 9.40191 7.17385C8.961 6.49094 8.31488 6.15893 7.5105 6.13715ZM7.07201 6.18991C6.15293 6.35591 5.42937 7.12303 5.27885 8.06147C5.15931 8.80874 5.53779 9.78736 6.06339 10.0802C6.23859 9.77719 6.38863 9.4568 6.59384 9.1756C6.99313 8.62676 7.14122 8.03098 7.07879 7.35921C7.04298 6.97735 7.07201 6.58919 7.07201 6.18991ZM9.27801 9.77332C8.62899 9.40356 7.994 9.04154 7.35031 8.67516C7.02362 9.24142 6.70806 9.78784 6.39299 10.3333C7.26803 10.915 8.64012 10.6527 9.27801 9.77332Z" fill="#39629C" stroke="#39629C" stroke-width="0.5"/>
<path d="M4.84021 14.9036C4.84021 14.1419 4.84021 13.3801 4.84021 12.6183C4.84021 12.3264 4.88861 12.2766 5.17125 12.2766C6.53125 12.2766 7.89173 12.2761 9.25172 12.2766C9.52082 12.2766 9.5726 12.3264 9.57309 12.5907C9.57405 14.1443 9.57405 15.6979 9.57309 17.2519C9.57309 17.5026 9.51307 17.5622 9.26092 17.5627C7.89463 17.5636 6.52834 17.5636 5.16206 17.5627C4.8978 17.5627 4.84069 17.5046 4.84069 17.2432C4.83972 16.463 4.84021 15.6833 4.84021 14.9036ZM5.27337 12.6957C5.27337 14.1811 5.27337 15.6577 5.27337 17.1353C6.57239 17.1353 7.85736 17.1353 9.14718 17.1353C9.14718 15.6514 9.14718 14.1786 9.14718 12.6957C7.85252 12.6957 6.56755 12.6957 5.27337 12.6957Z" fill="#39629C" stroke="#39629C" stroke-width="0.5"/>
<path d="M8.57313 4.56798C7.44254 4.56798 6.31195 4.56846 5.18088 4.56798C4.89049 4.56798 4.84064 4.51861 4.84016 4.23306C4.83967 3.84587 4.83919 3.45917 4.84016 3.07198C4.84064 2.81644 4.8963 2.75739 5.14458 2.75739C7.43625 2.75691 9.72791 2.75643 12.0191 2.75739C12.2606 2.75739 12.3119 2.81305 12.3124 3.06085C12.3134 3.46014 12.3134 3.85894 12.3124 4.25823C12.3119 4.507 12.2524 4.56749 12.0012 4.56749C10.859 4.56846 9.71581 4.56798 8.57313 4.56798ZM5.268 4.14207C7.48852 4.14207 9.68677 4.14207 11.8923 4.14207C11.8923 3.8149 11.8923 3.49837 11.8923 3.18088C9.67661 3.18088 7.47303 3.18088 5.268 3.18088C5.268 3.50612 5.268 3.81877 5.268 4.14207Z" fill="#39629C" stroke="#39629C" stroke-width="0.5"/>
<path d="M13.5476 15.0724C13.5476 15.7974 13.548 16.5224 13.5476 17.2474C13.5476 17.5029 13.4929 17.5601 13.2426 17.5625C12.9827 17.5644 12.7228 17.5659 12.4634 17.5615C12.2529 17.5581 12.1948 17.4986 12.1948 17.2871C12.1938 15.8129 12.1938 14.3387 12.1948 12.8649C12.1948 12.6437 12.2495 12.5924 12.4794 12.5905C12.7393 12.5881 12.9992 12.5886 13.2586 12.5905C13.4933 12.5924 13.5476 12.6462 13.5476 12.8794C13.548 13.6107 13.5476 14.3416 13.5476 15.0724ZM12.6125 13.0087C12.6125 14.3967 12.6125 15.7654 12.6125 17.1322C12.7901 17.1322 12.9552 17.1322 13.1216 17.1322C13.1216 15.7504 13.1216 14.3822 13.1216 13.0087C12.9464 13.0087 12.7853 13.0087 12.6125 13.0087Z" fill="#39629C" stroke="#39629C" stroke-width="0.2"/>
<path d="M15.3726 15.6393C15.3726 16.1775 15.3736 16.7162 15.3721 17.2544C15.3716 17.507 15.3169 17.5602 15.0595 17.5617C14.7996 17.5636 14.5392 17.5656 14.2793 17.5607C14.0833 17.5569 14.0179 17.4896 14.0174 17.2955C14.016 16.1944 14.016 15.0934 14.0174 13.9923C14.0174 13.7939 14.0813 13.7285 14.2754 13.7266C14.5537 13.7237 14.832 13.7242 15.1103 13.7266C15.3107 13.7285 15.3707 13.7861 15.3716 13.9875C15.3741 14.5383 15.3721 15.089 15.3726 15.6393ZM14.4351 14.1448C14.4351 15.1563 14.4351 16.1451 14.4351 17.1334C14.6142 17.1334 14.7802 17.1334 14.9433 17.1334C14.9433 16.1281 14.9433 15.1355 14.9433 14.1448C14.7657 14.1448 14.6045 14.1448 14.4351 14.1448Z" fill="#39629C" stroke="#39629C" stroke-width="0.2"/>
<path d="M11.7263 16.1454C11.7263 16.5195 11.7277 16.8941 11.7258 17.2682C11.7248 17.4914 11.6576 17.5596 11.4335 17.562C11.1678 17.5649 10.9021 17.5659 10.6364 17.5615C10.4297 17.5581 10.3644 17.4938 10.3639 17.2866C10.3615 16.5137 10.3615 15.7413 10.3639 14.9684C10.3644 14.7525 10.4321 14.6867 10.6465 14.6847C10.918 14.6823 11.19 14.6814 11.4616 14.6852C11.6522 14.6881 11.7244 14.7598 11.7258 14.95C11.7282 15.3483 11.7263 15.7466 11.7263 16.1454ZM11.2922 17.1376C11.2922 16.4522 11.2922 15.7858 11.2922 15.116C11.1165 15.116 10.9524 15.116 10.7883 15.116C10.7883 15.7969 10.7883 16.4634 10.7883 17.1376C10.9597 17.1376 11.1199 17.1376 11.2922 17.1376Z" fill="#39629C" stroke="#39629C" stroke-width="0.2"/>
<path d="M13.1828 9.02085C13.8047 9.02085 14.4266 9.02036 15.0485 9.02133C15.1086 9.02133 15.1831 9.01068 15.2242 9.04117C15.2847 9.08522 15.3568 9.1612 15.3583 9.22509C15.3597 9.28946 15.292 9.37174 15.2325 9.41481C15.186 9.44821 15.1052 9.43949 15.0398 9.43949C13.7902 9.44046 12.5401 9.44046 11.2904 9.43949C11.2251 9.43949 11.1438 9.44821 11.0978 9.41481C11.0383 9.37174 10.971 9.28946 10.9724 9.22557C10.9739 9.16169 11.0455 9.0857 11.106 9.04117C11.1472 9.01068 11.2222 9.02133 11.2817 9.02133C11.9152 9.02085 12.5493 9.02085 13.1828 9.02085Z" fill="#39629C" stroke="#39629C" stroke-width="0.5"/>
<path d="M13.1719 10.6484C13.8011 10.6484 14.4303 10.6479 15.0595 10.6494C15.119 10.6494 15.1955 10.6397 15.2347 10.6711C15.2932 10.7181 15.3605 10.7989 15.3586 10.8638C15.3566 10.9276 15.2841 11.0056 15.2221 11.0457C15.1732 11.0772 15.0934 11.0651 15.0271 11.0651C13.7871 11.0661 12.5466 11.0656 11.3067 11.0656C11.2767 11.0656 11.2462 11.0656 11.2162 11.0651C11.0729 11.0627 10.9587 11.0186 10.9635 10.8507C10.9679 10.6963 11.0753 10.6503 11.2118 10.6489C11.2539 10.6484 11.2965 10.6484 11.3386 10.6484C11.9499 10.6484 12.5607 10.6484 13.1719 10.6484Z" fill="#39629C" stroke="#39629C" stroke-width="0.5"/>
<path d="M13.1842 5.77869C13.8013 5.77869 14.4179 5.77869 15.035 5.77869C15.0892 5.77869 15.1599 5.7603 15.1947 5.78692C15.2634 5.83919 15.3568 5.91711 15.3568 5.9839C15.3568 6.0502 15.261 6.12522 15.1933 6.17943C15.1633 6.20363 15.0999 6.18717 15.0515 6.18717C13.7936 6.18717 12.5352 6.18717 11.2773 6.18717C11.2289 6.18717 11.1651 6.20363 11.1355 6.17943C11.0687 6.12522 10.9734 6.04924 10.9744 5.98341C10.9753 5.91614 11.0678 5.83628 11.1375 5.78788C11.1791 5.75933 11.2551 5.77917 11.3151 5.77917C11.938 5.77869 12.5609 5.77869 13.1842 5.77869Z" fill="#39629C" stroke="#39629C" stroke-width="0.5"/>
<path d="M13.1639 7.81465C12.5347 7.81465 11.906 7.81465 11.2769 7.81465C11.2285 7.81465 11.1641 7.83111 11.1351 7.80691C11.0683 7.75125 10.9749 7.67526 10.9744 7.60702C10.9739 7.54169 11.0687 7.46425 11.1375 7.41343C11.1733 7.38681 11.243 7.40375 11.2972 7.40375C12.543 7.40327 13.7892 7.40327 15.035 7.40375C15.0834 7.40375 15.1318 7.40278 15.1802 7.40762C15.3012 7.41924 15.3689 7.48748 15.368 7.60896C15.367 7.73044 15.2949 7.79626 15.1778 7.81223C15.1303 7.81852 15.081 7.81465 15.0326 7.81465C14.4097 7.81465 13.7868 7.81465 13.1639 7.81465Z" fill="#39629C" stroke="#39629C" stroke-width="0.5"/>
</svg>
