<svg width="32" height="33" viewBox="0 0 32 33" fill="none" xmlns="http://www.w3.org/2000/svg">
<g clip-path="url(#clip0_14_1803)">
<path d="M6.04541 17.3136C6.04541 14.4909 6.04541 11.5636 6.04541 8.7409C6.04541 7.5909 6.77723 6.75453 7.82268 6.54544C8.03177 6.54544 8.13632 6.54544 8.24086 6.54544C12.6318 6.54544 17.1272 6.54544 21.5181 6.54544C22.1454 6.54544 22.6681 6.75453 23.0863 7.06817C23.9227 7.79999 24.6545 8.63635 25.4909 9.47271C25.909 9.8909 26.0136 10.3091 26.0136 10.9363C26.0136 15.9545 26.0136 20.9727 26.0136 25.9909C26.0136 27.1409 25.0727 28.0818 23.9227 28.1863C23.8181 28.1863 23.7136 28.1863 23.7136 28.1863C18.5909 28.1863 13.4681 28.1863 8.34541 28.1863C7.82268 28.1863 7.29996 28.0818 6.88177 27.7682C6.2545 27.35 6.04541 26.7227 6.04541 25.9909C6.04541 23.0636 6.04541 20.1363 6.04541 17.3136ZM22.1454 26.9318C22.7727 26.9318 23.2954 26.9318 23.8181 26.9318C24.4454 26.9318 24.8636 26.5136 24.8636 25.8863C24.8636 20.8682 24.8636 15.9545 24.8636 10.9363C24.8636 10.6227 24.759 10.4136 24.55 10.2045C23.8181 9.47271 23.0863 8.63635 22.25 7.90453C21.9363 7.5909 21.6227 7.5909 21.309 7.69544C21.309 9.26362 21.309 10.8318 21.309 12.5045C21.309 13.4454 20.6818 13.9682 19.8454 13.9682C17.3363 13.9682 14.7227 13.9682 12.2136 13.9682C11.2727 13.9682 10.75 13.4454 10.75 12.5045C10.75 11.0409 10.75 9.47271 10.75 8.00908C10.75 7.90453 10.75 7.79999 10.75 7.69544C9.91359 7.69544 9.18177 7.69544 8.34541 7.69544C7.61359 7.69544 7.19541 8.11362 7.19541 8.84544C7.19541 12.9227 7.19541 16.8954 7.19541 20.9727C7.19541 22.6454 7.19541 24.3182 7.19541 25.8863C7.19541 26.5136 7.61359 26.9318 8.24086 26.9318C8.65905 26.9318 8.97268 26.9318 9.39087 26.9318C9.59996 26.9318 9.80905 26.9318 10.0181 26.9318C10.0181 26.8273 10.0181 26.7227 10.0181 26.6182C10.0181 24.1091 10.0181 21.6 10.0181 19.0909C10.0181 18.15 10.5409 17.6273 11.4818 17.6273C14.5136 17.6273 17.5454 17.6273 20.5772 17.6273C21.5181 17.6273 22.0409 18.15 22.0409 19.0909C22.0409 21.6 22.0409 24.1091 22.0409 26.6182C22.1454 26.7227 22.1454 26.8273 22.1454 26.9318ZM20.8909 26.9318C20.8909 26.8273 20.8909 26.8273 20.8909 26.8273C20.8909 24.2136 20.8909 21.6 20.8909 19.0909C20.8909 18.7773 20.8909 18.7773 20.5772 18.7773C17.5454 18.7773 14.5136 18.7773 11.4818 18.7773C11.1681 18.7773 11.1681 18.7773 11.1681 19.1954C11.1681 21.7045 11.1681 24.3182 11.1681 26.8273C11.1681 26.9318 11.1681 26.9318 11.1681 27.0364C14.409 26.9318 17.65 26.9318 20.8909 26.9318ZM11.9 7.69544C11.9 7.79999 11.9 7.79999 11.9 7.90453C11.9 9.36817 11.9 10.9363 11.9 12.4C11.9 12.8182 12.0045 12.8182 12.3181 12.8182C14.8272 12.8182 17.3363 12.8182 19.8454 12.8182C20.159 12.8182 20.159 12.8182 20.159 12.5045C20.159 11.0409 20.159 9.47271 20.159 8.00908C20.159 7.90453 20.159 7.90453 20.159 7.79999C17.4409 7.69544 14.7227 7.69544 11.9 7.69544Z" fill="#FF9626" stroke="#FF9626" stroke-width="0.2"/>
<path d="M16.0816 22.2273C15.3498 22.2273 14.618 22.2273 13.7816 22.2273C13.3634 22.2273 13.0498 22.0182 13.0498 21.6C13.0498 21.2864 13.3634 21.0773 13.7816 21.0773C15.2453 21.0773 16.8134 21.0773 18.2771 21.0773C18.6953 21.0773 18.9043 21.2864 19.0089 21.7045C19.0089 22.0182 18.6953 22.3318 18.2771 22.3318C17.5453 22.2273 16.8134 22.2273 16.0816 22.2273Z" fill="#FF9626"/>
<path d="M16.0816 24.6318C15.3498 24.6318 14.618 24.6318 13.7816 24.6318C13.3634 24.6318 13.0498 24.4227 13.0498 24.0045C13.0498 23.6909 13.3634 23.4818 13.7816 23.3773C15.2453 23.3773 16.8134 23.3773 18.2771 23.3773C18.6953 23.3773 18.9043 23.5863 19.0089 24.0045C19.0089 24.3182 18.6953 24.6318 18.2771 24.6318C17.5453 24.6318 16.8134 24.6318 16.0816 24.6318Z" fill="#FF9626"/>
</g>
<defs>
<clipPath id="clip0_14_1803">
<rect width="21.9545" height="23" fill="white" transform="translate(5 5.5)"/>
</clipPath>
</defs>
</svg>
