<svg width="36" height="37" viewBox="0 0 36 37" fill="none" xmlns="http://www.w3.org/2000/svg">
<g filter="url(#filter0_d_776_3700)">
<g clip-path="url(#clip0_776_3700)">
<path d="M8.04541 19.3136C8.04541 16.4909 8.04541 13.5636 8.04541 10.7409C8.04541 9.59086 8.77723 8.7545 9.82268 8.54541C10.0318 8.54541 10.1363 8.54541 10.2409 8.54541C14.6318 8.54541 19.1272 8.54541 23.5181 8.54541C24.1454 8.54541 24.6681 8.7545 25.0863 9.06814C25.9227 9.79996 26.6545 10.6363 27.4909 11.4727C27.909 11.8909 28.0136 12.309 28.0136 12.9363C28.0136 17.9545 28.0136 22.9727 28.0136 27.9909C28.0136 29.1409 27.0727 30.0818 25.9227 30.1863C25.8181 30.1863 25.7136 30.1863 25.7136 30.1863C20.5909 30.1863 15.4681 30.1863 10.3454 30.1863C9.82268 30.1863 9.29996 30.0818 8.88177 29.7681C8.2545 29.35 8.04541 28.7227 8.04541 27.9909C8.04541 25.0636 8.04541 22.1363 8.04541 19.3136ZM24.1454 28.9318C24.7727 28.9318 25.2954 28.9318 25.8181 28.9318C26.4454 28.9318 26.8636 28.5136 26.8636 27.8863C26.8636 22.8681 26.8636 17.9545 26.8636 12.9363C26.8636 12.6227 26.759 12.4136 26.55 12.2045C25.8181 11.4727 25.0863 10.6363 24.25 9.9045C23.9363 9.59086 23.6227 9.59086 23.309 9.69541C23.309 11.2636 23.309 12.8318 23.309 14.5045C23.309 15.4454 22.6818 15.9681 21.8454 15.9681C19.3363 15.9681 16.7227 15.9681 14.2136 15.9681C13.2727 15.9681 12.75 15.4454 12.75 14.5045C12.75 13.0409 12.75 11.4727 12.75 10.009C12.75 9.9045 12.75 9.79996 12.75 9.69541C11.9136 9.69541 11.1818 9.69541 10.3454 9.69541C9.61359 9.69541 9.19541 10.1136 9.19541 10.8454C9.19541 14.9227 9.19541 18.8954 9.19541 22.9727C9.19541 24.6454 9.19541 26.3181 9.19541 27.8863C9.19541 28.5136 9.61359 28.9318 10.2409 28.9318C10.659 28.9318 10.9727 28.9318 11.3909 28.9318C11.6 28.9318 11.809 28.9318 12.0181 28.9318C12.0181 28.8272 12.0181 28.7227 12.0181 28.6181C12.0181 26.109 12.0181 23.6 12.0181 21.0909C12.0181 20.15 12.5409 19.6272 13.4818 19.6272C16.5136 19.6272 19.5454 19.6272 22.5772 19.6272C23.5181 19.6272 24.0409 20.15 24.0409 21.0909C24.0409 23.6 24.0409 26.109 24.0409 28.6181C24.1454 28.7227 24.1454 28.8272 24.1454 28.9318ZM22.8909 28.9318C22.8909 28.8272 22.8909 28.8272 22.8909 28.8272C22.8909 26.2136 22.8909 23.6 22.8909 21.0909C22.8909 20.7772 22.8909 20.7772 22.5772 20.7772C19.5454 20.7772 16.5136 20.7772 13.4818 20.7772C13.1681 20.7772 13.1681 20.7772 13.1681 21.1954C13.1681 23.7045 13.1681 26.3181 13.1681 28.8272C13.1681 28.9318 13.1681 28.9318 13.1681 29.0363C16.409 28.9318 19.65 28.9318 22.8909 28.9318ZM13.9 9.69541C13.9 9.79996 13.9 9.79996 13.9 9.9045C13.9 11.3681 13.9 12.9363 13.9 14.4C13.9 14.8181 14.0045 14.8181 14.3181 14.8181C16.8272 14.8181 19.3363 14.8181 21.8454 14.8181C22.159 14.8181 22.159 14.8181 22.159 14.5045C22.159 13.0409 22.159 11.4727 22.159 10.009C22.159 9.9045 22.159 9.9045 22.159 9.79996C19.4409 9.69541 16.7227 9.69541 13.9 9.69541Z" fill="#39629C" stroke="#39629C" stroke-width="0.2"/>
<path d="M18.0816 24.2271C17.3498 24.2271 16.618 24.2271 15.7816 24.2271C15.3634 24.2271 15.0498 24.0181 15.0498 23.5999C15.0498 23.2862 15.3634 23.0771 15.7816 23.0771C17.2453 23.0771 18.8134 23.0771 20.2771 23.0771C20.6953 23.0771 20.9043 23.2862 21.0089 23.7044C21.0089 24.0181 20.6953 24.3317 20.2771 24.3317C19.5453 24.2271 18.8134 24.2271 18.0816 24.2271Z" fill="#39629C"/>
<path d="M18.0816 26.632C17.3498 26.632 16.618 26.632 15.7816 26.632C15.3634 26.632 15.0498 26.4229 15.0498 26.0047C15.0498 25.6911 15.3634 25.482 15.7816 25.3774C17.2453 25.3774 18.8134 25.3774 20.2771 25.3774C20.6953 25.3774 20.9043 25.5865 21.0089 26.0047C21.0089 26.3184 20.6953 26.632 20.2771 26.632C19.5453 26.632 18.8134 26.632 18.0816 26.632Z" fill="#39629C"/>
</g>
</g>
<defs>
<filter id="filter0_d_776_3700" x="-4" y="-1.5" width="44" height="44" filterUnits="userSpaceOnUse" color-interpolation-filters="sRGB">
<feFlood flood-opacity="0" result="BackgroundImageFix"/>
<feColorMatrix in="SourceAlpha" type="matrix" values="0 0 0 0 0 0 0 0 0 0 0 0 0 0 0 0 0 0 127 0" result="hardAlpha"/>
<feOffset dy="2"/>
<feGaussianBlur stdDeviation="2"/>
<feComposite in2="hardAlpha" operator="out"/>
<feColorMatrix type="matrix" values="0 0 0 0 1 0 0 0 0 0.588235 0 0 0 0 0.14902 0 0 0 0.24 0"/>
<feBlend mode="normal" in2="BackgroundImageFix" result="effect1_dropShadow_776_3700"/>
<feBlend mode="normal" in="SourceGraphic" in2="effect1_dropShadow_776_3700" result="shape"/>
</filter>
<clipPath id="clip0_776_3700">
<rect width="21.9545" height="23" fill="white" transform="translate(7 7.5)"/>
</clipPath>
</defs>
</svg>
