<svg width="21" height="20" viewBox="0 0 21 20" fill="none" xmlns="http://www.w3.org/2000/svg">
<g clip-path="url(#clip0_12_6526)">
<path d="M5.32692 8.94231C4.55769 8.94231 3.88462 8.94231 3.11539 8.94231C1.67308 8.94231 0.807693 8.07692 0.807693 6.73077C0.807693 5.28846 0.807693 3.75 0.807693 2.30769C0.807693 0.961539 1.76923 0 3.01923 0C4.55769 0 6.09616 0 7.53846 0C8.88462 0 9.75 0.865385 9.75 2.21154C9.75 3.75 9.75 5.28846 9.75 6.73077C9.75 8.07692 8.78846 8.94231 7.53846 8.94231C6.76923 9.03846 6 8.94231 5.32692 8.94231ZM2.25 4.42308C2.25 5.19231 2.25 5.96154 2.25 6.73077C2.25 7.21154 2.53846 7.5 3.01923 7.5C4.55769 7.5 6.09616 7.5 7.63462 7.5C8.11539 7.5 8.40385 7.21154 8.40385 6.73077C8.40385 5.19231 8.40385 3.65385 8.40385 2.21154C8.40385 1.73077 8.11539 1.44231 7.63462 1.44231C6.09616 1.44231 4.65385 1.44231 3.11539 1.44231C2.63462 1.44231 2.34616 1.73077 2.34616 2.21154C2.25 2.98077 2.25 3.75 2.25 4.42308Z" fill="#39629C"/>
<path d="M5.32693 11.0576C6.09616 11.0576 6.86539 11.0576 7.63462 11.0576C8.88462 11.0576 9.84616 11.923 9.84616 13.2692C9.84616 14.8076 9.84616 16.3461 9.84616 17.8845C9.84616 19.1345 8.88462 20.0961 7.63462 20.0961C6.09616 20.0961 4.5577 20.0961 3.11539 20.0961C1.76924 20.0961 0.903854 19.1345 0.903854 17.8845C0.903854 16.3461 0.903854 14.9038 0.903854 13.3653C0.903854 12.1153 1.86539 11.1538 3.11539 11.1538C3.78847 11.0576 4.5577 11.0576 5.32693 11.0576ZM5.32693 18.5576C6.09616 18.5576 6.86539 18.5576 7.63462 18.5576C8.11539 18.5576 8.40385 18.2692 8.40385 17.7884C8.40385 16.2499 8.40385 14.7115 8.40385 13.173C8.40385 12.6922 8.11539 12.4038 7.63462 12.4038C6.09616 12.4038 4.5577 12.4038 3.01924 12.4038C2.53847 12.4038 2.25001 12.6922 2.25001 13.173C2.25001 14.7115 2.25001 16.2499 2.25001 17.6922C2.25001 18.173 2.53847 18.4615 3.01924 18.4615C3.78847 18.5576 4.5577 18.5576 5.32693 18.5576Z" fill="#39629C"/>
<path d="M20.8077 4.51923C20.8077 5.28846 20.8077 5.96154 20.8077 6.73077C20.8077 8.07692 19.9423 8.94231 18.5 8.94231C17.0577 8.94231 15.5192 8.94231 14.0769 8.94231C12.7308 8.94231 11.7692 8.07692 11.7692 6.73077C11.7692 5.19231 11.7692 3.75 11.7692 2.21154C11.8654 0.961538 12.7308 0 14.0769 0C15.6154 0 17.0577 0 18.5961 0C19.9423 0 20.8077 0.865385 20.8077 2.21154C20.8077 2.98077 20.8077 3.75 20.8077 4.51923ZM13.3077 4.51923C13.3077 5.28846 13.3077 6.05769 13.3077 6.82692C13.3077 7.30769 13.5961 7.59615 14.0769 7.59615C15.6154 7.59615 17.1538 7.59615 18.6923 7.59615C19.1731 7.59615 19.4615 7.30769 19.4615 6.82692C19.4615 5.28846 19.4615 3.75 19.4615 2.21154C19.4615 1.73077 19.1731 1.44231 18.6923 1.44231C17.1538 1.44231 15.6154 1.44231 14.0769 1.44231C13.5961 1.44231 13.3077 1.73077 13.3077 2.21154C13.3077 2.98077 13.3077 3.75 13.3077 4.51923Z" fill="#39629C"/>
<path d="M12.9231 17.8847C13.2115 17.2116 12.9231 16.7308 12.4423 16.2501C12.25 16.0577 12.1538 15.8654 11.9615 15.6731C11.3846 14.9039 11.6731 13.7501 12.6346 13.5577C13.1154 13.4616 13.5 13.2693 13.9808 13.1731C14.1731 13.1731 14.2692 12.9808 14.3654 12.8847C14.5577 12.5001 14.8462 12.1154 15.0385 11.7308C15.6154 10.8654 16.7692 10.8654 17.3462 11.7308C17.6346 12.1154 17.8269 12.5001 18.1154 12.8847C18.2115 12.9808 18.3077 13.077 18.4038 13.077C18.8846 13.1731 19.2692 13.3654 19.75 13.4616C20.8077 13.7501 21.0962 14.8077 20.4231 15.6731C20.1346 16.0577 19.8462 16.3462 19.5577 16.7308C19.4615 16.827 19.3654 17.0193 19.3654 17.2116C19.3654 17.6924 19.4615 18.1731 19.4615 18.6539C19.4615 19.5193 18.7885 20.0962 18.0192 20.0001C17.8269 20.0001 17.7308 19.9039 17.5385 19.9039C17.0577 19.7116 16.6731 19.5193 16.1923 19.4231C16.0962 19.4231 16 19.4231 15.8077 19.4231C15.3269 19.6154 14.9423 19.7116 14.4615 19.9039C13.4038 20.2885 12.5385 19.6154 12.5385 18.4616C13.0192 18.2693 12.9231 18.077 12.9231 17.8847ZM13.2115 14.8077C13.5 15.1924 13.7885 15.577 14.1731 15.9616C14.4615 16.2501 14.5577 16.6347 14.5577 17.0193C14.5577 17.5001 14.5577 17.9808 14.4615 18.4616C14.8462 18.2693 15.3269 18.1731 15.7115 17.9808C16.1923 17.7885 16.6731 17.7885 17.1538 17.9808C17.5385 18.1731 17.9231 18.2693 18.4038 18.4616C18.4038 17.9808 18.4038 17.5001 18.3077 17.0193C18.3077 16.5385 18.4038 16.2501 18.6923 15.8654C18.9808 15.4808 19.2692 15.1924 19.5577 14.8077C19.0769 14.7116 18.5962 14.5193 18.1154 14.4231C17.7308 14.327 17.4423 14.1347 17.1538 13.7501C16.9615 13.3654 16.6731 13.077 16.4808 12.6924L16.3846 12.5962C16.0962 12.9808 15.9038 13.3654 15.6154 13.7501C15.4231 14.1347 15.0385 14.327 14.6538 14.4231C14.1731 14.6154 13.6923 14.7116 13.2115 14.8077Z" fill="#39629C"/>
</g>
<defs>
<clipPath id="clip0_12_6526">
<rect width="20.1923" height="20" fill="white" transform="translate(0.807693)"/>
</clipPath>
</defs>
</svg>
