<svg width="41" height="41" viewBox="0 0 41 41" fill="none" xmlns="http://www.w3.org/2000/svg">
<path d="M25.242 4.94623C28.108 4.96136 30.974 5.00938 33.84 4.98974C40.4649 4.94434 40.4649 4.98974 40.4611 11.6303C40.4649 17.7128 40.4838 23.7953 40.4649 29.8759C40.4593 31.6354 39.3147 32.6873 37.527 32.691C33.473 32.6986 29.419 32.7005 25.363 32.7062C24.0388 32.7156 22.7127 32.7232 21.3885 32.7327C21.3185 32.7213 21.2485 32.6986 21.1804 32.6986C17.6901 32.6948 14.2017 32.6967 10.7114 32.6816C10.3671 32.6797 10.1363 32.8462 9.89226 33.0278C8.42236 34.1308 6.95436 35.2376 5.47879 36.3368C5.21773 36.5316 4.95478 36.7511 4.5821 36.5486C4.23213 36.3576 4.19618 36.0397 4.19429 35.7011C4.19051 34.8516 4.18294 34.004 4.19618 33.1546C4.19996 32.8367 4.10538 32.7119 3.76108 32.6816C1.72366 32.4981 0.900743 31.5748 0.900743 29.5126C0.900743 22.3669 0.898851 15.2231 0.900743 8.07733C0.900743 6.03218 1.94499 4.98974 3.98809 4.98785C9.50634 4.98785 15.0227 4.98785 20.541 4.98596C20.8228 4.98596 21.1047 4.95947 21.3866 4.94434C22.673 4.94623 23.9575 4.94623 25.242 4.94623ZM23.2121 17.6731C23.3918 17.955 23.3332 18.1953 23.3332 18.4185C23.3389 20.2801 23.3237 22.1437 23.3426 24.0053C23.354 25.0231 24.1126 25.6059 25.0263 25.3523C25.6241 25.1858 25.9419 24.6807 25.9419 23.8577C25.9457 20.5336 25.9362 17.2096 25.9495 13.8855C25.9514 13.1912 25.7944 12.6122 25.0887 12.3474C24.4607 12.1109 23.9083 12.3474 23.3975 13.0266C22.5897 14.0993 21.7782 15.1701 20.9855 16.2542C20.7566 16.5682 20.6318 16.5985 20.3839 16.2579C19.5686 15.1323 18.7097 14.0368 17.8887 12.9149C17.4725 12.3455 16.9353 12.1411 16.2845 12.3512C15.6356 12.5612 15.4256 13.0833 15.4275 13.7379C15.437 17.132 15.4275 20.528 15.4351 23.9221C15.437 24.8794 15.9289 25.411 16.7555 25.3996C17.5482 25.3883 18.0249 24.8604 18.0306 23.9448C18.0401 22.0585 18.0325 20.1723 18.0382 18.2861C18.0382 18.0931 17.9757 17.8812 18.1006 17.6958C18.1498 17.7166 18.1782 17.7204 18.1895 17.7355C18.6189 18.2955 19.0465 18.8574 19.4778 19.4174C20.2326 20.3955 21.1028 20.4145 21.8671 19.4515C22.3173 18.8839 22.743 18.2974 23.2121 17.6731ZM7.54837 25.4394C7.54837 25.4413 7.54837 25.4431 7.54837 25.445C7.94942 25.445 8.35048 25.4602 8.75153 25.4431C11.0443 25.3429 12.7223 23.7385 12.7715 21.6064C12.8207 19.442 11.2486 17.7109 9.0807 17.5482C8.04401 17.4707 7.51432 17.0052 7.52378 16.186C7.53513 15.3441 8.1159 14.8882 9.19042 14.8844C9.87523 14.8806 10.5582 14.8882 11.243 14.8825C12.1756 14.8731 12.7658 14.3679 12.7696 13.5828C12.7734 12.7901 12.204 12.266 11.2676 12.2395C10.4655 12.2187 9.66336 12.2206 8.86314 12.2395C7.70539 12.2679 6.68384 12.6595 5.91011 13.5412C4.83749 14.7633 4.54616 16.1804 5.17044 17.6863C5.77769 19.1526 6.91842 19.9907 8.52641 20.1269C9.61417 20.2196 10.1439 20.6793 10.1117 21.5288C10.0814 22.365 9.50823 22.7926 8.41101 22.7964C7.7035 22.7983 6.99598 22.7869 6.28847 22.8002C5.46366 22.8153 4.89802 23.3261 4.86586 24.0658C4.8356 24.7715 5.40123 25.3694 6.20523 25.4318C6.64979 25.4677 7.10003 25.4394 7.54837 25.4394ZM31.3845 25.4413C31.3845 25.4431 31.3845 25.4431 31.3845 25.445C31.761 25.445 32.1393 25.4602 32.5158 25.4431C35.028 25.3296 36.7987 23.2883 36.4412 20.9291C36.1442 18.9747 34.7556 17.7242 32.6841 17.5444C31.7477 17.4631 31.2161 16.9409 31.254 16.1369C31.2899 15.3706 31.8499 14.8958 32.7541 14.8844C33.4843 14.875 34.2165 14.8863 34.9467 14.8806C35.8869 14.8731 36.4695 14.3887 36.4979 13.5998C36.5263 12.843 35.9228 12.2698 35.0072 12.2414C34.1597 12.2149 33.3084 12.1979 32.4609 12.2471C30.2532 12.3757 28.6433 13.999 28.6074 16.0858C28.5696 18.3107 30.0905 19.9472 32.3682 20.1364C33.3103 20.2139 33.8778 20.738 33.8551 21.5061C33.8324 22.2874 33.2403 22.7869 32.3039 22.7983C31.5491 22.8058 30.7943 22.7907 30.0414 22.802C29.1882 22.8153 28.6415 23.2977 28.6112 24.0412C28.579 24.8358 29.086 25.375 29.9695 25.4356C30.4405 25.4677 30.9135 25.4413 31.3845 25.4413Z" fill="#4F6BFE"/>
</svg>
