<svg width="34" height="28" viewBox="0 0 34 28" fill="none" xmlns="http://www.w3.org/2000/svg">
<path d="M7.99986 21.5746C8.27843 21.5746 8.55745 21.5746 8.8637 21.5746C8.8637 21.5009 8.8637 21.4371 8.8637 21.3728C8.8637 19.6768 8.8637 17.9808 8.8637 16.2844C8.8637 15.9416 8.94539 15.8594 9.28691 15.859C10.1463 15.8585 11.0052 15.8585 11.8646 15.859C12.203 15.859 12.2865 15.9442 12.2865 16.2871C12.2865 17.9777 12.2865 19.6679 12.2865 21.3585C12.2865 21.4242 12.2865 21.4893 12.2865 21.5639C12.4784 21.5639 12.6548 21.5639 12.857 21.5639C12.857 21.4947 12.857 21.425 12.857 21.355C12.857 18.342 12.857 15.3295 12.857 12.3166C12.857 11.9389 12.9311 11.8639 13.3043 11.8634C14.1467 11.8634 14.9891 11.8634 15.8316 11.8634C16.2164 11.8634 16.2847 11.9326 16.2847 12.325C16.2847 15.3268 16.2847 18.3282 16.2847 21.33C16.2847 21.4067 16.2847 21.4835 16.2847 21.5661C16.4829 21.5661 16.6597 21.5661 16.8579 21.5661C16.8579 21.4884 16.8579 21.4175 16.8579 21.3465C16.8579 19.2875 16.8579 17.2291 16.8579 15.1701C16.8579 14.7858 16.9298 14.7152 17.3208 14.7152C18.1691 14.7152 19.0168 14.7148 19.865 14.7152C20.1941 14.7152 20.2856 14.8058 20.2856 15.1308C20.2856 17.2063 20.2856 19.2817 20.2856 21.3572C20.2856 21.4228 20.2856 21.4884 20.2856 21.563C20.4771 21.563 20.6534 21.563 20.8561 21.563C20.8561 21.4942 20.8561 21.4246 20.8561 21.355C20.8561 17.9572 20.8561 14.5594 20.8561 11.1617C20.8561 10.7951 20.9289 10.7224 21.2963 10.7224C22.1557 10.7224 23.0146 10.7219 23.874 10.7224C24.1949 10.7224 24.2789 10.8063 24.2789 11.1286C24.2793 14.5317 24.2789 17.9353 24.2789 21.3384C24.2789 21.4099 24.2789 21.4813 24.2789 21.5737C24.5775 21.5737 24.8601 21.5737 25.1427 21.5737C25.1427 21.7634 25.1427 21.9532 25.1427 22.1429C19.4284 22.1429 13.7141 22.1429 7.99986 22.1429C7.99986 21.9541 7.99986 21.7643 7.99986 21.5746ZM23.6954 21.5657C23.6954 18.1371 23.6954 14.7206 23.6954 11.3067C22.9333 11.3067 22.1838 11.3067 21.4351 11.3067C21.4351 14.7322 21.4351 18.1447 21.4351 21.5657C22.1891 21.5657 22.9351 21.5657 23.6954 21.5657ZM15.699 21.5652C15.699 18.5175 15.699 15.4817 15.699 12.4478C14.9365 12.4478 14.1869 12.4478 13.4378 12.4478C13.4378 15.4929 13.4378 18.525 13.4378 21.5652C14.1923 21.5652 14.9378 21.5652 15.699 21.5652ZM17.4409 21.559C18.2008 21.559 18.9539 21.559 19.7003 21.559C19.7003 19.4625 19.7003 17.3808 19.7003 15.2974C18.9409 15.2974 18.1958 15.2974 17.4409 15.2974C17.4409 17.3898 17.4409 19.4719 17.4409 21.559ZM9.44852 16.4402C9.44852 18.1581 9.44852 19.8612 9.44852 21.5599C10.2115 21.5599 10.961 21.5599 11.707 21.5599C11.707 19.8469 11.707 18.1478 11.707 16.4402C10.9521 16.4402 10.2066 16.4402 9.44852 16.4402Z" fill="#39629C" stroke="#39629C" stroke-width="0.5"/>
<path d="M22.7655 5.00089C23.1472 5.09598 23.4923 5.2558 23.7231 5.59018C24.0682 6.09063 24.1074 6.61964 23.8016 7.14777C23.515 7.6433 23.0664 7.88705 22.4932 7.84866C22.2941 7.83527 22.0963 7.7558 21.9052 7.68616C21.8159 7.65357 21.7633 7.64152 21.6891 7.71652C21.0811 8.33125 20.4691 8.94241 19.8552 9.55089C19.7833 9.62187 19.7762 9.67366 19.824 9.76473C20.2079 10.4996 19.9271 11.3527 19.1851 11.7241C18.4985 12.0679 17.636 11.7647 17.286 11.0473C17.1374 10.7429 17.099 10.4174 17.1985 10.0879C17.2338 9.97143 17.2164 9.90179 17.1128 9.82455C16.5909 9.43348 16.0762 9.03259 15.582 8.65223C15.3566 8.75848 15.1552 8.88036 14.9374 8.94955C14.5829 9.0625 14.2302 9.01429 13.9048 8.83125C13.8146 8.7808 13.7637 8.78795 13.6923 8.86027C13.0838 9.47455 12.4722 10.0857 11.8579 10.6946C11.7856 10.7665 11.7811 10.8165 11.8275 10.908C12.0914 11.4254 12.0641 11.9388 11.7253 12.4067C11.3691 12.8991 10.8655 13.0924 10.2704 12.9647C9.68736 12.8397 9.31325 12.4594 9.18691 11.8835C9.05879 11.3 9.24539 10.796 9.72977 10.4371C10.1891 10.0964 10.6954 10.0567 11.211 10.3116C11.324 10.3674 11.3874 10.367 11.4793 10.2732C12.0699 9.67277 12.6659 9.07723 13.2659 8.48616C13.3579 8.39554 13.3633 8.33437 13.303 8.22009C13.0222 7.68616 13.1204 7.06161 13.5445 6.59464C13.9258 6.17455 14.5731 6.04107 15.128 6.26741C15.6476 6.47946 16.0137 7.0317 15.9958 7.60134C15.9914 7.74911 15.936 7.89464 15.9173 8.04286C15.9101 8.09821 15.9195 8.18393 15.9552 8.21205C16.4766 8.62188 17.0034 9.02411 17.5146 9.41696C17.7159 9.30402 17.8945 9.175 18.0927 9.09866C18.4749 8.95179 18.8601 8.97902 19.2231 9.17455C19.3249 9.22946 19.3829 9.22321 19.465 9.13973C20.0646 8.53214 20.6691 7.92991 21.2735 7.32723C21.336 7.26473 21.3762 7.21964 21.3231 7.11652C20.8583 6.21964 21.3485 5.21607 22.3374 5.02545C22.3579 5.02143 22.3771 5.00848 22.3967 5C22.5199 5.00089 22.6427 5.00089 22.7655 5.00089ZM21.7164 6.44509C21.7208 6.9183 22.1003 7.29286 22.5717 7.28973C23.0414 7.28661 23.4244 6.90402 23.4244 6.43795C23.4244 5.9683 23.0208 5.56964 22.5561 5.5808C22.0842 5.59196 21.7124 5.975 21.7164 6.44509ZM13.7204 7.57277C13.7182 8.04464 14.0927 8.42946 14.5606 8.43616C15.0311 8.44286 15.4293 8.05 15.4289 7.57902C15.4284 7.11429 15.0396 6.725 14.5758 6.72455C14.1066 6.72411 13.7226 7.10446 13.7204 7.57277ZM19.4222 10.4424C19.4253 9.96964 19.0543 9.58973 18.5833 9.58393C18.1074 9.57768 17.7159 9.95982 17.7137 10.433C17.7115 10.8973 18.0949 11.2804 18.5659 11.2844C19.0378 11.2879 19.4186 10.9134 19.4222 10.4424ZM11.4266 11.5804C11.428 11.1098 11.0516 10.7281 10.5829 10.725C10.1083 10.7219 9.71593 11.1089 9.71727 11.5799C9.71861 12.0442 10.1052 12.4268 10.574 12.4277C11.0454 12.4277 11.4253 12.0504 11.4266 11.5804Z" fill="#39629C" stroke="#39629C" stroke-width="0.5"/>
</svg>
