<svg width="32" height="33" viewBox="0 0 32 33" fill="none" xmlns="http://www.w3.org/2000/svg">
<path d="M5.04607 17.0102C5.0133 11.2351 9.74805 6.54954 15.5027 6.54544C21.2532 6.54135 25.9674 11.2474 25.9551 16.9938C25.9429 22.7853 21.2818 27.4463 15.4986 27.4545C9.73576 27.4627 5.0174 22.7443 5.04607 17.0102ZM22.4164 22.388C25.0991 19.0745 25.0991 13.6025 21.1221 10.2562C17.5055 7.20896 12.6806 7.90115 10.1535 10.0719C14.2371 14.1759 18.3206 18.2758 22.4164 22.388ZM8.57665 11.616C5.95124 14.8476 5.88161 20.164 9.63337 23.5389C13.25 26.791 18.1813 26.1807 20.8395 23.9362C16.756 19.8322 12.6725 15.7323 8.57665 11.616Z" fill="#FF9626" stroke="#FF9626" stroke-width="0.2"/>
</svg>
