<svg width="24" height="20" viewBox="0 0 24 20" fill="none" xmlns="http://www.w3.org/2000/svg">
<g clip-path="url(#clip0_70_6741)">
<path d="M1.64703 15.2938C1.64703 15.0585 1.76468 14.8232 1.76468 14.5879C2.23527 12.9409 3.76468 11.7644 5.52939 11.7644C5.99997 11.7644 6.47056 11.6468 6.94115 11.4115C7.64703 11.0585 8.35292 10.8232 9.17645 10.8232C11.1764 10.8232 13.1764 10.8232 15.2941 10.8232C16.2353 10.8232 17.1764 11.0585 18 11.6468C18.1176 11.7644 18.2353 11.7644 18.3529 11.7644C19.0588 11.7644 19.7647 11.7644 20.3529 12.1174C21.7647 12.7056 22.5882 13.7644 22.8235 15.2938V15.4115C22.8235 15.8821 22.8235 16.3527 22.8235 16.8232C22.7059 17.0585 22.4706 17.1762 22.2353 17.1762C21.8823 17.1762 21.4117 17.1762 21.0588 17.1762C20.8235 17.1762 20.4706 17.1762 20.1176 17.1762C20.1176 17.6468 20.1176 17.9997 20.1176 18.4703C20.1176 18.8232 20 18.9409 19.647 18.9409H19.5294C14.5882 18.9409 9.76468 18.9409 4.8235 18.9409H4.70586C4.35292 18.9409 4.23527 18.8232 4.23527 18.4703C4.23527 18.1174 4.23527 17.7644 4.23527 17.4115C4.23527 17.2938 4.23527 17.2938 4.23527 17.1762C3.52939 17.1762 2.8235 17.1762 2.23527 17.1762C1.99997 17.1762 1.76468 17.0585 1.64703 16.8232C1.64703 16.235 1.64703 15.7644 1.64703 15.2938ZM5.17645 17.8821C9.88233 17.8821 14.5882 17.8821 19.2941 17.8821V17.7644C19.2941 17.0585 19.2941 16.3527 19.2941 15.6468C19.2941 15.4115 19.2941 15.0585 19.1764 14.8232C18.8235 13.0585 17.1764 11.7644 15.2941 11.7644C13.2941 11.7644 11.1764 11.7644 9.17645 11.7644C8.94115 11.7644 8.58821 11.7644 8.35292 11.8821C6.70586 12.235 5.29409 13.6468 5.17645 15.2938C5.17645 15.7644 5.17645 16.3527 5.17645 16.8232C5.17645 17.1762 5.17645 17.5291 5.17645 17.8821ZM19.0588 12.7056C19.4117 13.1762 19.7647 13.7644 19.8823 14.3527C20.1176 14.9409 20.1176 15.5291 20.1176 16.235C20.7059 16.235 21.2941 16.235 21.8823 16.235C22.1176 13.9997 20.4706 12.7056 19.0588 12.7056ZM5.41174 12.7056C3.76468 12.7056 2.23527 14.5879 2.58821 16.235C3.17645 16.235 3.76468 16.235 4.35292 16.235C4.35292 15.6468 4.35292 14.9409 4.58821 14.3527C4.70586 13.7644 4.94115 13.1762 5.41174 12.7056Z" fill="#39629C" stroke="#39629C" stroke-width="0.8"/>
<path d="M7.88235 4.70568C8.35294 2.35274 10.4706 1.17627 12.2353 1.17627C14 1.17627 16.1176 2.35274 16.5882 4.70568C17.5294 4.58803 18.3529 4.82333 19.0588 5.41156C19.5294 5.88215 19.8823 6.47039 20.1176 7.05862C20.4706 8.47039 19.7647 9.88215 18.4706 10.588C17.2941 11.1763 15.5294 10.941 14.4706 9.41156C12.9412 10.2351 11.5294 10.2351 9.99999 9.41156C9.52941 10.1174 8.82352 10.7057 7.88235 10.8233C7.17646 10.941 6.58823 10.8233 5.99999 10.588C4.70588 9.88215 3.99999 8.47039 4.35293 7.05862C4.58823 6.23509 4.94117 5.64686 5.64705 5.17627C6.35294 4.82333 7.05882 4.58803 7.88235 4.70568ZM15.7647 5.64686C15.7647 3.64686 14.2353 2.11745 12.2353 2.11745C10.2353 2.11745 8.70588 3.64686 8.70588 5.64686C8.70588 7.64686 10.2353 9.17627 12.2353 9.17627C14.1176 9.17627 15.7647 7.52921 15.7647 5.64686ZM9.29411 8.94098C8.35293 7.9998 7.88235 6.94098 7.88235 5.7645C7.88235 5.64686 7.7647 5.64686 7.7647 5.64686C6.23529 5.41156 5.05882 6.70568 5.17646 8.11745C5.29411 8.94098 5.99999 9.76451 6.94117 9.88215C7.88235 10.1174 8.82352 9.76451 9.29411 8.94098ZM15.1765 8.94098C15.6471 9.76451 16.5882 10.2351 17.5294 9.9998C18.7059 9.76451 19.5294 8.70568 19.2941 7.41156C19.0588 6.23509 18 5.41156 16.8235 5.64686L16.7059 5.7645C16.7059 5.9998 16.7059 6.23509 16.5882 6.47039C16.3529 7.41156 15.8823 8.23509 15.1765 8.94098Z" fill="#39629C" stroke="#39629C" stroke-width="0.8"/>
</g>
<defs>
<clipPath id="clip0_70_6741">
<rect width="23.5294" height="20" fill="white" transform="translate(0.470581)"/>
</clipPath>
</defs>
</svg>
