<svg width="16" height="11" viewBox="0 0 16 11" fill="none" xmlns="http://www.w3.org/2000/svg">
<path d="M7.14235 2.8582L7.14331 2.85724C7.60789 2.39265 8.37588 2.36705 8.84076 2.8639L13.1436 7.16673M7.14235 2.8582L13.1436 7.16673M7.14235 2.8582L2.85724 7.16673C2.85711 7.16686 2.85699 7.16698 2.85686 7.16711C2.62911 7.39503 2.5 7.68366 2.5 8.01213C2.5 8.16901 2.53688 8.31554 2.55822 8.40033C2.55946 8.40525 2.56065 8.40996 2.56177 8.41445L2.57087 8.45085L2.5853 8.48549C2.78004 8.95287 3.21973 9.23818 3.70263 9.23818H12.2982C12.8012 9.23818 13.2222 8.91144 13.4092 8.50008L13.42 8.47619L13.4283 8.4513C13.5731 8.01688 13.5068 7.52998 13.1436 7.16673M7.14235 2.8582L12.79 7.52028L13.1436 7.16673M9.39707 6.80949H6.59606L7.99029 5.41527L9.39707 6.80949Z" fill="#D9D9D9" stroke="#D9D9D9"/>
</svg>
