<svg width="32" height="32" viewBox="0 0 32 32" fill="none" xmlns="http://www.w3.org/2000/svg">
<g clip-path="url(#clip0_307_14204)">
<path d="M25.3068 23.9184C24.7274 23.9184 24.1963 23.5804 23.9549 23.0493C23.6169 22.3251 24.0032 21.456 24.7274 21.1663C26.5622 20.3937 27.7693 18.559 27.7693 16.5311C27.7693 13.7789 25.4999 11.5096 22.7478 11.5096C22.6995 11.5096 22.6512 11.5096 22.6029 11.5096C21.9752 11.5096 21.3958 11.075 21.2027 10.4956C20.1405 6.82608 16.8572 4.4119 13.0428 4.4119C8.3593 4.4119 4.49662 8.27458 4.49662 12.9581C4.49662 15.8551 5.94512 18.559 8.3593 20.1523C9.03527 20.5869 9.2284 21.5043 8.79385 22.1802C8.3593 22.8562 7.44191 23.0493 6.76594 22.6148C3.53095 20.442 1.59961 16.869 1.59961 12.9581C1.59961 6.68123 6.76594 1.51489 13.0428 1.51489C17.7746 1.51489 21.8787 4.31533 23.6652 8.61256C27.6244 9.0954 30.6663 12.427 30.6663 16.4828C30.6663 19.6695 28.7832 22.5182 25.8379 23.7736C25.6931 23.8701 25.4999 23.9184 25.3068 23.9184Z" fill="#666666"/>
<path d="M20.8647 22.1803C20.4784 22.1803 20.1404 22.0354 19.8507 21.7457L16.0846 18.0762L12.3668 21.794C11.7874 22.3734 10.87 22.3734 10.3388 21.794C9.75945 21.2146 9.75945 20.2972 10.3388 19.7661L15.0706 15.0343C15.6017 14.5032 16.5674 14.5032 17.0985 15.0343L21.8303 19.7661C22.4097 20.3455 22.4097 21.2629 21.8303 21.794C21.5889 22.0837 21.2026 22.1803 20.8647 22.1803Z" fill="#666666"/>
<path d="M16.0842 30.485C15.2634 30.485 14.6357 29.8573 14.6357 29.0365V17.6416C14.6357 16.8208 15.2634 16.1931 16.0842 16.1931C16.9051 16.1931 17.5328 16.8208 17.5328 17.6416V29.0365C17.5328 29.8573 16.9051 30.485 16.0842 30.485Z" fill="#666666"/>
</g>
<defs>
<clipPath id="clip0_307_14204">
<rect width="29.0667" height="28.9701" fill="white" transform="translate(1.59961 1.51489)"/>
</clipPath>
</defs>
</svg>
