<svg width="41" height="40" viewBox="0 0 41 40" fill="none" xmlns="http://www.w3.org/2000/svg">
<path d="M34.2427 5.72139C30.51 1.99005 25.782 0 20.3074 0C9.60713 0 0.648746 8.95522 0.648746 19.6517C0.648746 23.1343 1.64412 26.6169 3.38603 29.602L0.399902 39.801L10.8514 37.0647C13.8375 38.5572 17.0725 39.5522 20.3074 39.5522C31.2566 39.5522 39.9661 30.597 39.9661 19.9005C40.215 14.4279 37.9754 9.45274 34.2427 5.72139ZM30.0123 26.8657C29.5147 28.1095 27.5239 29.1045 26.7774 29.1045C26.0308 29.3532 23.5424 29.1045 20.8051 27.8607C15.8282 25.6219 12.5933 20.6468 12.3444 20.398C12.0956 20.1493 10.3537 17.6617 10.3537 15.4229C10.3537 13.1841 11.5979 11.6915 12.0956 11.194C13.0909 10.199 15.0817 10.4478 15.5794 11.4428C15.8282 12.4378 16.8236 14.9254 17.0725 15.1741C17.3213 15.4229 17.3213 16.4179 16.5748 16.9154C16.3259 16.9154 15.0817 17.9104 15.5794 18.6567C15.8282 19.1542 16.8236 20.6468 18.3167 22.1393C20.3074 23.8806 21.8005 24.3781 22.2982 24.6269C22.7959 24.8756 23.0447 24.8756 23.2936 24.3781C23.5424 24.1294 24.5378 22.8856 24.7866 22.3881C25.0355 21.8905 25.5332 21.8905 25.782 22.1393C26.0308 22.3881 28.7681 23.3831 29.2658 23.6318C29.7635 24.1294 30.2612 24.1294 30.2612 24.3781C30.51 24.6269 30.51 25.6219 30.0123 26.8657Z" fill="#70CC33"/>
</svg>
