<svg width="44" height="45" viewBox="0 0 44 45" fill="none" xmlns="http://www.w3.org/2000/svg">
<g filter="url(#filter0_d_478_23911)">
<rect x="4" y="4" width="36" height="36" rx="8" fill="white" shape-rendering="crispEdges"/>
<path d="M32.5 11.3125C29.6875 8.5 26.125 7 22 7C13.9375 7 7.1875 13.75 7.1875 21.8125C7.1875 24.4375 7.9375 27.0625 9.25 29.3125L7 37L14.875 34.9375C17.125 36.0625 19.5625 36.8125 22 36.8125C30.25 36.8125 36.8125 30.0625 36.8125 22C37 17.875 35.3125 14.125 32.5 11.3125ZM29.3125 27.25C28.9375 28.1875 27.4375 28.9375 26.875 28.9375C26.3125 29.125 24.4375 28.9375 22.375 28C18.625 26.3125 16.1875 22.5625 16 22.375C15.8125 22.1875 14.5 20.3125 14.5 18.625C14.5 16.9375 15.4375 15.8125 15.8125 15.4375C16.5625 14.6875 18.0625 14.875 18.4375 15.625C18.625 16.375 19.375 18.25 19.5625 18.4375C19.75 18.625 19.75 19.375 19.1875 19.75C19 19.75 18.0625 20.5 18.4375 21.0625C18.625 21.4375 19.375 22.5625 20.5 23.6875C22 25 23.125 25.375 23.5 25.5625C23.875 25.75 24.0625 25.75 24.25 25.375C24.4375 25.1875 25.1875 24.25 25.375 23.875C25.5625 23.5 25.9375 23.5 26.125 23.6875C26.3125 23.875 28.375 24.625 28.75 24.8125C29.125 25.1875 29.5 25.1875 29.5 25.375C29.6875 25.5625 29.6875 26.3125 29.3125 27.25Z" fill="#70CC33"/>
</g>
<defs>
<filter id="filter0_d_478_23911" x="0" y="0.1" width="44" height="44" filterUnits="userSpaceOnUse" color-interpolation-filters="sRGB">
<feFlood flood-opacity="0" result="BackgroundImageFix"/>
<feColorMatrix in="SourceAlpha" type="matrix" values="0 0 0 0 0 0 0 0 0 0 0 0 0 0 0 0 0 0 127 0" result="hardAlpha"/>
<feOffset dy="0.1"/>
<feGaussianBlur stdDeviation="2"/>
<feComposite in2="hardAlpha" operator="out"/>
<feColorMatrix type="matrix" values="0 0 0 0 1 0 0 0 0 0.588235 0 0 0 0 0.14902 0 0 0 0.05 0"/>
<feBlend mode="normal" in2="BackgroundImageFix" result="effect1_dropShadow_478_23911"/>
<feBlend mode="normal" in="SourceGraphic" in2="effect1_dropShadow_478_23911" result="shape"/>
</filter>
</defs>
</svg>
