<svg width="53" height="48" viewBox="0 0 53 48" fill="none" xmlns="http://www.w3.org/2000/svg">
<g clip-path="url(#clip0_1349_39346)">
<path d="M52.3638 44.2196C52.1629 44.6829 52.1096 45.1899 51.8609 45.6437C51.0354 47.1484 49.7616 47.9808 48.071 47.9835C33.4746 48.0054 18.8769 47.9985 4.28047 47.9944C2.04727 47.9944 0.0669191 46.0469 0.0149844 43.8137C-0.00278277 43.0306 0.0177178 42.2474 0.0204512 41.4629C5.22623 41.4616 10.4334 41.4588 15.6391 41.4575C15.8933 41.4575 16.1517 41.4862 16.3854 41.3481C16.4961 41.3905 16.6095 41.4247 16.7161 41.4739C21.4736 43.7248 26.4129 44.195 31.5216 42.9773C32.9976 42.626 34.3944 42.0493 35.783 41.452C36.0181 41.6611 36.301 41.6639 36.5948 41.6639C41.8512 41.6598 47.1075 41.6611 52.3625 41.6611C52.3638 42.5153 52.3638 43.3681 52.3638 44.2196Z" fill="#FEE69C"/>
<path d="M52.3607 41.6639C47.1044 41.6639 41.848 41.6625 36.5931 41.6666C36.2992 41.6666 36.015 41.6639 35.7812 41.4548C36.3607 41.0543 37.0167 40.7987 37.6126 40.4161C39.4713 39.2216 41.1551 37.8357 42.6107 36.1765C44.9436 33.5156 46.5017 30.446 47.3873 27.0278C47.7317 27.1303 48.0829 27.1481 48.4424 27.1454C49.749 27.1372 51.0555 27.1426 52.3621 27.1426C52.3607 31.9835 52.3607 36.823 52.3607 41.6639Z" fill="#FEEBAA"/>
<path d="M52.3615 27.1426C51.055 27.1426 49.7484 27.1385 48.4418 27.1453C48.0837 27.148 47.7311 27.1289 47.3867 27.0278C47.4646 26.5808 47.5343 26.1326 47.6204 25.6884C47.8637 24.4461 48.0359 23.1982 47.9621 21.9272C48.0181 20.6944 47.8159 19.4794 47.7352 18.2549C48.7111 18.4462 49.6978 18.3123 50.6791 18.3451C51.2395 18.3629 51.7998 18.3492 52.3615 18.3492C52.3615 21.2794 52.3615 24.211 52.3615 27.1426Z" fill="#FEF0B8"/>
<path d="M47.7348 18.2549C47.8154 19.4781 48.0191 20.6944 47.9617 21.9272C46.5294 21.9272 45.0971 21.9272 43.6647 21.9272C43.6155 21.2165 43.5773 20.5044 43.513 19.7951C43.3695 18.1934 42.9103 16.6667 42.3185 15.1852C41.7035 13.6477 40.8931 12.214 39.797 10.9567C39.5359 10.533 39.1874 10.1817 38.8457 9.82639C33.5238 4.28578 25.5382 2.80154 18.6076 6.10623C15.9644 7.36633 13.7585 9.18404 12.072 11.6004C11.7891 11.8751 11.6073 12.2236 11.3955 12.5489C10.4197 14.0481 9.70353 15.6841 9.25251 17.3966C8.85754 18.8972 8.7154 20.4648 8.69763 22.0297C7.26669 22.0297 5.83439 22.0297 4.40345 22.0283C4.31871 20.3336 4.56745 18.6717 4.88726 17.0153C5.53371 14.2941 6.59838 11.7562 8.20835 9.46148C11.7727 4.38145 16.63 1.27493 22.7391 0.297734C28.7704 -0.667159 34.3056 0.715945 39.2394 4.35138C41.4603 5.98732 43.2875 8.00321 44.7349 10.3512C46.1945 12.717 47.1936 15.2659 47.6637 18.0143C47.6774 18.0963 47.7116 18.1742 47.7348 18.2549Z" fill="#FD8401"/>
<path d="M16.3833 41.3496C16.1496 41.4876 15.8913 41.4589 15.637 41.4589C10.4313 41.4616 5.22413 41.463 0.0183584 41.4644C0.0183584 36.2832 0.0169917 31.1034 0.015625 25.9222C1.57777 25.9208 3.13991 25.9181 4.70205 25.9167C4.73485 25.9919 4.78269 26.0644 4.79909 26.1436C6.00862 31.9357 9.1247 36.4691 13.8904 39.9145C14.6722 40.479 15.5673 40.8453 16.3833 41.3496Z" fill="#FEEBAA"/>
<path d="M4.70284 25.9166C3.1407 25.9179 1.57855 25.9207 0.0164122 25.922C0.0123121 23.0971 0.0136788 20.2735 1.17643e-05 17.4485C-0.00135494 17.1109 0.116182 17.0098 0.445557 17.0125C1.9257 17.0248 3.40584 17.0166 4.88734 17.0152C4.56754 18.6703 4.32016 20.3336 4.40353 22.0283C4.41173 22.8142 4.39943 23.5973 4.48417 24.3859C4.53884 24.9011 4.72744 25.3931 4.70284 25.9166Z" fill="#FEF0B8"/>
<path d="M4.70302 25.9168C4.72762 25.3947 4.53901 24.9013 4.48298 24.3874C4.39824 23.5988 4.41054 22.8157 4.40234 22.0298C5.83328 22.0298 7.26559 22.0298 8.69653 22.0312C8.73069 22.4891 8.73343 22.951 8.80723 23.402C8.8988 23.9651 8.8168 24.5528 9.0505 25.0954C9.00404 25.545 9.20357 25.9455 9.31974 26.3596C9.70515 27.7413 10.2177 29.0711 10.9325 30.3189C11.0377 30.502 11.0951 30.7002 11.3616 30.4556C13.2668 28.7103 15.1829 26.9746 17.0949 25.2361C17.192 25.1692 17.2945 25.1077 17.386 25.0325C20.1454 22.7925 23.2068 22.7651 25.943 25.0052C27.0076 25.8771 28.004 26.8338 29.0372 27.7454C29.7793 28.4001 29.8039 28.4165 30.5242 27.7536C33.3997 25.1131 37.0502 25.243 39.6865 27.6661C40.3002 28.2306 40.9412 28.7636 41.5589 29.3239C41.7749 29.5208 41.8869 29.492 41.9894 29.2255C42.204 28.6707 42.4459 28.1267 42.6523 27.5691C43.3261 25.75 43.5488 23.8489 43.665 21.9287C45.0973 21.9287 46.5296 21.9287 47.9619 21.9287C48.0371 23.1997 47.8635 24.4475 47.6202 25.6899C47.5328 26.1341 47.4631 26.5823 47.3865 27.0293C46.5009 30.4474 44.9429 33.517 42.6099 36.178C41.1544 37.8371 39.4706 39.223 37.6119 40.4175C37.016 40.8002 36.3586 41.0557 35.7805 41.4562C34.3919 42.0534 32.9952 42.6302 31.5191 42.9814C26.4104 44.1991 21.4711 43.729 16.7136 41.478C16.607 41.4275 16.4936 41.3933 16.3829 41.3523C15.5669 40.848 14.6731 40.4817 13.8914 39.9173C9.12567 36.4718 6.00959 31.9384 4.80005 26.1464C4.78365 26.0644 4.73582 25.9919 4.70302 25.9168ZM26.1794 39.2831C28.5219 39.2517 30.7838 38.8335 32.9419 37.9137C33.5131 37.6704 33.5159 37.6649 33.0457 37.2618C31.7145 36.1233 30.4585 34.9015 29.1151 33.7753C27.911 32.7667 26.819 31.6268 25.6546 30.569C24.7225 29.7217 23.8355 28.8183 22.8036 28.0884C22.0561 27.5595 21.1404 27.6347 20.3996 28.1759C19.8939 28.5449 19.4662 28.9891 19.0069 29.4046C17.3778 30.8765 15.7569 32.358 14.1155 33.8149C13.8135 34.0828 13.8435 34.229 14.1237 34.471C15.6694 35.8035 17.2781 37.0226 19.1846 37.8221C21.4301 38.7651 23.7549 39.2544 26.1794 39.2831ZM39.3558 33.2273C39.3025 33.1671 39.2629 33.1097 39.2123 33.0673C38.1955 32.2132 37.2757 31.2469 36.1891 30.4747C35.9185 30.282 35.6083 30.2219 35.2762 30.1932C34.3632 30.1139 33.8029 30.7111 33.1974 31.2291C33.017 31.3836 33.1605 31.4997 33.274 31.6022C34.5505 32.7557 35.8283 33.9065 37.1021 35.0614C37.2497 35.1953 37.3577 35.2363 37.5326 35.0846C38.1135 34.5817 38.6629 34.05 39.1781 33.4801C39.2451 33.4063 39.2943 33.3161 39.3558 33.2273Z" fill="#FDAF01"/>
<path d="M9.0532 25.0925C8.81949 24.5513 8.90149 23.9622 8.80992 23.3992C8.73612 22.9481 8.73339 22.4862 8.69922 22.0284C8.71699 20.4635 8.85912 18.8972 9.2541 17.3952C9.70511 15.6827 10.4213 14.0468 11.3985 12.5475C11.6103 12.2223 11.7921 11.8751 12.075 11.599C12.2923 11.8054 12.5588 11.8054 12.8362 11.804C17.088 11.7999 21.3412 11.8013 25.593 11.8013C26.1356 11.8013 26.6796 11.8327 27.214 11.7015C27.1279 11.8669 27.039 12.0309 26.957 12.1977C25.9197 14.316 25.8527 16.4221 27.0404 18.5132C28.4973 21.0758 31.5136 22.3468 34.3932 21.6074C37.2264 20.879 39.2614 18.244 39.271 15.3001C39.2765 13.8541 38.8009 12.5667 38.0054 11.3817C38.3608 11.0401 38.7667 11.3899 39.148 11.3011C39.4063 11.2396 39.7097 11.3175 39.7986 10.9553C40.8947 12.2127 41.7051 13.6464 42.3201 15.1839C42.9133 16.6654 43.3711 18.192 43.5146 19.7938C43.5775 20.5031 43.6158 21.2152 43.6663 21.9259C43.5515 23.8461 43.3274 25.7472 42.6536 27.5662C42.4472 28.1239 42.204 28.6678 41.9908 29.2227C41.8883 29.4892 41.7762 29.5179 41.5602 29.3211C40.9425 28.7607 40.3015 28.2264 39.6879 27.6633C37.0529 25.2401 33.401 25.1103 30.5255 27.7507C29.8052 28.4122 29.7806 28.3972 29.0385 27.7425C28.0053 26.831 27.0089 25.8743 25.9443 25.0023C23.2095 22.7623 20.1467 22.7896 17.3874 25.0296C17.2958 25.1048 17.1933 25.1649 17.0962 25.2333C16.9281 25.0173 16.689 25.1021 16.4812 25.1021C14.0048 25.0939 11.5297 25.0939 9.0532 25.0925Z" fill="#FEF0B8"/>
<path d="M39.7978 10.9569C39.709 11.319 39.4056 11.2411 39.1473 11.3026C38.7659 11.3928 38.36 11.043 38.0047 11.3833C37.9391 11.3054 37.8735 11.2275 37.8079 11.1509C36.1938 9.28539 34.1725 8.47084 31.7179 8.82208C29.7853 9.09816 28.3353 10.1491 27.2132 11.7031C26.6788 11.8343 26.1349 11.8029 25.5923 11.8029C21.3405 11.8029 17.0873 11.8015 12.8355 11.8056C12.558 11.8056 12.2902 11.807 12.0742 11.6006C13.7607 9.18426 15.9666 7.36654 18.6098 6.10644C25.5403 2.80175 33.526 4.28599 38.8479 9.82661C39.1869 10.182 39.5368 10.5332 39.7978 10.9569Z" fill="#FEF7CD"/>
<path d="M26.1773 39.2831C23.7528 39.2544 21.428 38.7651 19.1825 37.8221C17.276 37.0212 15.6673 35.8021 14.1216 34.4709C13.8401 34.229 13.8114 34.0828 14.1134 33.8149C15.7548 32.3566 17.3757 30.8765 19.0048 29.4045C19.464 28.989 19.8918 28.5449 20.3975 28.1759C21.1396 27.6346 22.0553 27.5595 22.8015 28.0884C23.8334 28.8196 24.7204 29.7216 25.6525 30.569C26.8155 31.6268 27.9089 32.7666 29.113 33.7752C30.4564 34.9014 31.7138 36.1232 33.0436 37.2617C33.5138 37.6649 33.5124 37.6703 32.9397 37.9136C30.7817 38.8334 28.5198 39.2516 26.1773 39.2831Z" fill="#FEEBAA"/>
<path d="M9.04986 25.0925C11.5263 25.0939 14.0028 25.0939 16.4779 25.1021C16.687 25.1021 16.9262 25.0173 17.0929 25.2333C15.1809 26.9717 13.2648 28.7074 11.3596 30.4527C11.0931 30.6974 11.0343 30.4992 10.9304 30.3161C10.2157 29.0683 9.70315 27.7384 9.31773 26.3567C9.20293 25.9426 9.00339 25.5422 9.04986 25.0925Z" fill="#FEEBAA"/>
<path d="M39.3547 33.2272C39.2932 33.3161 39.2426 33.4063 39.1757 33.4801C38.6604 34.0486 38.111 34.5816 37.5302 35.0846C37.3552 35.2363 37.2486 35.1953 37.0996 35.0614C35.8259 33.9051 34.5466 32.7557 33.2715 31.6022C33.1581 31.4997 33.0146 31.3849 33.195 31.2291C33.8004 30.7111 34.3608 30.1139 35.2737 30.1932C35.6058 30.2219 35.9161 30.282 36.1867 30.4747C37.2732 31.2469 38.193 32.2131 39.2098 33.0673C39.2631 33.1097 39.3014 33.1671 39.3547 33.2272Z" fill="#FEEBAA"/>
<path d="M27.2142 11.7044C28.3363 10.1505 29.7864 9.09949 31.7189 8.82342C34.1748 8.47218 36.1962 9.28673 37.8089 11.1523C37.8759 11.2288 37.9401 11.3081 38.0057 11.3846C38.8011 12.5696 39.2767 13.857 39.2713 15.303C39.2603 18.2468 37.2267 20.8832 34.3935 21.6103C31.5139 22.3497 28.4975 21.0787 27.0406 18.5161C25.8516 16.425 25.9199 14.3203 26.9573 12.2005C27.0393 12.0338 27.1281 11.8698 27.2142 11.7044ZM34.8978 15.303C34.906 14.0757 33.9808 13.1244 32.763 13.1121C31.533 13.0985 30.5777 14.0183 30.5599 15.2333C30.5408 16.4852 31.477 17.446 32.7193 17.4501C33.9439 17.4528 34.8896 16.5221 34.8978 15.303Z" fill="#FD8401"/>
<path d="M34.8968 15.3028C34.8886 16.5233 33.9442 17.454 32.7183 17.4499C31.4759 17.4458 30.5397 16.485 30.5589 15.2331C30.5766 14.0181 31.532 13.0983 32.762 13.112C33.9797 13.1243 34.905 14.0741 34.8968 15.3028Z" fill="#FEF0B8"/>
</g>
<defs>
<clipPath id="clip0_1349_39346">
<rect width="52.3625" height="48" fill="white"/>
</clipPath>
</defs>
</svg>
