<svg width="37" height="38" viewBox="0 0 37 38" fill="none" xmlns="http://www.w3.org/2000/svg">
<path d="M1.99219 16.6641C1.82552 17.0859 1.70052 17.5052 1.61719 17.9219C1.51823 18.3542 1.46875 18.7995 1.46875 19.2578V19.4062C1.46875 19.776 1.51823 20.1328 1.61719 20.4766C1.72656 20.8516 1.90885 21.1536 2.16406 21.3828C2.36198 21.5026 2.5599 21.5625 2.75781 21.5625C2.84635 21.5625 2.93229 21.5521 3.01562 21.5312C3.32292 21.4688 3.57552 21.3177 3.77344 21.0781C3.98177 20.7812 4.13021 20.4974 4.21875 20.2266C4.35417 19.8047 4.45052 19.4583 4.50781 19.1875L4.73438 18.1016C4.78125 17.8099 4.85156 17.4896 4.94531 17.1406C5.04427 16.8177 5.14323 16.5833 5.24219 16.4375C5.35156 16.2552 5.4974 16.1641 5.67969 16.1641C5.82552 16.1641 5.9375 16.2083 6.01562 16.2969C6.09896 16.401 6.16406 16.513 6.21094 16.6328C6.26823 16.8099 6.30729 16.9531 6.32812 17.0625C6.35938 17.25 6.39844 17.3958 6.44531 17.5C6.49219 17.6354 6.55208 17.7552 6.625 17.8594C6.70833 17.9583 6.82031 18.0156 6.96094 18.0312V19.5C6.76823 19.4844 6.61198 19.4245 6.49219 19.3203C6.38802 19.2422 6.29427 19.1276 6.21094 18.9766C6.11719 18.7526 6.0599 18.6016 6.03906 18.5234C5.9974 18.3203 5.96875 18.1745 5.95312 18.0859C5.92188 17.9453 5.88542 17.8359 5.84375 17.7578C5.81771 17.6693 5.76823 17.625 5.69531 17.625C5.5651 17.625 5.45573 17.75 5.36719 18C5.26302 18.3229 5.18229 18.638 5.125 18.9453C5.04688 19.3203 4.95573 19.7266 4.85156 20.1641C4.74219 20.6432 4.61198 21.0599 4.46094 21.4141C4.32031 21.7839 4.11979 22.1146 3.85938 22.4062C3.61979 22.6719 3.3151 22.8203 2.94531 22.8516C2.86198 22.862 2.78125 22.8672 2.70312 22.8672C2.45312 22.8672 2.22135 22.8177 2.00781 22.7188C1.75781 22.5781 1.55729 22.388 1.40625 22.1484C1.25521 21.9089 1.15104 21.6224 1.09375 21.2891C1.02083 20.9193 0.984375 20.5729 0.984375 20.25C0.984375 19.8542 1.00521 19.4896 1.04688 19.1562C1.08854 18.8281 1.14323 18.4818 1.21094 18.1172C1.27344 17.8411 1.34896 17.5469 1.4375 17.2344C1.53646 16.9531 1.61719 16.7578 1.67969 16.6484C1.71615 16.5547 1.76562 16.4635 1.82812 16.375C1.88542 16.3333 1.92969 16.3125 1.96094 16.3125H1.98438C2.02083 16.3333 2.03906 16.3698 2.03906 16.4219C2.04427 16.4375 2.04688 16.4531 2.04688 16.4688C2.04688 16.5208 2.02865 16.5859 1.99219 16.6641ZM6.95312 18.0312C7.32812 18 7.59375 17.9349 7.75 17.8359C7.91146 17.737 8.03646 17.612 8.125 17.4609C8.21354 17.3099 8.27344 17.1562 8.30469 17C8.34115 16.8021 8.36458 16.6562 8.375 16.5625C8.39062 16.4427 8.40625 16.3333 8.42188 16.2344C8.4375 16.1458 8.47656 16.1016 8.53906 16.1016C8.58594 16.1016 8.6224 16.1354 8.64844 16.2031C8.65885 16.2448 8.68229 16.3255 8.71875 16.4453C8.76042 16.7057 8.79167 16.875 8.8125 16.9531C8.84375 16.9844 8.8724 17.0104 8.89844 17.0312C8.97135 17.0625 9.08333 17.0781 9.23438 17.0781H9.25V18.5391C9.01042 18.5391 8.83073 18.5286 8.71094 18.5078C8.63802 18.4922 8.58073 18.4844 8.53906 18.4844C8.47656 18.5625 8.39323 18.6719 8.28906 18.8125C8.1901 18.9427 8.09115 19.0521 7.99219 19.1406C7.83073 19.2604 7.70052 19.3464 7.60156 19.3984C7.42448 19.4661 7.20833 19.5 6.95312 19.5V18.0312ZM6.75781 23.2734C6.75781 23.112 6.78646 22.9401 6.84375 22.7578C6.88542 22.4818 6.90625 22.2839 6.90625 22.1641C6.96354 22.1641 7.08073 22.1328 7.25781 22.0703C7.32552 22.0599 7.42969 22.0391 7.57031 22.0078C7.70052 21.9818 7.8099 21.9635 7.89844 21.9531C8.19531 21.8646 8.39323 21.8151 8.49219 21.8047C8.67969 21.7422 8.80208 21.7109 8.85938 21.7109C8.88021 21.6901 8.90104 21.6797 8.92188 21.6797C8.94271 21.6797 8.96094 21.6901 8.97656 21.7109C8.97656 21.7266 8.99479 21.776 9.03125 21.8594C9.03125 21.9375 9.04427 21.9974 9.07031 22.0391V22.1641C9.07031 22.2995 9.04948 22.4896 9.00781 22.7344C8.98177 22.8854 8.92188 23.026 8.82812 23.1562C8.76042 23.2188 8.66146 23.276 8.53125 23.3281C8.38021 23.4062 8.22656 23.4557 8.07031 23.4766C7.95573 23.5234 7.77604 23.5651 7.53125 23.6016C7.25 23.638 7.07031 23.6562 6.99219 23.6562H6.78125C6.72396 23.6562 6.69531 23.638 6.69531 23.6016V23.4766L6.6875 23.4922C6.6875 23.4818 6.71094 23.4089 6.75781 23.2734ZM11.0156 16.5234C11 16.5234 10.9635 16.5651 10.9062 16.6484C10.8802 16.7109 10.8073 16.8307 10.6875 17.0078C10.599 17.1432 10.4948 17.2917 10.375 17.4531C10.2917 17.5729 10.1615 17.7344 9.98438 17.9375C9.85417 18.0833 9.71354 18.2057 9.5625 18.3047C9.39583 18.4245 9.25521 18.4896 9.14062 18.5V17.0312C9.26042 17.0312 9.39583 16.987 9.54688 16.8984C9.69792 16.8099 9.83333 16.7057 9.95312 16.5859C10.0885 16.4505 10.1927 16.3151 10.2656 16.1797C10.3438 16.0755 10.3828 15.9714 10.3828 15.8672C10.3828 15.7891 10.3438 15.7083 10.2656 15.625C10.1823 15.5312 10.0938 15.4688 10 15.4375C9.97917 15.4323 9.95573 15.4297 9.92969 15.4297C9.8776 15.4297 9.8151 15.4401 9.74219 15.4609L9.60938 15.5312L9.47656 15.6016C9.34635 15.6641 9.26562 15.6979 9.23438 15.7031H9.21875C9.17708 15.7031 9.15625 15.6641 9.15625 15.5859C9.15625 15.3672 9.19271 15.1172 9.26562 14.8359C9.33333 14.612 9.44271 14.3932 9.59375 14.1797C9.76042 13.9766 9.9401 13.8203 10.1328 13.7109C10.3516 13.6016 10.6016 13.5469 10.8828 13.5469C11.0859 13.5469 11.2708 13.5625 11.4375 13.5938C11.5625 13.6198 11.6823 13.6693 11.7969 13.7422C11.8906 13.8151 11.9531 13.9193 11.9844 14.0547C12 14.1172 12.0078 14.1901 12.0078 14.2734C12.0078 14.3568 12 14.4531 11.9844 14.5625C11.9688 14.7292 11.9349 14.8802 11.8828 15.0156C11.8255 15.2135 11.776 15.3568 11.7344 15.4453H11.9844V16.9141C11.6146 16.8984 11.3724 16.8385 11.2578 16.7344L11.0156 16.5234ZM13.6953 16.5078C13.5807 16.6589 13.4453 16.7995 13.2891 16.9297C13.0964 17.0703 12.9375 17.1745 12.8125 17.2422C12.6562 17.3255 12.4948 17.3906 12.3281 17.4375C12.1302 17.4792 11.9974 17.5 11.9297 17.5V16.0312C12.0078 16.0312 12.1068 16.0156 12.2266 15.9844C12.388 15.9479 12.5182 15.9089 12.6172 15.8672C12.737 15.8255 12.8672 15.7708 13.0078 15.7031C13.1224 15.6354 13.2161 15.5651 13.2891 15.4922C13.388 15.3932 13.4531 15.2995 13.4844 15.2109C13.5156 15.1484 13.5391 15.0573 13.5547 14.9375C13.5599 14.9115 13.5651 14.8698 13.5703 14.8125C13.5755 14.7604 13.5807 14.7214 13.5859 14.6953C13.5859 14.638 13.5964 14.5703 13.6172 14.4922C13.6328 14.4349 13.6641 14.3984 13.7109 14.3828C13.7526 14.3828 13.7812 14.4193 13.7969 14.4922C13.8125 14.5495 13.8281 14.6224 13.8438 14.7109C13.875 14.8724 13.8906 14.9609 13.8906 14.9766V14.9688L13.8984 15.125C13.9036 15.1927 13.9062 15.2448 13.9062 15.2812C14.2031 15.2656 14.4271 15.1901 14.5781 15.0547C14.7396 14.9349 14.8594 14.7865 14.9375 14.6094C15.0156 14.4271 15.0703 14.2474 15.1016 14.0703C15.112 13.9193 15.1354 13.75 15.1719 13.5625C15.1875 13.5104 15.2188 13.4766 15.2656 13.4609C15.3177 13.4609 15.3568 13.4948 15.3828 13.5625C15.4245 13.7396 15.4505 13.888 15.4609 14.0078C15.4714 14.0911 15.4766 14.1693 15.4766 14.2422C15.4766 14.3203 15.4714 14.3932 15.4609 14.4609C15.6693 14.4141 15.8333 14.3229 15.9531 14.1875C16.0729 14.0677 16.1615 13.9297 16.2188 13.7734C16.2812 13.6016 16.3281 13.4453 16.3594 13.3047C16.3698 13.1693 16.3932 13.0365 16.4297 12.9062C16.4297 12.8594 16.4557 12.8281 16.5078 12.8125C16.5547 12.8125 16.5885 12.8438 16.6094 12.9062C16.6354 12.974 16.6589 13.1068 16.6797 13.3047C16.6953 13.4245 16.7031 13.5703 16.7031 13.7422C16.7031 14.013 16.6693 14.2526 16.6016 14.4609C16.5339 14.7214 16.4479 14.9297 16.3438 15.0859C16.2396 15.2578 16.1094 15.4089 15.9531 15.5391C15.7969 15.6641 15.6172 15.7422 15.4141 15.7734C15.2266 15.9766 15.0208 16.138 14.7969 16.2578C14.5833 16.362 14.401 16.4349 14.25 16.4766C14.1146 16.5078 13.9896 16.5234 13.875 16.5234C13.8125 16.5234 13.7526 16.5182 13.6953 16.5078ZM22.1094 13.9297C22.1458 13.7526 22.1745 13.6068 22.1953 13.4922C22.2578 13.2943 22.3047 13.151 22.3359 13.0625C22.3828 12.9323 22.4167 12.8672 22.4375 12.8672C22.4792 12.8672 22.5599 12.8802 22.6797 12.9062C22.7214 12.9167 22.8464 12.9583 23.0547 13.0312C23.1432 13.0625 23.2578 13.1172 23.3984 13.1953C23.5026 13.2526 23.5547 13.3125 23.5547 13.375C23.5547 13.4062 23.5443 13.5104 23.5234 13.6875C23.5026 13.7812 23.4609 13.9167 23.3984 14.0938C23.3411 14.2552 23.2969 14.3672 23.2656 14.4297C23.224 14.5078 23.1901 14.5469 23.1641 14.5469H23.1484C23.0339 14.5 22.862 14.4245 22.6328 14.3203C22.3464 14.2109 22.1667 14.1458 22.0938 14.125L22.1094 13.9297ZM22.9688 16.125C23.1979 16.125 23.3411 16.2891 23.3984 16.6172V17.1641C22.8047 17.4974 22.5026 17.7682 22.4922 17.9766C22.3516 18.2005 22.0104 19.1484 21.4688 20.8203C21.0885 22.0755 20.4688 22.9505 19.6094 23.4453C18.4948 23.9505 17.3151 24.2031 16.0703 24.2031H15.5938L11.2812 24.1953C14.1615 23.987 16.2708 23.7057 17.6094 23.3516C19.3281 22.6849 20.526 21.5859 21.2031 20.0547C21.4896 19.4089 21.776 18.4062 22.0625 17.0469C22.3646 16.4323 22.6667 16.125 22.9688 16.125ZM26.2422 12.5469C26.237 12.5 26.25 11.9453 26.2812 10.8828C27.4844 11.7109 28.3802 12.9844 28.9688 14.7031C29.5521 16.4219 29.6589 18.0755 29.2891 19.6641C28.8411 21.5755 27.9792 23.1042 26.7031 24.25C25.2917 25.5208 23.5339 26.1562 21.4297 26.1562C20.5599 26.1615 20.099 26.125 20.0469 26.0469C20.0052 25.9844 20.2396 25.8802 20.75 25.7344C22.7031 25.1823 23.7266 24.8854 23.8203 24.8438C25.2682 24.1406 26.4323 23.3854 27.3125 22.5781C27.8333 22.1042 28.1328 21.763 28.2109 21.5547C28.8932 19.9505 29.0964 18.5078 28.8203 17.2266C28.5859 16.1432 27.9036 14.8281 26.7734 13.2812C27.1797 17.7292 27.3646 20.0312 27.3281 20.1875C27.3438 20.1146 27.3229 20.3698 27.2656 20.9531C27.2292 21.3698 27.1901 21.4453 27.1484 21.1797C27.0755 20.5078 26.9271 19.0703 26.7031 16.8672C26.5052 14.987 26.3516 13.5469 26.2422 12.5469ZM34.1484 19.5C34.0911 19.5156 34.0365 19.5234 33.9844 19.5234C33.9844 20.5547 33.8802 21.3464 33.6719 21.8984C33.4219 22.5182 33.0521 23.0156 32.5625 23.3906C32.0677 23.7969 31.4401 24.0859 30.6797 24.2578C29.9297 24.4401 29.0417 24.5312 28.0156 24.5312C27.7812 24.5417 26.3307 24.5312 23.6641 24.5C25.0755 24.4531 26.0208 24.3932 26.5 24.3203C26.9896 24.3099 27.526 24.2682 28.1094 24.1953C29.0573 24.1901 30.1224 23.8229 31.3047 23.0938C32.4714 22.3646 33.1901 21.3281 33.4609 19.9844C33.4766 19.9167 33.4844 19.8646 33.4844 19.8281C33.4844 19.7865 33.4766 19.7578 33.4609 19.7422C33.3984 19.7422 33.349 19.7526 33.3125 19.7734C33.1927 19.8255 33.1016 19.8646 33.0391 19.8906C32.8984 19.9531 32.7604 19.9922 32.625 20.0078C32.5781 20.013 32.5339 20.0156 32.4922 20.0156C32.263 20.0156 32.0755 19.9453 31.9297 19.8047C31.7943 19.6328 31.7266 19.3932 31.7266 19.0859C31.7266 19.0026 31.7448 18.8411 31.7812 18.6016C31.8281 18.3724 31.8776 18.2135 31.9297 18.125C31.987 17.9896 32.0781 17.8594 32.2031 17.7344C32.3021 17.6354 32.4505 17.5859 32.6484 17.5859C32.8984 17.5859 33.099 17.6458 33.25 17.7656C33.3542 17.8333 33.4349 17.9245 33.4922 18.0391C33.6849 18.0391 33.9036 18.0365 34.1484 18.0312V19.5ZM34.1484 18.0312C34.7266 18.0312 35.0938 17.9792 35.25 17.875C35.3906 17.7708 35.526 17.6302 35.6562 17.4531C35.7917 17.2656 35.8906 17.0911 35.9531 16.9297C36.0417 16.7214 36.0964 16.5573 36.1172 16.4375C36.1276 16.375 36.1328 16.3177 36.1328 16.2656C36.1328 16.2135 36.1276 16.1667 36.1172 16.125C36.1016 16.0833 36.0781 16.0625 36.0469 16.0625C36.0208 16.0625 35.9896 16.0781 35.9531 16.1094C35.9062 16.151 35.8281 16.2161 35.7188 16.3047C35.6198 16.388 35.5443 16.4531 35.4922 16.5C35.3568 16.6198 35.1823 16.6797 34.9688 16.6797C34.8125 16.6797 34.6927 16.6536 34.6094 16.6016C34.526 16.5443 34.4609 16.4688 34.4141 16.375C34.3411 16.1719 34.3047 15.9323 34.3047 15.6562C34.3047 15.4688 34.3203 15.2839 34.3516 15.1016C34.3776 14.9766 34.4271 14.8281 34.5 14.6562C34.5625 14.5469 34.6693 14.4427 34.8203 14.3438C34.9453 14.2708 35.125 14.2344 35.3594 14.2344C35.6198 14.2344 35.849 14.3099 36.0469 14.4609C36.2188 14.6068 36.3568 14.8021 36.4609 15.0469C36.5599 15.3177 36.6146 15.6016 36.625 15.8984C36.6302 15.9818 36.6328 16.0677 36.6328 16.1562C36.6328 16.3802 36.6172 16.612 36.5859 16.8516C36.5443 17.1224 36.4635 17.4427 36.3438 17.8125C36.2552 18.0885 36.125 18.3724 35.9531 18.6641C35.776 18.9245 35.5964 19.125 35.4141 19.2656C35.2109 19.4115 34.7891 19.4896 34.1484 19.5V18.0312ZM34.3125 12.0156C34.349 11.8333 34.3776 11.6875 34.3984 11.5781C34.5026 11.2448 34.5547 11.0703 34.5547 11.0547H34.5469L34.5156 11.1484C34.5677 11.0234 34.6094 10.9609 34.6406 10.9609C34.6615 10.9609 34.7396 10.974 34.875 11C34.9167 11.0104 35.0417 11.0495 35.25 11.1172C35.3385 11.1484 35.4505 11.2031 35.5859 11.2812C35.6849 11.3385 35.7344 11.3984 35.7344 11.4609C35.7344 11.5391 35.7214 11.6432 35.6953 11.7734C35.6536 11.9505 35.6172 12.0859 35.5859 12.1797C35.5286 12.3359 35.4844 12.4427 35.4531 12.5C35.401 12.5833 35.3646 12.625 35.3438 12.625H35.3359C34.9193 12.4583 34.7109 12.3724 34.7109 12.3672C34.7161 12.3672 34.7552 12.3828 34.8281 12.4141C34.6094 12.3151 34.4323 12.2448 34.2969 12.2031L34.3125 12.0156Z" fill="#39629C"/>
</svg>
