<svg width="13" height="10" viewBox="0 0 13 10" fill="none" xmlns="http://www.w3.org/2000/svg">
<g clip-path="url(#clip0_2533_24151)">
<path d="M6.77844 6.1742C6.77844 6.13969 6.77844 6.10423 6.77844 6.06972C6.77844 5.27953 6.78313 5.26647 7.5224 5.53795C9.12212 6.12476 10.4259 7.08101 11.2958 8.56996C11.5259 8.96366 11.7852 9.0868 12.0858 8.96179C12.3948 8.83305 12.4953 8.56903 12.3976 8.12775C11.8256 5.54728 10.3264 3.69448 7.93947 2.54419C7.6774 2.41731 7.40217 2.30256 7.12036 2.23259C6.8348 2.16169 6.75401 2.01802 6.77186 1.73907C6.79628 1.36777 6.78501 0.993662 6.77562 0.621424C6.76153 0.0887232 6.34821 -0.156637 5.88042 0.109248C4.09941 1.12054 2.3231 2.13836 0.550541 3.16365C0.0517454 3.45192 0.0630178 3.93891 0.573085 4.23278C2.18501 5.16198 3.80257 6.08091 5.41826 7.00358C5.60049 7.10806 5.77615 7.22561 5.96496 7.31331C6.35479 7.4943 6.74086 7.26759 6.77186 6.83938C6.78783 6.61921 6.77468 6.39717 6.77468 6.17514C6.77562 6.1742 6.7775 6.1742 6.77844 6.1742ZM9.79 5.28419C9.61058 5.32617 9.52134 5.23661 9.42271 5.1797C8.48148 4.63487 7.46792 4.28689 6.40082 4.08538C5.95838 4.00142 5.66718 4.22998 5.65122 4.67686C5.64088 4.9558 5.63619 5.23661 5.65215 5.51462C5.66906 5.8085 5.5817 5.82062 5.34687 5.68348C4.29667 5.06962 3.24366 4.46042 2.18125 3.86894C1.88254 3.70288 1.96614 3.63291 2.19534 3.50323C3.25493 2.90523 4.307 2.29509 5.36284 1.69149C5.43986 1.64764 5.51031 1.57021 5.64934 1.60846C5.64934 1.84169 5.6484 2.08332 5.64934 2.32495C5.65122 2.87911 5.75642 3.00692 6.29937 3.14592C7.6774 3.49764 8.83749 4.20106 9.79 5.28419Z" fill="#107C42"/>
<path d="M9.79102 5.28413C8.83851 4.201 7.67842 3.49758 6.30039 3.14493C5.75744 3.00592 5.65224 2.87811 5.65036 2.32395C5.64942 2.08233 5.65036 1.8407 5.65036 1.60747C5.51133 1.56922 5.44088 1.64665 5.36386 1.6905C4.30802 2.2941 3.25595 2.90423 2.1973 3.50317C1.96716 3.63378 1.88356 3.70282 2.18321 3.86888C3.24562 4.46036 4.29863 5.06956 5.34883 5.68342C5.58366 5.82056 5.67196 5.80844 5.65411 5.51456C5.63815 5.23655 5.64284 4.95574 5.65317 4.6768C5.66914 4.22992 5.96034 4.00136 6.40278 4.08532C7.46988 4.28683 8.4825 4.63481 9.42467 5.17964C9.52236 5.23655 9.6116 5.32611 9.79102 5.28413Z" fill="#FDFBFC"/>
</g>
<defs>
<clipPath id="clip0_2533_24151">
<rect width="12.2501" height="9.00741" fill="white" transform="matrix(-1 0 0 1 12.4336 0)"/>
</clipPath>
</defs>
</svg>
