<svg xmlns="http://www.w3.org/2000/svg" width="20" height="20" viewBox="0 0 20 20" fill="none">
  <path d="M19 14.49C18.8603 15.0899 18.4591 15.4565 17.9688 15.7406C17.2947 16.1307 16.5616 16.3331 15.8088 16.4695C14.7939 16.6528 13.7725 16.6968 12.746 16.6132C12.6935 16.6088 12.641 16.6035 12.5889 16.5937C12.3635 16.5507 12.2266 16.3712 12.2538 16.1581C12.2814 15.9415 12.4549 15.8115 12.6817 15.8163C13.3019 15.83 13.9235 15.8682 14.5417 15.8374C15.5402 15.7885 16.5194 15.612 17.4325 15.1539C17.5432 15.0987 17.6482 15.0312 17.7536 14.9657C18.0967 14.7525 18.2964 14.4631 18.2571 14.0197C18.2346 13.7674 18.2528 13.5112 18.2528 13.2487C18.2177 13.2541 18.1989 13.2516 18.1863 13.2599C17.3224 13.8236 16.3553 14.0524 15.3644 14.1937C14.5207 14.314 13.6727 14.3419 12.8228 14.271C12.7413 14.2641 12.6588 14.2597 12.5786 14.2441C12.3635 14.2025 12.2299 14.0251 12.2528 13.8183C12.2777 13.5958 12.4577 13.4614 12.6935 13.4702C13.1903 13.4892 13.6882 13.5205 14.185 13.5088C15.2266 13.4839 16.2522 13.3372 17.2188 12.906C17.4897 12.7852 17.74 12.6068 17.9842 12.4313C18.1591 12.3056 18.2528 12.1145 18.2505 11.8808C18.2472 11.5586 18.2496 11.2359 18.2496 10.9094C18.2228 10.9094 18.2027 10.9025 18.1914 10.9103C17.3336 11.4726 16.3722 11.7019 15.3878 11.8446C14.5211 11.9703 13.6492 11.9957 12.776 11.9214C12.7061 11.9155 12.6358 11.9091 12.5669 11.895C12.3621 11.8519 12.2336 11.6789 12.2524 11.4775C12.2721 11.2672 12.4394 11.1142 12.6522 11.124C12.8922 11.1347 13.1313 11.1646 13.3708 11.1704C14.5896 11.1998 15.7971 11.1098 16.9516 10.6674C17.3036 10.5324 17.6308 10.3183 17.9528 10.1125C18.1492 9.98684 18.2542 9.77808 18.2514 9.52288C18.2477 9.20559 18.2505 8.8883 18.2505 8.55488C18.2158 8.56466 18.1877 8.56612 18.1666 8.57981C17.3749 9.09364 16.4922 9.32146 15.5847 9.46764C14.3542 9.66612 13.1224 9.66466 11.8928 9.4647C11.0219 9.32292 10.1674 9.11172 9.40799 8.61892C9.18768 8.47568 8.98706 8.28795 8.80799 8.09092C8.57315 7.83279 8.48924 7.50524 8.49299 7.14786C8.50049 6.48786 8.51737 5.82688 8.49018 5.16835C8.46487 4.55186 8.70159 4.09621 9.15815 3.73932C9.68831 3.32475 10.2958 3.08812 10.93 2.92924C12.9569 2.42079 14.9782 2.43741 16.9844 3.05244C17.4691 3.20106 17.9275 3.41715 18.3367 3.73444C18.6672 3.99061 18.8997 4.31572 18.9991 4.73715C19 7.98728 19 11.2384 19 14.49ZM13.7481 3.36679C13.5902 3.36679 13.4317 3.36141 13.2738 3.36777C12.2383 3.40884 11.2216 3.55599 10.2578 3.97888C9.93862 4.1187 9.63112 4.28541 9.40002 4.56701C9.20221 4.80804 9.19706 5.0383 9.40424 5.2715C9.51815 5.39959 9.65268 5.51448 9.79471 5.60737C10.2967 5.9359 10.8564 6.11288 11.4307 6.24097C12.6386 6.51035 13.8583 6.5431 15.0827 6.40817C15.8125 6.3275 16.5325 6.18572 17.2057 5.87088C17.4803 5.7423 17.7499 5.58146 17.9847 5.38639C18.34 5.0911 18.3269 4.76452 17.9871 4.44577C17.9092 4.37244 17.8263 4.29959 17.7339 4.25021C17.4742 4.11186 17.2164 3.96324 16.9432 3.85959C15.9128 3.46701 14.8361 3.36728 13.7481 3.36679ZM18.2303 6.20528C16.8377 7.05008 15.3119 7.25835 13.7533 7.25884C12.1905 7.25932 10.661 7.04812 9.25565 6.19795C9.25565 6.53235 9.26456 6.84866 9.25284 7.16399C9.24346 7.40795 9.34424 7.5859 9.51018 7.73746C9.81487 8.01661 10.1772 8.18626 10.5527 8.32804C11.2567 8.5935 11.9885 8.72599 12.7319 8.78564C14.0191 8.88928 15.296 8.82719 16.5471 8.46395C17.0449 8.31924 17.5324 8.1359 17.9336 7.78146C18.0569 7.67244 18.2013 7.51306 18.2172 7.36297C18.2575 6.98506 18.2303 6.59932 18.2303 6.20528Z" fill="#5ED65C" stroke="#5ED65C" stroke-width="0.5"/>
  <path d="M1 11.7762C1.21 10.9397 1.85078 10.5755 2.53656 10.2738C3.38687 9.90031 4.28687 9.74094 5.19953 9.65978C6.48016 9.54538 7.75375 9.6148 9.00016 9.95311C9.47781 10.0827 9.94516 10.2758 10.3928 10.4938C10.6619 10.6248 10.9033 10.8385 11.1231 11.0526C11.4109 11.3328 11.5108 11.7033 11.5089 12.1155C11.5023 13.6002 11.5056 15.085 11.507 16.5697C11.5075 16.9203 11.402 17.2288 11.185 17.4952C10.8367 17.9225 10.3755 18.1733 9.88703 18.3728C9.00109 18.734 8.07344 18.8924 7.12984 18.9653C7.04313 18.9721 6.95734 18.9883 6.87109 19C6.46094 19 6.05078 19 5.64062 19C5.41469 18.976 5.18875 18.9526 4.96281 18.9272C4.12375 18.8338 3.29688 18.6764 2.51641 18.3302C1.83906 18.03 1.20672 17.6644 1 16.8367C1 15.15 1 13.4633 1 11.7762ZM6.25422 10.3941C5.27875 10.4039 4.31313 10.4943 3.37375 10.7872C2.91203 10.9309 2.46391 11.1093 2.08094 11.4252C1.64828 11.7816 1.64125 12.1409 2.07812 12.4851C2.29047 12.6523 2.53 12.7921 2.77469 12.9031C3.54484 13.2526 4.36234 13.4027 5.19438 13.4741C6.48109 13.5841 7.75703 13.5225 9.00953 13.1676C9.48016 13.0341 9.93484 12.8571 10.3366 12.5608C10.877 12.1629 10.8869 11.7503 10.3389 11.368C10.0647 11.1768 9.75906 11.0213 9.44922 10.902C8.41937 10.506 7.34172 10.4073 6.25422 10.3941ZM1.74906 13.2331C1.74906 13.5738 1.75234 13.8911 1.74813 14.2084C1.74484 14.4548 1.84094 14.6562 2.02797 14.7897C2.26281 14.9579 2.50422 15.1275 2.76437 15.2444C3.69625 15.6633 4.68484 15.809 5.69031 15.854C6.89078 15.9078 8.07719 15.8183 9.23219 15.4448C9.67 15.303 10.0905 15.1216 10.4505 14.8146C10.6459 14.6479 10.7655 14.4494 10.75 14.1683C10.7345 13.8945 10.7477 13.6188 10.7467 13.344C10.7467 13.3123 10.7359 13.2805 10.7298 13.2477C9.3325 14.0906 7.80813 14.3003 6.25094 14.2993C4.68766 14.2984 3.15766 14.0891 1.74906 13.2331ZM1.74813 15.5802C1.74813 15.9122 1.75234 16.227 1.74672 16.5424C1.7425 16.7956 1.83812 17.0024 2.03078 17.1403C2.26609 17.308 2.5075 17.4771 2.76766 17.594C3.69391 18.01 4.67687 18.1557 5.67672 18.2012C6.87719 18.2559 8.06359 18.1684 9.21906 17.7964C9.66813 17.6516 10.1064 17.4742 10.4631 17.1432C10.5766 17.0381 10.7102 16.889 10.7233 16.7482C10.7594 16.3698 10.7355 15.9855 10.7355 15.592C9.33672 16.4372 7.80766 16.6484 6.24531 16.647C4.68344 16.6445 3.15391 16.4348 1.74813 15.5802Z" fill="#5ED65C" stroke="#5ED65C" stroke-width="0.5"/>
  <path d="M1 5.21236C1.06328 5.12582 1.11766 5.03 1.19031 4.95373C1.76359 4.35093 2.34016 3.75107 2.91625 3.1512C3.12578 2.93267 3.24109 2.9136 3.51063 3.05293C3.86172 3.2348 4.21281 3.41618 4.56156 3.60244C4.6375 3.64302 4.69047 3.65329 4.75984 3.57995C5.30312 3.00649 5.85109 2.43742 6.39719 1.86689C6.40844 1.85515 6.41453 1.83804 6.43375 1.80627C6.37281 1.80138 6.32359 1.79404 6.27484 1.79404C5.91156 1.79307 5.54875 1.79649 5.18547 1.79258C4.91547 1.78964 4.75375 1.63564 4.75563 1.39511C4.7575 1.1624 4.91734 1.0084 5.17609 1.00644C5.90219 1.00107 6.62828 0.999599 7.35484 1.00009C7.59156 1.00009 7.74906 1.16729 7.74953 1.41467C7.75094 2.17195 7.75141 2.92973 7.74953 3.68702C7.74906 3.96178 7.5925 4.14218 7.3675 4.13631C7.14906 4.13093 7.00563 3.95835 7.00375 3.68849C7.00141 3.25729 7.00328 2.82658 7.00328 2.39538C6.97797 2.37533 6.95219 2.3548 6.92688 2.33475C6.89734 2.3944 6.88 2.46578 6.83687 2.51124C6.25562 3.12284 5.67109 3.73151 5.08656 4.34018C4.8775 4.55822 4.75703 4.57778 4.49125 4.43893C4.15141 4.26147 3.80875 4.08889 3.47359 3.90213C3.35828 3.83809 3.29172 3.8596 3.20453 3.952C2.71562 4.47071 2.22063 4.98258 1.7275 5.4964C1.44344 5.79267 1.2325 5.77409 1 5.43235C1 5.35902 1 5.28569 1 5.21236Z" fill="#5ED65C" stroke="#5ED65C" stroke-width="0.5"/>
</svg>