<svg width="26" height="24" viewBox="0 0 26 24" fill="none" xmlns="http://www.w3.org/2000/svg">
<path d="M1.00062 11.6774C1.09062 11.3718 1.16187 11.0593 1.27562 10.763C1.52062 10.1249 1.90437 9.58367 2.45312 9.16242C2.87312 8.84055 3.28 8.50242 3.73437 8.13805C3.29687 8.04805 2.90625 7.96867 2.51562 7.8868C2.22062 7.82555 2.12875 7.71867 2.12687 7.42742C2.12437 7.0993 2.12375 6.7718 2.12687 6.44367C2.13 6.14992 2.26562 6.00867 2.55437 6.0068C3.14 6.00305 3.72562 6.00305 4.31125 6.0068C4.61437 6.00867 4.74562 6.14742 4.75062 6.4568C4.75312 6.61305 4.75437 6.76867 4.75625 6.92492C4.75625 6.93117 4.76312 6.9368 4.8 6.9968C4.99375 6.68055 5.1925 6.39742 5.34687 6.0918C5.5725 5.64742 5.76 5.18367 5.97437 4.73305C6.50812 3.61055 7.40062 3.01555 8.64187 3.00992C11.5462 2.99617 14.4512 2.99742 17.3556 3.0093C18.5994 3.0143 19.4862 3.6118 20.0262 4.7293C20.3212 5.3393 20.615 5.94992 20.9187 6.55555C20.9912 6.69992 21.1031 6.82492 21.25 6.95117C21.25 6.78742 21.2481 6.62305 21.2506 6.4593C21.255 6.13992 21.3869 6.00742 21.71 6.00617C22.28 6.00367 22.85 6.00367 23.42 6.00617C23.74 6.00742 23.8719 6.1418 23.8744 6.4643C23.8769 6.7843 23.8769 7.1043 23.8744 7.42492C23.8725 7.7168 23.7837 7.82492 23.4881 7.88805C23.1 7.97117 22.7106 8.04805 22.2881 8.1343C22.3537 8.19492 22.3994 8.24305 22.4506 8.2843C22.8094 8.57305 23.1656 8.86492 23.5294 9.14742C24.3194 9.76117 24.7625 10.578 24.9562 11.5455C24.965 11.5905 24.985 11.6337 25 11.6774C25 13.9899 25 16.3024 25 18.6149C24.7612 19.2955 24.2706 19.5387 23.5675 19.513C22.6862 19.4812 21.8025 19.508 20.92 19.5043C20.2337 19.5018 19.7569 19.0237 19.7506 18.3405C19.7481 18.1093 19.75 17.8774 19.75 17.6468C15.235 17.6468 10.7487 17.6468 6.25 17.6468C6.25 17.873 6.25062 18.083 6.25 18.2937C6.24687 19.0393 5.78187 19.5043 5.03312 19.5049C4.09562 19.5062 3.15875 19.5062 2.22125 19.5043C2.1125 19.5043 2.00187 19.4993 1.89562 19.4774C1.41625 19.3799 1.16187 19.0437 0.999996 18.6149C1.00062 16.3024 1.00062 13.9899 1.00062 11.6774ZM1.75062 13.8887C1.75062 14.508 1.74875 15.1005 1.75125 15.6937C1.75437 16.4068 2.22812 16.8774 2.94625 16.8799C3.74312 16.8824 4.54 16.8855 5.33687 16.8749C5.44625 16.8737 5.57625 16.818 5.65875 16.7443C5.88625 16.5424 6.09375 16.318 6.31 16.1037C6.79312 15.6243 7.37437 15.3805 8.05625 15.3805C11.29 15.3805 14.5244 15.3805 17.7581 15.3805C18.44 15.3805 19.0219 15.623 19.505 16.103C19.7269 16.323 19.9425 16.5493 20.1706 16.763C20.2319 16.8205 20.3269 16.8749 20.4075 16.8755C21.3294 16.883 22.2512 16.888 23.1725 16.8762C23.7075 16.8693 24.1919 16.4637 24.2281 15.9274C24.2737 15.2537 24.2394 14.5743 24.2394 13.8974C24.1125 13.8974 24.0006 13.8974 23.8762 13.8974C23.8762 14.0224 23.8775 14.1305 23.8762 14.2393C23.8656 15.0099 23.3512 15.6399 22.5912 15.7318C22.1369 15.7868 21.6706 15.7612 21.2106 15.7474C21.0087 15.7412 20.8906 15.5943 20.88 15.3868C20.87 15.1924 21.0181 15.0343 21.2231 15.0099C21.2769 15.0037 21.3325 15.0068 21.3869 15.0068C21.6525 15.0068 21.92 14.9868 22.1831 15.0105C22.8269 15.0687 23.2531 14.6205 23.0956 13.8818C22.9062 13.8818 22.7125 13.8855 22.5187 13.8812C22.0937 13.8712 21.7231 14.0112 21.395 14.2743C21.1775 14.4487 20.9637 14.4493 20.815 14.2774C20.6619 14.0999 20.6994 13.8749 20.9262 13.6905C21.3644 13.3349 21.8644 13.1368 22.4325 13.133C23.0319 13.1287 23.6306 13.1324 24.2169 13.1324C24.2169 12.6162 24.2169 12.1243 24.2169 11.6099C23.6662 11.9724 23.5475 12.0074 22.8912 12.0074C22.1181 12.0074 21.3437 11.9855 20.5712 12.0162C20.1469 12.033 19.8056 11.9455 19.5525 11.5924C19.5087 11.5318 19.4425 11.4874 19.3594 11.4105C19.2681 11.5093 19.1775 11.5943 19.1019 11.6912C18.9081 11.9399 18.6644 12.0187 18.3469 12.0143C17.0819 11.9974 15.8156 12.0124 14.5506 12.0024C14.3525 12.0012 14.2162 12.0593 14.0844 12.2012C13.84 12.4643 13.5812 12.7143 13.3244 12.9655C13.0919 13.193 12.91 13.1924 12.6781 12.9643C12.4106 12.7012 12.1425 12.4393 11.885 12.1668C11.7744 12.0499 11.6612 12.003 11.4987 12.0037C10.1706 12.0105 8.8425 12.0043 7.515 12.0105C7.3125 12.0112 7.15125 11.9599 7.0175 11.8062C6.90062 11.6724 6.77312 11.548 6.60375 11.3718C6.4875 11.513 6.39187 11.6255 6.30062 11.7412C6.1375 11.948 5.93187 12.0174 5.66625 12.0124C4.815 11.9974 3.96312 11.9999 3.11187 12.0099C2.63937 12.0155 2.1925 11.9605 1.78687 11.5755C1.78687 12.1293 1.78687 12.6268 1.78687 13.1324C2.3925 13.1324 2.99375 13.1262 3.595 13.1343C4.1625 13.1418 4.6625 13.3437 5.09625 13.7055C5.30625 13.8805 5.33687 14.1074 5.18937 14.278C5.04187 14.4493 4.82187 14.4537 4.61 14.2737C4.09937 13.8412 3.5 13.8505 2.8775 13.8993C2.8775 13.9787 2.8775 14.0412 2.8775 14.103C2.875 14.7268 3.15187 15.0068 3.77312 15.0074C4.07 15.0074 4.36687 15.0062 4.66375 15.008C4.95625 15.0099 5.12937 15.1537 5.12562 15.388C5.1225 15.6137 4.95375 15.7555 4.67625 15.7574C4.31687 15.7599 3.9575 15.7637 3.59812 15.7562C2.79062 15.7387 2.14875 15.0949 2.12875 14.2887C2.12562 14.1587 2.12812 14.0287 2.12812 13.8918C1.99062 13.8887 1.88437 13.8887 1.75062 13.8887ZM22.2512 9.09367C22.1712 9.02617 22.1094 8.98117 22.0556 8.92742C21.6456 8.52242 21.2275 8.12555 20.8344 7.7043C20.7062 7.5668 20.5962 7.49992 20.405 7.50055C15.5712 7.50617 10.7375 7.51055 5.90375 7.49555C5.50187 7.4943 5.19375 7.55742 4.99562 7.92492C4.97375 7.96492 4.93687 7.99805 4.90312 8.03055C4.53437 8.3868 4.16562 8.74242 3.78375 9.11055C4.24875 9.29742 4.715 9.51805 5.20187 9.67367C6.07 9.95117 6.81375 10.3968 7.39625 11.1068C7.46562 11.1918 7.61937 11.2474 7.735 11.248C9.07 11.2574 10.4056 11.2574 11.7406 11.2512C11.9437 11.2505 12.0994 11.3087 12.2381 11.4568C12.4819 11.7168 12.7369 11.9655 13.0019 12.2349C13.28 11.9524 13.5187 11.6824 13.7887 11.448C13.9062 11.3462 14.0856 11.2655 14.2387 11.263C15.2694 11.2468 16.3 11.2549 17.3306 11.2543C17.7056 11.2543 18.1231 11.3537 18.4425 11.2199C18.77 11.0824 18.9912 10.7037 19.2787 10.453C19.4569 10.298 19.6562 10.1512 19.8719 10.0593C20.5525 9.76805 21.245 9.50492 21.9325 9.22992C22.0319 9.19055 22.1287 9.14617 22.2512 9.09367ZM5.8675 6.74242C10.6306 6.74242 15.3725 6.74242 20.1256 6.74242C19.8425 6.12742 19.5844 5.51867 19.2862 4.93055C18.905 4.17867 18.2712 3.7643 17.4275 3.76117C14.4756 3.74805 11.5231 3.75242 8.57125 3.75867C7.82812 3.75992 7.21562 4.08992 6.845 4.71305C6.465 5.34992 6.19375 6.0518 5.8675 6.74242ZM19.185 16.8674C18.8081 16.3987 18.3587 16.1312 17.7712 16.1305C16.5687 16.1299 15.3662 16.1305 14.1631 16.1305C12.1169 16.1305 10.0712 16.1287 8.025 16.1318C7.44187 16.1324 6.99687 16.4024 6.63312 16.8674C10.8281 16.8674 14.9937 16.8674 19.185 16.8674ZM1.75125 17.2455C1.75125 17.6518 1.74625 18.0024 1.75312 18.353C1.7575 18.603 1.89875 18.7518 2.145 18.753C3.13562 18.758 4.12687 18.7574 5.1175 18.753C5.33375 18.7518 5.4775 18.6274 5.49375 18.4118C5.5125 18.1587 5.49812 17.903 5.49812 17.6305C4.74937 17.6305 4.02562 17.6212 3.30187 17.6337C2.76375 17.643 2.24125 17.6137 1.75125 17.2455ZM24.25 17.2399C23.7562 17.6243 23.2237 17.6418 22.68 17.6324C22.0325 17.6218 21.385 17.6293 20.7375 17.6305C20.6625 17.6305 20.5875 17.6374 20.5012 17.6412C20.5012 17.8949 20.4956 18.128 20.5031 18.3605C20.5106 18.6068 20.6531 18.7512 20.9031 18.7524C21.8856 18.7568 22.8687 18.7568 23.8519 18.7524C24.1 18.7512 24.2437 18.6049 24.2487 18.3574C24.2556 18.0074 24.25 17.6562 24.25 17.2399ZM6.07625 10.8749C6.05625 10.8524 6.05187 10.8437 6.04562 10.8412C5.08562 10.4518 4.12562 10.0605 3.16312 9.67742C3.11187 9.6568 3.0125 9.67492 2.97625 9.71305C2.71562 9.98867 2.45937 10.2693 2.21812 10.5618C2.1725 10.6174 2.17437 10.7424 2.19937 10.8212C2.28875 11.1043 2.5225 11.2512 2.8775 11.253C3.705 11.2574 4.53375 11.2349 5.36062 11.2649C5.7 11.2774 5.89187 11.1262 6.07625 10.8749ZM19.9325 10.8405C19.9231 10.8724 19.9137 10.9049 19.9044 10.9368C20.0806 11.043 20.2537 11.2343 20.4337 11.2405C21.3231 11.2718 22.2137 11.2593 23.1037 11.2505C23.2469 11.2493 23.4025 11.2162 23.53 11.153C23.8219 11.0087 23.9075 10.6912 23.7119 10.4387C23.5225 10.1937 23.3044 9.96867 23.0775 9.75742C23.0137 9.69805 22.8612 9.67867 22.7737 9.70992C22.3625 9.85555 21.9594 10.0243 21.5544 10.1868C21.0137 10.4037 20.4731 10.6224 19.9325 10.8405ZM22.0187 6.76742C22.0187 6.99805 22.0187 7.2018 22.0187 7.4193C22.3194 7.3593 22.5981 7.28617 22.8812 7.25367C23.0981 7.2293 23.1525 7.1268 23.1262 6.93555C23.1194 6.8843 23.125 6.83117 23.125 6.76742C22.745 6.76742 22.3844 6.76742 22.0187 6.76742ZM2.8875 7.1993C3.25812 7.27242 3.61937 7.34305 3.98375 7.41492C3.98375 7.18117 3.98375 6.97492 3.98375 6.76617C3.61062 6.76617 3.25437 6.76617 2.8875 6.76617C2.8875 6.91305 2.8875 7.0493 2.8875 7.1993Z" fill="#FF9626" stroke="#FF9626" stroke-width="0.5"/>
</svg>
