<svg xmlns="http://www.w3.org/2000/svg" width="22" height="20" viewBox="0 0 22 20" fill="none">
  <path d="M1.00052 10.2312C1.07552 9.9765 1.1349 9.71608 1.22969 9.46921C1.43385 8.93744 1.75365 8.48639 2.21094 8.13535C2.56094 7.86712 2.9 7.58535 3.27865 7.28171C2.91406 7.20671 2.58854 7.14056 2.26302 7.07233C2.01719 7.02129 1.94063 6.93223 1.93906 6.68952C1.93698 6.41608 1.93646 6.14317 1.93906 5.86973C1.94167 5.62494 2.05469 5.50723 2.29531 5.50567C2.78333 5.50254 3.27135 5.50254 3.75937 5.50567C4.01198 5.50723 4.12135 5.62285 4.12552 5.88067C4.1276 6.01087 4.12865 6.14056 4.13021 6.27077C4.13021 6.27598 4.13594 6.28067 4.16667 6.33067C4.32812 6.06712 4.49375 5.83119 4.6224 5.5765C4.81042 5.20619 4.96667 4.81973 5.14531 4.44421C5.5901 3.50879 6.33385 3.01296 7.36823 3.00827C9.78854 2.99681 12.2094 2.99785 14.6297 3.00775C15.6661 3.01192 16.4052 3.50983 16.8552 4.44108C17.101 4.94942 17.3458 5.45827 17.599 5.96296C17.6594 6.08327 17.7526 6.18744 17.875 6.29264C17.875 6.15619 17.8734 6.01921 17.8755 5.88275C17.8792 5.6166 17.9891 5.50619 18.2583 5.50514C18.7333 5.50306 19.2083 5.50306 19.6833 5.50514C19.95 5.50619 20.0599 5.61817 20.062 5.88692C20.0641 6.15358 20.0641 6.42025 20.062 6.68744C20.0604 6.93067 19.9865 7.02077 19.7401 7.07337C19.4167 7.14264 19.0922 7.20671 18.7401 7.27858C18.7948 7.3291 18.8328 7.36921 18.8755 7.40358C19.1745 7.64421 19.4714 7.88744 19.7745 8.12285C20.4328 8.63431 20.8021 9.31504 20.9635 10.1213C20.9708 10.1588 20.9875 10.1947 21 10.2312C21 12.1583 21 14.0854 21 16.0124C20.801 16.5796 20.3922 16.7822 19.8062 16.7609C19.0719 16.7343 18.3354 16.7567 17.6 16.7536C17.0281 16.7515 16.6307 16.3531 16.6255 15.7838C16.6234 15.5911 16.625 15.3979 16.625 15.2057C12.8625 15.2057 9.12396 15.2057 5.375 15.2057C5.375 15.3942 5.37552 15.5692 5.375 15.7447C5.3724 16.3661 4.9849 16.7536 4.36094 16.7541C3.57969 16.7551 2.79896 16.7551 2.01771 16.7536C1.92708 16.7536 1.8349 16.7494 1.74635 16.7312C1.34687 16.6499 1.1349 16.3697 1 16.0124C1.00052 14.0854 1.00052 12.1583 1.00052 10.2312ZM1.62552 12.0739C1.62552 12.59 1.62396 13.0838 1.62604 13.5781C1.62865 14.1723 2.02344 14.5645 2.62187 14.5666C3.28594 14.5687 3.95 14.5713 4.61406 14.5624C4.70521 14.5614 4.81354 14.515 4.88229 14.4536C5.07188 14.2854 5.24479 14.0984 5.425 13.9197C5.8276 13.5202 6.31198 13.3171 6.88021 13.3171C9.575 13.3171 12.2703 13.3171 14.9651 13.3171C15.5333 13.3171 16.0182 13.5192 16.4208 13.9192C16.6057 14.1025 16.7854 14.2911 16.9755 14.4692C17.0266 14.5171 17.1057 14.5624 17.1729 14.563C17.9411 14.5692 18.7094 14.5734 19.4771 14.5635C19.9229 14.5577 20.3266 14.2197 20.3568 13.7729C20.3948 13.2114 20.3661 12.6452 20.3661 12.0812C20.2604 12.0812 20.1672 12.0812 20.0635 12.0812C20.0635 12.1854 20.0646 12.2755 20.0635 12.3661C20.0547 13.0083 19.626 13.5333 18.9927 13.6098C18.6141 13.6557 18.2255 13.6343 17.8422 13.6229C17.674 13.6176 17.5755 13.4952 17.5667 13.3223C17.5583 13.1604 17.6818 13.0286 17.8526 13.0083C17.8974 13.0031 17.9438 13.0057 17.9891 13.0057C18.2104 13.0057 18.4333 12.989 18.6526 13.0088C19.1891 13.0572 19.5443 12.6838 19.413 12.0682C19.2552 12.0682 19.0938 12.0713 18.9323 12.0676C18.5781 12.0593 18.2693 12.176 17.9958 12.3952C17.8146 12.5406 17.6365 12.5411 17.5125 12.3979C17.3849 12.2499 17.4161 12.0624 17.6052 11.9088C17.9703 11.6124 18.387 11.4473 18.8604 11.4442C19.3599 11.4406 19.8589 11.4437 20.3474 11.4437C20.3474 11.0135 20.3474 10.6036 20.3474 10.1749C19.8885 10.477 19.7896 10.5062 19.2427 10.5062C18.5984 10.5062 17.9531 10.488 17.3094 10.5135C16.9557 10.5275 16.6714 10.4546 16.4604 10.1604C16.424 10.1098 16.3687 10.0729 16.2995 10.0088C16.2234 10.0911 16.1479 10.1619 16.0849 10.2426C15.9234 10.4499 15.7203 10.5156 15.4557 10.5119C14.4016 10.4979 13.3464 10.5104 12.2922 10.502C12.1271 10.501 12.0135 10.5494 11.9036 10.6676C11.7 10.8869 11.4844 11.0952 11.2703 11.3046C11.0766 11.4942 10.925 11.4937 10.7318 11.3036C10.5089 11.0843 10.2854 10.8661 10.0708 10.639C9.97865 10.5416 9.88437 10.5025 9.74896 10.5031C8.64219 10.5088 7.53542 10.5036 6.42917 10.5088C6.26042 10.5093 6.12604 10.4666 6.01458 10.3385C5.91719 10.227 5.81094 10.1234 5.66979 9.9765C5.57292 10.0942 5.49323 10.188 5.41719 10.2843C5.28125 10.4567 5.1099 10.5145 4.88854 10.5104C4.17917 10.4979 3.46927 10.4999 2.7599 10.5083C2.36615 10.513 1.99375 10.4671 1.65573 10.1463C1.65573 10.6077 1.65573 11.0223 1.65573 11.4437C2.16042 11.4437 2.66146 11.4385 3.1625 11.4452C3.63542 11.4515 4.05208 11.6197 4.41354 11.9213C4.58854 12.0671 4.61406 12.2562 4.49115 12.3984C4.36823 12.5411 4.1849 12.5447 4.00833 12.3947C3.58281 12.0343 3.08333 12.0421 2.56458 12.0827C2.56458 12.1489 2.56458 12.201 2.56458 12.2525C2.5625 12.7723 2.79323 13.0057 3.31094 13.0062C3.55833 13.0062 3.80573 13.0051 4.05312 13.0067C4.29687 13.0083 4.44115 13.1281 4.43802 13.3234C4.43542 13.5114 4.29479 13.6296 4.06354 13.6312C3.76406 13.6333 3.46458 13.6364 3.1651 13.6301C2.49219 13.6156 1.95729 13.0791 1.94062 12.4072C1.93802 12.2989 1.9401 12.1906 1.9401 12.0765C1.82552 12.0739 1.73698 12.0739 1.62552 12.0739ZM18.7094 8.07806C18.6427 8.02181 18.5911 7.98431 18.5464 7.93952C18.2047 7.60202 17.8563 7.27129 17.5286 6.92025C17.4219 6.80567 17.3302 6.74994 17.1708 6.75046C13.1427 6.75514 9.11458 6.75879 5.08646 6.74629C4.75156 6.74525 4.49479 6.79785 4.32969 7.1041C4.31146 7.13744 4.28073 7.16504 4.2526 7.19212C3.94531 7.489 3.63802 7.78535 3.31979 8.09212C3.70729 8.24785 4.09583 8.43171 4.50156 8.56139C5.225 8.79264 5.84479 9.164 6.33021 9.75567C6.38802 9.8265 6.51615 9.87285 6.6125 9.87337C7.725 9.88119 8.83802 9.88119 9.95052 9.87598C10.1198 9.87546 10.2495 9.92389 10.3651 10.0473C10.5682 10.264 10.7807 10.4713 11.0016 10.6958C11.2333 10.4604 11.4323 10.2354 11.6573 10.04C11.7552 9.95514 11.9047 9.88796 12.0323 9.88587C12.8911 9.87233 13.75 9.8791 14.6089 9.87858C14.9214 9.87858 15.2693 9.9614 15.5354 9.84994C15.8083 9.73535 15.9927 9.41973 16.2323 9.21087C16.3807 9.08171 16.5469 8.95931 16.7266 8.88275C17.2938 8.64004 17.8708 8.42077 18.4438 8.1916C18.5266 8.15879 18.6073 8.12181 18.7094 8.07806ZM5.05625 6.11869C9.02552 6.11869 12.9771 6.11869 16.938 6.11869C16.7021 5.60619 16.487 5.09889 16.2385 4.60879C15.9208 3.98223 15.3927 3.63692 14.6896 3.63431C12.2297 3.62337 9.76927 3.62702 7.30937 3.63223C6.6901 3.63327 6.17969 3.90827 5.87083 4.42754C5.55417 4.95827 5.32812 5.54317 5.05625 6.11869ZM16.1542 14.5562C15.8401 14.1656 15.4656 13.9426 14.976 13.9421C13.974 13.9416 12.9719 13.9421 11.9693 13.9421C10.2641 13.9421 8.55937 13.9406 6.85417 13.9432C6.36823 13.9437 5.9974 14.1687 5.69427 14.5562C9.1901 14.5562 12.6615 14.5562 16.1542 14.5562ZM1.62604 14.8713C1.62604 15.2098 1.62187 15.502 1.6276 15.7942C1.63125 16.0025 1.74896 16.1265 1.95417 16.1275C2.77969 16.1317 3.60573 16.1312 4.43125 16.1275C4.61146 16.1265 4.73125 16.0229 4.74479 15.8432C4.76042 15.6322 4.74844 15.4192 4.74844 15.1921C4.12448 15.1921 3.52135 15.1843 2.91823 15.1947C2.46979 15.2025 2.03437 15.1781 1.62604 14.8713ZM20.375 14.8666C19.9635 15.1869 19.5198 15.2015 19.0667 15.1937C18.5271 15.1848 17.9875 15.1911 17.4479 15.1921C17.3854 15.1921 17.3229 15.1979 17.251 15.201C17.251 15.4124 17.2464 15.6067 17.2526 15.8005C17.2589 16.0057 17.3776 16.126 17.5859 16.127C18.4047 16.1307 19.224 16.1307 20.0432 16.127C20.25 16.126 20.3698 16.0041 20.374 15.7979C20.3797 15.5062 20.375 15.2135 20.375 14.8666ZM5.23021 9.56244C5.21354 9.54369 5.2099 9.53639 5.20469 9.53431C4.40469 9.20983 3.60469 8.88379 2.8026 8.56452C2.7599 8.54733 2.67708 8.56244 2.64688 8.59421C2.42969 8.82389 2.21615 9.05775 2.0151 9.3015C1.97708 9.34785 1.97865 9.45202 1.99948 9.51764C2.07396 9.75358 2.26875 9.87598 2.56458 9.87754C3.25417 9.88119 3.94479 9.86244 4.63385 9.88744C4.91667 9.89785 5.07656 9.77181 5.23021 9.56244ZM16.7771 9.53379C16.7693 9.56035 16.7615 9.58744 16.7536 9.614C16.9005 9.70254 17.0448 9.86192 17.1948 9.86712C17.9359 9.89317 18.6781 9.88275 19.4198 9.87546C19.5391 9.87442 19.6688 9.84681 19.775 9.79421C20.0182 9.67389 20.0896 9.40931 19.9266 9.19889C19.7688 8.99473 19.587 8.80723 19.3979 8.63119C19.3448 8.58171 19.2177 8.56556 19.1448 8.5916C18.8021 8.71296 18.4661 8.85358 18.1286 8.989C17.6781 9.16973 17.2276 9.35202 16.7771 9.53379ZM18.5156 6.13952C18.5156 6.33171 18.5156 6.5015 18.5156 6.68275C18.7661 6.63275 18.9984 6.57181 19.2344 6.54473C19.4151 6.52442 19.4604 6.439 19.4385 6.27962C19.4328 6.23692 19.4375 6.19264 19.4375 6.13952C19.1208 6.13952 18.8203 6.13952 18.5156 6.13952ZM2.57292 6.49942C2.88177 6.56035 3.18281 6.61921 3.48646 6.6791C3.48646 6.48431 3.48646 6.31244 3.48646 6.13848C3.17552 6.13848 2.87865 6.13848 2.57292 6.13848C2.57292 6.26087 2.57292 6.37442 2.57292 6.49942Z" fill="#FF9626" stroke="#FF9626" stroke-width="0.5"/>
</svg>