<svg width="16" height="16" viewBox="0 0 16 16" fill="none" xmlns="http://www.w3.org/2000/svg">
<g clip-path="url(#clip0_51_132)">
<path d="M8.32006 14C8.10772 14 7.92193 13.9204 7.76268 13.7611C7.44418 13.4426 7.44418 12.9383 7.76268 12.6464L12.0624 8.34659L7.76268 4.02029C7.44418 3.70179 7.44418 3.19749 7.76268 2.90553C8.08118 2.58703 8.58547 2.58703 8.87743 2.90553L13.7611 7.78922C14.0796 8.10772 14.0796 8.61201 13.7611 8.90397L8.87743 13.7611C8.74472 13.9204 8.53239 14 8.32006 14Z" fill="#6B6B6B"/>
<path d="M3.46291 14C3.25058 14 3.06478 13.9204 2.90553 13.7611C2.58703 13.4426 2.58703 12.9383 2.90553 12.6464L7.2053 8.34659L2.90553 4.02029C2.58703 3.70179 2.58703 3.19749 2.90553 2.90553C3.19749 2.58703 3.72833 2.58703 4.02029 2.90553L8.90397 7.78922C9.22247 8.10772 9.22247 8.61201 8.90397 8.90397L4.02029 13.7611C3.86104 13.9204 3.67524 14 3.46291 14Z" fill="#6B6B6B"/>
</g>
<defs>
<clipPath id="clip0_51_132">
<rect width="11.3333" height="11.3333" fill="white" transform="translate(2.66666 2.66666)"/>
</clipPath>
</defs>
</svg>
