 <svg xmlns="http://www.w3.org/2000/svg" width="20" height="20" viewBox="0 0 20 20" fill="none">
                                                <g clip-path="url(#clip0_84_76)">
                                                  <path d="M4.05186 9.9993C4.05186 7.06967 4.05132 4.13951 4.05293 1.20988C4.05293 1.07178 4.05293 0.929457 4.08448 0.796123C4.19571 0.328928 4.61336 0.0024725 5.10747 0.0019434C8.22886 -0.000702098 11.3508 -0.000172997 14.4722 0.0014143C14.8497 0.0014143 15.1813 0.137922 15.4476 0.400356C16.8347 1.76808 18.2198 3.13845 19.6016 4.51147C19.8615 4.76967 19.993 5.09083 19.9978 5.45856C19.9984 5.50459 20 5.55115 20 5.59718C20 10.0083 20.0005 14.4194 19.9989 18.831C19.9989 18.9559 19.9962 19.0845 19.9668 19.2051C19.8545 19.6654 19.4438 19.9845 18.9626 19.9993C18.9224 20.0004 18.8823 20.0004 18.8422 20.0004C14.2968 20.0004 9.75186 20.0004 5.2064 20.0004C4.63314 20.0004 4.22031 19.7173 4.09143 19.221C4.0556 19.0829 4.054 18.9332 4.054 18.7887C4.05132 15.8591 4.05186 12.9289 4.05186 9.9993ZM4.61336 9.97919C4.61336 12.9083 4.61336 15.8379 4.61336 18.767C4.61336 19.2993 4.76255 19.4443 5.30747 19.4443C9.79838 19.4443 14.2898 19.4443 18.7807 19.4443C19.2818 19.4443 19.438 19.2892 19.438 18.7903C19.438 14.4062 19.438 10.022 19.438 5.63792C19.438 4.94321 19.0096 4.51729 18.3037 4.51411C17.7224 4.51147 17.1406 4.5157 16.5593 4.51305C15.8668 4.50988 15.4492 4.09559 15.4476 3.41252C15.446 2.82417 15.4519 2.23528 15.4454 1.64692C15.439 1.04374 14.9995 0.557499 14.4519 0.55697C11.3508 0.553795 8.24972 0.554853 5.14865 0.556441C4.82084 0.556441 4.62726 0.749562 4.61389 1.07178C4.61068 1.14427 4.61282 1.21729 4.61282 1.28977C4.61336 4.18713 4.61336 7.08343 4.61336 9.97919ZM18.1636 3.95644C17.4444 3.24533 16.7214 2.53051 16.0128 1.82946C16.0128 2.37443 16.0064 2.95591 16.016 3.53686C16.0203 3.77549 16.2059 3.9485 16.4674 3.95327C17.0406 3.96385 17.6144 3.95644 18.1636 3.95644Z" fill="#923CE9" stroke="#923CE9" stroke-width="0.2"/>
                                                  <path d="M2.51229 5.18979C2.58288 5.18979 2.63261 5.18979 2.69999 5.18979C2.69999 4.99244 2.69732 4.80143 2.70053 4.61096C2.70427 4.41731 2.81817 4.29085 2.98127 4.29244C3.14438 4.29403 3.25988 4.41942 3.25988 4.61466C3.26149 6.27445 3.26149 7.93477 3.25988 9.59456C3.25988 9.80778 3.14919 9.92789 2.97165 9.92366C2.79625 9.91942 2.69999 9.80196 2.69999 9.57974C2.69892 8.38292 2.69946 7.18556 2.69946 5.98874C2.69946 5.91731 2.69946 5.84535 2.69946 5.76599C2.63208 5.76599 2.58288 5.76599 2.51229 5.76599C2.51229 5.84694 2.51229 5.91837 2.51229 5.98979C2.51229 7.01466 2.51817 8.04006 2.50801 9.06493C2.50587 9.29932 2.44865 9.53318 2.41657 9.76704C2.377 10.0528 2.3048 10.3379 2.3032 10.6237C2.29357 12.667 2.29999 14.711 2.29411 16.7543C2.29357 16.9152 2.26202 17.0829 2.20801 17.2348C2.04117 17.7014 1.86523 18.1655 1.67486 18.6231C1.57111 18.8734 1.5171 19.1237 1.53528 19.393C1.54331 19.5115 1.54545 19.6321 1.53101 19.7496C1.51282 19.8988 1.41657 19.9919 1.26309 19.9951C1.09999 19.9983 1.00534 19.9036 0.978065 19.7453C0.972718 19.7131 0.971648 19.6787 0.975392 19.6464C1.0294 19.1792 0.922985 18.7401 0.718172 18.3242C0.293039 17.4612 0.174857 16.5565 0.201595 15.5988C0.247049 13.9596 0.209616 12.3189 0.218172 10.6787C0.219777 10.3374 0.177531 10.011 0.0791348 9.6845C0.0283327 9.51678 0.00426851 9.33477 0.003199 9.15964C-0.00107908 7.71202 0.00266424 6.26334 -9.5606e-06 4.81519C-0.00054432 4.61413 0.0363541 4.43847 0.197851 4.2972C0.237958 4.26228 0.251327 4.18239 0.252932 4.1226C0.259349 3.90461 0.251327 3.68609 0.256675 3.4681C0.265766 3.07763 0.547049 2.79561 0.942237 2.78345C1.15614 2.77657 1.37004 2.77551 1.58395 2.78397C1.96737 2.79879 2.24491 3.08027 2.25828 3.46016C2.26309 3.59879 2.26042 3.73794 2.25935 3.87657C2.25774 4.07763 2.23261 4.27551 2.42192 4.43424C2.48823 4.48979 2.49892 4.6263 2.50908 4.72789C2.52299 4.8718 2.51229 5.01784 2.51229 5.18979ZM1.73742 16.6697C1.73742 16.5819 1.73742 16.5041 1.73742 16.4268C1.73742 14.5364 1.74277 12.6453 1.73315 10.7549C1.73101 10.3279 1.76309 9.9136 1.90159 9.50725C1.93689 9.40355 1.94919 9.28768 1.94919 9.1771C1.9524 7.77551 1.95133 6.37445 1.95133 4.97286C1.95133 4.90302 1.95133 4.83265 1.95133 4.76334C1.47272 4.76334 1.02352 4.76334 0.562557 4.76334C0.562557 4.86016 0.562557 4.939 0.562557 5.01784C0.562557 6.26704 0.569509 7.51678 0.558279 8.76599C0.554536 9.16016 0.594108 9.54059 0.720311 9.91519C0.761488 10.0374 0.774322 10.1739 0.774322 10.3041C0.777531 12.3469 0.776461 14.3893 0.776461 16.4321C0.776461 16.5094 0.776461 16.5866 0.776461 16.6697C1.10694 16.6697 1.41122 16.6697 1.73742 16.6697ZM1.69732 4.1771C1.69732 3.94429 1.70801 3.72101 1.68983 3.50038C1.68502 3.4427 1.59518 3.3517 1.53689 3.34535C1.35293 3.32524 1.16416 3.32524 0.980204 3.34535C0.920846 3.3517 0.829402 3.44112 0.824589 3.49773C0.806408 3.71889 0.817103 3.9427 0.817103 4.17762C1.11496 4.1771 1.39732 4.1771 1.69732 4.1771ZM1.60213 17.2575C1.35561 17.2575 1.14384 17.2575 0.911755 17.2575C1.02673 17.5554 1.13154 17.8268 1.25774 18.1538C1.38395 17.8242 1.48876 17.5522 1.60213 17.2575Z" fill="#923CE9" stroke="#923CE9" stroke-width="0.2"/>
                                                  <path d="M12.4684 13.5427C12.062 13.9126 11.6444 13.9882 11.315 13.7051C11.1433 13.5581 11.0086 13.5115 10.784 13.5544C10.5225 13.6041 10.2936 13.4755 10.1096 13.2776C10.0658 13.2305 9.97754 13.184 9.91979 13.194C9.31925 13.2993 8.89305 12.9586 8.88342 12.3549C8.88289 12.3353 8.88021 12.3157 8.88021 12.3178C8.72246 12.2215 8.5615 12.1512 8.4369 12.0401C8.22941 11.8554 8.12193 11.5909 8.21765 11.339C8.33636 11.0247 8.13743 10.8797 7.95401 10.7639C7.61818 10.5517 7.2492 10.3893 6.89198 10.2104C6.85615 10.1924 6.79572 10.1877 6.76203 10.2057C6.56684 10.3062 6.38984 10.248 6.20588 10.1702C5.59251 9.91255 5.41176 9.96388 5.42193 8.98504C5.43476 7.75647 5.96417 6.75753 6.8984 5.96123C7.1139 5.77763 7.35241 5.75171 7.60374 5.88769C7.81444 6.00144 8.02888 6.11097 8.23155 6.23742C8.31765 6.29139 8.41658 6.37287 8.44332 6.46176C8.49037 6.61732 8.60107 6.6771 8.72513 6.74271C9.2123 6.99986 9.73476 7.02419 10.2668 6.97075C10.7989 6.91732 11.3209 6.9115 11.8086 7.17975C11.8471 7.20091 11.9241 7.18504 11.9679 7.16017C12.6337 6.78398 13.3214 6.67816 14.0663 6.92049C14.5797 7.08716 15.0529 6.91679 15.4936 6.64589C15.5203 6.62948 15.5535 6.6025 15.5588 6.57605C15.6059 6.33583 15.7979 6.24112 15.9893 6.14112C16.1487 6.05806 16.3027 5.96441 16.4615 5.88081C16.6904 5.76017 16.9214 5.76705 17.1171 5.93425C18.2294 6.88292 18.777 8.0607 18.5877 9.53213C18.5583 9.76229 18.4316 9.92049 18.2182 10.0115C18.0588 10.0797 17.9032 10.1607 17.738 10.2083C17.6219 10.2417 17.4679 10.275 17.3743 10.2263C17.2139 10.1432 17.0995 10.194 16.9668 10.2581C16.7989 10.339 16.6299 10.4184 16.4578 10.4903C16.2128 10.5924 15.9872 10.6835 15.9267 11.0004C15.885 11.2194 15.6824 11.3586 15.4615 11.4279C15.3551 11.4612 15.3064 11.503 15.2898 11.6253C15.246 11.9469 15.0535 12.166 14.7396 12.2665C14.6348 12.3004 14.5877 12.3417 14.5636 12.4607C14.4957 12.7972 14.2765 13.0062 13.9321 13.0676C13.8166 13.0882 13.7562 13.1268 13.7102 13.2454C13.5519 13.6565 13.0979 13.8163 12.6578 13.6327C12.5963 13.6073 12.5374 13.576 12.4684 13.5427ZM11.2626 7.59351C11.2583 7.5697 11.254 7.54589 11.2497 7.52155C10.9492 7.52155 10.6471 7.49933 10.3492 7.52578C9.64866 7.58874 8.97701 7.53107 8.3508 7.18081C8.30107 7.15277 8.18984 7.16017 8.14973 7.19721C7.47166 7.82366 7.09786 8.59721 7.02781 9.51467C7.01925 9.62949 7.07166 9.67287 7.16096 9.72472C7.63797 10.0014 8.19519 10.1438 8.58235 10.5734C9.01283 9.75277 9.89679 9.90144 10.185 10.5501C10.5754 10.5099 10.8701 10.6528 11.0636 11.0014C11.0877 11.0443 11.1818 11.0665 11.2444 11.0681C11.5086 11.075 11.7428 11.1639 11.8818 11.3813C11.9856 11.5438 12.0968 11.5951 12.2856 11.6147C12.6914 11.657 12.9096 11.929 12.9791 12.2401C13.1626 12.2877 13.3027 12.3152 13.4364 12.3623C13.523 12.393 13.5979 12.4544 13.6807 12.4967C13.808 12.5612 13.9241 12.5337 13.9909 12.4126C14.0567 12.293 14.0214 12.1808 13.9005 12.1057C13.8326 12.0633 13.7615 12.0274 13.6936 11.985C13.5251 11.8797 13.4759 11.7268 13.5631 11.5845C13.6455 11.4496 13.7989 11.4157 13.9658 11.503C14.0957 11.5708 14.2193 11.6496 14.3497 11.7163C14.4963 11.7909 14.6321 11.7655 14.7102 11.6194C14.7813 11.4866 14.7428 11.3612 14.6107 11.276C14.538 11.2295 14.4594 11.1919 14.3872 11.1443C14.238 11.0459 14.1898 10.8819 14.2781 10.7528C14.3765 10.6078 14.5139 10.5898 14.6636 10.666C14.7824 10.7263 14.8947 10.7983 15.0118 10.8612C15.1861 10.9559 15.3337 10.9295 15.4139 10.7935C15.4941 10.6581 15.4487 10.5173 15.2717 10.4152C14.631 10.0475 13.9888 9.68239 13.3439 9.32208C12.9513 9.10303 12.546 9.09086 12.1326 9.27287C11.8283 9.40726 11.5267 9.55012 11.2139 9.66123C10.7877 9.81255 10.3979 9.71361 10.0567 9.42631C9.65936 9.09139 9.69626 8.5734 10.1348 8.29298C10.2861 8.19615 10.4401 8.10409 10.593 8.00938C10.816 7.87075 11.0396 7.73213 11.2626 7.59351ZM15.8674 10.1491C16.1679 10.012 16.4888 9.85065 16.8219 9.72049C17.0021 9.65012 17.038 9.54906 17.016 9.37658C16.9118 8.54695 16.5652 7.83901 15.9679 7.24642C15.8545 7.13425 15.7727 7.11784 15.631 7.2025C15.0519 7.54853 14.4326 7.63054 13.785 7.42261C13.2733 7.25806 12.7888 7.34007 12.3412 7.59986C11.7027 7.97023 11.0802 8.36758 10.4497 8.75118C10.308 8.83742 10.3299 8.92578 10.438 9.01573C10.6075 9.15753 10.8037 9.21837 11.0155 9.13848C11.2706 9.04271 11.5214 8.93478 11.7668 8.81784C12.438 8.4988 13.0904 8.51837 13.7348 8.89351C14.269 9.20515 14.8107 9.50462 15.346 9.81414C15.5171 9.91414 15.6797 10.0284 15.8674 10.1491ZM16.1701 6.67816C16.6134 7.07287 16.9594 7.51414 17.2053 8.02896C17.4492 8.53954 17.5642 9.08292 17.6 9.64695C17.9963 9.54218 18.0412 9.5152 18.0572 9.3152C18.1535 8.148 17.7102 7.20038 16.8412 6.4316C16.8059 6.40038 16.7257 6.37922 16.6877 6.39721C16.516 6.47975 16.3513 6.57763 16.1701 6.67816ZM7.30909 6.36229C6.48663 6.92472 5.91711 8.12578 5.98182 9.14853C6.00535 9.52366 6.03904 9.55964 6.45668 9.63901C6.50963 8.46176 6.98556 7.4771 7.88075 6.67657C7.6754 6.56335 7.48984 6.46123 7.30909 6.36229ZM9.74064 12.6623C9.77005 12.6443 9.85989 12.6194 9.89519 12.5618C10.1203 12.1967 10.3396 11.8274 10.546 11.4517C10.6128 11.33 10.5738 11.1977 10.4406 11.13C10.3134 11.0649 10.185 11.0882 10.1091 11.2147C9.89144 11.5766 9.6754 11.9401 9.4738 12.3104C9.38449 12.476 9.50856 12.657 9.74064 12.6623ZM11.5182 11.8332C11.4615 11.7739 11.4037 11.6618 11.3321 11.6517C11.2396 11.639 11.0904 11.6782 11.0439 11.7469C10.8519 12.0316 10.6866 12.3337 10.5176 12.6332C10.4401 12.7708 10.4781 12.894 10.6134 12.9718C10.7545 13.0533 10.8781 13.0025 10.9562 12.8745C11.1289 12.5924 11.2925 12.3051 11.4561 12.0184C11.4818 11.975 11.4898 11.921 11.5182 11.8332ZM9.66952 10.7686C9.60481 10.7089 9.5385 10.5983 9.45989 10.5887C9.36898 10.5782 9.23048 10.63 9.17808 10.702C9.03422 10.8983 8.92299 11.1189 8.8016 11.3311C8.71925 11.475 8.74225 11.6099 8.88717 11.6887C9.02941 11.7665 9.15882 11.721 9.24278 11.5771C9.3631 11.3718 9.48449 11.1671 9.6016 10.9596C9.62727 10.9157 9.63743 10.8628 9.66952 10.7686ZM11.8299 13.3141C11.8636 13.293 11.9519 13.2676 11.9898 13.2094C12.1369 12.9819 12.2765 12.7485 12.4016 12.5089C12.4668 12.3835 12.4257 12.2591 12.2947 12.1872C12.1717 12.1194 12.0487 12.1464 11.977 12.2591C11.8278 12.493 11.685 12.7321 11.5615 12.9803C11.4829 13.1364 11.6134 13.3104 11.8299 13.3141ZM12.754 13.0364C12.9631 13.1808 13.1214 13.1903 13.1786 13.057C13.2765 12.8279 13.0503 12.8083 12.9428 12.6999C12.8754 12.8189 12.8182 12.9221 12.754 13.0364Z" fill="#923CE9" stroke="#923CE9" stroke-width="0.2"/>
                                                  <path d="M13.4503 17.4131C13.6979 17.2353 13.9396 17.0475 14.1957 16.8824C14.3781 16.7649 14.5711 16.6485 14.7765 16.585C15.1374 16.4734 15.4144 16.7311 15.3647 17.1041C15.3519 17.2009 15.3289 17.2961 15.3166 17.3591C15.6727 17.1808 16.0299 16.9729 16.4107 16.8221C16.6658 16.721 16.9524 16.6871 17.2283 16.6485C17.4396 16.6189 17.5743 16.7337 17.5829 16.9057C17.5914 17.0739 17.4856 17.1797 17.2765 17.1956C16.662 17.2422 16.131 17.4829 15.6583 17.8639C15.6374 17.8808 15.6176 17.8983 15.5963 17.9141C15.4059 18.0533 15.2043 18.1575 14.9674 18.0348C14.7348 17.9147 14.7144 17.6956 14.7283 17.4692C14.7337 17.3781 14.7481 17.2877 14.7615 17.1691C14.6684 17.2326 14.5925 17.2834 14.5176 17.3353C14.2775 17.5025 14.0422 17.6776 13.7952 17.8342C13.6733 17.9115 13.5353 17.9744 13.3957 18.012C13.0337 18.1088 12.7695 17.9046 12.8102 17.5379C12.8348 17.3131 12.9364 17.0972 12.9984 16.8755C13.0706 16.6162 13.1743 16.3591 13.1973 16.0951C13.2283 15.7358 13.0364 15.6194 12.7262 15.8067C11.9791 16.258 11.4733 16.9062 11.2348 17.7438C11.1679 17.9776 11.2278 18.0316 11.4695 18.0221C11.5428 18.0194 11.616 18.0078 11.6893 18.0094C11.838 18.0125 11.9278 18.0988 11.9529 18.2353C11.9781 18.3744 11.916 18.4945 11.777 18.5311C11.4797 18.6099 11.1765 18.63 10.9134 18.4332C10.6684 18.2496 10.6182 17.9861 10.6738 17.702C10.7053 17.5411 10.7417 17.3766 10.8064 17.2268C11.1091 16.5258 11.5636 15.9353 12.1866 15.4856C12.3658 15.3565 12.5802 15.2554 12.7941 15.1982C13.2412 15.0787 13.6192 15.3274 13.7278 15.776C13.8241 16.1734 13.7332 16.5496 13.5888 16.9184C13.5294 17.0702 13.4652 17.2205 13.4032 17.3718C13.4187 17.3861 13.4348 17.3998 13.4503 17.4131Z" fill="#923CE9" stroke="#923CE9" stroke-width="0.2"/>
                                                  <path d="M12.0273 15.04C10.3171 15.04 8.6064 15.04 6.89624 15.04C6.8294 15.04 6.76041 15.0475 6.69678 15.0321C6.55025 14.9977 6.46416 14.9035 6.47111 14.7485C6.47753 14.6035 6.56469 14.5189 6.70373 14.4903C6.76148 14.4787 6.82352 14.4845 6.88341 14.4845C10.3107 14.4845 13.738 14.4845 17.1652 14.4845C17.2118 14.4845 17.2588 14.4818 17.3053 14.4861C17.4749 14.5004 17.5882 14.6115 17.5807 14.7654C17.5727 14.9395 17.4679 15.0252 17.2984 15.0385C17.2385 15.0432 17.1781 15.04 17.1182 15.04C15.4214 15.04 13.7241 15.04 12.0273 15.04Z" fill="#923CE9" stroke="#923CE9" stroke-width="0.2"/>
                                                  <path d="M10.1134 3.80039C11.1818 3.80039 12.2508 3.80039 13.3193 3.80091C13.3925 3.80091 13.4845 3.77869 13.5353 3.81361C13.6251 3.87446 13.7433 3.96705 13.7503 4.05382C13.7572 4.14113 13.6578 4.25488 13.577 4.32472C13.5278 4.36705 13.4241 4.35541 13.3449 4.35541C11.1941 4.357 9.04385 4.35647 6.89305 4.35594C6.82674 4.35594 6.75829 4.35753 6.69412 4.34271C6.54492 4.30885 6.4615 4.21255 6.47166 4.05806C6.48182 3.90515 6.57166 3.81785 6.72727 3.80409C6.79358 3.79827 6.86096 3.80039 6.92727 3.80039C7.9893 3.79986 9.05134 3.80039 10.1134 3.80039Z" fill="#923CE9" stroke="#923CE9" stroke-width="0.2"/>
                                                  <path d="M9.73101 2.77126C8.78288 2.77126 7.83475 2.77179 6.88662 2.7702C6.8139 2.7702 6.73796 2.76914 6.66898 2.74957C6.52994 2.70988 6.45935 2.61041 6.47165 2.4665C6.48395 2.32311 6.56898 2.23845 6.71336 2.21994C6.77272 2.21253 6.83315 2.2157 6.89358 2.2157C8.78342 2.2157 10.6727 2.2157 12.5626 2.2157C12.6225 2.2157 12.6989 2.1956 12.7396 2.22417C12.8283 2.28713 12.9348 2.36279 12.9679 2.45644C13.0144 2.58713 12.9326 2.70248 12.7925 2.74533C12.7182 2.76808 12.6353 2.7702 12.5561 2.7702C11.6139 2.77179 10.6727 2.77126 9.73101 2.77126Z" fill="#923CE9" stroke="#923CE9" stroke-width="0.2"/>
                                                  <path d="M11.785 5.38398C12.3053 5.38398 12.8262 5.38345 13.3465 5.38451C13.4128 5.38451 13.4989 5.36546 13.5422 5.39879C13.6289 5.46493 13.746 5.55752 13.7508 5.64482C13.7556 5.73213 13.6503 5.83795 13.5711 5.91255C13.5332 5.94853 13.4438 5.939 13.3781 5.939C12.3235 5.94059 11.2695 5.94006 10.215 5.94006C10.1882 5.94006 10.1615 5.94112 10.1348 5.93848C9.94652 5.92154 9.83583 5.81572 9.83797 5.65594C9.84011 5.4935 9.9492 5.38874 10.1428 5.38715C10.6898 5.38292 11.2369 5.38557 11.7845 5.38557C11.785 5.38451 11.785 5.38451 11.785 5.38398Z" fill="#923CE9" stroke="#923CE9" stroke-width="0.2"/>
                                                  <path d="M7.81443 15.9898C8.15454 15.9898 8.49465 15.9877 8.83475 15.9903C9.0401 15.9919 9.15668 16.0924 9.15988 16.2596C9.16309 16.4268 9.04438 16.5422 8.84545 16.5432C8.15828 16.5469 7.47112 16.5469 6.78448 16.5432C6.58609 16.5422 6.46684 16.4274 6.46951 16.2607C6.47218 16.0924 6.58769 15.9919 6.79358 15.9903C7.13368 15.9877 7.47379 15.9898 7.81443 15.9898Z" fill="#923CE9" stroke="#923CE9" stroke-width="0.2"/>
                                                  <path d="M7.45453 13.5353C7.23475 13.5353 7.01496 13.5379 6.79464 13.5348C6.58929 13.5316 6.47325 13.4326 6.46951 13.2649C6.46576 13.0983 6.58501 12.9834 6.78234 12.9813C7.22887 12.9771 7.67539 12.9771 8.12191 12.9813C8.31924 12.9829 8.43956 13.0972 8.43742 13.2628C8.43528 13.4289 8.3171 13.5316 8.11389 13.5342C7.89411 13.5379 7.67432 13.5353 7.45453 13.5353Z" fill="#923CE9" stroke="#923CE9" stroke-width="0.2"/>
                                                  <path d="M16.6011 12.9797C16.8209 12.9797 17.0412 12.9766 17.261 12.9808C17.4615 12.9845 17.5813 13.0909 17.5823 13.2565C17.5834 13.4247 17.4668 13.5327 17.2658 13.5342C16.8192 13.5374 16.3727 13.538 15.9262 13.5342C15.7273 13.5327 15.6102 13.4205 15.6144 13.2517C15.6187 13.0935 15.7348 12.9861 15.9214 12.9819C16.1481 12.976 16.3749 12.9803 16.6011 12.9797Z" fill="#923CE9" stroke="#923CE9" stroke-width="0.2"/>
                                                </g>
                                                <defs>
                                                  <clipPath id="clip0_84_76">
                                                    <rect width="20" height="20" fill="white"/>
                                                  </clipPath>
                                                </defs>
                                              </svg>