<svg width="24" height="24" viewBox="0 0 24 24" fill="none" xmlns="http://www.w3.org/2000/svg">
<g clip-path="url(#clip0_684_405)">
<path d="M4.86225 11.9992C4.86225 8.48361 4.86161 4.96742 4.86354 1.45187C4.86354 1.28615 4.86354 1.11536 4.9014 0.95536C5.03488 0.394725 5.53605 0.00297921 6.12899 0.00234429C9.87466 -0.000830311 13.621 -0.00019539 17.3666 0.00170937C17.8197 0.00170937 18.2175 0.165519 18.5371 0.480439C20.2017 2.12171 21.8638 3.76615 23.5219 5.41377C23.8338 5.72361 23.9917 6.10901 23.9974 6.55028C23.9981 6.60552 24 6.66139 24 6.71663C24 12.01 24.0007 17.3033 23.9987 22.5973C23.9987 22.7471 23.9955 22.9014 23.9602 23.0462C23.8255 23.5985 23.3326 23.9814 22.7551 23.9992C22.707 24.0004 22.6588 24.0004 22.6107 24.0004C17.1562 24.0004 11.7023 24.0004 6.24771 24.0004C5.55979 24.0004 5.06439 23.6608 4.90974 23.0652C4.86675 22.8995 4.86482 22.7198 4.86482 22.5465C4.86161 19.0309 4.86225 15.5147 4.86225 11.9992ZM5.53605 11.975C5.53605 15.49 5.53605 19.0055 5.53605 22.5204C5.53605 23.1592 5.71509 23.3331 6.36899 23.3331C11.7581 23.3331 17.1478 23.3331 22.5369 23.3331C23.1382 23.3331 23.3256 23.1471 23.3256 22.5484C23.3256 17.2874 23.3256 12.0265 23.3256 6.76552C23.3256 5.93187 22.8116 5.42076 21.9645 5.41695C21.267 5.41377 20.5688 5.41885 19.8712 5.41568C19.0402 5.41187 18.539 4.91472 18.5371 4.09504C18.5352 3.38901 18.5423 2.68234 18.5346 1.97631C18.5269 1.2525 17.9994 0.669011 17.3423 0.668376C13.621 0.664566 9.89969 0.665836 6.1784 0.667741C5.78504 0.667741 5.55274 0.899487 5.53669 1.28615C5.53284 1.37314 5.53541 1.46076 5.53541 1.54774C5.53605 5.02457 5.53605 8.50012 5.53605 11.975ZM21.7964 4.74774C20.9333 3.89441 20.0657 3.03663 19.2154 2.19536C19.2154 2.84933 19.2077 3.54711 19.2193 4.24425C19.2244 4.5306 19.4471 4.73822 19.7609 4.74393C20.4488 4.75663 21.1373 4.74774 21.7964 4.74774Z" fill="#923CE9" stroke="#923CE9" stroke-width="0.2"/>
<path d="M3.01477 6.22774C3.09947 6.22774 3.15915 6.22774 3.24001 6.22774C3.24001 5.99091 3.2368 5.7617 3.24065 5.53313C3.24514 5.30075 3.38182 5.14901 3.57755 5.15091C3.77327 5.15281 3.91188 5.30329 3.91188 5.53758C3.9138 7.52932 3.9138 9.5217 3.91188 11.5134C3.91188 11.7693 3.77904 11.9135 3.566 11.9084C3.35551 11.9033 3.24001 11.7623 3.24001 11.4957C3.23872 10.0595 3.23937 8.62266 3.23937 7.18647C3.23937 7.10075 3.23937 7.0144 3.23937 6.91916C3.15851 6.91916 3.09947 6.91916 3.01477 6.91916C3.01477 7.01631 3.01477 7.10202 3.01477 7.18774C3.01477 8.41758 3.02183 9.64805 3.00963 10.8779C3.00707 11.1592 2.9384 11.4398 2.8999 11.7204C2.85241 12.0633 2.76578 12.4055 2.76386 12.7484C2.75231 15.2004 2.76001 17.6531 2.75295 20.1052C2.75231 20.2982 2.71445 20.4995 2.64963 20.6817C2.44942 21.2417 2.2383 21.7985 2.00985 22.3477C1.88535 22.6481 1.82054 22.9484 1.84236 23.2715C1.85199 23.4138 1.85455 23.5585 1.83723 23.6995C1.81541 23.8785 1.6999 23.9903 1.51573 23.9941C1.32001 23.9979 1.20642 23.8842 1.1737 23.6944C1.16728 23.6557 1.166 23.6144 1.17049 23.5757C1.2353 23.015 1.1076 22.4881 0.861825 21.989C0.351665 20.9535 0.209846 19.8677 0.241932 18.7185C0.296477 16.7515 0.251558 14.7827 0.261825 12.8144C0.26375 12.4049 0.213055 12.0131 0.0949801 11.6214C0.0340175 11.4201 0.00514053 11.2017 0.0038571 10.9915C-0.00127658 9.2544 0.00321539 7.51599 6.83782e-06 5.77821C-0.000634873 5.53694 0.0436432 5.32615 0.23744 5.15662C0.285568 5.11472 0.301611 5.01885 0.303536 4.9471C0.311237 4.68551 0.301611 4.42329 0.308028 4.1617C0.318937 3.69313 0.656477 3.35472 1.1307 3.34012C1.38739 3.33186 1.64407 3.33059 1.90076 3.34075C2.36086 3.35853 2.69391 3.69631 2.70995 4.15218C2.71573 4.31853 2.71252 4.48551 2.71124 4.65186C2.70931 4.89313 2.67915 5.13059 2.90632 5.32107C2.98589 5.38774 2.99872 5.55154 3.01092 5.67345C3.0276 5.84615 3.01477 6.02139 3.01477 6.22774ZM2.08493 20.0036C2.08493 19.8982 2.08493 19.8049 2.08493 19.7122C2.08493 17.4436 2.09134 15.1744 2.07979 12.9058C2.07723 12.3934 2.11573 11.8963 2.28193 11.4087C2.32429 11.2842 2.33904 11.1452 2.33904 11.0125C2.34289 9.33059 2.34161 7.64932 2.34161 5.96742C2.34161 5.88361 2.34161 5.79916 2.34161 5.71599C1.76728 5.71599 1.22824 5.71599 0.675087 5.71599C0.675087 5.83218 0.675087 5.92678 0.675087 6.02139C0.675087 7.52043 0.683429 9.02012 0.669953 10.5192C0.665461 10.9922 0.712948 11.4487 0.864392 11.8982C0.913804 12.0449 0.929205 12.2087 0.929205 12.3649C0.933055 14.8163 0.931772 17.2671 0.931772 19.7185C0.931772 19.8112 0.931772 19.9039 0.931772 20.0036C1.32835 20.0036 1.69348 20.0036 2.08493 20.0036ZM2.0368 5.0125C2.0368 4.73313 2.04963 4.4652 2.02781 4.20043C2.02204 4.13123 1.91423 4.02202 1.84428 4.0144C1.62354 3.99027 1.39701 3.99027 1.17626 4.0144C1.10503 4.02202 0.995301 4.12932 0.989526 4.19726C0.967707 4.46266 0.980542 4.73123 0.980542 5.01313C1.33797 5.0125 1.6768 5.0125 2.0368 5.0125ZM1.92257 20.709C1.62674 20.709 1.37263 20.709 1.09412 20.709C1.23209 21.0665 1.35787 21.3922 1.50931 21.7846C1.66076 21.389 1.78653 21.0627 1.92257 20.709Z" fill="#923CE9" stroke="#923CE9" stroke-width="0.2"/>
<path d="M14.9621 16.2512C14.4744 16.6951 13.9733 16.7858 13.578 16.4462C13.372 16.2697 13.2103 16.2138 12.9407 16.2652C12.627 16.3249 12.3523 16.1706 12.1316 15.9331C12.0789 15.8766 11.973 15.8208 11.9037 15.8328C11.1831 15.9592 10.6717 15.5503 10.6601 14.8258C10.6595 14.8024 10.6563 14.7789 10.6563 14.7814C10.467 14.6658 10.2738 14.5814 10.1243 14.4481C9.87529 14.2265 9.74631 13.909 9.86118 13.6068C10.0036 13.2297 9.76492 13.0557 9.54481 12.9166C9.14182 12.662 8.69904 12.4671 8.27037 12.2525C8.22738 12.2309 8.15487 12.2252 8.11444 12.2468C7.88021 12.3674 7.66781 12.2976 7.44706 12.2043C6.71102 11.8951 6.49412 11.9566 6.50631 10.782C6.52171 9.30775 7.15701 8.10902 8.27807 7.15347C8.53668 6.93315 8.82289 6.90204 9.12449 7.06521C9.37733 7.20172 9.63465 7.33315 9.87786 7.48489C9.98118 7.54966 10.0999 7.64743 10.132 7.7541C10.1884 7.94077 10.3213 8.01251 10.4702 8.09124C11.0548 8.39981 11.6817 8.42902 12.3202 8.36489C12.9587 8.30077 13.585 8.29378 14.1703 8.61569C14.2165 8.64108 14.3089 8.62204 14.3615 8.5922C15.1604 8.14077 15.9857 8.01378 16.8796 8.30458C17.4956 8.50458 18.0635 8.30013 18.5923 7.97505C18.6244 7.95537 18.6642 7.92299 18.6706 7.89124C18.7271 7.60299 18.9574 7.48934 19.1872 7.36934C19.3784 7.26966 19.5632 7.15727 19.7538 7.05696C20.0284 6.91219 20.3057 6.92045 20.5405 7.12108C21.8753 8.2595 22.5324 9.67283 22.3052 11.4385C22.2699 11.7147 22.1179 11.9046 21.8618 12.0138C21.6706 12.0957 21.4839 12.1928 21.2856 12.25C21.1463 12.29 20.9615 12.33 20.8492 12.2716C20.6567 12.1719 20.5194 12.2328 20.3602 12.3097C20.1587 12.4068 19.9559 12.502 19.7493 12.5884C19.4554 12.7109 19.1846 12.8201 19.1121 13.2004C19.062 13.4633 18.8188 13.6303 18.5538 13.7135C18.4261 13.7535 18.3677 13.8036 18.3478 13.9503C18.2952 14.3363 18.0642 14.5992 17.6875 14.7198C17.5617 14.7604 17.5052 14.81 17.4764 14.9528C17.3949 15.3566 17.1318 15.6074 16.7185 15.6811C16.5799 15.7058 16.5074 15.7522 16.4522 15.8944C16.2622 16.3878 15.7174 16.5795 15.1893 16.3592C15.1155 16.3287 15.0449 16.2912 14.9621 16.2512ZM13.5151 9.11219C13.5099 9.08362 13.5048 9.05505 13.4997 9.02585C13.139 9.02585 12.7765 8.99918 12.419 9.03093C11.5784 9.10648 10.7724 9.03727 10.021 8.61696C9.96128 8.58331 9.82781 8.5922 9.77968 8.63664C8.96599 9.38839 8.51743 10.3166 8.43337 11.4176C8.4231 11.5554 8.48599 11.6074 8.59316 11.6697C9.16556 12.0017 9.83422 12.1725 10.2988 12.6881C10.8154 11.7033 11.8761 11.8817 12.222 12.6601C12.6905 12.6119 13.0441 12.7833 13.2764 13.2017C13.3052 13.2531 13.4182 13.2798 13.4933 13.2817C13.8103 13.29 14.0913 13.3966 14.2582 13.6576C14.3827 13.8525 14.5161 13.9141 14.7427 13.9376C15.2297 13.9884 15.4916 14.3147 15.575 14.6881C15.7951 14.7452 15.9632 14.7782 16.1236 14.8347C16.2276 14.8716 16.3174 14.9452 16.4169 14.996C16.5696 15.0735 16.7089 15.0404 16.7891 14.8951C16.868 14.7516 16.8257 14.617 16.6806 14.5268C16.5991 14.476 16.5138 14.4328 16.4323 14.382C16.2302 14.2557 16.1711 14.0722 16.2757 13.9014C16.3745 13.7395 16.5587 13.6989 16.7589 13.8036C16.9149 13.8849 17.0631 13.9795 17.2197 14.0595C17.3955 14.149 17.5585 14.1185 17.6522 13.9433C17.7375 13.7839 17.6913 13.6335 17.5328 13.5312C17.4456 13.4754 17.3512 13.4303 17.2646 13.3731C17.0856 13.2551 17.0278 13.0582 17.1337 12.9033C17.2518 12.7293 17.4167 12.7078 17.5964 12.7992C17.7388 12.8716 17.8736 12.9579 18.0141 13.0335C18.2233 13.1471 18.4004 13.1154 18.4967 12.9522C18.5929 12.7897 18.5384 12.6208 18.326 12.4982C17.5572 12.057 16.7865 11.6189 16.0126 11.1865C15.5416 10.9236 15.0552 10.909 14.5591 11.1274C14.194 11.2887 13.8321 11.4601 13.4567 11.5935C12.9452 11.7751 12.4774 11.6563 12.068 11.3116C11.5912 10.9097 11.6355 10.2881 12.1617 9.95156C12.3433 9.83537 12.5281 9.72489 12.7117 9.61124C12.9793 9.44489 13.2475 9.27854 13.5151 9.11219ZM19.0409 12.1789C19.4015 12.0144 19.7865 11.8208 20.1863 11.6646C20.4026 11.5801 20.4456 11.4589 20.4193 11.2519C20.2941 10.2563 19.8783 9.4068 19.1615 8.69569C19.0255 8.56108 18.9273 8.5414 18.7572 8.64299C18.0622 9.05823 17.3191 9.15664 16.542 8.90712C15.9279 8.70966 15.3465 8.80807 14.8094 9.11981C14.0432 9.56426 13.2963 10.0411 12.5397 10.5014C12.3696 10.6049 12.3959 10.7109 12.5256 10.8189C12.729 10.989 12.9645 11.062 13.2186 10.9662C13.5247 10.8512 13.8257 10.7217 14.1202 10.5814C14.9256 10.1985 15.7084 10.222 16.4817 10.6722C17.1228 11.0462 17.7728 11.4055 18.4152 11.777C18.6205 11.897 18.8156 12.0341 19.0409 12.1789ZM19.4041 8.01378C19.936 8.48743 20.3512 9.01696 20.6464 9.63474C20.939 10.2474 21.077 10.8995 21.12 11.5763C21.5955 11.4506 21.6494 11.4182 21.6687 11.1782C21.7842 9.77759 21.2522 8.64045 20.2094 7.71791C20.1671 7.68045 20.0708 7.65505 20.0252 7.67664C19.8193 7.77569 19.6216 7.89315 19.4041 8.01378ZM8.77091 7.63473C7.78396 8.30966 7.10053 9.75093 7.17818 10.9782C7.20642 11.4284 7.24684 11.4716 7.74802 11.5668C7.81155 10.1541 8.38267 8.97251 9.4569 8.01188C9.21048 7.876 8.98781 7.75346 8.77091 7.63473ZM11.6888 15.1947C11.7241 15.1731 11.8319 15.1433 11.8742 15.0741C12.1444 14.636 12.4075 14.1928 12.6552 13.742C12.7354 13.596 12.6886 13.4373 12.5288 13.356C12.376 13.2779 12.222 13.3058 12.1309 13.4576C11.8697 13.8919 11.6105 14.3281 11.3686 14.7725C11.2614 14.9712 11.4103 15.1884 11.6888 15.1947ZM13.8218 14.1998C13.7538 14.1287 13.6845 13.9941 13.5985 13.982C13.4875 13.9668 13.3084 14.0138 13.2526 14.0963C13.0222 14.4379 12.824 14.8004 12.6212 15.1598C12.5281 15.3249 12.5737 15.4728 12.736 15.5662C12.9055 15.6639 13.0537 15.603 13.1474 15.4493C13.3547 15.1109 13.551 14.7662 13.7474 14.422C13.7782 14.37 13.7878 14.3052 13.8218 14.1998ZM11.6034 12.9224C11.5258 12.8506 11.4462 12.7179 11.3519 12.7065C11.2428 12.6938 11.0766 12.756 11.0137 12.8424C10.8411 13.0779 10.7076 13.3427 10.5619 13.5973C10.4631 13.77 10.4907 13.9319 10.6646 14.0265C10.8353 14.1198 10.9906 14.0652 11.0913 13.8925C11.2357 13.6462 11.3814 13.4004 11.5219 13.1516C11.5527 13.0989 11.5649 13.0354 11.6034 12.9224ZM14.1959 15.977C14.2364 15.9516 14.3422 15.9211 14.3878 15.8512C14.5643 15.5782 14.7318 15.2982 14.8819 15.0106C14.9602 14.8601 14.9108 14.7109 14.7536 14.6246C14.606 14.5433 14.4584 14.5757 14.3724 14.7109C14.1934 14.9916 14.022 15.2785 13.8738 15.5763C13.7795 15.7636 13.936 15.9725 14.1959 15.977ZM15.3048 15.6436C15.5557 15.817 15.7457 15.8284 15.8143 15.6684C15.9318 15.3935 15.6603 15.37 15.5313 15.2398C15.4505 15.3827 15.3818 15.5065 15.3048 15.6436Z" fill="#923CE9" stroke="#923CE9" stroke-width="0.2"/>
<path d="M16.1403 20.8957C16.4374 20.6823 16.7275 20.4569 17.0349 20.2588C17.2537 20.1179 17.4854 19.9782 17.7318 19.902C18.1649 19.768 18.4973 20.0773 18.4377 20.5249C18.4222 20.6411 18.3947 20.7553 18.3799 20.8309C18.8073 20.6169 19.2359 20.3674 19.6928 20.1865C19.9989 20.0652 20.3429 20.0246 20.674 19.9782C20.9275 19.9427 21.0892 20.0804 21.0995 20.2868C21.1097 20.4887 20.9827 20.6157 20.7318 20.6347C19.9944 20.6906 19.3572 20.9795 18.7899 21.4366C18.7649 21.4569 18.7412 21.4779 18.7155 21.4969C18.4871 21.6639 18.2451 21.789 17.9609 21.6417C17.6817 21.4976 17.6573 21.2347 17.674 20.963C17.6804 20.8538 17.6978 20.7452 17.7138 20.603C17.6021 20.6792 17.511 20.7401 17.4212 20.8023C17.1331 21.003 16.8507 21.2131 16.5542 21.4011C16.4079 21.4938 16.2424 21.5693 16.0749 21.6144C15.6404 21.7306 15.3234 21.4855 15.3722 21.0455C15.4017 20.7757 15.5236 20.5166 15.5981 20.2506C15.6847 19.9395 15.8092 19.6309 15.8368 19.3141C15.874 18.883 15.6436 18.7433 15.2714 18.968C14.375 19.5096 13.7679 20.2874 13.4817 21.2925C13.4015 21.5731 13.4734 21.6379 13.7634 21.6265C13.8513 21.6233 13.9393 21.6093 14.0272 21.6112C14.2056 21.615 14.3134 21.7185 14.3435 21.8823C14.3737 22.0493 14.2993 22.1934 14.1324 22.2373C13.7756 22.3319 13.4118 22.356 13.096 22.1198C12.8021 21.8995 12.7418 21.5833 12.8086 21.2423C12.8464 21.0493 12.8901 20.8519 12.9677 20.6722C13.3309 19.8309 13.8764 19.1223 14.624 18.5827C14.8389 18.4277 15.0963 18.3065 15.3529 18.2379C15.8894 18.0944 16.3431 18.3928 16.4734 18.9312C16.5889 19.408 16.4798 19.8595 16.3065 20.302C16.2353 20.4842 16.1583 20.6646 16.0839 20.8461C16.1025 20.8633 16.1217 20.8798 16.1403 20.8957Z" fill="#923CE9" stroke="#923CE9" stroke-width="0.2"/>
<path d="M14.4327 18.0481C12.3805 18.0481 10.3277 18.0481 8.27551 18.0481C8.19529 18.0481 8.11251 18.0569 8.03615 18.0385C7.86032 17.9973 7.757 17.8842 7.76535 17.6982C7.77305 17.5242 7.87765 17.4227 8.04449 17.3884C8.1138 17.3744 8.18823 17.3814 8.26011 17.3814C12.3728 17.3814 16.4856 17.3814 20.5983 17.3814C20.6541 17.3814 20.7106 17.3782 20.7664 17.3833C20.9698 17.4004 21.1059 17.5338 21.0969 17.7185C21.0873 17.9274 20.9615 18.0303 20.7581 18.0461C20.6862 18.0519 20.6137 18.0481 20.5418 18.0481C18.5057 18.0481 16.4689 18.0481 14.4327 18.0481Z" fill="#923CE9" stroke="#923CE9" stroke-width="0.2"/>
<path d="M12.1361 4.56043C13.4182 4.56043 14.701 4.56043 15.9831 4.56107C16.071 4.56107 16.1814 4.5344 16.2424 4.5763C16.3502 4.64932 16.492 4.76043 16.5003 4.86456C16.5087 4.96932 16.3893 5.10583 16.2924 5.18964C16.2334 5.24043 16.1089 5.22646 16.0139 5.22646C13.4329 5.22837 10.8526 5.22773 8.27167 5.2271C8.19209 5.2271 8.10996 5.229 8.03295 5.21123C7.85391 5.17059 7.75381 5.05503 7.766 4.86964C7.77819 4.68615 7.886 4.58138 8.07274 4.56488C8.15231 4.55789 8.23316 4.56043 8.31274 4.56043C9.58717 4.5598 10.8616 4.56043 12.1361 4.56043Z" fill="#923CE9" stroke="#923CE9" stroke-width="0.2"/>
<path d="M11.6772 3.32552C10.5395 3.32552 9.40171 3.32615 8.26396 3.32425C8.17669 3.32425 8.08557 3.32298 8.00278 3.29949C7.83594 3.25187 7.75123 3.1325 7.76599 2.9598C7.78075 2.78774 7.88278 2.68615 8.05605 2.66393C8.12728 2.65504 8.19979 2.65885 8.2723 2.65885C10.5401 2.65885 12.8073 2.65885 15.0751 2.65885C15.147 2.65885 15.2387 2.63472 15.2875 2.66901C15.394 2.74456 15.5217 2.83536 15.5615 2.94774C15.6173 3.10456 15.5191 3.24298 15.351 3.29441C15.2618 3.32171 15.1624 3.32425 15.0674 3.32425C13.9367 3.32615 12.8073 3.32552 11.6772 3.32552Z" fill="#923CE9" stroke="#923CE9" stroke-width="0.2"/>
<path d="M14.142 6.46076C14.7664 6.46076 15.3914 6.46013 16.0158 6.4614C16.0954 6.4614 16.1987 6.43854 16.2507 6.47854C16.3547 6.5579 16.4952 6.66902 16.501 6.77378C16.5067 6.87854 16.3803 7.00552 16.2853 7.09505C16.2398 7.13822 16.1326 7.12679 16.0537 7.12679C14.7882 7.1287 13.5234 7.12806 12.258 7.12806C12.2259 7.12806 12.1938 7.12933 12.1617 7.12616C11.9358 7.10584 11.803 6.97886 11.8056 6.78711C11.8081 6.59219 11.939 6.46648 12.1713 6.46457C12.8278 6.45949 13.4843 6.46267 14.1414 6.46267C14.142 6.4614 14.142 6.4614 14.142 6.46076Z" fill="#923CE9" stroke="#923CE9" stroke-width="0.2"/>
<path d="M9.37734 19.1877C9.78547 19.1877 10.1936 19.1852 10.6017 19.1884C10.8481 19.1903 10.988 19.3109 10.9919 19.5115C10.9957 19.7122 10.8533 19.8506 10.6146 19.8519C9.78996 19.8563 8.96536 19.8563 8.1414 19.8519C7.90333 19.8506 7.76023 19.7128 7.76343 19.5128C7.76664 19.3109 7.90525 19.1903 8.15231 19.1884C8.56044 19.1852 8.96857 19.1877 9.37734 19.1877Z" fill="#923CE9" stroke="#923CE9" stroke-width="0.2"/>
<path d="M8.94546 16.2423C8.68171 16.2423 8.41797 16.2455 8.15358 16.2417C7.90717 16.2379 7.76792 16.1192 7.76342 15.9179C7.75893 15.7179 7.90203 15.5801 8.13882 15.5776C8.67465 15.5725 9.21048 15.5725 9.74631 15.5776C9.9831 15.5795 10.1275 15.7166 10.1249 15.9153C10.1224 16.1147 9.98054 16.2379 9.73669 16.2411C9.47294 16.2455 9.2092 16.2423 8.94546 16.2423Z" fill="#923CE9" stroke="#923CE9" stroke-width="0.2"/>
<path d="M19.9213 15.5757C20.185 15.5757 20.4494 15.5719 20.7132 15.577C20.9538 15.5814 21.0975 15.709 21.0988 15.9077C21.1001 16.1096 20.9602 16.2392 20.7189 16.2411C20.1831 16.2449 19.6473 16.2455 19.1115 16.2411C18.8727 16.2392 18.7322 16.1046 18.7373 15.902C18.7425 15.7122 18.8817 15.5833 19.1057 15.5782C19.3778 15.5712 19.6498 15.5763 19.9213 15.5757Z" fill="#923CE9" stroke="#923CE9" stroke-width="0.2"/>
</g>
<defs>
<clipPath id="clip0_684_405">
<rect width="24" height="24" fill="white"/>
</clipPath>
</defs>
</svg>
