<svg width="18" height="37" viewBox="0 0 18 37" fill="none" xmlns="http://www.w3.org/2000/svg">
<g clip-path="url(#clip0_974_251)">
<path d="M8.53364 12.2254C8.53364 12.1794 8.53364 12.1322 8.53364 12.0862C8.53364 11.0335 8.52739 11.0161 7.5425 11.3778C5.4113 12.1595 3.67431 13.4335 2.51548 15.4171C2.20888 15.9416 1.86348 16.1057 1.46302 15.9391C1.0513 15.7676 0.917392 15.4159 1.04754 14.828C1.80967 11.3902 3.80696 8.92183 6.98687 7.38936C7.33602 7.22033 7.70269 7.06745 8.07812 6.97424C8.45856 6.87978 8.56618 6.68837 8.5424 6.31675C8.50987 5.82209 8.52488 5.32369 8.5374 4.82778C8.55617 4.1181 9.1068 3.79122 9.73002 4.14544C12.1027 5.49272 14.4692 6.84871 16.8307 8.21463C17.4952 8.59868 17.4802 9.24746 16.8006 9.63897C14.6532 10.8769 12.4982 12.1011 10.3457 13.3303C10.1029 13.4695 9.86893 13.6261 9.61739 13.743C9.09804 13.9841 8.5837 13.6821 8.5424 13.1116C8.52113 12.8183 8.53865 12.5225 8.53865 12.2266C8.5374 12.2254 8.53489 12.2254 8.53364 12.2254ZM4.52153 11.0397C4.76056 11.0956 4.87944 10.9763 5.01085 10.9005C6.26479 10.1747 7.61509 9.71106 9.03672 9.4426C9.62615 9.33074 10.0141 9.63524 10.0354 10.2306C10.0491 10.6022 10.0554 10.9763 10.0341 11.3467C10.0116 11.7382 10.128 11.7544 10.4408 11.5716C11.8399 10.7538 13.2428 9.94223 14.6582 9.15425C15.0561 8.93301 14.9448 8.8398 14.6394 8.66704C13.2278 7.87035 11.8262 7.05751 10.4196 6.25337C10.3169 6.19495 10.2231 6.09179 10.0379 6.14275C10.0379 6.45347 10.0391 6.77538 10.0379 7.09728C10.0354 7.83555 9.89521 8.00583 9.17188 8.19102C7.33602 8.65958 5.79049 9.59671 4.52153 11.0397Z" fill="#3B9C39"/>
<path d="M4.52155 11.0397C5.7905 9.59669 7.33603 8.65956 9.17189 8.18975C9.89522 8.00456 10.0354 7.83428 10.0379 7.09601C10.0391 6.77411 10.0379 6.4522 10.0379 6.14148C10.2231 6.09052 10.317 6.19368 10.4196 6.2521C11.8262 7.05624 13.2278 7.86908 14.6382 8.66701C14.9448 8.84102 15.0561 8.93299 14.6569 9.15422C13.2416 9.94221 11.8387 10.7538 10.4396 11.5716C10.1267 11.7543 10.0091 11.7382 10.0329 11.3467C10.0542 10.9763 10.0479 10.6022 10.0341 10.2306C10.0129 9.63522 9.62491 9.33071 9.03548 9.44257C7.61385 9.71103 6.2648 10.1746 5.00961 10.9005C4.87946 10.9763 4.76057 11.0956 4.52155 11.0397Z" fill="#FDFBFC"/>
</g>
<g clip-path="url(#clip1_974_251)">
<path d="M9.46636 30.2254C9.46636 30.1794 9.46636 30.1322 9.46636 30.0862C9.46636 29.0335 9.47261 29.0161 10.4575 29.3778C12.5887 30.1595 14.3257 31.4335 15.4845 33.4171C15.7911 33.9416 16.1365 34.1057 16.537 33.9391C16.9487 33.7676 17.0826 33.4159 16.9525 32.828C16.1903 29.3902 14.193 26.9218 11.0131 25.3894C10.664 25.2203 10.2973 25.0675 9.92188 24.9742C9.54144 24.8798 9.43382 24.6884 9.4576 24.3168C9.49013 23.8221 9.47512 23.3237 9.4626 22.8278C9.44383 22.1181 8.8932 21.7912 8.26998 22.1454C5.89726 23.4927 3.53079 24.8487 1.16932 26.2146C0.50481 26.5987 0.519829 27.2475 1.19936 27.639C3.34683 28.8769 5.5018 30.1011 7.65427 31.3303C7.89705 31.4695 8.13107 31.6261 8.38261 31.743C8.90196 31.9841 9.4163 31.6821 9.4576 31.1116C9.47887 30.8183 9.46135 30.5225 9.46135 30.2266C9.4626 30.2254 9.46511 30.2254 9.46636 30.2254ZM13.4785 29.0397C13.2394 29.0956 13.1206 28.9763 12.9892 28.9005C11.7352 28.1747 10.3849 27.7111 8.96328 27.4426C8.37385 27.3307 7.98591 27.6352 7.96463 28.2306C7.95087 28.6022 7.94461 28.9763 7.96588 29.3467C7.98841 29.7382 7.87203 29.7544 7.55917 29.5716C6.16006 28.7538 4.7572 27.9422 3.34182 27.1542C2.94386 26.933 3.05524 26.8398 3.36059 26.667C4.77221 25.8704 6.17383 25.0575 7.58044 24.2534C7.68306 24.195 7.77692 24.0918 7.96213 24.1428C7.96213 24.4535 7.96088 24.7754 7.96213 25.0973C7.96463 25.8356 8.10479 26.0058 8.82812 26.191C10.664 26.6596 12.2095 27.5967 13.4785 29.0397Z" fill="#D61717"/>
<path d="M13.4785 29.0397C12.2095 27.5967 10.664 26.6596 8.82811 26.1897C8.10478 26.0046 7.96462 25.8343 7.96212 25.096C7.96086 24.7741 7.96212 24.4522 7.96212 24.1415C7.7769 24.0905 7.68305 24.1937 7.58043 24.2521C6.17381 25.0562 4.7722 25.8691 3.36183 26.667C3.05523 26.841 2.94385 26.933 3.34306 27.1542C4.75844 27.9422 6.1613 28.7538 7.5604 29.5716C7.87326 29.7543 7.9909 29.7382 7.96712 29.3467C7.94585 28.9763 7.9521 28.6022 7.96587 28.2306C7.98714 27.6352 8.37509 27.3307 8.96452 27.4426C10.3862 27.711 11.7352 28.1746 12.9904 28.9005C13.1205 28.9763 13.2394 29.0956 13.4785 29.0397Z" fill="#FDFBFC"/>
</g>
<defs>
<clipPath id="clip0_974_251">
<rect width="16.32" height="12" fill="white" transform="translate(1 4)"/>
</clipPath>
<clipPath id="clip1_974_251">
<rect width="16.32" height="12" fill="white" transform="matrix(-1 0 0 1 17 22)"/>
</clipPath>
</defs>
</svg>
