<svg
                                        xmlns="http://www.w3.org/2000/svg" width="16" height="16" viewBox="0 0 16 16"
                                        fill="none">
                                        <g clip-path="url(#clip0_236_175)">
                                            <path
                                                d="M12.3151 13.3375C9.42804 13.3375 6.55853 13.3375 3.66716 13.3375C3.66716 13.7884 3.65088 14.2327 3.67059 14.673C3.71602 15.6842 3.39204 16.0494 2.81479 15.9954C2.45696 15.9618 2.09699 15.9914 1.73787 15.9888C1.3359 15.9855 1.08649 15.6025 1.08478 14.9855C1.08306 14.4417 1.08863 13.8972 1.08049 13.354C1.0792 13.2571 1.04021 13.1365 0.993068 13.0705C0.798082 12.8009 0.692661 12.4786 0.693089 12.0725C0.694375 10.886 0.685804 9.69875 0.696089 8.5122C0.706374 7.3118 1.03164 6.33619 1.63331 5.57548C1.66931 5.53 1.70573 5.48517 1.78544 5.38695C1.65174 5.38695 1.56474 5.38695 1.47775 5.38695C1.20434 5.38695 0.930929 5.39091 0.657949 5.38563C0.254263 5.37772 0.00656688 4.99934 0.00228147 4.38234C0.000138769 4.15162 -0.00457518 3.9176 0.0181375 3.6915C0.0631343 3.24588 0.290261 2.93936 0.582954 2.92485C0.882933 2.91035 1.18334 2.91233 1.48332 2.9209C1.84329 2.93145 2.08413 3.29466 2.10342 3.85037C2.11113 4.07252 2.10685 4.29532 2.10513 4.51747C2.10427 4.62954 2.10213 4.72182 2.20027 4.75215C2.29712 4.78181 2.33226 4.72314 2.3644 4.59723C2.6031 3.65458 2.83965 2.70996 3.08906 1.77324C3.36847 0.723141 3.90415 0.181282 4.61809 0.01912C4.70766 -0.00131502 4.7998 0.00198096 4.89108 0.00198096C6.97036 0.00132176 9.04963 0.00329935 11.1289 3.36883e-06C11.7842 -0.00131502 12.3155 0.384315 12.7119 1.18524C12.8011 1.3652 12.8662 1.57944 12.9219 1.79038C13.1628 2.70534 13.3993 3.6236 13.6286 4.54516C13.6813 4.75676 13.7464 4.824 13.8939 4.68623C13.8939 4.45353 13.8921 4.19974 13.8943 3.94595C13.899 3.29466 14.1411 2.92354 14.5662 2.91892C14.8289 2.91629 15.0916 2.91365 15.3539 2.91958C15.7464 2.92815 15.9907 3.30785 15.9989 3.91431C16.001 4.07054 16.001 4.22743 15.9989 4.38432C15.9911 5 15.7443 5.37838 15.3402 5.38497C15.0346 5.38959 14.7291 5.38629 14.424 5.38629C14.3717 5.38629 14.3198 5.38629 14.226 5.38629C14.295 5.47858 14.3318 5.53 14.3704 5.57878C14.9532 6.31444 15.284 7.25709 15.302 8.41793C15.3209 9.63679 15.3085 10.857 15.3085 12.0771C15.3085 12.4825 15.1953 12.8022 14.9974 13.0666C14.9536 13.1252 14.9202 13.24 14.9194 13.3296C14.9121 13.8813 14.9176 14.4338 14.9151 14.9862C14.9125 15.555 14.6832 15.9479 14.3134 15.9657C13.8531 15.9875 13.3916 15.9862 12.9309 15.967C12.5551 15.9519 12.3211 15.559 12.3164 14.9763C12.3125 14.5227 12.3155 14.0699 12.3155 13.6164C12.3151 13.5274 12.3151 13.439 12.3151 13.3375ZM7.99671 12.5999C9.57203 12.5999 11.1469 12.5999 12.7222 12.5999C13.29 12.5999 13.8583 12.6025 14.4261 12.5986C14.6867 12.5966 14.8169 12.4133 14.8178 12.0422C14.8199 10.8392 14.8289 9.63613 14.8139 8.43309C14.7942 6.83323 13.8947 5.49836 12.8538 5.49836C9.65516 5.49704 6.45653 5.4977 3.25791 5.49901C3.1242 5.49901 2.98878 5.49967 2.85765 5.53395C1.85615 5.79302 1.16534 7.03692 1.15677 8.60251C1.15077 9.68161 1.15548 10.7614 1.15548 11.8405C1.15548 12.4502 1.25191 12.5992 1.64788 12.5992C3.76401 12.5999 5.88015 12.5999 7.99671 12.5999ZM13.1769 4.77126C12.9481 3.88135 12.7252 3.0178 12.5041 2.15426C12.2727 1.2505 11.77 0.716549 11.1396 0.711935C10.7269 0.709298 10.3143 0.711276 9.90157 0.711276C8.20798 0.711276 6.51482 0.709298 4.82122 0.712594C4.20841 0.713912 3.69416 1.25775 3.47389 2.1213C3.27076 2.9176 3.06806 3.71457 2.86622 4.5122C2.84651 4.59064 2.83237 4.67238 2.81179 4.77126C6.27612 4.77126 9.71516 4.77126 13.1769 4.77126ZM1.55617 13.3382C1.55617 13.9097 1.55017 14.4667 1.56303 15.0231C1.56474 15.1002 1.66031 15.234 1.7143 15.236C2.15741 15.2531 2.60138 15.2525 3.04492 15.2367C3.09763 15.2347 3.19105 15.1114 3.19277 15.0409C3.2052 14.4773 3.19962 13.9123 3.19962 13.3382C2.64509 13.3382 2.10856 13.3382 1.55617 13.3382ZM12.7989 13.3382C12.7989 13.909 12.7929 14.4667 12.8062 15.0231C12.8079 15.1002 12.9048 15.2347 12.9596 15.2367C13.398 15.2545 13.8369 15.2531 14.2753 15.238C14.328 15.236 14.4227 15.1173 14.4244 15.0494C14.4364 14.4845 14.4313 13.9189 14.4313 13.3388C13.8896 13.3382 13.3522 13.3382 12.7989 13.3382ZM14.3665 4.66381C14.7154 4.66381 15.0411 4.66513 15.3668 4.66315C15.47 4.6625 15.524 4.5768 15.5245 4.41596C15.5249 4.23534 15.5253 4.05406 15.524 3.87344C15.5227 3.71128 15.464 3.63217 15.3625 3.63085C15.0843 3.62822 14.8062 3.62822 14.5281 3.63085C14.4261 3.63151 14.3678 3.71259 14.3665 3.87344C14.3653 4.12723 14.3665 4.38036 14.3665 4.66381ZM1.63202 4.66315C1.63202 4.37904 1.64488 4.1147 1.62474 3.85696C1.61831 3.77456 1.52617 3.64931 1.46961 3.6447C1.19191 3.62294 0.912502 3.63151 0.633951 3.63679C0.533672 3.63876 0.474533 3.72182 0.474962 3.88464C0.474962 4.06592 0.458677 4.25248 0.481819 4.4265C0.493818 4.51681 0.573526 4.64931 0.62538 4.65261C0.955356 4.67304 1.28619 4.66315 1.63202 4.66315Z"
                                                fill="#39629C" />
                                            <path
                                                d="M7.99319 9.66447C7.02854 9.66447 6.06389 9.66513 5.09925 9.66447C4.75299 9.66381 4.59871 9.41134 4.618 8.88267C4.65528 7.86355 5.20853 7.08306 5.90962 7.07911C7.02983 7.07317 8.1496 7.07713 9.26981 7.07779C9.56979 7.07779 9.87019 7.06856 10.1702 7.08306C10.8293 7.1147 11.3555 7.9209 11.3851 8.92947C11.3988 9.3942 11.2372 9.66381 10.9355 9.66447C9.95462 9.66579 8.97412 9.66447 7.99319 9.66447ZM10.9047 8.93145C10.8691 8.24193 10.5327 7.79302 10.06 7.79104C8.98354 7.78774 7.90662 7.78972 6.83013 7.78972C6.51943 7.78972 6.20874 7.78247 5.89805 7.7917C5.45237 7.80554 5.10311 8.30323 5.10011 8.93079C7.03111 8.93145 8.96254 8.93145 10.9047 8.93145Z"
                                                fill="#39629C" />
                                            <path
                                                d="M7.99017 11.5933C6.89181 11.5933 5.79389 11.5946 4.69554 11.5906C4.61841 11.5906 4.52156 11.5834 4.46927 11.5155C4.41399 11.443 4.36428 11.2815 4.37885 11.1819C4.39514 11.0712 4.4787 10.9677 4.54855 10.8978C4.59141 10.855 4.66297 10.8767 4.72168 10.8767C6.90724 10.8761 9.0928 10.8761 11.2788 10.8761C11.3058 10.8761 11.3324 10.8748 11.3589 10.8767C11.5295 10.8873 11.6298 11.0178 11.6315 11.2307C11.6332 11.4502 11.5261 11.5926 11.3491 11.5926C10.2297 11.5939 9.10994 11.5926 7.99017 11.5933Z"
                                                fill="#39629C" />
                                            <path
                                                d="M11.8299 8.11866C11.8431 7.21029 12.3355 6.48319 12.9248 6.50165C13.5046 6.52011 13.9816 7.27753 13.973 8.16678C13.964 9.07449 13.4716 9.81213 12.8858 9.79631C12.2957 9.78115 11.8166 9.01978 11.8299 8.11866ZM12.303 8.14766C12.3025 8.66381 12.5674 9.0712 12.9021 9.0679C13.2338 9.06526 13.4999 8.64865 13.4977 8.13646C13.4956 7.63547 13.2316 7.2327 12.9042 7.23138C12.5657 7.23138 12.3034 7.63085 12.303 8.14766Z"
                                                fill="#39629C" />
                                            <path
                                                d="M3.09067 6.50165C3.68034 6.50495 4.16245 7.25379 4.15817 8.15953C4.15388 9.05801 3.6752 9.78708 3.08981 9.78708C2.50057 9.78708 2.01675 9.03758 2.02189 8.1325C2.02703 7.23665 2.51128 6.49836 3.09067 6.50165ZM2.49757 8.13448C2.49457 8.64997 2.75898 9.06395 3.09196 9.0646C3.41336 9.06592 3.68592 8.65195 3.68892 8.15755C3.69191 7.64667 3.42451 7.2327 3.0911 7.23204C2.76155 7.23204 2.50057 7.62888 2.49757 8.13448Z"
                                                fill="#39629C" />
                                        </g>
                                        <defs>
                                            <clipPath id="clip0_236_175">
                                                <rect width="16" height="16" fill="white" />
                                            </clipPath>
                                        </defs>
                                    </svg> 