<svg width="24" height="24" viewBox="0 0 24 24" fill="none" xmlns="http://www.w3.org/2000/svg">
<path d="M10 6C10 6.26667 9.9 6.5 9.7 6.7L4.4 12L9.7 17.3C10.1 17.7 10.1 18.3333 9.7 18.7C9.3 19.1 8.66667 19.1 8.3 18.7L2.3 12.7C1.9 12.3 1.9 11.6667 2.3 11.3L8.3 5.3C8.7 4.9 9.33333 4.9 9.7 5.3C9.9 5.5 10 5.73333 10 6Z" fill="#4A4A4A"/>
<path d="M22 5.06667V18.9333C22 20.6333 20.6333 22 18.9333 22H14.9333C14.3666 22 13.9333 21.5667 13.9333 21C13.9333 20.4333 14.3666 20 14.9333 20H18.9333C19.5333 20 20 19.5333 20 18.9333V5.06667C20 4.46667 19.5333 4 18.9333 4H14.9333C14.3666 4 13.9333 3.56667 13.9333 3C13.9333 2.43333 14.3666 2 14.9333 2H18.9333C20.6333 2 22 3.36667 22 5.06667Z" fill="#4A4A4A"/>
<path d="M16.9 11.9999C16.9 12.5666 16.4667 12.9999 15.9 12.9999H4.06671C3.50004 12.9999 3.06671 12.5666 3.06671 11.9999C3.06671 11.4333 3.50004 10.9999 4.06671 10.9999H15.9C16.4667 10.9999 16.9 11.4333 16.9 11.9999Z" fill="#4A4A4A"/>
</svg>
