<svg width="16" height="16" viewBox="0 0 16 16" fill="none" xmlns="http://www.w3.org/2000/svg">
<path d="M9.31667 0C9.39 0.0570833 9.47042 0.106667 9.53542 0.171667C10.8875 1.52083 12.2367 2.87292 13.5904 4.22042C13.7104 4.33958 13.7612 4.465 13.7612 4.63417C13.7579 7.94417 13.7587 11.2542 13.7587 14.5638C13.7587 15.3333 13.4292 15.7671 12.6833 15.98C12.6746 15.9825 12.6683 15.9929 12.6608 16C9.47292 16 6.285 16 3.09708 16C3.03917 15.9804 2.98208 15.9596 2.92375 15.9412C2.37917 15.7721 2.0025 15.29 2.00208 14.7204C1.99875 10.24 2.00042 5.76 2.00042 1.27958C2.00042 1.27458 2.00083 1.26917 2.00083 1.26417C2.01583 0.74 2.34333 0.277917 2.83583 0.0895833C2.92167 0.0566667 3.01 0.0295833 3.0975 0C5.17042 0 7.24375 0 9.31667 0ZM13.1292 4.8425C13.0513 4.8425 12.9946 4.8425 12.9379 4.8425C12.0683 4.8425 11.1988 4.84292 10.3288 4.8425C9.46375 4.84208 8.91667 4.29375 8.91625 3.42583C8.91583 2.56167 8.91625 1.69708 8.91625 0.832917C8.91625 0.771667 8.91625 0.710417 8.91625 0.630833C8.83917 0.630833 8.77792 0.630833 8.71708 0.630833C6.94667 0.630833 5.17583 0.630833 3.40542 0.630833C2.89167 0.630833 2.62875 0.895 2.62875 1.41125C2.62875 5.80083 2.62875 10.19 2.62875 14.5796C2.62875 15.1067 2.88958 15.3696 3.41167 15.3696C6.39042 15.3696 9.36917 15.3696 12.3479 15.3696C12.8638 15.3696 13.1287 15.1058 13.1287 14.5929C13.1287 11.4063 13.1287 8.21958 13.1287 5.03292C13.1292 4.97625 13.1292 4.92 13.1292 4.8425ZM9.56125 1.14792C9.55875 1.17625 9.55208 1.22 9.55208 1.26417C9.55125 1.99833 9.55 2.73208 9.55208 3.46625C9.55375 3.93958 9.8275 4.20958 10.3013 4.21042C11.0354 4.21125 11.7696 4.21083 12.5037 4.21042C12.5479 4.21042 12.5921 4.20542 12.6175 4.20417C11.6004 3.18667 10.5804 2.16708 9.56125 1.14792Z" fill="#39629C"/>
<path d="M7.87793 11.4918C7.09252 11.4918 6.30668 11.4918 5.52127 11.4918C5.48502 11.4918 5.44835 11.4927 5.4121 11.4918C5.17627 11.486 5.0321 11.3618 5.03502 11.1673C5.03793 10.9789 5.17793 10.8552 5.40627 10.8548C7.05543 10.8531 8.7046 10.8531 10.3542 10.8548C10.5817 10.8552 10.7221 10.9806 10.7233 11.1693C10.725 11.3635 10.5804 11.4906 10.3442 11.491C9.5221 11.4931 8.70002 11.4918 7.87793 11.4918Z" fill="#39629C"/>
<path d="M7.88041 8.66218C7.07916 8.66218 6.27791 8.66218 5.47666 8.66218C5.42458 8.66218 5.37249 8.66385 5.32083 8.65885C5.15833 8.64301 5.04166 8.51968 5.03541 8.36135C5.02916 8.20551 5.13916 8.06593 5.29499 8.03843C5.34583 8.02926 5.39874 8.03218 5.45083 8.03218C7.06874 8.03176 8.68708 8.03176 10.305 8.03218C10.3412 8.03218 10.3779 8.03093 10.4142 8.03343C10.6 8.04718 10.7287 8.18343 10.7229 8.35885C10.7175 8.52968 10.5925 8.65593 10.4087 8.6601C10.1642 8.66593 9.91958 8.6626 9.67499 8.6626C9.07708 8.66218 8.47874 8.66218 7.88041 8.66218Z" fill="#39629C"/>
<path d="M7.88085 10.0762C7.08502 10.0762 6.28877 10.0762 5.49294 10.0758C5.43044 10.0758 5.36752 10.0762 5.30627 10.0679C5.15627 10.0474 5.0496 9.93411 5.03627 9.78911C5.02252 9.63745 5.11419 9.5012 5.26585 9.46036C5.32502 9.44453 5.38919 9.44245 5.45085 9.44203C7.06877 9.4412 8.6871 9.4412 10.305 9.44203C10.3717 9.44203 10.4413 9.44578 10.505 9.46411C10.6492 9.50578 10.735 9.63911 10.7229 9.78536C10.7113 9.93203 10.6063 10.0458 10.4563 10.067C10.395 10.0758 10.3317 10.0754 10.2696 10.0754C9.47294 10.0762 8.67669 10.0762 7.88085 10.0762Z" fill="#39629C"/>
<path d="M7.06706 12.2707C7.61372 12.2707 8.15997 12.2645 8.70622 12.2761C8.80872 12.2782 8.93622 12.3257 9.00664 12.3974C9.15997 12.5532 9.06872 12.8178 8.85414 12.8824C8.79581 12.8999 8.73122 12.9024 8.66956 12.9028C7.59206 12.904 6.51497 12.9036 5.43747 12.9036C5.41164 12.9036 5.38539 12.9045 5.35956 12.9028C5.16331 12.889 5.02914 12.7536 5.03497 12.5745C5.04039 12.399 5.16831 12.2745 5.36497 12.2728C5.93206 12.269 6.49956 12.2715 7.06706 12.2715C7.06706 12.2711 7.06706 12.2711 7.06706 12.2707Z" fill="#39629C"/>
</svg>
