<svg width="16" height="16" viewBox="0 0 16 16" fill="none" xmlns="http://www.w3.org/2000/svg">
<g clip-path="url(#clip0_648_654)">
<g clip-path="url(#clip1_648_654)">
<path d="M13.0531 13.9934C12.7896 14.836 12.1745 15.293 11.3494 15.2714C10.5351 15.2499 9.91758 14.7723 9.73137 14.0073C8.58492 14.0073 7.43457 14.0073 6.26624 14.0073C6.18553 14.4305 5.95118 14.7807 5.53208 15.0267C5.24134 15.1972 4.91753 15.2786 4.56844 15.2702C3.76816 15.2508 3.22945 14.8309 2.9494 14.0157C2.64796 14.0157 2.34457 14.0258 2.04264 14.0136C1.39746 13.987 0.996345 13.709 0.857293 13.1617C0.781932 12.8655 0.747412 12.5579 0.735257 12.2541C0.716782 11.7802 0.736716 11.3051 0.733312 10.8308C0.731854 10.638 0.796518 10.4709 0.92536 10.3152C1.28952 9.87386 1.6391 9.42322 2.01639 8.9903C2.13113 8.85823 2.29887 8.7232 2.47341 8.67384C4.43084 8.12066 6.42328 7.94386 8.44927 8.34725C9.45813 8.54809 10.3586 8.93629 11.0412 9.63799C11.1817 9.7823 11.3227 9.93462 11.4151 10.103C11.5045 10.2654 11.6358 10.3131 11.8186 10.3397C12.4828 10.4372 13.1435 10.5519 13.8086 10.6443C14.3891 10.7249 14.7869 11.0017 15.0149 11.4591C15.2881 12.0072 15.3445 12.5802 15.1826 13.1604C15.0932 13.4807 14.8792 13.7385 14.5326 13.8866C14.3906 13.9469 14.2229 13.9815 14.0648 13.9887C13.7313 14.0043 13.3968 13.9934 13.0531 13.9934ZM13.0448 13.6621C13.3638 13.6621 13.6735 13.6537 13.9827 13.6647C14.2987 13.6756 14.5345 13.5541 14.6721 13.3279C14.7766 13.1558 14.8209 12.9541 14.8773 12.7625C14.9264 12.5954 14.8753 12.4756 14.6575 12.4144C14.5175 12.3752 14.3906 12.2895 14.271 12.2098C13.9982 12.0283 13.8183 11.7925 13.8179 11.4861C13.8179 11.3309 13.865 11.1756 13.8927 11.0102C13.8699 11.003 13.832 10.9857 13.7921 10.9798C13.1591 10.8815 12.5275 10.7692 11.8911 10.6933C11.5021 10.6469 11.1691 10.5718 11.0436 10.2021C11.0388 10.1874 11.0256 10.1747 11.0154 10.1616C10.4407 9.39453 9.59378 8.95992 8.60582 8.73038C6.57595 8.25864 4.57379 8.44092 2.59739 8.98566C2.50161 9.01182 2.40729 9.08439 2.34652 9.15655C1.96485 9.6131 1.58805 10.073 1.22097 10.538C1.15144 10.6262 1.13054 10.7435 1.0756 10.8764C1.30362 10.8764 1.47817 10.8756 1.6532 10.8768C1.87004 10.8785 1.9279 10.9237 1.92936 11.1076C1.93228 11.4718 1.93228 11.8355 1.92936 12.1996C1.9279 12.3828 1.86956 12.4279 1.65174 12.4296C1.47817 12.4309 1.30508 12.43 1.07754 12.43C1.15776 12.733 1.21319 13.0073 1.30654 13.2714C1.37558 13.4676 1.55158 13.5933 1.78836 13.6448C2.17878 13.7296 2.56919 13.6866 2.95524 13.6668C3.13513 12.9081 3.73412 12.4258 4.50864 12.3929C4.89954 12.3764 5.25592 12.4575 5.5739 12.6545C5.96917 12.8997 6.18991 13.2402 6.26673 13.6528C7.43068 13.6528 8.58249 13.6528 9.73186 13.6528C9.93071 12.8659 10.5496 12.4005 11.3791 12.3891C12.0539 12.379 12.8688 12.7743 13.0448 13.6621ZM5.88458 13.8301C5.88458 13.217 5.32059 12.722 4.61852 12.7178C3.91402 12.714 3.33155 13.2203 3.33398 13.8343C3.33641 14.4423 3.91061 14.9356 4.61414 14.9343C5.32156 14.933 5.88458 14.4436 5.88458 13.8301ZM11.3849 14.9343C12.0889 14.9356 12.6622 14.4427 12.6651 13.8347C12.668 13.2271 12.0982 12.7246 11.399 12.7182C10.6916 12.7119 10.1145 13.2111 10.1145 13.8301C10.114 14.4432 10.678 14.933 11.3849 14.9343ZM1.12665 11.2186C1.12665 11.5144 1.12665 11.7992 1.12665 12.0878C1.27153 12.0878 1.40135 12.0878 1.53165 12.0878C1.53165 11.792 1.53165 11.5064 1.53165 11.2186C1.38871 11.2186 1.25889 11.2186 1.12665 11.2186ZM14.2827 11.1583C14.0809 11.5709 14.342 12.0009 14.8374 12.0971C14.7747 11.7309 14.6332 11.4068 14.2827 11.1583Z" fill="#39629C"/>
<path d="M8.61649 1.49418C8.48619 1.37013 8.35152 1.25536 8.23677 1.12709C8.19204 1.07688 8.15801 0.984047 8.18232 0.933413C8.20712 0.881935 8.30533 0.847336 8.37923 0.826238C8.43952 0.808938 8.51148 0.819909 8.57857 0.822019C9.09589 0.838897 9.60737 0.798811 10.1208 0.739738C10.3634 0.71189 10.6182 0.734675 10.8632 0.762102C11.8876 0.876028 12.4594 2.01867 12.0486 2.69716C11.9222 2.90603 11.8915 3.12249 11.9012 3.3533C11.9173 3.71617 11.7807 4.03643 11.5094 4.31365C11.4457 4.37906 11.3878 4.7567 11.4428 4.81113C11.4748 4.8432 11.5351 4.85628 11.5857 4.87105C12.086 5.01578 12.5878 5.15713 13.0876 5.3027C13.7094 5.48372 14.0989 5.90905 14.1373 6.47277C14.1572 6.76729 14.1523 7.0635 14.1421 7.35844C14.1339 7.6036 13.9579 7.74284 13.67 7.74284C11.4214 7.74411 9.17319 7.74411 6.92453 7.74284C6.64399 7.74284 6.45048 7.60824 6.44416 7.38165C6.43444 7.03945 6.41937 6.69345 6.4675 6.35547C6.54189 5.83352 6.90265 5.48372 7.47198 5.3103C7.98103 5.15502 8.49543 5.01325 9.01031 4.874C9.12603 4.84278 9.15423 4.79552 9.15909 4.69636C9.16833 4.5107 9.12846 4.35711 8.98357 4.20479C8.7468 3.95626 8.66657 3.65077 8.68456 3.32967C8.69574 3.13051 8.65101 2.9554 8.53627 2.77438C8.26449 2.34399 8.25136 1.90854 8.61649 1.49418ZM11.5395 3.09759C11.5337 3.09717 11.5283 3.09675 11.5225 3.09633C11.5225 2.99633 11.5254 2.89675 11.522 2.79674C11.506 2.30475 11.2352 2.1115 10.7169 2.32416C10.6104 2.36804 10.5224 2.35159 10.4373 2.27817C10.1748 2.052 9.85922 2.05242 9.54027 2.15074C9.21646 2.25074 9.07352 2.47522 9.06428 2.76425C9.05699 2.98536 9.05504 3.2073 9.06477 3.4284C9.08811 3.95837 9.55048 4.39973 10.1286 4.45332C10.7703 4.51281 11.329 4.19298 11.4763 3.66132C11.5264 3.47988 11.5201 3.28578 11.5395 3.09759ZM10.0931 5.87402C9.9054 5.99006 9.74933 6.08922 9.59035 6.185C9.39538 6.30273 9.25973 6.29218 9.09054 6.14365C8.85133 5.93352 8.61212 5.72339 8.3802 5.50777C8.31116 5.44406 8.2533 5.4314 8.15947 5.46178C7.97228 5.52296 7.77829 5.56684 7.59013 5.62634C7.1579 5.76263 6.88806 6.03015 6.84041 6.42551C6.80492 6.71792 6.82729 7.0154 6.83166 7.31076C6.83215 7.34325 6.88417 7.40275 6.91334 7.40317C7.18416 7.41034 7.45545 7.40739 7.74377 7.40739C7.74377 7.23692 7.74571 7.08502 7.74328 6.93354C7.74134 6.82088 7.77537 6.72721 7.92463 6.72257C8.08654 6.71708 8.12543 6.81497 8.12495 6.93354C8.12495 7.08544 8.12495 7.23734 8.12495 7.39811C8.79153 7.39811 9.43768 7.39811 10.0936 7.39811C10.0931 6.89388 10.0931 6.40146 10.0931 5.87402ZM12.8464 7.40866C13.1289 7.40866 13.3837 7.40612 13.6384 7.40992C13.7512 7.41161 13.7644 7.35887 13.7634 7.27954C13.76 7.03692 13.7644 6.79472 13.7614 6.5521C13.7566 6.12255 13.4658 5.7698 12.9981 5.62592C12.8153 5.5698 12.6276 5.52465 12.4463 5.46558C12.3422 5.43182 12.2717 5.44321 12.1939 5.5179C11.998 5.70524 11.7909 5.88373 11.5876 6.06475C11.2988 6.32171 11.2249 6.3272 10.8938 6.12086C10.7655 6.04069 10.6362 5.96221 10.4932 5.87445C10.4932 6.40146 10.4932 6.89556 10.4932 7.39853C11.1486 7.39853 11.7943 7.39853 12.4579 7.39853C12.4579 7.2365 12.4575 7.08502 12.4579 6.93312C12.4584 6.81413 12.5017 6.7175 12.6612 6.72214C12.809 6.72636 12.8474 6.81961 12.8469 6.93185C12.8459 7.08375 12.8464 7.23566 12.8464 7.40866ZM8.83528 1.18785C8.83674 1.19038 8.84647 1.21232 8.86251 1.2292C9.10512 1.48279 9.10512 1.48279 8.88244 1.74018C8.7254 1.92162 8.68116 2.16888 8.77937 2.31783C9.24612 1.72626 9.83734 1.60811 10.6036 1.95158C10.6362 1.96592 10.6848 1.96972 10.7198 1.96086C11.1437 1.85073 11.5113 1.8963 11.7846 2.27099C11.7919 2.21488 11.8001 2.1904 11.7972 2.16635C11.7233 1.57647 11.3689 1.10262 10.5958 1.06464C10.4869 1.05915 10.376 1.05409 10.2681 1.06295C9.79212 1.10177 9.31662 1.14565 8.83528 1.18785ZM9.5111 4.66514C9.53978 4.74446 9.54076 4.85291 9.6025 4.89763C9.81983 5.05502 10.0581 5.19047 10.2929 5.33688C10.5044 5.20523 10.7003 5.07232 10.9094 4.95713C11.0514 4.87864 11.0771 4.78455 11.0314 4.64488C10.5365 4.84826 10.0498 4.84911 9.5111 4.66514ZM10.6235 5.54279C10.835 5.6736 11.0256 5.79217 11.17 5.8812C11.417 5.68583 11.645 5.50566 11.8886 5.31283C11.6961 5.25629 11.5264 5.20144 11.3528 5.1584C11.3086 5.14743 11.2424 5.16008 11.2031 5.18329C11.013 5.29553 10.8282 5.41452 10.6235 5.54279ZM8.68651 5.31705C8.93787 5.5217 9.16298 5.7044 9.39733 5.89554C9.56847 5.78879 9.75857 5.6698 9.96375 5.54195C9.75565 5.41283 9.56555 5.29173 9.37059 5.17654C9.33607 5.15629 9.27626 5.14869 9.2364 5.15882C9.06234 5.20355 8.89168 5.25713 8.68651 5.31705Z" fill="#39629C"/>
<path d="M2.97223 5.43538C2.97223 5.35352 2.97223 5.29107 2.97223 5.22904C2.97223 4.22733 2.96932 3.22562 2.97661 2.22392C2.97758 2.12054 3.01939 2.00661 3.0792 1.91589C3.2236 1.6969 3.38842 1.48719 3.54789 1.27579C3.68062 1.10026 3.81627 1.10279 3.95289 1.27917C3.99665 1.33613 4.04284 1.39225 4.08076 1.45217C4.32386 1.8353 4.64815 2.15767 5.02739 2.44375C5.26903 2.62603 5.24958 2.71253 4.96661 2.85431C4.90876 2.88342 4.8543 2.91971 4.79256 2.93954C4.54654 3.01718 4.47167 3.16107 4.48868 3.38723C4.50035 3.53787 4.53925 3.63027 4.69921 3.69019C4.81006 3.73154 4.9107 3.79273 5.01572 3.84589C5.25785 3.96868 5.26125 4.094 5.02544 4.21594C4.86403 4.29949 4.63454 4.35139 4.55869 4.47417C4.47458 4.61089 4.52952 4.81258 4.52661 4.986C4.52417 5.12777 4.52612 5.26955 4.52612 5.43495C4.69775 5.43495 4.85916 5.43411 5.02058 5.43495C5.40127 5.43749 5.63659 5.63369 5.64194 5.96323C5.64778 6.31092 5.64778 6.65903 5.64194 7.00714C5.63659 7.33204 5.40905 7.5274 5.03565 7.52867C4.17946 7.5312 3.32278 7.5312 2.46659 7.52867C2.09319 7.52783 1.8603 7.33331 1.85349 7.01136C1.8462 6.65819 1.84571 6.30501 1.85398 5.95184C1.86176 5.63285 2.10145 5.43791 2.47145 5.43495C2.62946 5.43453 2.78699 5.43538 2.97223 5.43538ZM3.7482 5.77083C3.33542 5.77083 2.92215 5.76956 2.50937 5.77125C2.28864 5.77209 2.23856 5.81597 2.23807 6.00332C2.23662 6.32485 2.23662 6.64679 2.23807 6.96832C2.23905 7.14934 2.29836 7.20081 2.51132 7.20124C3.33785 7.20208 4.1639 7.20208 4.99044 7.20124C5.20096 7.20081 5.26174 7.14807 5.26271 6.96663C5.26417 6.65565 5.26368 6.34426 5.2632 6.03328C5.26271 5.8126 5.21846 5.77209 4.96953 5.77125C4.5621 5.76998 4.15515 5.77083 3.7482 5.77083ZM3.72681 1.65302C3.66895 1.73066 3.60769 1.82855 3.52893 1.9142C3.39328 2.06231 3.35633 2.22392 3.35827 2.41211C3.36751 3.35516 3.36265 4.2978 3.36265 5.24086C3.36265 5.30204 3.36265 5.3628 3.36265 5.42567C3.63249 5.42567 3.87802 5.42567 4.13813 5.42567C4.13813 5.09022 4.14105 4.7649 4.13668 4.43915C4.13522 4.32649 4.17897 4.24885 4.29615 4.19611C4.40117 4.14885 4.49986 4.09147 4.61607 4.03113C4.49938 3.97205 4.40895 3.9172 4.31025 3.87838C4.15418 3.8172 4.10216 3.7172 4.11285 3.57458C4.12209 3.4539 4.12938 3.33069 4.11139 3.2117C4.07736 2.98174 4.16633 2.82646 4.42061 2.74123C4.50667 2.71253 4.583 2.66106 4.63551 2.63405C4.32629 2.30155 4.03214 1.9834 3.72681 1.65302Z" fill="#39629C"/>
<path d="M4.68316 11.2835C3.96699 11.2835 3.25082 11.2839 2.53417 11.2835C2.27599 11.2835 2.23953 11.2426 2.22738 11.0139C2.21911 10.8582 2.26967 10.7312 2.3708 10.6033C2.6596 10.2392 2.93382 9.86573 3.21776 9.49906C3.26006 9.44463 3.31646 9.38302 3.38258 9.36108C4.21787 9.08048 5.06677 8.84504 5.97888 8.8885C6.29296 8.90369 6.60558 8.9463 6.91918 8.97542C7.0558 8.98808 7.1263 9.0501 7.1263 9.17162C7.12582 9.80919 7.12776 10.4468 7.12484 11.0843C7.12436 11.2341 7.0524 11.2826 6.84966 11.2831C6.12765 11.2843 5.40565 11.2835 4.68316 11.2835ZM4.88007 9.30623C4.88007 9.85476 4.88007 10.394 4.88007 10.9371C5.50386 10.9371 6.11453 10.9371 6.74707 10.9371C6.74707 10.8725 6.74707 10.8164 6.74707 10.7598C6.74707 10.37 6.74707 9.98008 6.74707 9.5902C6.74707 9.28851 6.74804 9.28218 6.39992 9.25011C5.89233 9.20285 5.38523 9.20749 4.88007 9.30623ZM4.47847 10.9358C4.47847 10.4198 4.47847 9.91299 4.47847 9.3826C4.17022 9.47416 3.87947 9.55855 3.59067 9.64843C3.55567 9.6594 3.52747 9.69526 3.50462 9.7248C3.21922 10.097 2.93528 10.47 2.65231 10.8434C2.63432 10.8674 2.62654 10.8974 2.60904 10.9358C3.24012 10.9358 3.85468 10.9358 4.47847 10.9358Z" fill="#39629C"/>
<path d="M9.25486 11.2833C8.76915 11.2833 8.28344 11.2838 7.79773 11.2829C7.5556 11.2825 7.4992 11.2335 7.49872 11.0209C7.49774 10.4255 7.49774 9.82972 7.49872 9.23435C7.4992 9.00818 7.57553 8.9584 7.83614 8.99932C8.6228 9.12253 9.35696 9.35039 9.99048 9.79048C10.466 10.1209 10.7577 10.5589 10.9833 11.0365C11.0523 11.1829 10.9546 11.2812 10.7485 11.2821C10.2506 11.285 9.75273 11.2833 9.25486 11.2833ZM7.9008 9.36431C7.9008 9.88879 7.9008 10.4124 7.9008 10.9449C8.73463 10.9449 9.55436 10.9449 10.3741 10.9445C10.4101 10.9445 10.4456 10.9403 10.483 10.9382C10.1937 10.1217 9.05455 9.5006 7.9008 9.36431Z" fill="#39629C"/>
<path d="M4.61025 13.1807C5.02741 13.1798 5.36774 13.4731 5.36531 13.8313C5.36288 14.1874 5.01428 14.4862 4.60539 14.4824C4.19844 14.4786 3.86782 14.19 3.86393 13.8351C3.85956 13.4714 4.19017 13.1815 4.61025 13.1807ZM4.61122 14.1431C4.81348 14.1436 4.97101 14.0111 4.97538 13.8368C4.98024 13.6587 4.81494 13.5098 4.61219 13.5094C4.41237 13.5089 4.24025 13.6621 4.24511 13.836C4.24998 14.0085 4.41042 14.1431 4.61122 14.1431Z" fill="#39629C"/>
<path d="M11.3873 13.1807C11.8069 13.1802 12.1395 13.4701 12.1361 13.8334C12.1327 14.1883 11.803 14.4777 11.3961 14.4824C10.9862 14.487 10.6386 14.1904 10.6347 13.833C10.6303 13.476 10.9706 13.1811 11.3873 13.1807ZM11.3839 14.1431C11.5925 14.1444 11.7573 14.0018 11.7539 13.8237C11.7505 13.6554 11.5847 13.5115 11.3907 13.5098C11.1885 13.5077 11.0212 13.6558 11.0236 13.8338C11.0266 14.0081 11.1821 14.1419 11.3839 14.1431Z" fill="#39629C"/>
<path d="M3.73606 6.64891C3.59068 6.64891 3.44531 6.6506 3.29994 6.64849C3.17158 6.6468 3.08552 6.5911 3.09087 6.47676C3.09574 6.37296 3.17742 6.31895 3.29897 6.31895C3.60187 6.31853 3.90477 6.31768 4.20816 6.31937C4.33068 6.32021 4.40701 6.37929 4.40847 6.48309C4.40993 6.58857 4.33068 6.64554 4.20961 6.64765C4.05111 6.65102 3.89359 6.64849 3.73606 6.64891Z" fill="#39629C"/>
</g>
</g>
<defs>
<clipPath id="clip0_648_654">
<rect width="16" height="16" fill="white"/>
</clipPath>
<clipPath id="clip1_648_654">
<rect width="16" height="16" fill="white"/>
</clipPath>
</defs>
</svg>
