<svg width="15" height="20" viewBox="0 0 15 20" fill="none" xmlns="http://www.w3.org/2000/svg">
<g clip-path="url(#clip0_885_340)">
<path d="M9.14583 0C9.2375 0.0713542 9.33802 0.133333 9.41927 0.214583C11.1094 1.90104 12.7958 3.59115 14.488 5.27552C14.638 5.42448 14.7016 5.58125 14.7016 5.79271C14.6974 9.93021 14.6984 14.0677 14.6984 18.2047C14.6984 19.1667 14.2865 19.7089 13.3542 19.975C13.3432 19.9781 13.3354 19.9911 13.326 20C9.34115 20 5.35625 20 1.37135 20C1.29896 19.9755 1.2276 19.9495 1.15469 19.9266C0.473958 19.7151 0.003125 19.1125 0.00260417 18.4005C-0.0015625 12.8 0.000520833 7.2 0.000520833 1.59948C0.000520833 1.59323 0.00104167 1.58646 0.00104167 1.58021C0.0197917 0.925 0.429167 0.347396 1.04479 0.111979C1.15208 0.0708333 1.2625 0.0369792 1.37187 0C3.96302 0 6.55469 0 9.14583 0ZM13.9115 6.05312C13.8141 6.05312 13.7432 6.05312 13.6724 6.05312C12.5854 6.05312 11.4984 6.05365 10.4109 6.05312C9.32969 6.0526 8.64583 5.36719 8.64531 4.28229C8.64479 3.20208 8.64531 2.12135 8.64531 1.04115C8.64531 0.964583 8.64531 0.888021 8.64531 0.788542C8.54896 0.788542 8.4724 0.788542 8.39635 0.788542C6.18333 0.788542 3.96979 0.788542 1.75677 0.788542C1.11458 0.788542 0.785937 1.11875 0.785937 1.76406C0.785937 7.25104 0.785937 12.7375 0.785937 18.2245C0.785937 18.8833 1.11198 19.212 1.76458 19.212C5.48802 19.212 9.21146 19.212 12.9349 19.212C13.5797 19.212 13.9109 18.8823 13.9109 18.2411C13.9109 14.2578 13.9109 10.2745 13.9109 6.29115C13.9115 6.22031 13.9115 6.15 13.9115 6.05312ZM9.45156 1.4349C9.44844 1.47031 9.4401 1.525 9.4401 1.58021C9.43906 2.49792 9.4375 3.4151 9.4401 4.33281C9.44219 4.92448 9.78437 5.26198 10.3766 5.26302C11.2943 5.26406 12.212 5.26354 13.1297 5.26302C13.1849 5.26302 13.2401 5.25677 13.2719 5.25521C12.0005 3.98333 10.7255 2.70885 9.45156 1.4349Z" fill="#6B6B6B"/>
<path d="M7.3474 14.3651C6.36563 14.3651 5.38334 14.3651 4.40157 14.3651C4.35626 14.3651 4.31042 14.3662 4.26511 14.3651C3.97032 14.3578 3.79011 14.2026 3.79376 13.9594C3.7974 13.724 3.9724 13.5693 4.25782 13.5688C6.31928 13.5667 8.38073 13.5667 10.4427 13.5688C10.7271 13.5693 10.9026 13.7261 10.9042 13.962C10.9063 14.2047 10.7255 14.3636 10.4302 14.3641C9.40261 14.3667 8.37501 14.3651 7.3474 14.3651Z" fill="#6B6B6B"/>
<path d="M7.35051 10.8276C6.34895 10.8276 5.34739 10.8276 4.34582 10.8276C4.28072 10.8276 4.21562 10.8297 4.15103 10.8234C3.94791 10.8036 3.80207 10.6494 3.79426 10.4515C3.78645 10.2567 3.92395 10.0823 4.11874 10.0479C4.18228 10.0364 4.24843 10.0401 4.31353 10.0401C6.33593 10.0396 8.35885 10.0396 10.3812 10.0401C10.4266 10.0401 10.4724 10.0385 10.5177 10.0416C10.75 10.0588 10.9109 10.2291 10.9036 10.4484C10.8969 10.6619 10.7406 10.8198 10.5109 10.825C10.2052 10.8323 9.89947 10.8281 9.59374 10.8281C8.84634 10.8276 8.09843 10.8276 7.35051 10.8276Z" fill="#6B6B6B"/>
<path d="M7.35107 12.5953C6.35627 12.5953 5.36096 12.5953 4.36617 12.5948C4.28805 12.5948 4.2094 12.5953 4.13284 12.5849C3.94534 12.5594 3.812 12.4177 3.79534 12.2365C3.77815 12.0469 3.89273 11.8766 4.08232 11.8255C4.15627 11.8057 4.23648 11.8031 4.31357 11.8026C6.33596 11.8016 8.35888 11.8016 10.3813 11.8026C10.4646 11.8026 10.5516 11.8073 10.6313 11.8302C10.8115 11.8823 10.9188 12.049 10.9037 12.2318C10.8891 12.4151 10.7578 12.5573 10.5703 12.5839C10.4938 12.5948 10.4146 12.5943 10.337 12.5943C9.34117 12.5953 8.34586 12.5953 7.35107 12.5953Z" fill="#6B6B6B"/>
<path d="M6.33379 15.3385C7.01712 15.3385 7.69994 15.3307 8.38275 15.3453C8.51087 15.3479 8.67025 15.4073 8.75827 15.4969C8.94994 15.6917 8.83587 16.0224 8.56764 16.1031C8.49473 16.125 8.414 16.1281 8.33692 16.1287C6.99004 16.1302 5.64369 16.1297 4.29681 16.1297C4.26452 16.1297 4.23171 16.1307 4.19942 16.1287C3.9541 16.1115 3.78639 15.9422 3.79369 15.7182C3.80046 15.499 3.96035 15.3432 4.20619 15.3411C4.91504 15.3365 5.62442 15.3396 6.33379 15.3396C6.33379 15.3391 6.33379 15.3391 6.33379 15.3385Z" fill="#6B6B6B"/>
</g>
<defs>
<clipPath id="clip0_885_340">
<rect width="15" height="20" fill="white"/>
</clipPath>
</defs>
</svg>
