<svg width="20" height="20" viewBox="0 0 20 20" fill="none" xmlns="http://www.w3.org/2000/svg">
<g clip-path="url(#clip0_885_220)">
<path d="M15.6847 16.743C15.3882 17.691 14.6963 18.2051 13.7681 18.1809C12.8519 18.1567 12.1573 17.6193 11.9478 16.7587C10.658 16.7587 9.36386 16.7587 8.04949 16.7587C7.95869 17.2348 7.69505 17.6288 7.22356 17.9056C6.89647 18.0973 6.53219 18.189 6.13946 18.1795C5.23915 18.1576 4.6331 17.6853 4.31805 16.7682C3.97892 16.7682 3.63761 16.7796 3.29794 16.7658C2.57211 16.7359 2.12086 16.4231 1.96442 15.8074C1.87964 15.4742 1.84081 15.1281 1.82713 14.7864C1.80635 14.2533 1.82877 13.7188 1.82495 13.1852C1.82331 12.9683 1.89605 12.7803 2.041 12.6051C2.45068 12.1086 2.84396 11.6016 3.26841 11.1146C3.39749 10.966 3.5862 10.8141 3.78256 10.7586C5.98467 10.1363 8.22616 9.93736 10.5054 10.3912C11.6404 10.6171 12.6534 11.0538 13.4213 11.8433C13.5794 12.0056 13.738 12.177 13.8419 12.3664C13.9426 12.5491 14.0903 12.6028 14.2959 12.6327C15.0431 12.7423 15.7864 12.8714 16.5347 12.9754C17.1878 13.0661 17.6352 13.3775 17.8917 13.892C18.1991 14.5087 18.2626 15.1533 18.0804 15.806C17.9798 16.1663 17.7391 16.4563 17.3491 16.6229C17.1894 16.6908 17.0007 16.7298 16.8229 16.7378C16.4477 16.7554 16.0714 16.743 15.6847 16.743ZM15.6754 16.3704C16.0342 16.3704 16.3826 16.3609 16.7305 16.3733C17.086 16.3856 17.3513 16.2489 17.5061 15.9945C17.6237 15.8008 17.6735 15.5739 17.7369 15.3584C17.7922 15.1704 17.7347 15.0356 17.4897 14.9667C17.3322 14.9226 17.1894 14.8262 17.0548 14.7365C16.748 14.5324 16.5456 14.267 16.5451 13.9224C16.5451 13.7477 16.5981 13.573 16.6293 13.387C16.6036 13.3789 16.5609 13.3594 16.5161 13.3528C15.8039 13.2422 15.0934 13.1159 14.3774 13.0305C13.9398 12.9783 13.5652 12.8938 13.424 12.4779C13.4186 12.4613 13.4038 12.4471 13.3923 12.4324C12.7458 11.5694 11.793 11.0804 10.6815 10.8222C8.39791 10.2915 6.14548 10.4966 3.92204 11.1094C3.81428 11.1388 3.70817 11.2205 3.6398 11.3016C3.21043 11.8153 2.78652 12.3327 2.37356 12.8558C2.29534 12.955 2.27182 13.087 2.21001 13.2365C2.46654 13.2365 2.66291 13.2355 2.85982 13.237C3.10377 13.2389 3.16886 13.2896 3.1705 13.4966C3.17378 13.9063 3.17378 14.3155 3.1705 14.7251C3.16886 14.9311 3.10322 14.9819 2.85818 14.9838C2.66291 14.9853 2.46819 14.9843 2.2122 14.9843C2.30245 15.3251 2.36481 15.6337 2.46983 15.9308C2.5475 16.1516 2.7455 16.293 3.01188 16.3509C3.45109 16.4464 3.89031 16.3979 4.32461 16.3756C4.52699 15.5221 5.20086 14.9796 6.07219 14.9425C6.51195 14.924 6.91288 15.0152 7.2706 15.2368C7.71529 15.5126 7.96362 15.8957 8.05004 16.36C9.35949 16.36 10.6553 16.36 11.9483 16.36C12.172 15.4747 12.8683 14.9511 13.8014 14.9383C14.5606 14.9269 15.4774 15.3717 15.6754 16.3704ZM7.62012 16.5593C7.62012 15.8696 6.98563 15.3128 6.1958 15.308C5.40324 15.3038 4.74797 15.8734 4.7507 16.5641C4.75344 17.2481 5.39941 17.803 6.19088 17.8016C6.98672 17.8002 7.62012 17.2495 7.62012 16.5593ZM13.808 17.8016C14.6 17.803 15.2449 17.2486 15.2482 16.5646C15.2515 15.881 14.6104 15.3156 13.8239 15.3085C13.028 15.3014 12.3788 15.863 12.3788 16.5593C12.3782 17.2491 13.0127 17.8002 13.808 17.8016ZM2.26745 13.6215C2.26745 13.9542 2.26745 14.2746 2.26745 14.5993C2.43044 14.5993 2.57649 14.5993 2.72307 14.5993C2.72307 14.2666 2.72307 13.9452 2.72307 13.6215C2.56226 13.6215 2.41622 13.6215 2.26745 13.6215ZM17.068 13.5536C16.841 14.0178 17.1347 14.5015 17.6921 14.6098C17.6215 14.1977 17.4623 13.8332 17.068 13.5536Z" fill="#6B6B6B"/>
<path d="M10.6936 2.68121C10.547 2.54165 10.3955 2.41253 10.2664 2.26823C10.2161 2.21174 10.1778 2.1073 10.2051 2.05034C10.233 1.99243 10.3435 1.9535 10.4266 1.92977C10.4945 1.91031 10.5754 1.92265 10.6509 1.92502C11.2329 1.94401 11.8083 1.89891 12.3859 1.83246C12.6588 1.80113 12.9454 1.82676 13.2211 1.85762C14.3736 1.98578 15.0168 3.27125 14.5546 4.03456C14.4124 4.26953 14.378 4.51305 14.3889 4.77271C14.407 5.18095 14.2533 5.54124 13.948 5.85311C13.8764 5.92669 13.8113 6.35154 13.8731 6.41278C13.9092 6.44885 13.977 6.46357 14.0339 6.48018C14.5968 6.643 15.1612 6.80202 15.7235 6.96579C16.4231 7.16944 16.8612 7.64793 16.9044 8.28212C16.9269 8.61346 16.9214 8.94669 16.9099 9.2785C16.9006 9.5543 16.7026 9.71095 16.3788 9.71095C13.849 9.71237 11.3198 9.71237 8.7901 9.71095C8.4745 9.71095 8.2568 9.55952 8.24969 9.30461C8.23875 8.91963 8.2218 8.53038 8.27595 8.15015C8.35963 7.56296 8.76549 7.16944 9.40599 6.97434C9.97867 6.79965 10.5574 6.64015 11.1366 6.48351C11.2668 6.44838 11.2985 6.39521 11.304 6.28366C11.3144 6.07479 11.2695 5.90201 11.1065 5.73064C10.8402 5.45105 10.7499 5.10737 10.7701 4.74613C10.7827 4.52207 10.7324 4.32507 10.6033 4.12143C10.2976 3.63724 10.2828 3.14736 10.6936 2.68121ZM13.982 4.48505C13.9754 4.48457 13.9694 4.4841 13.9628 4.48362C13.9628 4.37112 13.9661 4.25909 13.9623 4.14659C13.9442 3.5931 13.6396 3.37569 13.0565 3.61493C12.9367 3.6643 12.8377 3.64579 12.742 3.56319C12.4466 3.30875 12.0916 3.30923 11.7328 3.41983C11.3685 3.53234 11.2077 3.78487 11.1973 4.11004C11.1891 4.35878 11.1869 4.60847 11.1979 4.8572C11.2241 5.45342 11.7443 5.94995 12.3946 6.01024C13.1167 6.07717 13.7451 5.71735 13.9109 5.11924C13.9672 4.91512 13.9601 4.69676 13.982 4.48505ZM12.3547 7.60853C12.1436 7.73907 11.968 7.85062 11.7891 7.95838C11.5698 8.09082 11.4172 8.07895 11.2269 7.91186C10.9578 7.67546 10.6886 7.43906 10.4277 7.1965C10.3501 7.12482 10.285 7.11058 10.1794 7.14475C9.96882 7.21358 9.75058 7.26295 9.5389 7.32988C9.05265 7.48321 8.74908 7.78417 8.69547 8.22895C8.65554 8.55792 8.68071 8.89257 8.68563 9.22486C8.68617 9.26141 8.7447 9.32834 8.77752 9.32882C9.08218 9.33689 9.38739 9.33357 9.71175 9.33357C9.71175 9.14179 9.71394 8.9709 9.7112 8.80048C9.70901 8.67374 9.7473 8.56836 9.91522 8.56314C10.0974 8.55697 10.1411 8.6671 10.1406 8.80048C10.1406 8.97137 10.1406 9.14226 10.1406 9.32312C10.8905 9.32312 11.6174 9.32312 12.3553 9.32312C12.3547 8.75586 12.3547 8.2019 12.3547 7.60853ZM15.4522 9.33499C15.77 9.33499 16.0566 9.33214 16.3432 9.33641C16.4701 9.33831 16.4849 9.27898 16.4838 9.18973C16.48 8.91678 16.4849 8.64431 16.4816 8.37136C16.4762 7.88812 16.1491 7.49128 15.6229 7.32941C15.4172 7.26627 15.2061 7.21548 15.0021 7.14903C14.885 7.11105 14.8057 7.12387 14.7182 7.20789C14.4978 7.41865 14.2647 7.61945 14.0361 7.82309C13.7112 8.11218 13.6281 8.11835 13.2556 7.88622C13.1112 7.79603 12.9657 7.70774 12.8049 7.609C12.8049 8.2019 12.8049 8.75776 12.8049 9.3236C13.5422 9.3236 14.2686 9.3236 15.0152 9.3236C15.0152 9.14131 15.0146 8.9709 15.0152 8.80001C15.0157 8.66615 15.0644 8.55744 15.2438 8.56266C15.4101 8.56741 15.4533 8.67232 15.4528 8.79859C15.4517 8.96948 15.4522 9.14037 15.4522 9.33499ZM10.9397 2.33658C10.9413 2.33943 10.9523 2.36411 10.9703 2.3831C11.2433 2.66839 11.2433 2.66839 10.9928 2.95796C10.8161 3.16207 10.7663 3.44024 10.8768 3.60781C11.4019 2.94229 12.067 2.80938 12.929 3.19578C12.9657 3.21192 13.0204 3.21619 13.0598 3.20622C13.5367 3.08233 13.9502 3.13359 14.2576 3.55512C14.2658 3.49199 14.2751 3.46445 14.2719 3.4374C14.1887 2.77377 13.79 2.24069 12.9203 2.19797C12.7978 2.1918 12.6731 2.1861 12.5516 2.19607C12.0161 2.23974 11.4812 2.28911 10.9397 2.33658ZM11.7 6.24853C11.7323 6.33777 11.7334 6.45977 11.8028 6.51009C12.0473 6.68715 12.3153 6.83953 12.5795 7.00424C12.8175 6.85614 13.0379 6.70661 13.2731 6.57702C13.4328 6.48873 13.4618 6.38287 13.4104 6.22575C12.8536 6.45455 12.306 6.4555 11.7 6.24853ZM12.9515 7.23589C13.1894 7.38305 13.4038 7.51644 13.5663 7.6166C13.8441 7.39682 14.1007 7.19412 14.3747 6.97719C14.1581 6.91358 13.9672 6.85187 13.7719 6.80345C13.7221 6.79111 13.6478 6.80535 13.6035 6.83146C13.3896 6.95772 13.1817 7.09159 12.9515 7.23589ZM10.7723 6.98193C11.0551 7.21216 11.3084 7.4177 11.572 7.63274C11.7645 7.51264 11.9784 7.37878 12.2092 7.23495C11.9751 7.08969 11.7613 6.95345 11.5419 6.82386C11.5031 6.80107 11.4358 6.79253 11.391 6.80392C11.1951 6.85424 11.0031 6.91453 10.7723 6.98193Z" fill="#6B6B6B"/>
<path d="M4.34373 7.11483C4.34373 7.02274 4.34373 6.95248 4.34373 6.8827C4.34373 5.75578 4.34045 4.62886 4.34865 3.50194C4.34975 3.38564 4.39679 3.25747 4.46406 3.15541C4.62652 2.90904 4.81194 2.67312 4.99135 2.4353C5.14067 2.23783 5.29327 2.24067 5.44697 2.4391C5.4962 2.50318 5.54816 2.56631 5.59083 2.63372C5.86431 3.06474 6.22914 3.42741 6.65578 3.74925C6.92763 3.95432 6.90575 4.05163 6.58741 4.21113C6.52232 4.24388 6.46106 4.2847 6.39159 4.30702C6.11483 4.39436 6.03059 4.55623 6.04974 4.81067C6.06286 4.98013 6.10662 5.08409 6.28658 5.1515C6.41129 5.19802 6.52451 5.26685 6.64265 5.32666C6.91505 5.46479 6.91888 5.60578 6.65359 5.74296C6.472 5.83695 6.21383 5.89534 6.1285 6.03348C6.03387 6.18728 6.09568 6.41418 6.0924 6.60928C6.08967 6.76878 6.09185 6.92827 6.09185 7.11435C6.28493 7.11435 6.46653 7.1134 6.64812 7.11435C7.0764 7.1172 7.34114 7.33793 7.34716 7.70867C7.35372 8.09982 7.35372 8.49144 7.34716 8.88306C7.34114 9.24858 7.08516 9.46836 6.66508 9.46978C5.70186 9.47263 4.7381 9.47263 3.77488 9.46978C3.3548 9.46883 3.09281 9.25 3.08515 8.88781C3.07694 8.49049 3.0764 8.09317 3.08569 7.69585C3.09445 7.33698 3.3641 7.11768 3.78035 7.11435C3.95812 7.11388 4.13533 7.11483 4.34373 7.11483ZM5.2167 7.49221C4.75232 7.49221 4.28739 7.49079 3.82301 7.49268C3.57469 7.49363 3.51835 7.543 3.5178 7.75377C3.51616 8.11548 3.51616 8.47767 3.5178 8.83939C3.5189 9.04303 3.58563 9.10095 3.8252 9.10142C4.75505 9.10237 5.68436 9.10237 6.61421 9.10142C6.85105 9.10095 6.91942 9.04161 6.92052 8.83749C6.92216 8.48764 6.92161 8.13732 6.92106 7.78747C6.92052 7.5392 6.87074 7.49363 6.59069 7.49268C6.13233 7.49126 5.67451 7.49221 5.2167 7.49221ZM5.19263 2.85967C5.12754 2.94702 5.05862 3.05715 4.97001 3.15351C4.81741 3.32013 4.77584 3.50194 4.77803 3.71365C4.78842 4.77459 4.78295 5.83505 4.78295 6.89599C4.78295 6.96483 4.78295 7.03318 4.78295 7.10391C5.08652 7.10391 5.36274 7.10391 5.65537 7.10391C5.65537 6.72653 5.65865 6.36054 5.65373 5.99408C5.65209 5.86733 5.70132 5.77999 5.83314 5.72065C5.95128 5.66749 6.06232 5.60293 6.19304 5.53505C6.06177 5.46859 5.96003 5.40688 5.849 5.36321C5.67342 5.29438 5.61489 5.18188 5.62693 5.02143C5.63732 4.88567 5.64552 4.74706 5.62529 4.61319C5.587 4.35449 5.68709 4.1798 5.97316 4.08391C6.06998 4.05163 6.15585 3.99372 6.21492 3.96334C5.86705 3.58928 5.53613 3.23136 5.19263 2.85967Z" fill="#6B6B6B"/>
<path d="M6.2685 13.6941C5.46281 13.6941 4.65712 13.6946 3.85088 13.6941C3.56044 13.6941 3.51942 13.648 3.50574 13.3908C3.49645 13.2156 3.55333 13.0727 3.6671 12.9289C3.992 12.5192 4.30049 12.0991 4.61993 11.6866C4.66751 11.6254 4.73096 11.5561 4.80535 11.5314C5.74505 11.2157 6.70006 10.9508 7.72618 10.9997C8.07953 11.0168 8.43123 11.0648 8.78403 11.0975C8.93773 11.1118 9.01704 11.1815 9.01704 11.3183C9.01649 12.0355 9.01868 12.7528 9.0154 13.47C9.01485 13.6386 8.9339 13.6931 8.70581 13.6936C7.89356 13.695 7.0813 13.6941 6.2685 13.6941ZM6.49002 11.4697C6.49002 12.0868 6.49002 12.6934 6.49002 13.3044C7.19179 13.3044 7.87879 13.3044 8.5904 13.3044C8.5904 13.2317 8.5904 13.1686 8.5904 13.105C8.5904 12.6664 8.5904 12.2278 8.5904 11.7891C8.5904 11.4497 8.59149 11.4426 8.19986 11.4065C7.62882 11.3534 7.05833 11.3586 6.49002 11.4697ZM6.03823 13.3029C6.03823 12.7224 6.03823 12.1523 6.03823 11.5556C5.69145 11.6586 5.36436 11.7535 5.03945 11.8547C5.00007 11.867 4.96835 11.9073 4.94264 11.9406C4.62157 12.3593 4.30214 12.7789 3.9838 13.199C3.96356 13.226 3.95481 13.2598 3.93512 13.3029C4.64509 13.3029 5.33646 13.3029 6.03823 13.3029Z" fill="#6B6B6B"/>
<path d="M11.4117 13.6941C10.8653 13.6941 10.3189 13.6946 9.77245 13.6936C9.50006 13.6931 9.43661 13.6381 9.43606 13.3988C9.43497 12.729 9.43497 12.0588 9.43606 11.389C9.43661 11.1345 9.52248 11.0785 9.81566 11.1246C10.7007 11.2632 11.5266 11.5195 12.2393 12.0146C12.7742 12.3863 13.1024 12.879 13.3562 13.4164C13.4339 13.5811 13.3239 13.6917 13.092 13.6927C12.5319 13.696 11.9718 13.6941 11.4117 13.6941ZM9.88841 11.5352C9.88841 12.1252 9.88841 12.7143 9.88841 13.3134C10.8265 13.3134 11.7487 13.3134 12.6709 13.3129C12.7113 13.3129 12.7513 13.3082 12.7934 13.3058C12.4679 12.3873 11.1864 11.6885 9.88841 11.5352Z" fill="#6B6B6B"/>
<path d="M6.18645 15.8283C6.65576 15.8274 7.03864 16.1573 7.0359 16.5603C7.03317 16.9609 6.64099 17.297 6.18098 17.2927C5.72317 17.2885 5.35123 16.9638 5.34685 16.5646C5.34193 16.1554 5.71387 15.8293 6.18645 15.8283ZM6.18755 16.9111C6.41509 16.9116 6.59231 16.7625 6.59723 16.5665C6.6027 16.3661 6.41673 16.1986 6.18864 16.1981C5.96384 16.1976 5.77021 16.3699 5.77568 16.5655C5.78115 16.7597 5.96165 16.9111 6.18755 16.9111Z" fill="#6B6B6B"/>
<path d="M13.8107 15.8283C14.2827 15.8278 14.6569 16.154 14.653 16.5627C14.6492 16.9619 14.2783 17.2875 13.8205 17.2928C13.3594 17.298 12.9684 16.9643 12.964 16.5622C12.9591 16.1606 13.3419 15.8288 13.8107 15.8283ZM13.8069 16.9111C14.0415 16.9125 14.2269 16.7521 14.2231 16.5518C14.2193 16.3624 14.0328 16.2005 13.8145 16.1986C13.587 16.1962 13.3988 16.3628 13.4016 16.5631C13.4048 16.7592 13.5799 16.9097 13.8069 16.9111Z" fill="#6B6B6B"/>
<path d="M5.20303 8.48006C5.03948 8.48006 4.87594 8.48196 4.71239 8.47958C4.56799 8.47768 4.47118 8.41502 4.47719 8.28638C4.48266 8.16961 4.57456 8.10885 4.7113 8.10885C5.05206 8.10837 5.39283 8.10742 5.73414 8.10932C5.87197 8.11027 5.95785 8.17673 5.95949 8.2935C5.96113 8.41218 5.87197 8.47626 5.73578 8.47863C5.55746 8.48243 5.38025 8.47958 5.20303 8.48006Z" fill="#6B6B6B"/>
</g>
<defs>
<clipPath id="clip0_885_220">
<rect width="18" height="18" fill="white" transform="translate(1 1)"/>
</clipPath>
</defs>
</svg>
