<svg width="24" height="24" viewBox="0 0 24 24" fill="none" xmlns="http://www.w3.org/2000/svg">
<path d="M4.65859 22.5C4.5 22.4125 4.5 22.2648 4.5 22.1117C4.5 16.4242 4.5 10.7367 4.5 5.05469C4.5 3.99375 4.5 2.93281 4.50547 1.87188C4.50547 1.74609 4.57656 1.62578 4.62031 1.5C8.10938 1.5 11.593 1.5 15.082 1.5C15.1422 1.55469 15.2078 1.60391 15.2625 1.66406C16.9141 3.31563 18.5656 4.96719 20.2227 6.61875C20.3539 6.75 20.4086 6.88125 20.4086 7.06719C20.4031 12.082 20.4031 17.0969 20.4086 22.1117C20.4086 22.2648 20.4086 22.4125 20.25 22.5C15.0547 22.5 9.85391 22.5 4.65859 22.5ZM19.9383 7.12188C19.8453 7.12188 19.7688 7.12188 19.6867 7.12188C18.1773 7.12188 16.668 7.12188 15.1531 7.12188C14.8195 7.12188 14.7758 7.08359 14.7758 6.74453C14.7758 5.23516 14.7758 3.72578 14.7758 2.21094C14.7758 2.12891 14.7758 2.05234 14.7758 1.96484C11.4945 1.96484 8.23516 1.96484 4.97031 1.96484C4.97031 8.65859 4.97031 15.3469 4.97031 22.0352C9.96875 22.0352 14.9453 22.0352 19.9383 22.0352C19.9383 17.0641 19.9383 12.1039 19.9383 7.12188ZM19.5227 6.6625C18.1008 5.24063 16.6625 3.80234 15.2516 2.39141C15.2516 3.78047 15.2516 5.21875 15.2516 6.6625C16.7008 6.6625 18.1336 6.6625 19.5227 6.6625Z" fill="#E5E850" stroke="#E5E850"/>
<path d="M12.4516 9.38046C14.2289 9.38046 16.0062 9.38046 17.7836 9.38046C17.8328 9.38046 17.8765 9.38046 17.9258 9.38046C18.1555 9.38046 18.2703 9.45702 18.2703 9.61015C18.2703 9.76327 18.1555 9.83984 17.9258 9.83984C14.2781 9.83984 10.625 9.83984 6.97733 9.83984C6.92264 9.83984 6.85155 9.85624 6.81874 9.8289C6.74764 9.76874 6.65468 9.69218 6.64374 9.61562C6.63827 9.54999 6.72577 9.45703 6.79686 9.40781C6.85155 9.36953 6.94452 9.38593 7.01561 9.38593C8.83124 9.38046 10.6414 9.38046 12.4516 9.38046Z" fill="#E5E850" stroke="#E5E850" stroke-width="0.5"/>
<path d="M12.457 11.8797C14.2672 11.8797 16.0773 11.8797 17.8875 11.8797C17.9476 11.8797 18.0297 11.8578 18.068 11.8851C18.1445 11.9453 18.2594 12.0328 18.2594 12.1039C18.2594 12.1805 18.1445 12.2625 18.068 12.3226C18.0242 12.35 17.9476 12.3281 17.8875 12.3281C14.2672 12.3281 10.6414 12.3281 7.02109 12.3281C6.99374 12.3281 6.9664 12.3281 6.93906 12.3281C6.77499 12.3391 6.63828 12.2789 6.64374 12.0984C6.64374 11.918 6.78046 11.8687 6.94453 11.8687C8.78202 11.8797 10.6195 11.8797 12.457 11.8797Z" fill="#E5E850" stroke="#E5E850" stroke-width="0.5"/>
<path d="M12.457 14.3734C14.2398 14.3734 16.0226 14.3734 17.8055 14.3734C17.8547 14.3734 17.9039 14.3734 17.9476 14.3734C18.1172 14.3625 18.2648 14.4063 18.2648 14.6031C18.2648 14.7945 18.1117 14.8328 17.9422 14.8328C14.2781 14.8328 10.6141 14.8328 6.95546 14.8328C6.74764 14.8328 6.62186 14.7508 6.6328 14.6031C6.64921 14.4063 6.79139 14.368 6.95546 14.3789C7.00468 14.3789 7.04843 14.3789 7.09764 14.3789C8.10389 14.3789 9.10468 14.3789 10.1109 14.3789C10.8984 14.3734 11.675 14.3734 12.457 14.3734Z" fill="#E5E850" stroke="#E5E850" stroke-width="0.5"/>
<path d="M15.3937 15.8883C15.9133 15.8883 16.4328 15.8883 16.9523 15.8883C17.193 15.8883 17.2586 15.9485 17.2586 16.1891C17.2586 16.818 17.2586 17.4469 17.2586 18.0758C17.2586 18.3055 17.193 18.3766 16.9688 18.3766C15.9188 18.3766 14.8633 18.3766 13.8133 18.3766C13.5945 18.3766 13.5289 18.3 13.5234 18.0703C13.5234 17.4414 13.5234 16.8125 13.5234 16.1836C13.5234 15.9594 13.5945 15.8883 13.8187 15.8883C14.3383 15.8828 14.8687 15.8883 15.3937 15.8883ZM16.7883 17.9063C16.7883 17.3813 16.7883 16.8672 16.7883 16.3586C15.8422 16.3586 14.9125 16.3586 13.9883 16.3586C13.9883 16.8836 13.9883 17.3922 13.9883 17.9063C14.9289 17.9063 15.8531 17.9063 16.7883 17.9063Z" fill="#E5E850" stroke="#E5E850" stroke-width="0.5"/>
<path d="M9.87032 7.35156C8.9297 7.35156 7.98361 7.35156 7.04298 7.35156C6.97736 7.35156 6.88986 7.37343 6.84064 7.34062C6.75861 7.28593 6.64923 7.19843 6.64923 7.12187C6.64923 7.05078 6.75861 6.96328 6.84064 6.90312C6.88439 6.87031 6.96095 6.89218 7.02111 6.89218C8.93517 6.89218 10.8438 6.89218 12.7578 6.89218C12.818 6.89218 12.8945 6.87578 12.9383 6.90859C13.0149 6.96328 13.1242 7.04531 13.1188 7.11093C13.1133 7.19296 13.0149 7.28046 12.9383 7.34062C12.8945 7.37343 12.807 7.35703 12.736 7.35703C11.7844 7.35156 10.8274 7.35156 9.87032 7.35156Z" fill="#E5E850" stroke="#E5E850" stroke-width="0.5"/>
<path d="M9.91405 4.4039C10.8547 4.4039 11.8008 4.4039 12.7414 4.4039C12.807 4.4039 12.8945 4.38203 12.9437 4.41484C13.0203 4.46406 13.1133 4.54609 13.1242 4.62265C13.1351 4.68828 13.0476 4.78671 12.982 4.83593C12.9273 4.87421 12.8398 4.85781 12.7633 4.85781C10.8492 4.85781 8.94061 4.85781 7.02655 4.85781C6.97733 4.85781 6.92811 4.85781 6.88436 4.85781C6.74217 4.84687 6.64374 4.77578 6.6492 4.62812C6.6492 4.48593 6.74217 4.4039 6.88983 4.4039C7.21249 4.4039 7.52967 4.4039 7.85233 4.4039C8.53045 4.4039 9.21952 4.4039 9.91405 4.4039Z" fill="#E5E850" stroke="#E5E850" stroke-width="0.5"/>
<path d="M8.3664 19.8039C7.89608 19.8039 7.42577 19.8039 6.94999 19.8039C6.73671 19.8039 6.6164 19.7164 6.6328 19.5688C6.65468 19.3883 6.78046 19.3445 6.94452 19.3445C7.89608 19.3445 8.84218 19.3445 9.79374 19.3445C10.0016 19.3445 10.1219 19.432 10.1055 19.5797C10.0891 19.7656 9.9578 19.7985 9.79374 19.7985C9.32343 19.8039 8.84218 19.8039 8.3664 19.8039Z" fill="#E5E850" stroke="#E5E850" stroke-width="0.5"/>
<path d="M16.5148 19.8039C16.0445 19.8039 15.5742 19.8039 15.1039 19.8039C14.9398 19.8039 14.7867 19.782 14.7867 19.5742C14.7867 19.3719 14.9398 19.3445 15.1039 19.3445C16.0445 19.3445 16.9852 19.3445 17.9312 19.3445C17.9531 19.3445 17.9695 19.3445 17.9914 19.3445C18.1391 19.3555 18.2484 19.4156 18.2484 19.5742C18.2484 19.7383 18.1391 19.7985 17.9914 19.7985C17.4992 19.8039 17.007 19.8039 16.5148 19.8039Z" fill="#E5E850" stroke="#E5E850" stroke-width="0.5"/>
</svg>
