<svg width="24" height="24" viewBox="0 0 24 24" fill="none" xmlns="http://www.w3.org/2000/svg">
<path d="M1.41176 17.9559C1.46691 17.7022 1.50551 17.443 1.57721 17.1949C2.15074 15.1379 4.22978 13.8199 6.31985 14.1728C6.40257 14.1893 6.5239 14.1452 6.58456 14.0846C9.08823 11.5919 11.5864 9.08824 14.0846 6.5956C14.1728 6.50736 14.1949 6.42464 14.1728 6.30332C13.7647 4.00368 15.4632 1.73163 17.7904 1.45038C17.8456 1.44486 17.8952 1.4228 17.9504 1.41177C18.2151 1.41177 18.4743 1.41177 18.739 1.41177C18.9154 1.44486 19.0864 1.48346 19.2629 1.51655C19.4338 1.54964 19.5827 1.61582 19.6324 1.7978C19.682 1.97979 19.5772 2.0956 19.4614 2.21141C18.7996 2.87317 18.1379 3.54045 17.4706 4.1967C17.3713 4.29596 17.3548 4.37317 17.3989 4.50001C17.5643 4.96876 17.7187 5.43751 17.8676 5.91177C17.9062 6.0331 17.9669 6.08824 18.0827 6.12685C18.557 6.27574 19.0257 6.43567 19.489 6.5956C19.6158 6.63971 19.6985 6.62317 19.7923 6.52942C20.4596 5.85111 21.1324 5.17832 21.8107 4.51655C21.8989 4.42832 22.0643 4.36766 22.1912 4.37317C22.3566 4.37869 22.4393 4.52758 22.4669 4.69302C22.5 4.88052 22.5441 5.06802 22.5827 5.25552C22.5827 5.53126 22.5827 5.80699 22.5827 6.08273C22.5717 6.12685 22.5496 6.17096 22.5441 6.21508C22.2463 8.5478 19.9908 10.2188 17.6746 9.82721C17.5919 9.81067 17.4706 9.85479 17.4099 9.91545C16.8585 10.4559 16.3125 11.0018 15.7721 11.5478C15.739 11.5809 15.7114 11.614 15.6893 11.6471C15.7059 11.6691 15.7114 11.6857 15.7224 11.6912C15.9375 11.9063 16.1526 12.1213 16.3676 12.3364C16.6654 12.6342 16.6654 12.7666 16.3676 13.0754C16.3511 13.0974 16.329 13.114 16.3125 13.136C16.1581 13.318 16.1636 13.5386 16.318 13.693C16.4779 13.8474 16.6985 13.8419 16.875 13.6875C16.9136 13.6544 16.9412 13.6213 16.9798 13.5882C17.2169 13.3566 17.3824 13.3511 17.614 13.5827C18.9926 14.9614 20.3713 16.3401 21.75 17.7188C22.114 18.0827 22.3621 18.5129 22.5 19.0092C22.5386 19.1416 22.5662 19.2739 22.5938 19.4063C22.5938 19.6268 22.5938 19.8474 22.5938 20.068C22.5772 20.1287 22.5607 20.1838 22.5496 20.2445C22.3235 21.3088 21.7059 22.0423 20.6857 22.4283C20.4871 22.5 20.2776 22.5386 20.0735 22.5938C19.8529 22.5938 19.6324 22.5938 19.4118 22.5938C19.3787 22.5827 19.3511 22.5662 19.318 22.5607C18.7059 22.4669 18.1765 22.2022 17.7408 21.7666C16.3566 20.3879 14.9724 18.9982 13.5882 17.614C13.3676 17.3934 13.3676 17.2169 13.5827 16.9908C13.8529 16.7096 13.8915 16.5055 13.6985 16.318C13.511 16.1305 13.296 16.1636 13.0202 16.4338C12.7941 16.6544 12.6287 16.6544 12.4026 16.4338C12.1544 16.1857 11.9118 15.9375 11.6581 15.6838C11.0515 16.2904 10.4614 16.875 9.87684 17.4706C9.83272 17.5147 9.81618 17.6085 9.82721 17.6691C10.1636 19.8474 8.86213 21.8713 6.75 22.4504C6.53493 22.511 6.30882 22.5496 6.08823 22.5993C5.79596 22.5993 5.50919 22.5993 5.21691 22.5993C5.17831 22.5882 5.13971 22.5662 5.1011 22.5607C3.40809 22.3346 2.0239 21.1379 1.56618 19.489C1.5 19.2574 1.4614 19.0257 1.40625 18.7941C1.41176 18.5074 1.41176 18.2316 1.41176 17.9559ZM21.8879 5.44854C21.7886 5.54229 21.7335 5.59192 21.6838 5.64707C21.1544 6.17648 20.6195 6.70589 20.0901 7.24082C19.9357 7.39523 19.7812 7.44486 19.5717 7.37317C18.921 7.14707 18.2702 6.93199 17.614 6.71692C17.4375 6.66177 17.3382 6.55699 17.2831 6.38052C17.0735 5.74082 16.864 5.10111 16.6379 4.46141C16.5551 4.22427 16.6048 4.05883 16.7812 3.88788C17.3217 3.36398 17.8456 2.82905 18.375 2.29413C18.4191 2.25001 18.4632 2.19486 18.5294 2.12317C18.4301 2.11766 18.364 2.11214 18.2978 2.11214C16.0864 2.12317 14.432 4.20221 14.9062 6.38052C14.9559 6.61214 14.9007 6.77207 14.7408 6.93199C12.1379 9.52942 9.53493 12.1324 6.93198 14.7408C6.76654 14.9063 6.60662 14.9559 6.38051 14.9063C3.95404 14.3824 1.75919 16.4724 2.16176 18.921C2.4761 20.8456 4.3511 22.1802 6.25368 21.8272C8.23897 21.4632 9.51287 19.5717 9.08823 17.6085C9.0386 17.3879 9.08824 17.2279 9.24265 17.0735C11.8566 14.4651 14.4706 11.8511 17.079 9.23714C17.2335 9.08273 17.3824 9.03861 17.5974 9.08273C18.5625 9.2978 19.4669 9.13788 20.2831 8.58641C21.375 7.85846 21.8879 6.81618 21.8879 5.44854ZM21.3199 18.364C19.9743 17.0184 18.6176 15.6618 17.2555 14.2996C16.704 14.5974 16.2187 14.5864 15.8548 14.2114C15.7059 14.057 15.5901 13.8419 15.5239 13.6324C15.4136 13.296 15.546 12.9871 15.7114 12.7335C15.5239 12.5349 15.3529 12.3474 15.1985 12.1765C14.1893 13.1802 13.1857 14.1838 12.1875 15.1765C12.364 15.3474 12.5515 15.5239 12.739 15.7059C13.2463 15.386 13.7757 15.4136 14.1673 15.7776C14.5754 16.1636 14.614 16.671 14.3051 17.2445C15.6673 18.6121 17.0239 19.9688 18.3695 21.3143C19.3456 20.3438 20.3438 19.3456 21.3199 18.364ZM19.0478 21.7445C19.704 22.0588 20.6912 21.8382 21.2812 21.2261C21.8548 20.6305 22.0643 19.6324 21.75 19.0423C20.8511 19.9412 19.9467 20.8456 19.0478 21.7445Z" fill="#0300A7" stroke="#0300A7" stroke-width="0.5"/>
<path d="M3.31468 1.41177C3.78343 1.68751 4.24667 1.96324 4.71542 2.23346C5.05182 2.43199 5.39373 2.62501 5.73564 2.81802C5.88454 2.90074 5.98932 3.00552 6.01137 3.18199C6.01137 3.20405 6.0224 3.2206 6.02792 3.24266C6.1327 3.6342 6.16027 4.06986 6.35329 4.40626C6.5463 4.74817 6.90476 4.99633 7.19152 5.2831C8.34961 6.44118 9.51321 7.60479 10.6713 8.76288C10.7209 8.81251 10.7761 8.85663 10.8423 8.91177C10.6548 9.0717 10.4838 9.21508 10.2963 9.37501C10.2853 9.36398 10.2301 9.31986 10.1805 9.26471C8.73564 7.82538 7.2963 6.38052 5.85696 4.93567C5.75218 4.83089 5.67498 4.67648 5.63086 4.5331C5.53159 4.21324 5.46542 3.87685 5.37718 3.55699C5.35512 3.47979 5.29998 3.39155 5.2338 3.35295C4.58307 2.96692 3.9213 2.59744 3.28711 2.23346C2.93968 2.58641 2.59777 2.92832 2.23932 3.28677C2.60329 3.92648 2.98932 4.59927 3.37534 5.27207C3.3974 5.31067 3.45807 5.33824 3.50218 5.3603C3.55733 5.38236 3.61799 5.39891 3.67865 5.40994C4.46726 5.49266 5.04079 5.90626 5.58123 6.47427C6.77792 7.73163 8.02424 8.93935 9.25402 10.1691C9.30917 10.2243 9.3588 10.2739 9.41395 10.3346C9.24299 10.5 9.08307 10.6599 8.88454 10.8474C8.84042 10.7868 8.80733 10.7206 8.75218 10.6655C7.35696 9.26471 5.95623 7.86398 4.55549 6.47427C4.46174 6.38052 4.32387 6.30883 4.19152 6.26471C3.86064 6.16545 3.52976 6.08273 3.19336 6.01104C3.01689 5.97244 2.90108 5.87868 2.81284 5.72427C2.34961 4.9081 1.88086 4.09192 1.41211 3.27574C1.41211 3.20405 1.41211 3.13788 1.41211 3.06619C1.6327 2.83457 1.84777 2.59744 2.07939 2.37133C2.40476 2.04596 2.73564 1.73163 3.06652 1.41177C3.14924 1.41177 3.23196 1.41177 3.31468 1.41177Z" fill="#0300A7" stroke="#0300A7" stroke-width="0.5"/>
<path d="M5.64152 20.4761C5.31615 20.4761 4.9963 20.4706 4.67093 20.4761C4.47792 20.4761 4.34556 20.4044 4.2463 20.2335C3.92093 19.682 3.59005 19.136 3.25917 18.5846C3.16542 18.4246 3.1599 18.2813 3.25365 18.1213C3.59005 17.5699 3.92093 17.0129 4.25181 16.4559C4.34005 16.3015 4.46689 16.2298 4.64336 16.2298C5.31064 16.2298 5.97792 16.2298 6.65071 16.2298C6.8327 16.2298 6.95953 16.3125 7.05328 16.4669C7.37865 17.0184 7.70953 17.5644 8.04042 18.1158C8.13417 18.2758 8.13968 18.4191 8.04042 18.5791C7.70402 19.1305 7.37314 19.6875 7.04225 20.2445C6.9485 20.4044 6.81615 20.4706 6.63417 20.4706C6.30328 20.4706 5.9724 20.4761 5.64152 20.4761ZM5.65255 16.9412C5.4099 16.9412 5.16725 16.9302 4.93012 16.9467C4.85843 16.9522 4.75917 17.0019 4.72056 17.0625C4.47792 17.4485 4.25181 17.8401 4.00917 18.2261C3.9485 18.3254 3.95953 18.3971 4.01468 18.4853C4.2463 18.8658 4.4724 19.2519 4.71505 19.6324C4.75917 19.6985 4.85843 19.7592 4.93564 19.7592C5.4099 19.7702 5.88417 19.7702 6.36395 19.7592C6.43564 19.7592 6.5349 19.7041 6.5735 19.6434C6.81615 19.2574 7.04777 18.8713 7.27387 18.4743C7.30696 18.4136 7.31247 18.2978 7.27939 18.2371C7.05328 17.8346 6.81615 17.443 6.56799 17.0515C6.5349 16.9963 6.44115 16.9467 6.37497 16.9412C6.13784 16.9302 5.8952 16.9412 5.65255 16.9412Z" fill="#0300A7" stroke="#0300A7" stroke-width="0.5"/>
<path d="M15.6618 7.9136C15.7886 8.05147 15.943 8.21691 16.0809 8.37133C13.5165 10.9357 10.9412 13.511 8.37131 16.0809C8.23344 15.9375 8.07903 15.7776 7.94116 15.6342C10.4945 13.0754 13.0754 10.5 15.6618 7.9136Z" fill="#0300A7" stroke="#0300A7" stroke-width="0.5"/>
<path d="M19.6213 19.1857C19.4834 19.318 19.3235 19.4724 19.1856 19.6048C18.0275 18.4467 16.8584 17.2776 15.6948 16.114C15.8217 15.9926 15.9871 15.8382 16.1305 15.6949C17.2775 16.8419 18.4467 18.011 19.6213 19.1857Z" fill="#0300A7" stroke="#0300A7" stroke-width="0.5"/>
</svg>
