<svg width="24" height="24" viewBox="0 0 24 24" fill="none" xmlns="http://www.w3.org/2000/svg">
<g clip-path="url(#clip0_925_370)">
<path d="M11.3 24C10.8625 23.9375 10.4187 23.8875 9.98123 23.8188C8.79373 23.625 7.66873 23.25 6.59373 22.7C6.44373 22.625 6.33748 22.6063 6.18123 22.7188C5.27498 23.3875 4.07498 23.4063 3.13123 22.775C2.21248 22.1625 1.76873 21.025 2.02498 19.9438C2.28123 18.8688 3.18123 18.0563 4.28123 17.9063C6.14373 17.6563 7.66874 19.3813 7.21248 21.2313C7.19999 21.2813 7.18748 21.3375 7.16873 21.3813C10.2875 23.1063 15.075 23.2063 18.8125 20.1C22.425 17.0938 23.8812 11.575 21.225 6.78126C21.6187 6.55626 22.0187 6.33126 22.4625 6.07501C22.7062 6.60626 22.9687 7.11876 23.175 7.65001C23.6125 8.75001 23.875 9.89376 23.9562 11.0813C23.9625 11.15 23.9812 11.2188 23.9937 11.2875C23.9937 11.7563 23.9937 12.225 23.9937 12.6938C23.9812 12.7625 23.9562 12.8313 23.95 12.9C23.8312 14.4875 23.425 16.0063 22.6875 17.4188C20.8375 20.9375 17.9437 23.0625 14.0375 23.8125C13.5937 23.9 13.1437 23.9375 12.7 23.9938C12.2375 24 11.7687 24 11.3 24ZM3.36873 20.5688C3.36873 21.2688 3.93748 21.8375 4.63123 21.8313C5.32498 21.825 5.89998 21.25 5.89373 20.5625C5.89373 19.8688 5.32498 19.3063 4.62498 19.3063C3.91873 19.3063 3.36248 19.8625 3.36873 20.5688Z" fill="#4A4A4A"/>
<path d="M12.7063 0C13.1438 0.0625 13.5875 0.1125 14.025 0.18125C14.9937 0.3375 15.925 0.61875 16.8188 1.01875C16.9688 1.0875 17.0625 1.0625 17.1875 0.9625C18.0312 0.29375 18.9688 0.14375 19.9562 0.575C20.95 1.0125 21.4812 1.81875 21.5562 2.9C21.6437 4.26875 20.5688 5.51875 19.1938 5.66875C17.8 5.81875 16.5 4.86875 16.2687 3.50625C16.2375 3.3125 16.225 3.11875 16.225 2.925C16.225 2.73125 16.2625 2.5375 16.2812 2.34375C13.5813 1.0125 9.21875 0.85625 5.6 3.55625C2.175 6.1125 -0.00625014 11.4563 2.475 16.6562C2.06875 16.8563 1.65625 17.0562 1.2 17.2812C0.9875 16.725 0.75625 16.1938 0.575 15.65C0.28125 14.7562 0.1 13.8375 0.0375 12.9C0.03125 12.8312 0.0125 12.7625 0 12.7C0 12.2312 0 11.7625 0 11.2937C0.0125 11.2188 0.0375 11.1438 0.04375 11.0688C0.11875 10.0375 0.3125 9.025 0.675 8.05625C2.31875 3.7125 5.425 1.0875 9.98125 0.18125C10.4125 0.09375 10.8625 0.0625 11.3 0C11.7688 0 12.2375 0 12.7063 0ZM18.8875 4.275C19.5875 4.275 20.15 3.7 20.15 3.00625C20.1437 2.3125 19.5625 1.74375 18.875 1.74375C18.1812 1.75 17.6187 2.31875 17.6187 3.01875C17.625 3.725 18.1813 4.275 18.8875 4.275Z" fill="#4A4A4A"/>
<path d="M4.79376 10.0375C5.18751 9.95625 5.56876 9.875 5.95626 9.8125C6.10626 9.7875 6.16876 9.71875 6.24376 9.5875C6.41876 9.28125 6.37501 9.0375 6.15626 8.76875C5.96251 8.5375 5.81251 8.26875 5.65626 8.03125C6.50626 7.175 7.35001 6.33125 8.20626 5.46875C8.52501 5.68125 8.85626 5.9 9.17501 6.13125C9.29376 6.21875 9.39376 6.2125 9.53751 6.175C9.87501 6.0875 10.0063 5.875 10.0375 5.55C10.0625 5.29375 10.1188 5.04375 10.1875 4.79375C10.2063 4.73125 10.2938 4.6375 10.3563 4.6375C11.4625 4.63125 12.575 4.63125 13.6813 4.6375C13.7375 4.6375 13.825 4.725 13.8375 4.78125C13.9188 5.125 13.9813 5.46875 14.0438 5.8125C14.0688 5.94375 14.1063 6.04375 14.2625 6.075C14.35 6.09375 14.4375 6.1375 14.5188 6.18125C14.6375 6.25 14.725 6.23125 14.8375 6.15625C15.1625 5.925 15.4938 5.7125 15.8 5.50625C16.6563 6.35625 17.5 7.19375 18.3688 8.0625C18.175 8.35 17.9563 8.675 17.7375 9C17.5563 9.26875 17.7625 9.75 18.075 9.80625C18.4563 9.88125 18.8375 9.95625 19.225 10.0375C19.225 11.2438 19.225 12.4375 19.225 13.6438C18.8375 13.7188 18.4563 13.8062 18.075 13.8687C17.9125 13.8937 17.85 13.9688 17.775 14.1062C17.6 14.4062 17.65 14.6437 17.8625 14.9C18.0625 15.1375 18.2125 15.4125 18.3688 15.6438C17.5125 16.5063 16.6688 17.35 15.8125 18.2062C15.5 17.9937 15.1688 17.775 14.8438 17.55C14.7313 17.4687 14.6375 17.475 14.5063 17.5125C14.1625 17.6 14.025 17.8125 13.9938 18.15C13.975 18.4062 13.9125 18.6562 13.8438 18.9062C13.825 18.9688 13.7313 19.0562 13.6688 19.0562C12.5688 19.0625 11.4688 19.0625 10.3625 19.0562C10.3063 19.0562 10.2063 18.9625 10.1938 18.9C10.1188 18.575 10.0563 18.2438 10 17.9125C9.97501 17.75 9.91251 17.6375 9.74376 17.6C9.66876 17.5813 9.59376 17.55 9.53126 17.5125C9.40626 17.4375 9.30626 17.4625 9.19376 17.5438C8.86876 17.775 8.53751 17.9875 8.22501 18.2C7.36876 17.3438 6.51876 16.5062 5.66251 15.65C5.86876 15.3375 6.08751 15.0063 6.31876 14.6875C6.40626 14.5625 6.40001 14.4688 6.35626 14.325C6.26876 14.0062 6.08126 13.8625 5.75001 13.8313C5.44376 13.8063 5.13751 13.7188 4.81876 13.6562C4.79376 12.4437 4.79376 11.25 4.79376 10.0375ZM7.42501 15.5C7.70626 15.7688 7.96876 16.0375 8.24376 16.2875C8.28751 16.3313 8.41251 16.3312 8.47501 16.3C8.70001 16.1687 8.91251 16.025 9.11876 15.875C9.22501 15.8 9.30001 15.8125 9.41251 15.8625C9.92501 16.0875 10.4375 16.3063 10.9625 16.5063C11.1063 16.5625 11.175 16.625 11.2 16.775C11.2438 17.0625 11.3125 17.35 11.3688 17.65C11.7688 17.65 12.1438 17.6562 12.5188 17.6437C12.575 17.6437 12.6563 17.5625 12.675 17.5C12.7375 17.2563 12.7813 17.0125 12.8188 16.7687C12.8438 16.6312 12.9063 16.5687 13.0438 16.5187C13.5688 16.3187 14.0813 16.1062 14.5938 15.875C14.7188 15.8188 14.8 15.8188 14.9063 15.8938C15.15 16.0688 15.4063 16.2313 15.6375 16.3875C15.95 16.075 16.2438 15.775 16.55 15.4688C16.3938 15.2312 16.225 14.9812 16.05 14.7312C15.975 14.6312 15.9813 14.55 16.0375 14.4375C16.2688 13.9187 16.4875 13.3937 16.6938 12.8687C16.7438 12.7437 16.7875 12.6812 16.925 12.6562C17.225 12.6125 17.5188 12.5438 17.8125 12.4875C17.8125 12.0438 17.8125 11.6312 17.8125 11.2C17.5 11.1375 17.2 11.0938 16.9063 11.0188C16.8313 11 16.7375 10.9187 16.7063 10.8375C16.475 10.3125 16.2563 9.78125 16.0438 9.24375C16.0125 9.16875 16.0125 9.04375 16.0563 8.975C16.2188 8.70625 16.4 8.45625 16.5875 8.18125C16.3063 7.90625 16.0375 7.63125 15.7563 7.375C15.7188 7.3375 15.6 7.34375 15.5438 7.375C15.3188 7.5125 15.1063 7.675 14.8813 7.8125C14.8188 7.85 14.7 7.85625 14.6375 7.81875C14.1313 7.51875 13.5938 7.3 13.025 7.14375C12.95 7.125 12.8688 7.025 12.8438 6.95C12.775 6.69375 12.7375 6.43125 12.6813 6.175C12.6688 6.125 12.6063 6.04375 12.5625 6.04375C12.1688 6.03125 11.7688 6.0375 11.375 6.0375C11.3125 6.35625 11.25 6.64375 11.2 6.9375C11.1813 7.075 11.1063 7.11875 10.9875 7.16875C10.4688 7.375 9.95001 7.58125 9.43751 7.8125C9.31251 7.86875 9.23126 7.86875 9.12501 7.79375C8.88126 7.61875 8.62501 7.45625 8.38751 7.29375C8.07501 7.60625 7.78126 7.90625 7.47501 8.2125C7.63126 8.44375 7.78751 8.69375 7.96251 8.9375C8.05001 9.05625 8.04376 9.14375 7.98126 9.275C7.75626 9.7875 7.53751 10.3 7.33751 10.825C7.28751 10.95 7.24376 11.0188 7.10626 11.0375C6.80626 11.0875 6.51251 11.15 6.21876 11.2125C6.21876 11.65 6.21876 12.0687 6.21876 12.4937C6.51876 12.5562 6.80626 12.6188 7.10001 12.6625C7.23751 12.6813 7.28751 12.75 7.33751 12.875C7.53751 13.3938 7.75626 13.9125 7.98126 14.425C8.03751 14.5437 8.05001 14.6312 7.96876 14.7437C7.76876 14.9688 7.60626 15.225 7.42501 15.5Z" fill="#4A4A4A"/>
<path d="M12.0562 15.3812C10.1 15.3812 8.50624 13.7937 8.50624 11.8375C8.49999 9.88124 10.0937 8.28749 12.05 8.28749C14.0187 8.28124 15.6187 9.87499 15.6125 11.8437C15.6062 13.8 14.0125 15.3812 12.0562 15.3812ZM12.0562 13.975C13.2437 13.975 14.2 13.0125 14.2 11.8312C14.2 10.65 13.2375 9.69374 12.05 9.69374C10.8687 9.69374 9.89999 10.6562 9.90624 11.8375C9.91249 13.0187 10.875 13.9812 12.0562 13.975Z" fill="#4A4A4A"/>
</g>
<defs>
<clipPath id="clip0_925_370">
<rect width="24" height="24" fill="white"/>
</clipPath>
</defs>
</svg>
