<svg width="18" height="19" viewBox="0 0 18 19" fill="none" xmlns="http://www.w3.org/2000/svg">
<g clip-path="url(#clip0_900_255)">
<path d="M8.53364 12.2254C8.53364 12.1794 8.53364 12.1322 8.53364 12.0862C8.53364 11.0335 8.52739 11.0161 7.5425 11.3778C5.4113 12.1595 3.67431 13.4335 2.51548 15.4171C2.20888 15.9416 1.86348 16.1057 1.46302 15.9391C1.0513 15.7676 0.917392 15.4159 1.04754 14.828C1.80967 11.3902 3.80696 8.92183 6.98687 7.38936C7.33602 7.22033 7.70269 7.06745 8.07812 6.97424C8.45856 6.87978 8.56618 6.68837 8.5424 6.31675C8.50987 5.82209 8.52488 5.32369 8.5374 4.82778C8.55617 4.1181 9.1068 3.79122 9.73002 4.14544C12.1027 5.49272 14.4692 6.84871 16.8307 8.21463C17.4952 8.59868 17.4802 9.24746 16.8006 9.63897C14.6532 10.8769 12.4982 12.1011 10.3457 13.3303C10.1029 13.4695 9.86893 13.6261 9.61739 13.743C9.09804 13.9841 8.5837 13.6821 8.5424 13.1116C8.52113 12.8183 8.53865 12.5225 8.53865 12.2266C8.5374 12.2254 8.53489 12.2254 8.53364 12.2254ZM4.52153 11.0397C4.76056 11.0956 4.87944 10.9763 5.01085 10.9005C6.26479 10.1747 7.61509 9.71106 9.03672 9.4426C9.62615 9.33074 10.0141 9.63524 10.0354 10.2306C10.0491 10.6022 10.0554 10.9763 10.0341 11.3467C10.0116 11.7382 10.128 11.7544 10.4408 11.5716C11.8399 10.7538 13.2428 9.94223 14.6582 9.15425C15.0561 8.93301 14.9448 8.8398 14.6394 8.66704C13.2278 7.87035 11.8262 7.05751 10.4196 6.25337C10.3169 6.19495 10.2231 6.09179 10.0379 6.14275C10.0379 6.45347 10.0391 6.77538 10.0379 7.09728C10.0354 7.83555 9.89521 8.00583 9.17188 8.19102C7.33602 8.65958 5.79049 9.59671 4.52153 11.0397Z" fill="#3B9C39"/>
<path d="M4.52155 11.0397C5.7905 9.59669 7.33603 8.65956 9.17189 8.18975C9.89522 8.00456 10.0354 7.83428 10.0379 7.09601C10.0391 6.77411 10.0379 6.4522 10.0379 6.14148C10.2231 6.09052 10.317 6.19368 10.4196 6.2521C11.8262 7.05624 13.2278 7.86908 14.6382 8.66701C14.9448 8.84102 15.0561 8.93299 14.6569 9.15422C13.2416 9.94221 11.8387 10.7538 10.4396 11.5716C10.1267 11.7543 10.0091 11.7382 10.0329 11.3467C10.0542 10.9763 10.0479 10.6022 10.0341 10.2306C10.0129 9.63522 9.62491 9.33071 9.03548 9.44257C7.61385 9.71103 6.2648 10.1746 5.00961 10.9005C4.87946 10.9763 4.76057 11.0956 4.52155 11.0397Z" fill="#FDFBFC"/>
</g>
<defs>
<clipPath id="clip0_900_255">
<rect width="16.32" height="12" fill="white" transform="translate(1 4)"/>
</clipPath>
</defs>
</svg>
