<svg width="20" height="20" viewBox="0 0 20 20" fill="none" xmlns="http://www.w3.org/2000/svg">
<g clip-path="url(#clip0_885_368)">
<path d="M15.3938 16.6719C11.785 16.6719 8.19807 16.6719 4.58386 16.6719C4.58386 17.2355 4.56351 17.7909 4.58815 18.3413C4.64493 19.6053 4.23996 20.0618 3.5184 19.9942C3.07111 19.9522 2.62114 19.9893 2.17225 19.986C1.66978 19.9819 1.35802 19.5031 1.35588 18.7319C1.35374 18.0521 1.3607 17.3715 1.35052 16.6925C1.34891 16.5714 1.30017 16.4206 1.24124 16.3382C0.997511 16.0012 0.865734 15.5982 0.86627 15.0906C0.867877 13.6074 0.857163 12.1234 0.87002 10.6402C0.882876 9.13975 1.28945 7.92024 2.04154 6.96935C2.08654 6.91249 2.13207 6.85646 2.23171 6.73369C2.06458 6.73369 1.95583 6.73369 1.84709 6.73369C1.50533 6.73369 1.16357 6.73863 0.822345 6.73204C0.317738 6.72215 0.00811705 6.24918 0.00276029 5.47792C8.19081e-05 5.18952 -0.00581053 4.897 0.0225803 4.61437C0.0788263 4.05735 0.362735 3.67419 0.728601 3.65606C1.10357 3.63794 1.47908 3.64041 1.85406 3.65112C2.30402 3.6643 2.60507 4.11833 2.62918 4.81295C2.63882 5.09064 2.63347 5.36915 2.63132 5.64684C2.63025 5.78692 2.62757 5.90227 2.75024 5.94018C2.87131 5.97726 2.91523 5.90392 2.95541 5.74654C3.25378 4.56823 3.54947 3.38744 3.86123 2.21655C4.21049 0.903923 4.88009 0.226599 5.77253 0.0238962C5.88448 -0.00164759 5.99965 0.00247238 6.11375 0.00247238C8.71285 0.00164839 11.312 0.00412037 13.9111 3.96344e-07C14.7301 -0.00164759 15.3943 0.480389 15.8898 1.48154C16.0013 1.70649 16.0827 1.97429 16.1523 2.23797C16.4534 3.38167 16.7491 4.5295 17.0356 5.68144C17.1015 5.94595 17.183 6.02999 17.3672 5.85778C17.3672 5.56691 17.3651 5.24967 17.3678 4.93243C17.3737 4.11833 17.6763 3.65442 18.2077 3.64865C18.5361 3.64535 18.8644 3.64206 19.1923 3.64947C19.683 3.66018 19.9883 4.13481 19.9985 4.89288C20.0012 5.08817 20.0012 5.28428 19.9985 5.48039C19.9888 6.25 19.6803 6.72297 19.1751 6.73121C18.7932 6.73698 18.4113 6.73286 18.0299 6.73286C17.9645 6.73286 17.8997 6.73286 17.7824 6.73286C17.8686 6.84822 17.9147 6.91249 17.9629 6.97347C18.6914 7.89305 19.105 9.07136 19.1275 10.5224C19.151 12.046 19.1355 13.5712 19.1355 15.0964C19.1355 15.6032 18.9941 16.0028 18.7466 16.3332C18.692 16.4066 18.6502 16.5499 18.6491 16.662C18.64 17.3517 18.647 18.0422 18.6437 18.7327C18.6405 19.4438 18.3539 19.9349 17.8917 19.9572C17.3163 19.9843 16.7394 19.9827 16.1636 19.9588C15.6938 19.9398 15.4013 19.4487 15.3954 18.7203C15.3906 18.1534 15.3943 17.5873 15.3943 17.0204C15.3938 16.9092 15.3938 16.7988 15.3938 16.6719ZM9.9958 15.7498C11.9649 15.7498 13.9335 15.7498 15.9027 15.7498C16.6125 15.7498 17.3228 15.7531 18.0325 15.7482C18.3582 15.7457 18.5211 15.5166 18.5222 15.0527C18.5248 13.5489 18.5361 12.0452 18.5173 10.5414C18.4927 8.54153 17.3683 6.87294 16.0671 6.87294C12.0689 6.87129 8.07058 6.87212 4.07229 6.87376C3.90516 6.87376 3.73589 6.87459 3.57197 6.91744C2.32009 7.24127 1.45658 8.79614 1.44587 10.7531C1.43837 12.102 1.44426 13.4517 1.44426 14.8006C1.44426 15.5628 1.56479 15.749 2.05976 15.749C4.70492 15.7498 7.35009 15.7498 9.9958 15.7498ZM16.471 5.96407C16.185 4.85168 15.9064 3.77225 15.63 2.69282C15.3408 1.56312 14.7124 0.895683 13.9244 0.889915C13.4086 0.886619 12.8927 0.889091 12.3769 0.889091C10.2599 0.889091 8.14343 0.886619 6.02644 0.890739C5.26042 0.892387 4.61761 1.57218 4.34227 2.65162C4.08836 3.647 3.83499 4.64321 3.58268 5.64024C3.55804 5.7383 3.54036 5.84048 3.51465 5.96407C7.84506 5.96407 12.1439 5.96407 16.471 5.96407ZM1.94512 16.6727C1.94512 17.3871 1.93762 18.0834 1.95369 18.7788C1.95584 18.8752 2.07529 19.0425 2.14279 19.045C2.69667 19.0664 3.25164 19.0656 3.80606 19.0458C3.87195 19.0433 3.98873 18.8893 3.99087 18.8011C4.0064 18.0966 3.99944 17.3904 3.99944 16.6727C3.30627 16.6727 2.63561 16.6727 1.94512 16.6727ZM15.9986 16.6727C15.9986 17.3863 15.9911 18.0834 16.0077 18.7788C16.0098 18.8752 16.1309 19.0433 16.1995 19.0458C16.7475 19.0681 17.296 19.0664 17.844 19.0475C17.9099 19.045 18.0283 18.8967 18.0304 18.8118C18.0454 18.1056 18.039 17.3986 18.039 16.6735C17.3619 16.6727 16.6901 16.6727 15.9986 16.6727ZM17.9581 5.82976C18.3941 5.82976 18.8012 5.83141 19.2084 5.82894C19.3374 5.82811 19.4049 5.721 19.4055 5.51994C19.406 5.29417 19.4066 5.06757 19.4049 4.84179C19.4033 4.63909 19.33 4.54021 19.203 4.53856C18.8553 4.53527 18.5077 4.53527 18.16 4.53856C18.0325 4.53939 17.9597 4.64074 17.9581 4.84179C17.9565 5.15903 17.9581 5.47545 17.9581 5.82976ZM2.03994 5.82894C2.03994 5.4738 2.05601 5.14338 2.03083 4.82119C2.02279 4.71819 1.90762 4.56164 1.83692 4.55587C1.4898 4.52868 1.14054 4.53939 0.792347 4.54598C0.666999 4.54845 0.593075 4.65227 0.593611 4.8558C0.593611 5.0824 0.573255 5.31559 0.602182 5.53313C0.617181 5.64601 0.716816 5.81164 0.781633 5.81576C1.1941 5.8413 1.60765 5.82894 2.03994 5.82894Z" fill="#6B6B6B"/>
<path d="M9.99144 12.0806C8.78563 12.0806 7.57982 12.0814 6.37402 12.0806C5.94119 12.0798 5.74835 11.7642 5.77245 11.1033C5.81906 9.82943 6.51061 8.85382 7.38698 8.84888C8.78724 8.84146 10.187 8.84641 11.5872 8.84723C11.9622 8.84723 12.3377 8.83569 12.7127 8.85382C13.5365 8.89337 14.1944 9.90112 14.2313 11.1618C14.2485 11.7427 14.0465 12.0798 13.6694 12.0806C12.4432 12.0822 11.2176 12.0806 9.99144 12.0806ZM13.6308 11.1643C13.5864 10.3024 13.1659 9.74126 12.575 9.73879C11.2294 9.73467 9.88323 9.73714 8.53761 9.73714C8.14925 9.73714 7.76088 9.72808 7.37252 9.73962C6.81541 9.75692 6.37884 10.379 6.37509 11.1635C8.78884 11.1643 11.2031 11.1643 13.6308 11.1643Z" fill="#6B6B6B"/>
<path d="M9.98769 14.4916C8.61475 14.4916 7.24235 14.4932 5.86941 14.4883C5.77299 14.4883 5.65193 14.4792 5.58658 14.3944C5.51747 14.3037 5.45534 14.1018 5.47355 13.9774C5.4939 13.839 5.59836 13.7096 5.68568 13.6223C5.73924 13.5687 5.8287 13.5959 5.90209 13.5959C8.63404 13.5951 11.366 13.5951 14.0985 13.5951C14.1322 13.5951 14.1654 13.5934 14.1986 13.5959C14.4118 13.6091 14.5372 13.7722 14.5393 14.0384C14.5415 14.3128 14.4076 14.4908 14.1863 14.4908C12.7871 14.4924 11.3874 14.4908 9.98769 14.4916Z" fill="#6B6B6B"/>
<path d="M14.7873 10.1483C14.8039 9.01285 15.4194 8.10399 16.156 8.12706C16.8807 8.15013 17.477 9.0969 17.4662 10.2085C17.455 11.3431 16.8395 12.2652 16.1072 12.2454C15.3696 12.2264 14.7707 11.2747 14.7873 10.1483ZM15.3787 10.1846C15.3782 10.8298 15.7092 11.339 16.1276 11.3349C16.5422 11.3316 16.8749 10.8108 16.8722 10.1706C16.8695 9.54433 16.5395 9.04087 16.1303 9.03922C15.7071 9.03922 15.3792 9.53856 15.3787 10.1846Z" fill="#6B6B6B"/>
<path d="M3.86331 8.12706C4.6004 8.13118 5.20304 9.06724 5.19768 10.1994C5.19232 11.3225 4.59397 12.2338 3.86224 12.2338C3.12568 12.2338 2.52091 11.297 2.52733 10.1656C2.53376 9.04581 3.13908 8.12294 3.86331 8.12706ZM3.12193 10.1681C3.11818 10.8125 3.4487 11.3299 3.86492 11.3307C4.26667 11.3324 4.60736 10.8149 4.61111 10.1969C4.61486 9.55834 4.2806 9.04087 3.86384 9.04004C3.45191 9.04004 3.12568 9.53609 3.12193 10.1681Z" fill="#6B6B6B"/>
</g>
<defs>
<clipPath id="clip0_885_368">
<rect width="20" height="20" fill="white"/>
</clipPath>
</defs>
</svg>
