<svg width="18" height="18" viewBox="0 0 18 18" fill="none" xmlns="http://www.w3.org/2000/svg">
<g clip-path="url(#clip0_900_166)">
<path d="M9.46636 11.7254C9.46636 11.6794 9.46636 11.6322 9.46636 11.5862C9.46636 10.5335 9.47261 10.5161 10.4575 10.8778C12.5887 11.6595 14.3257 12.9335 15.4845 14.9171C15.7911 15.4416 16.1365 15.6057 16.537 15.4391C16.9487 15.2676 17.0826 14.9159 16.9525 14.328C16.1903 10.8902 14.193 8.42183 11.0131 6.88936C10.664 6.72033 10.2973 6.56745 9.92188 6.47424C9.54144 6.37978 9.43382 6.18837 9.4576 5.81675C9.49013 5.32209 9.47512 4.82369 9.4626 4.32778C9.44383 3.6181 8.8932 3.29122 8.26998 3.64544C5.89726 4.99272 3.53079 6.34871 1.16932 7.71463C0.50481 8.09868 0.519829 8.74746 1.19936 9.13897C3.34683 10.3769 5.5018 11.6011 7.65427 12.8303C7.89705 12.9695 8.13107 13.1261 8.38261 13.243C8.90196 13.4841 9.4163 13.1821 9.4576 12.6116C9.47887 12.3183 9.46135 12.0225 9.46135 11.7266C9.4626 11.7254 9.46511 11.7254 9.46636 11.7254ZM13.4785 10.5397C13.2394 10.5956 13.1206 10.4763 12.9892 10.4005C11.7352 9.67465 10.3849 9.21106 8.96328 8.9426C8.37385 8.83074 7.98591 9.13524 7.96463 9.73058C7.95087 10.1022 7.94461 10.4763 7.96588 10.8467C7.98841 11.2382 7.87203 11.2544 7.55917 11.0716C6.16006 10.2538 4.7572 9.44223 3.34182 8.65425C2.94386 8.43301 3.05524 8.3398 3.36059 8.16704C4.77221 7.37035 6.17383 6.55751 7.58044 5.75337C7.68306 5.69495 7.77692 5.59179 7.96213 5.64275C7.96213 5.95347 7.96088 6.27538 7.96213 6.59728C7.96463 7.33555 8.10479 7.50583 8.82812 7.69102C10.664 8.15958 12.2095 9.09671 13.4785 10.5397Z" fill="#D61717"/>
<path d="M13.4785 10.5397C12.2095 9.09669 10.664 8.15956 8.82811 7.68975C8.10478 7.50456 7.96462 7.33428 7.96212 6.59601C7.96086 6.27411 7.96212 5.9522 7.96212 5.64148C7.7769 5.59052 7.68305 5.69368 7.58043 5.7521C6.17381 6.55624 4.7722 7.36908 3.36183 8.16701C3.05523 8.34102 2.94385 8.43299 3.34306 8.65422C4.75844 9.44221 6.1613 10.2538 7.5604 11.0716C7.87326 11.2543 7.9909 11.2382 7.96712 10.8467C7.94585 10.4763 7.9521 10.1022 7.96587 9.73056C7.98714 9.13522 8.37509 8.83071 8.96452 8.94257C10.3862 9.21103 11.7352 9.67463 12.9904 10.4005C13.1205 10.4763 13.2394 10.5956 13.4785 10.5397Z" fill="#FDFBFC"/>
</g>
<defs>
<clipPath id="clip0_900_166">
<rect width="16.32" height="12" fill="white" transform="matrix(-1 0 0 1 17 3.5)"/>
</clipPath>
</defs>
</svg>
