<svg width="12" height="12" viewBox="0 0 12 12" fill="none" xmlns="http://www.w3.org/2000/svg">
<path d="M5.71911 0.0898767C5.93144 0.0881698 6.11786 0.166299 6.27839 0.324265C6.59944 0.640195 6.6035 1.14447 6.28735 1.43898L2.02229 5.77317L6.3567 10.0648C6.67775 10.3807 6.6818 10.885 6.36566 11.1795C6.04973 11.5005 5.54545 11.5046 5.25094 11.1885L0.328154 6.34419C0.00710282 6.02826 0.00304888 5.52398 0.319193 5.22947L5.16367 0.333226C5.2951 0.172914 5.50678 0.0915836 5.71911 0.0898767Z" fill="#6B6B6B"/>
<path d="M10.576 0.0508142C10.7884 0.0491073 10.9748 0.127237 11.1353 0.285202C11.4564 0.601133 11.4604 1.10541 11.1443 1.39992L6.87922 5.73411L11.2136 10.0257C11.5347 10.3416 11.5387 10.8459 11.2226 11.1404C10.9332 11.4613 10.4024 11.4655 10.1079 11.1494L5.18509 6.30513C4.86404 5.9892 4.85998 5.48492 5.17613 5.19041L10.0206 0.294163C10.1786 0.133638 10.3637 0.0525212 10.576 0.0508142Z" fill="#6B6B6B"/>
</svg>
