<svg width="13" height="10" viewBox="0 0 13 10" fill="none" xmlns="http://www.w3.org/2000/svg">
<g clip-path="url(#clip0_2533_24156)">
<path d="M6.22156 6.1742C6.22156 6.13969 6.22156 6.10423 6.22156 6.06972C6.22156 5.27953 6.21687 5.26647 5.4776 5.53795C3.87788 6.12476 2.57406 7.08101 1.70423 8.56996C1.47408 8.96366 1.21482 9.0868 0.914231 8.96179C0.605185 8.83305 0.504674 8.56903 0.602367 8.12775C1.17443 5.54728 2.67364 3.69448 5.06053 2.54419C5.3226 2.41731 5.59783 2.30256 5.87964 2.23259C6.1652 2.16169 6.24599 2.01802 6.22814 1.73907C6.20372 1.36777 6.21499 0.993662 6.22438 0.621424C6.23847 0.0887232 6.65179 -0.156637 7.11958 0.109248C8.90059 1.12054 10.6769 2.13836 12.4495 3.16365C12.9483 3.45192 12.937 3.93891 12.4269 4.23278C10.815 5.16198 9.19743 6.08091 7.58174 7.00358C7.39951 7.10806 7.22385 7.22561 7.03504 7.31331C6.64521 7.4943 6.25914 7.26759 6.22814 6.83938C6.21217 6.61921 6.22532 6.39717 6.22532 6.17514C6.22438 6.1742 6.2225 6.1742 6.22156 6.1742ZM3.21 5.28419C3.38942 5.32617 3.47866 5.23661 3.57729 5.1797C4.51852 4.63487 5.53208 4.28689 6.59918 4.08538C7.04162 4.00142 7.33282 4.22998 7.34878 4.67686C7.35912 4.9558 7.36381 5.23661 7.34785 5.51462C7.33094 5.8085 7.4183 5.82062 7.65313 5.68348C8.70333 5.06962 9.75634 4.46042 10.8187 3.86894C11.1175 3.70288 11.0339 3.63291 10.8047 3.50323C9.74507 2.90523 8.693 2.29509 7.63716 1.69149C7.56014 1.64764 7.48969 1.57021 7.35066 1.60846C7.35066 1.84169 7.3516 2.08332 7.35066 2.32495C7.34878 2.87911 7.24358 3.00692 6.70063 3.14592C5.3226 3.49764 4.16251 4.20106 3.21 5.28419Z" fill="#C32222"/>
<path d="M3.20898 5.28413C4.16149 4.201 5.32158 3.49758 6.69961 3.14493C7.24256 3.00592 7.34776 2.87811 7.34964 2.32395C7.35058 2.08233 7.34964 1.8407 7.34964 1.60747C7.48867 1.56922 7.55912 1.64665 7.63614 1.6905C8.69198 2.2941 9.74405 2.90423 10.8027 3.50317C11.0328 3.63378 11.1164 3.70282 10.8168 3.86888C9.75438 4.46036 8.70137 5.06956 7.65117 5.68342C7.41634 5.82056 7.32804 5.80844 7.34589 5.51456C7.36185 5.23655 7.35716 4.95574 7.34683 4.6768C7.33086 4.22992 7.03966 4.00136 6.59722 4.08532C5.53012 4.28683 4.5175 4.63481 3.57533 5.17964C3.47764 5.23655 3.3884 5.32611 3.20898 5.28413Z" fill="#FDFBFC"/>
</g>
<defs>
<clipPath id="clip0_2533_24156">
<rect width="12.2501" height="9.00741" fill="white" transform="translate(0.566406)"/>
</clipPath>
</defs>
</svg>
