<svg width="24" height="24" viewBox="0 0 24 24" fill="none" xmlns="http://www.w3.org/2000/svg">
<path d="M22.5 17.2383C22.3371 17.9381 21.8689 18.3659 21.2969 18.6973C20.5105 19.1525 19.6552 19.3886 18.7769 19.5477C17.5929 19.7616 16.4013 19.8129 15.2036 19.7154C15.1424 19.7103 15.0811 19.704 15.0204 19.6926C14.7574 19.6424 14.5977 19.4331 14.6294 19.1844C14.6617 18.9317 14.864 18.78 15.1287 18.7857C15.8522 18.8017 16.5774 18.8462 17.2987 18.8102C18.4635 18.7532 19.606 18.5473 20.6713 18.0129C20.8003 17.9484 20.9228 17.8697 21.0459 17.7933C21.4462 17.5446 21.6792 17.2069 21.6332 16.6896C21.607 16.3953 21.6283 16.0964 21.6283 15.7901C21.5873 15.7964 21.5654 15.7935 21.5506 15.8032C20.5428 16.4609 19.4146 16.7278 18.2585 16.8927C17.2741 17.033 16.2848 17.0655 15.2933 16.9828C15.1981 16.9748 15.1019 16.9697 15.0084 16.9514C14.7574 16.9029 14.6015 16.6959 14.6283 16.4546C14.6573 16.1951 14.8673 16.0382 15.1424 16.0485C15.7221 16.0707 16.3028 16.1073 16.8825 16.0936C18.0977 16.0645 19.2942 15.8934 20.4219 15.3903C20.738 15.2494 21.03 15.0412 21.3149 14.8365C21.5189 14.6899 21.6283 14.4669 21.6256 14.1942C21.6217 13.8184 21.6245 13.4419 21.6245 13.0609C21.5933 13.0609 21.5698 13.0529 21.5567 13.062C20.5559 13.718 19.4342 13.9855 18.2858 14.152C17.2746 14.2986 16.2574 14.3283 15.2386 14.2416C15.1571 14.2347 15.0751 14.2273 14.9947 14.2108C14.7557 14.1606 14.6059 13.9587 14.6278 13.7237C14.6507 13.4784 14.846 13.2999 15.0942 13.3113C15.3742 13.3238 15.6531 13.3586 15.9326 13.3655C17.3545 13.3997 18.7632 13.2948 20.1102 12.7786C20.5209 12.6211 20.9026 12.3713 21.2783 12.1312C21.5074 11.9846 21.6299 11.7411 21.6267 11.4433C21.6223 11.0732 21.6256 10.703 21.6256 10.314C21.5851 10.3254 21.5523 10.3271 21.5277 10.3431C20.604 10.9425 19.5742 11.2083 18.5155 11.3789C17.0799 11.6105 15.6428 11.6087 14.2083 11.3755C13.1922 11.2101 12.1953 10.9637 11.3093 10.3887C11.0523 10.2216 10.8182 10.0026 10.6093 9.77272C10.3353 9.47156 10.2374 9.08942 10.2418 8.67247C10.2506 7.90247 10.2703 7.13133 10.2385 6.36304C10.209 5.64381 10.4852 5.11222 11.0178 4.69585C11.6363 4.21218 12.3451 3.93612 13.085 3.75075C15.4497 3.15756 17.8078 3.17696 20.1485 3.89448C20.7139 4.06787 21.2488 4.31998 21.7262 4.69015C22.1117 4.98902 22.383 5.36832 22.4989 5.85998C22.5 9.6518 22.5 13.4448 22.5 17.2383ZM16.3728 4.26123C16.1885 4.26123 16.0037 4.25496 15.8194 4.26237C14.6113 4.31028 13.4252 4.48196 12.3008 4.97533C11.9284 5.13846 11.5696 5.33296 11.3 5.66149C11.0692 5.94268 11.0632 6.21133 11.3049 6.48339C11.4378 6.63283 11.5948 6.76687 11.7605 6.87524C12.3462 7.25853 12.9992 7.465 13.6691 7.61444C15.0784 7.92871 16.5013 7.96693 17.9298 7.8095C18.7813 7.71539 19.6213 7.54999 20.4066 7.18267C20.7271 7.03266 21.0415 6.84501 21.3155 6.61743C21.73 6.27293 21.7147 5.89192 21.3182 5.52004C21.2274 5.43448 21.1306 5.3495 21.0229 5.29189C20.7199 5.13047 20.4192 4.95708 20.1003 4.83616C18.8983 4.37816 17.6421 4.2618 16.3728 4.26123ZM21.602 7.5728C19.9773 8.5584 18.1972 8.80138 16.3788 8.80195C14.5556 8.80252 12.7711 8.55612 11.1316 7.56425C11.1316 7.95438 11.142 8.32341 11.1283 8.6913C11.1174 8.97591 11.2349 9.18353 11.4285 9.36034C11.784 9.68602 12.2067 9.88394 12.6448 10.0493C13.4662 10.3591 14.3199 10.5136 15.1872 10.5832C16.6889 10.7041 18.1786 10.6317 19.6382 10.2079C20.219 10.0391 20.7878 9.82519 21.2559 9.41167C21.3997 9.28448 21.5681 9.09854 21.5867 8.92344C21.6338 8.48254 21.602 8.03252 21.602 7.5728Z" fill="#5ED65C" stroke="#5ED65C" stroke-width="0.5"/>
<path d="M1.5 14.0722C1.745 13.0963 2.49258 12.6714 3.29266 12.3195C4.28469 11.8837 5.33469 11.6978 6.39945 11.6031C7.89352 11.4696 9.37937 11.5506 10.8335 11.9453C11.3908 12.0964 11.936 12.3217 12.4583 12.5761C12.7722 12.729 13.0538 12.9782 13.3103 13.2281C13.6461 13.5549 13.7626 13.9872 13.7604 14.468C13.7527 16.2003 13.7566 17.9325 13.7582 19.6647C13.7587 20.0736 13.6357 20.4335 13.3825 20.7444C12.9762 21.2429 12.438 21.5355 11.8682 21.7682C10.8346 22.1897 9.75234 22.3745 8.65148 22.4595C8.55031 22.4675 8.45023 22.4863 8.34961 22.5C7.87109 22.5 7.39258 22.5 6.91406 22.5C6.65047 22.4721 6.38687 22.4447 6.12328 22.415C5.14437 22.3061 4.17969 22.1224 3.26914 21.7186C2.47891 21.3684 1.74117 20.9417 1.5 19.9761C1.5 18.0083 1.5 16.0406 1.5 14.0722ZM7.62992 12.4598C6.49187 12.4712 5.36531 12.5767 4.26937 12.9184C3.7307 13.086 3.20789 13.2942 2.76109 13.6627C2.25633 14.0785 2.24812 14.4977 2.75781 14.8992C3.00555 15.0943 3.285 15.2574 3.57047 15.3869C4.46898 15.7947 5.42273 15.9698 6.39344 16.0531C7.89461 16.1814 9.3832 16.1096 10.8445 15.6955C11.3935 15.5398 11.924 15.3333 12.3927 14.9877C13.0232 14.5234 13.0347 14.042 12.3954 13.596C12.0755 13.3729 11.7189 13.1916 11.3574 13.0524C10.1559 12.5904 8.89867 12.4752 7.62992 12.4598ZM2.37391 15.7719C2.37391 16.1695 2.37773 16.5396 2.37281 16.9098C2.36898 17.1973 2.48109 17.4323 2.6993 17.588C2.97328 17.7842 3.25492 17.9821 3.55844 18.1184C4.64562 18.6072 5.79898 18.7772 6.97203 18.8297C8.37258 18.8924 9.75672 18.788 11.1042 18.3523C11.615 18.1869 12.1055 17.9753 12.5255 17.6171C12.7536 17.4226 12.893 17.191 12.875 16.863C12.857 16.5436 12.8723 16.2219 12.8712 15.9014C12.8712 15.8643 12.8586 15.8272 12.8515 15.789C11.2212 16.7723 9.44281 17.017 7.62609 17.0159C5.80227 17.0148 4.01727 16.7706 2.37391 15.7719ZM2.37281 18.5103C2.37281 18.8975 2.37773 19.2649 2.37117 19.6328C2.36625 19.9282 2.47781 20.1695 2.70258 20.3303C2.97711 20.5259 3.25875 20.7233 3.56227 20.8596C4.64289 21.345 5.78969 21.515 6.95617 21.568C8.35672 21.6319 9.74086 21.5298 11.0889 21.0957C11.6128 20.9269 12.1241 20.7199 12.5403 20.3337C12.6727 20.2111 12.8285 20.0371 12.8438 19.8729C12.8859 19.4314 12.858 18.9831 12.858 18.524C11.2262 19.5101 9.44227 19.7565 7.61953 19.7548C5.79734 19.752 4.01289 19.5073 2.37281 18.5103Z" fill="#5ED65C" stroke="#5ED65C" stroke-width="0.5"/>
<path d="M1.5 6.41441C1.57383 6.31346 1.63727 6.20167 1.72203 6.11269C2.39086 5.40942 3.06352 4.70958 3.73563 4.00973C3.98008 3.75478 4.11461 3.73253 4.42906 3.89509C4.83867 4.10727 5.24828 4.31887 5.65516 4.53618C5.74375 4.58353 5.80555 4.5955 5.88648 4.50995C6.52031 3.8409 7.15961 3.17699 7.79672 2.51137C7.80984 2.49768 7.81695 2.47772 7.83938 2.44064C7.76828 2.43494 7.71086 2.42638 7.65398 2.42638C7.23016 2.42524 6.80688 2.42924 6.38305 2.42467C6.06805 2.42125 5.87937 2.24158 5.88156 1.96096C5.88375 1.68947 6.07023 1.5098 6.37211 1.50752C7.21922 1.50124 8.06633 1.49953 8.91398 1.5001C9.19016 1.5001 9.37391 1.69517 9.37445 1.98378C9.37609 2.86728 9.37664 3.75135 9.37445 4.63486C9.37391 4.95541 9.19125 5.16587 8.92875 5.15903C8.67391 5.15276 8.50656 4.95141 8.50437 4.63657C8.50164 4.1335 8.50383 3.63101 8.50383 3.12794C8.4743 3.10455 8.44422 3.0806 8.41469 3.05721C8.38023 3.1268 8.36 3.21007 8.30969 3.26312C7.63156 3.97665 6.94961 4.68676 6.26766 5.39687C6.02375 5.65126 5.8832 5.67407 5.57313 5.51209C5.17664 5.30504 4.77688 5.1037 4.38586 4.88582C4.25133 4.8111 4.17367 4.8362 4.07195 4.944C3.50156 5.54916 2.92406 6.14634 2.34875 6.7458C2.01734 7.09144 1.77125 7.06977 1.5 6.67108C1.5 6.58553 1.5 6.49997 1.5 6.41441Z" fill="#5ED65C" stroke="#5ED65C" stroke-width="0.5"/>
</svg>
