<svg width="24" height="24" viewBox="0 0 24 24" fill="none" xmlns="http://www.w3.org/2000/svg">
<g clip-path="url(#clip0_22_298)">
<path d="M19.5796 20.9907C19.1843 22.2547 18.2617 22.9401 17.0241 22.9079C15.8026 22.8756 14.8763 22.1591 14.597 21.0116C12.8773 21.0116 11.1518 21.0116 9.39933 21.0116C9.27827 21.6464 8.92675 22.1718 8.29809 22.5408C7.86197 22.7965 7.37626 22.9186 6.85263 22.906C5.65221 22.8769 4.84415 22.2471 4.42407 21.0243C3.97191 21.0243 3.51683 21.0395 3.06393 21.0211C2.09616 20.9812 1.49449 20.5641 1.28591 19.7432C1.17287 19.2989 1.12109 18.8375 1.10286 18.3818C1.07514 17.671 1.10504 16.9584 1.09994 16.247C1.09775 15.9577 1.19475 15.7071 1.38801 15.4735C1.93425 14.8115 2.45862 14.1355 3.02455 13.4861C3.19667 13.288 3.44827 13.0855 3.71009 13.0115C6.64624 12.1817 9.63489 11.9165 12.6739 12.5216C14.1872 12.8228 15.5378 13.4051 16.5617 14.4577C16.7725 14.6741 16.984 14.9026 17.1226 15.1552C17.2568 15.3988 17.4537 15.4704 17.7279 15.5102C18.7241 15.6564 19.7152 15.8286 20.7129 15.9672C21.5837 16.0881 22.1802 16.5033 22.5223 17.1894C22.9322 18.0116 23.0168 18.8711 22.7739 19.7413C22.6397 20.2217 22.3188 20.6084 21.7988 20.8306C21.5859 20.9211 21.3343 20.973 21.0972 20.9838C20.5969 21.0072 20.0952 20.9907 19.5796 20.9907ZM19.5672 20.4939C20.0456 20.4939 20.5102 20.4812 20.974 20.4977C21.448 20.5141 21.8017 20.3319 22.0081 19.9926C22.1649 19.7344 22.2313 19.4318 22.3159 19.1445C22.3896 18.8939 22.313 18.7141 21.9863 18.6223C21.7762 18.5635 21.5859 18.435 21.4065 18.3154C20.9973 18.0432 20.7275 17.6894 20.7268 17.2299C20.7268 16.997 20.7975 16.7641 20.8391 16.516C20.8048 16.5052 20.7479 16.4792 20.6881 16.4704C19.7386 16.3229 18.7912 16.1546 17.8366 16.0406C17.2531 15.971 16.7536 15.8584 16.5654 15.3039C16.5581 15.2818 16.5384 15.2628 16.5231 15.2431C15.6611 14.0925 14.3906 13.4406 12.9087 13.0963C9.86389 12.3887 6.86065 12.6621 3.89606 13.4792C3.75239 13.5184 3.61091 13.6273 3.51974 13.7355C2.94725 14.4203 2.38204 15.1102 1.83142 15.8077C1.72713 15.94 1.69577 16.116 1.61336 16.3153C1.9554 16.3153 2.21722 16.3141 2.47977 16.316C2.80503 16.3185 2.89182 16.3862 2.89401 16.6622C2.89838 17.2084 2.89838 17.754 2.89401 18.3002C2.89182 18.5749 2.8043 18.6426 2.47758 18.6451C2.21722 18.647 1.95759 18.6458 1.61628 18.6458C1.73661 19.1002 1.81975 19.5116 1.95978 19.9078C2.06334 20.2021 2.32734 20.3907 2.68251 20.4679C3.26814 20.5952 3.85376 20.5306 4.43282 20.5009C4.70266 19.3629 5.60115 18.6394 6.76292 18.5901C7.34928 18.5654 7.88385 18.6869 8.36081 18.9825C8.95373 19.3502 9.28483 19.861 9.40006 20.48C11.146 20.48 12.8737 20.48 14.5978 20.48C14.896 19.2996 15.8244 18.6014 17.0686 18.5844C18.0809 18.5692 19.3032 19.1622 19.5672 20.4939ZM8.82683 20.7458C8.82683 19.8262 7.98085 19.0837 6.92774 19.0774C5.87099 19.0717 4.9973 19.8312 5.00094 20.7521C5.00459 21.6642 5.86589 22.4041 6.92118 22.4022C7.98231 22.4003 8.82683 21.6661 8.82683 20.7458ZM17.0774 22.4022C18.1334 22.4041 18.9932 21.6648 18.9976 20.7528C19.002 19.8413 18.1472 19.0875 17.0985 19.078C16.0374 19.0685 15.1717 19.8173 15.1717 20.7458C15.171 21.6654 16.017 22.4003 17.0774 22.4022ZM1.68994 16.8286C1.68994 17.2723 1.68994 17.6995 1.68994 18.1324C1.90727 18.1324 2.10199 18.1324 2.29744 18.1324C2.29744 17.6888 2.29744 17.2603 2.29744 16.8286C2.08303 16.8286 1.88831 16.8286 1.68994 16.8286ZM21.424 16.7381C21.1213 17.3571 21.5129 18.0021 22.2561 18.1464C22.162 17.597 21.9498 17.1109 21.424 16.7381Z" fill="#E05269" stroke="#E05269" stroke-width="0.5"/>
<path d="M12.9247 2.24161C12.7293 2.05553 12.5273 1.88338 12.3552 1.69097C12.2881 1.61565 12.237 1.47641 12.2735 1.40046C12.3107 1.32324 12.458 1.27134 12.5688 1.23969C12.6593 1.21374 12.7672 1.2302 12.8679 1.23336C13.6438 1.25868 14.411 1.19855 15.1812 1.10994C15.5451 1.06817 15.9273 1.10235 16.2948 1.14349C17.8314 1.31438 18.6891 3.02834 18.0728 4.04608C17.8832 4.35938 17.8373 4.68407 17.8519 5.03028C17.8759 5.57459 17.671 6.05498 17.2641 6.47082C17.1685 6.56892 17.0817 7.13539 17.1641 7.21703C17.2123 7.26514 17.3027 7.28476 17.3786 7.30691C18.129 7.524 18.8816 7.73603 19.6314 7.95439C20.5641 8.22592 21.1483 8.8639 21.2059 9.70949C21.2358 10.1513 21.2285 10.5956 21.2132 11.038C21.2008 11.4057 20.9368 11.6146 20.505 11.6146C17.1321 11.6165 13.7598 11.6165 10.3868 11.6146C9.96599 11.6146 9.67573 11.4127 9.66624 11.0728C9.65166 10.5595 9.62905 10.0405 9.70125 9.53354C9.81283 8.75061 10.354 8.22592 11.208 7.96578C11.9716 7.73287 12.7431 7.5202 13.5155 7.31134C13.689 7.2645 13.7313 7.19362 13.7386 7.04488C13.7525 6.76639 13.6927 6.53601 13.4754 6.30752C13.1202 5.93473 12.9999 5.47649 13.0268 4.99484C13.0436 4.69609 12.9765 4.43343 12.8044 4.16191C12.3967 3.51632 12.377 2.86314 12.9247 2.24161ZM17.3093 4.64673C17.3005 4.64609 17.2925 4.64546 17.2837 4.64483C17.2837 4.49482 17.2881 4.34545 17.283 4.19545C17.2589 3.45746 16.8527 3.16758 16.0753 3.48658C15.9156 3.5524 15.7836 3.52772 15.656 3.41759C15.2621 3.07834 14.7888 3.07897 14.3104 3.22644C13.8247 3.37645 13.6103 3.71316 13.5964 4.14672C13.5855 4.47837 13.5826 4.81129 13.5972 5.14294C13.6322 5.93789 14.3257 6.59993 15.1929 6.68031C16.1555 6.76956 16.9935 6.2898 17.2145 5.49231C17.2896 5.22016 17.2801 4.92901 17.3093 4.64673ZM15.1396 8.81137C14.8581 8.98543 14.624 9.13416 14.3855 9.27784C14.0931 9.45442 13.8896 9.4386 13.6358 9.21581C13.277 8.90061 12.9182 8.58542 12.5703 8.26199C12.4667 8.16642 12.38 8.14743 12.2392 8.193C11.9584 8.28478 11.6674 8.3506 11.3852 8.43984C10.7369 8.64428 10.3321 9.04555 10.2606 9.6386C10.2074 10.0772 10.2409 10.5234 10.2475 10.9665C10.2482 11.0152 10.3263 11.1045 10.37 11.1051C10.7762 11.1159 11.1832 11.1114 11.6157 11.1114C11.6157 10.8557 11.6186 10.6279 11.6149 10.4006C11.612 10.2317 11.6631 10.0911 11.887 10.0842C12.1298 10.076 12.1882 10.2228 12.1874 10.4006C12.1874 10.6285 12.1874 10.8564 12.1874 11.0975C13.1873 11.0975 14.1565 11.0975 15.1403 11.0975C15.1396 10.3412 15.1396 9.60253 15.1396 8.81137ZM19.2696 11.1133C19.6933 11.1133 20.0755 11.1095 20.4576 11.1152C20.6268 11.1177 20.6465 11.0386 20.6451 10.9196C20.64 10.5557 20.6465 10.1924 20.6422 9.82848C20.6349 9.18416 20.1987 8.65504 19.4972 8.43921C19.2229 8.35503 18.9414 8.28731 18.6694 8.1987C18.5133 8.14807 18.4076 8.16515 18.2909 8.27718C17.997 8.5582 17.6863 8.82593 17.3815 9.09745C16.9483 9.4829 16.8374 9.49113 16.3408 9.18163C16.1482 9.06138 15.9542 8.94365 15.7398 8.812C15.7398 9.60253 15.7398 10.3437 15.7398 11.0981C16.7229 11.0981 17.6914 11.0981 18.6869 11.0981C18.6869 10.8551 18.6862 10.6279 18.6869 10.4C18.6876 10.2215 18.7525 10.0766 18.9918 10.0836C19.2135 10.0899 19.2711 10.2298 19.2703 10.3981C19.2689 10.626 19.2696 10.8538 19.2696 11.1133ZM13.2529 1.78211C13.2551 1.78591 13.2697 1.81882 13.2938 1.84414C13.6577 2.22452 13.6577 2.22452 13.3237 2.61061C13.0881 2.88277 13.0217 3.25366 13.1691 3.47708C13.8692 2.58972 14.756 2.4125 15.9054 2.9277C15.9542 2.94922 16.0272 2.95492 16.0797 2.94163C16.7156 2.77643 17.267 2.84479 17.6768 3.40683C17.6878 3.32265 17.7002 3.28594 17.6958 3.24986C17.5849 2.36503 17.0533 1.65426 15.8937 1.5973C15.7303 1.58907 15.5641 1.58147 15.4022 1.59476C14.6882 1.65299 13.9749 1.71882 13.2529 1.78211ZM14.2666 6.99804C14.3097 7.11703 14.3111 7.27969 14.4038 7.34678C14.7297 7.58286 15.0871 7.78603 15.4394 8.00566C15.7566 7.80819 16.0505 7.60881 16.3641 7.43603C16.5771 7.3183 16.6157 7.17716 16.5472 6.96766C15.8047 7.27273 15.0747 7.274 14.2666 6.99804ZM15.9353 8.31453C16.2525 8.51073 16.5384 8.68858 16.755 8.82213C17.1255 8.52909 17.4675 8.25883 17.8329 7.96958C17.5441 7.88477 17.2896 7.80249 17.0292 7.73793C16.9629 7.72147 16.8637 7.74046 16.8046 7.77527C16.5194 7.94363 16.2423 8.12212 15.9353 8.31453ZM13.0298 7.97591C13.4068 8.28288 13.7445 8.55694 14.096 8.84365C14.3527 8.68352 14.6379 8.50504 14.9456 8.31326C14.6335 8.11958 14.3483 7.93793 14.0559 7.76515C14.0041 7.73477 13.9144 7.72337 13.8546 7.73856C13.5935 7.80565 13.3375 7.88604 13.0298 7.97591Z" fill="#E05269" stroke="#E05269" stroke-width="0.5"/>
<path d="M4.45832 8.15309C4.45832 8.03031 4.45832 7.93663 4.45832 7.84359C4.45832 6.34103 4.45394 4.83847 4.46488 3.3359C4.46634 3.18084 4.52906 3.00995 4.61876 2.87387C4.83536 2.54538 5.0826 2.23082 5.3218 1.91372C5.5209 1.65043 5.72438 1.65422 5.92931 1.91879C5.99495 2.00423 6.06423 2.08841 6.12111 2.17828C6.48576 2.75298 6.9722 3.23653 7.54105 3.66566C7.90351 3.93908 7.87434 4.06883 7.44989 4.28149C7.3631 4.32516 7.28142 4.3796 7.1888 4.40934C6.81978 4.5258 6.70747 4.74163 6.73299 5.08088C6.7505 5.30683 6.80884 5.44544 7.04878 5.53532C7.21506 5.59734 7.36602 5.68912 7.52355 5.76887C7.88674 5.95305 7.89185 6.14103 7.53814 6.32394C7.29601 6.44926 6.95178 6.52711 6.83801 6.71129C6.71184 6.91636 6.79425 7.2189 6.78988 7.47903C6.78623 7.69169 6.78915 7.90435 6.78915 8.15246C7.04659 8.15246 7.28872 8.1512 7.53084 8.15246C8.10188 8.15626 8.45486 8.45057 8.46288 8.94488C8.47164 9.46641 8.47164 9.98858 8.46288 10.5107C8.45486 10.9981 8.11355 11.2911 7.55345 11.293C6.26916 11.2968 4.98414 11.2968 3.69985 11.293C3.13975 11.2918 2.79042 11 2.78021 10.5171C2.76927 9.98731 2.76854 9.45755 2.78094 8.92779C2.79261 8.4493 3.15215 8.15689 3.70714 8.15246C3.94416 8.15183 4.18046 8.15309 4.45832 8.15309ZM5.62227 8.65627C5.0031 8.65627 4.3832 8.65437 3.76403 8.6569C3.43293 8.65817 3.35781 8.72399 3.35708 9.00501C3.35489 9.4873 3.35489 9.97022 3.35708 10.4525C3.35854 10.724 3.44751 10.8013 3.76695 10.8019C5.00675 10.8031 6.24582 10.8031 7.48563 10.8019C7.80141 10.8013 7.89257 10.7221 7.89403 10.45C7.89622 9.98351 7.89549 9.51641 7.89476 9.04995C7.89403 8.71893 7.82767 8.65817 7.45427 8.6569C6.84312 8.655 6.2327 8.65627 5.62227 8.65627ZM5.59019 2.47956C5.5034 2.59601 5.41151 2.74285 5.29336 2.87134C5.08989 3.09349 5.03446 3.3359 5.03738 3.61819C5.05124 5.03277 5.04394 6.44673 5.04394 7.86132C5.04394 7.95309 5.04394 8.04423 5.04394 8.13854C5.4487 8.13854 5.817 8.13854 6.20717 8.13854C6.20717 7.63536 6.21155 7.14738 6.20498 6.65876C6.20279 6.48977 6.26843 6.37331 6.44419 6.29419C6.60172 6.22331 6.74977 6.13723 6.92407 6.04672C6.74904 5.95811 6.61339 5.87583 6.46534 5.8176C6.23124 5.72583 6.1532 5.57582 6.16925 5.3619C6.1831 5.18088 6.19404 4.99607 6.16706 4.81758C6.11601 4.47264 6.24947 4.23972 6.63089 4.11187C6.75998 4.06883 6.87448 3.99161 6.95324 3.95111C6.48941 3.45236 6.04818 2.97514 5.59019 2.47956Z" fill="#E05269" stroke="#E05269" stroke-width="0.5"/>
<path d="M7.02471 16.9255C5.95045 16.9255 4.8762 16.9261 3.80122 16.9255C3.41396 16.9255 3.35926 16.8641 3.34103 16.521C3.32863 16.2875 3.40448 16.097 3.55617 15.9052C3.98938 15.359 4.4007 14.7988 4.82661 14.2488C4.89006 14.1672 4.97466 14.0748 5.07384 14.0419C6.32677 13.621 7.60012 13.2678 8.96828 13.333C9.43941 13.3558 9.90835 13.4197 10.3787 13.4634C10.5837 13.4824 10.6894 13.5754 10.6894 13.7577C10.6887 14.714 10.6916 15.6704 10.6872 16.6267C10.6865 16.8514 10.5786 16.9242 10.2745 16.9248C9.19145 16.9267 8.10844 16.9255 7.02471 16.9255ZM7.32007 13.9596C7.32007 14.7824 7.32007 15.5913 7.32007 16.4058C8.25576 16.4058 9.17176 16.4058 10.1206 16.4058C10.1206 16.309 10.1206 16.2248 10.1206 16.14C10.1206 15.5552 10.1206 14.9704 10.1206 14.3855C10.1206 13.933 10.122 13.9235 9.59985 13.8754C8.83847 13.8045 8.07781 13.8115 7.32007 13.9596ZM6.71767 16.4039C6.71767 15.6299 6.71767 14.8697 6.71767 14.0741C6.2553 14.2115 5.81918 14.3381 5.38598 14.4729C5.33347 14.4893 5.29117 14.5431 5.25689 14.5874C4.8288 15.1457 4.40289 15.7052 3.97844 16.2653C3.95145 16.3014 3.93978 16.3463 3.91353 16.4039C4.86016 16.4039 5.78199 16.4039 6.71767 16.4039Z" fill="#E05269" stroke="#E05269" stroke-width="0.5"/>
<path d="M13.8823 16.9254C13.1537 16.9254 12.4251 16.9261 11.6966 16.9248C11.3334 16.9242 11.2488 16.8507 11.2481 16.5318C11.2466 15.6387 11.2466 14.745 11.2481 13.852C11.2488 13.5127 11.3633 13.438 11.7542 13.4994C12.9342 13.6842 14.0354 14.026 14.9857 14.6861C15.699 15.1817 16.1365 15.8387 16.4749 16.5552C16.5785 16.7748 16.4319 16.9223 16.1227 16.9235C15.3759 16.928 14.6291 16.9254 13.8823 16.9254ZM11.8512 14.0469C11.8512 14.8336 11.8512 15.6191 11.8512 16.4178C13.1019 16.4178 14.3315 16.4178 15.5611 16.4172C15.6151 16.4172 15.6683 16.4109 15.7245 16.4077C15.2905 15.183 13.5818 14.2513 11.8512 14.0469Z" fill="#E05269" stroke="#E05269" stroke-width="0.5"/>
<path d="M6.91533 19.7711C7.54106 19.7698 8.05157 20.2097 8.04792 20.747C8.04428 21.2812 7.52137 21.7293 6.90803 21.7236C6.29761 21.7179 5.80169 21.285 5.79586 20.7527C5.78929 20.2071 6.28521 19.7723 6.91533 19.7711ZM6.91678 21.2148C7.22017 21.2154 7.45646 21.0167 7.46303 20.7553C7.47032 20.4882 7.22236 20.2647 6.91824 20.2641C6.6185 20.2635 6.36033 20.4932 6.36762 20.754C6.37492 21.0129 6.61559 21.2148 6.91678 21.2148Z" fill="#E05269" stroke="#E05269" stroke-width="0.5"/>
<path d="M17.081 19.7711C17.7103 19.7705 18.2092 20.2053 18.2041 20.7502C18.199 21.2825 17.7045 21.7167 17.0941 21.7237C16.4793 21.7306 15.9578 21.2857 15.952 20.7496C15.9454 20.2141 16.456 19.7717 17.081 19.7711ZM17.0759 21.2148C17.3887 21.2167 17.636 21.0028 17.6309 20.7357C17.6257 20.4831 17.3771 20.2673 17.0861 20.2648C16.7827 20.2616 16.5318 20.4838 16.5354 20.7509C16.5398 21.0123 16.7732 21.2129 17.0759 21.2148Z" fill="#E05269" stroke="#E05269" stroke-width="0.5"/>
<path d="M5.60402 9.9734C5.38597 9.9734 5.16791 9.97593 4.94985 9.97277C4.75731 9.97023 4.62823 9.88669 4.63625 9.71516C4.64354 9.55947 4.76606 9.47845 4.94839 9.47845C5.40274 9.47782 5.85709 9.47655 6.31217 9.47908C6.49595 9.48035 6.61045 9.56896 6.61264 9.72466C6.61483 9.88289 6.49595 9.96833 6.31436 9.9715C6.07661 9.97656 5.84032 9.97277 5.60402 9.9734Z" fill="#E05269" stroke="#E05269" stroke-width="0.5"/>
</g>
<defs>
<clipPath id="clip0_22_298">
<rect width="24" height="24" fill="white"/>
</clipPath>
</defs>
</svg>
