<svg xmlns="http://www.w3.org/2000/svg" width="20" height="20" viewBox="0 0 20 20" fill="none">
  <g clip-path="url(#clip0_22_298)">
    <path d="M16.3163 17.4923C15.9869 18.5456 15.2181 19.1168 14.1868 19.0899C13.1688 19.063 12.3969 18.4659 12.1642 17.5097C10.7311 17.5097 9.29319 17.5097 7.83277 17.5097C7.73188 18.0387 7.43895 18.4765 6.91507 18.784C6.55164 18.9971 6.14688 19.0988 5.71052 19.0883C4.71017 19.064 4.03678 18.5392 3.68672 17.5202C3.30992 17.5202 2.93068 17.5329 2.55327 17.5176C1.74679 17.4844 1.2454 17.1368 1.07159 16.4527C0.977385 16.0824 0.934235 15.6979 0.919041 15.3182C0.895947 14.7259 0.920864 14.132 0.91661 13.5391C0.914787 13.2981 0.995617 13.0892 1.15667 12.8946C1.61187 12.3429 2.04884 11.7796 2.52045 11.2385C2.66388 11.0734 2.87356 10.9046 3.09174 10.8429C5.53853 10.1514 8.02907 9.93041 10.5616 10.4346C11.8226 10.6857 12.9482 11.1709 13.8015 12.0481C13.9771 12.2285 14.1533 12.4189 14.2688 12.6293C14.3806 12.8324 14.5447 12.892 14.7732 12.9252C15.6034 13.047 16.4294 13.1905 17.2607 13.306C17.9864 13.4067 18.4835 13.7527 18.7686 14.3245C19.1101 15.0096 19.1806 15.7259 18.9782 16.4511C18.8664 16.8514 18.599 17.1737 18.1657 17.3588C17.9882 17.4343 17.7785 17.4775 17.581 17.4865C17.1641 17.506 16.746 17.4923 16.3163 17.4923ZM16.306 17.0782C16.7047 17.0782 17.0918 17.0677 17.4783 17.0814C17.8734 17.0951 18.1681 16.9432 18.3401 16.6605C18.4708 16.4453 18.5261 16.1932 18.5966 15.9537C18.658 15.7449 18.5941 15.5951 18.3219 15.5186C18.1468 15.4696 17.9882 15.3625 17.8387 15.2628C17.4978 15.036 17.2729 14.7412 17.2723 14.3582C17.2723 14.1641 17.3312 13.97 17.3659 13.7633C17.3373 13.7543 17.2899 13.7327 17.2401 13.7253C16.4488 13.6024 15.6593 13.4621 14.8638 13.3672C14.3776 13.3092 13.9613 13.2153 13.8045 12.7533C13.7984 12.7348 13.782 12.719 13.7692 12.7026C13.0509 11.7437 11.9922 11.2005 10.7572 10.9136C8.2199 10.3239 5.7172 10.5517 3.24671 11.2326C3.12699 11.2654 3.00908 11.3561 2.93311 11.4463C2.45603 12.0169 1.98503 12.5919 1.52618 13.1731C1.43927 13.2833 1.41314 13.43 1.34446 13.5961C1.6295 13.5961 1.84768 13.595 2.06647 13.5966C2.33752 13.5987 2.40984 13.6552 2.41167 13.8851C2.41531 14.3403 2.41531 14.795 2.41167 15.2501C2.40984 15.479 2.33691 15.5355 2.06464 15.5376C1.84768 15.5392 1.63132 15.5381 1.34689 15.5381C1.44717 15.9168 1.51646 16.2597 1.63314 16.5898C1.71944 16.8351 1.93945 16.9923 2.23542 17.0566C2.72344 17.1626 3.21146 17.1088 3.69401 17.084C3.91888 16.1357 4.66762 15.5328 5.63577 15.4917C6.12439 15.4711 6.56987 15.5724 6.96734 15.8187C7.46144 16.1252 7.73735 16.5508 7.83338 17.0666C9.28832 17.0666 10.7281 17.0666 12.1648 17.0666C12.4134 16.083 13.187 15.5012 14.2238 15.487C15.0674 15.4743 16.086 15.9685 16.306 17.0782ZM7.35569 17.2882C7.35569 16.5218 6.6507 15.9031 5.77312 15.8978C4.89249 15.8931 4.16441 16.526 4.16745 17.2934C4.17049 18.0535 4.88824 18.67 5.76765 18.6685C6.65192 18.6669 7.35569 18.0551 7.35569 17.2882ZM14.2311 18.6685C15.1111 18.67 15.8277 18.054 15.8313 17.294C15.835 16.5344 15.1227 15.9063 14.2488 15.8984C13.3645 15.8904 12.6431 16.5144 12.6431 17.2882C12.6425 18.0545 13.3475 18.6669 14.2311 18.6685ZM1.40828 14.0238C1.40828 14.3936 1.40828 14.7496 1.40828 15.1104C1.58939 15.1104 1.75165 15.1104 1.91453 15.1104C1.91453 14.7406 1.91453 14.3836 1.91453 14.0238C1.73585 14.0238 1.57358 14.0238 1.40828 14.0238ZM17.8533 13.9484C17.6011 14.4643 17.9274 15.0017 18.5467 15.122C18.4683 14.6642 18.2915 14.2591 17.8533 13.9484Z" fill="#E05269" stroke="#E05269" stroke-width="0.5"/>
    <path d="M10.7706 1.86801C10.6077 1.71294 10.4394 1.56948 10.296 1.40913C10.24 1.34637 10.1975 1.23033 10.2279 1.16704C10.2589 1.10269 10.3816 1.05944 10.474 1.03307C10.5494 1.01145 10.6393 1.02516 10.7232 1.0278C11.3698 1.0489 12.0092 0.998789 12.651 0.924948C12.9542 0.890137 13.2727 0.918618 13.579 0.952902C14.8595 1.09531 15.5742 2.52361 15.0607 3.37173C14.9027 3.63281 14.8644 3.90339 14.8765 4.19189C14.8966 4.64549 14.7258 5.04581 14.3867 5.39234C14.3071 5.47409 14.2348 5.94615 14.3034 6.01419C14.3435 6.05428 14.4189 6.07063 14.4821 6.08909C15.1075 6.27 15.7347 6.44669 16.3594 6.62865C17.1368 6.85493 17.6236 7.38658 17.6716 8.09124C17.6965 8.45939 17.6904 8.82965 17.6776 9.19833C17.6673 9.50477 17.4473 9.67882 17.0875 9.67882C14.2767 9.68041 11.4665 9.68041 8.65564 9.67882C8.30497 9.67882 8.06309 9.51057 8.05519 9.22734C8.04303 8.79959 8.02419 8.36709 8.08436 7.94461C8.17735 7.29217 8.62829 6.85493 9.33997 6.63815C9.97628 6.44405 10.6193 6.26683 11.2629 6.09278C11.4075 6.05375 11.4428 5.99467 11.4488 5.87073C11.4604 5.63865 11.4106 5.44667 11.2295 5.25626C10.9335 4.9456 10.8332 4.56374 10.8557 4.16236C10.8697 3.91341 10.8138 3.69452 10.6703 3.46825C10.3306 2.93026 10.3142 2.38595 10.7706 1.86801ZM14.4244 3.87227C14.4171 3.87174 14.4104 3.87121 14.4031 3.87069C14.4031 3.74568 14.4068 3.62121 14.4025 3.4962C14.3824 2.88121 14.0439 2.63965 13.3961 2.90547C13.263 2.96033 13.153 2.93976 13.0466 2.84798C12.7184 2.56528 12.324 2.56581 11.9253 2.6887C11.5206 2.8137 11.3419 3.0943 11.3303 3.45559C11.3212 3.73197 11.3188 4.0094 11.3309 4.28578C11.3601 4.94824 11.9381 5.49994 12.6607 5.56692C13.4629 5.64129 14.1612 5.24149 14.3454 4.57692C14.408 4.35013 14.4001 4.1075 14.4244 3.87227ZM12.6163 7.3428C12.3817 7.48785 12.1867 7.6118 11.9879 7.73153C11.7442 7.87868 11.5747 7.86549 11.3632 7.67984C11.0641 7.41717 10.7651 7.15451 10.4752 6.88499C10.3889 6.80535 10.3166 6.78952 10.1993 6.8275C9.96534 6.90398 9.72285 6.95883 9.48765 7.0332C8.94736 7.20356 8.61006 7.53796 8.5505 8.03217C8.50614 8.39768 8.53409 8.76952 8.53956 9.13873C8.54017 9.17934 8.6052 9.25371 8.64166 9.25424C8.98018 9.2632 9.3193 9.25951 9.6797 9.25951C9.6797 9.04643 9.68213 8.85655 9.67909 8.6672C9.67666 8.52637 9.7192 8.40928 9.90578 8.40348C10.1082 8.39662 10.1568 8.51899 10.1562 8.6672C10.1562 8.85708 10.1562 9.04696 10.1562 9.24791C10.9894 9.24791 11.7971 9.24791 12.6169 9.24791C12.6163 8.61762 12.6163 8.0021 12.6163 7.3428ZM16.058 9.26109C16.4111 9.26109 16.7296 9.25793 17.048 9.26268C17.189 9.26479 17.2054 9.19886 17.2042 9.0997C17.2 8.79642 17.2054 8.49367 17.2018 8.1904C17.1957 7.65347 16.8323 7.21253 16.2476 7.03267C16.0191 6.96252 15.7845 6.90609 15.5578 6.83225C15.4278 6.79005 15.3396 6.80429 15.2424 6.89765C14.9975 7.13183 14.7386 7.35494 14.4845 7.58121C14.1235 7.90242 14.0312 7.90927 13.6173 7.65136C13.4568 7.55114 13.2952 7.45304 13.1165 7.34333C13.1165 8.0021 13.1165 8.61973 13.1165 9.24844C13.9357 9.24844 14.7428 9.24844 15.5724 9.24844C15.5724 9.0459 15.5718 8.85655 15.5724 8.66667C15.573 8.51793 15.6271 8.39715 15.8264 8.40295C16.0112 8.40823 16.0592 8.52479 16.0586 8.66509C16.0574 8.85497 16.058 9.04484 16.058 9.26109ZM11.0441 1.48509C11.0459 1.48825 11.0581 1.51568 11.0781 1.53677C11.3814 1.85376 11.3814 1.85376 11.103 2.1755C10.9067 2.4023 10.8514 2.71138 10.9742 2.89756C11.5576 2.1581 12.2967 2.01041 13.2545 2.43975C13.2952 2.45768 13.356 2.46243 13.3997 2.45135C13.9297 2.31369 14.3891 2.37065 14.7307 2.83902C14.7398 2.76887 14.7501 2.73828 14.7465 2.70821C14.6541 1.97086 14.2111 1.37854 13.2447 1.33107C13.1086 1.32422 12.97 1.31789 12.8351 1.32896C12.2401 1.37749 11.6458 1.43234 11.0441 1.48509ZM11.8889 5.8317C11.9247 5.93085 11.9259 6.06641 12.0031 6.12231C12.2748 6.31905 12.5726 6.48836 12.8661 6.67138C13.1305 6.50682 13.3754 6.34067 13.6367 6.19668C13.8142 6.09858 13.8464 5.98096 13.7893 5.80638C13.1706 6.0606 12.5622 6.06166 11.8889 5.8317ZM13.2794 6.92877C13.5438 7.09227 13.782 7.24048 13.9625 7.35177C14.2712 7.10757 14.5563 6.88235 14.8607 6.64131C14.6201 6.57064 14.408 6.50207 14.191 6.44827C14.1357 6.43456 14.053 6.45038 14.0038 6.47939C13.7662 6.61969 13.5352 6.76842 13.2794 6.92877ZM10.8581 6.64659C11.1723 6.90239 11.4537 7.13077 11.7466 7.3697C11.9606 7.23626 12.1982 7.08752 12.4547 6.92771C12.1946 6.76632 11.9569 6.61494 11.7132 6.47095C11.6701 6.44563 11.5953 6.43614 11.5455 6.4488C11.3279 6.50471 11.1146 6.57169 10.8581 6.64659Z" fill="#E05269" stroke="#E05269" stroke-width="0.5"/>
    <path d="M3.71526 6.79425C3.71526 6.69193 3.71526 6.61387 3.71526 6.53633C3.71526 5.2842 3.71161 4.03206 3.72073 2.77992C3.72195 2.6507 3.77421 2.50829 3.84896 2.3949C4.02946 2.12116 4.23549 1.85902 4.43483 1.59477C4.60075 1.37536 4.77031 1.37852 4.94109 1.59899C4.99578 1.6702 5.05352 1.74035 5.10092 1.81524C5.4048 2.29416 5.81016 2.69712 6.28421 3.05472C6.58626 3.28257 6.56195 3.3907 6.20824 3.56792C6.13592 3.60431 6.06785 3.64967 5.99066 3.67446C5.68314 3.77151 5.58955 3.95136 5.61082 4.23407C5.62541 4.42236 5.67403 4.53787 5.87398 4.61277C6.01254 4.66446 6.13835 4.74094 6.26962 4.80739C6.57228 4.96088 6.57653 5.11753 6.28178 5.26996C6.08 5.37439 5.79315 5.43926 5.69834 5.59275C5.5932 5.76364 5.66187 6.01575 5.65823 6.23253C5.65519 6.40975 5.65762 6.58697 5.65762 6.79372C5.87215 6.79372 6.07393 6.79267 6.2757 6.79372C6.75156 6.79689 7.04571 7.04215 7.0524 7.45407C7.05969 7.88868 7.05969 8.32382 7.0524 8.75895C7.04571 9.16508 6.76129 9.40928 6.29454 9.41087C5.2243 9.41403 4.15345 9.41403 3.0832 9.41087C2.61645 9.40981 2.32534 9.16666 2.31683 8.76423C2.30772 8.32276 2.30711 7.8813 2.31744 7.43983C2.32717 7.04109 2.62679 6.79741 3.08928 6.79372C3.2868 6.7932 3.48371 6.79425 3.71526 6.79425ZM4.68522 7.21356C4.16925 7.21356 3.65266 7.21198 3.13668 7.21409C2.86077 7.21515 2.79817 7.27 2.79756 7.50418C2.79574 7.90609 2.79574 8.30852 2.79756 8.71043C2.79878 8.9367 2.87292 9.00105 3.13912 9.00157C4.17229 9.00263 5.20485 9.00263 6.23802 9.00157C6.50117 9.00105 6.57714 8.93512 6.57836 8.70832C6.58018 8.3196 6.57957 7.93035 6.57896 7.54163C6.57836 7.26578 6.52305 7.21515 6.21188 7.21409C5.70259 7.21251 5.19391 7.21356 4.68522 7.21356ZM4.65848 2.0663C4.58616 2.16335 4.50959 2.28572 4.41113 2.39279C4.24157 2.57792 4.19538 2.77992 4.19781 3.01516C4.20936 4.19398 4.20328 5.37228 4.20328 6.5511C4.20328 6.62758 4.20328 6.70353 4.20328 6.78212C4.54058 6.78212 4.84749 6.78212 5.17264 6.78212C5.17264 6.36281 5.17628 5.95615 5.17081 5.54897C5.16899 5.40814 5.22369 5.3111 5.37015 5.24517C5.50143 5.18609 5.6248 5.11436 5.77005 5.03894C5.62419 4.9651 5.51115 4.89653 5.38778 4.84801C5.19269 4.77153 5.12766 4.64653 5.14103 4.46825C5.15258 4.3174 5.1617 4.16339 5.13921 4.01466C5.09667 3.7272 5.20789 3.53311 5.52574 3.42656C5.63331 3.3907 5.72873 3.32635 5.79436 3.29259C5.40784 2.87697 5.04015 2.47929 4.65848 2.0663Z" fill="#E05269" stroke="#E05269" stroke-width="0.5"/>
    <path d="M5.8539 14.1045C4.95869 14.1045 4.06348 14.1051 3.16766 14.1045C2.84495 14.1045 2.79937 14.0534 2.78417 13.7675C2.77384 13.5729 2.83705 13.4141 2.96346 13.2543C3.32446 12.7991 3.66723 12.3323 4.02215 11.874C4.07503 11.806 4.14553 11.729 4.22818 11.7015C5.27229 11.3508 6.33342 11.0565 7.47355 11.1108C7.86615 11.1298 8.25694 11.1831 8.64893 11.2195C8.81971 11.2353 8.90783 11.3128 8.90783 11.4647C8.90722 12.2617 8.90966 13.0586 8.90601 13.8556C8.9054 14.0428 8.81545 14.1035 8.56202 14.104C7.65952 14.1056 6.75702 14.1045 5.8539 14.1045ZM6.10004 11.633C6.10004 12.3186 6.10004 12.9927 6.10004 13.6715C6.87978 13.6715 7.64311 13.6715 8.43379 13.6715C8.43379 13.5908 8.43379 13.5207 8.43379 13.45C8.43379 12.9626 8.43379 12.4753 8.43379 11.9879C8.43379 11.6108 8.435 11.6029 7.99986 11.5628C7.36537 11.5037 6.73149 11.5095 6.10004 11.633ZM5.59804 13.6699C5.59804 13.0249 5.59804 12.3914 5.59804 11.7284C5.21273 11.8429 4.8493 11.9484 4.4883 12.0607C4.44454 12.0744 4.40929 12.1193 4.38072 12.1562C4.02398 12.6214 3.66905 13.0876 3.31534 13.5544C3.29286 13.5845 3.28313 13.6219 3.26125 13.6699C4.05011 13.6699 4.8183 13.6699 5.59804 13.6699Z" fill="#E05269" stroke="#E05269" stroke-width="0.5"/>
    <path d="M11.5686 14.1045C10.9614 14.1045 10.3543 14.1051 9.74714 14.104C9.44448 14.1035 9.37399 14.0423 9.37338 13.7765C9.37216 13.0323 9.37216 12.2875 9.37338 11.5433C9.37399 11.2606 9.4694 11.1984 9.79516 11.2495C10.7785 11.4035 11.6962 11.6883 12.4881 12.2385C13.0825 12.6514 13.4471 13.1989 13.7291 13.796C13.8154 13.979 13.6932 14.1019 13.4356 14.103C12.8132 14.1066 12.1909 14.1045 11.5686 14.1045ZM9.87599 11.7058C9.87599 12.3614 9.87599 13.0159 9.87599 13.6815C10.9183 13.6815 11.9429 13.6815 12.9676 13.681C13.0126 13.681 13.0569 13.6757 13.1037 13.6731C12.7421 12.6525 11.3182 11.8761 9.87599 11.7058Z" fill="#E05269" stroke="#E05269" stroke-width="0.5"/>
    <path d="M5.76275 16.4759C6.2842 16.4748 6.70962 16.8414 6.70658 17.2892C6.70354 17.7344 6.26779 18.1078 5.75667 18.103C5.24799 18.0983 4.83472 17.7375 4.82986 17.2939C4.82439 16.8393 5.23766 16.4769 5.76275 16.4759ZM5.76396 17.679C6.01679 17.6795 6.2137 17.5139 6.21917 17.2961C6.22524 17.0735 6.01861 16.8873 5.76518 16.8868C5.5154 16.8862 5.30025 17.0777 5.30633 17.295C5.31241 17.5107 5.51296 17.679 5.76396 17.679Z" fill="#E05269" stroke="#E05269" stroke-width="0.5"/>
    <path d="M14.2341 16.4759C14.7586 16.4754 15.1743 16.8377 15.17 17.2919C15.1658 17.7354 14.7537 18.0973 14.2451 18.1031C13.7327 18.1089 13.2982 17.7381 13.2933 17.2913C13.2879 16.8451 13.7133 16.4764 14.2341 16.4759ZM14.2299 17.679C14.4906 17.6806 14.6966 17.5023 14.6924 17.2797C14.6881 17.0693 14.4809 16.8894 14.2384 16.8873C13.9856 16.8847 13.7765 17.0698 13.7795 17.2924C13.7832 17.5102 13.9776 17.6774 14.2299 17.679Z" fill="#E05269" stroke="#E05269" stroke-width="0.5"/>
    <path d="M4.67003 8.31117C4.48831 8.31117 4.30659 8.31328 4.12488 8.31064C3.96443 8.30853 3.85686 8.23891 3.86355 8.09598C3.86962 7.96623 3.97172 7.89871 4.12366 7.89871C4.50229 7.89819 4.88091 7.89713 5.26015 7.89924C5.4133 7.9003 5.50872 7.97414 5.51054 8.10389C5.51236 8.23575 5.4133 8.30695 5.26197 8.30959C5.06385 8.31381 4.86694 8.31064 4.67003 8.31117Z" fill="#E05269" stroke="#E05269" stroke-width="0.5"/>
  </g>
  <defs>
    <clipPath id="clip0_22_298">
      <rect width="20" height="20" fill="white"/>
    </clipPath>
  </defs>
</svg>