<svg width="34" height="34" viewBox="0 0 34 34" fill="none" xmlns="http://www.w3.org/2000/svg">
<g clip-path="url(#clip0_2675_8079)">
<path d="M17 33C25.8366 33 33 25.8366 33 17C33 8.16344 25.8366 1 17 1C8.16344 1 1 8.16344 1 17C1 25.8366 8.16344 33 17 33Z" stroke="#272525" stroke-width="2" stroke-miterlimit="10" stroke-linecap="round" stroke-linejoin="round"/>
<path d="M8.33936 13.7709C8.33936 12.9791 8.96737 12.3511 9.7592 12.3511C10.551 12.3511 11.1791 12.9791 11.1791 13.7709C11.1791 14.5628 10.551 15.1908 9.7592 15.1908C8.96737 15.1908 8.33936 14.5628 8.33936 13.7709Z" fill="#272525"/>
<path d="M22.7832 13.7709C22.7832 12.9791 23.4112 12.3511 24.2031 12.3511C24.9949 12.3511 25.6229 12.9791 25.6229 13.7709C25.6229 14.5628 24.9949 15.1908 24.2031 15.1908C23.4385 15.1908 22.7832 14.5628 22.7832 13.7709Z" fill="#272525"/>
<path d="M9 24.065C10.3106 21.0615 13.2869 18.959 16.7546 18.959C20.2223 18.959 23.2258 21.0615 24.5091 24.065" stroke="#272525" stroke-width="2" stroke-miterlimit="10" stroke-linecap="round" stroke-linejoin="round"/>
</g>
<defs>
<clipPath id="clip0_2675_8079">
<rect width="34" height="34" fill="white"/>
</clipPath>
</defs>
</svg>
