<svg width="34" height="34" viewBox="0 0 34 34" fill="none" xmlns="http://www.w3.org/2000/svg">
<g clip-path="url(#clip0_2675_8085)">
<path d="M17 33C25.8366 33 33 25.8366 33 17C33 8.16344 25.8366 1 17 1C8.16344 1 1 8.16344 1 17C1 25.8366 8.16344 33 17 33Z" stroke="#272525" stroke-width="2" stroke-miterlimit="10" stroke-linecap="round" stroke-linejoin="round"/>
<path d="M8.25049 15.937L11.3033 14.2743L8.25049 12.6116" stroke="#272525" stroke-width="2" stroke-miterlimit="10" stroke-linecap="round" stroke-linejoin="round"/>
<path d="M25.7495 15.937L22.6694 14.2743L25.7495 12.6116" stroke="#272525" stroke-width="2" stroke-miterlimit="10" stroke-linecap="round" stroke-linejoin="round"/>
<path d="M26.6763 22.288C26.431 23.133 25.6405 23.6781 24.741 23.6781C23.8143 23.6781 23.0238 23.0512 22.7785 22.2062C22.5059 21.4158 21.7427 20.8706 20.8705 20.8706C19.9437 20.8706 19.1805 21.4703 18.9352 22.3152C18.6899 23.1602 17.8995 23.7054 17 23.7054C16.0732 23.7054 15.2828 23.0784 15.0374 22.2335C14.7649 21.4703 14.0017 20.8979 13.1294 20.8979C12.2027 20.8979 11.4395 21.4975 11.1942 22.3425C10.9489 23.1875 10.1584 23.7326 9.25891 23.7326C8.33216 23.7326 7.5417 23.1057 7.29639 22.2607" stroke="#272525" stroke-width="2" stroke-miterlimit="10" stroke-linecap="round" stroke-linejoin="round"/>
</g>
<defs>
<clipPath id="clip0_2675_8085">
<rect width="34" height="34" fill="white"/>
</clipPath>
</defs>
</svg>
