<svg width="34" height="34" viewBox="0 0 34 34" fill="none" xmlns="http://www.w3.org/2000/svg">
<g clip-path="url(#clip0_2675_8099)">
<path d="M8.45361 12.8199C8.45361 12.0384 9.07336 11.4187 9.85478 11.4187C10.6362 11.4187 11.2559 12.0384 11.2559 12.8199C11.2559 13.6013 10.6362 14.221 9.85478 14.221C9.07336 14.221 8.45361 13.6013 8.45361 12.8199Z" fill="#272525"/>
<path d="M22.707 12.8199C22.707 12.0384 23.3268 11.4187 24.1082 11.4187C24.8896 11.4187 25.5094 12.0384 25.5094 12.8199C25.5094 13.6013 24.8896 14.221 24.1082 14.221C23.3537 14.221 22.707 13.6013 22.707 12.8199Z" fill="#272525"/>
<path d="M17 33C25.8366 33 33 25.8366 33 17C33 8.16344 25.8366 1 17 1C8.16344 1 1 8.16344 1 17C1 25.8366 8.16344 33 17 33Z" stroke="#272525" stroke-width="2" stroke-miterlimit="10" stroke-linecap="round" stroke-linejoin="round"/>
<path d="M25.0296 19.1523C23.8979 22.79 20.5297 25.4037 16.5148 25.4037C12.4999 25.4037 9.13171 22.763 8 19.1523H25.0296Z" stroke="#272525" stroke-width="2" stroke-miterlimit="10" stroke-linecap="round" stroke-linejoin="round"/>
</g>
<defs>
<clipPath id="clip0_2675_8099">
<rect width="34" height="34" fill="white"/>
</clipPath>
</defs>
</svg>
