<svg width="34" height="34" viewBox="0 0 34 34" fill="none" xmlns="http://www.w3.org/2000/svg">
<g clip-path="url(#clip0_2675_8091)">
<path d="M17 33C25.8366 33 33 25.8366 33 17C33 8.16344 25.8366 1 17 1C8.16344 1 1 8.16344 1 17C1 25.8366 8.16344 33 17 33Z" stroke="#272525" stroke-width="2" stroke-miterlimit="10" stroke-linecap="round" stroke-linejoin="round"/>
<path d="M8.56299 12.8731C8.56299 12.1015 9.17497 11.4895 9.9466 11.4895C10.7182 11.4895 11.3302 12.1015 11.3302 12.8731C11.3302 13.6447 10.7182 14.2567 9.9466 14.2567C9.17497 14.2567 8.56299 13.6447 8.56299 12.8731Z" fill="#272525"/>
<path d="M22.6392 12.8731C22.6392 12.1015 23.2511 11.4895 24.0228 11.4895C24.7944 11.4895 25.4064 12.1015 25.4064 12.8731C25.4064 13.6447 24.7944 14.2567 24.0228 14.2567C23.2778 14.2567 22.6392 13.6447 22.6392 12.8731Z" fill="#272525"/>
<path d="M25.3792 19.1262C24.2617 22.7183 20.9357 25.2993 16.9711 25.2993C13.0331 25.2993 9.68052 22.6917 8.56299 19.1262" stroke="#272525" stroke-width="2" stroke-miterlimit="10" stroke-linecap="round" stroke-linejoin="round"/>
<path d="M9.25419 18.7271L7.65771 19.4987" stroke="#272525" stroke-width="2" stroke-miterlimit="10" stroke-linecap="round" stroke-linejoin="round"/>
<path d="M24.7144 18.7271L26.3108 19.4987" stroke="#272525" stroke-width="2" stroke-miterlimit="10" stroke-linecap="round" stroke-linejoin="round"/>
</g>
<defs>
<clipPath id="clip0_2675_8091">
<rect width="34" height="34" fill="white"/>
</clipPath>
</defs>
</svg>
